<?xml version="1.0" encoding="utf-8"?>
<!-- Generator: Adobe Illustrator 22.0.1, SVG Export Plug-In . SVG Version: 6.00 Build 0)  -->
<svg version="1.1" id="mapplic-lots" xmlns="http://www.w3.org/2000/svg" xmlns:xlink="http://www.w3.org/1999/xlink" x="0px"
	 y="0px" width="1300px" height="1000px" viewBox="0 0 1300 1000" enable-background="new 0 0 1300 1000" xml:space="preserve">
<g>
	<path fill="#E8E8E8" d="M613.56,544.22l6.33,107.46V760.4h113.4v0.05l13.01-0.05h12.99v-0.05l39.45-0.15l4.63-0.05
		c2.15,0.03,3.83,0.08,5.06,0.12l1.02,0.13h0.85c8.91,0,20.82-3.39,31.4-7.21v3.17l18.9-10.86l7.1-3.24v-0.83l33.08-19l0.03,0.44
		l18.23-10.92l6.98-4.02l-0.01-0.15l69.52-41.64l6.53-3.97v-0.02c62.17-37.44,73.46-44.59,76.14-46.55l0.1-0.08
		c1.79-1.34,2.93-2.51,3.5-3.11l2.95-3l1.4-7.46l-0.38-3.16l-1.4-31.57l0.02-0.01l-0.36-7.69l-0.8-17.99l-0.04,0.01l-0.68-14.4
		c-0.05-2.21-0.54-4.27-1.46-6.13l-3.59-7.2h-5.05c-4.17-1.92-7.79-4.67-10.52-8c-1.8-2.27-5.7-5.73-12.69-5.73
		c-1.12,0-2.3,0.09-3.54,0.27l-0.14,0.02c-6.52,1.01-66.33,13.31-73.13,14.71l-5.14,1.07l-10.15,2.07l-42.71,3.34l-44.82,3.18
		l-0.01-0.15l-12.86,1.06l-13.06,0.94l0.01,0.14l-43.78,3.62l-41.93,3.08l-0.01-0.11l-12.6,1.03L732,535.34l0.01,0.1l-46.4,3.81
		L613.56,544.22z"/>
	<path fill="#E8E8E8" d="M1122.26,601.96l-107.11,64.62l0.11,0.19l-24.09,14.56l-0.1-0.17l-56.45,34.09l-47.51,28.73
		c-5.87,3.02-33.05,15.7-42.12,19.93c-2.31,1.08-3.7,1.73-4.37,2.04c-0.49,0.17-1.99,0.6-4.45,1.04l-0.33,0.06l-0.71,0.17
		l-0.27,0.08c-9.74,2.84-18.04,4.28-24.66,4.28h-1.32c-1.98-0.05-8.82-0.19-22.68-0.2h-62.83l-107.27,0.23V937.2h93.3v0.1h78.43
		l10.37-14.11l71.34-47.16l67.7-42.25l49.35-29.91l35.63-21.55l0.12,0.2l68.57-41.46l-0.13-0.21l37.49-22.65L1122.26,601.96z"/>
	<path fill="#E8E8E8" d="M1181.33,300.08l-3.67-36.83c-0.25-3.33-2.2-17.59-17.32-26.43c-9.29-5.52-37.8-22.37-44.43-26.29
		l-57.16-33.73l-9.26-5.41l-45.84-27.08l-55.4-32.71l-9-5.27l-52.47-31.02l-17.02-10.03l-0.49-0.23c-1.71-0.81-10.7-4.85-19.77-4.85
		H662.05l-0.03-0.2h-178.5l0.03,0.26c-21.39,0.08-61.3,0.24-67.66,0.24c-15.15,0-21.94,11.16-23.42,17.07l-24.03,103.42l-3.39,14.72
		l-15.49,66.71l-19.4,83.32l-36.13,74.44l98.15,57.07l-0.02,0.05l9.34,5.37l13.7,7.96l0.02-0.07l59.34,34.09l86.79-3.42
		l-15.64-101.99l-12.01-77.83l-12.8-83.44l-1.66-10.56h-0.03l-4.12-26.88l-3.37-6.26l-1.36-1.36c-1.71-1.7-3.5-2.98-5.35-3.81
		c-8.23-4.05-13.53-12.54-13.53-21.69c0-1,0.06-1.94,0.19-2.88l0.06-0.42c1.37-9.85,8.71-17.95,18.27-20.2l0.23-0.04
		c0.33-0.07,0.63-0.13,1-0.21l0.68-0.15c0.18-0.04,0.41-0.07,0.71-0.11c0.53-0.03,1.15-0.08,1.84-0.2c0.49-0.04,0.99-0.08,1.34-0.08
		c7.87,0,15.29,3.92,19.84,10.36l1.45,2.66c1.49,2.73,2.42,5.97,2.77,9.63l0.02,0.15c0.02,0.26,0.02,1,0.02,1.49
		c0,6.77-2.95,13.34-8.09,18.02l-0.21,0.19l-0.2,0.2c-2.14,2.13-3.72,5.08-4.49,7.14l-1.19,3.19l3.87,24.77l0.58,3.71l8.95,58.25
		l6.71,49.57l-0.48,0.03l2.39,14l1.62,11.73l0.37-0.02l8.99,52.79l0.57,3.19l11.55,75.77c1.55,9.84,10.27,24.47,27.94,24.47
		c1.92,0,6.6-0.28,12.46-0.73l90.41-6.67v0.03l78.86-6.08l66.66-5.24l61.27-4.76l13.04-1.02v-0.03l33.51-2.69l4.48-0.9l0.01,0.08
		l84.16-16.95l1.16-0.25l1.02-0.41c6.95-2.78,10.37-10.78,11.09-12.67c2.19-5.54,5.9-10.28,10.74-13.72l0.17-0.12l0.17-0.13
		c3.98-3.04,8.03-8.81,7.46-15.88l-0.02-0.2c-0.49-5.11-2.26-26.07-3.02-35.02l-0.26-3.08l0.71-0.14l-2-6.85
		c-0.26-0.97-0.59-2.11-1.03-3.51l-0.96-3.3c-5.87-20.08-14.9-37.59-26.86-52.04c-8.57-10.37-33.28-26.94-52.5-39.02l-10.79-6.78
		l-0.29,0.45l-29.51-17.1l0.19-0.32l-11.76-6.38l-11.06-6.38l-0.17,0.29l-16.08-8.73l-41.58-18.81l-0.01,0.01l-32.46-14.68
		l-1.68-0.28c-1.14-0.19-2.38-0.29-3.68-0.29c-1.37,0-3.42,0.1-5.4,0.6l-2.11,0.53l-1.83,1.19c-3.82,2.49-8.33,3.8-13.02,3.8
		c-4.21,0-8.41-1.15-12.17-3.34l-0.96-0.56c-7.04-4.58-11.07-11.95-11.07-20.3c0-2.21,0.32-4.37,0.94-6.43l0.39-1.29l0.3-1.03
		c2.29-5.85,6.58-10.47,12.23-13.14l1.25-0.52c2.8-1.17,5.94-1.79,9.08-1.79c3.36,0,6.76,0.74,9.9,2.15l1.8,0.97
		c5.92,3.21,10.17,8.78,11.8,15.38v0.18l0.29,1.33c0.75,3.5,1.9,6.19,3.6,8.46l1.87,2.5l9.71,4.78l33.03,14.94l56.13,27l56.37,32.53
		c17.21,10.87,42.64,29.21,45.73,31.44c5.39,4.48,9.42,8.36,11.98,11.51l0.09,0.11c2.69,3.24,5.23,6.8,7.12,9.56l1.39,2.14
		c7.75,11.9,14.36,26.09,19.67,42.18l0.82,2.61c2.37,7.57,3.43,12.53,3.51,12.93l0.09,0.5l3.58,40.53
		c0.51,4.56,2.02,8.04,4.63,10.65l1.86,1.86l2.43,0.99c4.18,1.7,8.03,4.35,11.13,7.67l0.28,0.29c2.18,2.18,7.57,5.86,13.95,5.86
		c1.04,0,2.08-0.1,3.09-0.29l0.14-0.03c0.52-0.1,1.96-0.39,3.96-0.77l26.42-5.38l37.85-55.37L1181.33,300.08z M872.03,371.68
		l0.85,7.58l-103.07,7.47l-77.55,5.38l-4.1-34.04l9.3-44.54l56.21-2.59l65.52,31.99L872.03,371.68z"/>
	<path fill="#E8E8E8" d="M574.53,633.4h-0.8l-5.94-85.87l-12.75,0.59c-12.95,0.59-36.91,1.58-44.54,1.58c-1.96,0-3.99,0-4.85-0.11
		l-0.34-0.04l-0.34-0.02c-0.27-0.02-1.3-0.11-3.12-0.51c-9.15-2.16-26.76-10.58-48.21-22.99l0.05-0.08l-11.07-6.44l-11.63-7.01
		l-0.1,0.19L344.2,462.3h-50.94l2.86,161.1h0.23c0.65,32.46,1.13,58.08,1.14,59.2v0.96c-0.09,4.12,0.15,23.18,11.09,37.2
		c11.71,14.84,46.42,19.4,46.77,19.45l0.35,0.04l0.8,0.05h0.34c3.13,0.04,3.91,0.08,5.01,0.15c0.77,0.05,1.66,0.1,3.25,0.16v0.29
		h12.88l13.12,0.18v-0.18h64.73l118.76,3.15V659.4h0.93l-0.93-13.45L574.53,633.4z"/>
	<path fill="#E8E8E8" d="M495.5,753.37l-12.78-0.17l-13.22-0.27v0.1l-50.9-0.66v-0.04l-11.88-0.12l-14.12-0.18v0.03l-51.4-0.53
		v-0.13h-12.9l-13.1-0.13v0.13h-28.7v-27h0.19l-0.19-13.08l-0.01-12.51h-0.18l-0.52-35.4h0.06l-0.26-13.15l-0.19-12.85h-0.06
		l-0.93-47.65L283,521.12l-0.1-5.5c-0.56-30.1-1-53.88-1-60.92c0-25.26-13.93-35.57-35.18-48.43c-5.82-3.51-22.59-13.06-43.77-24.91
		l-19.35-10.84V508.4h-50.9v261.2l112.23,117.8h70.27v0.1h259.4V755.18l-79.1-1.7L495.5,753.37L495.5,753.37z"/>
</g>
<g id="green" opacity="0.3">
	<path fill="#DAEADA" d="M506.7,525.4c1.9,0.1,3.7,0.2,6.3,0.2c4.2,0,10.2-0.2,22.8-0.9c2.4-0.3,7.2-1.6,9.6-4.7
		c0.5-0.7,2.2-2.8,1.4-7.9c-0.1-0.7-0.3-1.9-0.5-3.4l-68.5,2.8l0.3,0.5C492,519.7,503.4,524.9,506.7,525.4z"/>
	<g>
		<path fill="#DAEADA" d="M1109.2,464v-0.4h-0.4C1108.9,463.7,1109.1,463.8,1109.2,464z"/>
		<path fill="#DAEADA" d="M1084.7,471.9c-8.2,0-14.9,6.7-14.9,14.9s6.7,14.9,14.9,14.9c8.2,0,14.9-6.7,14.9-14.9
			S1092.9,471.9,1084.7,471.9z"/>
		<path fill="#DAEADA" d="M1109.2,509.5L1109.2,509.5L1109.2,509.5L1109.2,509.5z"/>
		<path fill="#DAEADA" d="M1060.6,463.6C1060.7,463.6,1060.7,463.6,1060.6,463.6L1060.6,463.6L1060.6,463.6z"/>
	</g>
	<polygon fill="#DAEADA" points="694.3,514.5 713.1,513.1 700.1,404.6 866.9,392.7 887.3,391.2 884.2,363.5 828.7,333.3 873.8,256 
		860.5,250 816,327 756.3,297.8 686.8,301 675,357.5 	"/>
	<path fill="#DAEADA" d="M632.9,747.4v-96.1l-5.5-95l-31.8,2.4c-3.4,0.2-20.9,1.3-39.8,2.3h-0.1l5.9,85.3v84.4l0,0
		c15.4,0.4,26,0.7,28.6,1c12.4,1.3,22.6,9.4,28.8,15.7h13.7C632.7,747.4,632.8,747.4,632.9,747.4z"/>
	<path fill="#DAEADA" d="M353.7,764.3c-7.6-0.9-46.6-6.3-64.1-28.7c-12.6-16-15.5-35.4-16.1-46.2l0,0v75h82L353.7,764.3z"/>
	<path fill="#DAEADA" d="M591.9,874.5V772.9c-1.8-3-4.9-4-5.8-4.3c-1.8-0.2-10.6-0.5-24.5-0.8v106.6h30.3V874.5z"/>
	<path fill="#DAEADA" d="M1200.5,667.2c-1.3-15-10.7-133.9-14.5-182.6l-57.7,11.9c-1.3,0.3-2.1,0.8-2.6,2.6
		c-2.8,9.2-8.7,17.4-16.7,22.9l-0.5,0.3c-1.6,1.1-1.8,1.2-1.8,3.1c0,4.9,3.2,73.3,3.3,75c0,0.1,0,2.6,0.1,5.9
		c0.6,12,0.8,27.9,0.8,28.9l4,75.9L862.5,865l-77.3,51.2v8.1h26.5l317.7-192.61l58.6-35.19C1188,696.5,1202.1,686,1200.5,667.2z"/>
	<polygon fill="#DAEADA" points="1182.2,447.4 1146.9,454.7 1179.1,407.6 	"/>
</g>
<path id="river" fill="none" stroke="#BEDDE5" stroke-width="8" d="M774.9,1000c0,0,1.8-22.7,10.3-48.7s38.7-47.4,38.7-47.4
	l32.1-20.8l266-162.6c0,0,23.9-12.7,29.1-44.7s0-105.3,0-105.3s-4.9-57.8,5-79.1c0,0,12.4-36.2,36.4-62.7c0,0,20.1-20,57.5-29.6
	s52.7-26.9,52.7-26.9"/>
<g id="streets">
	<path fill="#EAE3D3" d="M697.2,514.5c-0.1-0.6-6.3-57.1-7.7-75.3c-0.2-2.7-0.5-5.6-0.8-8.7c-1.7-16.4-3.8-36.7,5-50.2
		c10.4-16.1,41-20.3,42.3-20.5c0.2,0,33.5-5.7,53-9.3c17.4-3.3,35.6-30.7,36.7-32.4l37.9-66.7l6.9,3.1L831.9,322
		c-0.8,1.3-20.6,31.8-41.7,35.7c-19.5,3.7-52.9,9.3-53.3,9.4c-0.4,0.1-28.6,3.9-37.2,17.1c-7.3,11.3-5.4,30.2-3.8,45.4
		c0.3,3.2,0.6,6.2,0.8,8.9c1.4,18,7.7,74.5,7.7,75L697.2,514.5z"/>
	<path fill="#EAE3D3" d="M582.6,731.2h-7.4v-84.8c0-16.1-5.5-85.3-5.6-86l7.4-0.6c0.2,2.9,5.6,70.2,5.6,86.6V731.2L582.6,731.2z"/>
	<polygon opacity="0.1" enable-background="new    " points="1186.59,492.13 1139.77,494.13 1186,484.6 	"/>
	<path fill="#FFFFFF" d="M1300,423.6l-44.4,8.7c-1.3,0.3-127.6,26.4-133.9,27.6c-2.1,0.4-4.9-1.4-5.4-2c-4.3-4.7-9.8-8.5-15.7-10.8
		c-0.2-0.3-0.7-1.1-0.9-2.9l-3.6-40.8l-0.2-1.1c-0.4-1.8-9.4-44.1-35.3-75.5c-25.2-30.5-128-84.2-139.7-90.2L846.6,203
		c-1-0.7-1.5-2.1-1.8-3.8V199c-3.4-17.4-18.7-30.1-36.5-30.1c-20.5,0-37.2,16.7-37.2,37.2s16.7,37.2,37.2,37.2
		c7.2,0,14.1-2.1,20.1-5.9c0.8-0.1,2.6-0.3,3.8-0.1l72.1,32.6c41.3,21.4,112.3,62.1,127.7,80.6c18.3,22.1,25.9,51.8,27.2,57.3
		c0.4,4.7,2.9,33.3,3.4,39.5c0.2,2.5-2.4,4.5-2.4,4.5c-7,4.9-12.3,11.7-15.3,19.6c-0.9,2.4-2.9,4.9-3.7,5.2l-87.9,17.8
		c-95.6,7.6-343.9,27.1-354.4,27.1c-10.7,0-14.5-9.8-15.1-13.5l-44.6-290.4c0.3-0.8,1-1.9,1.5-2.5c7.8-7.1,12.3-17.1,12.3-27.6
		c0-20.5-16.7-37.2-37.2-37.2s-37.2,16.7-37.2,37.2c0,14.2,8.3,27.4,21.1,33.5c0,0,2.5,1.3,3,3.8c0.4,2.7,41.5,269.7,44.1,287.4
		c0.8,5.1-0.9,7.2-1.4,7.9c-2.4,3.1-7.2,4.4-9.6,4.7c-12.6,0.6-18.6,0.9-22.8,0.9c-2.6,0-4.4-0.1-6.3-0.2
		c-5.1-0.7-29.4-12.9-53.1-27.5l-157.5-91.6l-225.7-127l-10.8-7.2l-5.2-4.5l-4-6.1l-2.6-5.9l-11.9,47l24.3,13.7
		c1.6,0.9,158.9,88.6,179.7,101c20.5,12.3,28.9,19.2,28.9,37.3c0,21.9,3.8,199.1,4.4,225.1h-0.6v53.6h15.2c0.5,0.8,1.1,1.5,1.7,2.3
		c4.5,5.7,10.4,10.4,16.9,14.1v15.4H367v-0.6c103.2,1.5,212.3,3.3,219.1,4c1,0.2,3.3,1.8,5.8,4.3v179.7c0,5.8-1.6,12.9-3,15.2
		c-5,4-32.5,18-64.4,32.1h82.8c5-3.3,8.4-6.1,10.2-8.4c11-13.7,11.5-34.8,11.5-38.9v-168h1.8c12.1,0,75-0.3,123-0.3
		c29.8,0,48.2,0.1,54.8,0.3c0.5,0,1,0,1.5,0c26.6,0,64.1-18.5,71.3-22.2l1-0.6c46-27.4,196.4-117.1,209.8-126.6l18.1-10.9
		c0,0-0.5-23.6-0.5-24c-0.1-1.7-3.3-70-3.3-75c0-1.9,0.2-2,1.8-3.1l0.5-0.3c8-5.5,13.9-13.6,16.7-22.9c0.6-1.8,1.3-2.3,2.6-2.6
		L1300,461V423.6z M1072.7,603.1c-0.3,0.5-1,1.2-2.1,2c-8,5.9-130.8,79.4-206.5,124.5c-13.8,7-40.3,17.9-53.8,17.9h-0.6
		c-7-0.2-25.9-0.3-56.3-0.3c-44.5,0-100.2,0.2-122.1,0.3H619c-6.2-6.3-16.5-14.4-28.8-15.7c-12-1.3-195-3.9-233.1-4.4
		c-12.6-1.6-32.7-7.5-38.2-14.6c-8.9-11.3-8.3-28.9-8.3-29v-0.7v-0.4c0-1.8-4.1-207.3-4.1-207.3h34.3l93.5,54.4
		c19.2,11.8,53.8,31.7,69.8,32.8c1.6,0.1,3.7,0.2,6.4,0.2c21.9,0,78.5-3.5,85-3.9l362.3-27.5l1.2-0.2c32.7-6.8,83.3-17.1,88.6-17.9
		c2-0.3,3.5,0,4.2,0.7c4.4,5.4,10.2,9.7,16.6,12.3c0.8,0.3,1.1,0.5,1.1,0.6c0,0,0.1,0.2,0.1,0.7l3.3,72.3l0.2,1.7L1072.7,603.1z
		 M1084.9,504.7c-9.8,0-17.7-8-17.7-17.7s7.9-17.7,17.7-17.7s17.7,8,17.7,17.7S1094.7,504.7,1084.9,504.7z"/>
	<path fill="#FCFCFC" stroke="#CCCCCC" stroke-width="0.25" d="M1123.4,469c-6.4,1.2-12.2-2.8-14-4.9c-3.5-3.8-7.9-6.8-12.8-8.7
		c-1.7-0.7-5.6-3.6-6.2-10.5c-0.6-7-3.6-40.8-3.6-40.8s-8.7-41.5-33.4-71.4c-24.5-29.6-132.2-85.5-136.8-87.9l-74.5-33.7
		c-5.3-3.1-6.2-8.8-6.6-10.5c-2.5-12.9-13.8-22.6-27.4-22.6c-15.4,0-27.9,12.5-27.9,27.9s12.5,27.9,27.9,27.9
		c5.8,0,11.2-1.8,15.6-4.8c1.6-1.1,7.1-1.9,11.3-0.7l73.1,33.1c30.4,15.7,112.5,61,130.8,83.1c20.4,24.7,28.3,57.5,29.3,61.8
		c0,0,2.9,33.4,3.5,40.1s-4.1,11.4-6.3,12.9c-5.4,3.8-9.6,9.1-12,15.3c-1.1,2.9-4.8,9.8-10.6,11c-5.8,1.2-88.4,17.9-88.4,17.9
		S612,530.7,598.8,530.7c-14.5,0-22.8-11.8-24.3-21.4s-44.7-291.4-44.7-291.4c-0.4-3.4,2.9-8.3,4.5-9.7c5.7-5.1,9.3-12.5,9.3-20.8
		c0-15.4-12.5-27.9-27.9-27.9s-27.9,12.5-27.9,27.9c0,11.1,6.5,20.7,15.9,25.1c2.1,1,7.1,4.4,8.1,10.8c0,0,41.5,269.5,44.1,287.5
		c2.7,18-13.3,22.6-19.5,23.2c-20,1-24.5,1-30.5,0.6c-7.2-0.5-35.3-15.3-57.3-28.9l-157.2-91.4L47.1,276.9l-3.82-4.6
		C65.84,187.17,113.86,63.18,139.2-0.1L99.2,0C69.2,75.5,17.6,211,0,293.7v305.7c0,0,22.6-171.6,31.5-268.5
		c0.97-10.46,3.25-23.17,6.53-37.47c15.53,8.65,186.53,103.94,206.77,115.97c21.1,12.7,33.4,22,33.4,45.2s4.4,227.8,4.4,227.8
		c-0.1,3.7-0.5,28.6,14.2,47.4c15.6,19.8,53.6,24.7,57.9,25.2l0.9,0.1c88.5,1.2,223.3,3.4,231.6,4.3c3.1,0.3,6.6,2.7,9.7,5.5
		c1.6,1.5,4.3,5.2,4.3,9.6s0,178.2,0,178.2c0,5.7-1.5,16.6-5.3,21.4c-3.6,3.9-25.2,14.9-48.9,25.9h42.1
		c10.3-5.5,18.4-10.7,21.2-14.2c9.2-11.5,9.5-30.9,9.5-33.1c0,0,0-165.3,0-169.5c0-6.2,2.6-7.9,10.6-7.9c8.6,0,155.7-0.6,178.5,0
		c0.4,0,0.8,0,1.3,0c24.9,0,62.8-19,67.1-21.2l0.5-0.3c20.2-12,197.5-117.6,209.3-126.3c12.4-9.2,14.5-20.9,13.7-27
		c0,0-3.5-67.9-3.4-75.2c0-7.3,4.3-9.6,6.3-11c6.2-4.3,10.8-10.5,13.1-17.9c0.7-2.3,2.8-7.6,9.6-9c6.8-1.4,173.6-35.8,173.6-35.8
		v-18.8C1300,432.8,1129.8,467.8,1123.4,469z M1076.1,612.5c-9.3,6.9-152.7,92.5-207.5,125.2c-11,5.6-42.1,19.5-59.1,19
		c-23.1-0.6-168.4,0-179.1,0s-21-6-25.1-8.9c-4.6-3.3-10.1-6.2-16.1-6.8c-11.8-1.2-208-4-232.8-4.4c-9.3-1.1-35.9-6.7-44.9-18.2
		c-11.2-14.3-10.3-35.1-10.3-35.3v-0.4c0,0-4.1-177.5-4.1-207.5s20.8-24,30.6-18.3c9.8,5.7,111.3,64.7,111.3,64.7
		c11.7,7.2,50.6,30.5,65.7,31.5c1.4,0.1,3.4,0.1,5.8,0.1c21.5,0,77.3-3.4,84.3-3.9L957.1,522c0,0,81.6-16.9,89.1-18s11.2,2.2,12.7,4
		c3.5,4.2,7.9,7.5,13,9.7c2.1,0.9,6.6,3,6.9,9.4s3.4,74.8,3.4,74.8l0.1,1.1C1082.4,604,1082.1,608.2,1076.1,612.5z M1084.7,500.3
		c-7.4,0-13.5-6.1-13.5-13.5s6.1-13.5,13.5-13.5s13.5,6.1,13.5,13.5C1098.2,494.2,1092.2,500.3,1084.7,500.3z"/>
</g>
<g id="front">
	<polygon fill="#DAEADA" points="537.5,420.1 542.1,420.1 533,361.4 528.5,361.4 	"/>
	<polygon fill="#DAEADA" points="551,508.1 555.5,507.8 545.3,440.9 540.8,440.9 	"/>
	<polygon fill="#DAEADA" points="525.6,343.6 530.1,343.6 521.7,288.7 517.2,288.7 	"/>
	<polygon fill="#DAEADA" points="735,520.7 734.6,516.8 830.8,509.3 831.3,513.2 	"/>
	<polygon fill="#DAEADA" points="860.4,510.9 860,506.9 952.1,499.8 952.5,503.8 	"/>
	<polygon fill="#DAEADA" points="282.2,670.9 278.5,670.9 278,635.1 281.5,635.1 	"/>
	<polygon fill="#DAEADA" points="766.7,779.2 629.4,779.3 629.4,775.4 766.7,775.3 	"/>
	<polygon fill="#DAEADA" points="389,497.2 390.9,493.7 474.4,542.1 472.5,545.5 	"/>
	<polygon fill="#DAEADA" points="528.9,761.8 430,760.1 430.1,756.3 529,757.9 	"/>
	<polygon fill="#DAEADA" points="956.4,287.8 954.3,291.3 994.3,314.5 996.2,311.7 979.4,301.3 	"/>
	<polygon fill="#DAEADA" points="903,742.8 901.1,739.9 946.9,712.6 948.5,715.4 	"/>
	<polygon fill="#DAEADA" points="1005.1,681.8 1003.2,678.9 1048.9,651.4 1050.5,654.2 	"/>
</g>
<g id="lots">
	<g id="phase3">
		<polygon fill="#EEEEEE" stroke="#AAAAAA" stroke-width="0.5" points="632.9,747.4 632.9,651.3 690.8,649.1 690.6,747.4 		"/>
		<polygon fill="#EEEEEE" stroke="#AAAAAA" stroke-width="0.5" points="627.3,556.3 632.9,651.3 694.3,649 686.6,552.2 		"/>
		<polygon fill="#EEEEEE" stroke="#AAAAAA" stroke-width="0.5" points="686.6,552.2 746.3,547.3 754.9,644.1 694.3,649 		"/>
		<polygon fill="#EEEEEE" stroke="#AAAAAA" stroke-width="0.5" points="746.3,547.3 800.8,543.3 809.6,639 754.9,644.1 		"/>
		<polygon fill="#EEEEEE" stroke="#AAAAAA" stroke-width="0.5" points="800.8,543.3 857.7,538.6 866.9,633.7 809.6,639 		"/>
		<polygon fill="#EEEEEE" stroke="#AAAAAA" stroke-width="0.5" points="857.7,538.6 915.4,534.5 923.3,607.3 908.4,629.8 
			866.9,633.7 		"/>
		<polygon fill="#EEEEEE" stroke="#AAAAAA" stroke-width="0.5" points="915.4,534.5 958.9,531.1 975.1,527.8 982.6,600.4 
			923.3,607.3 		"/>
		<path fill="#EEEEEE" stroke="#AAAAAA" stroke-width="0.5" d="M1069.4,526.8c-0.1,0-0.3-0.2-1.1-0.6c-6.4-2.7-12.2-6.9-16.6-12.3
			c-0.6-0.8-2.1-1-4.2-0.7c-4.5,0.7-41.4,8.2-72.5,14.6l5.5,53.6l90.5-22.1l-1.5-31.8C1069.5,527,1069.4,526.8,1069.4,526.8z"/>
		<path fill="#EEEEEE" stroke="#AAAAAA" stroke-width="0.5" d="M1072.7,603.1l0.3-1.6l-0.2-1.7l-1.8-40.5l-90.5,22.1l2,19l5.7,54.9
			c43.2-26,78.2-47.2,82.3-50.2C1071.7,604.2,1072.3,603.5,1072.7,603.1z"/>
		<polygon fill="#EEEEEE" stroke="#AAAAAA" stroke-width="0.5" points="982.6,600.4 988.3,655.3 912.5,700.7 908.4,629.8 
			923.3,607.3 		"/>
		<polygon fill="#EEEEEE" stroke="#AAAAAA" stroke-width="0.5" points="908.4,629.8 912.5,700.7 854.7,733.9 854.7,634.8 		"/>
		<path fill="#EEEEEE" stroke="#AAAAAA" stroke-width="0.5" d="M810.3,747.4c10.8,0,30.1-7.1,44.4-13.5v-99.2l-57.1,5.3v107.1l0,0
			c5.5,0,9.5,0.1,12,0.2L810.3,747.4z"/>
		<polygon fill="#EEEEEE" stroke="#AAAAAA" stroke-width="0.5" points="797.7,640.1 797.7,747.2 746.3,747.4 746.3,644.8 		"/>
		<polygon fill="#EEEEEE" stroke="#AAAAAA" stroke-width="0.5" points="690.8,649.1 746.3,644.8 746.3,747.4 690.6,747.4 		"/>
		<polygon fill="#EEEEEE" stroke="#AAAAAA" stroke-width="0.5" points="629.1,784.6 722.4,784.4 722.4,831 629.1,831 		"/>
		<rect x="629.1" y="831" fill="#EEEEEE" stroke="#AAAAAA" stroke-width="0.5" width="93.3" height="46.6"/>
		<rect x="629.1" y="877.6" fill="#EEEEEE" stroke="#AAAAAA" stroke-width="0.5" width="93.3" height="46.6"/>
		<polygon fill="#EEEEEE" stroke="#AAAAAA" stroke-width="0.5" points="722.4,784.4 785.2,784.4 785.2,916.2 785.2,924.3 
			722.4,924.3 		"/>
		<path fill="#EEEEEE" stroke="#AAAAAA" stroke-width="0.5" d="M838.5,779.8c-9.6,2.8-19.6,4.8-28.3,4.8c-0.5,0-1,0-1.5,0
			c-3.8-0.1-11.7-0.2-23.5-0.2v131.8l77.3-51.1l-16.7-87.2C844.4,778.5,841.8,779.2,838.5,779.8z"/>
		<path fill="#EEEEEE" stroke="#AAAAAA" stroke-width="0.5" d="M845.8,777.9l16.7,87.2l71.3-44.5L894.1,755
			C889.7,757.5,846.6,777.5,845.8,777.9z"/>
		<polygon fill="#EEEEEE" stroke="#AAAAAA" stroke-width="0.5" points="1072.7,736.6 1033,671 1110.4,624.3 1114.9,711.1 		"/>
		
			<rect x="1003.08" y="679.48" transform="matrix(0.8558 -0.5174 0.5174 0.8558 -222.8035 636.5078)" fill="#EEEEEE" stroke="#AAAAAA" stroke-width="0.5" width="54.11" height="76.71"/>
		<polygon fill="#EEEEEE" stroke="#AAAAAA" stroke-width="0.5" points="980.1,792.6 940.5,726.9 986.7,699 1026.4,764.6 		"/>
		<polygon fill="#EEEEEE" stroke="#AAAAAA" stroke-width="0.5" points="933.9,820.6 894.2,754.9 940.5,726.9 980.1,792.6 		"/>
	</g>
	<g id="MLOC-phase2">
		<polygon id="l01-p2" fill="#FFFFFF" stroke="#333333" stroke-width="0.5" points="713.1,513.1 700.1,404.6 770.7,399.7 
			780.5,507.9 		"/>
		<polygon id="l02-p2" fill="#FFFFFF" stroke="#333333" stroke-width="0.5" points="770.7,399.7 780.5,507.9 845.4,502.8 
			834.2,395.1 		"/>
		<path id="l11-p2" fill="#FFFFFF" stroke="#333333" stroke-width="0.5" d="M772.5,195.8L772.5,195.8c3.2-11,11.2-19.9,21.6-24.2
			l0,0l-18.7-98.4H650.8l19.4,122.6H772.5L772.5,195.8z"/>
		<path id="l10-p2" fill="#FFFFFF" stroke="#333333" stroke-width="0.5" d="M756.3,297.8l33.2-59.7l0,0c-11-6.5-18.4-18.4-18.4-32.1
			c0-3.5,0.5-6.9,1.5-10.2l0,0H670.2L686.8,301L756.3,297.8z"/>
		<path id="l12-p2" fill="#FFFFFF" stroke="#333333" stroke-width="0.5" d="M794.2,171.6c4.3-1.8,9.1-2.8,14.1-2.8
			c6.5,0,12.6,1.7,17.9,4.6l0,0L879.3,86l-15.6-9.2c0,0-7.6-3.6-14.2-3.6s-74.1,0-74.1,0L794.2,171.6L794.2,171.6z"/>
		<path id="l13-p2" fill="#FFFFFF" stroke="#333333" stroke-width="0.5" d="M844.8,198.9v0.2c0.3,1.4,0.7,2.6,1.3,3.4l6.7,3.3
			l31.4,14.2l58.2-96.7L879.3,86l-53.1,87.5l0,0C835.6,178.6,842.6,187.8,844.8,198.9z"/>
		<polygon id="l14-p2" fill="#FFFFFF" stroke="#333333" stroke-width="0.5" points="942.5,123.3 996.2,155 942.5,248 884.3,220 		
			"/>
		<polygon id="l15-p2" fill="#FFFFFF" stroke="#333333" stroke-width="0.5" points="996.2,155 1052.9,188.5 998.3,280.2 942.5,248 
					"/>
		<path id="l16-p2" fill="#FFFFFF" stroke="#333333" stroke-width="0.5" d="M1046.5,313.2l61.4-92.3l-54.9-32.4l-54.6,91.7
			C1017.3,292,1046.5,313.2,1046.5,313.2z"/>
		<polygon id="l03-p2" fill="#FFFFFF" stroke="#333333" stroke-width="0.5" points="834.2,395.1 897.7,390.5 908.4,497.9 
			845.4,502.8 		"/>
		<polygon id="l04-p2" fill="#FFFFFF" stroke="#333333" stroke-width="0.5" points="897.7,390.5 934.4,387.8 963.3,415.9 
			971.1,490.7 953.2,494.3 908.4,497.9 		"/>
		<path id="l19-p2" fill="#FFFFFF" stroke="#333333" stroke-width="0.5" d="M1095.9,402.2l0.2,1.1l3.6,40.8c0.2,1.8,0.6,2.6,0.9,2.9
			c5.9,2.4,11.3,6.1,15.7,10.8c0.6,0.6,3.3,2.4,5.4,2c0.5-0.1,2-0.4,4.1-0.8l21.1-4.3l32.2-47.1l-3.6-35.7l-83.5,15.8l0,0
			C1094.6,396,1095.8,401.6,1095.9,402.2z"/>
		<path id="l18-p2" fill="#FFFFFF" stroke="#333333" stroke-width="0.5" d="M1092,387.6l83.5-15.7l-8-79.4l-97.5,47.2l0,0
			C1081.2,356.9,1088.1,375.3,1092,387.6z"/>
		<path id="l17-p2" fill="#FFFFFF" stroke="#333333" stroke-width="0.5" d="M1060.6,326.8c3.4,4.1,6.5,8.5,9.4,12.8l0,0l97.5-47.2
			l-2.8-28.1c0,0-0.4-10.1-11-16.3c-10.6-6.3-45.8-27.1-45.8-27.1l-61.4,92.3C1052.3,318,1057.2,322.6,1060.6,326.8z"/>
		<path id="l05-p2" fill="#FFFFFF" stroke="#333333" stroke-width="0.5" d="M1044.8,471.4c3.1-7.9,8.4-14.7,15.3-19.6
			c0,0,2.6-2,2.4-4.5c-0.6-6.2-3-34.8-3.4-39.5c-0.4-1.9-0.7-3.8-2.8-9.9L963.2,416l7.8,74.8l70-14.1
			C1042,476.3,1043.9,473.8,1044.8,471.4z"/>
		<path id="l06-p2" fill="#FFFFFF" stroke="#333333" stroke-width="0.5" d="M963.3,415.9l93.1-18.1c-3.3-11.3-10-30-24.4-47.4
			c-6.7-8.1-28.4-23.1-49.4-36.3l-48.2,73.6L963.3,415.9z"/>
		<polygon id="l07-p2" fill="#FFFFFF" stroke="#333333" stroke-width="0.5" points="982.6,314.2 931,284.3 884.2,363.5 887.3,391.2 
			934.4,387.8 		"/>
		<polygon id="l08-p2" fill="#FFFFFF" stroke="#333333" stroke-width="0.5" points="931,284.3 904.3,269.8 873.8,256 828.7,333.3 
			884.2,363.5 		"/>
		<path id="l09-p2" fill="#FFFFFF" stroke="#333333" stroke-width="0.5" d="M860.5,250l-28.3-12.8c-1.2-0.2-3-0.1-3.8,0.1
			c-6,3.9-12.9,5.9-20.1,5.9c-6.8,0-13.2-1.9-18.7-5.1l0,0l-33.2,59.7l59.6,29.1L860.5,250z"/>
	</g>
	<g id="MLOC-phase1">
		<polygon id="l17-p1" fill="#FFFFFF" stroke="#333333" stroke-width="0.5" points="408,471.4 477.8,511.5 546.3,508.8 532.7,420.1 
			423.5,424.1 		"/>
		<polygon id="l18-p1" fill="#FFFFFF" stroke="#333333" stroke-width="0.5" points="532.7,420.1 520.9,343.6 420.7,346.4 
			423.5,424.1 		"/>
		<polygon id="l19-p1" fill="#FFFFFF" stroke="#333333" stroke-width="0.5" points="420.7,346.4 417.9,276.4 510.3,274.5 
			520.9,343.6 		"/>
		<polygon id="l20-p1" fill="#FFFFFF" stroke="#333333" stroke-width="0.5" points="510.3,274.5 417.9,276.4 420.7,346.4 
			342.5,350.1 362.2,265.5 508.2,260.8 		"/>
		<path id="l21-p1" fill="#FFFFFF" stroke="#333333" stroke-width="0.5" d="M507.9,259.3l-5.3-34.6l-1.4-2.6
			c-0.8-0.8-1.5-1.2-1.6-1.2c-12.9-6.2-21.1-19.3-21.1-33.5c0-1.6,0.1-3.1,0.3-4.6l0,0h-97.4l-19.2,82.7l146-4.6
			C508.1,260.3,508,259.8,507.9,259.3z"/>
		<path id="l22-p1" fill="#FFFFFF" stroke="#333333" stroke-width="0.5" d="M478.8,182.7L478.8,182.7c2-15.6,13.7-28.3,28.8-31.6
			l0.5-0.9l-9.9-77c0,0-73.4,0.3-82.3,0.3c-9,0-10.8,7.2-10.8,7.2l-23.7,102H478.8L478.8,182.7z"/>
		<polygon id="l16-p1" fill="#FFFFFF" stroke="#333333" stroke-width="0.5" points="311,415 342.5,350.1 420.7,346.4 423.5,424.1 
			408,471.4 		"/>
		<path id="l23-p1" fill="#FFFFFF" stroke="#333333" stroke-width="0.5" d="M507.7,151.1L507.7,151.1c0.5-0.1,0.9-0.2,1.4-0.3
			c0.9-0.2,1.7-0.3,2.6-0.4c0.3,0,0.5,0,0.8-0.1c1.1-0.1,2.2-0.2,3.3-0.2c14.2,0,26.5,8,32.8,19.6l0,0l111-41.9L650.9,73H498.2
			L507.7,151.1L507.7,151.1z"/>
		<path id="l28-p1" fill="#FFFFFF" stroke="#333333" stroke-width="0.5" d="M583.7,507.9c0.6,3.8,4.4,13.5,15.1,13.5
			c1.2,0,5.1-0.2,11.5-0.7l0,0l84-6.2l-11.6-93.1l-111.2,6.5L583.7,507.9z"/>
		<polygon id="l27-p1" fill="#FFFFFF" stroke="#333333" stroke-width="0.5" points="571.4,427.9 560.6,364.5 675,357.5 682.7,421.4 
					"/>
		<polygon id="l25-p1" fill="#FFFFFF" stroke="#333333" stroke-width="0.5" points="542.3,237.9 675.5,229.4 685.5,292.5 552,301 		
			"/>
		<path id="l24-p1" fill="#FFFFFF" stroke="#333333" stroke-width="0.5" d="M552.8,184.5c0.1,0.9,0.1,1.9,0.1,2.9
			c0,10.5-4.5,20.5-12.3,27.6c-0.5,0.5-1.2,1.7-1.5,2.5l3.2,20.5l133.2-8.6l-16-101.4l-111,41.9
			C550.9,174.3,552.3,179.3,552.8,184.5z"/>
		<polygon id="l13-p1" fill="#FFFFFF" stroke="#333333" stroke-width="0.5" points="436,530.7 391.4,610.4 308.9,610.4 306.5,475.3 
			340.7,475.3 		"/>
		<polygon id="l10-p1" fill="#FFFFFF" stroke="#333333" stroke-width="0.5" points="561.6,646.4 561.6,730.7 456,727.9 455.5,646.4 
					"/>
		<path id="l12-p1" fill="#FFFFFF" stroke="#333333" stroke-width="0.5" d="M318.8,712.7c5.6,7.1,25.6,13,38.2,14.6
			c8.4,0.1,2,0.3,21.1,0.6l-1.2-117.5h-67.8c0.8,39,1.4,71.5,1.4,72.2v0.4v0.7C310.5,683.8,309.9,701.3,318.8,712.7z"/>
		<polygon id="l11-p1" fill="#FFFFFF" stroke="#333333" stroke-width="0.5" points="376.9,610.4 391.4,610.4 455.5,646.4 456,727.9 
			378.1,727.9 		"/>
		<path id="l15-p1" fill="#FFFFFF" stroke="#333333" stroke-width="0.5" d="M455.5,646.4h106.1l-5.9-85.3c0,0-34.9,1.6-45.2,1.6
			c-2.7,0-4.8,0-6.4-0.2c-1.5-0.1-3.3-0.4-5.1-0.8l0,0L455.5,646.4z"/>
		<path id="l14-p1" fill="#FFFFFF" stroke="#333333" stroke-width="0.5" d="M391.4,610.4l64.1,36l42-81.7l1.5-3
			c-15.9-3.7-45.3-20.3-63-31L391.4,610.4z"/>
		<polygon id="l26-p1" fill="#FFFFFF" stroke="#333333" stroke-width="0.5" points="552,301 560.6,364.5 675,357.5 686.8,301 
			685.5,292.5 		"/>
		<polygon id="l09-p1" fill="#FFFFFF" stroke="#333333" stroke-width="0.5" points="561.6,767.9 561.6,874.5 482.5,874.5 
			482.5,766.2 		"/>
		<polygon id="l08-p1" fill="#FFFFFF" stroke="#333333" stroke-width="0.5" points="482.5,766.2 482.5,874.5 405.8,874.5 
			405.6,765.2 		"/>
		<polygon id="l07-p1" fill="#FFFFFF" stroke="#333333" stroke-width="0.5" points="405.6,765.2 405.8,874.5 328.2,874.5 
			328.2,764.4 		"/>
		<rect id="l06-p1" x="250.6" y="764.4" fill="#FFFFFF" stroke="#333333" stroke-width="0.5" width="77.6" height="110"/>
		<polygon id="l05-p1" fill="#FFFFFF" stroke="#333333" stroke-width="0.5" points="273.5,711.8 273.5,764.4 250.6,764.4 
			250.6,874.5 145.7,764.4 145.7,711.8 		"/>
		<path id="l01-p1" fill="#FFFFFF" stroke="#333333" stroke-width="0.5" d="M268.9,454.7c0-18.1-8.4-24.9-28.9-37.3
			c-5.8-3.5-22.5-13-43.4-24.7v128.7H270l0,0C269.4,488.9,268.9,462.3,268.9,454.7z"/>
		<polygon id="l02-p1" fill="#FFFFFF" stroke="#333333" stroke-width="0.5" points="270,521.4 271.4,589 145.7,589 145.7,521.4 		
			"/>
		<polygon id="l03-p1" fill="#FFFFFF" stroke="#333333" stroke-width="0.5" points="271.4,589 272.6,650.4 145.7,650.4 145.7,589 		
			"/>
		<polygon id="l04-p1" fill="#FFFFFF" stroke="#333333" stroke-width="0.5" points="272.6,650.4 273.5,711.4 145.7,711.8 
			145.7,650.4 		"/>
	</g>
</g>
<g id="trees">
	<circle opacity="0.3" fill="#95BC95" enable-background="new    " cx="479.91" cy="767.9" r="20"/>
	<circle opacity="0.3" fill="#95BC95" enable-background="new    " cx="309.04" cy="402.1" r="15"/>
	<circle opacity="0.3" fill="#95BC95" enable-background="new    " cx="342.83" cy="474.4" r="15"/>
	<circle opacity="0.3" fill="#95BC95" enable-background="new    " cx="191.88" cy="402.1" r="15"/>
	<circle opacity="0.3" fill="#95BC95" enable-background="new    " cx="178.55" cy="439.1" r="15"/>
	<circle opacity="0.3" fill="#95BC95" enable-background="new    " cx="189.8" cy="516.85" r="10"/>
	<circle opacity="0.3" fill="#95BC95" enable-background="new    " cx="358.75" cy="483.7" r="10"/>
	<circle opacity="0.3" fill="#95BC95" enable-background="new    " cx="539.1" cy="439.1" r="10"/>
	
		<ellipse transform="matrix(0.1602 -0.9871 0.9871 0.1602 -327.4215 1129.2223)" opacity="0.3" fill="#95BC95" enable-background="new    " cx="499.91" cy="757.03" rx="12.5" ry="12.5"/>
	<circle opacity="0.3" fill="#95BC95" enable-background="new    " cx="191.05" cy="427.85" r="12.5"/>
</g>
<g>
	<path fill="#333333" d="M224.12,249.01h-84c-4.42,0-8-3.58-8-8v-44c0-4.42,3.58-8,8-8h84c4.42,0,8,3.58,8,8v44
		C232.12,245.43,228.54,249.01,224.12,249.01z"/>
	<g>
		<path fill="#FFFFFF" d="M158.8,205.15c0,1.57-0.55,2.8-1.66,3.7s-2.63,1.34-4.57,1.34h-0.84l-1.06,5.08h-2.98l3.02-14.28h3.3
			c1.58,0,2.77,0.35,3.57,1.04S158.8,203.76,158.8,205.15z M152.27,207.71h0.55c0.92,0,1.65-0.22,2.18-0.67s0.8-1.05,0.8-1.81
			c0-1.17-0.63-1.76-1.9-1.76h-0.72L152.27,207.71z"/>
		<path fill="#FFFFFF" d="M168.32,215.27h-2.94l1.34-6.38c0.1-0.44,0.16-0.83,0.16-1.16c0-0.8-0.35-1.2-1.05-1.2
			c-0.6,0-1.14,0.37-1.63,1.11s-0.87,1.78-1.15,3.11l-0.96,4.52h-2.94l3.22-15.2h2.94c-0.25,1.18-0.45,2.08-0.59,2.71
			s-0.42,1.64-0.84,3.02h0.08c0.4-0.5,0.85-0.9,1.35-1.21s1.07-0.45,1.72-0.45c0.9,0,1.59,0.27,2.08,0.82s0.74,1.32,0.74,2.33
			c0,0.48-0.07,1.06-0.22,1.76L168.32,215.27z"/>
		<path fill="#FFFFFF" d="M174.82,215.46c-0.96,0-1.71-0.35-2.26-1.04s-0.83-1.67-0.83-2.92c0-1.29,0.23-2.52,0.7-3.69
			s1.08-2.07,1.85-2.71s1.6-0.96,2.51-0.96c0.63,0,1.18,0.14,1.64,0.41s0.82,0.67,1.07,1.19h0.08l0.56-1.4h2.27l-2.32,10.92h-2.24
			l0.14-1.42h-0.04C177.06,214.92,176.03,215.46,174.82,215.46z M175.97,213.09c0.45,0,0.88-0.22,1.3-0.65s0.75-1.03,1.01-1.77
			s0.38-1.59,0.38-2.53c0-0.46-0.13-0.84-0.38-1.15s-0.58-0.45-0.99-0.45c-0.44,0-0.86,0.23-1.26,0.7s-0.72,1.09-0.96,1.86
			s-0.36,1.53-0.36,2.29c0,0.57,0.11,1,0.33,1.29S175.57,213.09,175.97,213.09z"/>
		<path fill="#FFFFFF" d="M190.84,211.66c0,1.22-0.41,2.16-1.22,2.82s-1.94,0.98-3.38,0.98c-0.7,0-1.3-0.05-1.82-0.15
			s-1-0.26-1.45-0.49v-2.42c1.02,0.59,2.06,0.88,3.12,0.88c0.52,0,0.95-0.11,1.28-0.32s0.5-0.5,0.5-0.86c0-0.28-0.12-0.53-0.36-0.75
			s-0.67-0.5-1.28-0.84c-0.79-0.44-1.34-0.88-1.65-1.32s-0.47-0.96-0.47-1.56c0-1.11,0.36-1.96,1.08-2.57s1.75-0.91,3.08-0.91
			c1.31,0,2.49,0.31,3.54,0.93l-0.97,2.1c-0.91-0.55-1.75-0.82-2.52-0.82c-0.37,0-0.67,0.08-0.9,0.25s-0.34,0.39-0.34,0.67
			c0,0.25,0.1,0.48,0.31,0.67s0.6,0.43,1.17,0.73c0.8,0.41,1.38,0.86,1.74,1.34S190.84,211.04,190.84,211.66z"/>
		<path fill="#FFFFFF" d="M197.4,215.46c-1.37,0-2.43-0.37-3.18-1.1s-1.13-1.77-1.13-3.12c0-1.35,0.27-2.58,0.81-3.69
			s1.26-1.96,2.18-2.54s1.96-0.87,3.12-0.87c1.15,0,2.05,0.27,2.7,0.8s0.97,1.26,0.97,2.18c0,1.22-0.54,2.16-1.63,2.82
			s-2.64,0.99-4.66,0.99h-0.5l-0.02,0.21v0.2c0,0.59,0.17,1.06,0.5,1.4s0.82,0.51,1.44,0.51c0.57,0,1.08-0.06,1.54-0.19
			s1.02-0.34,1.68-0.65v2.22C200.09,215.18,198.82,215.46,197.4,215.46z M199,206.26c-0.57,0-1.11,0.26-1.62,0.78s-0.84,1.16-1,1.9
			h0.44c1.01,0,1.8-0.16,2.36-0.47s0.84-0.74,0.84-1.28C200.03,206.57,199.69,206.26,199,206.26z"/>
		<path fill="#FFFFFF" d="M215.26,215.27h-2.98l1.76-8.1c0.23-0.99,0.48-1.92,0.74-2.8c-0.06,0.05-0.26,0.21-0.6,0.46
			s-1.2,0.81-2.56,1.66l-1.3-2.1l5.53-3.4h2.43L215.26,215.27z"/>
	</g>
	<g>
		<path fill="#CECECE" d="M166.93,236.52h-7.51v-1.12l3.01-3.02c0.92-0.93,1.52-1.59,1.81-1.98c0.29-0.4,0.51-0.78,0.66-1.16
			c0.15-0.38,0.22-0.78,0.22-1.21c0-0.61-0.19-1.09-0.55-1.45c-0.37-0.36-0.88-0.54-1.54-0.54c-0.47,0-0.92,0.08-1.35,0.23
			c-0.42,0.16-0.9,0.44-1.42,0.85l-0.69-0.88c1.05-0.88,2.2-1.31,3.44-1.31c1.07,0,1.91,0.27,2.52,0.82s0.91,1.29,0.91,2.21
			c0,0.72-0.2,1.44-0.61,2.15c-0.41,0.71-1.17,1.6-2.28,2.69l-2.5,2.45v0.06h5.88L166.93,236.52L166.93,236.52z"/>
		<path fill="#CECECE" d="M172.35,224.93c1.04,0,1.87,0.24,2.48,0.73s0.91,1.15,0.91,2.01c0,0.56-0.17,1.08-0.52,1.54
			c-0.35,0.46-0.91,0.89-1.67,1.27c0.93,0.44,1.59,0.91,1.98,1.39c0.39,0.49,0.59,1.05,0.59,1.69c0,0.95-0.33,1.7-0.99,2.27
			s-1.57,0.85-2.72,0.85c-1.22,0-2.16-0.27-2.81-0.8c-0.66-0.53-0.98-1.29-0.98-2.27c0-1.31,0.8-2.33,2.39-3.05
			c-0.72-0.41-1.23-0.84-1.55-1.32c-0.31-0.47-0.47-1-0.47-1.58c0-0.83,0.31-1.49,0.92-1.98
			C170.51,225.18,171.33,224.93,172.35,224.93z M169.89,233.63c0,0.63,0.22,1.11,0.65,1.46s1.05,0.52,1.83,0.52s1.38-0.18,1.81-0.55
			c0.43-0.36,0.65-0.86,0.65-1.5c0-0.5-0.2-0.95-0.61-1.35c-0.41-0.39-1.11-0.77-2.13-1.14c-0.78,0.33-1.34,0.7-1.69,1.11
			C170.06,232.59,169.89,233.07,169.89,233.63z M172.34,225.99c-0.65,0-1.16,0.16-1.53,0.47s-0.55,0.73-0.55,1.25
			c0,0.48,0.15,0.89,0.46,1.23c0.31,0.34,0.88,0.69,1.7,1.03c0.74-0.31,1.27-0.65,1.58-1.01s0.46-0.78,0.46-1.26
			c0-0.53-0.19-0.94-0.57-1.25C173.52,226.14,173,225.99,172.34,225.99z"/>
		<path fill="#CECECE" d="M183.77,236.52h-1.3v-12.16h1.3V236.52z"/>
		<path fill="#CECECE" d="M193.91,232.23c0,1.4-0.35,2.49-1.05,3.27s-1.67,1.18-2.91,1.18c-0.77,0-1.45-0.18-2.04-0.54
			s-1.05-0.88-1.38-1.55c-0.32-0.67-0.48-1.46-0.48-2.36c0-1.4,0.35-2.48,1.05-3.26s1.67-1.17,2.91-1.17c1.2,0,2.15,0.4,2.86,1.2
			C193.56,229.79,193.91,230.87,193.91,232.23z M187.39,232.23c0,1.09,0.22,1.93,0.66,2.5s1.08,0.86,1.93,0.86
			c0.85,0,1.49-0.29,1.93-0.86c0.44-0.57,0.66-1.4,0.66-2.5c0-1.09-0.22-1.92-0.66-2.48s-1.09-0.85-1.95-0.85
			c-0.85,0-1.49,0.28-1.92,0.84C187.6,230.29,187.39,231.12,187.39,232.23z"/>
		<path fill="#CECECE" d="M198.95,235.6c0.23,0,0.45-0.02,0.66-0.05s0.38-0.07,0.51-0.11v0.99c-0.14,0.07-0.35,0.12-0.62,0.17
			c-0.27,0.04-0.52,0.07-0.74,0.07c-1.66,0-2.48-0.87-2.48-2.62v-5.09h-1.23v-0.63l1.23-0.54l0.55-1.83h0.75v1.98h2.48v1.01h-2.48
			V234c0,0.52,0.12,0.91,0.37,1.19C198.19,235.46,198.52,235.6,198.95,235.6z"/>
		<path fill="#CECECE" d="M207.35,234.18c0,0.8-0.3,1.41-0.89,1.84s-1.43,0.65-2.5,0.65c-1.14,0-2.02-0.18-2.66-0.54v-1.2
			c0.41,0.21,0.85,0.37,1.32,0.49c0.47,0.12,0.93,0.18,1.36,0.18c0.68,0,1.2-0.11,1.56-0.32c0.36-0.22,0.55-0.55,0.55-0.99
			c0-0.33-0.14-0.62-0.43-0.86s-0.85-0.52-1.69-0.84c-0.8-0.3-1.36-0.56-1.7-0.78s-0.59-0.47-0.75-0.75s-0.25-0.62-0.25-1.01
			c0-0.7,0.28-1.25,0.85-1.65s1.35-0.61,2.34-0.61c0.92,0,1.82,0.19,2.7,0.56l-0.46,1.05c-0.86-0.35-1.64-0.53-2.34-0.53
			c-0.61,0-1.08,0.1-1.39,0.29c-0.31,0.19-0.47,0.46-0.47,0.8c0,0.23,0.06,0.42,0.18,0.59c0.12,0.16,0.31,0.32,0.57,0.46
			c0.26,0.15,0.76,0.36,1.5,0.63c1.02,0.37,1.7,0.74,2.06,1.12C207.18,233.14,207.35,233.61,207.35,234.18z"/>
	</g>
</g>
<g>
	<path fill="#333333" d="M1204.75,141.8h-84c-4.42,0-8-3.58-8-8v-44c0-4.42,3.58-8,8-8h84c4.42,0,8,3.58,8,8v44
		C1212.75,138.22,1209.17,141.8,1204.75,141.8z"/>
	<g>
		<path fill="#FFFFFF" d="M1139.43,97.93c0,1.57-0.55,2.8-1.66,3.7s-2.63,1.34-4.57,1.34h-0.84l-1.06,5.08h-2.98l3.02-14.28h3.3
			c1.58,0,2.77,0.35,3.57,1.04S1139.43,96.55,1139.43,97.93z M1132.91,100.49h0.55c0.92,0,1.65-0.22,2.18-0.67s0.8-1.05,0.8-1.81
			c0-1.17-0.63-1.76-1.9-1.76h-0.72L1132.91,100.49z"/>
		<path fill="#FFFFFF" d="M1148.95,108.05h-2.94l1.34-6.38c0.1-0.44,0.16-0.83,0.16-1.16c0-0.8-0.35-1.2-1.05-1.2
			c-0.6,0-1.14,0.37-1.63,1.11s-0.87,1.78-1.15,3.11l-0.96,4.52h-2.94l3.22-15.2h2.94c-0.25,1.18-0.45,2.08-0.59,2.71
			s-0.42,1.64-0.84,3.02h0.08c0.4-0.5,0.85-0.9,1.35-1.21s1.07-0.45,1.72-0.45c0.9,0,1.59,0.27,2.08,0.82s0.74,1.32,0.74,2.33
			c0,0.48-0.07,1.06-0.22,1.76L1148.95,108.05z"/>
		<path fill="#FFFFFF" d="M1155.46,108.25c-0.96,0-1.71-0.35-2.26-1.04s-0.83-1.67-0.83-2.92c0-1.29,0.23-2.52,0.7-3.69
			s1.08-2.07,1.85-2.71s1.6-0.96,2.51-0.96c0.63,0,1.18,0.14,1.64,0.41s0.82,0.67,1.07,1.19h0.08l0.56-1.4h2.27l-2.32,10.92h-2.24
			l0.14-1.42h-0.04C1157.7,107.71,1156.66,108.25,1155.46,108.25z M1156.61,105.87c0.45,0,0.88-0.22,1.3-0.65s0.75-1.03,1.01-1.77
			s0.38-1.59,0.38-2.53c0-0.46-0.13-0.84-0.38-1.15s-0.58-0.45-0.99-0.45c-0.44,0-0.86,0.23-1.26,0.7s-0.72,1.09-0.96,1.86
			s-0.36,1.53-0.36,2.29c0,0.57,0.11,1,0.33,1.29S1156.2,105.87,1156.61,105.87z"/>
		<path fill="#FFFFFF" d="M1171.47,104.45c0,1.22-0.41,2.16-1.22,2.82s-1.94,0.98-3.38,0.98c-0.7,0-1.3-0.05-1.82-0.15
			s-1-0.26-1.45-0.49v-2.42c1.02,0.59,2.06,0.88,3.12,0.88c0.52,0,0.95-0.11,1.28-0.32s0.5-0.5,0.5-0.86c0-0.28-0.12-0.53-0.36-0.75
			s-0.67-0.5-1.28-0.84c-0.79-0.44-1.34-0.88-1.65-1.32s-0.47-0.96-0.47-1.56c0-1.11,0.36-1.96,1.08-2.57s1.75-0.91,3.08-0.91
			c1.31,0,2.49,0.31,3.54,0.93l-0.97,2.1c-0.91-0.55-1.75-0.82-2.52-0.82c-0.37,0-0.67,0.08-0.9,0.25s-0.34,0.39-0.34,0.67
			c0,0.25,0.1,0.48,0.31,0.67s0.6,0.43,1.17,0.73c0.8,0.41,1.38,0.86,1.74,1.34S1171.47,103.82,1171.47,104.45z"/>
		<path fill="#FFFFFF" d="M1178.03,108.25c-1.37,0-2.43-0.37-3.18-1.1s-1.13-1.77-1.13-3.12c0-1.35,0.27-2.58,0.81-3.69
			s1.26-1.96,2.18-2.54s1.96-0.87,3.12-0.87c1.15,0,2.05,0.27,2.7,0.8s0.97,1.26,0.97,2.18c0,1.22-0.54,2.16-1.63,2.82
			s-2.64,0.99-4.66,0.99h-0.5l-0.02,0.21v0.2c0,0.59,0.17,1.06,0.5,1.4s0.82,0.51,1.44,0.51c0.57,0,1.08-0.06,1.54-0.19
			s1.02-0.34,1.68-0.65v2.22C1180.72,107.97,1179.45,108.25,1178.03,108.25z M1179.63,99.05c-0.57,0-1.11,0.26-1.62,0.78
			s-0.84,1.16-1,1.9h0.44c1.01,0,1.79-0.16,2.36-0.47s0.84-0.74,0.84-1.28C1180.66,99.36,1180.32,99.05,1179.63,99.05z"/>
		<path fill="#FFFFFF" d="M1198.09,108.05h-9.39l0.42-2.08l4.66-4.14c1.17-1.04,1.98-1.86,2.43-2.49s0.67-1.21,0.67-1.75
			c0-0.49-0.13-0.86-0.4-1.12s-0.63-0.39-1.07-0.39c-0.43,0-0.87,0.11-1.32,0.33s-1.01,0.6-1.67,1.16l-1.43-1.98
			c0.86-0.73,1.68-1.25,2.46-1.56s1.6-0.46,2.44-0.46c1.24,0,2.22,0.32,2.94,0.96s1.08,1.48,1.08,2.53c0,0.7-0.13,1.35-0.4,1.96
			s-0.67,1.22-1.2,1.84s-1.4,1.41-2.6,2.39l-2.63,2.17v0.1h5.55L1198.09,108.05z"/>
	</g>
	<g>
		<path fill="#CECECE" d="M1144.86,129.3h-1.27v-8.14c0-0.68,0.02-1.32,0.06-1.92c-0.11,0.11-0.23,0.22-0.37,0.34
			c-0.14,0.12-0.76,0.63-1.86,1.52l-0.69-0.89l3.02-2.34h1.09v11.43H1144.86z"/>
		<path fill="#CECECE" d="M1156.71,122.75c0,4.47-1.73,6.7-5.19,6.7c-0.6,0-1.08-0.05-1.44-0.16v-1.12c0.42,0.14,0.89,0.2,1.42,0.2
			c1.25,0,2.19-0.39,2.83-1.16c0.64-0.77,0.99-1.96,1.04-3.56h-0.09c-0.29,0.43-0.67,0.76-1.14,0.99c-0.47,0.23-1.01,0.34-1.6,0.34
			c-1.01,0-1.81-0.3-2.41-0.91c-0.59-0.6-0.89-1.45-0.89-2.53c0-1.19,0.33-2.13,1-2.81s1.54-1.03,2.62-1.03
			c0.78,0,1.45,0.2,2.04,0.6c0.58,0.4,1.03,0.98,1.34,1.74C1156.56,120.82,1156.71,121.72,1156.71,122.75z M1152.87,118.83
			c-0.75,0-1.32,0.24-1.73,0.72s-0.61,1.15-0.61,2c0,0.75,0.19,1.34,0.56,1.77s0.95,0.64,1.71,0.64c0.47,0,0.91-0.1,1.31-0.29
			s0.71-0.46,0.94-0.79s0.34-0.68,0.34-1.05c0-0.55-0.11-1.05-0.32-1.52c-0.21-0.46-0.51-0.83-0.89-1.09
			S1153.37,118.83,1152.87,118.83z"/>
		<path fill="#CECECE" d="M1164.4,129.3h-1.3v-12.16h1.3V129.3z"/>
		<path fill="#CECECE" d="M1174.54,125.01c0,1.4-0.35,2.49-1.05,3.27c-0.7,0.78-1.67,1.18-2.91,1.18c-0.77,0-1.45-0.18-2.04-0.54
			s-1.05-0.88-1.38-1.55c-0.32-0.67-0.48-1.46-0.48-2.36c0-1.4,0.35-2.48,1.05-3.26c0.7-0.78,1.67-1.17,2.91-1.17
			c1.2,0,2.15,0.4,2.86,1.2C1174.19,122.58,1174.54,123.65,1174.54,125.01z M1168.02,125.01c0,1.09,0.22,1.93,0.66,2.5
			c0.44,0.57,1.08,0.86,1.93,0.86c0.85,0,1.49-0.29,1.93-0.86c0.44-0.57,0.66-1.4,0.66-2.5c0-1.09-0.22-1.92-0.66-2.48
			c-0.44-0.56-1.09-0.85-1.95-0.85c-0.85,0-1.49,0.28-1.92,0.84C1168.24,123.08,1168.02,123.91,1168.02,125.01z"/>
		<path fill="#CECECE" d="M1179.58,128.39c0.23,0,0.45-0.02,0.66-0.05c0.21-0.03,0.38-0.07,0.51-0.11v0.99
			c-0.14,0.07-0.35,0.12-0.62,0.17c-0.27,0.04-0.52,0.07-0.74,0.07c-1.66,0-2.48-0.87-2.48-2.62v-5.09h-1.23v-0.63l1.23-0.54
			l0.55-1.83h0.75v1.98h2.48v1.01h-2.48v5.04c0,0.52,0.12,0.91,0.37,1.19C1178.82,128.25,1179.15,128.39,1179.58,128.39z"/>
		<path fill="#CECECE" d="M1187.99,126.97c0,0.8-0.3,1.41-0.89,1.84s-1.43,0.65-2.5,0.65c-1.14,0-2.02-0.18-2.66-0.54v-1.2
			c0.41,0.21,0.85,0.37,1.32,0.49c0.47,0.12,0.93,0.18,1.36,0.18c0.68,0,1.2-0.11,1.56-0.32c0.36-0.22,0.55-0.55,0.55-0.99
			c0-0.33-0.14-0.62-0.43-0.86s-0.85-0.52-1.69-0.84c-0.8-0.3-1.36-0.56-1.7-0.78s-0.59-0.47-0.75-0.75s-0.25-0.62-0.25-1.01
			c0-0.7,0.28-1.25,0.85-1.65s1.35-0.61,2.34-0.61c0.92,0,1.82,0.19,2.7,0.56l-0.46,1.05c-0.86-0.35-1.64-0.53-2.34-0.53
			c-0.62,0-1.08,0.1-1.39,0.29s-0.47,0.46-0.47,0.8c0,0.23,0.06,0.42,0.18,0.59c0.12,0.16,0.31,0.32,0.57,0.46
			c0.26,0.15,0.76,0.36,1.5,0.63c1.02,0.37,1.7,0.74,2.06,1.12C1187.81,125.93,1187.99,126.4,1187.99,126.97z"/>
	</g>
</g>
<g>
	<path fill="#888888" d="M908.9,674.8h-84c-4.42,0-8-3.58-8-8v-44c0-4.42,3.58-8,8-8h84c4.42,0,8,3.58,8,8v44
		C916.9,671.22,913.32,674.8,908.9,674.8z"/>
	<g>
		<path fill="#FFFFFF" d="M843.58,630.93c0,1.57-0.55,2.8-1.66,3.7c-1.1,0.9-2.63,1.34-4.57,1.34h-0.84l-1.06,5.08h-2.98l3.02-14.28
			h3.3c1.58,0,2.77,0.35,3.57,1.04C843.18,628.51,843.58,629.55,843.58,630.93z M837.06,633.49h0.55c0.92,0,1.65-0.22,2.18-0.67
			c0.53-0.45,0.8-1.05,0.8-1.81c0-1.17-0.63-1.76-1.9-1.76h-0.72L837.06,633.49z"/>
		<path fill="#FFFFFF" d="M853.1,641.05h-2.94l1.34-6.38c0.1-0.44,0.16-0.83,0.16-1.16c0-0.8-0.35-1.2-1.05-1.2
			c-0.6,0-1.14,0.37-1.63,1.11s-0.87,1.78-1.15,3.11l-0.96,4.52h-2.94l3.22-15.2h2.94c-0.25,1.18-0.45,2.08-0.59,2.71
			s-0.42,1.64-0.84,3.02h0.08c0.4-0.5,0.85-0.9,1.35-1.21c0.49-0.3,1.07-0.45,1.72-0.45c0.9,0,1.59,0.27,2.08,0.82
			c0.49,0.54,0.74,1.32,0.74,2.33c0,0.48-0.08,1.06-0.22,1.76L853.1,641.05z"/>
		<path fill="#FFFFFF" d="M859.61,641.25c-0.96,0-1.71-0.35-2.26-1.04s-0.83-1.67-0.83-2.92c0-1.29,0.23-2.52,0.7-3.69
			c0.47-1.17,1.08-2.07,1.85-2.71c0.76-0.64,1.6-0.96,2.51-0.96c0.63,0,1.18,0.14,1.64,0.41s0.82,0.67,1.07,1.19h0.08l0.56-1.4h2.27
			l-2.32,10.92h-2.24l0.14-1.42h-0.04C861.85,640.71,860.81,641.25,859.61,641.25z M860.76,638.87c0.45,0,0.88-0.22,1.3-0.65
			c0.42-0.44,0.75-1.03,1.01-1.77c0.25-0.75,0.38-1.59,0.38-2.53c0-0.46-0.13-0.84-0.38-1.15c-0.25-0.3-0.58-0.45-0.99-0.45
			c-0.44,0-0.86,0.23-1.26,0.7s-0.72,1.09-0.96,1.86c-0.24,0.77-0.36,1.53-0.36,2.29c0,0.57,0.11,1,0.33,1.29
			C860.04,638.73,860.35,638.87,860.76,638.87z"/>
		<path fill="#FFFFFF" d="M875.62,637.45c0,1.22-0.41,2.16-1.22,2.82s-1.94,0.98-3.38,0.98c-0.7,0-1.3-0.05-1.82-0.15
			s-1-0.26-1.45-0.49v-2.42c1.02,0.59,2.06,0.88,3.12,0.88c0.52,0,0.95-0.11,1.28-0.32s0.5-0.5,0.5-0.86c0-0.28-0.12-0.53-0.36-0.75
			s-0.67-0.5-1.28-0.84c-0.79-0.44-1.34-0.88-1.65-1.32s-0.47-0.96-0.47-1.56c0-1.11,0.36-1.96,1.08-2.57
			c0.72-0.61,1.75-0.91,3.08-0.91c1.31,0,2.49,0.31,3.54,0.93l-0.97,2.1c-0.91-0.55-1.75-0.82-2.52-0.82c-0.37,0-0.67,0.08-0.9,0.25
			c-0.23,0.17-0.34,0.39-0.34,0.67c0,0.25,0.1,0.48,0.31,0.67s0.6,0.43,1.17,0.73c0.8,0.41,1.38,0.86,1.74,1.34
			C875.44,636.27,875.62,636.82,875.62,637.45z"/>
		<path fill="#FFFFFF" d="M882.18,641.25c-1.37,0-2.43-0.37-3.18-1.1c-0.76-0.74-1.13-1.77-1.13-3.12s0.27-2.58,0.81-3.69
			s1.26-1.96,2.18-2.54c0.92-0.58,1.96-0.87,3.12-0.87c1.15,0,2.05,0.27,2.7,0.8c0.64,0.53,0.97,1.26,0.97,2.18
			c0,1.22-0.54,2.16-1.63,2.82c-1.09,0.66-2.64,0.99-4.66,0.99h-0.5l-0.02,0.21v0.2c0,0.59,0.17,1.06,0.5,1.4s0.82,0.51,1.44,0.51
			c0.57,0,1.08-0.06,1.54-0.19c0.46-0.12,1.02-0.34,1.68-0.65v2.22C884.87,640.97,883.6,641.25,882.18,641.25z M883.79,632.05
			c-0.57,0-1.11,0.26-1.62,0.78s-0.84,1.16-1,1.9h0.44c1.01,0,1.79-0.16,2.36-0.47c0.56-0.32,0.84-0.74,0.84-1.28
			C884.81,632.36,884.47,632.05,883.79,632.05z"/>
		<path fill="#FFFFFF" d="M904.11,629.83c0,1.02-0.31,1.87-0.92,2.56c-0.62,0.69-1.47,1.13-2.55,1.32v0.04
			c0.85,0.17,1.5,0.52,1.94,1.04c0.44,0.52,0.66,1.18,0.66,1.97c0,0.87-0.24,1.64-0.72,2.32s-1.17,1.22-2.07,1.6
			s-1.96,0.57-3.19,0.57c-1.56,0-2.82-0.26-3.78-0.77v-2.61c0.55,0.33,1.14,0.57,1.78,0.74s1.26,0.25,1.87,0.25
			c1.03,0,1.82-0.21,2.37-0.62s0.83-0.99,0.83-1.72c0-1.12-0.84-1.68-2.52-1.68h-1.35l0.45-2.16h0.71c1.09,0,1.94-0.2,2.57-0.61
			c0.63-0.4,0.94-0.96,0.94-1.68c0-0.44-0.14-0.77-0.42-1.02c-0.28-0.24-0.67-0.36-1.18-0.36c-0.87,0-1.81,0.33-2.8,0.98l-1.24-1.99
			c0.81-0.53,1.56-0.9,2.27-1.11c0.71-0.21,1.51-0.32,2.41-0.32c1.24,0,2.21,0.29,2.91,0.88
			C903.76,628.04,904.11,628.84,904.11,629.83z"/>
	</g>
	<g>
		<path fill="#CECECE" d="M836.17,652.5c-0.94,0-1.68,0.31-2.23,0.94s-0.82,1.49-0.82,2.58c0,1.12,0.26,1.99,0.79,2.6
			s1.27,0.92,2.25,0.92c0.6,0,1.28-0.11,2.04-0.32v0.87c-0.59,0.22-1.33,0.33-2.2,0.33c-1.26,0-2.24-0.38-2.92-1.15
			s-1.03-1.85-1.03-3.26c0-0.88,0.17-1.66,0.5-2.32s0.81-1.18,1.43-1.54s1.36-0.54,2.2-0.54c0.9,0,1.68,0.16,2.36,0.49l-0.42,0.86
			C837.46,652.66,836.82,652.5,836.17,652.5z"/>
		<path fill="#CECECE" d="M845.47,657.09c0,1.05-0.26,1.86-0.79,2.45s-1.26,0.88-2.19,0.88c-0.57,0-1.08-0.13-1.53-0.4
			s-0.79-0.66-1.03-1.16s-0.36-1.09-0.36-1.77c0-1.05,0.26-1.86,0.79-2.45s1.25-0.88,2.18-0.88c0.9,0,1.61,0.3,2.14,0.9
			S845.47,656.07,845.47,657.09z M840.57,657.09c0,0.82,0.16,1.45,0.49,1.88s0.81,0.64,1.45,0.64s1.12-0.21,1.45-0.64
			s0.5-1.05,0.5-1.88c0-0.82-0.17-1.44-0.5-1.86s-0.82-0.64-1.46-0.64s-1.12,0.21-1.44,0.63S840.57,656.26,840.57,657.09z"/>
		<path fill="#CECECE" d="M855.36,660.3v-4.18c0-0.51-0.11-0.9-0.33-1.15s-0.56-0.38-1.02-0.38c-0.61,0-1.05,0.17-1.34,0.52
			s-0.43,0.88-0.43,1.61v3.59h-0.97v-4.18c0-0.51-0.11-0.9-0.33-1.15s-0.56-0.38-1.03-0.38c-0.61,0-1.06,0.18-1.34,0.55
			s-0.42,0.96-0.42,1.8v3.37h-0.97v-6.42h0.79l0.16,0.88h0.05c0.18-0.31,0.44-0.56,0.78-0.73s0.71-0.26,1.12-0.26
			c1,0,1.66,0.36,1.97,1.09h0.05c0.19-0.34,0.47-0.6,0.83-0.8s0.78-0.29,1.24-0.29c0.73,0,1.27,0.19,1.63,0.56s0.54,0.97,0.54,1.79
			v4.19h-0.98V660.3z"/>
		<path fill="#CECECE" d="M858.25,652.14c0-0.22,0.05-0.39,0.16-0.49s0.25-0.16,0.41-0.16s0.29,0.05,0.4,0.16s0.17,0.27,0.17,0.49
			s-0.06,0.38-0.17,0.49s-0.25,0.16-0.4,0.16c-0.16,0-0.3-0.05-0.41-0.16S858.25,652.36,858.25,652.14z M859.31,660.3h-0.97v-6.42
			h0.97V660.3z"/>
		<path fill="#CECECE" d="M865.76,660.3v-4.15c0-0.52-0.12-0.91-0.36-1.17s-0.61-0.39-1.12-0.39c-0.67,0-1.16,0.18-1.48,0.54
			s-0.47,0.96-0.47,1.8v3.37h-0.97v-6.42h0.79l0.16,0.88h0.05c0.2-0.32,0.48-0.56,0.84-0.74s0.76-0.26,1.2-0.26
			c0.77,0,1.36,0.19,1.75,0.56s0.59,0.97,0.59,1.79v4.19L865.76,660.3L865.76,660.3z"/>
		<path fill="#CECECE" d="M873.99,653.88v0.62l-1.19,0.14c0.11,0.14,0.21,0.32,0.29,0.54s0.13,0.47,0.13,0.75
			c0,0.63-0.21,1.13-0.64,1.51s-1.02,0.56-1.77,0.56c-0.19,0-0.37-0.02-0.54-0.05c-0.41,0.22-0.62,0.49-0.62,0.83
			c0,0.18,0.07,0.31,0.22,0.39s0.39,0.13,0.74,0.13h1.14c0.7,0,1.23,0.15,1.6,0.44s0.56,0.72,0.56,1.28c0,0.71-0.29,1.25-0.86,1.63
			s-1.4,0.56-2.5,0.56c-0.84,0-1.49-0.16-1.94-0.47s-0.68-0.75-0.68-1.32c0-0.39,0.13-0.73,0.38-1.01s0.6-0.48,1.05-0.58
			c-0.16-0.07-0.3-0.19-0.41-0.35s-0.17-0.34-0.17-0.54c0-0.23,0.06-0.44,0.19-0.62s0.32-0.35,0.59-0.51
			c-0.33-0.14-0.6-0.37-0.81-0.7s-0.31-0.7-0.31-1.13c0-0.7,0.21-1.25,0.63-1.63s1.02-0.57,1.79-0.57c0.34,0,0.64,0.04,0.91,0.12
			h2.22V653.88z M868.87,661.38c0,0.35,0.15,0.61,0.44,0.79s0.71,0.27,1.26,0.27c0.82,0,1.42-0.12,1.81-0.37s0.59-0.58,0.59-0.99
			c0-0.35-0.11-0.59-0.32-0.72s-0.62-0.2-1.21-0.2h-1.17c-0.44,0-0.79,0.11-1.03,0.32S868.87,660.99,868.87,661.38z M869.4,655.94
			c0,0.45,0.13,0.79,0.38,1.02s0.61,0.35,1.06,0.35c0.95,0,1.42-0.46,1.42-1.38c0-0.96-0.48-1.45-1.44-1.45
			c-0.46,0-0.81,0.12-1.05,0.37S869.4,655.45,869.4,655.94z"/>
		<path fill="#CECECE" d="M882.57,658.55c0,0.6-0.22,1.06-0.67,1.38s-1.07,0.49-1.88,0.49c-0.85,0-1.52-0.13-1.99-0.4v-0.9
			c0.31,0.16,0.64,0.28,0.99,0.37s0.69,0.13,1.02,0.13c0.51,0,0.9-0.08,1.17-0.24s0.41-0.41,0.41-0.74c0-0.25-0.11-0.46-0.33-0.64
			s-0.64-0.39-1.27-0.63c-0.6-0.22-1.02-0.42-1.27-0.58s-0.44-0.35-0.56-0.57s-0.18-0.46-0.18-0.76c0-0.52,0.21-0.94,0.64-1.24
			s1.01-0.45,1.75-0.45c0.69,0,1.37,0.14,2.03,0.42l-0.35,0.79c-0.64-0.27-1.23-0.4-1.75-0.4c-0.46,0-0.81,0.07-1.04,0.22
			s-0.35,0.34-0.35,0.6c0,0.17,0.04,0.32,0.13,0.44s0.23,0.24,0.42,0.35s0.57,0.27,1.13,0.47c0.76,0.28,1.28,0.56,1.54,0.84
			S882.57,658.12,882.57,658.55z"/>
		<path fill="#CECECE" d="M889.69,657.09c0,1.05-0.26,1.86-0.79,2.45s-1.26,0.88-2.19,0.88c-0.57,0-1.08-0.13-1.53-0.4
			s-0.79-0.66-1.03-1.16s-0.36-1.09-0.36-1.77c0-1.05,0.26-1.86,0.79-2.45s1.25-0.88,2.18-0.88c0.9,0,1.61,0.3,2.14,0.9
			S889.69,656.07,889.69,657.09z M884.8,657.09c0,0.82,0.16,1.45,0.49,1.88s0.81,0.64,1.45,0.64s1.12-0.21,1.45-0.64
			s0.5-1.05,0.5-1.88c0-0.82-0.17-1.44-0.5-1.86s-0.82-0.64-1.46-0.64s-1.12,0.21-1.44,0.63S884.8,656.26,884.8,657.09z"/>
		<path fill="#CECECE" d="M896.94,657.09c0,1.05-0.26,1.86-0.79,2.45s-1.26,0.88-2.19,0.88c-0.57,0-1.08-0.13-1.53-0.4
			s-0.79-0.66-1.03-1.16s-0.36-1.09-0.36-1.77c0-1.05,0.26-1.86,0.79-2.45s1.25-0.88,2.18-0.88c0.9,0,1.61,0.3,2.14,0.9
			S896.94,656.07,896.94,657.09z M892.05,657.09c0,0.82,0.16,1.45,0.49,1.88s0.81,0.64,1.45,0.64s1.12-0.21,1.45-0.64
			s0.5-1.05,0.5-1.88c0-0.82-0.17-1.44-0.5-1.86s-0.82-0.64-1.46-0.64s-1.12,0.21-1.44,0.63S892.05,656.26,892.05,657.09z"/>
		<path fill="#CECECE" d="M903.04,660.3v-4.15c0-0.52-0.12-0.91-0.36-1.17s-0.61-0.39-1.12-0.39c-0.67,0-1.16,0.18-1.48,0.54
			s-0.47,0.96-0.47,1.8v3.37h-0.97v-6.42h0.79l0.16,0.88h0.05c0.2-0.32,0.48-0.56,0.84-0.74s0.76-0.26,1.2-0.26
			c0.77,0,1.36,0.19,1.75,0.56s0.59,0.97,0.59,1.79v4.19L903.04,660.3L903.04,660.3z"/>
	</g>
</g>
</svg>
