<?xml version="1.0"?>
<svg xmlns="http://www.w3.org/2000/svg" version="1.2" baseProfile="tiny" width="800" height="1761" viewBox="0 0 800 1761" stroke-linecap="round" stroke-linejoin="round">
<g id="MLOC-AR">
<path d="M 617.1 482.04 616.3 484.05 616.19 486.18 616.64 492.03 617.39 495.29 617.94 500.18 619.6 503.61 618.73 507.41 619.24 510.76 617.39 512.6 615.45 512.92 609.77 511.98 608.33 512.6 608.58 514.05 607.76 519.49 608.6 522.65 606.69 524.4 605.57 526.07 604.21 529.9 603.66 533.97 603.93 536.13 603.45 537.58 603.11 541.14 603.45 544.14 604.11 545.71 606.31 548.83 606.87 550.59 607.52 555.45 607.21 556.77 605.1 557.24 601.44 558.8 599.53 558.78 597.88 557.94 593.79 554.13 591.08 553.4 588.18 551.01 583.77 548.2 578.53 548.17 577 546.52 575.08 546.16 574.53 543.13 572.77 543.86 569.31 543.86 567.33 542.79 565.8 541 564.18 539.81 560.89 540.89 559.37 540.56 554.09 537.65 551.99 534.73 550.58 533.49 547.06 532.09 540.24 527.22 535.1 521.7 533.18 520.65 531.04 519.1 529.22 516.71 525.11 514.21 522.84 511.29 521.62 507.63 520.02 505.54 517.9 501.05 516.97 497.39 516.68 493.09 516 491.33 514.52 489.06 514.28 486.5 515.45 483.49 515.83 481.47 515.61 478.63 516.71 473.87 516.55 469.12 516.92 467.36 518.26 465.02 518.27 463.14 516.67 460.6 516.01 458.36 516.54 456.1 517.67 454.54 518.72 450.56 519.01 447.46 520.71 446.69 525.12 446.72 528.37 445.45 530.87 442.96 532.86 439.88 536.48 435.79 538.41 434.57 541.2 430.42 542.43 426.47 544.94 423.79 547.35 419.28 549.75 415.82 551.34 412.79 556.2 405.96 558.57 401.53 559.15 397.08 559.99 394.84 560.27 388.06 558.88 385.14 558.53 382.96 562.28 382.75 564.84 381.72 566.78 382.16 569.47 381.52 571.54 381.83 575.37 383.26 578.4 381.51 581.09 378.94 584.85 376.79 590.01 377.86 593.32 377.14 599.88 374.39 602.14 374.57 605.03 375.93 606.89 375.86 614.67 378.03 616.29 379.55 617.37 381.96 620.57 385.41 622.4 386.85 623.06 388.36 623.64 391.55 625.63 395.35 630.32 400.22 632.79 402.05 633.16 404.11 633.34 407.22 632.85 409.53 629.72 410.06 628.66 411.39 630.6 414.43 630.93 416.61 629.17 419.77 628.66 421.84 628.93 425.13 627.7 427.44 626.47 428.58 625.52 432.56 622.62 434.67 622.11 436.12 623.56 437.7 625.65 439.84 625.94 441.94 625.58 444.01 623.16 451.28 622.75 451.96 619.88 452.73 618.37 453.58 617 455.81 618.76 458.2 619.15 459.68 619.18 463.83 617.65 468.09 618.1 469.09 620.84 472.77 621.05 475.59 618.51 479.3 617.1 482.04 Z" id="AR-E" data-name="Entre Ríos"/>
<path d="M 204.45 148.4 205.35 147.76 207.48 147.91 209.15 147.37 209.62 145.9 206.57 142.26 206.72 139.89 205.54 138.53 205.13 136.88 203.9 136.71 202.09 135.23 201.18 132.87 201.4 131.16 203.45 126.98 204.16 124.21 205.03 123.61 206.25 124.96 206.8 122.77 208.41 119.28 210.52 119.25 211.76 118.7 214.55 114.21 223.93 110.24 243.97 101.25 247.9 99.72 249.9 98.61 250.8 97.31 254.35 85.59 255.87 87.05 256.94 87.41 258.62 89.21 260.73 89.67 264.44 93.45 264.89 94.72 266.33 95.13 267.15 96.74 270.14 99.93 273.37 101.37 275.1 103.13 277.43 106.02 280.29 107.49 281.74 107.81 284.28 107.69 285.62 106.98 287.73 104.07 289.23 102.9 289.38 101.59 290.39 99.1 290.46 96.14 290.93 91.57 291.12 87.68 290.96 85.18 288.35 77.88 288.32 75.09 289.37 70.62 290.38 69.62 293.13 70.65 294.19 70.64 296.04 71.87 297.68 71.93 303.37 75.38 305.03 77.28 304.77 79.6 304.97 82.54 304.52 83.47 305.02 84.76 303.6 87.53 303.46 90.6 304.79 93.02 304.49 94.71 305.94 96.83 307.66 96.42 309.28 96.95 311.43 99.09 314.15 100.65 314.15 104.12 315.8 107.29 319.85 112.72 321.05 114.97 323.41 116.34 324.68 115.76 326.11 116.2 327.43 117.52 330.07 118.01 333.48 119.34 334.99 118.88 337.58 117.26 338.59 118.49 342 121.31 343.32 122.12 347.15 123.56 348.52 123.34 350.34 118.98 351.93 117.45 359.59 124.25 360.23 124.13 362.35 120.4 364.5 118.41 366.48 117.91 368.65 115.91 372.04 115.47 373.79 113.76 376.16 110.4 377.56 107.85 378.29 105.34 377.4 77.21 377.09 75.97 375.78 75.68 370.75 75.59 369.93 75.81 368.68 77.47 368.28 79.39 367.09 80.62 366.05 79.88 363.93 77.03 362.38 75.64 359.56 74.57 358.2 73.41 354.99 73.84 353.22 75.24 351.96 75.59 349.43 74.91 349.01 72.32 347.13 68.25 346.01 66.59 343.54 65.62 342.86 64.54 343.76 60.67 344.29 56.83 344.06 55.06 343 53.68 341.18 53.08 337.8 53.03 336.86 52.73 335.17 50.86 333.82 46.78 333.07 40.44 333.81 37.48 332.05 35.98 330.73 35.68 331.18 31.95 332.11 30.25 333.62 26.25 334.88 24.32 335.14 19.85 335.77 17.49 336.68 15.9 336.94 14.46 343.76 14.38 351.29 16.15 354.1 17.75 355.68 18.13 357.1 17.68 361.14 19.41 362.54 21.24 362.92 22.82 361.73 25.05 363.63 26.88 363.37 28.19 365.27 31.47 367.49 33.69 366.8 35.16 366.47 38.05 367.49 38.75 368.56 41.07 369.87 41.83 370.54 43.97 370.87 47.65 371.55 47.46 372.85 43.27 372.87 40.14 374.6 33.62 375.18 32.58 377.25 30.6 378.22 29.18 381.2 21.36 382.61 20.12 384.83 13.79 386.07 12.73 386.76 10.53 388.41 10.08 392.15 10.33 395.06 12.39 396.92 10.72 399.11 10.09 411.71 10.16 424.32 10.24 430.26 9.91 432.58 10.38 433.11 15.1 433.98 16.46 437.59 18.63 438.75 20.34 439.77 20.9 439.46 23.01 440.24 23.68 442.18 24.14 443.84 25.99 445.95 26.73 447.25 28.37 450.05 30.31 451.13 30.65 451.23 77.85 451.22 102.58 451.41 114.98 421.05 154.66 408.76 170.56 387.69 170.25 378.51 167.24 376.97 167.03 376.18 168.08 367.62 186.96 366.98 190.98 365.53 193.79 365.16 195.55 356.72 195.76 353.9 195.16 350.62 196.09 348.73 197.6 345.92 197.73 343.89 196.48 342.1 196.53 334.45 193.42 333.87 193.02 331.98 189.12 326.86 191.08 322.93 190.17 321.47 190.25 317.91 189.06 317.33 189.61 317.09 193.33 316.54 195.82 316.6 197.87 316.05 198.91 314.15 199.1 302.34 197.04 300.64 196.14 298.74 193.67 296.81 193.04 295.49 193.35 293.98 195.63 291.94 197.52 290.13 202.08 288.75 203.08 287.68 202.55 283.13 197.33 281.59 193.64 280.26 192 279.68 190.05 276.45 185.95 273.17 181.04 272.32 179.45 271.8 177.37 272.16 173.48 275.03 171.21 280.92 171.04 282.01 170.73 283.96 169.29 285.69 162.58 283.47 158.65 283.08 155.28 282.39 153.68 280.41 153.24 232.08 153.86 204.45 148.4 Z" id="AR-A" data-name="Salta"/>
<path d="M 256.65 45.85 258.7 42.39 259.88 40.97 262.91 38.56 263.45 36.96 263.11 32.92 265.82 32.47 267.01 31.01 268.08 30.44 272.58 29.03 272.82 27.01 273.72 25.03 274.2 21.81 275.01 19.94 276.47 18.89 279 19.34 279.38 18.53 289.37 15.7 292.59 12.38 292.98 8.34 294.88 1.24 295.58 1 298.98 2.1 300.71 2.99 301.95 4.33 302.64 6.66 306.32 7.31 307.2 7.81 312.33 13.91 314.74 15.13 320.32 14.49 321.34 13.94 326.25 14.59 336.94 14.46 336.68 15.9 335.77 17.49 335.14 19.85 334.88 24.32 333.62 26.25 332.11 30.25 331.18 31.95 330.73 35.68 332.05 35.98 333.81 37.48 333.07 40.44 333.82 46.78 335.17 50.86 336.86 52.73 337.8 53.03 341.18 53.08 343 53.68 344.06 55.06 344.29 56.83 343.76 60.67 342.86 64.54 343.54 65.62 346.01 66.59 347.13 68.25 349.01 72.32 349.43 74.91 351.96 75.59 353.22 75.24 354.99 73.84 358.2 73.41 359.56 74.57 362.38 75.64 363.93 77.03 366.05 79.88 367.09 80.62 368.28 79.39 368.68 77.47 369.93 75.81 370.75 75.59 375.78 75.68 377.09 75.97 377.4 77.21 378.29 105.34 377.56 107.85 376.16 110.4 373.79 113.76 372.04 115.47 368.65 115.91 366.48 117.91 364.5 118.41 362.35 120.4 360.23 124.13 359.59 124.25 351.93 117.45 350.34 118.98 348.52 123.34 347.15 123.56 343.32 122.12 342 121.31 338.59 118.49 337.58 117.26 334.99 118.88 333.48 119.34 330.07 118.01 327.43 117.52 326.11 116.2 324.68 115.76 323.41 116.34 321.05 114.97 319.85 112.72 315.8 107.29 314.15 104.12 314.15 100.65 311.43 99.09 309.28 96.95 307.66 96.42 305.94 96.83 304.49 94.71 304.79 93.02 303.46 90.6 303.6 87.53 305.02 84.76 304.52 83.47 304.97 82.54 304.77 79.6 305.03 77.28 303.37 75.38 297.68 71.93 296.04 71.87 294.19 70.64 293.13 70.65 290.38 69.62 289.37 70.62 288.32 75.09 288.35 77.88 290.96 85.18 291.12 87.68 290.93 91.57 290.46 96.14 290.39 99.1 289.38 101.59 289.23 102.9 287.73 104.07 285.62 106.98 284.28 107.69 281.74 107.81 280.29 107.49 277.43 106.02 275.1 103.13 273.37 101.37 270.14 99.93 267.15 96.74 266.33 95.13 264.89 94.72 264.44 93.45 260.73 89.67 258.62 89.21 256.94 87.41 255.87 87.05 254.35 85.59 260.12 66.56 263.64 54.97 263.86 53.61 256.65 45.85 Z" id="AR-Y" data-name="Jujuy"/>
<path d="M 451.22 102.58 451.23 77.85 451.13 30.65 453.3 31.16 455.46 34.29 454.68 36.35 457.29 37.87 457 39.39 457.97 41.29 463.38 48.57 464.66 51.25 464.45 52.26 466.56 55.08 471.02 57.82 472.26 59.47 474.74 61.73 475.06 63.81 478.16 65.91 480.64 66.19 482.66 68.33 484.21 68.62 483.8 69.92 485.18 71.6 487.43 72.06 488.91 73.21 490.39 73.41 492.99 74.58 493.96 76.42 496.3 77.89 497.67 77.89 500.49 80.07 500.13 82.67 501.18 84.22 502.24 84.82 504.64 88.75 505.9 89.57 507.43 89.12 511.4 91.66 513.4 91.73 515.74 91.68 517.33 92.62 519.17 92.52 521.18 93.43 521.82 94.83 523.49 94.98 525.53 96.29 529.44 96.72 531.82 98.07 536.23 98.48 539.23 98.39 542.07 97.49 543.62 97.59 558.05 107.18 560.29 109.73 563.4 110.85 566.62 113.03 569.91 116.33 571.38 118.71 574.21 120.06 580.36 123.61 582.15 123.96 583.74 125.3 585.01 125.61 592.69 131.46 595.57 131.73 597.3 133.02 606.15 134.75 607.06 135.21 611.07 139.94 612.62 141.04 615.4 138.75 616.14 138.73 620.65 141.87 623.44 143.29 624.73 143.2 626.34 144.79 629.51 144.8 630.88 145.6 632.64 147.68 634.98 149.33 636.27 152.22 638.27 154.16 639.52 157.83 641.25 159.19 642.55 160.39 642.88 161.7 642.36 165.55 640.69 167.3 640.23 168.6 638.43 168.47 637.99 170.01 636.35 170.31 634.99 171.15 634.16 172.44 635.53 173.35 634.43 174.62 632.31 175.85 633.06 178.21 632.35 179.03 630.12 180.21 631.04 181.18 630.6 182.5 628.9 184.33 630.75 184.88 630.23 186.19 625.6 189.68 621.66 191.4 620.15 194.74 620.85 195.82 620.18 196.95 618.31 197.79 618.51 199.95 618.2 201.32 616.86 203.71 616.72 204.99 617.69 205.91 617 206.8 616.57 210.06 618.51 212.2 617.42 213.12 617.96 214.82 615.68 214.78 615.3 216.15 615.19 219.64 613.58 220.11 614.11 221.45 612.17 221.69 611 222.89 612.47 224.85 611.05 225.37 610.09 223.91 608.04 223.7 606.42 222.65 606.05 221.43 603.69 219.47 601.99 216.57 598.97 214.7 597.61 212.89 595.06 211.96 593.58 209.99 590.52 208.24 586.91 203.84 585.76 203.13 581.23 201.34 579.16 199.1 577.65 199.33 576.35 200.47 573.68 201.26 571.14 200.91 569.53 198.73 568.62 196.21 568.49 194.21 566.9 193.25 563.95 192.69 562.05 192.64 560.23 191.73 559.15 191.91 558.23 190.95 558.05 186.33 556.86 186.09 554.18 182.21 552.56 180.62 551.05 179.91 550.48 177.85 547.51 176.07 546.24 174.46 544.55 174.01 543.63 172.42 539.24 170.59 537.83 170.81 537.12 168.71 535.4 165.48 535.9 164.39 535.4 163.27 533.21 162.56 532.77 161.01 531.37 160.29 531.27 158.85 530.53 157.41 527.92 155.46 526.05 152.76 524.94 150.6 522.39 150.1 519.39 148.76 517.98 147.5 514.08 145.09 512.91 144.66 511.36 143.06 509.1 141.6 503.52 136.81 502.43 137.04 501.05 135.9 501.09 133.69 499.08 130.43 499.07 129.21 498.01 128.68 496.92 126.97 494.44 125.74 491.69 125.63 489.23 124.82 486.81 124.52 482.42 120.1 482.07 118.81 478.43 118.22 476.63 114.65 473.8 112.29 471.69 112.04 468.74 111.22 465.48 108.88 464.42 107.31 462.83 106.47 459.87 106 451.22 102.58 Z" id="AR-P" data-name="Formosa"/>
<path d="M 791.77 237.87 790.69 236.17 789.47 237.64 788.43 237.98 786.87 237.44 786.97 239.12 785 239.24 784.71 240.07 781.76 243.35 780.3 243.52 777.84 242.25 776.15 246.34 776.15 247.65 774.97 248.02 773.94 249.81 770.26 249.56 769.23 248.87 766.97 249.1 767.49 250.6 766.66 251.7 764.05 252.48 762.57 251.05 761.18 251.6 760.35 253.74 757.39 255.44 754.42 255.93 753.17 254.24 752.27 255.08 751.57 258.1 749.43 258.64 749.3 262.29 748.84 263.76 745.95 265.95 744.99 266.09 742.78 265.31 742.5 266.37 744.32 268.44 741 268.74 740.58 270.29 738.89 269.26 737.43 269.37 736.38 270.87 734.53 272.17 733.26 271.79 732.14 272.43 731.82 274.02 730.27 274.47 729.73 276.79 727.69 279.27 725.08 279.27 723.18 282.3 721.12 281 720.39 282.25 715.82 278.69 714.75 277 714.02 274.42 711.75 271.45 711.25 265.98 710.36 262.81 704.59 250.86 704.7 248.25 705.26 246.74 706.64 245.45 708.76 245.28 710.18 246.44 710.78 248.13 715.11 250.5 718.04 247.6 720.16 246.56 721.66 245.3 721.95 242.97 722.57 241.58 721.35 238.73 723.1 237.43 723.96 234.98 726.85 234.92 727.27 234.2 727.61 231.21 728.77 229.6 730.28 228.88 732.16 228.64 734.11 227.55 737.29 228.5 739.81 228.43 740.59 226.91 740.32 224.38 742.92 221.75 746.35 220.97 747.32 219.61 748.13 216.76 749.23 215.23 753.65 214.57 754.16 211.44 753.78 209.35 754.76 207.8 757.12 205.46 757.66 204.13 758.05 201.39 758.84 199.49 758.78 196.39 759.85 194.52 758.83 192.38 759.66 189.53 758.89 184.83 761.13 183.35 760.78 180.51 761.87 177.3 760.7 175.64 759.66 171.83 760.04 170.24 762.06 169.91 761.38 166.81 763.57 166.8 764.1 168.39 764.94 168.2 766.98 169.79 767.9 169.92 769.2 168.8 769.29 167.49 771.42 167.14 772.54 165.93 774.04 166 775.67 166.92 777.81 167.07 776.83 164.88 779.25 164.73 780.39 165.79 783.22 166.62 784.22 166.24 786.04 167.45 786.73 170.29 789.04 169.22 790.39 172.27 790.36 174.42 791.47 175.61 791.96 177.22 791.78 179.83 792.4 184.51 794.85 186.98 796.12 191.36 798.79 195.51 799 197.32 798.53 198.79 796.82 201.21 796.48 202.52 796.94 208.09 796.07 208.89 796.27 211.02 795.76 212.57 795.94 215.11 795.61 216.76 794.58 217.2 796.1 220.5 797.03 224.84 796.47 227.83 794.71 231.59 793.41 232.27 792.68 236.8 791.77 237.87 Z" id="AR-N" data-name="Misiones"/>
<path d="M 408.76 170.56 421.05 154.66 451.41 114.98 451.22 102.58 459.87 106 462.83 106.47 464.42 107.31 465.48 108.88 468.74 111.22 471.69 112.04 473.8 112.29 476.63 114.65 478.43 118.22 482.07 118.81 482.42 120.1 486.81 124.52 489.23 124.82 491.69 125.63 494.44 125.74 496.92 126.97 498.01 128.68 499.07 129.21 499.08 130.43 501.09 133.69 501.05 135.9 502.43 137.04 503.52 136.81 509.1 141.6 511.36 143.06 512.91 144.66 514.08 145.09 517.98 147.5 519.39 148.76 522.39 150.1 524.94 150.6 526.05 152.76 527.92 155.46 530.53 157.41 531.27 158.85 531.37 160.29 532.77 161.01 533.21 162.56 535.4 163.27 535.9 164.39 535.4 165.48 537.12 168.71 537.83 170.81 539.24 170.59 543.63 172.42 544.55 174.01 546.24 174.46 547.51 176.07 550.48 177.85 551.05 179.91 552.56 180.62 554.18 182.21 556.86 186.09 558.05 186.33 558.23 190.95 559.15 191.91 560.23 191.73 562.05 192.64 563.95 192.69 566.9 193.25 568.49 194.21 568.62 196.21 569.53 198.73 571.14 200.91 573.68 201.26 576.35 200.47 577.65 199.33 579.16 199.1 581.23 201.34 585.76 203.13 586.91 203.84 590.52 208.24 593.58 209.99 595.06 211.96 597.61 212.89 598.97 214.7 601.99 216.57 603.69 219.47 606.05 221.43 606.42 222.65 608.04 223.7 610.09 223.91 611.05 225.37 609.34 226.45 606.7 227.28 605.74 228.29 606.42 229.43 605.39 230.95 604.62 233.21 603.26 232.35 602.59 233.75 602.46 235.73 600.43 236.08 598.94 237.54 598.98 239.42 601.01 241.57 600.91 244.75 598.83 245.42 594.03 249.1 589.59 252.1 589.67 255.33 591.05 258.05 592.17 261.18 592.34 265.38 591.52 267.67 591.4 271.89 590.47 275.66 561.1 275.71 543.31 275.69 515.12 275.81 476.44 275.71 476.45 267.13 476.46 221.24 476.46 197.34 476.41 192.27 475.94 174.33 474.68 170.65 408.76 170.56 Z" id="AR-H" data-name="Chaco"/>
<path d="M 632.79 402.05 630.32 400.22 625.63 395.35 623.64 391.55 623.06 388.36 622.4 386.85 620.57 385.41 617.37 381.96 616.29 379.55 614.67 378.03 606.89 375.86 605.03 375.93 602.14 374.57 599.88 374.39 593.32 377.14 590.01 377.86 584.85 376.79 581.09 378.94 578.4 381.51 575.37 383.26 571.54 381.83 569.47 381.52 566.78 382.16 564.84 381.72 562.28 382.75 558.53 382.96 558.22 380.96 559.09 377.79 559.75 373.5 560.9 371.27 561.04 367.93 559.79 364.1 558.4 361.71 558.4 358.97 559.92 355.81 561.36 349.56 561.44 340.17 563.1 333.2 564.56 330.81 566.78 329.33 570.66 327.87 574.06 324.97 576.49 323.51 577.13 322.3 577.26 317.69 578.63 315.24 579.39 311.67 579.32 309.66 581.07 305.93 581.61 303.36 581.41 299.86 582.39 293.94 581.4 290.32 581.76 287.75 581.41 284.42 581.78 282.85 583.36 281.23 587.03 280.79 589.27 278.9 590.47 275.66 591.4 271.89 591.52 267.67 592.34 265.38 592.17 261.18 591.05 258.05 589.67 255.33 589.59 252.1 594.03 249.1 598.83 245.42 600.91 244.75 604.65 243.05 615.58 242.08 619.96 242.65 624.24 242.21 627.37 242.87 632.68 244.5 637.24 245.53 643.73 248.86 645.66 249.27 649.7 248.69 651.77 248.96 652.77 249.85 655.7 250.98 657.98 252.47 660.83 252.62 662.15 252.32 666.11 250.13 669.04 249.38 670.44 249.95 672.92 252.45 674.37 253.35 675.85 253.07 677.9 251.45 679.71 250.92 680.71 250.63 683.38 251.02 686.78 255.48 689.26 256.97 690.55 256.69 691.81 254.21 693.38 252.18 694 250.28 694.06 248.06 697.05 246.82 698.51 245.14 700.29 243.97 702.32 244.24 705 245.29 706.64 245.45 705.26 246.74 704.7 248.25 704.59 250.86 710.36 262.81 711.25 265.98 711.75 271.45 714.02 274.42 714.75 277 715.82 278.69 720.39 282.25 717.94 284.6 715.38 285.49 714.4 286.23 715.11 287.76 717.82 288.87 718.76 290.53 717.94 293.33 717.08 294.23 715.92 292.33 711.6 291.44 709.06 292.88 709.37 296.64 704.82 298.28 704.42 298.91 704.4 302.35 703.64 303.41 701.15 305.19 697.88 309.59 696.52 310.5 693.81 311.23 693.46 311.94 693.22 315.86 692.33 317.47 689.58 319.1 688.81 320.89 688.62 323.65 687.47 324.87 684.71 325.59 681.87 327.36 680.54 328.67 678.98 331.54 679.21 332.82 678.15 335.67 676.5 337.43 675.08 338.16 673.99 339.44 673.88 340.84 672.45 343.11 669.32 345.9 668.71 346.95 666.57 348.91 666.03 350.48 664.36 352.71 661.43 355.88 659.86 356.81 656.4 357.09 654.68 357.75 653.52 358.79 652.84 360.33 652.43 365.74 652.17 366.46 648.71 369.17 644.92 374.02 643.21 375.21 640.69 375.81 639.45 376.28 640.2 379.3 639.91 381.11 639.04 382.59 631.15 389.85 630.05 391.23 629.54 392.9 629.7 394.72 632.09 399.37 632.79 402.05 Z" id="AR-W" data-name="Corrientes"/>
<path d="M 202.13 154.22 203.66 149.45 204.45 148.4 232.08 153.86 280.41 153.24 282.39 153.68 283.08 155.28 283.47 158.65 285.69 162.58 283.96 169.29 282.01 170.73 280.92 171.04 275.03 171.21 272.16 173.48 271.8 177.37 272.32 179.45 273.17 181.04 276.45 185.95 279.68 190.05 280.26 192 281.59 193.64 283.13 197.33 287.68 202.55 288.75 203.08 290.13 202.08 291.94 197.52 293.98 195.63 295.49 193.35 296.81 193.04 298.74 193.67 300.64 196.14 302.34 197.04 300.74 199.46 299.87 203.87 298.27 207.94 298.41 209.76 299.67 211.12 302.38 211.76 303.87 212.58 307.83 216.13 309.61 216.99 310.37 218.07 310.43 219.8 309.83 222.36 309.62 226.75 308.08 229.64 305.28 232.46 302.97 235.18 301.52 238.2 298.57 241.21 296.84 244.43 297.2 245.4 300.23 246.07 303.55 247.97 305.23 248.25 305.03 249.88 306.42 256.55 307.33 260.03 309.62 262.4 310.48 265.72 311.67 266.88 314.19 266.09 315.99 267.05 316.97 269.05 317.35 271.47 318.32 273.77 321.71 277.97 322.48 277.76 324.44 274.17 327.24 271.58 330.59 269.49 331.22 269.5 334.86 272.04 335.94 272.26 337.8 271.59 341.41 288.17 341.68 294.98 341.44 297.59 338.48 302.4 337.34 303.45 337.36 305.06 340.48 307.33 340.87 308.54 341.57 317.52 341.4 321.3 343.16 334.72 344.9 338.97 349.29 346.89 346.54 347.9 346.12 349.35 347.33 360.04 346.85 361.71 342.51 366.63 339.04 370.26 337.04 371.36 328.47 373.83 321.78 360.07 320.32 355.85 317.87 350.49 315.34 344.36 314.4 339.81 314.39 336.23 312.82 332.77 305.69 325.64 304.47 324.99 299.62 319.95 297.86 318.72 291.1 315.55 289.3 313.26 290.98 310.36 290.97 309.2 288.6 307.72 287.29 306.44 285.51 303.64 284.62 298.4 283.73 296.96 281.08 294.07 273.26 290.72 265.38 287.84 264.09 287.86 262.34 288.91 260.47 291.21 256.92 291.89 254 291.98 236.2 291.11 233.68 291.76 231.39 293.08 230.59 290.96 227.87 287.21 227.34 285.44 227.07 281.32 225.86 281.07 223.65 281.61 220.96 282.74 219.76 282.15 217.88 280.31 215.09 279.62 213.84 279.74 212.49 279.07 210.38 276.57 207.83 276.28 206.42 274.75 207.06 271.86 206.49 269.87 206.47 268.06 207.12 265.9 206.91 264.2 204.34 263.71 202.16 265.09 200.86 265.37 198.01 264.45 194.16 265.06 190.29 266.32 178.89 265.37 179.53 263.09 181.23 261.92 180.53 260.12 180.84 258.89 182.11 257.55 183.12 255.37 183.86 250.74 185.92 249.48 187.01 248.32 188.95 243.79 189.09 240.48 191.12 236.63 192.24 235.58 195.54 235.31 198.31 237.31 200.86 237.84 202.01 235.34 203.58 233.97 206.59 233.51 209.22 232.51 211.1 232.53 211.37 229.65 212.24 227.21 211.51 224.67 201.49 210.34 200.8 208.44 200.49 206.16 200.54 202.64 201.29 199.28 202.46 197.74 207.52 193.73 207.95 192.16 207.63 189.9 204.85 178.44 204.37 174.81 203.43 172.62 201.93 170.72 202.1 166.7 200.18 163.95 200.06 160.68 202.13 154.22 Z" id="AR-K" data-name="Catamarca"/>
<path d="M 178.89 265.37 190.29 266.32 194.16 265.06 198.01 264.45 200.86 265.37 202.16 265.09 204.34 263.71 206.91 264.2 207.12 265.9 206.47 268.06 206.49 269.87 207.06 271.86 206.42 274.75 207.83 276.28 210.38 276.57 212.49 279.07 213.84 279.74 215.09 279.62 217.88 280.31 219.76 282.15 220.96 282.74 223.65 281.61 225.86 281.07 227.07 281.32 227.34 285.44 227.87 287.21 230.59 290.96 231.39 293.08 233.68 291.76 236.2 291.11 254 291.98 256.92 291.89 260.47 291.21 262.34 288.91 264.09 287.86 265.38 287.84 273.26 290.72 281.08 294.07 283.73 296.96 284.62 298.4 285.51 303.64 287.29 306.44 288.6 307.72 290.97 309.2 290.98 310.36 289.3 313.26 291.1 315.55 297.86 318.72 299.62 319.95 304.47 324.99 305.69 325.64 312.82 332.77 314.39 336.23 314.4 339.81 315.34 344.36 317.87 350.49 320.32 355.85 321.78 360.07 328.47 373.83 325.15 383.47 323.69 386.13 321.95 391.74 321.59 393.84 314.37 415.48 313.83 418.35 314 442.93 314.13 455.45 310.12 456.18 307.57 456.06 305.73 455.12 302.32 454.78 299.42 455.64 295.8 457.33 291.79 457.35 289.16 457.66 287.52 456.89 284.72 457.11 283.16 456.29 280.39 456.78 277.98 455.59 275.22 455.03 273.15 450.21 271.14 449.23 269.77 443.3 267.4 443.03 266.23 442.45 262.46 438.39 262.37 435.38 260.26 430.45 262.02 417.68 259.82 415.65 259.68 414.28 261.19 409.44 261.07 408.79 258.69 404.92 257.12 401.07 256.15 400.04 253.86 398.71 250.67 393.66 247.16 390.71 244.87 387.17 241.73 384.95 241.11 382.33 238.99 378.82 233.42 374.42 231.4 371.7 229.42 370.88 227.23 369.11 226.17 367.43 223.73 365.5 223.21 363.95 220.39 361.26 218.08 360.36 216.69 357.94 212.77 355.28 211.2 353.13 204.44 350.93 201.16 351.07 199.42 350.71 196.27 348.96 194.11 349.37 192.02 350.26 190.26 350.3 188.39 349.74 185.16 350.54 183.38 349.4 183.22 347.61 183.72 344.48 185.09 342.09 184.84 340.42 185.11 337.65 186.55 335.3 185.58 333.37 184.26 332 184.06 330.28 184.31 326.7 185.32 324.91 187.49 323.54 187.93 321.94 187.43 320.81 185.03 318.31 183.98 315.16 182.84 313.53 180.14 311.12 178.9 306.66 177.78 303.97 176.64 302.73 170.79 297.74 168.11 297.62 166.5 296.63 165.31 295.08 162.5 295.59 160.75 294.64 158.05 293.92 159.93 291.89 162.08 290.14 163.82 287.85 164.61 284.7 165.18 284.23 167.42 285.35 169.55 281.61 171.01 278.07 171.77 277.35 172.11 275.67 173.24 274.91 175.61 274.26 177.33 272.25 178.89 265.37 Z" id="AR-F" data-name="La Rioja"/>
<path d="M 147.02 354.3 145.26 351.91 145.45 348.1 144.52 343.71 143.79 342.24 143.4 339.86 142.48 337.96 142.56 334.95 142.94 334.01 145.2 332.34 144.79 330.85 147.32 329 147.76 327.86 150.43 327.22 152.05 325.82 152.37 323.59 151.94 319.45 152.4 317.67 153.51 315.99 153.61 314.82 154.78 312.7 154.75 310.88 153.97 307.92 154.57 304.85 156.18 302.29 157.22 301.32 157.32 296.51 158.05 293.92 160.75 294.64 162.5 295.59 165.31 295.08 166.5 296.63 168.11 297.62 170.79 297.74 176.64 302.73 177.78 303.97 178.9 306.66 180.14 311.12 182.84 313.53 183.98 315.16 185.03 318.31 187.43 320.81 187.93 321.94 187.49 323.54 185.32 324.91 184.31 326.7 184.06 330.28 184.26 332 185.58 333.37 186.55 335.3 185.11 337.65 184.84 340.42 185.09 342.09 183.72 344.48 183.22 347.61 183.38 349.4 185.16 350.54 188.39 349.74 190.26 350.3 192.02 350.26 194.11 349.37 196.27 348.96 199.42 350.71 201.16 351.07 204.44 350.93 211.2 353.13 212.77 355.28 216.69 357.94 218.08 360.36 220.39 361.26 223.21 363.95 223.73 365.5 226.17 367.43 227.23 369.11 229.42 370.88 231.4 371.7 233.42 374.42 238.99 378.82 241.11 382.33 241.73 384.95 244.87 387.17 247.16 390.71 250.67 393.66 253.86 398.71 256.15 400.04 257.12 401.07 258.69 404.92 261.07 408.79 261.19 409.44 259.68 414.28 259.82 415.65 262.02 417.68 260.26 430.45 262.37 435.38 262.46 438.39 266.23 442.45 267.4 443.03 269.77 443.3 271.14 449.23 273.15 450.21 275.22 455.03 265.02 455.59 262.35 454.45 259.75 453.87 258.39 454.33 255.02 454.56 250.62 453.62 249.32 454.57 248.84 456.02 249.39 460.54 248.55 463.86 248.72 465.69 248.67 473.26 245.7 471.17 243.27 471.57 240.63 471.56 234.8 472.82 231.08 472.17 228.78 469.58 226.76 468.35 226.39 466.79 224.93 465.03 223.51 464.12 222.11 464.09 217.66 465.25 215.69 466.8 213.41 467.68 208.57 467.96 205.82 470.74 198.76 475.62 196.71 476.72 188.83 476.79 188.19 476.27 187.39 464.46 183.27 464.51 181.92 463.44 180.98 461.79 178.45 459.05 176.42 459.06 175.76 460.13 174.27 460.72 172.84 463.23 171.54 463.65 169.56 463.27 166.32 463.35 162.98 465.43 159.72 466.69 159.03 468.09 158.95 471.91 157.39 473.18 152.77 473.4 144.94 475.31 142.17 474.51 140.54 474.53 133.92 475.73 131.29 474.11 130.93 470.77 130.34 469.12 130.75 467.48 128.77 463.78 129.23 462.29 131.76 463.11 133.15 462.64 133.48 460.9 134.5 459.03 133.17 456.46 131.63 455.29 127.02 454.72 125.59 453.22 124.79 451.3 124.7 448.17 123.06 445.96 120.93 441.63 120.49 439.62 120.89 437.56 121.13 433.2 121.96 430.85 121.39 428.1 122.27 426.24 122.71 421.93 124.96 418.38 126.23 418.42 126.73 420.47 127.81 420.87 128.92 419.54 130.57 415.8 133.03 415.7 133.46 414.97 131.82 413.3 130.59 410.96 131.38 404.55 133.12 401.04 133.36 397.86 134.75 394.8 135.49 391.24 136.29 389.92 138.13 388.66 138.23 386.76 137.22 385.06 138.3 383.75 141.61 385.39 142.98 385.75 145.61 384.72 148.08 381.83 148.75 377.58 150.24 376.56 150.77 374.84 150.21 373.2 148.97 371.96 147.45 371.4 145.26 371.48 145.17 370.05 146.54 367.94 147.31 364.54 147.57 358.35 147.02 354.3 Z" id="AR-J" data-name="San Juan"/>
<path d="M 133.92 475.73 140.54 474.53 142.17 474.51 144.94 475.31 152.77 473.4 157.39 473.18 158.95 471.91 159.03 468.09 159.72 466.69 162.98 465.43 166.32 463.35 169.56 463.27 171.54 463.65 172.84 463.23 174.27 460.72 175.76 460.13 176.42 459.06 178.45 459.05 180.98 461.79 181.92 463.44 183.27 464.51 187.39 464.46 188.19 476.27 188.83 476.79 196.71 476.72 198.76 475.62 205.82 470.74 208.57 467.96 213.41 467.68 215.69 466.8 217.66 465.25 222.11 464.09 223.51 464.12 224.93 465.03 226.39 466.79 226.76 468.35 228.78 469.58 231.08 472.17 234.8 472.82 240.63 471.56 243.27 471.57 245.7 471.17 248.67 473.26 248.8 475.26 249.93 479.65 251.57 481.27 253.08 486.63 254.07 491.85 255.84 494.3 256.72 496.97 255.67 500.17 256.16 503.29 255.33 504.37 256.49 507.73 256.27 509.18 256.72 511.19 257.04 515.54 256.79 519.32 257.31 522.79 258.28 524.99 258.33 528.93 258.71 530.03 262.54 536.62 263.63 537.94 264.89 542.21 265.82 543.86 267.24 548.61 269.4 550.17 271.15 552.28 271.57 554.49 273.28 556.11 274.56 559.54 274.25 564.3 272.7 565.72 271.58 567.53 271.87 569.39 271.93 575.07 273.28 577.18 273.53 581.33 274.92 586.29 276.82 588.37 281.58 597.87 282.61 601.39 282.31 604.93 284.2 611.99 283.43 614.82 284.13 615.81 283.71 618.01 284.26 621.86 283.78 624.93 283.43 630.32 282.23 633.08 281.77 638.06 280.13 645.87 279.3 651.77 279.77 654.29 259.01 654.26 214.47 654.26 213.03 655.33 212.59 660.65 214.05 668.02 214.37 695.8 214.35 732.2 207.21 731.23 205.83 729.92 204.6 727.31 203.26 726.35 200.62 726.32 198.86 725.6 197.17 725.6 194.02 722.84 188.9 723.32 184.86 722.45 183.46 721.47 182.7 719.86 181.82 716.01 180.72 714.56 178.07 713.33 176.41 713.01 173.83 711.81 172.15 711.67 165.08 713.01 162.98 712.87 159.28 711.81 156.08 709.78 154.68 708.49 151.81 704.71 151.71 703.5 152.69 702.15 152.96 700.09 152.6 697.29 151.99 696.48 149.49 695.27 147.31 693.07 145.95 689.41 143.43 687.44 141.48 684.71 138.28 683.63 137.16 682.54 135.14 677.6 134.11 673.38 133.33 672.39 130.27 672.87 129.04 670.44 128.84 668.68 129.58 667.37 129.88 664.76 129.28 662.83 126.92 660.71 127.73 658.44 128.95 656.57 127.65 652.75 128.53 649.63 127.32 649.53 127.35 647.78 129.87 645.15 127.29 637.47 127.67 634.89 127.43 631.94 127.83 629.91 126.33 627.69 125.28 623.67 127.02 622.57 126.56 621.35 125.14 620.46 121.73 619.69 120.99 617.79 122.43 615.31 128.69 613.23 129.42 609.82 129.26 606.4 130.01 602.78 133.1 595.2 131.51 592.64 133.24 591.73 134.08 590.21 134.47 586.49 135.06 584.83 138.15 581.56 139.61 578.12 141.48 576.52 141.84 575.61 141.6 571.62 142.26 570.16 144.62 569.46 147.73 570.21 148.1 569.44 150.89 568.21 150.71 566.57 149.27 563.21 149.64 561.64 149.97 555.7 149.57 554.39 147.81 554.29 148.31 550.22 147.6 546.47 147.94 544.86 149.8 543.23 148.38 540.14 149.28 536.47 149.04 535.12 150.54 533.91 150.97 530.32 152.43 528.23 152.7 526.54 151.98 524.86 151.65 522.23 150.73 521.09 147.98 519.77 146.57 520 144.83 522.47 143.79 522.69 142.11 519.15 140.15 517.31 139.79 515.52 140.49 512.76 139.94 510.89 140.62 508.77 141.92 508.44 142.82 507.27 144.18 502.48 142.01 501.25 138.58 497.32 137.95 495.89 136.96 490.74 137.86 486.57 137.74 483.85 137.28 482.88 135.08 481.44 134.36 479.99 134.47 476.49 133.92 475.73 Z" id="AR-M" data-name="Mendoza"/>
<path d="M 126.92 660.71 129.28 662.83 129.88 664.76 129.58 667.37 128.84 668.68 129.04 670.44 130.27 672.87 133.33 672.39 134.11 673.38 135.14 677.6 137.16 682.54 138.28 683.63 141.48 684.71 143.43 687.44 145.95 689.41 147.31 693.07 149.49 695.27 151.99 696.48 152.6 697.29 152.96 700.09 152.69 702.15 151.71 703.5 151.81 704.71 154.68 708.49 156.08 709.78 159.28 711.81 162.98 712.87 165.08 713.01 172.15 711.67 173.83 711.81 176.41 713.01 178.07 713.33 180.72 714.56 181.82 716.01 182.7 719.86 183.46 721.47 184.86 722.45 188.9 723.32 194.02 722.84 197.17 725.6 198.86 725.6 200.62 726.32 203.26 726.35 204.6 727.31 205.83 729.92 207.21 731.23 214.35 732.2 214.32 740.64 214.24 788.34 214.43 789.5 217.17 792.63 222.36 800.91 223.08 804.31 219.64 805.72 215.69 804.99 213.99 805.68 211.48 803.9 209.8 805.44 207.84 806.4 205.24 809.64 201.32 811.43 199.1 813.93 196.8 817.53 194.4 818.75 191.92 821.77 190.87 825.23 188.09 827.25 185.78 831.16 182.44 832.92 179.87 833.13 173.64 836.86 169.68 843.04 167.38 844.95 164.6 847.84 162.62 848.71 158.95 848.3 157 848.57 147.3 854.35 145.53 856.4 144.53 860.61 143.7 865.93 143.75 868.18 141.11 874.64 140.8 879.88 140.36 880.97 138.5 882.24 136.96 882.26 135.6 886.08 134.61 886.69 131.14 886.59 127.98 887.56 126.36 887.59 123.57 885.04 121.1 885.31 118.34 888.08 115.42 889.2 112.27 888.55 110.97 888.78 109.41 890.08 107.29 890.47 105.25 891.47 103.85 893.22 102.95 895.27 100.95 895.98 98.89 898.83 99.37 901.17 101.61 902.68 102.79 904.47 102.86 906.74 101.82 908.51 98.18 913.24 95.45 914.83 92.19 915.57 89.71 915.28 81.92 912.21 77.46 912.12 74.76 911.45 69.35 911.06 69.99 907.24 69.21 904.98 67.61 902.56 65.81 895.7 69.11 891.83 69.92 890.2 69.62 887.2 71.88 880.19 72.66 879.4 75.29 879.48 76.92 875.65 77.05 873.75 75.84 872.59 74.05 873.1 71.97 870.51 71.1 868.82 72.02 861.98 73.38 861.84 76.71 862.99 77.22 860.99 76.84 858.31 77.58 857.56 79.07 854.21 79.21 852.33 77.29 850.45 75.48 843.52 76.29 840.77 75.3 838.16 75.84 836.09 76.96 835.31 78.42 836.95 80.03 837.96 83.27 837.73 84.25 835.16 82.39 833.43 85.61 828.31 85.01 825.68 87.27 823.56 88 818.06 87.57 811.06 86.84 807.21 87.45 802.54 89.25 800.1 92.9 798.16 94.97 796.03 97.98 795.51 102.17 792.83 105.42 793.04 106.94 792.27 107.74 790.76 109.17 789.99 108.78 787.51 110.62 784.51 110.18 781.59 106.1 778.1 105.16 776.32 103.44 768.15 103.46 761.98 103.17 759.99 103.71 758 102.61 756.52 101.66 753.56 100.6 751.62 100.31 749.45 98.77 746.46 96.69 739.74 96.4 737.46 96.74 735.68 98.78 733.9 98.43 731.54 99.27 728.63 99.18 726.45 97.37 723.85 96.31 721.42 95.87 718.86 98.24 714.94 98.19 711.92 99.09 710.18 100.54 709.34 98.52 707.24 98.15 704.82 96.6 703.49 98.37 702.41 98.49 701.01 97.33 700.23 97.75 698.26 96.29 696.08 98.04 692.15 98.29 688.54 99.7 688.05 101.18 688.96 101.89 687.69 101.31 684.32 101.65 680.16 103 678.2 105.27 678.41 106.72 677.77 107.47 675.12 108.5 674.18 111.84 675.82 115.39 674.88 115.79 673.16 114.97 671.51 116.01 667.19 117.67 666.42 119.79 664.11 120.6 661.74 122.33 661.37 124.18 662.41 125.31 662.35 126.92 660.71 Z" id="AR-Q" data-name="Neuquén"/>
<path d="M 73.28 964.01 94.78 963.97 168.25 964.01 207 964.01 221.11 963.99 269.08 963.98 303.17 963.99 315.18 964.02 339.48 964.04 342.39 964.6 344.38 969.06 347.16 972.34 350.3 974.48 352.15 974.58 354.09 975.88 358.84 976.7 360.49 977.98 363.36 977.22 365.38 977.79 366.05 978.91 364.18 980.18 361.11 984.65 360.52 986.86 361.96 987.62 365.19 987.36 366.82 988.2 369.58 987.92 372.01 986.92 379.54 987.44 382.26 985.02 382.74 980.83 381.91 978.6 379.27 977.99 374.92 978.2 372.77 977.95 372.37 976.14 378.16 975.34 383.09 972.53 386.34 970.15 389.83 968.54 392.27 967.81 393.93 968.22 396.29 971.28 397.95 976.38 399.87 978.29 400.77 980.24 401.07 982.48 400.79 987.93 401.52 996.15 401 998.36 399.35 1002.78 399.87 1004.78 397.82 1007.56 395.21 1008.8 386.98 1010.7 383.63 1010.84 380.33 1012.02 378.16 1010 376.08 1007.02 374.58 1006.08 374.6 1004.83 375.89 999.58 376.81 998.95 372.34 995.14 371.73 993.4 367.11 991.47 362.92 991.44 360.01 991.93 354.91 994.53 353.14 996.99 351.67 998.01 347.69 998.79 346.74 999.49 343.82 1004.54 344.69 1006.62 350.17 1008.88 355.08 1011.33 358.79 1014.3 362.02 1015.25 364.09 1014.9 367.28 1017.09 371.5 1015.75 372.55 1017.34 371.5 1018.93 366.72 1022.15 362 1024.09 353.99 1026.47 346.83 1031.53 345.56 1033.18 343.28 1034.83 342.84 1036.05 343.28 1039.17 338.36 1044.69 336.17 1048.46 333.54 1050.72 331.19 1055.45 331.26 1058.67 332.31 1061.35 331.82 1064.3 332.7 1065.18 333.72 1068.78 333.68 1071.63 334.88 1075.16 335.67 1075.69 335.21 1079.96 335.97 1081.3 333.25 1082.26 332.21 1084.8 332.37 1087.04 333.84 1088.84 333.92 1090.47 335.89 1094.11 334.17 1095.36 333.4 1097.23 332.1 1097.9 331.52 1102.08 327.37 1105.53 326.11 1107.29 322.83 1108.34 318.8 1111.06 317.1 1113.57 316.35 1118.58 315.44 1119.05 315.9 1122.46 317.94 1123.59 319.17 1123.29 321.62 1123.93 323.17 1126.09 320.31 1128.28 321.02 1129.47 320.43 1131.4 316.9 1133.38 314.46 1131.17 312.39 1131.39 310.85 1130.01 308.92 1130.28 309 1132.06 305.93 1132.2 303.84 1130 300.08 1129.17 296.47 1129.42 293.21 1133.09 291.86 1132.35 285.75 1134.19 283.5 1136.01 283.45 1137.31 286.27 1138.3 285.53 1139.4 281.6 1137.84 280.93 1139.29 282.73 1139.71 283.5 1142.1 277.67 1142.01 269.68 1143.21 267.26 1144.4 264.05 1147.09 261.83 1149.72 260.56 1152.11 257.71 1156.08 255.47 1159.93 251.12 1164.78 250.14 1167.39 249.97 1174.15 246.15 1176.92 245.42 1179.07 244.19 1179.99 242.47 1183.17 241.11 1187.01 209.64 1186.97 158.89 1186.98 78.09 1186.97 79.57 1185.3 78.41 1181.57 77.42 1180.32 74.32 1178.8 73.45 1177.27 74.09 1174.73 72.11 1172.04 72.83 1169.14 72.75 1166.4 74.24 1164.06 73.45 1162.43 75.51 1160.19 78.49 1159.43 83.04 1159.37 84.51 1158.2 84.82 1156.45 83.74 1153.05 87.76 1151.36 89.11 1150.25 91.62 1146.84 90.54 1143.13 88.26 1140.38 86.12 1138.85 84.19 1136.16 83.46 1133.56 81.86 1130.16 80.52 1128.59 75.96 1128.33 73.66 1125.96 71.82 1125.82 68.46 1126.84 63.64 1124.42 61.9 1124.55 60.79 1123.4 61.06 1120.6 60.48 1117.54 62.12 1115.96 64.53 1116.96 69.86 1118 72.57 1116.1 74.45 1116.12 77.15 1117.3 78.81 1117.38 84.19 1115.29 85.79 1115.81 88.93 1118.05 90.64 1118.6 93.58 1117.22 94.57 1115.57 94.85 1113.4 94.47 1110.51 95.56 1107.63 96.54 1106.38 98.83 1105.58 99.19 1103.31 97.88 1101.53 97.24 1098.92 95.7 1097.54 92.61 1097.31 86.56 1096.08 78.33 1096.14 74.54 1095.62 71.16 1096.17 69.48 1093.71 71.63 1092.28 71.89 1091.22 70.77 1088.72 71.8 1086.06 71.55 1084.11 69.69 1079.65 72.22 1078.43 74.24 1076.14 77.27 1071.4 77.66 1069.53 74.9 1065.08 73.48 1063.47 73.85 1060.92 72.16 1061.45 71.28 1060.18 71.92 1058.41 75.02 1056.82 75.91 1055.39 75.1 1051.14 72.02 1048.34 69.09 1048.05 69.69 1045.86 69.29 1043.83 66.54 1043.51 66.4 1039.92 67.67 1038.16 67.97 1036.08 71.84 1034.86 74.02 1034.61 73.77 1031.3 74.33 1028.82 73.24 1027.24 69.57 1025.69 63.64 1024.99 60.18 1022.69 58.85 1020.7 58.08 1018.32 59.52 1010.93 59.17 1003.06 58.43 1000.34 58.72 998.26 58.08 996.14 59.12 992.72 62.35 990.61 61.02 987.5 61.6 983.98 59.16 980.95 59.03 978.26 61.67 974.7 62.43 971.84 64.93 970.79 66.11 973.06 67.66 973.33 68.67 971.81 71.99 971.06 74.07 969.66 74.6 968.55 74.47 965.75 73.28 964.01 Z" id="AR-U" data-name="Chubut"/>
<path d="M 69.35 911.06 74.76 911.45 77.46 912.12 81.92 912.21 89.71 915.28 92.19 915.57 95.45 914.83 98.18 913.24 101.82 908.51 102.86 906.74 102.79 904.47 101.61 902.68 99.37 901.17 98.89 898.83 100.95 895.98 102.95 895.27 103.85 893.22 105.25 891.47 107.29 890.47 109.41 890.08 110.97 888.78 112.27 888.55 115.42 889.2 118.34 888.08 121.1 885.31 123.57 885.04 126.36 887.59 127.98 887.56 131.14 886.59 134.61 886.69 135.6 886.08 136.96 882.26 138.5 882.24 140.36 880.97 140.8 879.88 141.11 874.64 143.75 868.18 143.7 865.93 144.53 860.61 145.53 856.4 147.3 854.35 157 848.57 158.95 848.3 162.62 848.71 164.6 847.84 167.38 844.95 169.68 843.04 173.64 836.86 179.87 833.13 182.44 832.92 185.78 831.16 188.09 827.25 190.87 825.23 191.92 821.77 194.4 818.75 196.8 817.53 199.1 813.93 201.32 811.43 205.24 809.64 207.84 806.4 209.8 805.44 211.48 803.9 213.99 805.68 215.69 804.99 219.64 805.72 223.08 804.31 222.36 800.91 217.17 792.63 214.43 789.5 214.24 788.34 214.32 740.64 214.35 732.2 230.34 734.39 232.07 735.29 234.42 737.87 235.9 741.2 235.95 743.49 234.45 746.8 230.43 749.97 229.55 751.7 229.33 754.09 230.56 757.56 231.93 758.25 233.43 757.87 236.14 759.78 238.32 764.42 240.7 767.25 242.22 768 245.28 767.8 246.31 767.24 249.35 767.68 252.19 766.21 255.57 765.52 257.34 766 258.98 771.9 261.62 775.52 266.29 778 269.32 779.31 272.17 779.93 274.91 781.9 278.53 783.12 280.71 785.68 281.98 790.52 288.8 792.19 290.57 792.22 295.87 791.29 306.1 792.6 309.78 794 311.99 794.35 313.5 795.41 315.77 795.56 316.94 796.49 318.58 796.08 320.93 794.42 324.08 794.74 327.6 796.17 329.85 797.55 332.02 796.81 334.1 796.88 340 795.76 345.77 795.76 346.84 796.53 351.76 796.11 362.93 798.25 365.76 798.34 378.79 803.26 382.36 805.54 384.88 806.38 388.34 810.63 391.89 811.66 394.52 813.61 396.23 816.21 397.66 816.88 405.58 822.33 409.16 822.71 409.21 851.07 409.21 879.54 409.21 895.1 417.42 896.16 420.01 897.06 423.75 900.4 425.88 903.18 430.29 907.25 432.37 911.37 432.68 912.73 430.19 915.04 427.33 915.81 422.59 918.34 420.75 918.75 412.03 918.39 409.34 919.08 405.52 918.72 399.81 919.07 393.5 918.96 390 917.62 385.98 913.72 384.2 912.91 382.54 912.96 382.17 910.49 379.27 911.42 377.67 910.99 367.94 905.78 362.53 904.3 358.82 902.37 355.2 901.52 350.46 901.66 348.14 901.17 349.87 899.5 351.27 900.2 353.67 900.23 354.45 898.67 352.58 897.74 352.75 895.85 348.97 894.94 346.72 895.22 347.13 896.99 348.23 898.33 344.14 898.18 339.69 901.69 338.02 906.43 337.56 911.06 338.69 920.12 340.3 926.42 340.37 928.07 342.13 934.41 344.33 936.82 344.85 940 343.09 946.02 344.65 950.97 344.58 952.9 342.19 959.09 341.59 961.38 342.39 964.6 339.48 964.04 315.18 964.02 303.17 963.99 269.08 963.98 221.11 963.99 207 964.01 168.25 964.01 94.78 963.97 73.28 964.01 73.07 960.75 72.29 956.89 69.77 952.51 69.28 948.72 67 945.37 67 943.75 68.93 942.25 69.91 940.77 68.49 937.18 68.85 933.78 67.88 930.09 67.95 928.4 69.11 923.77 68.46 920.07 69.19 919.38 69.93 913.55 69.35 911.06 Z" id="AR-R" data-name="Río Negro"/>
<path d="M 78.09 1186.97 158.89 1186.98 209.64 1186.97 241.11 1187.01 239.83 1191.15 239.47 1196.47 241.39 1205.64 242.74 1210.24 247.46 1219.91 250.94 1223.28 254.15 1224.34 256.66 1227.12 259.21 1228.03 263.09 1234.62 264.43 1234.95 269.11 1240.45 271.45 1244.13 272.98 1245.62 276.48 1247.45 279.3 1248.24 284.25 1247.62 286.84 1248.83 290.14 1249.17 296.46 1250.5 301.06 1250.09 303.35 1249.19 305.32 1249.12 307.73 1250.75 309.26 1250.91 310.62 1253.45 314.72 1257.25 314.3 1258.39 316 1265.36 315.45 1269.34 315.09 1275.31 312.89 1282.63 310.69 1289.15 308.71 1289.65 303.21 1288.99 298.71 1294.28 302.52 1292.11 303.6 1290.86 305.54 1290.49 308.43 1290.8 309.12 1291.63 310.38 1297.35 311.43 1298.48 314.05 1299.28 311.04 1302.33 310.63 1301.22 308.53 1300.5 307.41 1301.04 306.42 1303.39 307.31 1304.01 305.94 1307.96 308.38 1309.26 307.82 1311.37 304.9 1310.98 302.03 1311.15 299.21 1312.73 298.11 1315.67 294.95 1317.09 293.89 1319.12 292.44 1319.67 290.27 1323.85 290.83 1325.75 286.52 1325.6 285.72 1328.62 282.66 1330.05 278.41 1330.48 274.45 1333.15 270.12 1337.57 269.78 1340.08 264.95 1341.41 259.84 1345.17 258.94 1346.33 258.58 1349.34 257.02 1351.11 256.48 1353.96 254.49 1355.62 251.52 1356.94 248.16 1359.19 242.12 1366 240.52 1371.56 239.07 1372.98 239.98 1375.93 238.37 1377.03 237.36 1380.27 235.07 1381.86 236.2 1383.65 234.05 1385.55 234.53 1386.84 231.79 1389.03 235.36 1389 236.45 1387.84 236.98 1384.03 237.84 1381.4 240.07 1381.27 239.92 1384.84 238.24 1388.16 236.12 1399.57 235.87 1407.2 235.08 1413.14 233.49 1418.7 231.03 1423.91 228.56 1426.55 221.28 1432.19 217.53 1433.86 213.99 1434.53 211.19 1434.25 208.33 1431.44 206.86 1428.71 205.81 1425.52 203.47 1423.04 201.54 1417.95 200.47 1417.92 201.21 1422.23 197.32 1424.77 192.14 1424.77 189.26 1424.41 186.43 1426.2 187.67 1427.45 190.59 1425.56 193.52 1425.62 197.46 1426.41 200.25 1425.03 201.92 1425.48 203.55 1427.72 203.84 1430.53 205.64 1432.99 208.19 1434.05 210.32 1436.04 209.83 1437.32 206.79 1439.29 199.72 1442.5 194.82 1444.97 193.59 1444.8 192.5 1446.61 189.22 1447.43 188.28 1449.4 185.26 1453.61 181.2 1461.87 181.06 1464.67 178.26 1473.37 178.95 1476.03 179.13 1482 178.78 1483.61 176.02 1485.65 173.83 1488.11 170.33 1490.94 171.31 1491.81 176.38 1488.5 177.54 1488.37 179.92 1501.51 181.76 1510.29 185.72 1521.81 186.09 1524.53 184.99 1526.37 182.36 1525.83 179.47 1528.52 177.38 1528.17 172.87 1525.61 169.83 1525.36 164.23 1526.94 162.4 1528.59 170.12 1527.46 172.06 1527.79 177.97 1530.46 176.29 1533.8 180.34 1531.64 183.11 1529.13 185.33 1529.5 186.83 1531.15 189.35 1538.48 191.21 1541.39 194.16 1548.59 196.89 1554.46 203.44 1564.8 209.69 1574.13 209.82 1576.29 208.03 1578.38 206.36 1576.78 206.13 1573.72 201.37 1572.43 199.43 1571.34 191.46 1570 183.96 1565.81 175.76 1563.13 164.82 1562.77 146.08 1554.62 115.73 1554.18 88.62 1553.79 67.33 1553.49 65.43 1552.22 66.1 1547.37 65.7 1545.55 61.12 1539.76 56.53 1536.01 52.76 1534.77 51.44 1532.83 51.1 1529.26 49.94 1527.14 46.83 1526.66 45.99 1525.16 47.11 1523.21 49.96 1520.22 49.94 1517.93 51.06 1514.74 51.47 1508.79 53.19 1506.33 53.71 1504.47 48.71 1500 47.88 1497.79 48.14 1495.62 50.46 1492.11 52.27 1491.61 53.37 1487.25 53.74 1481.81 53.47 1479.34 50.48 1474.55 50.37 1471.67 51.89 1467.48 48.67 1465.67 43.75 1464.47 42.02 1465.34 39.26 1468.61 37.48 1468.67 34.63 1465.92 32.83 1465.63 27.85 1468.59 23.55 1473.01 20.1 1475.18 18.36 1475.16 16.83 1473.84 16.25 1467 14.14 1463.72 13.46 1461.65 12.97 1454.63 12.96 1449.55 11.01 1443.52 9.32 1441.24 7.69 1440.3 2.69 1435.54 2.65 1431.93 4.69 1428.16 3.91 1425.41 1 1422.53 2.23 1420.17 2.53 1417.26 4.63 1415.03 5.31 1411.82 16.07 1407.01 21.56 1399.12 21.65 1394.25 20.57 1390.96 19.2 1389.1 20.02 1381.74 17.12 1380.4 16.57 1378.15 17.09 1376.62 20.06 1372.45 20.81 1368.62 23.56 1364.45 25.17 1362.86 27.07 1362.12 30.97 1361.65 34.26 1359.77 39.23 1354.04 40.29 1352.3 40.87 1348.09 40.62 1341.66 39.72 1338.33 39.4 1335.25 40.92 1331.75 44.13 1329.51 46.67 1328.62 48.92 1325.6 51.39 1325.6 52.21 1324.58 50.98 1321.7 51.63 1317.23 50.68 1309.99 50.28 1308.77 48.18 1307.6 47.23 1305.12 44.9 1304.18 42.58 1301.31 42.23 1299.45 43.98 1295.75 45.7 1289.56 49.49 1282.77 50.23 1280.82 51.17 1274.65 49.18 1273.24 50.86 1270.39 52.48 1269.71 55.65 1270.02 57.2 1269.27 61.71 1263.61 62.85 1261.11 62.37 1257.22 63.64 1256.89 67.54 1259.04 68.81 1258.29 69.54 1255.17 68.3 1252.37 64.66 1249.96 64.03 1247.71 67.45 1245.14 65.63 1243.01 65.25 1241.35 66.62 1236.2 66.67 1233.47 69.81 1233.17 71.26 1232.26 73.01 1229.88 75.25 1228.56 76.57 1227.07 76.85 1225.29 76.23 1221.06 76.66 1217.1 73.98 1209.76 73.59 1207.73 73.52 1201.14 72.74 1199.99 67.45 1195.8 68.42 1194.71 71.39 1194.33 73.24 1193.51 75.11 1190.33 78.09 1186.97 Z" id="AR-Z" data-name="Santa Cruz"/>
<path d="M 198.13 1748.43 198.61 1742.37 201.43 1746.79 200.81 1748.36 198.13 1748.43 Z M 198.62 1741.24 198.76 1704.21 198.9 1667.7 199.05 1631.65 199.19 1596.07 200.5 1597.03 201.99 1600.34 204.6 1604.22 207.19 1608.98 210.64 1612.38 212.89 1616.21 213.68 1618.68 213.11 1620.99 211.32 1620.5 209.08 1622.03 203.47 1628.01 202.11 1631.11 202.27 1635.9 206.25 1639.86 212.48 1641.37 216.76 1640.94 219.88 1642.95 221.28 1646.41 221.04 1648.73 222.43 1655.02 225 1660.29 232.61 1668.81 237.96 1673.75 242.05 1676.2 240.87 1678.45 241.52 1681.08 252.49 1691.02 258.78 1695.77 263.33 1697.99 268.14 1701.89 273.78 1704.43 276.38 1707.07 278.29 1711.07 284.77 1717.6 285.17 1719.28 289.4 1720.64 292.98 1722.99 306.74 1729.94 308.95 1730.41 310.74 1731.83 316.6 1732.87 326.27 1731.36 329.36 1731.65 332.18 1730.39 338.34 1731.36 338.55 1732.78 336.81 1734.8 335.59 1738.5 336.17 1739.97 334.5 1741.78 334.82 1743.88 332.31 1746.06 331.26 1750.35 328.83 1751.16 327.4 1748.27 325.12 1749.01 324.55 1751.69 319.92 1751.77 319.14 1753.72 317.1 1754.21 315.77 1750.03 312.08 1750.47 309.43 1749.37 308.44 1750.17 305.85 1749.53 306.47 1752.17 304.77 1754.43 299.81 1756.05 291.79 1756.01 289.61 1756.75 289.61 1759 286.44 1760 282.84 1759.93 278.06 1757.81 275.88 1754.99 272.33 1752.35 266.6 1751.38 263.18 1749.75 251.09 1748.85 242.75 1747.62 237.66 1748.04 227.07 1746.77 221.23 1745.63 219.39 1744.09 215.57 1743.72 212.24 1741.88 211.19 1745.37 203.49 1746.06 201.72 1745.12 198.62 1741.24 Z M 389.13 1737.56 392.19 1737.56 389.85 1741.15 388.03 1741.72 386.14 1740.62 381.33 1741.14 379.41 1743.24 375.67 1743.93 373.82 1743.4 374.57 1740.83 372.19 1740.87 366.82 1745.44 364.7 1745.62 361.71 1747.05 360.32 1749.42 357.55 1749.61 357.86 1747.05 354.25 1744.67 354.45 1743.36 357.28 1740.35 360.46 1742.29 366.09 1739.45 368.68 1738.86 369.61 1736.96 375.67 1737.08 377.15 1738.74 380.49 1736.6 381.62 1738.52 388.1 1736.55 389.13 1737.56 Z" fill-rule="evenodd" id="AR-V" data-name="Tierra del Fuego"/>
<path d="M 533.18 520.65 535.1 521.7 540.24 527.22 547.06 532.09 550.58 533.49 551.99 534.73 554.09 537.65 559.37 540.56 560.89 540.89 564.18 539.81 565.8 541 567.33 542.79 569.31 543.86 572.77 543.86 574.53 543.13 575.08 546.16 577 546.52 578.53 548.17 583.77 548.2 588.18 551.01 591.08 553.4 593.79 554.13 597.88 557.94 599.53 558.78 601.44 558.8 605.1 557.24 607.21 556.77 608.98 557.69 609.58 558.68 609.4 563.89 609.95 565.54 608.06 568.38 606.68 569.65 603.36 569.39 602.75 570.25 606.42 573.29 606.9 574.17 604.63 577.56 606 579.87 606.12 581.73 603.54 583.94 602.66 588.15 603.42 590.92 607.33 594.07 608.85 591.15 609.92 590.15 611.37 589.92 612.5 588.33 618.92 592.87 621.36 593.23 625.12 594.67 626.53 596.49 627.6 596.93 630.29 596.75 634.79 600.65 637.68 601.83 641.01 604.46 644.28 605.71 651.19 612.4 655.23 617.25 657.12 620.27 659.85 625.5 660.07 626.71 659.39 628.82 656.23 633.01 652.23 639.28 651.07 640.82 649.44 647.51 650.52 653.69 651.25 654.34 652.82 659.24 654.45 660.63 655.26 662.74 660.86 668.3 664.98 670.86 666.79 671.23 668.06 672.35 671.86 671.21 674.5 671.37 675.6 670.01 676.33 672.63 677.32 673.97 677.24 680.21 678.34 684.15 678.63 696.68 678.47 698.84 677.77 700.52 673.61 706.07 669.66 712.29 664.43 721.63 662.96 724.91 658.56 731.12 657.15 732.72 652.81 736.67 651.22 739.36 650.09 740.18 646.85 744.25 644.69 748.18 644.01 750.27 643.49 754.61 643.98 756.17 643.73 758.95 641.41 762.44 637.69 765.09 633.53 767.51 630.66 769.65 624.37 773.42 622.48 773.95 618.88 776.6 614.08 778.57 611.86 779.81 608.31 780.39 605.34 781.43 602.4 783.19 595.9 784.71 587.44 787.67 585.16 789.2 582.51 790.12 559.7 794.74 553.11 797.55 549.4 797.55 531.15 801.06 524.79 802.14 518.55 802.94 510.27 804.62 503.75 804.32 502.86 804.97 499.14 805.93 491.35 804.91 487.73 804.97 484.13 806.46 477.83 805.56 475.59 804.24 473.21 804.97 471.26 804.89 463.74 802.66 461.08 800.82 459.6 797.46 458.51 796.11 452.04 795.6 450.45 794.92 449.59 795.49 449.33 797.9 450.06 799.83 451.35 800.56 451.41 803.16 453.83 803.53 453.43 805.99 452.05 807.01 450.47 811.15 451.22 812.4 450.9 814.94 451.92 816.75 452.13 819.58 453.98 820.17 458.08 820.52 461.24 822.11 463.85 824.74 462.53 827.16 458.56 824.08 456.95 821.76 453.43 821.93 454.23 823.73 455.67 823.78 456.98 826.41 459.38 828.41 462.58 829.25 461.91 831.91 461.8 835.57 461.34 836.74 460.34 843.84 460.23 848.48 458.23 850.43 455.21 849.91 453.43 850.11 452.2 850.99 452.34 852.97 451.36 857.51 450.13 860.64 451.22 863.71 450.03 868.88 447.39 870.19 445.41 872.89 445.36 874.71 446.54 877 447.15 880.11 448.18 882.07 451.78 884.15 451.74 885.39 453.44 887.46 454.77 890.51 452.19 890.75 451.22 892.19 451.89 893.19 455.02 891.29 455.32 893.11 454.62 897.07 452.34 902.34 451.27 903.76 445.32 906.94 440.49 909.98 437.78 911.1 435.58 912.7 432.68 912.73 432.37 911.37 430.29 907.25 425.88 903.18 423.75 900.4 420.01 897.06 417.42 896.16 409.21 895.1 409.21 879.54 409.21 851.07 409.16 822.71 409.22 796.88 409.22 768.54 409.19 743.46 409.18 718.5 409.16 696.75 409.16 674.25 409.15 653.53 409.26 629.55 409.34 605.17 409.43 584.55 409.76 576.48 411.12 574.87 430.59 574.95 453.26 574.88 476.41 574.69 489.63 559.84 499.19 549.11 506.37 540.86 507.78 538.77 507.41 537.28 508.48 535.4 511.27 534.76 513.96 535.87 517.81 535.97 520.99 538.47 523.22 539.21 524.93 538.78 526.26 537.72 527.71 534.64 528.69 530.15 531.13 527.7 531.47 524.75 533.85 523.04 533.18 520.65 Z M 468.53 812.93 469.6 814.16 470.35 816.71 470.09 818.24 468.4 817.96 467.18 816.8 464.65 815.9 463.03 814.63 461.36 812.22 460.88 810.4 467.14 811.95 468.53 812.93 Z M 461.37 807.08 463.2 806.15 465.92 807.62 465.8 808.85 464.4 809.19 461.37 807.08 Z M 458.59 877.44 461.04 877.61 462.14 878.77 463.67 881.69 463.31 883.24 460.46 887.44 458.35 887.08 458.61 885.47 455.3 884.59 456.84 882.14 457.89 877.49 458.59 877.44 Z M 460.04 864.66 463.19 865.48 464.22 866.99 463.99 872.13 464.22 875.03 460.36 869.3 459.47 867.3 460.04 864.66 Z" fill-rule="evenodd" id="AR-B" data-name="Buenos Aires"/>
<path d="M 612.5 588.33 611.37 589.92 609.92 590.15 608.85 591.15 607.33 594.07 603.42 590.92 602.66 588.15 603.54 583.94 606.12 581.73 609.94 584.2 611.3 585.92 612.5 588.33 Z" id="AR-C" data-name="Ciudad de Buenos Aires"/>
<path d="M 558.53 382.96 558.88 385.14 560.27 388.06 559.99 394.84 559.15 397.08 558.57 401.53 556.2 405.96 551.34 412.79 549.75 415.82 547.35 419.28 544.94 423.79 542.43 426.47 541.2 430.42 538.41 434.57 536.48 435.79 532.86 439.88 530.87 442.96 528.37 445.45 525.12 446.72 520.71 446.69 519.01 447.46 518.72 450.56 517.67 454.54 516.54 456.1 516.01 458.36 516.67 460.6 518.27 463.14 518.26 465.02 516.92 467.36 516.55 469.12 516.71 473.87 515.61 478.63 515.83 481.47 515.45 483.49 514.28 486.5 514.52 489.06 516 491.33 516.68 493.09 516.97 497.39 517.9 501.05 520.02 505.54 521.62 507.63 522.84 511.29 525.11 514.21 529.22 516.71 531.04 519.1 533.18 520.65 533.85 523.04 531.47 524.75 531.13 527.7 528.69 530.15 527.71 534.64 526.26 537.72 524.93 538.78 523.22 539.21 520.99 538.47 517.81 535.97 513.96 535.87 511.27 534.76 508.48 535.4 507.41 537.28 507.78 538.77 506.37 540.86 499.19 549.11 489.63 559.84 476.41 574.69 453.26 574.88 430.59 574.95 446.77 548.54 459 528.5 468.02 513.83 469.15 512.35 470.98 512.19 473.62 509.8 474.32 508.37 474.63 502.45 475.51 500.14 474.85 498.26 473.76 497.33 471.65 493.14 469.63 492.38 470.18 488.65 468.92 486.91 468.25 482.79 467.08 481.34 464.23 479.15 463.03 476.88 461.89 472.86 459.25 470.87 456.05 467.41 456.31 462.41 457.41 458.75 456.17 456.49 455.88 453.01 456.1 449.98 455.34 448.48 455.88 447.02 459.27 443.95 459.94 442.4 470.19 403.99 470.54 401.31 468.66 398.57 459.79 388.57 459.44 386.67 461.32 374.59 464.86 351.87 466.76 339.72 470.2 317.49 474.03 291.94 476.44 275.71 515.12 275.81 543.31 275.69 561.1 275.71 590.47 275.66 589.27 278.9 587.03 280.79 583.36 281.23 581.78 282.85 581.41 284.42 581.76 287.75 581.4 290.32 582.39 293.94 581.41 299.86 581.61 303.36 581.07 305.93 579.32 309.66 579.39 311.67 578.63 315.24 577.26 317.69 577.13 322.3 576.49 323.51 574.06 324.97 570.66 327.87 566.78 329.33 564.56 330.81 563.1 333.2 561.44 340.17 561.36 349.56 559.92 355.81 558.4 358.97 558.4 361.71 559.79 364.1 561.04 367.93 560.9 371.27 559.75 373.5 559.09 377.79 558.22 380.96 558.53 382.96 Z" id="AR-S" data-name="Santa Fe"/>
<path d="M 302.34 197.04 314.15 199.1 316.05 198.91 316.6 197.87 316.54 195.82 317.09 193.33 317.33 189.61 317.91 189.06 321.47 190.25 322.93 190.17 326.86 191.08 331.98 189.12 333.87 193.02 334.45 193.42 342.1 196.53 343.89 196.48 345.92 197.73 348.73 197.6 350.62 196.09 353.9 195.16 356.72 195.76 365.16 195.55 365.22 200 363.65 205.68 364.65 213.57 364.39 216.29 361.85 215.87 361.07 216.5 359.95 220.69 359.5 221.41 357.63 221.74 355.47 229.95 353.44 232.93 352.38 237.43 351.18 240.55 350.27 241.84 349.39 244.43 346.97 246.07 342.03 251.8 345.8 253.67 344.8 255.63 342.24 256.35 341.84 258.64 344.54 264.99 343.32 266.19 341.81 270.54 340.45 271.21 337.8 271.59 335.94 272.26 334.86 272.04 331.22 269.5 330.59 269.49 327.24 271.58 324.44 274.17 322.48 277.76 321.71 277.97 318.32 273.77 317.35 271.47 316.97 269.05 315.99 267.05 314.19 266.09 311.67 266.88 310.48 265.72 309.62 262.4 307.33 260.03 306.42 256.55 305.03 249.88 305.23 248.25 303.55 247.97 300.23 246.07 297.2 245.4 296.84 244.43 298.57 241.21 301.52 238.2 302.97 235.18 305.28 232.46 308.08 229.64 309.62 226.75 309.83 222.36 310.43 219.8 310.37 218.07 309.61 216.99 307.83 216.13 303.87 212.58 302.38 211.76 299.67 211.12 298.41 209.76 298.27 207.94 299.87 203.87 300.74 199.46 302.34 197.04 Z" id="AR-T" data-name="Tucumán"/>
<path d="M 365.16 195.55 365.53 193.79 366.98 190.98 367.62 186.96 376.18 168.08 376.97 167.03 378.51 167.24 387.69 170.25 408.76 170.56 474.68 170.65 475.94 174.33 476.41 192.27 476.46 197.34 476.46 221.24 476.45 267.13 476.44 275.71 474.03 291.94 470.2 317.49 466.76 339.72 464.86 351.87 461.32 374.59 455.09 358.35 453.26 357.02 446.7 356.82 433.05 357 410.19 356.87 409 356.41 408.85 354.79 406.38 354.14 406.19 351.41 403.72 351.57 400.26 350.58 395.53 351.33 392.37 351.16 390.57 349.96 387.63 349.3 386.53 347.96 383.55 346.34 382.71 345.44 382.87 343.24 382.32 342.84 374.49 340.77 372.87 340.81 368.49 341.89 349.29 346.89 344.9 338.97 343.16 334.72 341.4 321.3 341.57 317.52 340.87 308.54 340.48 307.33 337.36 305.06 337.34 303.45 338.48 302.4 341.44 297.59 341.68 294.98 341.41 288.17 337.8 271.59 340.45 271.21 341.81 270.54 343.32 266.19 344.54 264.99 341.84 258.64 342.24 256.35 344.8 255.63 345.8 253.67 342.03 251.8 346.97 246.07 349.39 244.43 350.27 241.84 351.18 240.55 352.38 237.43 353.44 232.93 355.47 229.95 357.63 221.74 359.5 221.41 359.95 220.69 361.07 216.5 361.85 215.87 364.39 216.29 364.65 213.57 363.65 205.68 365.22 200 365.16 195.55 Z" id="AR-G" data-name="Santiago del Estero"/>
<path d="M 275.22 455.03 277.98 455.59 280.39 456.78 283.16 456.29 284.72 457.11 287.52 456.89 289.16 457.66 291.79 457.35 295.8 457.33 299.42 455.64 302.32 454.78 305.73 455.12 307.57 456.06 310.12 456.18 314.13 455.45 317.67 455.46 320.95 456.85 332.13 463.75 334.34 466.13 334.92 467.5 335.28 470.67 336.52 473.18 336.56 475.99 337.49 476.46 341.79 475.98 346.78 474.6 347.67 475.02 347.96 477.54 347.68 481.17 348.89 483.81 349.58 486.64 349.26 490.23 348.34 492.37 347.82 494.97 346.94 495.92 346.78 497.68 345.89 500.06 345.64 502.63 344.08 505.59 344.34 507.68 342.84 511.25 343.28 513.69 340.79 515.12 339.3 518.2 341.1 554.62 341.11 605.15 341.07 646.64 341.06 654.23 339.16 654.34 303.43 654.29 279.77 654.29 279.3 651.77 280.13 645.87 281.77 638.06 282.23 633.08 283.43 630.32 283.78 624.93 284.26 621.86 283.71 618.01 284.13 615.81 283.43 614.82 284.2 611.99 282.31 604.93 282.61 601.39 281.58 597.87 276.82 588.37 274.92 586.29 273.53 581.33 273.28 577.18 271.93 575.07 271.87 569.39 271.58 567.53 272.7 565.72 274.25 564.3 274.56 559.54 273.28 556.11 271.57 554.49 271.15 552.28 269.4 550.17 267.24 548.61 265.82 543.86 264.89 542.21 263.63 537.94 262.54 536.62 258.71 530.03 258.33 528.93 258.28 524.99 257.31 522.79 256.79 519.32 257.04 515.54 256.72 511.19 256.27 509.18 256.49 507.73 255.33 504.37 256.16 503.29 255.67 500.17 256.72 496.97 255.84 494.3 254.07 491.85 253.08 486.63 251.57 481.27 249.93 479.65 248.8 475.26 248.67 473.26 248.72 465.69 248.55 463.86 249.39 460.54 248.84 456.02 249.32 454.57 250.62 453.62 255.02 454.56 258.39 454.33 259.75 453.87 262.35 454.45 265.02 455.59 275.22 455.03 Z" id="AR-D" data-name="San Luis"/>
<path d="M 214.35 732.2 214.37 695.8 214.05 668.02 212.59 660.65 213.03 655.33 214.47 654.26 259.01 654.26 279.77 654.29 303.43 654.29 339.16 654.34 341.06 654.23 341.07 646.64 341.11 605.15 365.14 605.09 386.38 605.09 409.34 605.17 409.26 629.55 409.15 653.53 409.16 674.25 409.16 696.75 409.18 718.5 409.19 743.46 409.22 768.54 409.22 796.88 409.16 822.71 405.58 822.33 397.66 816.88 396.23 816.21 394.52 813.61 391.89 811.66 388.34 810.63 384.88 806.38 382.36 805.54 378.79 803.26 365.76 798.34 362.93 798.25 351.76 796.11 346.84 796.53 345.77 795.76 340 795.76 334.1 796.88 332.02 796.81 329.85 797.55 327.6 796.17 324.08 794.74 320.93 794.42 318.58 796.08 316.94 796.49 315.77 795.56 313.5 795.41 311.99 794.35 309.78 794 306.1 792.6 295.87 791.29 290.57 792.22 288.8 792.19 281.98 790.52 280.71 785.68 278.53 783.12 274.91 781.9 272.17 779.93 269.32 779.31 266.29 778 261.62 775.52 258.98 771.9 257.34 766 255.57 765.52 252.19 766.21 249.35 767.68 246.31 767.24 245.28 767.8 242.22 768 240.7 767.25 238.32 764.42 236.14 759.78 233.43 757.87 231.93 758.25 230.56 757.56 229.33 754.09 229.55 751.7 230.43 749.97 234.45 746.8 235.95 743.49 235.9 741.2 234.42 737.87 232.07 735.29 230.34 734.39 214.35 732.2 Z" id="AR-L" data-name="La Pampa"/>
<path d="M 328.47 373.83 337.04 371.36 339.04 370.26 342.51 366.63 346.85 361.71 347.33 360.04 346.12 349.35 346.54 347.9 349.29 346.89 368.49 341.89 372.87 340.81 374.49 340.77 382.32 342.84 382.87 343.24 382.71 345.44 383.55 346.34 386.53 347.96 387.63 349.3 390.57 349.96 392.37 351.16 395.53 351.33 400.26 350.58 403.72 351.57 406.19 351.41 406.38 354.14 408.85 354.79 409 356.41 410.19 356.87 433.05 357 446.7 356.82 453.26 357.02 455.09 358.35 461.32 374.59 459.44 386.67 459.79 388.57 468.66 398.57 470.54 401.31 470.19 403.99 459.94 442.4 459.27 443.95 455.88 447.02 455.34 448.48 456.1 449.98 455.88 453.01 456.17 456.49 457.41 458.75 456.31 462.41 456.05 467.41 459.25 470.87 461.89 472.86 463.03 476.88 464.23 479.15 467.08 481.34 468.25 482.79 468.92 486.91 470.18 488.65 469.63 492.38 471.65 493.14 473.76 497.33 474.85 498.26 475.51 500.14 474.63 502.45 474.32 508.37 473.62 509.8 470.98 512.19 469.15 512.35 468.02 513.83 459 528.5 446.77 548.54 430.59 574.95 411.12 574.87 409.76 576.48 409.43 584.55 409.34 605.17 386.38 605.09 365.14 605.09 341.11 605.15 341.1 554.62 339.3 518.2 340.79 515.12 343.28 513.69 342.84 511.25 344.34 507.68 344.08 505.59 345.64 502.63 345.89 500.06 346.78 497.68 346.94 495.92 347.82 494.97 348.34 492.37 349.26 490.23 349.58 486.64 348.89 483.81 347.68 481.17 347.96 477.54 347.67 475.02 346.78 474.6 341.79 475.98 337.49 476.46 336.56 475.99 336.52 473.18 335.28 470.67 334.92 467.5 334.34 466.13 332.13 463.75 320.95 456.85 317.67 455.46 314.13 455.45 314 442.93 313.83 418.35 314.37 415.48 321.59 393.84 321.95 391.74 323.69 386.13 325.15 383.47 328.47 373.83 Z" id="AR-X" data-name="Córdoba"/>
</g>
</svg>