<?xml version="1.0"?>
<svg xmlns="http://www.w3.org/2000/svg" version="1.2" baseProfile="tiny" width="800" height="514" viewBox="0 0 800 514" stroke-linecap="round" stroke-linejoin="round">
<g id="MLOC-CH">
<path d="M 335.8 482.76 332.55 489.18 314.98 485.14 308.25 485.57 299.23 475.99 281.19 471.46 274.56 478.43 265.58 481.19 249.44 490.87 236.14 489.45 217.91 497.83 206.79 498.93 197.24 495.35 189.29 486.44 182.34 468.59 170.36 455.03 158.99 454.77 159.52 436.16 145.43 433.04 143.9 428.75 148.6 410.85 154.88 398.62 141.19 379.15 147.87 363.89 159.64 365.76 166.71 371.65 166.71 378.49 173.17 382.01 174.78 388.86 193.33 418.98 205.94 411.32 218 398.32 220.52 388.54 225.72 382.75 234.23 374.41 243.74 378.37 256.95 370.67 272.97 371.85 281.93 368.71 281.16 363.73 291.21 359.37 295.94 354.05 313.41 360 334.97 344.31 345.06 343.2 356.43 335.46 356.24 329.58 362.97 324.73 382.64 327.37 396.13 333.87 409.59 330.45 422.39 322.46 425.88 317.85 429.62 303.97 434.92 299.44 437.09 301.94 434.59 315.53 439.87 327.51 446.87 331.32 441.68 338.33 432.53 341.85 430.75 352.29 418.42 356.54 413.17 363.8 414.03 370.73 405.23 376.94 396.52 388.46 381.35 394.51 376.12 400.52 385.36 417.4 385.85 426.77 382.01 435.05 365.65 446.81 364.31 459.85 359.92 467.59 344.41 472.01 335.8 482.76 Z" id="CH-VS" data-name="Valais"/>
<path d="M 430.75 352.29 432.53 341.85 441.68 338.33 446.87 331.32 459.56 317.64 475.08 321.2 482.45 318 502.01 321.98 521.43 316.54 524.39 308.53 531.68 305.88 546.29 316.16 542.17 330.9 548.07 344.41 553.16 344.04 556.78 361.04 555.24 374.49 549.56 391.07 554.97 411.13 568.47 423.29 555.51 432.19 552.23 437.11 549.95 451.67 539.85 457.4 542.23 469.17 536.41 474.55 539.77 483.69 548.63 488.91 549.97 497.45 539.9 513 528.78 509.42 523.34 511.08 523.91 497.08 516.63 480.89 504.13 472.88 498.38 471.72 510.15 450.5 505.65 444.54 494.71 443.34 491.49 439.82 482.37 443 468.98 436.1 452.77 414.38 443.25 410.04 438.06 403.24 437.96 390.41 441.44 369.75 440.62 356.21 430.75 352.29 Z" id="CH-TI" data-name="Ticino"/>
<path d="M 568.47 423.29 554.97 411.13 549.56 391.07 555.24 374.49 556.78 361.04 553.16 344.04 548.07 344.41 542.17 330.9 546.29 316.16 531.68 305.88 524.39 308.53 521.43 316.54 502.01 321.98 482.45 318 478.13 302.37 482.72 289.39 495 279.49 501.46 279.42 508.46 269.79 508.59 264.56 516.75 258.2 526.23 262.04 540.03 257.11 546.97 243.63 559.84 245.65 574.17 239.65 582.11 231.05 587.25 234.09 621.13 237.93 624.61 226.75 633.65 214.72 623.93 193.82 633.86 195.99 642.37 195.64 657.92 195.82 691.37 206.39 692.16 226.02 698.8 232.59 717.74 238.71 728.57 247.54 738.68 250.1 752.18 244.9 758.14 230.28 768.86 230.44 768.95 225.6 776.51 214.52 781.65 211.57 797.68 226.83 796.86 245.52 795.93 253.85 790.38 262.48 792.41 273.64 787.27 278.83 786.34 287.79 781.87 295.12 786.56 303.78 797.79 307.71 799 319.32 796.51 327.49 791.92 330.42 768.81 326.36 758.07 320.13 757.9 309.15 750.53 306.87 733.77 311.71 729.12 322.94 722.31 331.02 721.18 353.3 723.96 356.78 740.14 361.58 740.1 370.03 732.76 383.39 744.66 400.42 742.33 405.31 729.93 411.27 724.07 411.15 722.13 401.03 712.54 391.29 710.15 376.44 698.64 372.32 690.91 373.65 675.45 380.91 665.04 379.95 664.89 387.8 658.86 392.91 638.56 392.67 630.7 388.61 624.91 376.25 619.42 372.77 616.99 341.54 606.23 347.54 598.07 339.11 586.07 343.32 581.6 355.8 585.66 360.9 587.95 379.47 587.09 388.41 579.28 408.42 571.58 415.35 568.47 423.29 Z" id="CH-GR" data-name="Graubünden"/>
<path d="M 467.52 38.61 454.43 38.82 443.56 43.41 435.37 37.85 431.65 29.69 439.96 21.52 444.51 10.81 457.41 8.13 461.26 1 474.85 5.36 489.86 15.17 486.43 21.44 489.38 29.05 498.88 22.13 509.42 25.73 513.26 35.16 504.12 32.4 502.03 37.44 494.97 41.77 483.1 36.99 483.38 28.79 475.74 28.59 467.52 38.61 Z" id="CH-SH" data-name="Schaffhausen"/>
<path d="M 636.4 71.04 637.39 75.67 620.19 80.97 617.08 75.71 608.05 82.53 600.19 78.12 598.79 70.81 589.62 73.28 593.46 79.89 584.75 86 574.72 84.03 566.29 78.1 562.47 82.81 545 81.04 540.08 87.02 544.83 95.66 537.55 97.5 527.5 111.49 520.44 104.01 520.61 94.2 517.41 84.14 520.19 73.57 510.41 67.31 502.88 51.9 507.61 44.39 502.03 37.44 504.12 32.4 513.26 35.16 522.87 40.28 536.24 37.56 542.41 33.16 571.94 35.39 574.34 39.14 587.84 40.73 636.4 71.04 Z" id="CH-TG" data-name="Thurgau"/>
<path d="M 436.98 58.83 444.18 52.27 454.91 48.13 460.11 54.7 464.46 55.18 467.52 38.61 475.74 28.59 483.38 28.79 483.1 36.99 494.97 41.77 502.03 37.44 507.61 44.39 502.88 51.9 510.41 67.31 520.19 73.57 517.41 84.14 520.61 94.2 520.44 104.01 527.5 111.49 534.01 127.86 525.44 140.42 515 145.28 505.41 144.46 499.7 153.07 492.03 154.63 482.34 161.89 483.43 167.44 472.94 164.65 463.49 153.91 448.21 154.91 436.07 151.49 434.56 146.57 430.14 135.99 435.88 133.44 433.87 116.05 428.07 111.92 433.87 103.52 424.86 83.33 425.82 75.68 436.98 58.83 Z" id="CH-ZH" data-name="Zürich"/>
<path d="M 314.15 66.88 324.46 63.53 330.5 55.1 344.41 57.07 346.88 64.22 369.91 64.22 377.87 62.43 394.12 49.73 406.88 48.1 416.66 55.93 425.12 58.86 436.98 58.83 425.82 75.68 424.86 83.33 433.87 103.52 428.07 111.92 433.87 116.05 435.88 133.44 430.14 135.99 434.56 146.57 432.01 153.34 434.23 173.44 429.09 173.23 422.06 165.36 413.52 140.69 405.58 137.29 397.8 150.06 378.24 142.47 366.04 147.22 362.09 139.4 354.84 138.45 353.35 146.29 333.99 150.13 331.08 140.45 337.2 129.58 345.06 122.37 359.17 124.98 367.58 111.7 354.45 91.16 346.43 83.8 335.77 68.21 326.35 76.38 314.15 66.88 Z" id="CH-AG" data-name="Aargau"/>
<path d="M 289.14 57.91 302.17 54.78 299.91 66.61 289.64 70.95 277.6 63.47 289.14 57.91 Z" id="CH-BS" data-name="Basel-Stadt"/>
<path d="M 299.91 66.61 314.15 66.88 326.35 76.38 335.77 68.21 346.43 83.8 354.45 91.16 349.84 104.22 327.97 115.76 324.56 122.31 311.76 115.08 301.13 114.6 298.32 104.56 306.46 100.62 311.68 88.64 303 82.3 294.18 84.26 294.29 95.87 288.1 98.44 275.11 109.24 265.52 107.36 262.78 111.67 253.41 102.83 263.36 102.44 259.84 92.95 264.35 83.52 265.8 92.64 279.92 90.34 279.04 81.67 271.39 80.41 277.6 63.47 289.64 70.95 299.91 66.61 Z M 254.12 97.55 253.41 102.83 245.04 97.92 254.12 97.55 Z" fill-rule="evenodd" id="CH-BL" data-name="Basel-Landschaft"/>
<path d="M 623.93 193.82 633.65 214.72 624.61 226.75 621.13 237.93 587.25 234.09 582.11 231.05 581.57 212.39 575.3 200.41 567.41 202.3 571.32 178.66 552.69 175.01 540.72 165.01 536.84 166.51 526.04 153.1 509.37 154.77 499.7 153.07 505.41 144.46 515 145.28 525.44 140.42 534.01 127.86 527.5 111.49 537.55 97.5 544.83 95.66 540.08 87.02 545 81.04 562.47 82.81 566.29 78.1 574.72 84.03 584.75 86 593.46 79.89 589.62 73.28 598.79 70.81 600.19 78.12 608.05 82.53 617.08 75.71 620.19 80.97 637.39 75.67 642.96 85.14 654.61 92.63 654.46 103.71 645.88 116.37 643.47 125.11 631.74 142.06 627.47 150.89 625.59 159.23 627.2 169.89 630.09 176.8 628.5 185.82 623.93 193.82 Z M 625.9 118.43 625.63 107.92 635.16 106.97 642.42 99.87 647.19 93.24 632.66 88.38 614.83 97.37 613.02 101.96 591.57 106.45 579.48 106.17 572.42 117.3 578.07 122.75 575.11 128.99 577.96 139.79 598.16 144.59 605.96 148.08 616.97 142.53 622.88 133.29 625.9 118.43 Z" fill-rule="evenodd" id="CH-SG" data-name="Sankt Gallen"/>
<path d="M 271.39 80.41 279.04 81.67 279.92 90.34 265.8 92.64 264.35 83.52 271.39 80.41 Z M 259.84 92.95 263.36 102.44 253.41 102.83 254.12 97.55 259.84 92.95 Z M 354.45 91.16 367.58 111.7 359.17 124.98 345.06 122.37 337.2 129.58 331.08 140.45 319.83 142.64 312.89 141.08 306.9 133.87 288.68 138.22 292.12 146.12 298.65 151.58 305.22 163.95 299.31 170.61 285.33 167.23 276.24 176.75 262.72 184.96 255.77 186.58 251.96 181.21 262.86 178.13 269.64 160.79 255.99 168.77 247.14 154.11 260.41 148.14 263.69 143.11 279.83 134.04 283.88 127.62 284.34 126.97 283.55 120.87 279.04 115.72 262.78 111.67 265.52 107.36 275.11 109.24 288.1 98.44 294.29 95.87 294.18 84.26 303 82.3 311.68 88.64 306.46 100.62 298.32 104.56 301.13 114.6 311.76 115.08 324.56 122.31 327.97 115.76 349.84 104.22 354.45 91.16 Z" fill-rule="evenodd" id="CH-SO" data-name="Solothurn"/>
<path d="M 253.41 102.83 262.78 111.67 279.04 115.72 283.55 120.87 284.34 126.97 283.88 127.62 273.3 130.64 253.93 129.07 231.27 136.15 216.35 133.12 212.78 146.05 198.54 147.18 192.51 155.99 184.24 162.5 178.38 162.71 166.62 170.32 158.79 167.51 156.72 166.72 165.62 155.48 177.64 146.64 178.06 134.83 193.23 121.79 182.84 116.15 161.77 118.23 174.62 99.23 183.79 92.6 180.66 82.95 203.75 81.07 210.56 83.32 217.4 83.16 215.19 94.86 228.73 101.62 245.04 97.92 253.41 102.83 Z" id="CH-JU" data-name="Jura"/>
<path d="M 46.69 388.37 50.4 399.02 58.13 406.14 42.23 418.51 33.19 429.11 27.44 432.07 13.35 429.69 1.05 434.15 5.32 423.84 1 413.33 15.93 405.38 24.22 404.53 29.34 382.67 39.18 390.8 46.69 388.37 Z" id="CH-GE" data-name="Genève"/>
<path d="M 225.72 382.75 220.52 388.54 218 398.32 205.94 411.32 193.33 418.98 174.78 388.86 173.17 382.01 166.71 378.49 166.71 371.65 159.64 365.76 147.87 363.89 143.37 357.67 116.99 350.83 105.19 350.45 93.84 352.71 78.75 363.08 61.73 366.59 47.2 383.35 46.69 388.37 39.18 390.8 29.34 382.67 32.25 372.77 27.5 366.08 18.79 360.72 19.01 349.8 32.77 324.69 31.69 314.91 55.49 293.07 68.17 286.09 84.33 272.31 82.44 260.37 86.79 248.88 99.18 247.85 118.93 238.3 136.79 226.22 143.96 250.48 148.82 264.67 154.89 267.01 170.96 265.75 169.67 260.01 172.92 248.7 170.77 241.86 163.28 234.46 168.98 229.73 185.5 251.54 175.17 270.36 174.76 277.42 161.33 297.79 151.6 300.54 151.22 318.75 160.58 318.13 167.26 323.73 166.76 333.64 180.91 341.96 185.44 353.76 198.41 342.16 203.63 341.53 212.86 332.41 228.32 325.08 230.41 330.68 226.38 350.85 221.35 355.63 220.86 369.11 226.73 375.25 225.72 382.75 Z M 161.11 281.01 165.64 274.6 160.52 269.05 155.11 275.46 161.11 281.01 Z M 189.12 213.08 196.43 216.05 202.04 234.33 195.83 247.02 192.31 246.13 175.8 224.1 189.12 213.08 Z" fill-rule="evenodd" id="CH-VD" data-name="Vaud"/>
<path d="M 156.72 166.72 158.79 167.51 166.13 176.92 164.1 187.09 192.31 178.37 200 185.48 201.24 196.22 193.8 200.27 189.12 213.08 175.8 224.1 168.98 229.73 163.28 234.46 143.96 250.48 136.79 226.22 118.93 238.3 99.18 247.85 86.79 248.88 84.07 233.97 86.71 224.88 95.29 219.9 114.34 213.89 126.15 204.88 132.11 188.43 140.42 183.41 156.72 166.72 Z" id="CH-NE" data-name="Neuchâtel"/>
<path d="M 434.92 299.44 429.62 303.97 425.88 317.85 422.39 322.46 409.59 330.45 396.13 333.87 382.64 327.37 362.97 324.73 356.24 329.58 356.43 335.46 345.06 343.2 334.97 344.31 313.41 360 295.94 354.05 291.21 359.37 281.16 363.73 281.93 368.71 272.97 371.85 256.95 370.67 243.74 378.37 234.23 374.41 225.72 382.75 226.73 375.25 220.86 369.11 221.35 355.63 226.38 350.85 230.41 330.68 228.32 325.08 241.87 316.96 241.98 303.57 250.11 302.01 253.14 290.38 240.75 282.14 239.28 275.57 241.87 256.16 241.13 247.73 249.2 244.4 248.35 238.58 221.74 234.06 223.6 209.32 210.66 214.63 196.43 216.05 189.12 213.08 193.8 200.27 201.24 196.22 200 185.48 192.31 178.37 164.1 187.09 166.13 176.92 158.79 167.51 166.62 170.32 178.38 162.71 184.24 162.5 192.51 155.99 198.54 147.18 212.78 146.05 216.35 133.12 231.27 136.15 253.93 129.07 273.3 130.64 283.88 127.62 279.83 134.04 263.69 143.11 260.41 148.14 247.14 154.11 255.99 168.77 269.64 160.79 262.86 178.13 251.96 181.21 255.77 186.58 262.72 184.96 276.24 176.75 285.33 167.23 299.31 170.61 305.22 163.95 298.65 151.58 292.12 146.12 288.68 138.22 306.9 133.87 312.89 141.08 319.83 142.64 331.08 140.45 333.99 150.13 340.31 164.49 342.45 177.07 340.01 197.91 344.29 207.42 354.01 209.7 350.03 223.82 340.42 230.01 337.8 242.03 339.5 249.17 353.96 261.56 358.38 267.65 370.17 265.2 379.17 266.25 390.42 272.78 397.61 270.55 413.93 272.08 427.61 264.9 431.76 268.62 441.43 270.14 441.16 290.31 433.54 290.93 434.92 299.44 Z" id="CH-BE" data-name="Bern"/>
<path d="M 333.99 150.13 353.35 146.29 354.84 138.45 362.09 139.4 366.04 147.22 378.24 142.47 397.8 150.06 405.58 137.29 413.52 140.69 422.06 165.36 429.09 173.23 434.23 173.44 440.75 180.98 431.07 191.99 443.82 197.23 450.61 203.51 444.78 212.14 441.4 208 429.57 210.65 409.89 210.94 402.64 217.76 392.8 218.7 390.03 226.22 382.23 234.93 376.02 236.78 370.66 252.04 373.05 260.6 370.17 265.2 358.38 267.65 353.96 261.56 339.5 249.17 337.8 242.03 340.42 230.01 350.03 223.82 354.01 209.7 344.29 207.42 340.01 197.91 342.45 177.07 340.31 164.49 333.99 150.13 Z" id="CH-LU" data-name="Lucerne"/>
<path d="M 434.56 146.57 436.07 151.49 448.21 154.91 463.49 153.91 472.94 164.65 483.43 167.44 486.7 169.71 475.3 184.39 462.83 187.72 450.55 186.35 447.47 179.37 440.75 180.98 434.23 173.44 432.01 153.34 434.56 146.57 Z" id="CH-ZG" data-name="Zug"/>
<path d="M 446.87 331.32 439.87 327.51 434.59 315.53 437.09 301.94 434.92 299.44 433.54 290.93 441.16 290.31 441.43 270.14 450.96 249.87 446.1 247.78 443.65 235.95 459.45 224.1 461.87 213.48 468.62 214 470.28 220.89 483.24 224.1 486.78 230.01 497.19 225.64 505.93 227.23 511.35 238.37 527.14 230.57 528.37 243.79 516.78 250.32 516.75 258.2 508.59 264.56 508.46 269.79 501.46 279.42 495 279.49 482.72 289.39 478.13 302.37 482.45 318 475.08 321.2 459.56 317.64 446.87 331.32 Z" id="CH-UR" data-name="Uri"/>
<path d="M 483.43 167.44 482.34 161.89 492.03 154.63 499.7 153.07 509.37 154.77 526.04 153.1 536.84 166.51 531.68 184.3 531.92 189.57 519.98 203.53 532.45 222.08 527.14 230.57 511.35 238.37 505.93 227.23 497.19 225.64 486.78 230.01 483.24 224.1 470.28 220.89 468.62 214 461.87 213.48 449.1 215.18 444.78 212.14 450.61 203.51 443.82 197.23 431.07 191.99 440.75 180.98 447.47 179.37 450.55 186.35 462.83 187.72 475.3 184.39 486.7 169.71 483.43 167.44 Z" id="CH-SZ" data-name="Schwyz"/>
<path d="M 582.11 231.05 574.17 239.65 559.84 245.65 546.97 243.63 540.03 257.11 526.23 262.04 516.75 258.2 516.78 250.32 528.37 243.79 527.14 230.57 532.45 222.08 519.98 203.53 531.92 189.57 531.68 184.3 536.84 166.51 540.72 165.01 552.69 175.01 571.32 178.66 567.41 202.3 575.3 200.41 581.57 212.39 582.11 231.05 Z" id="CH-GL" data-name="Glarus"/>
<path d="M 431.76 268.62 427.61 264.9 420.28 257.66 421.46 232.82 414.07 226.81 416.89 218.88 409.09 215.74 402.64 217.76 409.89 210.94 429.57 210.65 441.4 208 444.78 212.14 449.1 215.18 461.87 213.48 459.45 224.1 443.65 235.95 446.1 247.78 437.5 248.1 426.21 244.8 431.76 268.62 Z" id="CH-NW" data-name="Nidwalden"/>
<path d="M 228.32 325.08 212.86 332.41 203.63 341.53 198.41 342.16 185.44 353.76 180.91 341.96 166.76 333.64 167.26 323.73 160.58 318.13 151.22 318.75 151.6 300.54 161.33 297.79 174.76 277.42 175.17 270.36 185.5 251.54 168.98 229.73 175.8 224.1 192.31 246.13 195.83 247.02 202.04 234.33 196.43 216.05 210.66 214.63 223.6 209.32 221.74 234.06 248.35 238.58 249.2 244.4 241.13 247.73 241.87 256.16 239.28 275.57 240.75 282.14 253.14 290.38 250.11 302.01 241.98 303.57 241.87 316.96 228.32 325.08 Z M 163.28 234.46 170.77 241.86 172.92 248.7 169.67 260.01 170.96 265.75 154.89 267.01 148.82 264.67 143.96 250.48 163.28 234.46 Z M 161.11 281.01 155.11 275.46 160.52 269.05 165.64 274.6 161.11 281.01 Z" fill-rule="evenodd" id="CH-FR" data-name="Fribourg"/>
<path d="M 427.61 264.9 413.93 272.08 397.61 270.55 390.42 272.78 379.17 266.25 370.17 265.2 373.05 260.6 370.66 252.04 376.02 236.78 382.23 234.93 390.03 226.22 392.8 218.7 402.64 217.76 409.09 215.74 416.89 218.88 414.07 226.81 421.46 232.82 420.28 257.66 427.61 264.9 Z M 441.43 270.14 431.76 268.62 426.21 244.8 437.5 248.1 446.1 247.78 450.96 249.87 441.43 270.14 Z" fill-rule="evenodd" id="CH-OW" data-name="Obwalden"/>
<path d="M 598.16 144.59 577.96 139.79 575.11 128.99 578.07 122.75 572.42 117.3 579.48 106.17 591.57 106.45 613.02 101.96 614.83 97.37 632.66 88.38 647.19 93.24 642.42 99.87 635.16 106.97 625.63 107.92 625.9 118.43 620.22 118.25 601.4 109.38 593.08 131.44 598.16 144.59 Z" id="CH-AR" data-name="Appenzell Ausserrhoden"/>
<path d="M 625.9 118.43 622.88 133.29 616.97 142.53 605.96 148.08 598.16 144.59 593.08 131.44 601.4 109.38 620.22 118.25 625.9 118.43 Z" id="CH-AI" data-name="Appenzell Innerrhoden"/>
</g>
</svg>