<?xml version="1.0"?>
<svg xmlns="http://www.w3.org/2000/svg" version="1.2" baseProfile="tiny" width="800" height="591" viewBox="0 0 800 591" stroke-linecap="round" stroke-linejoin="round">
<g id="MLOC-CN">
<path d="M 297.97 214.04 294.38 216.45 293.76 217.99 293.42 224.36 293.66 226.88 291.42 229.34 290.22 229.78 286.56 229.32 280.91 230.5 274.68 234.05 267.24 242.41 263.97 247.26 261.59 251.31 257.79 253.34 254.53 252.99 253.09 254.14 253 259.35 251.15 262.96 251.09 264.58 253.38 270.64 253.22 275.69 245.35 277.42 242.61 279.25 236.16 281.18 234.38 281.32 231.8 282.52 228.13 283.3 223.44 283.71 223.21 284.54 218.99 287.18 216.89 287.73 217.44 289.52 220.65 294.98 220.61 298.58 225.8 301.39 228.93 303.36 231.03 308.16 232.09 309.41 231.71 311.13 228.68 312.25 225.46 312.81 224.21 314.26 223.89 316.27 225.42 318.54 228.05 319.43 229.73 325.31 229.42 326.38 225.74 327.41 223.04 325.78 217.08 325.49 215.1 323.49 214.55 325.88 213.18 326.52 210.71 326.25 204.79 323.32 201.33 322.93 199.63 321.54 198.11 321.62 194.82 320.32 188.83 320.65 187.84 321.39 183.23 322.18 180.29 321.53 178.31 322.67 168.73 324.03 165.51 325.7 163.88 329.58 161.82 331.41 159.04 331.45 157.77 332.79 154.77 331.49 151.64 331.6 148.69 332.57 146.79 334 143.99 334.65 139.44 337.38 136.44 336.95 134.96 337.61 130.97 337.84 126.81 336.87 124.89 337 123.23 335.76 122.76 332.82 119.82 333.2 116.14 332.56 114.71 333.46 114.33 334.89 111.68 336.44 110.58 338.5 106.79 339.67 104.62 339.58 102.17 338.29 100.25 338.54 98.3 337.39 97.23 338.91 95.66 338.05 90.8 337.14 88.63 335.46 86.76 339.55 84.65 342.22 85.07 343.31 82.95 344.87 83.89 348.6 81.77 352.62 80.77 352.9 78.1 351.97 75.83 352.62 74.08 352.48 70.85 354.05 66.29 350.79 63.32 350.28 61.93 349.01 60.07 342.71 58.39 339.3 59.1 336.36 56.85 336.71 55.77 335.68 53.94 336.28 50.71 336.1 45.83 334.24 43.97 334.17 39.73 331.58 39.65 329.74 36.35 330.64 34.45 330.69 33.08 327.71 31.27 327.06 30.9 326 32.47 323.85 31.87 322.7 31.97 320.1 29.55 316.44 26.68 315.15 24.59 315.47 23.82 312.73 20.54 311.45 18.07 311.96 14.83 310.46 13.26 311 10.97 308.94 12.55 307.66 16.41 307.76 20.13 306.25 21.38 304.79 17.82 301.53 18.78 298.76 17.71 297.5 17.84 295.02 16.5 293.57 16.25 290.08 17.12 288.62 16.32 286.44 10.55 283.83 8.02 283.79 5.31 286.12 3.55 284.9 2.06 280.69 3.79 278.36 2.25 276.94 1 274.29 1.4 270.71 3.85 270.37 5.23 268.27 3.88 264.66 6.24 260.32 8.38 259.54 11.01 259.55 15.4 255.7 17.09 252.62 19.74 253.82 21.76 253.82 25.52 250.86 26.54 250.53 27.93 253.67 28.13 256.38 31.26 256.08 33.27 254.67 35.47 253.82 36.59 255.42 38.14 254.26 40.42 250.63 40.51 248.88 42.34 246.5 42.28 245.16 43.51 243.98 45.43 243.44 46.88 244.01 49.67 243.85 51.52 244.52 54.01 244.19 56.63 243.1 59.35 243.53 60.67 242.38 63.06 239.23 63.07 237.67 66.45 235.92 67.14 234.87 71.11 233.07 75.38 230.52 76.78 230.68 79.39 229.12 81.17 228.91 82.41 226.77 86.84 226.43 87.81 225.32 87.21 223.47 87.96 222.62 86.29 215.81 87.43 212.83 90.67 211.54 89.26 208.61 91.97 206.98 94.55 207.1 94.06 203.95 92.85 203.28 93.76 200.9 90.67 192.76 88.96 189.27 89.33 186.23 88.81 183.54 89.37 178.9 90.67 177.72 87.31 176.2 84.35 176.65 82.61 174.63 85.27 172.51 89.22 172.06 90.01 171.15 93.56 170.2 95.6 170.52 99.39 169.07 107.15 166.6 108.04 169.37 109.9 170.19 113.05 168.75 114.4 168.64 116.76 170.72 118.19 169.59 118.82 166.58 118.59 164.79 115.28 163.94 114.36 162.98 115.41 159.23 116.93 156.09 117.97 150.56 119.35 148.02 121.5 140.41 123.41 136.41 123.78 131.58 125.56 131.26 130.44 134.02 135.41 135.81 138.72 135.44 145.3 135.62 146.19 136.31 146.29 138.84 148.59 138.16 152.37 134.66 156.19 134.32 156.95 131.88 158.3 131.35 158.43 127.93 157.26 125.24 157.46 123.31 156.41 117.56 157.34 113.25 159.07 108.99 159.91 108.03 162.81 107.6 165.24 107.82 167.09 106.41 170.11 105.68 172.45 102.2 173.03 99.52 172.1 98.07 172.23 96.52 174.31 94.2 177.3 93.75 181 94.92 182.63 93.94 186.43 93.03 186.5 95.76 187.16 96.96 185.65 97.91 186.29 100.28 189.27 101.7 189.66 102.62 188.08 104.26 190.99 106.34 191.9 106.35 194.26 108.3 196.2 109.3 196.4 111.87 199.33 113.94 200.99 114.12 202.47 116.14 205.05 116.39 206.23 115.38 208.94 115.4 211.67 119.42 213.47 119.42 215.5 118.35 216 120.75 219.19 123.33 220.67 125.84 221.03 129.38 224.21 135.03 225.72 135.65 227.09 137.7 228.03 140.26 227.91 143.03 228.58 143.56 226.61 148.57 227.91 152.11 227.99 153.84 224.19 158.89 223.41 163.72 224.54 164.68 225.31 167.44 226.73 169.42 229.72 169.2 231.21 170.46 233.91 170.32 234.77 171.43 236.61 171.76 241.13 171.45 243.54 172.59 247.21 172.9 250.83 172.15 253.34 172.75 256.22 172.71 260.91 173.75 263.37 175.17 265.46 178.11 266.77 179.11 269.64 179.21 271.52 181.81 274.77 183.2 276.21 184.89 280.63 186.5 285.1 185.92 284.34 188.44 284.42 191.02 286.8 191.51 287.83 193.5 289.18 197.81 291.01 201.8 292 205.28 297.03 210.3 297.97 214.04 Z" id="CN-XJ" data-name="Xinjiang"/>
<path d="M 70.85 354.05 74.08 352.48 75.83 352.62 78.1 351.97 80.77 352.9 81.77 352.62 83.89 348.6 82.95 344.87 85.07 343.31 84.65 342.22 86.76 339.55 88.63 335.46 90.8 337.14 95.66 338.05 97.23 338.91 98.3 337.39 100.25 338.54 102.17 338.29 104.62 339.58 106.79 339.67 110.58 338.5 111.68 336.44 114.33 334.89 114.71 333.46 116.14 332.56 119.82 333.2 122.76 332.82 123.23 335.76 124.89 337 126.81 336.87 130.97 337.84 134.96 337.61 136.44 336.95 139.44 337.38 143.99 334.65 146.79 334 148.69 332.57 151.64 331.6 154.77 331.49 157.77 332.79 159.04 331.45 161.82 331.41 163.88 329.58 165.51 325.7 168.73 324.03 178.31 322.67 180.29 321.53 183.23 322.18 187.84 321.39 188.83 320.65 194.82 320.32 198.11 321.62 199.63 321.54 201.33 322.93 204.79 323.32 210.71 326.25 208.59 326.72 207.55 327.77 208.19 329.5 209.46 330.15 212.16 330.36 210.88 335.47 211.4 336.51 208.19 338.13 207.81 340.2 209.33 342.42 209.49 344.53 212.15 344.76 212.64 346.04 211.32 347.73 212.83 353.37 212.13 356.29 210.18 357.94 211.55 360.83 213.32 362.2 214.59 365.21 216.75 366.03 217.6 368.79 219.13 370.55 220.61 370.65 223.53 372.62 225.41 372.86 227.31 371.32 229.63 371.09 230.43 369.8 232.68 369.8 232.87 370.83 235.04 373.8 238.57 375.54 240.71 377.4 243.57 377.09 243.9 379.01 247.09 378.63 249.49 379.08 254.13 379.17 254.46 380.27 256.9 380.33 260.71 382.55 263.63 381.68 265.5 382.87 268.54 383.14 271.23 382.17 274.69 380.14 279.35 383.91 279.51 385.32 280.95 386.49 283.52 386.75 285.69 389.05 284.77 391.21 285.45 393.42 286.63 394.48 287.88 394.17 291.22 394.9 294.42 395.11 295.57 392.49 296.82 391.91 299.49 394.3 303.57 394.88 303.03 390.91 306.47 390.16 307.85 390.37 309.56 389.34 309.56 387.37 310.93 386.5 311.37 384.58 310.94 382.8 313.57 383.04 315.57 382.12 319.47 383.35 321.97 385.03 322.15 386.63 325.19 390.75 325.09 393.53 327.01 396.66 330.83 400.41 329.3 402.29 327.37 402.94 329.76 405.94 329.39 407.29 331.73 409.63 331.09 410.91 331.81 413.99 332.15 418.76 333.06 422.21 332.15 426.18 332.88 427.51 333.14 431.31 333.75 432.58 332.2 432.9 332.41 434.83 330.68 438.72 329.52 435.91 327.95 436.3 328.13 439.53 326.97 440.82 327.64 444.48 325.67 447.09 323.19 445.51 322.28 447.76 320.78 448.63 319.17 447.59 317.94 445.5 315.89 445.09 315.36 443.53 313.12 442.92 311.93 446.52 310.46 447.54 307.74 445.33 305.37 445.78 302.54 444.29 300.52 444.14 298.01 445.16 297.58 443.66 300.99 440.24 300.71 438.77 299.16 436 297.97 435.37 295.74 436.8 295.47 434.29 297.32 433.35 295.04 430.41 289.86 430.83 289.5 432.66 286.87 432.79 286.51 434.89 283.08 435.03 280.77 433.82 277.23 433.43 275.32 431.15 274 432.47 272.27 432.83 270.63 434.46 271.63 435.55 270.36 436.91 267 438.23 265.31 440.31 259.88 440.8 258.19 441.82 256.48 444.36 256.77 445.72 253.73 446.58 249.55 449.19 250.62 450.96 248.51 453 244.13 452.74 241.85 454.27 239.25 454.74 237.48 453.64 236.07 451.48 233.43 450.83 231.48 449.68 229.17 451.17 223.84 449.47 221.12 449.69 222.58 447.31 218.33 445.79 215.84 445.65 213.13 446.38 211.73 448.03 209.2 448.77 207.67 450.29 206.26 452.69 204.81 453.59 203.53 456.25 202.54 456.53 200.47 460.83 198.92 459.47 198.49 457.45 199.97 453.06 199.49 450.83 196.79 449.19 193.77 451.01 190.48 451.49 190.08 452.74 186.55 452.13 185.65 453.41 182.72 453.16 180.83 453.64 177.81 453.33 176.18 451.67 174.39 451.43 171.37 449.18 169.83 449.38 168.46 452.07 165.38 450.72 162.48 452.45 160.76 448.41 158.5 446.22 157.67 447.04 155.32 446.36 153.08 446.81 150.74 446.04 150.7 444.31 151.88 442.12 150.41 441.29 148.63 442.82 145.49 441.8 144.57 440.41 142.53 439.88 141.26 437.98 139.71 437.41 139.66 435.53 137.94 432.23 135.93 431.56 132.99 432.43 132.16 433.52 130.34 433.06 127.88 428.67 125.71 426.57 121.47 426.05 117.62 422.09 115.7 420.89 112.44 419.89 111.71 415.96 107.67 415.54 105.23 414.69 103.81 415.93 102.56 415.3 102.17 418.32 100.05 420.87 98.78 420.68 97.19 417.09 94.66 416.1 93.89 415.02 87.76 412.4 86.64 410.94 86.67 409.07 85.28 409.07 82.29 406.39 78.33 406.51 76.57 405.24 75.36 403.31 74.53 400.78 72.33 398.77 70.39 401.69 68 400.7 68.32 399.02 67.5 398.02 69.05 396.53 67.12 394.03 68.08 391.06 64.35 386.97 64.21 381.78 66.59 381.59 67.68 380.67 68.43 383.39 70.68 385.17 72.61 384.49 72.89 383.23 75.17 382.3 77.2 382.26 79.51 379.26 76.82 375.48 76.28 373.3 77.37 371.15 74.81 370.51 72.7 370.57 70.96 369.69 69.12 367.86 68.56 366.43 68.73 363.43 67.78 359.5 67.9 358.17 71.11 355.99 70.85 354.05 Z" id="CN-XZ" data-name="Xizang"/>
<path d="M 624.72 6.48 627.25 8.15 629.77 12.87 628.35 15.37 625.89 18.25 621.6 22.12 625.73 25.34 628.36 26.54 630.17 29.08 632.61 28.79 634.64 24.59 636.79 25.15 638.79 28.54 641.91 29.52 642.49 30.56 640.69 32.79 642.21 38.03 641.7 41.1 643.27 43.91 643.32 45.11 644.85 47.72 646.57 49.25 648.96 50.21 651.14 50.07 652.85 51.52 655.71 50.91 656.72 49.23 658.52 49.48 660.58 48.92 663.04 49.96 665.01 48.25 667.16 48.78 669.17 48.14 672.3 44.61 673.18 42.91 675.86 43.6 677.86 45.18 680.9 50.48 682.51 51.47 682.87 52.75 684.35 53.59 685.29 56.16 684.57 57.78 682.26 60.57 682.07 64.78 678.44 68.24 676.97 72.29 674.96 74.1 675.36 75.96 673.97 77.43 674.57 79.33 674.38 82.96 673.22 83.59 674.59 85.25 675 87.57 674.42 91.95 673.57 93.32 669.74 92.84 669.18 95.12 666.58 101.44 665.49 104.8 665.26 108.79 665.8 111.39 664.02 112.6 662.73 109.51 662.39 106.38 661.52 105.61 659.48 107.23 654.9 112.28 652.95 114.95 649.25 117.07 648.12 119.63 642.78 122.93 639.75 125.1 637.66 128.95 639.86 132.8 642.78 134.66 645.37 138.36 647.86 139.85 649.73 138.5 650.38 137.26 653.36 139.61 650.6 142.97 649.22 143.19 645.68 142.69 645.28 146.59 647.53 150.11 646.32 152.21 642.79 152.57 642.46 158.21 640.81 159.4 638.87 157.52 637.57 155.2 635.5 157.75 632.32 154.62 629.42 154.06 629.96 155.87 628.02 159.57 629.57 160.32 631.52 160.05 632.73 163.88 634.15 164.54 635.43 167.55 634.88 169.14 632.52 170.67 632.97 178.47 633.53 179.84 636.05 183.34 635.69 186.67 637.29 187.14 641.71 185.04 644.84 183.01 647.04 182.14 648.78 187.43 650.1 188.39 649.62 190.38 652.23 196.62 651.81 198.52 650.13 199.45 650.35 201 654.5 202.79 653.4 207.66 647.79 210.11 647.13 212.2 644.02 213.65 641.87 213.72 638.59 211.79 637.16 212.69 637.93 214.06 636.28 215.58 632.96 214.08 631.31 215.4 630.78 217.29 627.76 218.81 626.43 217.37 624.14 217.99 619.78 222.23 618.19 221.58 614.47 223.98 612.93 224.19 612.4 226.13 610.72 227.4 608.12 230.49 606.68 229.24 603.78 224.69 603.95 223.13 601.45 222.39 600.58 220.26 597.62 221.71 596.44 223.43 598.01 225.03 597.13 230.7 598.32 236.02 597.96 237.71 596.25 239.48 595.23 238.8 586.43 238.06 585.02 238.77 584.28 234.33 583.38 233.93 582.27 231.72 583.82 231.13 584.4 229.19 583.69 225.5 581.94 226.41 580.51 220.06 577.59 216.77 573.02 217.12 572.53 218.73 570.33 218.3 567.88 218.65 565.67 219.84 564.88 221.38 565.57 222.93 565.3 226.46 561.93 228.14 559.03 226.63 556.8 228.83 554.6 230.29 553.28 228.07 552.26 228.07 547.94 230.79 545.49 231.69 545.59 233.38 544 234.04 542.33 233.51 539.61 233.62 539.44 230.1 540.02 227.91 538.51 223.66 535.79 224.32 534.29 225.48 533.49 227.57 531.35 229.25 530.58 233.91 528.37 234.99 527.07 236.96 526.82 239.12 527.81 240.04 526.45 242.49 528.25 245.53 528.8 247.42 530.02 248.65 528.36 250.49 528.58 253.02 523.79 254.04 521.73 255.49 519.32 255.92 517.96 254.24 514.46 255.28 512.93 257.51 511.5 258.41 507.13 256.44 505.56 257.45 503.21 261.26 500.89 266.64 498.8 268.18 495.27 267.26 493.34 270.78 490.31 271.77 489.41 271.14 490.66 268.74 489.04 268.74 486.86 270.42 484.76 273.81 483.7 273.76 482.27 271.96 480.24 272.91 478.77 271.12 477.25 271.05 478.14 273.46 475.35 275.21 473.49 277.34 471.58 278.07 469.8 281.85 468.31 282.12 466.87 284.61 464.87 285.91 462.6 289.36 462.18 291.62 463.15 293.08 462.19 296.15 460.05 295.88 459.71 300.17 456.21 300.39 454.08 300.96 450.24 300.98 448.24 298.19 445.27 297.35 441.97 296.21 440.92 293.83 438.81 292.62 437.49 293.01 434.46 292.43 429.78 290.1 432.06 287.29 432.84 284.33 435.8 279.58 436.4 277.66 434.19 274.91 433.94 272.18 431.66 272.23 430.13 273.45 427.24 273.73 427.34 275.63 425.12 276.23 424.43 278.61 422.3 282.67 421.57 285.43 421.4 291.16 420.46 292.67 421.36 294.83 420.88 298.14 419.19 299.21 415.22 299 411.71 300.52 409.87 302.41 403.1 303.19 402.23 304.78 400.98 304.96 398.97 303.79 393.36 298.63 390.23 297.52 389.57 293.23 391.32 292.6 390.66 287.68 394.87 285.1 397.29 282.29 398.11 280.37 399.79 278.93 400.49 276.73 398.34 273.08 397.87 270.83 394.28 271.11 388.21 273.33 384.06 276.25 379.21 275.27 376.59 274.27 369.19 277.17 371.76 280.05 369.26 283.45 365.99 283.47 363.82 282.46 361.65 280.43 360.77 277.91 359.05 278.24 356.49 275.44 356.24 271.86 352.46 271.38 351.31 269.91 349.38 268.99 347.84 266.54 345.94 265.98 341.28 263.47 337.95 263.42 340.51 260.18 344.06 257.87 345.56 254.49 348.03 250.81 347.67 248.78 345.52 246 341 245.91 338.8 246.92 334.38 247.03 330.05 248.92 327.71 251.66 326 252.24 322.35 252.1 323.54 246.7 318.64 242.14 315.48 238.16 314.68 236.31 317.28 233.46 308.72 212.9 338.52 216.86 345.59 214.86 361.27 217.46 363.78 217.2 366.74 217.72 368.01 218.68 369.98 221.91 371.91 223.55 385.47 226.72 393.92 231.08 404.09 229.07 404.05 232.65 409.2 233.01 410.79 233.86 413.22 231.29 421.93 226.91 433.66 221.76 452.05 218.8 456.74 219.14 460.13 219.79 462.71 218.88 466.09 219.3 469.11 218.89 471.49 217.12 474.69 215.71 476.8 215.45 481.13 213.23 481.69 212.01 483.76 210.1 484.7 208.08 488.01 203.97 490.13 202.56 496.67 199.74 498.71 197.22 501.05 196.62 501.19 195 499.82 192.25 497.15 189.94 495.65 187.71 494.18 183.56 495.97 180.18 496.07 178.5 498.51 173.48 499.88 172.13 502.07 171.24 507.68 171.89 509.93 174.53 511.68 175.34 516.33 176.64 523.25 177.52 526.57 174.55 528.73 173.95 530.14 172.11 533.48 169.13 534.97 165.72 537.63 164.99 540.26 165.94 545.46 165.55 549.38 164.63 554.26 160.27 556.32 159.7 557.38 157.94 556.88 155.97 558.76 152.27 561.98 148.43 564.6 147.04 571.08 147.66 571.75 147.1 572.28 143.47 574.74 143.08 576.23 144.59 577.55 144.44 578.61 143 583.3 140.73 585.87 141.2 588.14 140.92 589.59 141.47 590.84 139.92 592.81 140.26 594.05 141.77 597.37 142.71 599.15 142.41 602.11 143.09 605.03 140.86 605.02 138.32 603.29 135.44 602.37 132.25 597.42 127.5 597.28 126.16 595.29 125.36 594.33 122.58 590.2 120.75 587.27 116.66 582.57 115.46 576.82 116.44 574.03 120.16 571.28 122.73 568.06 119.7 565.23 118.5 560.62 119.19 557.28 118.68 555.2 119.76 553.75 121.66 552.18 121.73 548.39 117.31 547.77 113.62 551.11 111.63 551.61 110.65 551.5 105.62 554.47 100.94 554.59 98.91 563.03 79.83 567.9 82.86 570.45 83.88 573.32 84.04 577.05 86.08 578.81 85.4 582.39 82.89 585.33 79.89 588.6 77.17 594.43 76.52 595.96 75.94 597.36 74.37 597.84 69.22 595.08 68.58 596.42 67.17 597.07 64.02 599.72 61.18 600 57.72 603 54.02 603.13 51.62 605.18 48.87 607.7 41.87 608.29 41.89 612.72 37.43 614.73 36.69 615.49 33.51 616.45 32.31 616.17 29.76 614.45 27.43 615.73 23.25 611.89 21.23 608.58 22.36 607.02 22 606.71 18.55 609.94 16.28 612.16 13.2 614.79 10.72 617.69 7.29 621.98 7.37 624.72 6.48 Z" id="CN-NM" data-name="Inner Mongol"/>
<path d="M 253.22 275.69 253.38 270.64 251.09 264.58 251.15 262.96 253 259.35 253.09 254.14 254.53 252.99 257.79 253.34 261.59 251.31 263.97 247.26 267.24 242.41 274.68 234.05 280.91 230.5 286.56 229.32 290.22 229.78 291.42 229.34 293.66 226.88 293.42 224.36 293.76 217.99 294.38 216.45 297.97 214.04 308.72 212.9 317.28 233.46 314.68 236.31 315.48 238.16 318.64 242.14 323.54 246.7 322.35 252.1 326 252.24 327.71 251.66 330.05 248.92 334.38 247.03 338.8 246.92 341 245.91 345.52 246 347.67 248.78 348.03 250.81 345.56 254.49 344.06 257.87 340.51 260.18 337.95 263.42 341.28 263.47 345.94 265.98 347.84 266.54 349.38 268.99 351.31 269.91 352.46 271.38 356.24 271.86 356.49 275.44 359.05 278.24 360.77 277.91 361.65 280.43 363.82 282.46 365.99 283.47 369.26 283.45 371.76 280.05 369.19 277.17 376.59 274.27 379.21 275.27 384.06 276.25 388.21 273.33 394.28 271.11 397.87 270.83 398.34 273.08 400.49 276.73 399.79 278.93 398.11 280.37 397.29 282.29 394.87 285.1 390.66 287.68 391.32 292.6 389.57 293.23 390.23 297.52 393.36 298.63 398.97 303.79 400.98 304.96 402.23 304.78 403.61 304.14 406.55 304.61 407.53 307.26 408.71 307.79 409.59 309.77 412.95 311.81 414.8 314.93 413.48 316.36 414.11 318.67 415.72 321.36 416.42 323.46 416.31 325.85 415.19 326.64 414.75 328.65 416.23 331.49 419.56 333.03 421.42 335.71 422.81 335.21 426.39 337.29 427.73 339.23 429.71 338.29 430.1 334.76 429.77 331.96 433.65 332.29 435.56 330.97 435.97 326.33 434.26 324.16 431.52 323.09 430.12 323.24 430.2 316.14 431.5 315.82 432.11 314.06 431.14 312.47 431.92 311.39 432.05 308.38 433.96 308.25 435.82 309.6 439.14 309.44 440.42 310.23 440.6 312.87 443.23 313.13 448.26 315.34 450.28 317.9 454.39 318.74 455.49 320.12 457.65 320.59 458.92 321.77 458.22 323.92 458.87 325.55 458.57 327.49 456.17 329.49 456.39 332.39 457.61 334.84 457.79 337.32 456.16 339.25 453.35 339.4 451.76 338.96 449.46 340.03 446.37 338.51 445.44 339.96 447.52 343.96 444.12 344.14 443.17 344.77 440.88 344.51 439.44 345.31 437.36 342.98 435.58 342.17 431.01 342.32 430.05 343.11 430.82 345.78 430.06 347.71 427.79 350.21 428.45 351.21 430.15 351.21 432.43 353.35 432.2 355.41 430.35 357.73 429.26 360.32 429.91 361.48 429.93 364.11 428.77 365.39 425.87 366.28 424.6 365.41 421.46 367.29 420.35 370.47 422.51 371.41 422.17 375.39 418.94 376.83 417.1 376.49 416.28 378.57 414.12 380.61 412.52 381.12 409.27 381.07 404.84 379.89 402.85 378.01 401.32 377.41 402.85 374.06 401.84 372.87 401.38 369.38 399.83 367.41 399.59 365.31 398.77 364.62 394.23 364.5 389.08 363.25 386.91 362.21 386.08 356.76 383.6 354.76 381.66 355.09 379.26 356.81 379.52 358.1 377.21 358.47 373.7 360.33 375.94 363.73 376.11 365.54 377.75 366.63 377.75 367.8 375.1 369.16 369.69 373.14 369.27 370.86 370.46 368.72 369.95 366.53 368.56 366.78 366.42 367.07 364.88 364.05 363.63 364.98 360.51 364.68 360.11 361.76 357.74 360.52 355.7 356.97 356.01 354.77 357.57 353.32 358.89 354.07 366.4 356.4 368.6 358.35 369.67 357.19 371.62 356.62 374.23 353.87 373.42 351.6 368.77 349.44 368.27 348.3 370.46 346.97 371.59 344.51 374.95 342.7 376.36 340.34 375.24 337.1 377.03 336.64 378.44 335.04 380.62 335.22 380.6 330.16 384.2 330.26 384.5 327.72 383.64 326.19 385.04 324.08 382.14 322.31 381.51 319.53 379.43 316.94 380.27 314.59 377.47 312.08 378.65 308.68 377.03 306.8 371.89 303.51 372.34 302.37 370.64 299.36 368.41 302.75 366.85 301.32 362.24 298.24 359.07 295.52 353.67 293.17 352.6 290.74 350.04 289.83 347.21 286.85 346.4 290.3 342.76 288.85 339.6 286.36 338.8 284.93 331.83 278.56 329.48 277.12 327.14 279.13 325.08 278.97 323.51 277.87 322.71 279.4 320.18 281.58 310.97 275.73 308.03 274.84 306.58 274.96 305.75 276.52 306.12 278.31 305.86 285.49 305.52 288.97 304.22 289 299.85 287.11 299.75 285.8 297.31 284.5 293.91 283.63 293.29 282.41 289.56 280.36 287.53 278 286.16 277.47 284.13 275.18 280.89 275.78 276.55 274.28 275.33 273.29 273.35 272.91 268.63 272.84 265.91 273.45 263.47 273.1 260.6 273.68 257.65 275.08 255.88 274.92 253.22 275.69 Z" id="CN-GS" data-name="Gansu"/>
<path d="M 320.78 448.63 322.28 447.76 323.19 445.51 325.67 447.09 327.64 444.48 326.97 440.82 328.13 439.53 327.95 436.3 329.52 435.91 330.68 438.72 332.41 434.83 332.2 432.9 333.75 432.58 333.86 440.25 334.54 441.83 334.45 444.27 337.3 448.03 337.46 442.72 338.89 442.18 340.53 438.68 343.13 440.79 345.39 444 347.24 445.7 347.49 447.26 345.98 447.99 346.14 449.78 348.01 452.25 349.23 452.93 352.32 453.47 353.99 452.6 356.75 457.21 356.68 458.2 358.31 460.61 358.47 462.56 360.67 462.66 360.26 464.8 362.89 467.34 363.25 468.75 364.98 468.87 363.8 471.74 365.52 472.83 366.82 474.95 365.98 475.57 368.38 477.46 369.5 479.52 370.44 478.59 372.93 478.8 374.75 476.7 378.88 474.52 379.42 476.25 380.86 476.57 382.92 474.72 384.55 474.21 385.27 471.92 384.19 467.92 383.22 466.56 383.07 461.18 384.21 459.75 386.08 459.41 387.36 457.14 389.92 454.55 391.14 452.75 391.22 451.18 390.18 449.75 391.97 447.16 393.76 447.56 395.99 445.94 394.88 442.89 395.42 441.8 402.96 441.27 400.82 442.9 401.06 445.82 402.47 446.58 403.36 449.28 401.91 450.06 402.45 451.32 405.44 453.03 409.26 452.21 410.16 450.05 411.33 449.45 414.28 450.74 413.58 452.88 414.47 454.86 413.18 459.61 411.68 459.41 408.92 460.92 405.31 460.86 403.34 460.37 402.05 458.99 399.83 461.48 397.31 459.6 396.4 459.73 393.58 463.23 394.66 466.1 393.87 468.39 394.4 470.87 395.33 472.07 397.82 472.55 399.56 470.55 402.23 470.6 404.85 471.52 406.37 474.51 404.67 476.1 404.06 479.58 402.68 480.78 403.04 482.1 401.55 484.88 404.78 487.49 404.94 488.98 406.94 491.43 406.78 494.22 404.67 497.15 404.6 498.18 404.1 500.53 405.37 503.05 407.06 503.6 407.37 502.1 410.09 502.85 411.39 502.64 412.9 504.37 412.82 506.41 416.43 508.26 417.54 507 420.88 508.51 423.26 507.55 425.7 509.18 426.17 510.66 425.32 515.35 423.42 516.36 421.66 515.65 417.4 520.71 414.94 518.51 411.4 519.72 407.96 521.81 408.34 523.67 407.05 525.3 404.78 525.34 401.99 527.46 400.34 525.5 397.87 526.99 397.36 529.71 395.82 529.02 392.95 525.86 390.68 528.8 389.75 526.73 388.55 526.02 386.36 529.56 384.37 530.97 382.49 528.89 380.5 527.68 378.45 527.32 377.24 526.34 376.38 528.46 374.31 531.35 371.65 530.85 369.09 531.41 366.96 530.85 366.33 533.12 365.18 533.92 366.33 537.59 368.22 539.85 367.92 541.1 367.84 546.89 369.16 547.87 368.28 549.15 364.88 547.75 362.01 548.71 360.65 545.51 360.69 542.58 359.31 540.48 355.77 542.38 353.48 544.59 351.33 544.78 349.63 543.81 347.81 545.16 346.55 543.75 346.45 541.57 344.72 541.05 344.33 539.21 344.62 536.49 338.05 535.39 334.5 535.27 334.5 534.25 336.99 530.15 336.34 526.99 339.3 523.74 338.57 522.09 336.91 521.33 335.15 522.21 332.67 520.75 330.49 520.48 331.16 518.8 330.7 516.69 329.47 515.46 330.47 514.44 329.43 512.09 327.94 511.7 327.93 509.24 325.85 507.07 321.65 507.11 317.85 508.48 314.55 510.75 312.97 509.62 315.47 507.01 315.61 504.83 314.58 502.52 313.01 502.64 313.23 498.14 314.9 496.92 315.86 493.17 320.7 488.87 321.24 485.63 323.62 486.3 325.3 483 327.24 482.92 328.31 481.78 326.88 480.28 326.4 478.49 328.49 477.49 327.86 475.5 328.64 474.09 329.06 468.8 328.06 462.88 328.47 461 328.14 456.98 324.5 455.54 324.28 457.3 323.13 457.58 321.95 454.78 321.59 452.26 320.68 451.15 320.78 448.63 Z" id="CN-YN" data-name="Yunnan"/>
<path d="M 647.53 150.11 645.28 146.59 645.68 142.69 649.22 143.19 650.6 142.97 653.36 139.61 650.38 137.26 649.73 138.5 647.86 139.85 645.37 138.36 642.78 134.66 639.86 132.8 637.66 128.95 639.75 125.1 642.78 122.93 648.12 119.63 649.25 117.07 652.95 114.95 654.9 112.28 659.48 107.23 661.52 105.61 662.39 106.38 662.73 109.51 664.02 112.6 665.8 111.39 665.26 108.79 665.49 104.8 666.58 101.44 669.18 95.12 669.74 92.84 673.57 93.32 674.42 91.95 675 87.57 674.59 85.25 673.22 83.59 674.38 82.96 674.57 79.33 673.97 77.43 675.36 75.96 674.96 74.1 676.97 72.29 678.44 68.24 682.07 64.78 682.26 60.57 684.57 57.78 685.29 56.16 684.35 53.59 682.87 52.75 682.51 51.47 680.9 50.48 677.86 45.18 675.86 43.6 673.18 42.91 672.3 44.61 669.17 48.14 667.16 48.78 665.01 48.25 663.04 49.96 660.58 48.92 658.52 49.48 656.72 49.23 655.71 50.91 652.85 51.52 651.14 50.07 648.96 50.21 646.57 49.25 644.85 47.72 643.32 45.11 643.27 43.91 641.7 41.1 642.21 38.03 640.69 32.79 642.49 30.56 641.91 29.52 638.79 28.54 636.79 25.15 634.64 24.59 632.61 28.79 630.17 29.08 628.36 26.54 625.73 25.34 621.6 22.12 625.89 18.25 628.35 15.37 629.77 12.87 627.25 8.15 624.72 6.48 627.69 5.01 630.93 4.01 633.44 4.03 636.78 2.68 638.52 3.26 643.59 3.06 647.42 2.2 648.72 1 651.75 1.92 653.76 1.36 654.97 2.4 658.08 3.47 660.05 5.71 661.5 5.08 663.79 8.26 667.32 9.05 667.86 10.15 671.76 8.81 673.17 8.9 677.1 11.33 678.31 12.46 679.62 12.04 681.08 13.78 680.23 16.02 682.44 15.4 682.83 16.64 685.02 19.28 684.21 21.33 687.33 23.45 689.04 26.48 688.68 28.08 690.05 28.7 688.69 30.56 691.49 31.56 691.27 33.9 690.38 35.17 693.01 40.27 693.87 40.65 693.36 43.48 695.09 44.62 695 47.03 696.32 47.41 697.01 48.9 696.37 52.34 696.71 54.43 699.48 57.75 701.35 60.9 702.36 64.93 701.37 66.75 702.28 67.79 701.92 69.57 705.15 71.77 705.04 73.61 703.95 75.73 704.57 77.82 704.23 79.85 706.01 80.96 707.02 83.35 708.44 84.45 710.54 84.36 711.85 85.51 715.15 85.38 715.65 84.75 719.34 84.14 721.04 84.88 722.12 86.75 724.35 88.81 726.22 88.55 728.42 89.35 728.96 87.73 730.25 88.13 731.15 90.75 732.97 90.86 733.55 92.66 735.61 95.54 739.99 99.02 741.79 98.39 744.11 99.19 745.54 98.89 743.7 103.54 746.08 106.23 747.43 110.5 745.39 113.74 745.64 115.03 748.57 118.26 749.03 121.49 750.09 122.18 755.24 121.01 757.32 122.44 758.96 121.91 761.45 122.42 764.94 122.03 767.17 121.13 769.67 121.69 771.42 118.54 777.08 113.92 778.29 113.57 781.93 114.26 783.18 113.8 785.29 111.23 788.69 110.43 789.67 109.61 793.96 108.55 796 109.02 798.06 110.9 797.83 113.36 796.32 115.22 799 121.63 797.83 124.01 795.24 127.05 792.74 127.44 790.93 130.37 791.89 133.05 790.54 133.96 789.19 138.48 789.5 139.66 788.77 142.45 786.96 145.2 787.9 146.52 787.14 147.86 787.65 149.38 784.84 151.59 785.26 152.76 784.46 155.48 782.59 156.51 782.24 160.12 781.27 162.23 778.51 163.38 777.71 164.79 777.15 168.35 777.38 170.58 775.27 172.41 773.79 171.76 762.43 168.53 760.46 166.7 759.22 168.88 757.97 169.19 757.73 171.2 755.26 173.61 754.08 173.45 751.85 174.67 750.46 174.53 748.92 175.77 750.64 178.7 753.23 190.15 752.01 195.1 752.29 198.57 753.08 200.72 751.73 201.31 749.71 200.02 748.7 201.05 744.42 197.86 742.14 197.12 741.08 192.44 740.39 191.78 738.09 193.93 737.17 193.75 736.74 191.43 735.6 190.74 734.16 191.76 733.51 193.42 730.67 193.48 726.95 195.01 726.68 198.21 723.89 199.45 722.17 199.15 720.62 196.4 720.4 194.72 718.89 192.73 717.55 189.68 716.47 188.34 716.11 182.95 715.33 182 713.35 183.12 712.67 184.72 711.21 184.94 711.33 188.85 708.69 190.12 707.31 189.58 706.93 188.21 704.03 183.66 704.9 180.69 702.5 179.31 700.64 179.91 698.02 177.81 697.32 176.06 698.6 174.07 696.99 170.38 694.85 170.1 691.85 168.29 690.05 168.63 686.52 170.25 682.48 168.52 680.71 166.2 680.63 163.39 677.15 164.02 675.52 165.14 672.86 165.54 671.87 163.62 669.85 164.55 666.45 164.56 665.81 165.17 663.63 164.5 661.38 161.07 660.31 161.13 658.7 158.34 659.27 156.66 658.2 154.66 658.91 153.9 657.41 149.13 650.07 149.83 648.79 149.26 647.53 150.11 Z" id="CN-HL" data-name="Heilongjiang"/>
<path d="M 654.5 202.79 650.35 201 650.13 199.45 651.81 198.52 652.23 196.62 649.62 190.38 650.1 188.39 648.78 187.43 647.04 182.14 644.84 183.01 641.71 185.04 637.29 187.14 635.69 186.67 636.05 183.34 633.53 179.84 632.97 178.47 632.52 170.67 634.88 169.14 635.43 167.55 634.15 164.54 632.73 163.88 631.52 160.05 629.57 160.32 628.02 159.57 629.96 155.87 629.42 154.06 632.32 154.62 635.5 157.75 637.57 155.2 638.87 157.52 640.81 159.4 642.46 158.21 642.79 152.57 646.32 152.21 647.53 150.11 648.79 149.26 650.07 149.83 657.41 149.13 658.91 153.9 658.2 154.66 659.27 156.66 658.7 158.34 660.31 161.13 661.38 161.07 663.63 164.5 665.81 165.17 666.45 164.56 669.85 164.55 671.87 163.62 672.86 165.54 675.52 165.14 677.15 164.02 680.63 163.39 680.71 166.2 682.48 168.52 686.52 170.25 690.05 168.63 691.85 168.29 694.85 170.1 696.99 170.38 698.6 174.07 697.32 176.06 698.02 177.81 700.64 179.91 702.5 179.31 704.9 180.69 704.03 183.66 706.93 188.21 707.31 189.58 708.69 190.12 711.33 188.85 711.21 184.94 712.67 184.72 713.35 183.12 715.33 182 716.11 182.95 716.47 188.34 717.55 189.68 718.89 192.73 720.4 194.72 720.62 196.4 722.17 199.15 723.89 199.45 726.68 198.21 726.95 195.01 730.67 193.48 733.51 193.42 734.16 191.76 735.6 190.74 736.74 191.43 737.17 193.75 738.09 193.93 740.39 191.78 741.08 192.44 742.14 197.12 744.42 197.86 748.7 201.05 749.71 200.02 751.73 201.31 753.08 200.72 753.45 202.31 750.9 208.36 751.13 210.71 749.69 211.81 746.78 211.5 744.39 212.37 742.05 213.82 744.2 215.83 742.36 216.9 739.91 213.68 739.86 210.85 738.32 209.44 735.17 209.18 733.63 213.63 732.87 219.01 730.44 219.92 728.43 218.96 726.86 220.13 726.45 222.93 723.22 225.24 722.91 226.18 720.05 225.96 717.2 226.87 714.07 226.22 711.1 226.91 711.17 228.91 712.72 231.84 714.6 234.08 713.07 237.2 711.48 237.48 709.92 236.04 708.68 236.73 705.93 236.76 703.79 235.56 701.11 235.45 698.2 232.61 698.04 231.5 696.13 230.57 694.85 232.12 692.62 232.64 691.1 236.68 687.96 241.73 686.48 242.61 684.66 245.95 680.7 246.64 679.03 245.72 680.54 244.14 681.51 241.8 681.13 239.96 680 239.25 677.64 234.24 677.38 232.4 675.51 232.39 675.37 227.55 677.78 224.14 675.22 222.68 674.23 219.66 672.84 218.1 670.76 212.61 669.69 211.11 670.06 207.57 668.45 207.23 665.24 211.4 663.37 209.37 663.93 207.65 662.32 206.32 662.14 205.08 658.55 203.57 655.94 200.98 654.5 202.79 Z" id="CN-JL" data-name="Jilin"/>
<path d="M 596.25 239.48 597.96 237.71 598.32 236.02 597.13 230.7 598.01 225.03 596.44 223.43 597.62 221.71 600.58 220.26 601.45 222.39 603.95 223.13 603.78 224.69 606.68 229.24 608.12 230.49 610.72 227.4 612.4 226.13 612.93 224.19 614.47 223.98 618.19 221.58 619.78 222.23 624.14 217.99 626.43 217.37 627.76 218.81 630.78 217.29 631.31 215.4 632.96 214.08 636.28 215.58 637.93 214.06 637.16 212.69 638.59 211.79 641.87 213.72 644.02 213.65 647.13 212.2 647.79 210.11 653.4 207.66 654.5 202.79 655.94 200.98 658.55 203.57 662.14 205.08 662.32 206.32 663.93 207.65 663.37 209.37 665.24 211.4 668.45 207.23 670.06 207.57 669.69 211.11 670.76 212.61 672.84 218.1 674.23 219.66 675.22 222.68 677.78 224.14 675.37 227.55 675.51 232.39 677.38 232.4 677.64 234.24 680 239.25 681.13 239.96 681.51 241.8 680.54 244.14 679.03 245.72 680.7 246.64 678.47 249.01 676.25 250.3 670.15 253.1 667.76 256.06 666.85 256.34 663.14 259.84 663.06 261.37 661.1 263.42 658.28 264.58 653.54 263.54 653.14 265.02 650.77 264.81 648.67 265.63 647.69 267.03 645.54 266.78 637.55 271.34 633.88 274.88 634.04 275.87 629.92 278.71 627.8 278.35 627.87 280.64 625.66 281.44 623.83 281.36 621.33 282.82 620.51 279.95 628.12 276.78 627.18 274.54 629.5 272.01 626.49 272.17 625.02 269.69 623.32 269.81 623.32 268.18 625.2 267.89 625.29 265.63 626.32 263.71 629.43 262.7 633.57 257.48 633.76 256.07 635.13 254.86 636.31 252.77 634.17 250.69 633.02 248.59 630.43 247.1 626.83 246.94 624.04 245.25 621.62 245.55 619.21 247.12 618.55 249.53 617.05 249.83 616.7 251.1 614.38 253.25 611.97 258.04 605.64 260.39 604.33 261.59 602.87 259.66 602.93 257.86 601.52 257.79 600.81 254.98 600.59 252.13 597.07 252.29 595.71 250.75 594.12 250.22 591.34 247.3 592.78 242.92 595.37 241.16 596.25 239.48 Z" id="CN-LN" data-name="Liaoning"/>
<path d="M 417.4 520.71 421.66 515.65 423.42 516.36 425.32 515.35 426.17 510.66 425.7 509.18 423.26 507.55 420.88 508.51 417.54 507 416.43 508.26 412.82 506.41 412.9 504.37 411.39 502.64 410.09 502.85 407.37 502.1 407.06 503.6 405.37 503.05 404.1 500.53 404.6 498.18 407.07 499.77 408.99 497.99 410.76 497.38 411.91 495.13 413.29 494.42 414.38 495.43 416.4 495.57 417.24 497.1 419.41 497.49 420.88 498.56 422.56 498.37 423.66 499.52 425.94 497.6 425.68 495.04 427.65 494.74 431.31 492.97 432.34 491.97 435.2 491.64 436.63 490.79 436.98 487.29 439.88 486.42 441.88 488.89 443.2 491.39 445.06 490.62 446.82 492.27 447.94 492.37 451.42 490.6 451.46 488.9 453.56 486.7 457.15 488.48 458.8 485.79 459.84 486.95 463.1 485.89 464.72 483.64 466.7 483.75 467.99 480.05 468.74 479.46 470.65 479.26 472.85 481.36 474.68 477.39 476.64 477.85 479.05 480.34 480.29 478.39 482.15 477.53 483.36 474.93 485.27 476.04 487.29 476.03 488.03 474.47 492.16 475.96 491.51 481.04 492.22 481.92 494.2 481.36 494.24 482.89 493.1 483.94 492.99 487.22 491.02 489.21 490.36 491.03 488.79 492.3 488.28 494.11 489.9 495.27 490.51 493.83 492.45 492.35 494.44 492.94 495.62 499.61 497.58 497.64 500.95 497.71 501.87 498.27 501.05 500.2 502.54 503.35 501.61 504.85 500.21 505.49 500.6 508.93 499.22 510.95 497.45 511.06 496.72 513.68 495.02 514.31 493.61 519.15 494.24 522.27 493.46 524.32 491.24 526.58 489.74 526.69 489.18 528.13 485.67 528.96 484.21 534.55 480.47 535.72 480.47 538.69 477.69 538.57 475.4 539.01 474.75 541.53 472.54 543.1 468.5 544.78 465.58 545.31 464.55 542.71 462.39 542.66 460.89 541.56 459.54 542.05 457.19 539.76 455.58 541.94 451.5 543 449.62 544.35 446.41 541.94 444.69 542.67 441.23 542.76 440.25 541.09 438.94 541.14 436.97 538.65 433.07 537.03 432.29 533.99 430.52 531.11 431.07 529.04 432.52 528.97 433.24 527.33 432.35 524.9 430.01 524.08 427.76 525.09 426.29 523.77 423.64 523.37 421.74 524.37 419.61 522.4 417.8 522.17 417.4 520.71 Z" id="CN-GX" data-name="Guangxi"/>
<path d="M 472.54 543.1 474.75 541.53 475.4 539.01 477.69 538.57 480.47 538.69 480.47 535.72 484.21 534.55 485.67 528.96 489.18 528.13 489.74 526.69 491.24 526.58 493.46 524.32 494.24 522.27 493.61 519.15 495.02 514.31 496.72 513.68 497.45 511.06 499.22 510.95 500.6 508.93 500.21 505.49 501.61 504.85 502.54 503.35 501.05 500.2 501.87 498.27 503.81 497.44 503.5 495.2 504.71 491.59 510.57 492.84 512.46 495.29 514.82 494.99 514.56 491.87 513.89 489.79 517.8 487.18 520.47 488.94 522.56 489.78 525.77 489.33 527.07 488.01 528.17 488.2 529.51 490.03 531.65 490.27 533.61 488.91 537.23 490.3 536.92 492.12 533.4 494.76 531.95 497.94 530.52 498.85 533.55 501.66 534.51 500.85 537.67 499.85 539.26 500.39 541.67 498.69 546.54 497.57 550.26 501 551.48 500.61 550.83 498.1 551.33 496.47 552.63 495.67 555.6 496.68 558.96 496.75 561.01 500 563.82 499.2 563.87 500.91 565.61 503.17 566.73 506.16 566.17 507.69 567.62 512.53 569.43 514.27 566.07 513.96 565.41 516.63 563.64 519.37 561.06 521.47 560.55 523.88 558 523.54 556.33 524.94 553.55 525.78 551.62 525.73 548.67 524.71 547.89 526.67 545.93 527.35 544.26 525.35 541.91 525.91 539.31 528.65 537.71 528.54 537.36 525.98 533.17 528.49 530.12 529.23 526.58 530.76 524.68 526.4 523.61 525.88 522.95 523.09 519.76 524.71 520.7 526.71 522.78 529.03 522.09 530.97 522.63 533.78 521.28 534.95 518.91 534.55 517.97 536.53 515.34 537.68 514.41 538.88 512.7 537.61 510.34 539.25 509.85 540.29 507.7 539.54 506.66 540.88 505.11 541.26 504.17 539.74 501.81 540.45 497.88 542.7 497.1 543.73 492.8 544.16 491.57 543.7 487.17 545.77 486.14 545.5 484.13 547.93 482.11 548.11 477.87 551.34 477.87 553.26 480.87 553.58 480.23 554.97 481.16 556.92 482.8 558.42 481.05 560.89 477.49 561.62 476.18 560.89 476.03 559.25 473.51 557.89 472.51 556.31 472.87 553.64 471.41 552.16 471.53 549.43 472.87 548.14 473.26 544.53 472.54 543.1 Z" id="CN-GD" data-name="Guangdong"/>
<path d="M 489.01 569.45 485.71 572.95 484.94 573.14 483.18 578.13 481.9 580.53 481.4 583.3 479.36 583.47 477.18 585.24 476.51 587.29 472.52 587.22 471.62 589.29 470.19 590 468.52 588.69 465.63 588.46 462.79 587.61 460.12 585.97 458.8 585.72 458.79 582.76 457.92 581.16 458.27 579.99 457.76 577.5 457.98 574.95 462.01 571.8 462.99 570.59 464.82 569.92 464.96 567.77 466.75 566.15 468.85 567.37 469.66 565.74 472.16 564.92 477 565.37 477.88 564.13 479.23 564.61 480.82 563.94 483.4 565.35 484.18 563.56 486.11 564.92 488.02 565.14 489.01 569.45 Z" id="CN-HI" data-name="Hainan"/>
<path d="M 569.43 514.27 567.62 512.53 566.17 507.69 566.73 506.16 565.61 503.17 563.87 500.91 563.82 499.2 561.01 500 558.96 496.75 555.6 496.68 552.63 495.67 552.05 491.67 553.54 490.15 554.46 485.29 555.72 483.44 555.86 481.96 558.32 480.68 559.57 477.81 559.31 475.85 562.18 472.87 560.69 470 561.21 467.39 562.84 465.65 566.15 465.15 567.67 463.85 569.15 461.41 568.47 460.37 568.61 457.13 570.89 454.11 570.86 452.86 574.25 451.25 575.04 452.73 576.87 453.51 577.89 451.68 580.99 451.06 581.9 450.16 584.99 449.28 584.74 447.51 586.02 446.49 586.7 446.87 589.78 445.93 590.18 448.12 589.95 451.15 590.89 452.08 592.23 457.39 593.31 458.41 596.7 459.24 599.33 457.75 599.91 456.11 601.27 455.69 602.28 459.43 603.28 460.83 607.12 460.42 608.21 459.59 610.77 459.89 611.75 462.43 609.89 460.81 609.23 461.52 611.79 463.21 609.97 463.81 609.38 466.52 607.92 466.52 607.32 470.63 605.58 468.42 604.82 470.03 600.86 468.46 600.47 471.08 602.04 471.02 602.03 475.95 599.22 480.28 595.78 478.75 596.46 480.5 598.99 480.55 600.63 479.3 602.36 480.42 601.28 481.58 600.52 486.34 601.67 488.81 599.54 489.12 599.82 487.63 598.01 486.96 594.67 488.61 597 489.78 597.01 491.75 593.07 491.27 591.65 493.89 593.2 495.14 589.53 496.72 589.94 498.49 587.64 500.66 585.78 499.77 584.78 500.47 581.9 499.93 580.78 500.56 580.05 503.16 581.84 505.06 580.05 506.04 578.81 508.4 574.74 510.38 573.19 511.82 570.96 512.19 569.43 514.27 Z" id="CN-FJ" data-name="Fujian"/>
<path d="M 611.75 462.43 610.77 459.89 608.21 459.59 607.12 460.42 603.28 460.83 602.28 459.43 601.27 455.69 599.91 456.11 599.33 457.75 596.7 459.24 593.31 458.41 592.23 457.39 590.89 452.08 589.95 451.15 590.18 448.12 589.78 445.93 586.7 446.87 586.02 446.49 586.41 445.84 585.74 440.45 583.18 436.59 581.03 435.16 580.2 433.77 580.87 431.81 582.47 429.82 585.06 429.15 587.46 426.57 589.63 424.99 589.86 423.52 591.85 421.2 591.32 418.54 592.39 415.62 595.99 416.2 597.97 414.83 596.39 412.62 597.81 410.73 599.02 411.28 600.74 408.13 601.45 403.78 602.89 403.12 605.4 403.52 605.54 404.48 607.96 406.67 611 406.73 613.82 408.15 615.54 407.46 615.31 406.16 618.15 405.62 619.08 408.36 620.69 408.32 622.91 410.49 619.04 412.73 618.54 414.57 615.86 417.44 617.93 418.38 621.28 416.02 624.25 416.03 625.94 417.62 628.17 420.93 631.26 422.16 632.15 423.6 628.51 427.37 625.31 428.07 625.4 429.63 631.28 426.33 631.94 426.91 631.15 431.67 630.3 433.51 627.35 432.84 628.22 435.52 628.07 438.52 625.98 441.02 627.89 445.74 624.66 446.25 623.08 448.08 622.42 446.23 619.45 449.23 618.88 450.94 617.18 451.4 616.82 453.19 614.98 456.28 615.11 458.2 613.41 459.54 613.04 462.5 611.75 462.43 Z M 636.65 420.57 634.78 421.02 632.53 420.45 633.52 418.71 636.65 420.57 Z" fill-rule="evenodd" id="CN-ZJ" data-name="Zhejiang"/>
<path d="M 622.91 410.49 620.69 408.32 619.08 408.36 618.15 405.62 617.8 403.67 619.78 403.61 620.98 401.58 621.77 398.83 623.78 398.31 628.79 401.51 630.77 404.29 632.08 407.1 631.17 407.97 627.56 408.29 624.69 409.34 622.91 410.49 Z M 630.34 396.52 632.12 397.56 630.44 399.11 623.43 395.8 621.63 393.82 622.77 392.95 625.53 394.03 627.98 395.84 630.34 396.52 Z" fill-rule="evenodd" id="CN-SH" data-name="Shanghai"/>
<path d="M 618.15 405.62 615.31 406.16 615.54 407.46 613.82 408.15 611 406.73 607.96 406.67 605.54 404.48 605.4 403.52 602.89 403.12 601.45 403.78 597.97 402.87 597.37 401.74 595.36 401.42 594.21 402.16 590.84 402.36 589.99 400.35 591.68 397.83 591.42 396.23 586.41 393.73 586.47 392.68 584.78 391.33 585.19 389.68 586.9 387.43 588.68 386.85 588.91 383.52 587.39 381.65 590 381.06 591.82 381.32 594.29 383.63 595.84 381.35 595.72 379.53 593.15 375.64 591.38 375.48 589.95 377.56 589.59 379.21 585.4 379.23 584.1 378.51 583.31 376.23 583.04 372.25 581.25 372.72 579.3 371.39 582.5 364.24 581.81 363.09 576.96 363.74 576.87 361.26 575.64 359.69 573.71 358.63 569.23 357.98 567.59 356.96 566.49 353.28 564.57 353.11 562.25 351.76 559.69 349.31 559.02 349.32 559.58 346.23 560.23 345.21 564.9 344.25 566.38 345.5 567.94 348.21 569.52 352.31 571.54 350.12 573.27 351.92 574.85 351.97 577.24 351.1 577.45 349.13 580.85 349.13 582.35 353.12 585.29 352.41 586.42 348.53 589.07 348.61 590.1 347.59 591.5 343.01 594.23 342.8 595.53 341.9 596.89 342.37 595.75 343.58 595.87 347.01 597.76 347.07 601.6 350.73 605.5 352.19 609.64 354.5 611.13 358.85 611.59 361.62 612.78 363.29 612.96 364.8 614.47 367.6 615.81 371.86 617.97 374.84 618.13 377.47 617.52 379.4 618.17 380.79 620.9 382.69 623.95 384.12 625.11 388.75 627.88 389.54 630.05 391.24 631.36 394.28 629.99 395.25 628.14 394.75 623.07 392.19 620.83 393.64 619.04 393.36 616.86 390.16 616.07 390.84 617.96 394.14 621.21 395.35 623.78 398.31 621.77 398.83 620.98 401.58 619.78 403.61 617.8 403.67 618.15 405.62 Z" id="CN-JS" data-name="Jiangsu"/>
<path d="M 596.89 342.37 595.53 341.9 594.23 342.8 591.5 343.01 590.1 347.59 589.07 348.61 586.42 348.53 585.29 352.41 582.35 353.12 580.85 349.13 577.45 349.13 577.24 351.1 574.85 351.97 573.27 351.92 571.54 350.12 569.52 352.31 567.94 348.21 566.38 345.5 564.9 344.25 560.23 345.21 559.58 346.23 559.02 349.32 556.08 350.47 554.67 349.94 551.71 350.39 550.28 349.94 548.12 350.3 546.74 348.74 546.66 347.09 543.87 346.2 543.33 344.48 541.03 343.47 538.89 343.33 539.29 340.58 540.3 340.1 541.95 337.53 544.01 336.95 545.56 335.67 546.21 333.75 547.63 332.03 549.6 331.66 553.65 327.8 551.87 327.07 550.69 328.08 547.16 328.98 546.59 327.66 547.06 325.03 546.91 323.55 544.65 319.91 545.51 317.87 547.29 315.37 549.23 314.72 552.17 310.42 553.78 306.09 557.44 305.01 556.97 303.78 558.67 301.17 559.46 303.41 562.04 300.87 563.81 298.23 565.05 297.67 572.63 297.45 574.57 294.11 576.11 293.71 578.07 290.43 581.3 292.62 583.01 292.52 587.28 293.79 588.74 292.5 591.15 292.39 593.19 295.53 596.41 298.73 593.72 299.51 592.93 301.34 592.52 305.16 592.88 306.76 595.14 308.43 598.99 309.38 603.29 308.87 604.94 307.27 604.44 305.46 607.06 304.14 610.17 301.55 610.28 300.44 612.33 299.08 615.91 297.66 618.36 297.9 619.75 299.7 621.13 299.85 621.83 301.93 624.31 302.08 625.55 303.69 634.07 303.43 636.24 304.51 640.93 305.06 639.54 306.27 640.24 307.92 638.21 308.94 638.23 310.42 639.23 312.26 636.55 314.24 635.13 312.68 632.89 311.6 629.58 313.13 626.64 315.14 624.66 315.36 621.39 316.75 618.29 318.62 618.68 320.15 616.08 320.15 614.73 322.23 615.37 325.25 610.9 326.92 611 324.48 609.85 323.79 607.66 324.33 607.59 326.02 609.45 328 606.79 330.1 606.32 331.95 604.98 331.82 603.83 333.24 601.69 334.26 600.43 337.53 598.77 338.59 597.91 342.04 596.89 342.37 Z" id="CN-SD" data-name="Shandong"/>
<path d="M 530.02 248.65 528.8 247.42 528.25 245.53 526.45 242.49 527.81 240.04 526.82 239.12 527.07 236.96 528.37 234.99 530.58 233.91 531.35 229.25 533.49 227.57 534.29 225.48 535.79 224.32 538.51 223.66 540.02 227.91 539.44 230.1 539.61 233.62 542.33 233.51 544 234.04 545.59 233.38 545.49 231.69 547.94 230.79 552.26 228.07 553.28 228.07 554.6 230.29 556.8 228.83 559.03 226.63 561.93 228.14 565.3 226.46 565.57 222.93 564.88 221.38 565.67 219.84 567.88 218.65 570.33 218.3 572.53 218.73 573.02 217.12 577.59 216.77 580.51 220.06 581.94 226.41 583.69 225.5 584.4 229.19 583.82 231.13 582.27 231.72 583.38 233.93 584.28 234.33 585.02 238.77 586.43 238.06 595.23 238.8 596.25 239.48 595.37 241.16 592.78 242.92 591.34 247.3 594.12 250.22 595.71 250.75 597.07 252.29 600.59 252.13 600.81 254.98 601.52 257.79 602.93 257.86 602.87 259.66 604.33 261.59 600.23 263.21 597.67 266.19 596.66 269.24 597.22 270.97 595.65 272.29 592.46 275.92 588.27 275.55 584.68 277.74 583.26 277.36 582.03 275.35 580.32 274.58 580.3 272.49 578.85 271.55 578.79 268.74 575.38 268.55 575.27 267.02 574.1 265.6 573.69 261.55 577.13 261.97 576.93 260.28 573.03 257.49 571.8 256.97 570.42 255.59 570.32 251.61 572.52 251.14 572.74 249.91 567.9 249.77 565.98 248.53 562.92 245.24 562.62 243.67 559.82 245.94 560.09 247.8 556.81 248.51 555.8 250.1 554.03 251.17 552.46 250.92 550.56 252.14 553.39 256.35 551.75 258.77 548.59 259.72 546.63 261.99 547.72 264.1 546.76 265.62 547.1 267.41 549.12 268.08 550.92 269.69 553.39 268.56 556.85 268.62 559.15 270.81 559.69 269.47 561.99 267.96 564.45 268.11 564.42 269.96 565.24 272.51 564.88 274.62 565.74 276.53 563.39 278.06 563.37 281.26 565.59 283.29 567.42 283.14 568.39 284.75 570.69 285.63 574.24 284.59 576.49 288.64 578.07 290.43 576.11 293.71 574.57 294.11 572.63 297.45 565.05 297.67 563.81 298.23 562.04 300.87 559.46 303.41 558.67 301.17 556.97 303.78 557.44 305.01 553.78 306.09 552.17 310.42 549.23 314.72 547.29 315.37 545.51 317.87 544.65 319.91 546.91 323.55 547.06 325.03 545.62 326.25 544.26 324.97 542.44 324.6 541.5 325.95 537.24 325.11 535.16 325.33 532.49 323.62 530.05 323.59 527.87 321.77 524.37 321.83 521.95 319.76 520.95 317.28 520.89 315.65 522.89 315.12 523.83 313.45 525.09 313.14 524.81 309.47 528.7 303.15 529.32 299.9 528.35 299.03 526.59 295.75 525.28 292.38 522.24 290.88 521.72 288.65 521.94 285.99 525.73 281.43 524.88 279.78 526.1 277.04 528.18 276.26 530.83 277.1 533.15 275.41 533.49 273.21 535.07 269.31 533.26 267.16 533 263.72 529.13 262.77 527.17 261.09 527.96 259.11 529.12 258.2 533.88 256.35 533.67 255.2 531.74 254.9 531.37 251.96 529.99 249.83 530.02 248.65 Z M 570.27 259.78 569.07 262.24 569.79 265.41 569.14 267.83 565.52 266.68 566.13 265.2 563.81 262.05 564.92 260.73 566.99 260.77 570.27 259.78 Z" fill-rule="evenodd" id="CN-HE" data-name="Hebei"/>
<path d="M 571.8 256.97 573.03 257.49 576.93 260.28 577.13 261.97 573.69 261.55 574.1 265.6 575.27 267.02 575.38 268.55 578.79 268.74 578.85 271.55 580.3 272.49 580.32 274.58 578.7 274.88 576.52 276.69 576.39 278.57 574.77 281.41 574.24 284.59 570.69 285.63 568.39 284.75 567.42 283.14 565.59 283.29 563.37 281.26 563.39 278.06 565.74 276.53 564.88 274.62 565.24 272.51 564.42 269.96 564.45 268.11 565.52 266.68 569.14 267.83 569.79 265.41 569.07 262.24 570.27 259.78 571.2 259.47 571.8 256.97 Z" id="CN-TJ" data-name="Tianjin"/>
<path d="M 564.45 268.11 561.99 267.96 559.69 269.47 559.15 270.81 556.85 268.62 553.39 268.56 550.92 269.69 549.12 268.08 547.1 267.41 546.76 265.62 547.72 264.1 546.63 261.99 548.59 259.72 551.75 258.77 553.39 256.35 550.56 252.14 552.46 250.92 554.03 251.17 555.8 250.1 556.81 248.51 560.09 247.8 559.82 245.94 562.62 243.67 562.92 245.24 565.98 248.53 567.9 249.77 572.74 249.91 572.52 251.14 570.32 251.61 570.42 255.59 571.8 256.97 571.2 259.47 570.27 259.78 566.99 260.77 564.92 260.73 563.81 262.05 566.13 265.2 565.52 266.68 564.45 268.11 Z" id="CN-BJ" data-name="Beijing"/>
<path d="M 333.75 432.58 333.14 431.31 332.88 427.51 332.15 426.18 333.06 422.21 332.15 418.76 331.81 413.99 331.09 410.91 331.73 409.63 329.39 407.29 329.76 405.94 327.37 402.94 329.3 402.29 330.83 400.41 327.01 396.66 325.09 393.53 325.19 390.75 322.15 386.63 321.97 385.03 319.47 383.35 315.57 382.12 311.85 379.7 310.95 376.65 312.81 374.34 312.77 372.02 315.69 368.72 313.27 367.98 311.33 365.51 311.24 361.46 314.2 360.5 316.92 361.55 319.74 360.04 322.05 360.36 323.22 361.83 325.26 361.92 327.71 364.5 327.54 365.57 328.88 367.41 329.36 370.33 330.4 372.33 335.27 375.07 336.1 376.8 338.97 377.61 341.44 379.01 342.36 376.26 343.3 375.72 345.98 376.05 347.44 378.43 346.93 380.16 350.58 378.8 352.69 381.82 354.47 379.93 357.14 380.78 360.65 379.89 361.44 377.26 360.13 376.01 360.56 373.06 364.23 371.38 366.82 373.06 367.9 370.88 367.1 370.06 368.56 366.78 369.95 366.53 370.46 368.72 369.27 370.86 369.69 373.14 375.1 369.16 377.75 367.8 377.75 366.63 376.11 365.54 375.94 363.73 373.7 360.33 377.21 358.47 379.52 358.1 379.26 356.81 381.66 355.09 383.6 354.76 386.08 356.76 386.91 362.21 389.08 363.25 394.23 364.5 398.77 364.62 399.59 365.31 399.83 367.41 401.38 369.38 401.84 372.87 402.85 374.06 401.32 377.41 402.85 378.01 404.84 379.89 409.27 381.07 412.52 381.12 414.12 380.61 416.28 378.57 417.1 376.49 418.01 379.23 418.86 379.59 421.21 378.74 422.02 377.46 424.72 377.01 424.38 379.5 426.63 381.38 431.53 380.08 432.94 379.12 437.54 379.58 437.6 382.45 440.4 383.53 442.54 382.46 442.69 384.21 445.29 384.52 449.22 388.07 450.41 387.02 452.83 386.47 455.99 386.66 456.5 387.47 454.81 387.67 453.23 390.93 453.48 391.71 456.27 393.72 456.47 394.99 455.04 397.17 452.65 398.67 452.27 400.76 450.17 402.42 449.83 405.21 448.82 407.74 447.78 408.7 446.3 407.58 443.31 408.51 442.65 409.44 442.92 411.73 441.55 413.39 439.68 417.35 437.12 420.06 433 420.04 431.71 416.88 430.59 415.84 426.76 417.62 425.27 415.77 420.93 414.55 419.85 416.8 417.87 418.71 420.24 420.44 419.86 422.93 417.87 423.89 414.4 427.17 414.71 428.9 416.11 430.94 419.74 432.58 420.32 436 422.05 437.11 423.76 436.31 427.04 437.86 427.53 440.79 428.64 442.28 426.11 442.1 423.44 439.59 422.24 441.73 419.51 442.11 418.7 443.61 419.3 446.05 421.65 446.77 422.42 448.53 425.07 448.17 427.55 450.75 428.15 453.19 426.88 454.07 425 453.88 419.04 455.5 417.44 454.08 414.47 454.86 413.58 452.88 414.28 450.74 411.33 449.45 410.16 450.05 409.26 452.21 405.44 453.03 402.45 451.32 401.91 450.06 403.36 449.28 402.47 446.58 401.06 445.82 400.82 442.9 402.96 441.27 395.42 441.8 394.88 442.89 395.99 445.94 393.76 447.56 391.97 447.16 390.18 449.75 391.22 451.18 391.14 452.75 389.92 454.55 387.36 457.14 386.08 459.41 384.21 459.75 383.07 461.18 383.22 466.56 384.19 467.92 385.27 471.92 384.55 474.21 382.92 474.72 380.86 476.57 379.42 476.25 378.88 474.52 374.75 476.7 372.93 478.8 370.44 478.59 369.5 479.52 368.38 477.46 365.98 475.57 366.82 474.95 365.52 472.83 363.8 471.74 364.98 468.87 363.25 468.75 362.89 467.34 360.26 464.8 360.67 462.66 358.47 462.56 358.31 460.61 356.68 458.2 356.75 457.21 353.99 452.6 352.32 453.47 349.23 452.93 348.01 452.25 346.14 449.78 345.98 447.99 347.49 447.26 347.24 445.7 345.39 444 343.13 440.79 340.53 438.68 338.89 442.18 337.46 442.72 337.3 448.03 334.45 444.27 334.54 441.83 333.86 440.25 333.75 432.58 Z" id="CN-SC" data-name="Sichuan"/>
<path d="M 428.64 442.28 427.53 440.79 427.04 437.86 423.76 436.31 422.05 437.11 420.32 436 419.74 432.58 416.11 430.94 414.71 428.9 414.4 427.17 417.87 423.89 419.86 422.93 420.24 420.44 417.87 418.71 419.85 416.8 420.93 414.55 425.27 415.77 426.76 417.62 430.59 415.84 431.71 416.88 433 420.04 437.12 420.06 439.68 417.35 441.55 413.39 442.92 411.73 442.65 409.44 443.31 408.51 446.3 407.58 447.78 408.7 448.82 407.74 449.83 405.21 450.17 402.42 452.27 400.76 452.65 398.67 455.04 397.17 456.47 394.99 456.27 393.72 453.48 391.71 453.23 390.93 454.81 387.67 456.5 387.47 460.03 389.81 463.51 391.42 467.17 395.03 470.53 394.54 472.23 396.09 472.34 397.24 474.91 397.89 477.24 399.74 478.11 402.93 477.23 403.94 477.49 407.23 476.69 408.41 474.14 407.5 472.55 408.3 471.13 410.09 467.93 412.12 465.12 412.38 462.32 411.76 461.07 412.61 455.39 413.58 454.7 414.91 456.68 416.18 456.76 422.66 454.96 423.48 456.42 425.12 457.73 423.07 458.82 425.47 461.11 426.36 461.75 430.71 462.97 431.33 465.48 434.36 466.37 435.18 465.56 441.44 466.15 443.27 464.81 444.31 464.02 447.72 462.04 447.8 459.24 447.17 459.96 444.45 459.26 443.72 457.34 445.22 457.34 441.85 454.05 440.54 454.53 439.24 453.47 434.77 450.45 434.96 448.11 436.15 446.91 433.87 442.31 433.19 442.22 434.77 443.21 436.02 442.39 437.75 440.57 438.77 438.79 437.69 437.09 437.59 434.54 439.93 434.46 441.74 433.43 443.32 430.98 443.19 428.64 442.28 Z" id="CN-CQ" data-name="Chongqing"/>
<path d="M 404.6 498.18 404.67 497.15 406.78 494.22 406.94 491.43 404.94 488.98 404.78 487.49 401.55 484.88 403.04 482.1 402.68 480.78 404.06 479.58 404.67 476.1 406.37 474.51 404.85 471.52 402.23 470.6 399.56 470.55 397.82 472.55 395.33 472.07 394.4 470.87 393.87 468.39 394.66 466.1 393.58 463.23 396.4 459.73 397.31 459.6 399.83 461.48 402.05 458.99 403.34 460.37 405.31 460.86 408.92 460.92 411.68 459.41 413.18 459.61 414.47 454.86 417.44 454.08 419.04 455.5 425 453.88 426.88 454.07 428.15 453.19 427.55 450.75 425.07 448.17 422.42 448.53 421.65 446.77 419.3 446.05 418.7 443.61 419.51 442.11 422.24 441.73 423.44 439.59 426.11 442.1 428.64 442.28 430.98 443.19 433.43 443.32 434.46 441.74 434.54 439.93 437.09 437.59 438.79 437.69 440.57 438.77 442.39 437.75 443.21 436.02 442.22 434.77 442.31 433.19 446.91 433.87 448.11 436.15 450.45 434.96 453.47 434.77 454.53 439.24 454.05 440.54 457.34 441.85 457.34 445.22 459.26 443.72 459.96 444.45 459.24 447.17 462.04 447.8 464.02 447.72 464.81 444.31 466.15 443.27 466.22 445.99 467.4 446.83 466.68 449.36 467.06 453.59 468.62 455.91 468.24 457.25 465.48 458.93 460.06 464.24 462.13 465.06 464.03 463.49 468.5 463.54 469.4 465.8 469.37 468.02 466.62 469.44 468.03 472.21 466.89 473.84 466.65 475.48 467.99 476.1 468.74 479.46 467.99 480.05 466.7 483.75 464.72 483.64 463.1 485.89 459.84 486.95 458.8 485.79 457.15 488.48 453.56 486.7 451.46 488.9 451.42 490.6 447.94 492.37 446.82 492.27 445.06 490.62 443.2 491.39 441.88 488.89 439.88 486.42 436.98 487.29 436.63 490.79 435.2 491.64 432.34 491.97 431.31 492.97 427.65 494.74 425.68 495.04 425.94 497.6 423.66 499.52 422.56 498.37 420.88 498.56 419.41 497.49 417.24 497.1 416.4 495.57 414.38 495.43 413.29 494.42 411.91 495.13 410.76 497.38 408.99 497.99 407.07 499.77 404.6 498.18 Z" id="CN-GZ" data-name="Guizhou"/>
<path d="M 501.87 498.27 500.95 497.71 497.58 497.64 495.62 499.61 494.44 492.94 492.45 492.35 490.51 493.83 489.9 495.27 488.28 494.11 488.79 492.3 490.36 491.03 491.02 489.21 492.99 487.22 493.1 483.94 494.24 482.89 494.2 481.36 492.22 481.92 491.51 481.04 492.16 475.96 488.03 474.47 487.29 476.03 485.27 476.04 483.36 474.93 482.15 477.53 480.29 478.39 479.05 480.34 476.64 477.85 474.68 477.39 472.85 481.36 470.65 479.26 468.74 479.46 467.99 476.1 466.65 475.48 466.89 473.84 468.03 472.21 466.62 469.44 469.37 468.02 469.4 465.8 468.5 463.54 464.03 463.49 462.13 465.06 460.06 464.24 465.48 458.93 468.24 457.25 468.62 455.91 467.06 453.59 466.68 449.36 467.4 446.83 466.22 445.99 466.15 443.27 465.56 441.44 466.37 435.18 465.48 434.36 467.19 431.59 468.42 427.94 471.91 426.11 473 424.92 477.18 424.16 480.55 426.19 483.54 424.37 482.36 423 481.87 420.73 482.92 420.11 485.16 420.49 485.51 419.49 492.09 420.46 494.29 422.05 498.9 422.15 500.92 423.1 504.14 426.21 506.66 427.36 507.71 426.33 510.37 426.54 513.48 424.07 514.26 425.31 513.77 426.93 516.87 428.86 520.39 424.48 521.96 425.66 523.24 425.67 524.48 429.39 522.63 431.53 523.51 434.07 526.74 434.93 526.77 436.57 528.17 437.22 529.87 439.07 529.48 441.64 530.97 444.7 530.42 446.42 529.21 446.94 528.19 449.18 526.92 450.44 524.58 451.03 524.11 453.43 522.3 456.79 522.79 460.06 523.67 460.63 526.07 460.39 524.8 463.38 526.61 466.25 525.81 467.98 526.25 470.48 529.12 471.63 528.9 473.43 527.22 476.98 530.8 477.56 528.55 479.03 528.25 480.97 526.8 483.65 527.78 486.08 527.07 488.01 525.77 489.33 522.56 489.78 520.47 488.94 517.8 487.18 513.89 489.79 514.56 491.87 514.82 494.99 512.46 495.29 510.57 492.84 504.71 491.59 503.5 495.2 503.81 497.44 501.87 498.27 Z" id="CN-HN" data-name="Hunan"/>
<path d="M 402.23 304.78 403.1 303.19 409.87 302.41 411.71 300.52 415.22 299 419.19 299.21 420.88 298.14 421.36 294.83 420.46 292.67 421.4 291.16 421.57 285.43 422.3 282.67 424.43 278.61 425.12 276.23 427.34 275.63 427.24 273.73 430.13 273.45 431.66 272.23 433.94 272.18 434.19 274.91 436.4 277.66 435.8 279.58 432.84 284.33 432.06 287.29 429.78 290.1 434.46 292.43 437.49 293.01 438.81 292.62 440.92 293.83 441.97 296.21 445.27 297.35 444.61 298.79 443.34 298.81 442.38 300.47 440.83 301.68 439.8 306.42 440.93 308.68 440.42 310.23 439.14 309.44 435.82 309.6 433.96 308.25 432.05 308.38 431.92 311.39 431.14 312.47 432.11 314.06 431.5 315.82 430.2 316.14 430.12 323.24 431.52 323.09 434.26 324.16 435.97 326.33 435.56 330.97 433.65 332.29 429.77 331.96 430.1 334.76 429.71 338.29 427.73 339.23 426.39 337.29 422.81 335.21 421.42 335.71 419.56 333.03 416.23 331.49 414.75 328.65 415.19 326.64 416.31 325.85 416.42 323.46 415.72 321.36 414.11 318.67 413.48 316.36 414.8 314.93 412.95 311.81 409.59 309.77 408.71 307.79 407.53 307.26 406.55 304.61 403.61 304.14 402.23 304.78 Z" id="CN-NX" data-name="Ningxia"/>
<path d="M 445.27 297.35 448.24 298.19 450.24 300.98 454.08 300.96 456.21 300.39 459.71 300.17 460.05 295.88 462.19 296.15 463.15 293.08 462.18 291.62 462.6 289.36 464.87 285.91 466.87 284.61 468.31 282.12 469.8 281.85 471.58 278.07 473.49 277.34 475.35 275.21 478.14 273.46 477.25 271.05 478.77 271.12 480.24 272.91 482.27 271.96 483.7 273.76 484.76 273.81 486.86 270.42 489.04 268.74 490.66 268.74 489.41 271.14 490.31 271.77 491.81 273.03 490.41 277.12 488.81 278.19 488.62 281.33 487.2 284.59 487.56 285.86 484.58 289.66 482.5 291.57 482.55 295.66 485.65 299.12 486.12 302.15 484.05 304.86 484.5 306.74 481.83 310.52 480.91 310.99 481.01 314.92 482.13 317.98 481.66 325.28 482.49 329.4 483.14 330 483.91 334.05 480.2 340.43 479.22 344.47 479.12 348.94 480.21 349.69 480.1 351.84 482.07 354.27 481.49 355.29 483.74 356.73 484.21 359.72 483.57 361.3 485.6 362.51 486.16 364.04 488.46 365.71 489.08 369.21 488.54 370.9 485.11 373.37 482.97 371.23 481.47 372.36 478.89 372.62 477.06 371.73 471.39 370.94 469.51 371.36 469.19 372.79 472.66 373.8 472.43 376.14 474.51 376.38 477.08 377.51 478.02 380.91 475.84 382 474.26 381.38 471.06 381.4 470.11 384.27 469.14 385.34 470.86 387.6 471.48 389.85 470.74 391.63 470.53 394.54 467.17 395.03 463.51 391.42 460.03 389.81 456.5 387.47 455.99 386.66 452.83 386.47 450.41 387.02 449.22 388.07 445.29 384.52 442.69 384.21 442.54 382.46 440.4 383.53 437.6 382.45 437.54 379.58 432.94 379.12 431.53 380.08 426.63 381.38 424.38 379.5 424.72 377.01 422.02 377.46 421.21 378.74 418.86 379.59 418.01 379.23 417.1 376.49 418.94 376.83 422.17 375.39 422.51 371.41 420.35 370.47 421.46 367.29 424.6 365.41 425.87 366.28 428.77 365.39 429.93 364.11 429.91 361.48 429.26 360.32 430.35 357.73 432.2 355.41 432.43 353.35 430.15 351.21 428.45 351.21 427.79 350.21 430.06 347.71 430.82 345.78 430.05 343.11 431.01 342.32 435.58 342.17 437.36 342.98 439.44 345.31 440.88 344.51 443.17 344.77 444.12 344.14 447.52 343.96 445.44 339.96 446.37 338.51 449.46 340.03 451.76 338.96 453.35 339.4 456.16 339.25 457.79 337.32 457.61 334.84 456.39 332.39 456.17 329.49 458.57 327.49 458.87 325.55 458.22 323.92 458.92 321.77 457.65 320.59 455.49 320.12 454.39 318.74 450.28 317.9 448.26 315.34 443.23 313.13 440.6 312.87 440.42 310.23 440.93 308.68 439.8 306.42 440.83 301.68 442.38 300.47 443.34 298.81 444.61 298.79 445.27 297.35 Z" id="CN-SN" data-name="Shaanxi"/>
<path d="M 210.71 326.25 213.18 326.52 214.55 325.88 215.1 323.49 217.08 325.49 223.04 325.78 225.74 327.41 229.42 326.38 229.73 325.31 228.05 319.43 225.42 318.54 223.89 316.27 224.21 314.26 225.46 312.81 228.68 312.25 231.71 311.13 232.09 309.41 231.03 308.16 228.93 303.36 225.8 301.39 220.61 298.58 220.65 294.98 217.44 289.52 216.89 287.73 218.99 287.18 223.21 284.54 223.44 283.71 228.13 283.3 231.8 282.52 234.38 281.32 236.16 281.18 242.61 279.25 245.35 277.42 253.22 275.69 255.88 274.92 257.65 275.08 260.6 273.68 263.47 273.1 265.91 273.45 268.63 272.84 273.35 272.91 275.33 273.29 276.55 274.28 280.89 275.78 284.13 275.18 286.16 277.47 287.53 278 289.56 280.36 293.29 282.41 293.91 283.63 297.31 284.5 299.75 285.8 299.85 287.11 304.22 289 305.52 288.97 305.86 285.49 306.12 278.31 305.75 276.52 306.58 274.96 308.03 274.84 310.97 275.73 320.18 281.58 322.71 279.4 323.51 277.87 325.08 278.97 327.14 279.13 329.48 277.12 331.83 278.56 338.8 284.93 339.6 286.36 342.76 288.85 346.4 290.3 347.21 286.85 350.04 289.83 352.6 290.74 353.67 293.17 359.07 295.52 362.24 298.24 366.85 301.32 368.41 302.75 370.64 299.36 372.34 302.37 371.89 303.51 377.03 306.8 378.65 308.68 377.47 312.08 380.27 314.59 379.43 316.94 381.51 319.53 382.14 322.31 385.04 324.08 383.64 326.19 384.5 327.72 384.2 330.26 380.6 330.16 380.62 335.22 378.44 335.04 377.03 336.64 375.24 337.1 376.36 340.34 374.95 342.7 371.59 344.51 370.46 346.97 368.27 348.3 368.77 349.44 373.42 351.6 374.23 353.87 371.62 356.62 369.67 357.19 368.6 358.35 366.4 356.4 358.89 354.07 357.57 353.32 356.01 354.77 355.7 356.97 357.74 360.52 360.11 361.76 360.51 364.68 363.63 364.98 364.88 364.05 366.42 367.07 368.56 366.78 367.1 370.06 367.9 370.88 366.82 373.06 364.23 371.38 360.56 373.06 360.13 376.01 361.44 377.26 360.65 379.89 357.14 380.78 354.47 379.93 352.69 381.82 350.58 378.8 346.93 380.16 347.44 378.43 345.98 376.05 343.3 375.72 342.36 376.26 341.44 379.01 338.97 377.61 336.1 376.8 335.27 375.07 330.4 372.33 329.36 370.33 328.88 367.41 327.54 365.57 327.71 364.5 325.26 361.92 323.22 361.83 322.05 360.36 319.74 360.04 316.92 361.55 314.2 360.5 311.24 361.46 311.33 365.51 313.27 367.98 315.69 368.72 312.77 372.02 312.81 374.34 310.95 376.65 311.85 379.7 315.57 382.12 313.57 383.04 310.94 382.8 311.37 384.58 310.93 386.5 309.56 387.37 309.56 389.34 307.85 390.37 306.47 390.16 303.03 390.91 303.57 394.88 299.49 394.3 296.82 391.91 295.57 392.49 294.42 395.11 291.22 394.9 287.88 394.17 286.63 394.48 285.45 393.42 284.77 391.21 285.69 389.05 283.52 386.75 280.95 386.49 279.51 385.32 279.35 383.91 274.69 380.14 271.23 382.17 268.54 383.14 265.5 382.87 263.63 381.68 260.71 382.55 256.9 380.33 254.46 380.27 254.13 379.17 249.49 379.08 247.09 378.63 243.9 379.01 243.57 377.09 240.71 377.4 238.57 375.54 235.04 373.8 232.87 370.83 232.68 369.8 230.43 369.8 229.63 371.09 227.31 371.32 225.41 372.86 223.53 372.62 220.61 370.65 219.13 370.55 217.6 368.79 216.75 366.03 214.59 365.21 213.32 362.2 211.55 360.83 210.18 357.94 212.13 356.29 212.83 353.37 211.32 347.73 212.64 346.04 212.15 344.76 209.49 344.53 209.33 342.42 207.81 340.2 208.19 338.13 211.4 336.51 210.88 335.47 212.16 330.36 209.46 330.15 208.19 329.5 207.55 327.77 208.59 326.72 210.71 326.25 Z" id="CN-QH" data-name="Qinghai"/>
<path d="M 490.31 271.77 493.34 270.78 495.27 267.26 498.8 268.18 500.89 266.64 503.21 261.26 505.56 257.45 507.13 256.44 511.5 258.41 512.93 257.51 514.46 255.28 517.96 254.24 519.32 255.92 521.73 255.49 523.79 254.04 528.58 253.02 528.36 250.49 530.02 248.65 529.99 249.83 531.37 251.96 531.74 254.9 533.67 255.2 533.88 256.35 529.12 258.2 527.96 259.11 527.17 261.09 529.13 262.77 533 263.72 533.26 267.16 535.07 269.31 533.49 273.21 533.15 275.41 530.83 277.1 528.18 276.26 526.1 277.04 524.88 279.78 525.73 281.43 521.94 285.99 521.72 288.65 522.24 290.88 525.28 292.38 526.59 295.75 528.35 299.03 529.32 299.9 528.7 303.15 524.81 309.47 525.09 313.14 523.83 313.45 522.89 315.12 520.89 315.65 520.95 317.28 521.95 319.76 524.37 321.83 523.74 324 523.93 326.68 523.15 328.33 522.59 332.61 521.37 335.2 513.7 339.75 510.82 338.63 508.78 340.08 502.68 339.85 502.72 341.86 499.69 342.28 496.99 344.43 496.15 345.76 493.2 346.12 489.21 347.6 487.36 348.89 482.75 350.2 480.21 349.69 479.12 348.94 479.22 344.47 480.2 340.43 483.91 334.05 483.14 330 482.49 329.4 481.66 325.28 482.13 317.98 481.01 314.92 480.91 310.99 481.83 310.52 484.5 306.74 484.05 304.86 486.12 302.15 485.65 299.12 482.55 295.66 482.5 291.57 484.58 289.66 487.56 285.86 487.2 284.59 488.62 281.33 488.81 278.19 490.41 277.12 491.81 273.03 490.31 271.77 Z" id="CN-SX" data-name="Shanxi"/>
<path d="M 552.63 495.67 551.33 496.47 550.83 498.1 551.48 500.61 550.26 501 546.54 497.57 541.67 498.69 539.26 500.39 537.67 499.85 534.51 500.85 533.55 501.66 530.52 498.85 531.95 497.94 533.4 494.76 536.92 492.12 537.23 490.3 533.61 488.91 531.65 490.27 529.51 490.03 528.17 488.2 527.07 488.01 527.78 486.08 526.8 483.65 528.25 480.97 528.55 479.03 530.8 477.56 527.22 476.98 528.9 473.43 529.12 471.63 526.25 470.48 525.81 467.98 526.61 466.25 524.8 463.38 526.07 460.39 523.67 460.63 522.79 460.06 522.3 456.79 524.11 453.43 524.58 451.03 526.92 450.44 528.19 449.18 529.21 446.94 530.42 446.42 530.97 444.7 529.48 441.64 529.87 439.07 528.17 437.22 526.77 436.57 526.74 434.93 528.84 432.89 531.23 432.2 532.03 430.62 534.14 431.17 538.68 430.03 540.7 427.55 544.61 426.73 546.49 425.27 547.4 422.98 550.26 423.03 552.22 424.87 556.02 424.11 557.18 424.22 559.18 422.8 560.53 422.67 562.59 420.17 564.43 420.6 565.67 422.13 564.51 424.61 562.91 425.33 562.56 426.53 563.87 427.77 565.69 427.54 566.56 426.14 568.18 425.29 568.02 423.33 570.09 422.34 572.39 424.35 574.03 426.61 576.38 427.61 580.01 427.37 581.67 428.17 582.47 429.82 580.87 431.81 580.2 433.77 581.03 435.16 583.18 436.59 585.74 440.45 586.41 445.84 586.02 446.49 584.74 447.51 584.99 449.28 581.9 450.16 580.99 451.06 577.89 451.68 576.87 453.51 575.04 452.73 574.25 451.25 570.86 452.86 570.89 454.11 568.61 457.13 568.47 460.37 569.15 461.41 567.67 463.85 566.15 465.15 562.84 465.65 561.21 467.39 560.69 470 562.18 472.87 559.31 475.85 559.57 477.81 558.32 480.68 555.86 481.96 555.72 483.44 554.46 485.29 553.54 490.15 552.05 491.67 552.63 495.67 Z" id="CN-JX" data-name="Jiangxi"/>
<path d="M 547.06 325.03 546.59 327.66 547.16 328.98 550.69 328.08 551.87 327.07 553.65 327.8 549.6 331.66 547.63 332.03 546.21 333.75 545.56 335.67 544.01 336.95 541.95 337.53 540.3 340.1 539.29 340.58 538.89 343.33 541.03 343.47 543.33 344.48 543.87 346.2 546.66 347.09 546.74 348.74 548.12 350.3 550.28 349.94 551.71 350.39 554.67 349.94 556.08 350.47 556.15 352.36 559.33 355.08 561.3 354.89 561.18 357.51 562.47 360.15 559.91 361.85 559.59 362.7 556.48 363.84 553.72 360.91 553.6 359.41 549.58 358.65 548.38 361.01 549.27 361.95 548.54 363.34 549.34 365.82 546.83 366.5 545.17 369.22 545.56 371.15 544.33 373.17 542.92 373.74 540.65 373.12 539.58 373.75 540.08 375.7 543.47 377.24 543.66 381.39 545.84 381.88 548.42 384.31 550.11 382.93 552.65 384.44 553.16 390.13 552.81 393.67 549.7 393.83 547.99 394.56 546.14 398 545.94 399.44 543.91 398.98 542.73 396.73 541.04 398.52 538.01 398.32 535.16 397.06 535.26 394.54 532.73 394.59 529.89 392.85 527.65 394.4 525.33 390.93 524.78 388.39 525.18 384.97 523.01 384.57 520.65 386.06 517.35 384.14 515.82 384.08 511.71 385.12 508.88 384.7 505.65 385.11 502.62 383.5 499.04 382.49 498.15 381.25 495.81 381.08 493.61 377.77 491.62 376.13 490.29 372.75 488.54 370.9 489.08 369.21 488.46 365.71 486.16 364.04 485.6 362.51 483.57 361.3 484.21 359.72 483.74 356.73 481.49 355.29 482.07 354.27 480.1 351.84 480.21 349.69 482.75 350.2 487.36 348.89 489.21 347.6 493.2 346.12 496.15 345.76 496.99 344.43 499.69 342.28 502.72 341.86 502.68 339.85 508.78 340.08 510.82 338.63 513.7 339.75 521.37 335.2 522.59 332.61 523.15 328.33 523.93 326.68 523.74 324 524.37 321.83 527.87 321.77 530.05 323.59 532.49 323.62 535.16 325.33 537.24 325.11 541.5 325.95 542.44 324.6 544.26 324.97 545.62 326.25 547.06 325.03 Z" id="CN-HA" data-name="Henan"/>
<path d="M 465.48 434.36 462.97 431.33 461.75 430.71 461.11 426.36 458.82 425.47 457.73 423.07 456.42 425.12 454.96 423.48 456.76 422.66 456.68 416.18 454.7 414.91 455.39 413.58 461.07 412.61 462.32 411.76 465.12 412.38 467.93 412.12 471.13 410.09 472.55 408.3 474.14 407.5 476.69 408.41 477.49 407.23 477.23 403.94 478.11 402.93 477.24 399.74 474.91 397.89 472.34 397.24 472.23 396.09 470.53 394.54 470.74 391.63 471.48 389.85 470.86 387.6 469.14 385.34 470.11 384.27 471.06 381.4 474.26 381.38 475.84 382 478.02 380.91 477.08 377.51 474.51 376.38 472.43 376.14 472.66 373.8 469.19 372.79 469.51 371.36 471.39 370.94 477.06 371.73 478.89 372.62 481.47 372.36 482.97 371.23 485.11 373.37 488.54 370.9 490.29 372.75 491.62 376.13 493.61 377.77 495.81 381.08 498.15 381.25 499.04 382.49 502.62 383.5 505.65 385.11 508.88 384.7 511.71 385.12 515.82 384.08 517.35 384.14 520.65 386.06 523.01 384.57 525.18 384.97 524.78 388.39 525.33 390.93 527.65 394.4 529.89 392.85 532.73 394.59 535.26 394.54 535.16 397.06 538.01 398.32 541.04 398.52 542.73 396.73 543.91 398.98 545.94 399.44 548.23 403.02 549.78 402.49 552.5 403.83 554.57 405.97 552.26 407.92 551.07 410.54 553.41 413.57 552.49 415.06 554.63 417.6 555.12 421.41 556.02 424.11 552.22 424.87 550.26 423.03 547.4 422.98 546.49 425.27 544.61 426.73 540.7 427.55 538.68 430.03 534.14 431.17 532.03 430.62 531.23 432.2 528.84 432.89 526.74 434.93 523.51 434.07 522.63 431.53 524.48 429.39 523.24 425.67 521.96 425.66 520.39 424.48 516.87 428.86 513.77 426.93 514.26 425.31 513.48 424.07 510.37 426.54 507.71 426.33 506.66 427.36 504.14 426.21 500.92 423.1 498.9 422.15 494.29 422.05 492.09 420.46 485.51 419.49 485.16 420.49 482.92 420.11 481.87 420.73 482.36 423 483.54 424.37 480.55 426.19 477.18 424.16 473 424.92 471.91 426.11 468.42 427.94 467.19 431.59 465.48 434.36 Z" id="CN-HB" data-name="Hubei"/>
<path d="M 601.45 403.78 600.74 408.13 599.02 411.28 597.81 410.73 596.39 412.62 597.97 414.83 595.99 416.2 592.39 415.62 591.32 418.54 591.85 421.2 589.86 423.52 589.63 424.99 587.46 426.57 585.06 429.15 582.47 429.82 581.67 428.17 580.01 427.37 576.38 427.61 574.03 426.61 572.39 424.35 570.09 422.34 568.02 423.33 568.18 425.29 566.56 426.14 565.69 427.54 563.87 427.77 562.56 426.53 562.91 425.33 564.51 424.61 565.67 422.13 564.43 420.6 562.59 420.17 560.53 422.67 559.18 422.8 557.18 424.22 556.02 424.11 555.12 421.41 554.63 417.6 552.49 415.06 553.41 413.57 551.07 410.54 552.26 407.92 554.57 405.97 552.5 403.83 549.78 402.49 548.23 403.02 545.94 399.44 546.14 398 547.99 394.56 549.7 393.83 552.81 393.67 553.16 390.13 552.65 384.44 550.11 382.93 548.42 384.31 545.84 381.88 543.66 381.39 543.47 377.24 540.08 375.7 539.58 373.75 540.65 373.12 542.92 373.74 544.33 373.17 545.56 371.15 545.17 369.22 546.83 366.5 549.34 365.82 548.54 363.34 549.27 361.95 548.38 361.01 549.58 358.65 553.6 359.41 553.72 360.91 556.48 363.84 559.59 362.7 559.91 361.85 562.47 360.15 561.18 357.51 561.3 354.89 559.33 355.08 556.15 352.36 556.08 350.47 559.02 349.32 559.69 349.31 562.25 351.76 564.57 353.11 566.49 353.28 567.59 356.96 569.23 357.98 573.71 358.63 575.64 359.69 576.87 361.26 576.96 363.74 581.81 363.09 582.5 364.24 579.3 371.39 581.25 372.72 583.04 372.25 583.31 376.23 584.1 378.51 585.4 379.23 589.59 379.21 589.95 377.56 591.38 375.48 593.15 375.64 595.72 379.53 595.84 381.35 594.29 383.63 591.82 381.32 590 381.06 587.39 381.65 588.91 383.52 588.68 386.85 586.9 387.43 585.19 389.68 584.78 391.33 586.47 392.68 586.41 393.73 591.42 396.23 591.68 397.83 589.99 400.35 590.84 402.36 594.21 402.16 595.36 401.42 597.37 401.74 597.97 402.87 601.45 403.78 Z" id="CN-AH" data-name="Anhui"/>
</g>
</svg>