<?xml version="1.0"?>
<svg xmlns="http://www.w3.org/2000/svg" version="1.2" baseProfile="tiny" width="800" height="305" viewBox="0 0 800 305" stroke-linecap="round" stroke-linejoin="round">
<g id="MLOC-CY">
<path d="M 620.01 89.35 630.05 95.62 629.74 122.2 608.82 137.35 602.53 152.98 599.34 186.96 587.46 203.47 560.35 207.09 546.68 222.96 503.46 237.47 483.89 252.28 440.53 264.9 440.38 229.58 413.14 194.81 377.67 182.31 377.94 172.31 399.92 155.69 436.75 165.38 461.33 143.96 495.06 146.52 503.88 126 518.95 130.67 539.15 126.53 545.85 109.31 536.84 80.88 556.38 77.11 581.23 89.33 620.01 89.35 Z M 713.7 130.14 701.61 127.53 699.24 112.01 686.15 106.97 702.31 107.44 715.65 128.06 713.7 130.14 Z" fill-rule="evenodd" id="CY-03" data-name="Larnaca"/>
<path d="M 686.15 106.97 691.35 80.08 708.54 68.25 720.17 70.38 766.83 73.24 783.92 89.82 799 126.8 776.64 122.42 766.51 114.27 742.57 117.34 715.65 128.06 702.31 107.44 686.15 106.97 Z" id="CY-04" data-name="Famagusta"/>
<path d="M 536.84 80.88 545.85 109.31 539.15 126.53 518.95 130.67 503.88 126 495.06 146.52 461.33 143.96 436.75 165.38 399.92 155.69 377.94 172.31 361.46 165.13 345.16 166.56 321.48 145.13 312.73 131.3 286.38 141.54 263.72 143.04 234.36 132.17 221.14 137.96 217.72 160.06 202.92 156.68 182.86 166.88 170.83 154.44 176.03 117.49 147.42 74.15 156.79 67.81 156.99 50.56 129.08 14.51 144.7 11.33 161.81 6.76 192.99 9.7 201.87 30.44 229.78 39.28 256.31 64.96 263.15 54.83 286.22 54.41 306.87 46.83 315.48 36.77 362.58 16.11 404.23 5.21 426.27 15.28 459.37 20.35 485.51 13.63 496.89 1 530.62 56.52 536.84 80.88 Z" id="CY-01" data-name="Nicosia"/>
<path d="M 377.94 172.31 377.67 182.31 413.14 194.81 440.38 229.58 440.53 264.9 428.65 269.79 396.88 266.07 365.25 269.79 352.18 275.94 327.2 304 314.8 283.11 300.33 281 292.1 291.51 269.36 286.75 258.41 268.52 246.33 268.33 214.73 293.92 191.22 298.11 162.26 289.81 160.37 271.93 190.55 246.6 190.14 221.21 206.75 203.67 224.62 174.2 217.72 160.06 221.14 137.96 234.36 132.17 263.72 143.04 286.38 141.54 312.73 131.3 321.48 145.13 345.16 166.56 361.46 165.13 377.94 172.31 Z" id="CY-02" data-name="Limassol"/>
<path d="M 129.08 14.51 156.99 50.56 156.79 67.81 147.42 74.15 176.03 117.49 170.83 154.44 182.86 166.88 202.92 156.68 217.72 160.06 224.62 174.2 206.75 203.67 190.14 221.21 190.55 246.6 160.37 271.93 162.26 289.81 132.85 272.69 96.81 264.94 61.52 240.13 46.45 188.79 24.51 168.71 25.37 148.38 16.9 134.37 14.14 106.84 1 81.88 5.63 55.26 43.43 85.26 61.74 84.42 77.68 75.92 100.62 48.77 111.92 22.96 129.08 14.51 Z" id="CY-05" data-name="Paphos"/>
</g>
</svg>