<?xml version="1.0"?>
<svg xmlns="http://www.w3.org/2000/svg" version="1.2" baseProfile="tiny" width="800" height="456" viewBox="0 0 800 456" stroke-linecap="round" stroke-linejoin="round">
<g id="MLOC-CZ">
<path d="M 299.74 35.47 293.6 39.83 292.77 45.1 288.55 47.84 282.38 41.43 276.02 57.19 268.04 70.17 274.69 91.12 283.1 98.1 284.02 102.36 281.22 110.72 274.34 115.57 270.58 114.46 271.48 124.88 269.12 129.28 261.86 130.12 255.94 133.73 252.09 132.29 242.77 133.89 234.73 132.01 227.45 132.94 225.7 139.92 221.09 140.73 209.82 148.85 206.19 147.61 194.93 153.49 188 153.65 180.58 158.99 172.29 162.65 168.92 168.64 157.66 177.69 153.52 179.47 147.12 177.59 143.99 173.76 138.89 169.24 141.9 164.25 137.09 153.5 136.29 133.45 129.78 129.52 123.24 128.72 118.78 123.53 111.06 122.63 105.09 118.16 109.34 113.63 110.87 102.68 128.65 101.87 133.25 96.61 137.19 86.06 143.36 88.5 147.76 82.27 154.74 77.97 157.82 82.47 162.65 83.22 168.59 77.29 171.56 71.13 170.65 65.75 180.85 61.81 191.46 61.87 198.23 59.75 208.32 59.66 213.95 56.1 215.17 49.06 223.1 45.01 232 44.92 250.41 36.44 255.3 30.54 268.81 30.39 272.99 22.77 265.48 19.65 261.4 12.65 257.41 12.12 259.01 3.89 261.84 1 270 1.85 274.87 5.46 286.17 4.78 295.72 12.52 292.89 24.41 300.78 22.77 302.84 24.92 299.74 35.47 Z" id="CZ-US" data-name="Ústecký"/>
<path d="M 284.02 102.36 283.1 98.1 274.69 91.12 268.04 70.17 276.02 57.19 282.38 41.43 288.55 47.84 292.77 45.1 293.6 39.83 299.74 35.47 310.62 42.41 319.47 42.97 323.61 34.46 330.4 33.35 343.89 34.35 345.61 15.58 341.4 9.3 345.6 6.45 354.71 7.43 360.09 11.21 372.84 12.16 377.88 16.81 375.9 24.04 380 35.13 386.29 39.46 387.32 48.44 398.2 45.36 407.69 48.7 413.29 62.05 412.46 68.71 415.5 78.26 415.4 88.07 419.45 97.4 417.57 102.63 408.52 101.03 404.71 97.47 399.61 98.1 398.18 105.54 392.48 106.67 386.6 100.19 379.03 98.59 373.92 104.37 365.16 98.65 361.47 98.6 357.27 94.82 354.98 87.06 347.28 84.01 335.29 82.37 325.49 94.33 311.08 103.47 297.4 106.27 295.97 102.49 284.02 102.36 Z" id="CZ-LI" data-name="Liberecký"/>
<path d="M 105.09 118.16 111.06 122.63 118.78 123.53 123.24 128.72 129.78 129.52 136.29 133.45 137.09 153.5 141.9 164.25 138.89 169.24 143.99 173.76 142.23 182.56 135.38 184.08 136.12 192.75 131.73 193.64 127.51 188.86 119.36 187.26 104.09 196.93 101.41 206.18 95.07 204.99 90.8 207.4 86.91 204.43 77.73 204.25 73.38 208.86 64.3 208.31 59.11 212.25 53.51 211.19 46.26 206.36 46.91 199.2 20.77 185.46 19.07 178.91 12.77 172.01 13.19 162.28 8.06 154.84 1 148.99 4.49 145.09 3.57 135.81 11.51 137.85 12.64 144.17 19.07 145.96 25.08 163.85 31.35 146.06 38.64 135.59 47.01 129.97 51.88 121.96 65.48 119.89 71.79 121.04 80.7 113.33 89.15 112.19 100.09 118.88 105.09 118.16 Z" id="CZ-KA" data-name="Karlovarský"/>
<path d="M 143.99 173.76 147.12 177.59 153.52 179.47 157.66 177.69 158.8 187.96 165.01 186.18 170.57 188.24 176.31 193.79 184.83 194.19 205.67 207.66 208.3 218.43 204.86 220.13 202.14 238.28 204.52 241.96 191.13 251.97 193.04 263.07 197.26 267.66 197.31 274.05 199.95 278.6 199 287.1 202.17 296.73 201.2 305.4 202.1 313.6 196.73 325.21 193.06 328.08 190.68 343.63 186.42 351.1 181.68 353.19 180.06 365.18 173.87 374.02 171.45 381.23 166.71 386.94 160.21 382.92 155.12 376.97 153.73 368.77 145.12 358.83 130.82 354.37 127.39 347.78 116.33 332.7 111.07 327.34 109.71 322.43 100.63 315.58 95.01 317.18 85.84 316.46 81.63 313.67 77.76 304.97 67.63 298.01 65.2 283.39 61.74 282.45 58.03 275.93 57.01 269.75 50.3 260.79 50.24 254.2 41.17 248.68 36.92 240.88 45.08 234.14 52.19 217.56 53.51 211.19 59.11 212.25 64.3 208.31 73.38 208.86 77.73 204.25 86.91 204.43 90.8 207.4 95.07 204.99 101.41 206.18 104.09 196.93 119.36 187.26 127.51 188.86 131.73 193.64 136.12 192.75 135.38 184.08 142.23 182.56 143.99 173.76 Z" id="CZ-PL" data-name="Plzeňský"/>
<path d="M 206.1 417.69 203.8 415.29 195.35 399.59 187.05 396.9 179.49 385.65 171.45 381.23 173.87 374.02 180.06 365.18 181.68 353.19 186.42 351.1 190.68 343.63 193.06 328.08 196.73 325.21 202.1 313.6 201.2 305.4 202.17 296.73 199 287.1 205.85 283.06 218.06 286.52 227.42 282.68 229.3 278.69 243.32 280.14 250.22 279.23 254.69 276.13 261.47 276.46 266.92 281.81 274.56 278.63 282.76 280.13 295.88 279.6 302.79 281.62 314.38 274.41 314.86 268.55 318.92 264.53 326.09 271.12 332.37 272.21 336.89 277.12 338.11 282.88 332.96 285.28 334.94 297.95 332.44 307.81 335.82 314.97 336.63 321.45 345.44 326.78 349.51 324.63 365.31 337.86 370.38 333.75 378.43 337.71 385.19 338.78 387.83 347.8 393.44 353.14 404.2 354.03 410.12 352.41 415.73 357.96 411.24 361.7 404.73 374.31 408.03 378.73 413.9 381.8 410.29 393.24 401.75 387.11 385.64 380.22 377.06 378.85 374.13 384.58 362.78 386.97 362.24 376.97 343.89 374.29 341.82 380.8 342.25 396.4 338.7 411.16 340.22 415.2 336.48 418.56 330.37 416.05 322.42 415.88 319.47 425.29 311.02 434.41 309.52 449.89 296.25 443.82 289.54 445.58 280.28 440.95 275.76 449.93 265.17 455 253.45 450.85 236.71 448.96 232.7 447.27 228.6 440.42 231.67 435.45 225.78 428.43 210.85 418.97 206.1 417.69 Z" id="CZ-JC" data-name="Jihočeský"/>
<path d="M 361.47 98.6 365.16 98.65 373.92 104.37 379.03 98.59 386.6 100.19 392.48 106.67 398.18 105.54 399.61 98.1 404.71 97.47 408.52 101.03 417.57 102.63 419.45 97.4 415.4 88.07 415.5 78.26 412.46 68.71 413.29 62.05 407.69 48.7 421.83 53.67 426.85 58.21 436.67 55.83 440.23 58.52 446.2 68.71 457.23 66.25 460.77 68.07 463.71 78.31 467.03 81.12 474.36 74 484.87 78.23 490.02 71.7 495.84 71.46 503.32 74.51 513.38 85.21 509.34 98.68 505.8 102.66 499.99 102.05 489.1 110.36 486.61 115.4 491.55 119.39 495.15 126.47 503.63 125.09 507.97 135 515.86 138.77 523.77 151.71 527.35 155.45 529.97 165.24 533.16 170.27 520.65 166.22 517.84 173.7 505.62 179.53 500.55 186.59 489.99 187.59 486.44 189.62 473.85 179.94 471.08 175.8 464.29 174.43 461.42 165.65 452.11 165.31 444.59 172.72 439.47 164.22 433.61 165.94 430.76 173.02 423.09 170.29 409.05 170.35 401.85 177.13 394.43 174.74 388.36 163.88 391.15 159.91 386.97 142.36 370.01 140.34 366.37 132.94 360.52 130.41 360.65 123.16 363.08 118.86 361.47 98.6 Z" id="CZ-KR" data-name="Královéhradecký"/>
<path d="M 566.89 158.78 577.59 150.98 584.03 153.47 580.84 141.18 573.6 134.83 570.22 123.91 566.43 118.31 569.63 113.77 575.66 116.12 592.28 120.26 596.32 123.37 604.18 124.38 607.19 131.66 614.16 135.11 619.7 134.95 621.83 143.95 628.11 143.46 629.98 154.37 625.95 159.03 610.05 168.06 605.43 179.53 606.28 187.46 599.25 197.35 598.42 201.34 602.46 206.51 599.18 212.65 598.05 221.27 605.61 224.73 607.47 228.51 617.57 233.66 623.39 232.05 632.47 241.89 640.2 243.09 644.27 240.7 648.59 243.62 655.89 242.44 662.76 248.06 662.09 254.09 668.96 256.28 672.58 263.88 681.51 270.82 682.7 276.11 689.34 280.21 687.57 284.99 680.15 283.2 671.99 296.64 661.61 294.53 656.38 296.11 654.92 302.88 646.5 302.71 636.56 309.67 620.26 302.24 621.57 312.64 614.48 321.38 605.39 321.76 599.8 326.52 596.24 316.41 586.42 309.73 585.76 303.82 580.28 298.46 577.44 289.57 570.54 284.6 567.18 286.52 570.17 300.33 563.79 305.91 557.36 300.91 558.94 292.82 556.01 285.31 557.25 280.19 552.21 275.16 557.37 265.52 559.87 256.58 563.51 252.79 562.64 246.59 550.74 225.18 552.59 218.07 552.54 208.71 550.01 194.96 559.23 187.93 559.45 180.23 566.89 158.78 Z" id="CZ-OL" data-name="Olomoucký"/>
<path d="M 533.16 170.27 542.18 176.61 546.98 176.26 560.74 159.33 566.89 158.78 559.45 180.23 559.23 187.93 550.01 194.96 552.54 208.71 552.59 218.07 550.74 225.18 562.64 246.59 563.51 252.79 559.87 256.58 557.37 265.52 547.41 261.83 530.72 260.79 527.3 266.35 510.45 267.46 497.88 261.19 495.23 257.3 483.39 250.57 477.8 250.68 472.74 246.43 463.5 242.94 455.23 250.09 447.46 248.75 435.3 234.24 424.68 228.69 415.67 229.42 408.42 219.98 403.3 216.58 405.8 202.82 396.02 194.17 388.42 190.52 392.42 184.95 394.43 174.74 401.85 177.13 409.05 170.35 423.09 170.29 430.76 173.02 433.61 165.94 439.47 164.22 444.59 172.72 452.11 165.31 461.42 165.65 464.29 174.43 471.08 175.8 473.85 179.94 486.44 189.62 489.99 187.59 500.55 186.59 505.62 179.53 517.84 173.7 520.65 166.22 533.16 170.27 Z" id="CZ-PA" data-name="Pardubický"/>
<path d="M 798.84 283.32 791.8 284.3 786.95 288.77 776.35 285.95 763.69 288.52 761.21 295.99 752.3 304.26 746.13 307.43 742.5 304.76 740.69 297.38 732.06 287.62 723.08 287.77 717.62 284.48 699.19 286.31 694.55 280.3 689.34 280.21 682.7 276.11 681.51 270.82 672.58 263.88 668.96 256.28 662.09 254.09 662.76 248.06 655.89 242.44 648.59 243.62 644.27 240.7 640.2 243.09 632.47 241.89 623.39 232.05 617.57 233.66 607.47 228.51 605.61 224.73 598.05 221.27 599.18 212.65 602.46 206.51 598.42 201.34 599.25 197.35 606.28 187.46 605.43 179.53 610.05 168.06 625.95 159.03 629.98 154.37 628.11 143.46 634.26 148.99 637.72 144.77 643.35 144.25 653.91 146.12 658.68 143.74 663.14 136.11 669.04 140.34 667.5 148.99 669.48 156.44 662.06 161.55 653.21 163.01 651.29 166.87 657.03 174.15 662.33 173.9 667.27 178.85 672.45 189.09 681.43 198.57 685.73 199.49 693.51 195.06 704.24 193.21 702.67 185.62 711.24 190.57 712.01 195.74 719.55 197.18 730.64 203.64 736.67 210.32 743.98 206.22 757.33 212.71 766.47 210.78 767.37 229.55 775.7 248.66 781.03 249.49 786.38 254.4 791.78 253.13 799 276.52 798.84 283.32 Z" id="CZ-MO" data-name="Moravskoslezský"/>
<path d="M 410.29 393.24 413.9 381.8 420.23 385.18 425.59 380.74 432.93 383.92 441.48 376.14 448.89 375.01 451.3 370.46 457.15 366.09 461.13 368.85 469.44 367.08 477.59 368.42 482.72 363.09 491.04 360.41 494.63 353.76 494.04 347.18 496.47 343.25 493.22 339.02 493.53 332.63 497.52 329.24 496.45 322.56 499.62 317.88 509.92 311.56 507.91 300.04 507.87 287.46 511.41 286.83 511.7 280.21 508.16 275.22 510.45 267.46 527.3 266.35 530.72 260.79 547.41 261.83 557.37 265.52 552.21 275.16 557.25 280.19 556.01 285.31 558.94 292.82 557.36 300.91 563.79 305.91 570.17 300.33 567.18 286.52 570.54 284.6 577.44 289.57 580.28 298.46 585.76 303.82 586.42 309.73 596.24 316.41 599.8 326.52 597.75 330.42 598.62 336.66 606.13 347.25 600.72 351.1 595.33 359.36 599.02 361.81 606.83 359.85 608.48 368.09 614.69 372.59 622 374.11 624 379.68 631.57 385.13 637.88 383.46 644.08 385.03 646.61 391.11 653.77 393.56 658.6 404.16 645.49 409.34 641.17 408.66 635.83 403.99 630.86 406.25 626.5 408.15 613.02 401.29 602.06 400.94 595.71 405.58 593.94 410.64 585.27 421.29 575.78 446.74 571.71 441.98 570.07 430.13 567.27 426.19 556.35 427.13 550.27 423.66 542.34 422.42 540.12 415.57 524.43 410.81 515.62 412.65 509.62 422.95 506.47 424.71 485.14 421.26 474.23 421.91 467.96 419.19 445.25 402.68 442.7 398.68 433.86 401.17 426.5 401.17 410.29 393.24 Z" id="CZ-JM" data-name="Jihomoravský"/>
<path d="M 746.13 307.43 743.13 316.03 738.76 319.47 722.86 325.68 719.38 328.99 714.33 339.15 712.4 349.93 712.57 359.08 709.33 367.21 701.93 372.27 695.6 371.77 690.26 373.82 687.05 385.21 683.91 389.8 676.26 390.01 668.19 400.37 658.6 404.16 653.77 393.56 646.61 391.11 644.08 385.03 637.88 383.46 631.57 385.13 624 379.68 622 374.11 614.69 372.59 608.48 368.09 606.83 359.85 599.02 361.81 595.33 359.36 600.72 351.1 606.13 347.25 598.62 336.66 597.75 330.42 599.8 326.52 605.39 321.76 614.48 321.38 621.57 312.64 620.26 302.24 636.56 309.67 646.5 302.71 654.92 302.88 656.38 296.11 661.61 294.53 671.99 296.64 680.15 283.2 687.57 284.99 689.34 280.21 694.55 280.3 699.19 286.31 717.62 284.48 723.08 287.77 732.06 287.62 740.69 297.38 742.5 304.76 746.13 307.43 Z" id="CZ-ZL" data-name="Zlínský"/>
<path d="M 413.9 381.8 408.03 378.73 404.73 374.31 411.24 361.7 415.73 357.96 410.12 352.41 404.2 354.03 393.44 353.14 387.83 347.8 385.19 338.78 378.43 337.71 370.38 333.75 365.31 337.86 349.51 324.63 345.44 326.78 336.63 321.45 335.82 314.97 332.44 307.81 334.94 297.95 332.96 285.28 338.11 282.88 336.89 277.12 343.93 267.28 350.1 269.27 364.57 268.68 373.83 264.2 371.93 256.66 366.6 252.66 366.77 248.8 371.72 240.6 377.38 240.3 391.26 231.63 397.56 230.68 403.3 216.58 408.42 219.98 415.67 229.42 424.68 228.69 435.3 234.24 447.46 248.75 455.23 250.09 463.5 242.94 472.74 246.43 477.8 250.68 483.39 250.57 495.23 257.3 497.88 261.19 510.45 267.46 508.16 275.22 511.7 280.21 511.41 286.83 507.87 287.46 507.91 300.04 509.92 311.56 499.62 317.88 496.45 322.56 497.52 329.24 493.53 332.63 493.22 339.02 496.47 343.25 494.04 347.18 494.63 353.76 491.04 360.41 482.72 363.09 477.59 368.42 469.44 367.08 461.13 368.85 457.15 366.09 451.3 370.46 448.89 375.01 441.48 376.14 432.93 383.92 425.59 380.74 420.23 385.18 413.9 381.8 Z" id="CZ-VY" data-name="Vysočina"/>
<path d="M 157.66 177.69 168.92 168.64 172.29 162.65 180.58 158.99 188 153.65 194.93 153.49 206.19 147.61 209.82 148.85 221.09 140.73 225.7 139.92 227.45 132.94 234.73 132.01 242.77 133.89 252.09 132.29 255.94 133.73 261.86 130.12 269.12 129.28 271.48 124.88 270.58 114.46 274.34 115.57 281.22 110.72 284.02 102.36 295.97 102.49 297.4 106.27 311.08 103.47 325.49 94.33 335.29 82.37 347.28 84.01 354.98 87.06 357.27 94.82 361.47 98.6 363.08 118.86 360.65 123.16 360.52 130.41 366.37 132.94 370.01 140.34 386.97 142.36 391.15 159.91 388.36 163.88 394.43 174.74 392.42 184.95 388.42 190.52 396.02 194.17 405.8 202.82 403.3 216.58 397.56 230.68 391.26 231.63 377.38 240.3 371.72 240.6 366.77 248.8 366.6 252.66 371.93 256.66 373.83 264.2 364.57 268.68 350.1 269.27 343.93 267.28 336.89 277.12 332.37 272.21 326.09 271.12 318.92 264.53 314.86 268.55 314.38 274.41 302.79 281.62 295.88 279.6 282.76 280.13 274.56 278.63 266.92 281.81 261.47 276.46 254.69 276.13 250.22 279.23 243.32 280.14 229.3 278.69 227.42 282.68 218.06 286.52 205.85 283.06 199 287.1 199.95 278.6 197.31 274.05 197.26 267.66 193.04 263.07 191.13 251.97 204.52 241.96 202.14 238.28 204.86 220.13 208.3 218.43 205.67 207.66 184.83 194.19 176.31 193.79 170.57 188.24 165.01 186.18 158.8 187.96 157.66 177.69 Z M 297.34 194.64 304.28 193.76 304.13 183.46 308.57 176.72 297.55 169.33 292.77 163.64 284.29 163.31 268.75 167.85 266.26 172.79 261.33 171.48 253.5 174.85 256.63 183.37 265.01 196.16 265.34 201.67 286.42 197.56 290.78 194.09 297.34 194.64 Z" fill-rule="evenodd" id="CZ-ST" data-name="Středočeský"/>
<path d="M 297.34 194.64 290.78 194.09 286.42 197.56 265.34 201.67 265.01 196.16 256.63 183.37 253.5 174.85 261.33 171.48 266.26 172.79 268.75 167.85 284.29 163.31 292.77 163.64 297.55 169.33 308.57 176.72 304.13 183.46 304.28 193.76 297.34 194.64 Z" id="CZ-PR" data-name="Prague"/>
</g>
</svg>