<?xml version="1.0"?>
<svg xmlns="http://www.w3.org/2000/svg" version="1.2" baseProfile="tiny" width="800" height="644" viewBox="0 0 800 644" stroke-linecap="round" stroke-linejoin="round">
<g id="MLOC-DK">
<path d="M 152.91 598.7 146.98 596.94 139.29 600.43 129.04 599.59 125.47 590.85 101.49 585.17 92.6 581.51 83.57 579.95 73.23 583.26 65.09 581.83 66.67 571.68 62.85 556.81 63.28 550.43 67.47 535.12 55.45 532.97 53.4 542.4 45.09 548.08 42.25 541 43.54 526.35 50.36 521.75 57.51 525.67 53.15 531.93 68.33 533.47 63.69 505.99 64.96 496.66 60.21 474.63 53.31 471.37 40.34 469.45 35.73 465.11 23.19 445.51 17.74 452.56 20.54 459.38 26.19 464.37 25.8 468.38 12.26 457.07 2.88 454.22 1 449.48 7.36 432.41 10.91 416.4 10.23 401.85 32.02 401.63 42.35 407.96 45.79 407.88 55.81 395.05 68.07 396.12 77.96 402.38 83.44 400.06 85.74 387.59 95.43 386.04 104.92 396.35 111.47 394.96 119.05 387.26 127.38 374.27 131.64 373.33 142.24 376.87 148.66 381.67 163.42 404.65 171.91 406.39 172.28 412.3 178.52 413.61 179.83 420.51 176.43 423.25 183.76 430.22 186.92 436.32 199.98 436.93 183.37 454.8 172.11 458.9 171.56 463.09 178.09 466.65 176.82 474.01 169.79 476.72 171.38 488.97 183.76 512.25 181.44 520.93 176.05 524.2 169.4 522.96 159.35 529.71 160.89 537.83 166.72 544.57 154.92 556.85 167.73 551.8 171.47 552.47 178.37 559.51 184.58 561.19 186.96 565.19 189.56 581.62 187.62 587.73 177.51 589.54 169.79 575.66 165.17 585.17 155.05 592.15 152.91 598.7 Z M 267.42 581.15 272.91 589.19 262.45 595.9 259.88 594.71 240.42 573.37 249.17 573.09 256.05 581.75 267.42 581.15 Z M 217.81 566.24 223.88 582.91 212.9 589.06 204.21 585.18 199.98 581.15 191.75 577.8 189.52 572.64 193.8 558.16 184.92 559 179.67 557.27 180.13 551.52 184.48 545.2 193.16 545.49 199.9 553.51 212.1 558.46 217.81 566.24 Z M 313.19 552.77 317.78 537.43 324.7 531.07 319.29 555.46 311.24 573.78 300.31 610.08 293.62 611.56 288.98 592.27 298.43 583.83 295.33 574.94 306.77 562.1 313.19 552.77 Z M 44.24 493.04 41.44 494.17 35.87 486.16 32.31 476.72 36.95 474.48 42.77 476.72 41.28 483.5 44.24 493.04 Z M 291.85 548.74 282.79 550.08 277.38 555.56 251.88 548.86 243 543.22 234.43 544.32 223.97 543.22 234.16 533.76 229.29 525.11 220.96 525.67 214.2 519.36 207.92 517.16 203.4 511.3 204.68 505.99 203.49 492.36 197.28 491.68 191.42 486.11 198.44 482.17 195.28 474.01 180.78 461.04 188.83 453.44 197 452.58 198.44 457.53 203.87 460.52 209.76 458.41 220.96 450.71 235.58 445.81 240.56 442.14 251.3 438.62 262.58 445.68 266.74 451.63 271.76 453.17 268.2 464.36 263.96 470.47 269.83 473.61 273.33 469.52 284.9 464.36 285.92 456.68 285.33 439.67 290.8 443.29 299.98 460.39 299.41 465.87 290.86 470.29 295.43 474.17 306.6 490.43 310.18 500.76 304.75 501.09 304.56 507.06 308.69 519.12 305.46 535.86 299.47 547.25 291.85 548.74 Z" fill-rule="evenodd" id="DK-83" data-name="Syddanmark"/>
<path d="M 179.83 420.51 178.52 413.61 172.28 412.3 171.91 406.39 163.42 404.65 148.66 381.67 142.24 376.87 131.64 373.33 127.38 374.27 119.05 387.26 111.47 394.96 104.92 396.35 95.43 386.04 85.74 387.59 83.44 400.06 77.96 402.38 68.07 396.12 55.81 395.05 45.79 407.88 42.35 407.96 32.02 401.63 10.23 401.85 5.7 368.68 12.24 387.28 12.26 399.76 29.7 388.19 34.21 383.44 34.12 376.66 26.5 364.64 25.21 351.11 22.3 346.46 9.66 339.63 6.27 341.02 5.5 358.37 2.57 356.89 2.41 337.63 5.5 320.16 4.21 249.48 10.58 224.74 13.23 231.3 25.65 243.91 39.73 243.62 48.56 250.91 54.34 243.91 58.34 259.84 62.4 264.22 72.53 263.5 74.27 260.53 76.03 245.31 70.54 241.9 68.97 232.73 74.15 232.37 81.44 219.93 86.61 215.54 89.49 205.74 98.44 197.76 115.43 198.35 117.06 205.68 121.86 212.89 120.2 218.02 109.1 235.49 109.44 244.61 114.01 244.06 115.52 237.34 120.34 231.57 134.68 232.78 135.38 237.39 131.75 243.91 140.33 253.85 142.65 249.39 137.23 245.31 137.44 237.68 140.31 225.29 152.68 231.64 155.41 226.98 162.7 232.63 175.55 232.78 174.01 242.85 179.87 241.52 185.47 247.96 190.43 246.61 200.08 247.99 203.84 243.53 217.83 239.24 225.58 234.39 238.36 220.31 248.58 221.1 254.31 218.2 256.96 229.54 255 235.38 257.32 247.42 269.65 255.78 278.88 256.88 305.74 252.61 314.88 257.05 318.52 263.5 325.53 270.62 321.5 279.2 319.6 293.98 309.19 308.88 301.32 318.01 300.03 330.51 292.53 328.35 294.27 316.75 287.59 313.64 278.61 325.7 281.39 339.01 275.15 341.02 269.45 325.93 262.73 328.41 259.14 320.6 270.28 312.19 273.59 305.45 266.57 301.2 257.65 307.94 251.85 318.19 245.74 323.25 241.42 331.86 245.81 341.77 246.08 350.8 242.65 358.37 245.06 364.6 244.26 379.06 237.25 387.3 233.6 394.47 228.03 385.55 217.04 386.06 204.37 394.85 220.55 398.44 218.64 414.95 214.45 420.34 193.03 427.35 179.83 420.51 Z M 279.77 388.8 282.22 383.11 280.62 376.3 274.79 371.66 279.48 362.66 282.13 374.64 288.73 388.83 286.01 406.8 282.35 410.23 275.35 404.44 275.01 392.98 279.77 388.8 Z M 387.51 219.93 388.48 215.82 399.47 216.66 395.29 222.86 387.51 219.93 Z" fill-rule="evenodd" id="DK-82" data-name="Midtjylland"/>
<path d="M 238.36 220.31 225.58 234.39 217.83 239.24 203.84 243.53 200.08 247.99 190.43 246.61 185.47 247.96 179.87 241.52 174.01 242.85 175.55 232.78 162.7 232.63 155.41 226.98 152.68 231.64 140.31 225.29 136.31 218.2 129.52 220.62 130.87 209.3 124.3 201.68 123.35 194.57 127.35 187.73 121.86 178.92 126.08 169.64 136.09 157.56 152.86 151.9 169.79 157.56 173.29 162.15 181.35 148.84 189.52 144.8 194.93 146.22 206.99 144.8 200.3 138.54 192.5 135.36 186.35 143.09 179.78 140.52 169.12 146.73 159.3 146.88 133.42 156.26 116.2 148.94 108.27 153.29 105.03 150.7 93.16 159.42 89.11 155.97 82.15 163.22 76.54 166.21 67.21 166.81 60.6 178.92 59.63 187.08 54.78 194.57 51.01 195.37 45.09 202.26 45.94 212.53 56.98 222.83 59.13 233.18 51.35 241.04 40.67 226.39 32.59 223.06 26.5 214.43 25.24 207 17.92 203.04 20.94 189.44 41.22 156.15 47.31 149.77 56.66 134.85 64.3 131.5 79.01 135.18 93.78 130.47 101.24 123.47 129.52 127.63 139.8 126.39 150.04 122.55 159.73 115.97 168.26 106.38 192.59 61.04 204.68 45.83 212.78 33.23 228.69 32.89 238.86 31.15 248.13 26.99 256.16 21.06 269.94 6.69 277.47 1 283.73 4.8 277.86 10.51 268.58 24.96 265.19 37.62 268.34 47.12 274.07 55.84 278.32 66.08 275.02 75.32 275.08 86.24 277.47 107.68 267.04 118.5 261.24 132.59 259.94 141.55 255.77 154.85 249.88 159.34 246.58 176.11 249.92 202.73 252.55 217.3 243.38 215.7 239.57 218.51 233.08 214.39 215.49 223.74 216.68 226.95 230.51 220.57 238.36 220.31 Z M 83.75 209.96 77 219.26 63.69 222.89 52.93 204.95 55.16 197.85 64.08 184.73 63.69 179.63 82.37 175.56 88.46 164.66 93.09 167.61 94.45 173.58 84.95 184.05 88.46 200.21 83.75 209.96 Z M 345.69 87.67 351.9 91.64 337.12 96.26 339.89 104.32 332.85 114.94 327.1 113.94 324.14 108.3 313.19 101.84 323.55 93.47 332.73 90.11 341.12 90.17 345.69 87.67 Z" fill-rule="evenodd" id="DK-81" data-name="Nordjylland"/>
<path d="M 425.16 614.09 425.3 620.76 421.26 629.11 416.22 630.78 398.62 626.9 380.68 634.34 370.15 628.05 363.25 621.98 350.82 614.02 333.04 608.46 329.5 603.34 333.07 598.36 339.73 598.66 338.45 592.67 332.44 585.14 331.72 580.44 339.56 572.42 355.79 569.06 367.91 577.34 371.3 584.82 396.84 598.57 394.35 591.33 403.8 587.73 403.02 578.45 411.65 586.34 418.65 599.4 425.55 606 425.16 614.09 Z M 489.83 555.46 499.74 557.53 503.45 560.95 505.27 567.71 499.51 571.63 486.15 568.7 478.17 571.1 468.31 582.55 462.87 583.27 455.67 579.67 457.27 570.4 464.5 563.72 468.92 566.24 475.1 563.55 475.93 556.81 480.58 554.86 489.83 555.46 Z M 483.28 441.35 470.73 453.04 465.06 464.75 468.09 475.24 473.58 480.15 482.47 481.3 489.26 486.34 492.93 492.36 495.24 504 487.04 510.94 463.33 516.51 458.65 520.32 455 527.7 449.04 524.74 444.32 528.35 447.94 533.76 461.73 536.06 462.68 540.64 456.88 547.39 461.13 556.81 459.5 562.58 446.39 567.71 436.32 560.22 432.51 559.51 429.66 570.26 430.24 575.28 437.9 571.63 440.65 577.11 447.23 582.48 453.57 581.48 461.91 593.22 450.26 603.33 445.83 611.81 438.22 621.49 439.43 638.78 434.55 643 427.87 628.23 432.51 616.09 429.41 609.29 421.08 599.78 419.31 592 414.36 586.39 413.49 576.1 410.03 571.63 414.37 568.17 419.26 571.01 429.41 566.24 424.78 555.46 417.25 550.09 420.65 546.85 413.65 541.58 410.73 536.6 420.5 534.8 418.4 530.37 411.97 530.86 412.67 524.15 408.19 520.3 403.02 525.67 385.26 521.08 377.44 517.56 371.3 520.26 357.34 518.97 356.9 506.34 347.92 498.26 348.58 491.58 353.69 479.05 349.54 464.36 339.6 455.49 346.38 450.8 344.53 443.21 339.53 436.87 337.62 426.85 327.85 422.01 325.09 417.34 343.37 414.9 358.11 416.4 370.75 409.15 372.07 400.55 386.72 388.31 387.32 380.34 383.57 373.66 377.86 368.78 402.06 373.24 416.47 367.77 413.13 377.8 404.57 380.56 412.32 395.96 415.83 412.29 413.98 416 421.24 426.42 426.2 415.78 434.17 414.61 439.57 417.93 443.95 428.44 449.48 431.45 453.41 416.4 451.27 406.38 455.43 406.4 461.64 412.48 468.29 415.44 471.49 420.67 460.52 428.13 461.91 437.82 478.47 438.95 483.28 441.35 Z" fill-rule="evenodd" id="DK-85" data-name="Sjaælland"/>
<path d="M 799 535.12 798.59 542.56 793.94 552.61 794.69 557.82 790.1 563.07 779.95 561.22 765.9 553.88 757.1 551.34 747.91 543.83 748.61 516.82 753.86 502.31 756.4 501.29 765.08 512.35 773.61 518.77 778.88 518.71 781.94 524.2 799 535.12 Z M 512.29 424.61 518.86 441.16 514.96 446.61 505.57 452.17 501.48 438.42 512.29 424.61 Z M 439.57 417.93 434.17 414.61 426.2 415.78 424.78 410.9 427.87 401.19 435.58 397.06 437.42 391.37 432.43 378.88 435.28 375.21 442.46 381.44 441.76 387.3 446.2 398.8 448.54 414.88 445.62 419.14 439.57 417.93 Z M 483.28 441.35 478.47 438.95 461.91 437.82 460.52 428.13 471.49 420.67 468.29 415.44 461.64 412.48 455.43 406.4 451.27 406.38 448.71 394.43 448.3 384.42 445.62 373.66 439.35 369.92 430.71 373.47 427.46 367.33 444.07 355.6 461.36 340.82 470.38 335.74 479.8 336.12 489.58 341.77 497.63 341.77 512.99 352.96 506.82 362.51 500.64 377.8 505.36 385.46 510.76 402.68 509.14 416.4 510.76 420.51 503.84 432.48 495.24 441.16 488.3 438.42 483.28 441.35 Z" fill-rule="evenodd" id="DK-84" data-name="Hovedstaden"/>
</g>
</svg>