<?xml version="1.0"?>
<svg xmlns="http://www.w3.org/2000/svg" version="1.2" baseProfile="tiny" width="800" height="711" viewBox="0 0 800 711" stroke-linecap="round" stroke-linejoin="round">
<g id="MLOC-EG">
<path d="M 625.8 35.09 631.11 51.66 640.97 77.79 642.39 83.83 642.93 88.25 644.61 90.62 643.87 95.25 644.46 96.83 648.75 101.05 657.6 126.59 658.02 131.61 663.45 146.57 665.13 154.32 665.01 159.51 667.52 165.49 667.44 165.53 640.17 161.25 632 158.28 624.42 154.19 611.16 149.17 594.43 140.14 552.73 132.74 534.73 133.61 533.09 130.3 532.29 114.93 531.05 107.9 527.6 98.9 521.6 89.26 521.02 86.38 520.88 79.63 518.21 53.24 518.05 46.54 523.79 46.32 526.65 48.28 529.15 47.76 533.17 45.16 536.56 44.1 542.17 44.64 542.59 46.2 544.86 46.94 547.34 43.98 542.29 43.49 546.19 38.86 550.66 36.77 554.52 42.24 552.48 43.55 553.67 45.3 552.93 47.76 556.48 46.53 560.42 44.27 563.7 43.31 569.47 42.51 568.9 41.12 573.03 39.7 576.86 41.46 586.56 42.29 600.05 38.76 612.64 33.74 622.66 27.23 624.25 30.18 625.8 35.09 Z" id="EG-SIN" data-name="Shamal Sina&apos;"/>
<path d="M 445.84 709.93 441.96 709.93 445.56 699.15 445.06 695.81 442.42 693.79 439.91 693.82 437 696.33 434.05 702.39 432.81 700.68 429.93 698.57 428.21 695.71 429.89 692.2 433.27 689.81 439.84 688.9 443.01 688.1 447.95 684.94 452.54 679.06 454.04 674.1 453.63 670.25 452.3 663.78 454.21 659.79 457.83 657.28 460.95 657.04 468.01 658.53 488.8 648.58 493.08 648.29 497.49 651.7 500.02 652.26 503.36 652.08 505.95 655.06 507.35 654.98 510.99 648.79 513.05 640.88 515.14 637.05 517.09 630.65 520.27 623.54 521.96 621.24 527.69 615.07 528.65 613.13 528.4 609.38 526.95 608.91 518.13 610.22 511.6 609.99 507.47 608.8 506.72 606.92 508.42 601.03 510.16 592.5 512.12 589.45 514.79 586.62 518.72 584.97 526.76 583.84 528.75 581.36 526.83 578.78 522.36 576.32 520.6 572.82 521.25 568.56 522.78 566.44 525.8 565.6 529.99 565.75 533.18 564.87 535.98 561.83 536.79 558.53 535.77 553.31 536.55 544.09 535.97 539.08 536.6 529.57 539.03 523.75 539.66 521.01 537.63 513.13 534.15 505.02 533.42 497.62 530.57 491.68 526.91 488.3 521.59 485.22 523.92 483.47 524.92 476.25 538.17 486.43 540.62 489.59 542.88 493.49 544.24 497.68 544.81 501.95 544.99 511.61 545.76 515.21 552.81 530.02 552.09 534.35 550.3 537.49 544.96 544.57 542.97 551.53 542.39 556.41 544.24 568.64 546.38 573.15 548.11 578.04 549.75 580.7 553.78 584.19 554.82 586.78 555.22 593.94 553.51 598.04 553.37 601.04 554.8 607.68 558.06 614.42 557.5 617.97 555.18 624.01 552.38 626.98 550.37 630.97 548.26 633.79 549.14 637.05 553.63 639.8 558.92 642.23 563.11 647.82 565.88 657.07 565.76 659.68 563.18 659.47 558.94 656.31 553.68 650.87 548.98 649.25 543.63 650.14 541.59 649.82 539.31 648.31 534.96 644.06 533.61 643.99 529.78 651.14 530.2 654.22 529.51 658.5 526.94 662.18 518.47 669.87 513.98 674.34 511.54 675.76 505.46 677.24 499.3 676.48 496.39 674.77 493.69 671.63 489.23 668.42 487.81 668.58 485.99 671.31 481.75 683.31 478.6 687.58 475.24 689.94 469.73 690.91 465.69 695.93 452.15 702.3 447.77 706.05 445.84 709.93 Z" id="EG-ASN" data-name="Aswan"/>
<path d="M 513.14 709.93 487.75 709.93 460.98 709.93 445.84 709.93 447.77 706.05 452.15 702.3 465.69 695.93 469.73 690.91 475.24 689.94 478.6 687.58 481.75 683.31 485.99 671.31 487.81 668.58 489.23 668.42 493.69 671.63 496.39 674.77 499.3 676.48 505.46 677.24 511.54 675.76 513.98 674.34 518.47 669.87 526.94 662.18 529.51 658.5 530.2 654.22 529.78 651.14 533.61 643.99 534.96 644.06 539.31 648.31 541.59 649.82 543.63 650.14 548.98 649.25 553.68 650.87 558.94 656.31 563.18 659.47 565.76 659.68 565.88 657.07 563.11 647.82 558.92 642.23 553.63 639.8 549.14 637.05 548.26 633.79 550.37 630.97 552.38 626.98 555.18 624.01 557.5 617.97 558.06 614.42 554.8 607.68 553.37 601.04 553.51 598.04 555.22 593.94 554.82 586.78 553.78 584.19 549.75 580.7 548.11 578.04 546.38 573.15 544.24 568.64 542.39 556.41 542.97 551.53 544.96 544.57 550.3 537.49 552.09 534.35 552.81 530.02 545.76 515.21 544.99 511.61 544.81 501.95 544.24 497.68 542.88 493.49 540.62 489.59 538.17 486.43 524.92 476.25 522.84 474.3 520.7 469.98 519.58 464.56 519.45 460.72 520.36 457.27 522.03 454.4 526.33 449.59 532.66 443.87 535.32 440.55 538.66 433.6 539.71 428 538.93 420.08 536.39 413.36 533.81 409.87 528.69 405.97 523.59 404.46 519.43 404.2 514.14 405 500.98 411.35 498.96 411.8 492.04 403.08 489.01 398.06 487.16 397.05 482.88 396.08 478.1 393.61 476.17 391.32 473.59 386.92 473.1 382.84 472.05 380.36 468.83 375.42 467.81 372.99 464.93 370.18 453.96 362.5 446.97 347.85 444.54 344.17 440.44 339.94 435.28 335.64 432.35 329.46 428.97 326.98 424.83 325.68 418.2 322.85 412.47 319.53 410.37 316.39 409.53 313.33 409.66 304.65 410.84 297.6 410.22 291 408.34 285.39 407.8 278.4 406.43 273.42 402.9 266.49 401.44 257.41 401.99 254.39 403.87 249.45 407.06 243.98 407.77 241.58 409.86 223.42 410.43 219.71 413.04 213.7 417.43 207.8 421.2 201.68 425.96 196.09 427.68 193.07 430.06 187.04 430.19 179.84 437.25 188.16 438.44 190.78 441.8 194.49 446.25 197.27 470.31 204.58 473.08 205.84 482.05 204.5 487.35 204.8 489.74 204.16 509.66 195.42 511.51 194.27 515.45 193.25 521.74 193.18 521.97 195.54 520.19 199.39 519.74 204.24 522.87 208.07 523.36 211.12 527.82 216.78 530.13 217.18 532.49 221.02 535.65 233.61 539.46 235.64 542.44 239.49 544.41 240.26 547.04 246.86 551.19 250.84 552.48 255.27 560.03 263.63 560.51 266 562.72 266.78 566.31 270.26 566.18 272.38 570.14 274.57 573.08 275.36 577.71 279.61 580.45 284.24 581.87 287.64 580.82 290.38 575.73 287.98 575.16 289.66 578.38 294.93 580.67 294.34 578.63 300.42 576.65 302.7 578.18 303.5 581.12 308.24 580.67 310.8 585.58 313.82 586.07 316.84 588.08 319.38 589.42 325.16 591.58 327.23 598.16 331.2 599.15 333.23 598.26 336.76 598.9 341.41 603.12 345.97 602.64 348.23 606.41 355.34 608.98 357.07 609.8 361.35 606.03 363.63 606.43 369.08 605.13 373.53 605.74 375.66 608.77 377.08 610.49 378.72 611.13 380.98 613.26 383.79 616.42 392.23 621.17 400.39 626.69 413.17 629.24 416.93 631.71 423.19 636.86 430.36 637.98 433.36 642.37 439.91 645.29 443.29 650.97 454.58 651.86 458.01 653.45 461.07 654.14 464.77 658.15 470.36 659.57 474.36 661.52 477.37 662.31 480.46 670.95 495.5 671.9 499.77 674.26 502.59 674.7 507.95 675.6 509.83 679.07 512.74 680.2 514.8 682.09 521.39 685.43 527.52 684.37 531.71 687.06 532.76 690.31 538.9 699.15 545.64 700.54 547.32 702.94 554.26 707.2 559.78 709.18 558.89 711.01 559.66 713.38 562.14 714.48 566.23 716.47 567.44 718.51 567.05 721.82 568.05 724.19 569.81 725.56 573.02 723.03 572.35 719.66 573.94 717.13 572.9 712.83 572.13 710.91 570.04 708.51 569.21 706.55 573.45 706.99 576.87 705.95 582.02 706.51 583.84 708.27 584.99 707.84 599.31 706.91 603.49 710.31 609.72 710.97 612.01 710.89 615.37 712.48 623.74 715.52 628.95 717.71 633.61 718.57 640.09 720.37 643.67 724.32 644.37 726.22 650.69 730.32 655.67 732.83 657.6 739.26 660.57 742.9 660.83 748.16 661.85 753.21 663.55 758.23 667.75 759.27 669.47 759.65 672.73 760.76 674.88 764.76 678.16 768.26 679.52 767.92 681.53 769.03 684.44 773.46 686.45 777.07 688.67 781.02 691.99 786.93 697.67 789.75 697.12 792.28 698.97 794.74 702.84 798.8 704.94 799 708.37 798.03 709.91 767.55 709.91 737.13 709.91 706.72 709.92 676.31 709.92 645.89 709.92 630.69 709.92 600.27 709.92 585.07 709.92 554.66 709.93 513.14 709.93 Z M 606.63 365.67 607.98 365.67 609.76 369.94 608.89 370.77 606.63 365.67 Z M 610 312.82 611.43 313.36 612.08 315.97 605.24 313.9 603.92 311.76 607.23 311 610 312.82 Z" fill-rule="evenodd" id="EG-BA" data-name="Al Bahr al Ahmar"/>
<path d="M 20.14 269.42 20.14 240.11 20.14 210.41 20.14 188.64 19.69 184.33 18.54 180.3 13.12 167.12 12.32 161.62 12.92 154.35 11.97 151.25 8.62 145.58 8.18 142.45 9.27 138.52 9.06 135.33 3.43 121.18 1 116.21 1.02 113.29 2.07 110.64 6.49 102.07 10.24 97.79 15.33 89.37 16.16 85.29 18.14 80.06 18.83 75.88 21.03 67.61 20.14 64.54 17.29 58.42 16.44 54.53 14.15 49.8 12.19 40.1 12.13 33.83 11.5 24.6 12.3 22.17 22.92 13.43 25.32 6.92 27.15 4.3 31.23 1 31.94 6.6 33.85 10.59 38.59 11.19 41.11 12.51 45.45 12.07 47.63 12.76 62.97 8.35 75.23 4.19 78.15 3.73 84.56 4.06 110.39 11.33 129.25 13.87 131.37 14.83 135.95 14.73 143.3 17.85 146.3 17.87 149.83 16.86 151.85 18.47 159.75 21.4 164.18 21.87 166.87 23.14 168.16 22.1 173.04 22.12 175.76 25.99 177.14 30.73 179.37 33.12 183.32 34.9 190.49 36.5 191.94 35.72 195.24 37.48 199.1 36.79 206.7 33.07 208.5 33.4 210.27 39.37 210.71 42.51 212.66 43.68 215.81 44.13 227.54 44.12 229.95 45.63 234.19 45.8 238.24 46.67 243.9 44.64 246.34 45.41 248.71 47.28 253.71 48.28 265.32 52.45 270.9 54.96 271.61 57.7 284.63 64.41 295.16 63.94 297.1 63.58 315.68 54.54 321.88 50.51 323.63 101.61 326.69 108.06 369.62 134.78 318.77 166.03 276.32 209.01 263.13 218.99 211.31 232.57 206.45 234.54 201.56 240.7 173.31 301.13 21.37 301.23 20.14 301.23 20.14 269.42 Z" id="EG-MT" data-name="Matruh"/>
<path d="M 20.14 709.93 20.14 668.7 20.14 627.29 20.14 585.71 20.14 564.84 20.14 522.98 20.14 480.91 20.14 438.65 20.14 417.44 20.14 374.85 20.14 346.66 20.14 301.23 21.37 301.23 173.31 301.13 260.13 301.13 393.1 301.15 392.02 303.63 391.75 306.48 392.65 310.82 398.71 323.82 400.86 326.74 409.54 334.93 412.72 336.81 418.76 339.3 421.04 341.06 424.89 345.56 433.11 362.2 442.19 373.47 448.4 378.79 475.74 413.14 486.1 422.92 489.51 424.86 493.5 425.49 502.46 423.31 517.53 416.24 522.29 415.39 526.39 417.03 527.66 419.28 527.75 423.23 524.12 430.17 522.28 437.65 520.16 440.52 511.15 447.66 509.23 449.65 507.81 452.57 507.84 455.19 510.07 463.96 511.82 474.33 512.8 476.95 515.39 480.46 521.59 485.22 526.91 488.3 530.57 491.68 533.42 497.62 534.15 505.02 537.63 513.13 539.66 521.01 539.03 523.75 536.6 529.57 535.97 539.08 536.55 544.09 535.77 553.31 536.79 558.53 535.98 561.83 533.18 564.87 529.99 565.75 525.8 565.6 522.78 566.44 521.25 568.56 520.6 572.82 522.36 576.32 526.83 578.78 528.75 581.36 526.76 583.84 518.72 584.97 514.79 586.62 512.12 589.45 510.16 592.5 508.42 601.03 506.72 606.92 507.47 608.8 511.6 609.99 518.13 610.22 526.95 608.91 528.4 609.38 528.65 613.13 527.69 615.07 521.96 621.24 520.27 623.54 517.09 630.65 515.14 637.05 513.05 640.88 510.99 648.79 507.35 654.98 505.95 655.06 503.36 652.08 500.02 652.26 497.49 651.7 493.08 648.29 488.8 648.58 468.01 658.53 460.95 657.04 457.83 657.28 454.21 659.79 452.3 663.78 453.63 670.25 454.04 674.1 452.54 679.06 447.95 684.94 443.01 688.1 439.84 688.9 433.27 689.81 429.89 692.2 428.21 695.71 429.93 698.57 432.81 700.68 434.05 702.39 430.6 709.48 429.74 710 414.52 710 376.35 709.99 344.54 709.99 312.74 709.98 274.58 709.97 236.41 709.97 210.97 709.96 172.8 709.96 147.36 709.96 109.19 709.95 83.75 709.94 58.31 709.94 20.14 709.93 Z" id="EG-WAD" data-name="Al Wadi at Jadid"/>
<path d="M 531.05 107.9 532.29 114.93 533.09 130.3 534.73 133.61 521.46 142.93 518.37 140.36 519.74 138.69 518.89 135.12 516.21 132.46 515.69 129.18 511.14 130.83 509.44 133.5 510.98 138.11 504.53 147.12 502.26 151.82 502.22 154.93 500.93 157.24 504.2 162.82 508.36 165.7 511.36 169.24 515.26 172.41 517.52 176.04 518.43 180.35 520.19 184.02 519.95 185.82 521.74 193.18 515.45 193.25 511.51 194.27 509.66 195.42 489.74 204.16 487.35 204.8 482.05 204.5 473.08 205.84 470.31 204.58 474.46 146.94 474.21 143.45 474.7 136.72 473.29 121.22 471.58 113.85 471.5 109.54 495.04 108.74 500.69 109.18 504.67 111.18 509.2 111.62 513.99 108.12 518.64 107.02 531.05 107.9 Z" id="EG-SUZ" data-name="As Suways"/>
<path d="M 534.73 133.61 552.73 132.74 594.43 140.14 611.16 149.17 624.42 154.19 632 158.28 640.17 161.25 667.44 165.53 665.29 167.54 660.39 176.29 657.71 179.37 657.22 187.32 654.99 189.9 653.66 194.24 653.66 199.63 654.39 203.05 651.84 204.64 651.86 212.45 650.12 213.71 650.12 217.84 650.97 219.32 649.29 224.48 647.75 226.65 646.84 230.09 642.94 236.66 643.79 238.94 640.22 242.8 638.4 248.89 636.16 253.75 637.06 257.6 636.56 259.31 639.32 264.18 637.46 270.54 638.59 272.62 637.5 277.84 635.76 278.9 633.81 282.23 631.87 282.84 630.55 286.85 628.29 286.62 625.22 291.81 622.64 292.69 621 292.02 614.7 291.33 613.13 290.3 608.76 284.97 604.13 281.34 602.44 280.84 594.1 274.81 594.14 272.95 591.01 271.01 588.94 267.37 588.3 264.69 585.58 262.91 581.12 254.56 572.57 249.41 568.34 243.35 563.48 239.52 561.4 233.75 559.16 234.32 558.53 229.96 556.95 226.45 559.13 219.83 557.6 216.75 556.04 215.76 555.15 209.65 555.82 208.3 555.05 203.99 555.84 202.98 553.69 199.83 549.35 197.35 548.21 194.62 541.46 187.08 536.74 184.02 535.61 179.94 533.72 178.53 532.39 175.32 532.27 171.2 527.32 168.05 526.08 165.29 526.18 161.77 525.42 158.7 523.36 157.24 523.36 152.62 524 147.18 521.46 142.93 534.73 133.61 Z M 647.81 279.9 650.12 282.48 645.33 282.53 643.43 281.73 643.03 278.99 647.14 278.65 647.81 279.9 Z M 657.4 279.76 657.42 282.58 655.63 283.36 652.82 281.75 654.13 279.64 657.4 279.76 Z" fill-rule="evenodd" id="EG-JS" data-name="Janub Sina&apos;"/>
<path d="M 518.05 46.54 518.21 53.24 499.2 42.17 497.81 42.55 497.64 38.25 497.8 33.64 495.62 30.14 495.63 29.18 500.52 30.51 502.33 33.41 504.34 33.94 510.31 39.87 512.16 43.08 515.83 45.85 518.05 46.54 Z" id="EG-PTS" data-name="Bur Sa`id"/>
<path d="M 465.46 30.03 467.66 30.3 472.59 35.67 474.59 36.92 477.98 33.65 480.8 36.77 482.28 41.41 475.75 44.72 469.82 46.04 464.71 46.21 461.97 51.17 458.54 55.27 457.18 58.21 454.04 60.05 453.79 63.49 451.13 66.06 449.27 66.79 441.01 66.8 438.69 67.47 437.1 69.48 436.87 72.08 438.31 78.93 438.08 81.93 436.57 83.67 432.83 83.93 430.09 82.56 431.18 77.04 430.05 70.92 429.3 70.47 428.6 65.41 427.48 63.65 430.15 62.38 429.31 58.91 430.64 57.12 430.73 53.23 433.06 52.1 432.87 48.73 429.68 49.88 428.11 49.3 428.94 42.63 429.74 42.85 432.86 40.53 431.3 38.17 432.16 35.19 431.8 30.36 431.96 24.57 431.38 19.95 429.52 16.43 429.95 14.65 436.37 10.73 440.93 13.68 447.73 16.86 450.86 17.32 449.67 19.63 446.29 22.63 449.69 24.2 450.19 25.96 453.51 27.49 458.08 25.77 458.63 27.51 456.77 32.24 454.39 32.67 454.81 34.67 454.17 38.59 457.82 35.46 462.45 33.8 464.46 32.45 465.46 30.03 Z" id="EG-DK" data-name="Ad Daqahliyah"/>
<path d="M 497.64 38.25 497.81 42.55 493.79 43.92 488.13 44.57 490.87 41.7 492.3 42.9 495.08 43.08 497.38 40.82 497.64 38.25 Z M 436.57 83.67 438.08 81.93 438.31 78.93 436.87 72.08 437.1 69.48 438.69 67.47 441.01 66.8 449.27 66.79 451.13 66.06 453.79 63.49 454.04 60.05 457.18 58.21 458.54 55.27 461.97 51.17 464.71 46.21 469.82 46.04 475.75 44.72 482.28 41.41 484.33 46.2 488.18 45.11 491.42 48.49 492.03 50.81 491.56 53.86 489.63 56.3 486.57 63.93 486.51 66.87 487.36 70.88 485.31 75.8 480.96 81.54 477.16 84.74 468 85.64 463.74 84.55 463.71 86.51 465.81 88.93 468.6 101.47 452.32 112.71 438.71 105.9 437.53 104.56 435.9 99.94 431.31 94.04 432.36 87.98 433.45 86.16 436.57 83.67 Z" fill-rule="evenodd" id="EG-SHR" data-name="Ash Sharqiyah"/>
<path d="M 518.21 53.24 520.88 79.63 521.02 86.38 521.6 89.26 527.6 98.9 531.05 107.9 518.64 107.02 513.99 108.12 509.2 111.62 504.67 111.18 500.69 109.18 495.04 108.74 471.5 109.54 468.6 101.47 465.81 88.93 463.71 86.51 463.74 84.55 468 85.64 477.16 84.74 480.96 81.54 485.31 75.8 487.36 70.88 486.51 66.87 486.57 63.93 489.63 56.3 491.56 53.86 492.03 50.81 491.42 48.49 488.18 45.11 488.13 44.57 493.79 43.92 497.81 42.55 499.2 42.17 518.21 53.24 Z" id="EG-IS" data-name="Al Isma`iliyah"/>
<path d="M 465.46 30.03 464.46 32.45 462.45 33.8 457.82 35.46 454.17 38.59 454.81 34.67 454.39 32.67 456.77 32.24 458.63 27.51 458.08 25.77 453.51 27.49 450.19 25.96 449.69 24.2 446.29 22.63 449.67 19.63 450.86 17.32 452.55 17.26 462.41 14.42 468.26 11.06 470.65 10.28 473.17 10.33 475.25 11.4 479.45 19.35 482.58 22.57 484.99 23.3 484.28 23.81 482.52 23.51 479.29 21.03 478.43 17.77 473.5 11.17 471.64 10.55 468.71 13.16 470.69 15.82 469.12 18.44 470.48 19.92 465.15 25 465.46 30.03 Z" id="EG-DT" data-name="Dumyat"/>
<path d="M 436.37 10.73 429.95 14.65 429.52 16.43 431.38 19.95 431.96 24.57 431.8 30.36 432.16 35.19 431.3 38.17 432.86 40.53 429.74 42.85 425.93 41.13 423.78 42.8 418.13 41.99 416.7 48.62 415.06 49.78 410.35 50.07 407.52 51.99 403.64 52.57 399.14 50.9 398.05 52.49 395.71 49.79 395.71 47.23 393.85 44.2 390.76 42.49 387.75 38.04 384.42 35.76 382.49 36.24 382.1 33.72 380.46 32.58 381.78 30.59 382.28 27.58 381.35 25.27 375.99 21.83 375.91 18.44 374.17 17.33 372.37 15.95 371.82 12.34 375.96 15.03 380.34 16.13 383.17 15.78 392.36 13.3 404.77 9.3 396.26 13.87 389.2 18.04 384.61 18.97 383.61 21.05 387.27 21.64 390.88 20.99 392.27 19.02 396.56 20.25 400.33 17.11 402.88 18.44 405.25 18.02 407.58 18.84 409.56 17.35 413.3 16.75 413.88 14.06 415.79 11.5 418.16 11.68 421.29 13.53 420.76 9.96 414.31 5.57 419.87 4.73 427.94 6.88 436.37 10.73 Z" id="EG-KFS" data-name="Kafr ash Shaykh"/>
<path d="M 369.62 134.78 326.69 108.06 323.63 101.61 327.53 92.13 330.42 89.05 341.12 84 345.59 80.07 348.98 74.21 347.15 69.47 344.13 65.79 339.94 58.92 339.27 55.84 342.25 50.85 340.37 48.04 339.99 44.81 343.71 43.14 348.89 39.89 350.66 37.4 354.58 29.5 359.43 30.51 357.6 32.02 358.94 34.69 362.81 33.91 365.65 31.59 359.88 30.51 364.6 28.06 368.59 24.45 370.01 22.12 371.18 15.83 374.17 17.33 375.91 18.44 375.99 21.83 381.35 25.27 382.28 27.58 381.78 30.59 380.46 32.58 382.1 33.72 382.49 36.24 384.42 35.76 387.75 38.04 390.76 42.49 393.85 44.2 395.71 47.23 395.71 49.79 398.05 52.49 397.41 53.45 399.28 57.12 397.63 59.93 399.77 60.55 398.87 66.01 397.38 68.33 400.21 70.47 398.76 72.83 400.18 75.58 400.32 78.81 402.34 85.7 402.44 89.45 403.78 92.81 403.33 96.74 405.63 98.9 402.6 99.75 402.59 101.86 372.26 129.3 369.62 134.78 Z" id="EG-BH" data-name="Al Buhayrah"/>
<path d="M 323.63 101.61 321.88 50.51 323.22 49 332.85 41.96 333.87 39.95 337.58 39.47 345.29 32.14 349.79 28.72 350.91 26.75 354.58 29.5 350.66 37.4 348.89 39.89 343.71 43.14 339.99 44.81 340.37 48.04 342.25 50.85 339.27 55.84 339.94 58.92 344.13 65.79 347.15 69.47 348.98 74.21 345.59 80.07 341.12 84 330.42 89.05 327.53 92.13 323.63 101.61 Z" id="EG-ALX" data-name="Al Iskandariyah"/>
<path d="M 471.5 109.54 471.58 113.85 473.29 121.22 474.7 136.72 474.21 143.45 432.56 145.2 432.91 141.76 432.38 135.77 430.64 130.96 427.96 126.51 429.03 118.43 433.51 116.74 434.63 114.72 436.44 115.04 442.28 113.17 452.32 112.71 468.6 101.47 471.5 109.54 Z" id="EG-C" data-name="Al Qahirah"/>
<path d="M 470.31 204.58 446.25 197.27 441.8 194.49 438.44 190.78 437.25 188.16 430.19 179.84 430.4 177.56 428.85 174.39 426.73 173.01 423.1 172.16 420.16 172.24 415.5 151.18 410.62 146.92 396.9 148.63 383.19 154.95 371.35 162.01 366.55 165.87 336.05 195.59 333.39 214.45 331.76 220.17 321.16 248.07 312.85 259.09 302.96 266.48 272.73 282.44 268.08 285.97 264.8 290.92 260.13 301.13 173.31 301.13 201.56 240.7 206.45 234.54 211.31 232.57 263.13 218.99 276.32 209.01 318.77 166.03 369.62 134.78 372.26 129.3 402.59 101.86 405.84 100.95 408.08 101.68 408.73 105.04 411.04 105.91 412.12 110.04 415.42 111.26 417.94 110.35 423.01 113.85 425.24 115.75 427.8 116.05 429.03 118.43 427.96 126.51 430.64 130.96 432.38 135.77 432.91 141.76 432.56 145.2 474.21 143.45 474.46 146.94 470.31 204.58 Z" id="EG-GZ" data-name="Al Jizah"/>
<path d="M 409.86 223.42 407.77 241.58 407.06 243.98 403.87 249.45 401.99 254.39 401.44 257.41 402.9 266.49 406.43 273.42 407.8 278.4 408.34 285.39 410.22 291 410.84 297.6 409.66 304.65 402.69 305.5 398.17 303.86 393.79 304.4 392.02 303.63 393.1 301.15 260.13 301.13 264.8 290.92 268.08 285.97 272.73 282.44 302.96 266.48 312.85 259.09 321.16 248.07 331.76 220.17 398.39 218.56 399.55 219.81 409.86 223.42 Z" id="EG-MN" data-name="Al Minya"/>
<path d="M 336.05 195.59 366.55 165.87 371.35 162.01 383.19 154.95 396.9 148.63 410.62 146.92 415.5 151.18 420.16 172.24 417.54 174.88 415.02 179.88 412.34 182.81 409.08 188.29 404.63 193.18 399.14 196.04 371.92 203.72 368.82 203.98 364.47 200.85 336.05 195.59 Z" id="EG-FYM" data-name="Al Fayyum"/>
<path d="M 430.19 179.84 430.06 187.04 427.68 193.07 425.96 196.09 421.2 201.68 417.43 207.8 413.04 213.7 410.43 219.71 409.86 223.42 399.55 219.81 398.39 218.56 331.76 220.17 333.39 214.45 336.05 195.59 364.47 200.85 368.82 203.98 371.92 203.72 399.14 196.04 404.63 193.18 409.08 188.29 412.34 182.81 415.02 179.88 417.54 174.88 420.16 172.24 423.1 172.16 426.73 173.01 428.85 174.39 430.4 177.56 430.19 179.84 Z" id="EG-BNS" data-name="Bani Suwayf"/>
<path d="M 402.59 101.86 402.6 99.75 405.63 98.9 403.33 96.74 403.78 92.81 402.44 89.45 402.34 85.7 400.32 78.81 400.18 75.58 402.54 74.31 408.77 72.81 412.97 75.54 417.7 75.2 419.41 78.16 423.02 78.23 429.92 84.33 428.4 84.74 428.4 87.9 425.21 90.16 425.24 91.57 422.4 93.33 421.69 96.64 417.88 99.83 420.29 101.96 420.09 106.1 421.05 110.82 423.01 113.85 417.94 110.35 415.42 111.26 412.12 110.04 411.04 105.91 408.73 105.04 408.08 101.68 405.84 100.95 402.59 101.86 Z" id="EG-MNF" data-name="Al Minufiyah"/>
<path d="M 430.09 82.56 432.83 83.93 436.57 83.67 433.45 86.16 432.36 87.98 431.31 94.04 435.9 99.94 437.53 104.56 438.71 105.9 452.32 112.71 442.28 113.17 436.44 115.04 434.63 114.72 433.51 116.74 429.03 118.43 427.8 116.05 425.24 115.75 423.01 113.85 421.05 110.82 420.09 106.1 420.29 101.96 417.88 99.83 421.69 96.64 422.4 93.33 425.24 91.57 425.21 90.16 428.4 87.9 428.4 84.74 429.92 84.33 430.09 82.56 Z" id="EG-KB" data-name="Al Qalyubiyah"/>
<path d="M 429.74 42.85 428.94 42.63 428.11 49.3 429.68 49.88 432.87 48.73 433.06 52.1 430.73 53.23 430.64 57.12 429.31 58.91 430.15 62.38 427.48 63.65 428.6 65.41 429.3 70.47 430.05 70.92 431.18 77.04 430.09 82.56 429.92 84.33 423.02 78.23 419.41 78.16 417.7 75.2 412.97 75.54 408.77 72.81 402.54 74.31 400.18 75.58 398.76 72.83 400.21 70.47 397.38 68.33 398.87 66.01 399.77 60.55 397.63 59.93 399.28 57.12 397.41 53.45 398.05 52.49 399.14 50.9 403.64 52.57 407.52 51.99 410.35 50.07 415.06 49.78 416.7 48.62 418.13 41.99 423.78 42.8 425.93 41.13 429.74 42.85 Z" id="EG-GH" data-name="Al Gharbiyah"/>
<path d="M 453.96 362.5 464.93 370.18 467.81 372.99 468.83 375.42 472.05 380.36 473.1 382.84 473.59 386.92 476.17 391.32 478.1 393.61 482.88 396.08 487.16 397.05 489.01 398.06 492.04 403.08 498.96 411.8 497.19 413.7 495.62 413.73 492.66 411.76 489.44 407.05 487.82 406.08 485.26 408.61 479.71 409.92 475.74 413.14 448.4 378.79 442.19 373.47 433.11 362.2 439.19 358.89 442.98 354.69 444.53 355.02 449.63 362.21 453.96 362.5 Z" id="EG-SHG" data-name="Suhaj"/>
<path d="M 524.92 476.25 523.92 483.47 521.59 485.22 515.39 480.46 512.8 476.95 511.82 474.33 510.07 463.96 507.84 455.19 507.81 452.57 509.23 449.65 511.15 447.66 520.16 440.52 522.28 437.65 524.12 430.17 527.75 423.23 527.66 419.28 526.39 417.03 522.29 415.39 517.53 416.24 502.46 423.31 493.5 425.49 489.51 424.86 486.1 422.92 475.74 413.14 479.71 409.92 485.26 408.61 487.82 406.08 489.44 407.05 492.66 411.76 495.62 413.73 497.19 413.7 498.96 411.8 500.98 411.35 514.14 405 519.43 404.2 523.59 404.46 528.69 405.97 533.81 409.87 536.39 413.36 538.93 420.08 539.71 428 538.66 433.6 535.32 440.55 532.66 443.87 526.33 449.59 522.03 454.4 520.36 457.27 519.45 460.72 519.58 464.56 520.7 469.98 522.84 474.3 524.92 476.25 Z M 521.43 446.33 522.61 443.58 521.32 442.94 519.7 446.03 521.43 446.33 Z" fill-rule="evenodd" id="EG-KN" data-name="Qina"/>
<path d="M 409.66 304.65 409.53 313.33 410.37 316.39 412.47 319.53 418.2 322.85 424.83 325.68 428.97 326.98 432.35 329.46 435.28 335.64 440.44 339.94 444.54 344.17 446.97 347.85 453.96 362.5 449.63 362.21 444.53 355.02 442.98 354.69 439.19 358.89 433.11 362.2 424.89 345.56 421.04 341.06 418.76 339.3 412.72 336.81 409.54 334.93 400.86 326.74 398.71 323.82 392.65 310.82 391.75 306.48 392.02 303.63 393.79 304.4 398.17 303.86 402.69 305.5 409.66 304.65 Z" id="EG-AST" data-name="Asyut"/>
<path d="M 521.43 446.33 519.7 446.03 521.32 442.94 522.61 443.58 521.43 446.33 Z" id="EG-LX" data-name="Luxor"/>
</g>
</svg>