<?xml version="1.0"?>
<svg xmlns="http://www.w3.org/2000/svg" version="1.2" baseProfile="tiny" width="800" height="609" viewBox="0 0 800 609" stroke-linecap="round" stroke-linejoin="round">
<g id="MLOC-ES">
<path d="M 232.93 608 230.72 605.51 229.52 602.41 231.44 602.39 235.8 604.87 232.93 608 Z" id="ES-CE" data-name="Ceuta"/>
<path d="M 443.72 39.7 448.17 38.94 449.86 39.89 450.22 42.85 453.24 43.18 454.91 40.56 460.35 42.44 462.36 42.1 464.04 43.85 464.27 46.8 462.73 52.55 459.09 56.85 462.19 60.56 465.24 61.08 466.74 59.66 467.28 55.95 471.59 59.66 475 60.27 478.93 62.97 481.13 62.76 486.06 64.49 488.82 66.87 495.74 67.99 500.26 67.18 502.69 69.95 499.1 71.1 496.75 75.5 496.12 80.51 493.34 84.05 489.07 87 486.28 87.76 485.12 91.45 479.21 92.14 478.3 95.75 475.67 98.78 472.62 99.17 471.03 102.09 471.72 104.39 467.65 110.19 467.16 112.42 468.09 115.35 465.19 119.28 463.28 125.62 464.45 128.99 464.59 132.98 469.18 140.14 465.24 147.52 463.12 150.27 459.36 149.22 455.09 150.06 449.15 146.06 445.25 146.19 442.14 143.63 437.69 142.98 435.45 141.08 435.13 137.06 439.39 131.56 443.46 131.49 445.87 132.31 447.47 131.29 446.81 125.99 437.13 120.57 430.39 111.92 427.13 111.93 424.95 110.19 424.54 107.98 416.94 107.68 412.69 104.22 408.88 104.76 405.19 103.64 405.9 98.23 405.2 95.75 402.61 97.35 400.11 94.69 405.04 90.63 407.55 92.41 411.85 90.4 410.2 85.78 412.3 83.88 412.92 80.18 414.81 76.32 414.18 71.44 415.43 68.63 417.24 67.31 421.23 67.68 423.47 65.39 426.52 63.87 426.65 61.21 428.17 58.05 433.33 54.23 434.17 52.56 433.8 47.96 439.53 44.23 441.28 41.1 443.72 39.7 Z M 481.5 104.76 483.78 107.72 479.85 107.66 481.5 104.76 Z" fill-rule="evenodd" id="ES-NA" data-name="Navarra"/>
<path d="M 443.72 39.7 441.28 41.1 439.53 44.23 433.8 47.96 434.17 52.56 433.33 54.23 428.17 58.05 426.65 61.21 426.52 63.87 423.47 65.39 421.23 67.68 417.24 67.31 415.43 68.63 414.18 71.44 408.21 67.43 396.22 66.41 393.64 64.84 394.46 62.61 397.25 61.36 396.95 56.35 399.78 53.89 399.27 50.44 400.24 45.54 402.06 45.14 404.48 41.9 403.19 40.24 405.15 36.91 412.32 39 417.51 38.09 418.79 39.48 423.23 38.94 435.78 34.75 440.11 31.6 440.95 35.96 442.63 36.78 443.72 39.7 Z" id="ES-SS" data-name="Gipuzkoa"/>
<path d="M 493.34 84.05 496.12 80.51 496.75 75.5 499.1 71.1 502.69 69.95 503.57 73.25 505.31 73.34 508.37 75.47 513.49 81.57 516.58 78.86 521.54 80.2 525.78 77.12 528.38 76.91 531.93 79.07 532.62 80.56 536.82 81.22 539.44 86.11 544.14 88.64 556.36 85.34 560.42 86.63 562.59 89.96 567.21 86.06 569.28 88.64 582.12 88.41 585.37 87.76 588.01 92.71 591.36 94.65 591.12 97.89 587.6 104.66 589.45 109.23 590.51 115.5 589.96 122.17 588.65 125.12 587.72 129.79 587.7 133.56 584.14 143.69 580.25 146.93 581.5 152.99 578.25 156.75 575.57 158.16 573.09 161.81 570.25 162.56 565.71 168.5 566.86 173.39 567.86 174.72 571.31 175.14 572.32 178.81 569.93 182.7 566.88 184.62 566.28 189.8 560.55 188.04 559.28 190 556.04 189.76 554 191.23 552.66 194.11 547.55 193.37 545.56 191.57 542.32 192.39 540.36 184.36 537.48 180.22 536.16 176 534.11 175.01 531.26 176.3 528.01 172.8 525.83 171.66 524.08 167.93 517.74 163.93 516.9 162.41 515.61 155.72 513.92 153.53 510.79 151.91 507.22 146.61 500.75 146.45 496.32 143.34 495.59 140.93 496.64 137.33 500.1 138.45 502.06 137.36 502.69 135.09 501.97 122.61 503.32 120.05 502.99 113.33 501.07 115.74 499.23 120.61 495.85 120.7 494.01 123.29 492.28 121.57 497.18 113.86 496.99 110.77 493.7 108.77 493.31 94.39 492.15 91.73 494.5 89.92 493.06 86.91 493.34 84.05 Z" id="ES-HU" data-name="Huesca"/>
<path d="M 566.28 189.8 566.88 184.62 569.93 182.7 572.32 178.81 571.31 175.14 567.86 174.72 566.86 173.39 565.71 168.5 570.25 162.56 573.09 161.81 575.57 158.16 578.25 156.75 581.5 152.99 580.25 146.93 584.14 143.69 587.7 133.56 587.72 129.79 588.65 125.12 589.96 122.17 590.51 115.5 589.45 109.23 587.6 104.66 591.12 97.89 591.36 94.65 588.01 92.71 585.37 87.76 583.97 81.48 584.95 76.38 588.94 75.83 594.14 76.93 600.49 80.71 609.13 81.37 611.39 82.69 613.01 86.18 623.86 86.39 626.32 88.52 630.32 95.81 629.18 100.17 631.54 103.09 629.05 104.46 631.42 108.61 634.97 109.09 637.08 107.36 642.66 106.08 643.3 103.94 646.93 103.91 648.73 108.49 652.5 109.89 654.02 114.66 654.58 118.81 647.13 120.26 645.41 122.32 645.66 126.27 648.39 129.76 646.61 132.73 644.4 143.26 642.88 148.67 641.26 151.31 642.12 156.57 638.01 161.39 633.43 160.68 630.5 158.74 629.16 160.23 629 166.4 630.86 171.17 627.98 172.35 626.84 174.35 628.17 176.55 626.95 177.3 617.32 176.76 615.57 178.94 615.12 182.79 612 184.58 609.41 183.79 608.77 186.22 606.51 189.78 604.51 190.4 602.64 193.83 598.02 194.8 595.9 193.59 593.68 195.64 582.86 198.19 579.41 196.22 577.62 198.65 575.28 198.12 574.18 195.88 572.14 196.15 571.85 199.96 569.07 199.74 567.58 203.34 567.11 199.71 568.57 196.42 566.28 189.8 Z" id="ES-L" data-name="Lérida"/>
<path d="M 654.58 118.81 654.02 114.66 652.5 109.89 648.73 108.49 646.93 103.91 651.65 104.87 656.18 107.65 659.56 108.43 661.69 113.97 663.57 115.45 666.86 115.16 671.86 110.08 674.63 110.43 680.11 109.09 685.86 112.22 688.62 112.66 691.11 116.09 694.65 117.26 695.99 115.16 702.69 116.22 701.41 113.53 704.35 110.88 708.89 110.61 713.76 107.52 716.7 107.29 718.63 105.78 724.26 106.14 726.37 108.82 729.08 109.38 733.14 108.86 732.76 114.25 734.51 116.17 737.19 115.88 741.17 117.49 739.37 122.26 737.96 124.09 734.86 124.1 731.42 122.74 729.5 125.79 729.71 131.96 732.68 134.22 735.11 137.67 734.02 140.46 734.72 143.86 736.36 145.8 733.96 151.9 731.34 155.28 729.38 155.11 727.14 156.76 726.57 158.93 719.64 164.03 718.59 165.75 713.78 166.95 710.31 169.16 709.52 171 708.41 168.08 709.26 166.7 707.73 163.92 705 162.88 695.96 165.22 689.45 158.63 685.11 158.96 682.49 155.22 683.64 151.83 686.3 153.22 689.81 151.95 691 149.32 689.64 147.07 692.55 143.8 693.33 141.03 690.77 137.28 688.45 137.29 685.3 133.48 681.89 134.14 680.27 131.73 671.41 133.62 667.28 131.73 667 128.41 665.3 125.39 666.21 119.83 662.24 119.71 658.77 117.85 654.58 118.81 Z" id="ES-GI" data-name="Gerona"/>
<path d="M 120.81 354.33 123.56 354.69 126.29 351.03 126.08 347.45 128.59 346.03 131.25 345.98 131.26 350.89 133.18 350.51 134.24 346.51 132.65 341.72 142.06 345.76 145.3 345.33 147.31 346.25 150.11 351.89 147.23 356.7 149.06 360.4 154.26 361.4 155.51 359.77 159.88 361.06 161.03 363.01 163.21 361.64 172.43 362.5 175.49 360.86 175.65 364.96 176.99 367.24 179.62 367.35 181.74 369.79 184.37 370.37 185.89 372.44 188.97 368.42 192.98 365.17 193.53 369.61 195.05 369.86 197.65 366.6 198.66 368.52 202.56 367.02 205.36 363.87 207.86 364.47 212.43 368.55 218.3 365.96 219.01 363.63 216.96 360.55 219.69 359 222.56 359 226.84 362.82 228.84 362.42 232.55 357.51 232.09 354.9 233 350.31 238.43 351.33 242.44 351.34 245.73 349.11 246.29 345.48 248.04 345.17 249.6 347.3 253.41 346.72 256.2 345.12 259.97 347.02 266.61 344.15 267.43 343.13 270.97 340.72 271.84 343.17 269.9 348.75 267.21 350.85 269.92 357.77 272.28 360.37 264.27 359.78 261.91 362.3 260.72 366.79 262.64 371.22 260.14 372.35 256.58 370.81 256.2 374.09 257.99 377.86 261.93 378.9 261.99 382.97 258.05 383.71 256.01 386.94 254.6 392.23 253.06 394.74 250.79 395.3 248.25 395.98 243.57 396.09 242.32 399.99 240.6 400.52 236.02 404.02 234.92 406.05 231.66 406.17 228.3 411.28 224.71 414.78 219.51 418.07 219.64 424.74 222.33 429.94 222.57 433.22 221.34 437.74 218.83 439.78 216.34 439.64 212.22 443.05 210.19 442.74 209.84 440.18 212.08 438.78 210.23 435.8 203.8 436.85 199.2 441.35 199.48 444.38 197.69 448.49 195.64 449.96 187.54 451.45 183.48 454.4 182.48 453.43 173.32 449.86 172.37 447.53 169.99 445.85 167.85 446.02 165.78 448.63 160.68 448.08 159.93 445.62 156.4 442.87 150.28 442.87 146.67 441.43 147.4 436.95 139.42 434.24 138.44 435.05 133.99 434.96 131.83 436.61 129.46 436.9 128.09 435.61 125.72 429.54 116.92 418.12 114.45 416.49 115.86 414.76 115.25 412.91 116.89 408.25 119.34 404.67 118.46 402.09 118.86 396.44 119.66 394.62 124.99 390.6 126.67 388.46 129.38 387.86 132.24 385.75 131.66 382.02 134.24 379.13 137.1 373.76 135.55 368.42 133.26 366.57 130.18 366.32 128.06 367.45 125.7 366.24 125.67 361.91 121.21 360.02 119.94 357.31 120.81 354.33 Z" id="ES-BA" data-name="Badajoz"/>
<path d="M 180.64 531.02 184.98 532.25 188.06 534.35 195.82 535.33 197.67 534.75 200.63 535.48 202.09 531.45 205.6 529.71 210.84 529.78 212.28 527.35 215.24 526.93 218.48 529.58 222.19 528.39 223.98 524.75 224.23 520.96 226.8 520.74 227.92 522.03 226.65 525.57 228.04 527.48 234.44 522.67 235.55 522.93 238.24 527.06 240.08 527.58 242.57 526.02 244.58 523.6 247.24 527.12 247.76 531.7 245.23 535.35 241.54 536.43 237.51 533.14 235.87 533.25 233.27 535.65 233.4 538.15 235.48 540.71 234.09 543.79 233.02 548.36 230.41 550.68 226.82 551.88 225.18 554.47 223.04 556.14 218.14 557.7 217.25 559.08 219.39 560.99 227.03 558.79 228.55 560.01 229.95 563.02 232.07 565.36 233.26 568.17 234.15 573.3 236.63 572.42 238.04 575.32 233.32 583.28 233.05 586.68 229.1 583.91 227.23 585.2 227.77 591.06 226.78 592.76 217.02 596.46 215.97 594.26 212.47 592.06 211.07 592.58 206.21 590.72 204.05 588.04 199.1 583.55 195.2 584.07 192.08 583.16 188.09 576.52 184.87 574.8 183.42 569.96 181.42 567.64 179.14 562.24 181.38 562.35 180.45 554.99 176.99 551.98 173 551.71 171.07 550.51 168.9 544.82 168.8 542.14 173.17 539.6 174.56 537.22 174.38 532.42 176.37 530.7 180.64 531.02 Z" id="ES-CA" data-name="Cádiz"/>
<path d="M 63.79 130.92 66.07 129.38 67.16 123.61 63.01 124.72 60.67 121.02 61.46 118.1 58.17 114.48 56.75 108.78 56.85 104.02 59.06 104.19 62.23 100.91 64.27 100.22 66.64 97.68 68.23 99.54 72.9 99.26 75.74 100.06 77.27 97.81 80.9 97.16 82.67 98.91 82.89 102.96 84.97 103.09 89.66 105.63 91.35 107.3 93.54 107.3 99.3 111.2 101.66 110.76 104.96 111.77 110.98 108.73 113.83 109.68 116.74 109.38 120.53 110.87 123.64 117.29 126.68 109.2 129.48 106.77 131.37 103.13 136.53 103.82 140.23 102.39 146.04 104.6 146.76 106.27 144.98 110.56 149.89 114.34 151.05 116.05 150.9 118.92 148.26 123.05 146.95 125.82 143.36 125.9 139.47 129.3 138.14 132.62 134.09 137.09 137.57 140.84 136.51 146 132.53 147.66 127 144.06 123.8 145.94 123.92 150.85 120.78 153.83 116.61 155.28 111.74 156.08 109.55 158.39 107.98 154.72 105.71 153.74 104.33 155.69 101 156.95 99.01 156.31 99.88 153.09 96.73 152.95 93.15 151.03 91.5 151.89 85.66 152.88 82.91 154.29 77.21 153.84 73.99 157.56 71.35 158.33 66.3 158.01 66 154.31 63.24 152.07 63.88 149.18 66.15 145.81 70.5 142.21 71.26 139.84 68.76 137.31 65.61 138.17 64.66 136.29 64.84 132.89 63.79 130.92 Z" id="ES-OR" data-name="Orense"/>
<path d="M 256.2 345.12 253.41 346.72 249.6 347.3 248.04 345.17 246.29 345.48 245.73 349.11 242.44 351.34 238.43 351.33 233 350.31 232.09 354.9 232.55 357.51 228.84 362.42 226.84 362.82 222.56 359 219.69 359 216.96 360.55 219.01 363.63 218.3 365.96 212.43 368.55 207.86 364.47 205.36 363.87 202.56 367.02 198.66 368.52 197.65 366.6 195.05 369.86 193.53 369.61 192.98 365.17 188.97 368.42 185.89 372.44 184.37 370.37 181.74 369.79 179.62 367.35 176.99 367.24 175.65 364.96 175.49 360.86 172.43 362.5 163.21 361.64 161.03 363.01 159.88 361.06 155.51 359.77 154.26 361.4 149.06 360.4 147.23 356.7 150.11 351.89 147.31 346.25 145.3 345.33 142.06 345.76 132.65 341.72 134.24 346.51 133.18 350.51 131.26 350.89 131.25 345.98 128.59 346.03 126.08 347.45 126.29 351.03 123.56 354.69 120.81 354.33 116.36 348.97 116.05 345.67 117.13 340.14 112.09 337.39 111.03 335.06 109.04 334.02 105.26 329.76 102.82 323.2 115.49 323.81 121.7 322.69 124.8 323.56 133.44 322.48 134.97 320.48 135.95 315.99 135.52 313.83 138.3 311.51 139.98 308.55 140.1 304.66 142.6 298.01 138.14 290.82 134.61 289.58 133.01 284.79 134.08 282.11 138.2 279.26 141.61 279.09 142.9 277.27 145.84 279.79 149.7 279.91 152.11 278.83 153.82 279.53 159.89 277.82 161.59 276.66 161.48 274 163.97 271.63 172.94 267.16 175.27 264.39 180.34 261.83 182.1 261.98 190.18 268.25 189.54 271.94 194.96 275.42 199.89 276.88 202 273.75 206.27 272.44 206.45 275.97 210.22 276.13 212.61 277.09 217.49 281.87 221.25 283.56 224.87 283.04 228.07 280.04 231.03 279.17 231.71 286.06 233.68 289.82 231.94 290.63 231.19 293.47 230.97 299.11 229.98 304.81 230.27 307.83 233.55 307.22 235.95 309.3 234.87 311.96 234.33 316.17 237.66 317.67 240.68 314.58 243.06 314.57 243.23 318.06 244.61 320.11 244.02 324.48 241.33 329.31 248.28 337.45 250.63 338.57 256.2 345.12 Z" id="ES-CC" data-name="Cáceres"/>
<path d="M 210.22 276.13 206.45 275.97 206.27 272.44 202 273.75 199.89 276.88 194.96 275.42 189.54 271.94 190.18 268.25 182.1 261.98 180.34 261.83 175.27 264.39 172.94 267.16 163.97 271.63 161.48 274 161.59 276.66 159.89 277.82 153.82 279.53 152.11 278.83 149.7 279.91 145.84 279.79 142.9 277.27 143.52 275.59 146.57 273.18 147.6 271.32 144.27 267.23 143.92 264.71 146.38 260.05 146.22 257.78 144.44 255.24 144.67 252.69 146.44 248.86 145.11 241.42 145.12 233.9 144.51 230.9 142.28 225.46 138.91 220.24 141 217.12 146.22 217.27 149.34 213.01 149.68 209.66 152.74 206.34 156.28 200.62 161.16 200.38 165.93 197.86 175.34 199.62 186.68 206.12 187.82 204.91 190.93 205.25 192.91 206.68 192.61 208.63 197.36 210.49 199.24 208.81 198.89 205.49 200.74 203.15 205.31 204.61 211.15 203.67 214.17 202.46 217.06 205.22 220.7 205.38 223.77 207.67 229.01 207.03 229.35 209.97 231.65 210.27 235.26 212.15 235.98 207.3 238.61 206.48 240.54 208.41 242.69 208.6 245.59 211.2 244.04 215 244.3 217.57 246.41 218.77 247.31 221.36 245.45 225.04 246.4 228.11 243.4 231.74 243.45 235.58 238.62 241.68 231.62 246.76 230.3 250.99 226.67 253.56 222.57 253.83 222.89 256.51 227.31 256.55 225.95 261.81 222.68 263.66 221.55 266.54 218.27 262.28 216.72 262.74 212.57 266.06 212.99 272.02 210.22 276.13 Z" id="ES-SA" data-name="Salamanca"/>
<path d="M 136.51 146 137.57 140.84 134.09 137.09 138.14 132.62 139.47 129.3 143.36 125.9 146.95 125.82 148.26 123.05 152.82 125.89 158.06 126.8 161.49 126.68 165.44 128.5 169.13 127.09 174.3 127.24 175.95 126.6 177.83 129 182.28 131.34 191.59 130.6 196.82 133.12 200.51 131.17 201.9 133.42 203.73 133.7 208.61 132.26 209.31 134.1 215.17 132.89 216.26 136.47 220.45 138.09 222.37 135.41 223.13 138.53 225.25 142.57 224.48 144.31 227.2 145.66 228.19 140.65 230.85 139.8 236.47 144.74 235.09 146.61 235.52 149.29 234.86 153.25 236.52 157.8 229.97 161.93 233.74 169.06 234.5 173.47 236.56 174.8 235.92 177.49 239.51 180.21 237.41 182.17 233.48 183.93 233.01 187.67 234.08 189.38 233.62 193.61 235.18 197.66 235.65 201.78 234.84 204.48 235.98 207.3 235.26 212.15 231.65 210.27 229.35 209.97 229.01 207.03 223.77 207.67 220.7 205.38 217.06 205.22 214.17 202.46 211.15 203.67 205.31 204.61 200.74 203.15 198.89 205.49 199.24 208.81 197.36 210.49 192.61 208.63 192.91 206.68 190.93 205.25 187.82 204.91 186.68 206.12 175.34 199.62 165.93 197.86 168.94 195.04 172.15 190.51 175.39 188.73 177.63 185.13 177.45 183.46 182.15 176.92 178.25 172.37 172.75 169.59 167.19 168.57 164.1 170.58 161.64 168.7 160.34 163.6 161.36 161.46 163.46 153.54 160.44 152.32 160.92 148.91 159.89 146.66 155.68 148.36 149.75 148.01 147.61 144.68 144.05 147.58 138.76 147.55 136.51 146 Z" id="ES-ZA" data-name="Zamora"/>
<path d="M 80.9 97.16 77.27 97.81 75.74 100.06 72.9 99.26 68.23 99.54 66.64 97.68 64.27 100.22 62.23 100.91 59.06 104.19 56.85 104.02 56.75 108.78 58.17 114.48 61.46 118.1 60.67 121.02 63.01 124.72 67.16 123.61 66.07 129.38 63.79 130.92 59.5 132.79 56.48 135.03 47.42 136.51 43.21 138.77 40.04 139.04 37.46 143.09 32.77 145.53 31.22 148.04 25.26 150.41 24.09 135.03 24.91 133.11 28.32 132.75 27.41 130.08 31.52 125.48 40.14 119.16 37.23 119.39 30.13 122.63 25.92 122.77 28.08 116.01 31.23 116.12 34.17 112.26 37.95 109.23 36.26 108.14 32.37 110.79 29.23 111.31 25.92 110.2 25.17 107.79 21.95 105.08 25.11 103.68 26.85 106.53 28.32 106.45 29.12 103.19 28.53 97.87 31.32 95.06 33.93 88.38 34.79 86.94 38.95 85.42 41.1 86.03 42.91 83.79 47.35 82.97 49.11 84 52.09 82.92 53.83 80.3 57.12 80.14 57.12 76.04 59.83 77.85 62.04 76.55 64.51 77 66.6 75.21 73.95 76.69 76.85 75.55 78.92 76.07 78.1 80.97 80.81 84.26 83.86 85.7 83.12 92.62 80.9 97.16 Z" id="ES-PO" data-name="Pontevedra"/>
<path d="M 138.44 435.05 139.42 434.24 147.4 436.95 146.67 441.43 150.28 442.87 156.4 442.87 159.93 445.62 160.68 448.08 165.78 448.63 167.85 446.02 169.99 445.85 172.37 447.53 173.32 449.86 182.48 453.43 183.48 454.4 184.43 456.63 186.78 456.77 185.62 461.14 186.93 464.39 183.37 464.49 181.6 465.98 181.66 468.92 180.04 469.88 178.61 467.4 175.98 467.35 167.88 469.61 166.71 470.33 163.26 475.28 164.54 477.98 168.22 477.85 171.1 479.27 170.68 481.41 172.21 483.57 173.34 487.28 175.73 491.56 175.59 492.89 172.86 494.52 173.12 497.36 172 499.7 173.92 501.49 173.38 506.53 174.04 510.87 173.52 515.48 171.92 518.47 173.44 524.97 172.03 528.72 174.33 530.88 173.55 532.67 173.89 537.1 171.46 537.96 169.8 535.79 167.9 530.92 164.91 526.84 150.51 516.42 146.59 514.77 141.82 511.62 139.58 506.65 138.96 511.28 133.81 508.75 116.29 509.04 114.23 510.5 111.21 509.68 110.05 504.78 109.42 495.37 107.6 487.42 105.28 484.82 104.44 482.02 107.85 476.85 108.68 472.16 110.51 468.41 115.91 463.85 117.52 460.97 119.77 453.64 119.53 451.57 122.43 450.32 126.6 449.81 128.3 446.87 132.64 448.35 134.13 448.17 138.02 437.31 138.44 435.05 Z" id="ES-H" data-name="Huelva"/>
<path d="M 628.17 176.55 626.84 174.35 627.98 172.35 630.86 171.17 629 166.4 629.16 160.23 630.5 158.74 633.43 160.68 638.01 161.39 642.12 156.57 641.26 151.31 642.88 148.67 644.4 143.26 646.61 132.73 648.39 129.76 645.66 126.27 645.41 122.32 647.13 120.26 654.58 118.81 658.77 117.85 662.24 119.71 666.21 119.83 665.3 125.39 667 128.41 667.28 131.73 671.41 133.62 680.27 131.73 681.89 134.14 685.3 133.48 688.45 137.29 690.77 137.28 693.33 141.03 692.55 143.8 689.64 147.07 691 149.32 689.81 151.95 686.3 153.22 683.64 151.83 682.49 155.22 685.11 158.96 689.45 158.63 695.96 165.22 705 162.88 707.73 163.92 709.26 166.7 708.41 168.08 709.52 171 690.21 179.67 685.62 183.28 681.24 185.15 677.93 188.62 675.09 193.65 671.49 197.8 667.36 200.07 660.97 201.16 655.25 203.09 653.25 203 641.77 206.51 641.98 204.5 639.42 203.65 640.85 198.99 639.53 198.01 637.97 192.91 633.61 189.68 632.82 188.18 633.46 184.27 628.88 181.91 630.23 178.32 628.17 176.55 Z" id="ES-B" data-name="Barcelona"/>
<path d="M 567.58 203.34 569.07 199.74 571.85 199.96 572.14 196.15 574.18 195.88 575.28 198.12 577.62 198.65 579.41 196.22 582.86 198.19 593.68 195.64 595.9 193.59 598.02 194.8 602.64 193.83 604.51 190.4 606.51 189.78 608.77 186.22 609.41 183.79 612 184.58 615.12 182.79 615.57 178.94 617.32 176.76 626.95 177.3 628.17 176.55 630.23 178.32 628.88 181.91 633.46 184.27 632.82 188.18 633.61 189.68 637.97 192.91 639.53 198.01 640.85 198.99 639.42 203.65 641.98 204.5 641.77 206.51 636.78 206.88 622.04 212.43 617.91 213.33 615.9 216.61 613.44 215.9 608.39 216.43 604.56 218.4 597.93 225 594.72 229.29 588.35 235.84 587.21 238.11 590.46 239.69 591.44 238.19 597.63 244.23 596.22 246.68 592.45 247.8 590.82 249.25 587.93 253.8 586.17 255.21 582.58 256.11 581.2 253.9 587.29 253.26 589.43 249.91 586.47 249.87 581.63 251.45 578.62 254.65 577.17 258.22 573.2 256.44 572.07 254.26 569.17 252.22 563.63 250.03 563.31 246.03 560.74 244.54 559.3 242.41 556.58 242.38 556.56 241.12 559.77 239.22 562.39 234.76 561.08 230.15 563.43 222.85 562.52 220.02 559.8 218.12 559.13 215.99 558.69 212.17 564.01 208.64 565.27 204.81 567.58 203.34 Z" id="ES-T" data-name="Tarragona"/>
<path d="M 556.58 242.38 559.3 242.41 560.74 244.54 563.31 246.03 563.63 250.03 569.17 252.22 572.07 254.26 573.2 256.44 577.17 258.22 575.85 261.46 573 265.33 567.01 276.83 561.97 282.61 558.47 285.55 554.91 292.67 550.31 296.27 546.25 303.93 541.07 310.36 535.01 320.48 530.46 317.76 528.28 314.99 526.15 314.22 524.16 315.33 522.38 318.2 518.36 319.52 515.13 314.31 510.1 318.15 508.47 317.24 507.92 311.28 505.86 310.02 503.16 312.44 499.98 308.09 498.07 305.89 497.17 302.86 498.03 300.13 501.45 297.99 501.95 296.06 506.28 295.31 510.36 293.21 510.42 289.97 512.19 288.37 515.06 280.25 517.01 281.03 520.46 280.46 523.45 278.44 523.48 276.01 526.96 272.15 529.28 270.62 529.46 268.79 526.73 265.82 527.43 263.57 530.14 262.42 529.01 259.63 529.15 252.07 524.44 251.11 524.28 247.86 526.13 246.8 528.55 247.62 532.68 245.18 533.31 241.26 534.99 238.89 536.69 238.58 542.05 242.39 547.49 242.75 549.07 245.07 551.21 243.5 556.58 242.38 Z" id="ES-CS" data-name="Castellón"/>
<path d="M 499.98 308.09 503.16 312.44 505.86 310.02 507.92 311.28 508.47 317.24 510.1 318.15 515.13 314.31 518.36 319.52 522.38 318.2 524.16 315.33 526.15 314.22 528.28 314.99 530.46 317.76 535.01 320.48 534.16 324.4 530.6 329.39 527.45 335.67 527.02 338.39 527.6 345.41 528.74 350.43 533.78 361.06 532.21 362.24 534.1 368.87 539.34 378.51 544.61 383.67 532.9 385.89 528.18 383.76 521.97 388.46 511.48 390.28 513.22 393.26 515.15 392.73 516.66 394.21 510.3 397.9 503.57 393.48 498.51 394.37 495.54 391.85 491.8 391 492.82 388.06 492.37 383.41 490.12 379.35 488.25 378.5 485.5 379.55 480.62 379.91 478.84 378.71 473.15 371.94 472.34 369.25 474.41 363.71 475.88 361.93 477.24 358.13 477.29 351.79 467.79 348.93 461.17 345.25 458.32 342.83 457.35 341.39 458.71 331.78 460.54 330.03 462.63 325.84 465.89 322.91 470.58 323.75 472.14 322.13 472.05 318.34 474.49 314.31 475.82 309.18 476.21 302.5 479.19 300.84 480.13 301.47 484.59 300.34 487.71 300.31 492.24 302.09 493.32 303.72 493.46 309.02 496.71 309.79 499.98 308.09 Z M 478.18 297.83 473.47 298.91 466.04 297.46 463.26 290.31 461.4 287.22 466.35 288 468.68 287.26 469.28 283.72 475.1 289.82 478.86 290.27 483.03 293.67 482.34 296.06 478.18 297.83 Z" fill-rule="evenodd" id="ES-V" data-name="Valencia"/>
<path d="M 491.8 391 495.54 391.85 498.51 394.37 503.57 393.48 510.3 397.9 516.66 394.21 515.15 392.73 513.22 393.26 511.48 390.28 521.97 388.46 528.18 383.76 532.9 385.89 544.61 383.67 545.85 384.66 552.94 386.15 555.46 387.57 557.16 390.53 560.16 393.08 551.3 400.38 549.97 402.34 545.56 403.12 543.21 405.31 542.9 408.51 541.13 409.81 534.56 411 532.69 412.34 527.09 414.72 523.23 418.93 522.14 422.6 520.25 422.71 518.58 424.7 516.5 424.58 515.97 427.55 516.84 434.39 510.65 436.57 508.56 441.2 508.01 450.65 504.26 454.1 501.78 461.33 497.2 459.69 492.62 454.81 488.77 447.89 486.55 444.75 485.8 441.14 488.72 434.71 489.54 429.64 488.69 426.64 487.03 424.85 483.23 423.73 482.91 417.63 486.32 413.71 487.39 407.62 486.43 400.86 491.27 400.15 493.39 398.29 491.11 395.09 490.45 392.72 491.8 391 Z" id="ES-A" data-name="Alicante"/>
<path d="M 486.43 400.86 487.39 407.62 486.32 413.71 482.91 417.63 483.23 423.73 487.03 424.85 488.69 426.64 489.54 429.64 488.72 434.71 485.8 441.14 486.55 444.75 488.77 447.89 492.62 454.81 497.2 459.69 501.78 461.33 500.17 463.04 498.74 466.96 496.66 468 496.38 470.4 498.88 474.62 502.12 476.52 504.87 476.39 505.02 478.14 497.33 481.33 495.13 481.33 492.12 482.85 489.28 481.33 483.62 480.87 477.92 483.75 477.24 482.26 473.48 481.12 472.37 482.72 468.72 482.4 466.06 483.93 463.44 486.51 460.09 488.3 459.06 491.93 450.07 495.79 444.74 491.55 438.51 490.33 428.99 475.59 429.31 469.53 428.86 465.63 430.04 459.47 424.51 458.71 421.66 457.4 418.94 457.57 416.72 456.14 413.68 453.32 411.64 449.81 409.16 447.88 410 445.21 414.32 439.69 416.59 435.24 419.03 433.15 421.55 432.3 425.56 428.17 427.66 427.53 429.92 429.01 435.73 426.99 443.67 421.44 447.63 422.78 447.7 425.09 450.94 426.6 454.43 425.49 458.69 421.98 459.67 419.69 459.22 413.69 458.26 409.85 461.06 405.73 462.27 400.76 465.08 397.67 468.11 398.44 474.03 394.27 477.5 393.37 481.02 394.83 481.55 396.87 486.43 400.86 Z" id="ES-MU" data-name="Murcia"/>
<path d="M 416.72 456.14 418.94 457.57 421.66 457.4 424.51 458.71 430.04 459.47 428.86 465.63 429.31 469.53 428.99 475.59 438.51 490.33 444.74 491.55 450.07 495.79 448.35 497.1 444.96 503.07 440.02 508.63 437.53 518.24 434.54 524.79 434.98 527.55 428.86 532.18 428.26 535.21 425.69 537.82 424.85 540.37 421.59 543.23 419.28 543.87 417.08 543.17 412.43 537.82 407.8 535.87 403.61 537.37 400.77 536.37 395.17 537.73 392.8 543.81 390.35 546.27 384.61 547.33 380.84 544.87 378.62 545.53 377.02 543.37 374.25 542.11 371.05 543.17 365.84 542.25 362.8 542.49 362.1 539.45 368.63 535.3 366.36 530.15 370.51 526.03 370.76 523.93 369.43 518.75 370.46 516.85 373.62 515.55 374.56 512.29 377.1 510.67 378.55 504.66 381.81 504.1 384.6 506.76 387.33 506.97 390.28 508.27 389.96 502.93 391.34 495.63 400.26 487.78 407.99 485.35 406.96 478.68 410.48 477.95 410.16 472.33 412.45 467.41 411.98 463.21 413.08 458.66 416.72 456.14 Z" id="ES-AL" data-name="Almería"/>
<path d="M 409.16 447.88 411.64 449.81 413.68 453.32 416.72 456.14 413.08 458.66 411.98 463.21 412.45 467.41 410.16 472.33 410.48 477.95 406.96 478.68 407.99 485.35 400.26 487.78 391.34 495.63 389.96 502.93 390.28 508.27 387.33 506.97 384.6 506.76 381.81 504.1 378.55 504.66 377.1 510.67 374.56 512.29 373.62 515.55 370.46 516.85 369.43 518.75 370.76 523.93 370.51 526.03 366.36 530.15 368.63 535.3 362.1 539.45 362.8 542.49 356.95 541.88 350.98 542.6 345.96 546.22 342.3 546.18 340.04 544.35 338.06 544.99 335.05 542.78 331.26 543.01 327.4 544.13 324.71 543.27 325.24 538.42 321.77 534.5 318.93 534.67 302.92 527.67 296.31 522.11 295.16 519.71 294.78 515.07 292.83 510.14 296.65 506.98 296.17 504.7 297.71 502.04 297.81 499.77 299.35 497.91 303.58 497.52 307.15 494.13 311.58 494.23 314.52 495.98 320.95 495.4 323.85 489.48 330.23 485.65 333.52 484.81 340.56 478.59 342.84 479.11 345.44 481.92 346.89 482.24 351.83 481.23 355.55 477.13 359.34 476.92 365 479.88 367.32 478.63 371.31 479.47 371.73 477.16 376.08 474.71 376.19 468.58 376.81 466.65 382.88 456.38 387.96 451.89 389.66 452.73 393.91 449.43 393.66 445.23 396.9 443.84 401.68 446.17 407.83 448.04 409.16 447.88 Z" id="ES-GR" data-name="Granada"/>
<path d="M 238.04 575.32 236.63 572.42 234.15 573.3 233.26 568.17 232.07 565.36 229.95 563.02 228.55 560.01 227.03 558.79 219.39 560.99 217.25 559.08 218.14 557.7 223.04 556.14 225.18 554.47 226.82 551.88 230.41 550.68 233.02 548.36 234.09 543.79 235.48 540.71 233.4 538.15 233.27 535.65 235.87 533.25 237.51 533.14 241.54 536.43 245.23 535.35 247.76 531.7 247.24 527.12 244.58 523.6 257.83 515.56 258.68 514 256.08 512.44 257.58 510.66 260.07 511.66 262.33 509.76 264.89 512.21 268.31 510.53 269.46 508.07 269.38 504.75 273.29 505.03 275.6 505.08 276.63 507.56 279.97 508.32 283.42 506.29 285.51 503.43 289.12 503.43 289.78 508.01 292.83 510.14 294.78 515.07 295.16 519.71 296.31 522.11 302.92 527.67 318.93 534.67 321.77 534.5 325.24 538.42 324.71 543.27 321.11 542.08 313.92 543.93 308.3 542.38 305.16 544.01 298.44 544.99 287.96 544.14 286.2 545.11 280.83 554.62 277.13 555.13 275.53 558.29 272.93 559.96 269.21 561.03 258.65 560.04 253.28 563.66 249.27 564.01 246.55 565.7 241.98 567.01 239.6 570.89 238.04 575.32 Z" id="ES-MA" data-name="Málaga"/>
<path d="M 183.48 454.4 187.54 451.45 195.64 449.96 197.69 448.49 199.48 444.38 199.2 441.35 203.8 436.85 210.23 435.8 212.08 438.78 209.84 440.18 210.19 442.74 212.22 443.05 216.34 439.64 218.83 439.78 218.78 441.24 223.81 446.66 224.84 451.25 228.17 454.27 228.67 458.41 232.41 462.47 233.29 465.77 234.75 466.71 234.67 472.32 230.04 472.35 228.63 474.1 229.39 477.28 232.72 478.84 236.69 477.77 241.72 474.42 245.34 474.72 246.77 472.84 251.37 471.39 253.99 472.9 255.54 476.02 255.56 478.22 257.16 480.79 256.23 485.5 258.32 487.38 259.69 491.57 261.75 493.6 263.38 497.48 266.82 499.65 269.92 497.22 271.88 498.76 273.29 505.03 269.38 504.75 269.46 508.07 268.31 510.53 264.89 512.21 262.33 509.76 260.07 511.66 257.58 510.66 256.08 512.44 258.68 514 257.83 515.56 244.58 523.6 242.57 526.02 240.08 527.58 238.24 527.06 235.55 522.93 234.44 522.67 228.04 527.48 226.65 525.57 227.92 522.03 226.8 520.74 224.23 520.96 223.98 524.75 222.19 528.39 218.48 529.58 215.24 526.93 212.28 527.35 210.84 529.78 205.6 529.71 202.09 531.45 200.63 535.48 197.67 534.75 195.82 535.33 188.06 534.35 184.98 532.25 180.64 531.02 177.59 529.32 174.33 530.88 172.03 528.72 173.44 524.97 171.92 518.47 173.52 515.48 174.04 510.87 173.38 506.53 173.92 501.49 172 499.7 173.12 497.36 172.86 494.52 175.59 492.89 175.73 491.56 173.34 487.28 172.21 483.57 170.68 481.41 171.1 479.27 168.22 477.85 164.54 477.98 163.26 475.28 166.71 470.33 167.88 469.61 175.98 467.35 178.61 467.4 180.04 469.88 181.66 468.92 181.6 465.98 183.37 464.49 186.93 464.39 185.62 461.14 186.78 456.77 184.43 456.63 183.48 454.4 Z" id="ES-SE" data-name="Sevilla"/>
<path d="M 76.85 75.55 73.95 76.69 66.6 75.21 64.51 77 62.04 76.55 59.83 77.85 57.12 76.04 57.12 80.14 53.83 80.3 52.09 82.92 49.11 84 47.35 82.97 42.91 83.79 41.1 86.03 38.95 85.42 34.79 86.94 33.93 88.38 32.58 90.9 23.81 93.41 19.91 97.1 19.27 99.33 16.59 99.97 16.18 97.18 13.98 95.75 15.86 90.56 16.37 86.84 20.3 83.35 24.89 78.26 19.47 80.07 16.48 79.63 14.11 82.68 11.48 82.17 10.21 78.44 11.78 75.87 9.85 74.86 9.84 69.73 4.98 68.22 2.11 71.98 1 69.63 3.41 62.08 2.17 60.91 3.72 56.35 8.61 54.23 8.55 52.19 5.37 50.94 10.04 47.22 12.24 48.18 15.06 47.63 17.9 44.22 22.1 44.5 19.85 40.36 27.46 36.13 30.73 38.27 36.15 39.81 42.06 37.32 44.06 38.21 47.14 36.73 50.83 33.2 58.6 30.95 61.15 32.34 62.13 34.85 64.95 36.92 64.32 29.18 61.3 28.99 59.88 25.3 57.28 25.42 58.75 19.36 63.2 17 71.75 10.43 73.36 6.13 76.19 5.94 79.6 4.45 82.2 1.5 84.97 4.36 84.61 7.1 90.12 3.44 96.31 1 94.67 4.33 93.89 8.99 94.98 10.64 93.06 12.92 92.69 16.51 91.29 17.98 91.75 21.39 89.74 27.24 86.46 31.05 83.76 30.59 83.33 35.93 80.85 39.28 81.04 42.89 79.11 48.15 81.26 56.02 80.66 59.26 82.33 64.42 82.02 68.5 80.62 71.17 78.29 72.81 76.85 75.55 Z" id="ES-C" data-name="La Coruña"/>
<path d="M 131.37 103.13 129.48 106.77 126.68 109.2 123.64 117.29 120.53 110.87 116.74 109.38 113.83 109.68 110.98 108.73 104.96 111.77 101.66 110.76 99.3 111.2 93.54 107.3 91.35 107.3 89.66 105.63 84.97 103.09 82.89 102.96 82.67 98.91 80.9 97.16 83.12 92.62 83.86 85.7 80.81 84.26 78.1 80.97 78.92 76.07 76.85 75.55 78.29 72.81 80.62 71.17 82.02 68.5 82.33 64.42 80.66 59.26 81.26 56.02 79.11 48.15 81.04 42.89 80.85 39.28 83.33 35.93 83.76 30.59 86.46 31.05 89.74 27.24 91.75 21.39 91.29 17.98 92.69 16.51 93.06 12.92 94.98 10.64 93.89 8.99 94.67 4.33 97.91 2.62 99.9 7.62 103.76 4.32 106.77 4.84 113.99 8.51 117.69 15.13 122.03 17.55 126.32 18.31 130.88 17.55 133.64 18.82 132.78 24.43 128.92 28.83 125.74 29.31 125.74 32.32 128.14 33.41 128.4 36.31 131.35 39.46 132.54 44.33 137.56 47.74 137.24 51.23 138.86 52.77 143.38 49.33 145.42 53.77 143.23 55.77 138.75 57.26 136.21 61.87 143.23 64.33 145.11 66.42 145.62 70.26 143.73 73.49 143.56 78.78 140.35 82.87 137.55 83.7 133.61 86.95 133.41 89.38 134.7 92.14 132.93 94.07 133.02 97.22 131.37 103.13 Z" id="ES-LU" data-name="Lugo"/>
<path d="M 145.62 70.26 145.11 66.42 143.23 64.33 136.21 61.87 138.75 57.26 143.23 55.77 145.42 53.77 143.38 49.33 138.86 52.77 137.24 51.23 137.56 47.74 132.54 44.33 131.35 39.46 128.4 36.31 128.14 33.41 125.74 32.32 125.74 29.31 128.92 28.83 132.78 24.43 135.46 18.52 138.83 17.77 148.99 17.55 152.93 18.45 156.16 16.71 159.15 17.02 164.29 19.27 172.74 17.55 175.77 17.55 181.16 15.34 183.78 17.01 190.17 17.47 192.85 15.95 199.67 15.95 199.67 12.02 202.25 11.65 202.91 9.9 207.01 12.01 211.32 17.55 216.21 18.66 228.03 18.16 231.07 21.48 232.86 19.82 236.26 20.4 242.49 23.97 247.55 24.22 254.39 26.45 255.72 25.53 262.53 27.18 268.49 29.82 281.47 30.97 280.09 35.38 280.9 40.25 279.28 40.96 276.85 39.43 273.88 41.52 269.62 42.13 268.04 47.97 262.8 48.25 261.19 45.45 258.31 44.33 252.45 47.91 248.7 49.56 246 54.7 243.57 54.33 240.49 55.87 234.88 56.56 231.74 56.07 228.35 59.26 225.15 59.32 224.13 61.12 221.18 61.67 213.89 59.55 210.08 60.17 207.23 65.46 203.34 65.7 196.9 62.01 195.92 59.3 189.59 58.2 188.22 60.63 186.28 61.25 182.51 60.13 180.47 62.27 172.82 59.29 171.18 60.03 169.89 63.03 165.99 64.84 167.88 67.35 161.24 70.11 156.92 69.26 152.01 69.83 148.99 71.92 145.62 70.26 Z" id="ES-O" data-name="Asturias"/>
<path d="M 262.8 48.25 268.04 47.97 269.62 42.13 273.88 41.52 276.85 39.43 279.28 40.96 280.9 40.25 280.09 35.38 281.47 30.97 283.36 32.53 286.24 30.99 289 32.53 290.54 31.23 293.27 31.54 300.56 30.77 305.9 28.32 309.92 28.11 316.17 24.52 318.33 24.8 321.8 23.35 325.18 24.8 320.77 27.56 323.58 28.71 326.85 27.78 328.19 24.51 336.32 21.64 337.79 21.74 342.74 26.82 343.26 30.19 347.29 29.21 354.54 30.87 358.59 32.37 361.49 34.42 360.92 38.65 358.38 39.9 351.37 39.27 345.04 43.84 344.45 48.3 345.45 52.12 339.86 51.87 332.3 49.26 325.35 55.92 321.12 56.62 320.87 58.82 314.41 63.49 312.52 69.38 315.87 70.74 319.58 67.6 321.24 69.21 316.96 73.03 321.53 73.67 322.45 78.65 318.5 79.69 316.48 81.58 313.67 82.46 308.86 81.85 306.6 82.41 304.56 80.34 302.32 79.98 300.79 77.58 303.32 76.69 302.82 74.48 298.64 75.44 297.61 69.11 296.71 66.83 290.7 64.6 288.1 60.75 284.46 59.33 279.21 61.5 268.97 62.15 266.41 57.11 263.04 54.74 262.8 48.25 Z" id="ES-S" data-name="Cantabria"/>
<path d="M 405.15 36.91 403.19 40.24 404.48 41.9 402.06 45.14 400.24 45.54 399.27 50.44 399.78 53.89 396.95 56.35 391.61 56.56 390.45 57.82 392.06 60.58 388.06 61.77 385.69 60.76 383.13 61.28 378.39 59.5 376.47 59.61 373.37 56.69 374.09 51.62 372.06 47.88 369.05 48.01 367.79 50.99 364.22 51.75 362 50.15 361.44 48.83 353.98 47.56 349.06 50.73 345.45 52.12 344.45 48.3 345.04 43.84 351.37 39.27 358.38 39.9 360.92 38.65 361.49 34.42 365.08 33.88 369.85 36.98 368.61 33.45 374.43 28.14 378.89 28.11 384.66 27.14 389.24 30.7 390.22 30.24 400.65 33.58 401.77 35.3 405.15 36.91 Z" id="ES-BI" data-name="Bizkaia"/>
<path d="M 636.02 399.11 638.33 398.08 639.25 400.97 635.85 401.25 632.01 398.84 629.35 401.47 627.63 398.91 628.66 395.16 630.81 393.73 633.66 397.85 636.02 399.11 Z M 640.69 367.92 641.7 372.61 639.95 373.29 638.95 375.89 636.89 377.25 635.05 380.09 629.47 383.08 628.79 387.48 626.88 387.51 625.29 385.21 622.75 384.6 620.38 385.55 617.58 382.13 619.03 377.45 622.79 377.25 622.31 372.3 626.07 368.95 628.8 368.95 631.58 367.12 636.65 365.89 640.69 367.92 Z M 743.33 315.22 750.02 318.66 749.97 322.61 748.54 325.8 746.77 326.61 746.35 329.9 741.5 335.09 739.65 338.75 739.1 342.98 735.5 347.56 730.12 350.91 726.09 354.45 722.6 350.76 722.02 348.51 720.1 347.3 712.28 347.27 708.54 344.49 707.92 340.34 708.13 336.7 705.8 333.59 702.29 331.98 697.23 334.5 695.81 337.44 692.74 339.17 690.47 334.05 686.25 334.68 684.7 332.44 684.82 328.38 691.31 324.76 694.2 321.65 697.26 320.66 705.14 312.94 711.56 308.47 713.34 308.47 718.6 305.26 726.96 303.61 733.05 301.11 734.47 302.61 730.79 304.22 728.08 307.81 730.16 308.18 734.66 306.91 733.86 309.47 730.36 311 729.85 313.17 732.07 316.38 735.66 317.87 739.69 317.87 743.33 315.22 Z M 799 304.42 798.83 312.36 795.79 312.76 791.62 310.71 782.1 304.4 777.78 303.56 773.55 304.42 771.28 303.61 771.78 300.59 769.68 297.7 770.76 295.06 774.85 294.15 776.26 294.73 784.27 294.25 787.55 293.53 790.95 295.19 796.16 298.91 797.07 303.02 799 304.42 Z M 721.66 362.25 720.3 366.04 718.46 365.88 717.45 363.32 719.02 361.81 721.66 362.25 Z" fill-rule="evenodd" id="ES-PM" data-name="Baleares"/>
<path d="M 437.69 142.98 442.14 143.63 445.25 146.19 449.15 146.06 455.09 150.06 459.36 149.22 463.12 150.27 465.24 147.52 469.18 140.14 464.59 132.98 464.45 128.99 463.28 125.62 465.19 119.28 468.09 115.35 467.16 112.42 467.65 110.19 471.72 104.39 471.03 102.09 472.62 99.17 475.67 98.78 478.3 95.75 479.21 92.14 485.12 91.45 486.28 87.76 489.07 87 493.34 84.05 493.06 86.91 494.5 89.92 492.15 91.73 493.31 94.39 493.7 108.77 496.99 110.77 497.18 113.86 492.28 121.57 494.01 123.29 495.85 120.7 499.23 120.61 501.07 115.74 502.99 113.33 503.32 120.05 501.97 122.61 502.69 135.09 502.06 137.36 500.1 138.45 496.64 137.33 495.59 140.93 496.32 143.34 500.75 146.45 507.22 146.61 510.79 151.91 513.92 153.53 515.61 155.72 516.9 162.41 517.74 163.93 524.08 167.93 525.83 171.66 528.01 172.8 531.26 176.3 534.11 175.01 536.16 176 537.48 180.22 540.36 184.36 542.32 192.39 545.56 191.57 547.55 193.37 552.66 194.11 554 191.23 556.04 189.76 559.28 190 560.55 188.04 566.28 189.8 568.57 196.42 567.11 199.71 567.58 203.34 565.27 204.81 564.01 208.64 558.69 212.17 559.13 215.99 556.23 216.42 550.68 215.49 547.66 217.26 545.43 212.01 544.3 211.04 530.66 204.73 528.04 201.56 526.63 202.66 522.6 200.25 520.58 196.97 519.12 196.64 517.49 193.84 514.11 193.95 513.59 196.16 516.53 202 515.16 203.36 511.12 196.56 509.38 197.31 509.71 202.13 508.7 202.9 510.62 206.55 505.69 212.72 502.97 209.31 501.08 209.66 499.91 213.53 498.08 214.25 494.56 211.34 491.35 215.07 488.01 213.94 487.69 212.54 482.65 209.08 477.86 211.99 475.14 210.8 472.78 211.5 471.87 217.27 468.4 217.23 464.64 216.02 460.83 220.4 461.36 223.8 460.47 225.27 455.09 225.86 451.22 225.63 444.71 219.46 442.69 216.43 439.78 213.93 432.27 208.68 430.68 208.25 425.9 209.77 424.11 208.09 420.27 206.37 419.68 200.5 418.85 198.51 419.27 194.5 421.52 192.09 422.01 188.41 423.18 186.93 425.97 187.53 426.63 190.68 428.2 191.2 432.2 189.05 431.8 185.74 430.28 181.83 429.72 174.94 433.52 174.35 435.25 172.27 440.34 169.05 441.62 165.21 438.08 159.59 439.73 156.01 437.74 150.49 437.38 146.65 437.69 142.98 Z M 481.5 104.76 479.85 107.66 483.78 107.72 481.5 104.76 Z" fill-rule="evenodd" id="ES-Z" data-name="Zaragoza"/>
<path d="M 405.19 103.64 408.88 104.76 412.69 104.22 416.94 107.68 424.54 107.98 424.95 110.19 427.13 111.93 430.39 111.92 437.13 120.57 446.81 125.99 447.47 131.29 445.87 132.31 443.46 131.49 439.39 131.56 435.13 137.06 435.45 141.08 437.69 142.98 437.38 146.65 433.58 148.94 430.32 149.35 429.13 148.33 423.44 146.81 422.53 145.97 422.18 141.33 420.45 139.66 420.94 135.04 417.89 134.85 414.62 136 411.65 132.18 408.63 131.83 403.35 132.64 399 134.76 398.76 137.64 395.4 143.06 389.59 143.04 385.38 141.3 387.02 136.76 386.93 134.04 384.29 133.74 382.9 135.08 381.32 140.07 377.91 141.91 375.6 141.22 374.2 136.54 368.79 136.12 363.26 127.54 365.17 121.7 364 115.42 367.04 112.94 367.44 107.2 365.45 104.09 366.22 101.09 363.65 99.55 366.78 95.49 365.88 93.39 369.5 92.18 375.81 93.34 379.88 91.92 381.2 94.97 383.24 96.59 385.16 93.95 388.78 96.89 388.84 100.4 392.76 102.8 400.17 101.81 405.19 103.64 Z" id="ES-LO" data-name="La Rioja"/>
<path d="M 414.18 71.44 414.81 76.32 412.92 80.18 412.3 83.88 410.2 85.78 411.85 90.4 407.55 92.41 405.04 90.63 400.11 94.69 402.61 97.35 405.2 95.75 405.9 98.23 405.19 103.64 400.17 101.81 392.76 102.8 388.84 100.4 388.78 96.89 385.16 93.95 383.24 96.59 381.2 94.97 379.88 91.92 378.99 90.22 372.17 84.44 366.6 80.63 363.31 81.96 361.46 78.05 363.72 73.99 358.43 75.05 356.74 76.58 353.95 72.47 356.64 68.39 359.28 67.7 362.05 70.16 365.91 71 371.07 69.34 369.61 66.76 371.07 62.71 368.94 59.96 367.09 59.96 366.01 62.3 360.64 61.28 361.61 59.37 362 55.06 360.2 52.87 362 50.15 364.22 51.75 367.79 50.99 369.05 48.01 372.06 47.88 374.09 51.62 373.37 56.69 376.47 59.61 378.39 59.5 383.13 61.28 385.69 60.76 388.06 61.77 392.06 60.58 390.45 57.82 391.61 56.56 396.95 56.35 397.25 61.36 394.46 62.61 393.64 64.84 396.22 66.41 408.21 67.43 414.18 71.44 Z M 392.27 81.6 386.41 79.85 381.1 79.94 378.07 83.35 381.24 87.22 384.86 88.91 391.81 91.07 396.19 89.57 393.76 87.11 396.39 82.95 392.27 81.6 Z" fill-rule="evenodd" id="ES-VI" data-name="Álava"/>
<path d="M 458.32 342.83 461.17 345.25 467.79 348.93 477.29 351.79 477.24 358.13 475.88 361.93 474.41 363.71 472.34 369.25 473.15 371.94 478.84 378.71 480.62 379.91 485.5 379.55 488.25 378.5 490.12 379.35 492.37 383.41 492.82 388.06 491.8 391 490.45 392.72 491.11 395.09 493.39 398.29 491.27 400.15 486.43 400.86 481.55 396.87 481.02 394.83 477.5 393.37 474.03 394.27 468.11 398.44 465.08 397.67 462.27 400.76 461.06 405.73 458.26 409.85 459.22 413.69 459.67 419.69 458.69 421.98 454.43 425.49 450.94 426.6 447.7 425.09 447.63 422.78 443.67 421.44 435.73 426.99 429.92 429.01 427.66 427.53 425.56 428.17 421.55 432.3 419.03 433.15 416.59 435.24 414.32 439.69 410 445.21 409.16 447.88 407.83 448.04 401.68 446.17 396.9 443.84 402.92 435.81 402.68 433.27 403.77 430.54 401.38 427.59 400.34 420.06 396.32 418.88 395.33 417.38 395.46 412.43 393.88 411.72 389.4 412.45 384.65 409.98 384.1 406.94 386.27 403.11 389.15 402.29 391.15 396.88 390.83 394.27 389.01 391.64 386.08 390.66 385.05 389.06 384.28 383.82 382.1 381.77 377.93 381.45 377.39 378.94 381.63 370.75 381.49 368.43 379.56 364.65 386.63 354.48 385.47 350.73 390.16 350.45 392.68 349.07 395.7 350.06 399.02 348.91 407.08 357.19 408.53 353.7 410.18 353.34 412.08 357.66 419.15 353.55 426.16 354.62 423.71 347.59 427.32 349.22 429.62 352.58 435.66 351.75 438.12 353.16 442.53 353.57 444.32 350.5 458.32 342.83 Z" id="ES-AB" data-name="Albacete"/>
<path d="M 559.13 215.99 559.8 218.12 562.52 220.02 563.43 222.85 561.08 230.15 562.39 234.76 559.77 239.22 556.56 241.12 556.58 242.38 551.21 243.5 549.07 245.07 547.49 242.75 542.05 242.39 536.69 238.58 534.99 238.89 533.31 241.26 532.68 245.18 528.55 247.62 526.13 246.8 524.28 247.86 524.44 251.11 529.15 252.07 529.01 259.63 530.14 262.42 527.43 263.57 526.73 265.82 529.46 268.79 529.28 270.62 526.96 272.15 523.48 276.01 523.45 278.44 520.46 280.46 517.01 281.03 515.06 280.25 512.19 288.37 510.42 289.97 510.36 293.21 506.28 295.31 501.95 296.06 501.45 297.99 498.03 300.13 497.17 302.86 498.07 305.89 499.98 308.09 496.71 309.79 493.46 309.02 493.32 303.72 492.24 302.09 487.71 300.31 484.59 300.34 480.13 301.47 479.19 300.84 478.18 297.83 482.34 296.06 483.03 293.67 478.86 290.27 475.1 289.82 469.28 283.72 468.68 287.26 466.35 288 461.4 287.22 460.15 283.9 455.14 282.94 448.98 276.97 445.52 276.45 445.43 272.94 441.98 268.56 440.28 267.8 443.7 263.39 446.65 260.76 446.72 256.97 448.34 253.34 453.29 254.79 455.37 252.89 456.18 247.64 455.03 242.83 456.1 238.82 455.76 235.68 452.45 232.46 451.22 225.63 455.09 225.86 460.47 225.27 461.36 223.8 460.83 220.4 464.64 216.02 468.4 217.23 471.87 217.27 472.78 211.5 475.14 210.8 477.86 211.99 482.65 209.08 487.69 212.54 488.01 213.94 491.35 215.07 494.56 211.34 498.08 214.25 499.91 213.53 501.08 209.66 502.97 209.31 505.69 212.72 510.62 206.55 508.7 202.9 509.71 202.13 509.38 197.31 511.12 196.56 515.16 203.36 516.53 202 513.59 196.16 514.11 193.95 517.49 193.84 519.12 196.64 520.58 196.97 522.6 200.25 526.63 202.66 528.04 201.56 530.66 204.73 544.3 211.04 545.43 212.01 547.66 217.26 550.68 215.49 556.23 216.42 559.13 215.99 Z" id="ES-TE" data-name="Teruel"/>
<path d="M 479.19 300.84 476.21 302.5 475.82 309.18 474.49 314.31 472.05 318.34 472.14 322.13 470.58 323.75 465.89 322.91 462.63 325.84 460.54 330.03 458.71 331.78 457.35 341.39 458.32 342.83 444.32 350.5 442.53 353.57 438.12 353.16 435.66 351.75 429.62 352.58 427.32 349.22 423.71 347.59 426.16 354.62 419.15 353.55 412.08 357.66 410.18 353.34 408.53 353.7 407.08 357.19 399.02 348.91 395.7 350.06 392.68 349.07 390.16 350.45 385.47 350.73 382.71 344.69 380.27 347.92 377.23 348.23 377.97 345.24 374.37 339.08 374.71 329.15 375.72 326.06 370.36 319.99 369.43 316.74 367.94 314.98 366.83 311.15 362.99 308.05 364.64 303.82 364.66 299.72 361.96 299.85 360.35 295.01 360.73 293.64 364.83 293.14 366.68 290.63 366.06 286.62 369.49 286.79 369.17 283.89 370.44 282.65 373.44 285.68 375.45 286.62 378.18 283.52 381.11 282.6 382.01 278.24 381.17 273.71 381.62 267.43 383.83 266.32 386.59 268.17 389.14 265.4 392.23 263.87 395.26 264.26 398.93 266.44 399.57 264.64 397.63 262.58 397.07 258.98 398.05 256.84 400.38 259.24 406.13 256.36 404.6 254.06 406.2 251.68 409.6 254.58 411.45 253.7 411.92 249.94 412.93 248.94 416.59 250.7 418.62 250.3 419.81 247.97 424 249.33 427.2 252.56 430.04 253.5 433.14 253.08 435.39 257.7 437.46 265.74 440.28 267.8 441.98 268.56 445.43 272.94 445.52 276.45 448.98 276.97 455.14 282.94 460.15 283.9 461.4 287.22 463.26 290.31 466.04 297.46 473.47 298.91 478.18 297.83 479.19 300.84 Z" id="ES-CU" data-name="Cuenca"/>
<path d="M 270.97 340.72 267.43 343.13 266.66 341.9 268.07 338.6 266.15 335.42 260.99 332.64 258.89 335.61 256.2 345.12 250.63 338.57 248.28 337.45 241.33 329.31 244.02 324.48 244.61 320.11 243.23 318.06 243.06 314.57 240.68 314.58 237.66 317.67 234.33 316.17 234.87 311.96 235.95 309.3 233.55 307.22 230.27 307.83 229.98 304.81 230.97 299.11 231.19 293.47 231.94 290.63 233.68 289.82 239.41 290.55 241.75 291.85 244.65 291.44 249.54 287.31 252.08 287.13 253.6 289.96 257.49 287.95 258.6 285.36 263.79 281.06 264.63 278.31 270.54 277.54 271.48 282.05 274.1 283.58 278.06 282.44 280.35 283.52 285.82 280.35 289.85 275.05 290.86 275.35 291.62 279.57 294.25 281.76 297.89 278.06 301.38 276.92 303.85 279.37 309.54 279.4 312.43 282.05 323.27 285.91 325.05 287.7 330.81 288.59 333.67 290.03 334.43 292.46 333.13 295.38 324.63 302.26 320.26 303.47 320.01 305.54 322.8 306.87 327.13 303.39 332.99 300.75 333.19 299.35 339.41 296.93 340.86 294.98 349.61 295.18 353.41 294.64 359.34 291.94 360.73 293.64 360.35 295.01 361.96 299.85 364.66 299.72 364.64 303.82 362.99 308.05 366.83 311.15 367.94 314.98 369.43 316.74 370.36 319.99 375.72 326.06 374.71 329.15 374.37 339.08 371.63 341.11 369.01 340.17 366.25 340.7 361.92 337.25 359.46 338.87 353.06 339.13 351.66 342.69 350.22 344.15 346.92 344.13 342.72 346.62 342.34 348.83 337.69 352.17 335.89 351.52 330.47 352.48 327.14 354.41 324.52 352.53 320.93 355.16 313.57 352.22 313.27 348.13 307.33 347.14 305.9 348.66 303.39 347.63 304.69 340.17 306.95 340.57 308.08 338.92 307.2 335.22 309.37 333.34 309.18 331.16 304.33 332.05 302.31 331.06 300.32 337.04 297.42 338.58 286.58 336.23 283.69 337.96 282.34 336.69 281.56 333.21 279.12 333.9 278.3 337.1 275.34 340.38 270.97 340.72 Z" id="ES-TO" data-name="Toledo"/>
<path d="M 148.26 123.05 150.9 118.92 151.05 116.05 149.89 114.34 144.98 110.56 146.76 106.27 146.04 104.6 140.23 102.39 136.53 103.82 131.37 103.13 133.02 97.22 132.93 94.07 134.7 92.14 133.41 89.38 133.61 86.95 137.55 83.7 140.35 82.87 143.56 78.78 143.73 73.49 145.62 70.26 148.99 71.92 152.01 69.83 156.92 69.26 161.24 70.11 167.88 67.35 165.99 64.84 169.89 63.03 171.18 60.03 172.82 59.29 180.47 62.27 182.51 60.13 186.28 61.25 188.22 60.63 189.59 58.2 195.92 59.3 196.9 62.01 203.34 65.7 207.23 65.46 210.08 60.17 213.89 59.55 221.18 61.67 224.13 61.12 225.15 59.32 228.35 59.26 231.74 56.07 234.88 56.56 240.49 55.87 243.57 54.33 246 54.7 248.7 49.56 252.45 47.91 258.31 44.33 261.19 45.45 262.8 48.25 263.04 54.74 266.41 57.11 268.97 62.15 265.31 64.24 263.88 69.39 261.88 71.26 260.82 74.61 258.69 75.61 258.59 81.09 257.06 83.68 259.86 87.62 258.91 89.92 259.08 93.71 257.96 99.84 259.5 101.98 258.14 112.84 254.53 113.41 256.31 115.62 255.58 119.63 252.8 120.18 250.69 119.55 249.18 121.4 247.42 118.57 242.93 121.86 238.95 122.14 237.36 125.81 234.05 126.91 231.73 125.27 230.2 127.63 230.81 132.46 230.19 136.51 230.85 139.8 228.19 140.65 222.37 135.41 220.45 138.09 216.26 136.47 215.17 132.89 209.31 134.1 208.61 132.26 203.73 133.7 201.9 133.42 200.51 131.17 196.82 133.12 191.59 130.6 182.28 131.34 177.83 129 175.95 126.6 174.3 127.24 169.13 127.09 165.44 128.5 161.49 126.68 158.06 126.8 152.82 125.89 148.26 123.05 Z" id="ES-LE" data-name="León"/>
<path d="M 437.38 146.65 437.74 150.49 439.73 156.01 438.08 159.59 441.62 165.21 440.34 169.05 435.25 172.27 433.52 174.35 429.72 174.94 430.28 181.83 431.8 185.74 432.2 189.05 428.2 191.2 426.63 190.68 425.97 187.53 423.18 186.93 422.01 188.41 421.52 192.09 419.27 194.5 418.85 198.51 419.68 200.5 420.27 206.37 424.11 208.09 425.9 209.77 424.75 215.34 421.46 212.42 418.6 214.43 415.11 214.56 412.1 216.23 407.63 215.2 405.01 216.43 401.58 214.78 397.8 209.24 394.61 209.83 394.28 204.18 387.4 201.8 386.29 200.22 383.17 201.13 379.48 200.6 377.4 196.95 375.63 196.36 371.37 199.09 365.41 199.59 358.66 198 350.81 192.06 350.04 189.87 350.55 186.51 345.99 184.03 345.42 181.47 339.6 179.24 338.53 176.33 339.36 174 343.35 175.42 347.23 167.46 349.29 167.24 349.53 163.79 354.02 161.11 353.52 154.5 355.48 153.84 358.89 156.73 360.27 159.41 365.91 152.3 369.34 152.01 370.18 149.26 371.87 148.54 374.31 141.65 375.6 141.22 377.91 141.91 381.32 140.07 382.9 135.08 384.29 133.74 386.93 134.04 387.02 136.76 385.38 141.3 389.59 143.04 395.4 143.06 398.76 137.64 399 134.76 403.35 132.64 408.63 131.83 411.65 132.18 414.62 136 417.89 134.85 420.94 135.04 420.45 139.66 422.18 141.33 422.53 145.97 423.44 146.81 429.13 148.33 430.32 149.35 433.58 148.94 437.38 146.65 Z" id="ES-SO" data-name="Soria"/>
<path d="M 306.6 82.41 308.86 81.85 313.67 82.46 316.48 81.58 318.5 79.69 322.45 78.65 321.53 73.67 316.96 73.03 321.24 69.21 319.58 67.6 315.87 70.74 312.52 69.38 314.41 63.49 320.87 58.82 321.12 56.62 325.35 55.92 332.3 49.26 339.86 51.87 345.45 52.12 349.06 50.73 353.98 47.56 361.44 48.83 362 50.15 360.2 52.87 362 55.06 361.61 59.37 360.64 61.28 366.01 62.3 367.09 59.96 368.94 59.96 371.07 62.71 369.61 66.76 371.07 69.34 365.91 71 362.05 70.16 359.28 67.7 356.64 68.39 353.95 72.47 356.74 76.58 358.43 75.05 363.72 73.99 361.46 78.05 363.31 81.96 366.6 80.63 372.17 84.44 378.99 90.22 379.88 91.92 375.81 93.34 369.5 92.18 365.88 93.39 366.78 95.49 363.65 99.55 366.22 101.09 365.45 104.09 367.44 107.2 367.04 112.94 364 115.42 365.17 121.7 363.26 127.54 368.79 136.12 374.2 136.54 375.6 141.22 374.31 141.65 371.87 148.54 370.18 149.26 369.34 152.01 365.91 152.3 360.27 159.41 358.89 156.73 355.48 153.84 353.52 154.5 354.02 161.11 349.53 163.79 349.29 167.24 347.23 167.46 343.35 175.42 339.36 174 338.53 176.33 336.7 177.3 333.74 176.66 330.84 177.78 327.51 182.04 327.53 185.75 325.14 185.56 324.19 182.27 321.27 182.44 318.15 178.74 312.77 175.9 309.85 172.18 309.79 166.64 308.36 163.52 309.22 161.36 309.4 159.66 306.34 156.41 306.42 153.3 311.75 152.1 313.04 148.59 316.65 147.6 317.9 146.02 316.61 143.64 311.28 146.45 309.93 144.93 313.24 140.64 312.31 139 306.94 139.91 305.52 138.2 304.57 132.93 299.57 132.42 300.42 128.75 297.84 124.94 295.37 112.7 293 112.76 292.23 108.29 293.88 106.65 297.31 106.97 296.18 100.54 294.19 98.1 295.55 94.09 294.9 89.37 298.81 87.08 300.74 84.55 303.07 83.33 305.56 84.36 306.6 82.41 Z M 392.27 81.6 396.39 82.95 393.76 87.11 396.19 89.57 391.81 91.07 384.86 88.91 381.24 87.22 378.07 83.35 381.1 79.94 386.41 79.85 392.27 81.6 Z" fill-rule="evenodd" id="ES-BU" data-name="Burgos"/>
<path d="M 233.68 289.82 231.71 286.06 231.03 279.17 228.07 280.04 224.87 283.04 221.25 283.56 217.49 281.87 212.61 277.09 210.22 276.13 212.99 272.02 212.57 266.06 216.72 262.74 218.27 262.28 221.55 266.54 222.68 263.66 225.95 261.81 227.31 256.55 222.89 256.51 222.57 253.83 226.67 253.56 230.3 250.99 231.62 246.76 238.62 241.68 243.45 235.58 243.4 231.74 246.4 228.11 245.45 225.04 247.31 221.36 246.41 218.77 244.3 217.57 244.04 215 245.59 211.2 249.42 210.7 251.84 209.14 254.42 209.38 259.66 213.23 262.52 213.38 265.02 210.89 270.45 209.41 269.73 214.43 270.57 216.19 273.91 219.23 275.76 223.29 278.55 225.66 279.61 231.15 278.7 233.84 283.27 235.78 283.74 238.34 285.54 240.79 287.01 249.93 292.73 248.04 296.46 247.74 295.41 245.34 297.2 244.71 302.16 245.76 301.58 250.2 294.93 253.74 292.91 256.84 293.13 262.62 292.57 266.94 287.73 267.31 286.3 268.78 284.77 273.65 280.53 275.92 278.06 282.44 274.1 283.58 271.48 282.05 270.54 277.54 264.63 278.31 263.79 281.06 258.6 285.36 257.49 287.95 253.6 289.96 252.08 287.13 249.54 287.31 244.65 291.44 241.75 291.85 239.41 290.55 233.68 289.82 Z" id="ES-AV" data-name="Ávila"/>
<path d="M 268.97 62.15 279.21 61.5 284.46 59.33 288.1 60.75 290.7 64.6 296.71 66.83 297.61 69.11 298.64 75.44 302.82 74.48 303.32 76.69 300.79 77.58 302.32 79.98 304.56 80.34 306.6 82.41 305.56 84.36 303.07 83.33 300.74 84.55 298.81 87.08 294.9 89.37 295.55 94.09 294.19 98.1 296.18 100.54 297.31 106.97 293.88 106.65 292.23 108.29 293 112.76 295.37 112.7 297.84 124.94 300.42 128.75 299.57 132.42 304.57 132.93 305.52 138.2 306.94 139.91 312.31 139 313.24 140.64 309.93 144.93 311.28 146.45 316.61 143.64 317.9 146.02 316.65 147.6 313.04 148.59 311.75 152.1 306.42 153.3 306.34 156.41 309.4 159.66 309.22 161.36 305.8 160.87 304.41 158.28 302.74 158.98 297.54 158.51 293.31 161.09 288.17 160.35 286.09 161.63 282.65 160.41 282.75 155.82 278.04 157.6 271.98 151.22 270 152.64 267.1 156.82 265.31 157.44 262.43 151.08 260.62 148.48 257.17 149.78 255.88 148.29 253.71 149.92 252.64 147.97 256.21 141.63 256.13 138.78 257.51 135.81 257.19 131.2 251.35 130.9 252.08 128.47 251.81 124.85 252.8 120.18 255.58 119.63 256.31 115.62 254.53 113.41 258.14 112.84 259.5 101.98 257.96 99.84 259.08 93.71 258.91 89.92 259.86 87.62 257.06 83.68 258.59 81.09 258.69 75.61 260.82 74.61 261.88 71.26 263.88 69.39 265.31 64.24 268.97 62.15 Z" id="ES-P" data-name="Palencia"/>
<path d="M 250.79 395.3 253.06 394.74 254.6 392.23 256.01 386.94 258.05 383.71 261.99 382.97 261.93 378.9 257.99 377.86 256.2 374.09 256.58 370.81 260.14 372.35 262.64 371.22 260.72 366.79 261.91 362.3 264.27 359.78 272.28 360.37 269.92 357.77 267.21 350.85 269.9 348.75 271.84 343.17 270.97 340.72 275.34 340.38 278.3 337.1 279.12 333.9 281.56 333.21 282.34 336.69 283.69 337.96 286.58 336.23 297.42 338.58 300.32 337.04 302.31 331.06 304.33 332.05 309.18 331.16 309.37 333.34 307.2 335.22 308.08 338.92 306.95 340.57 304.69 340.17 303.39 347.63 305.9 348.66 307.33 347.14 313.27 348.13 313.57 352.22 320.93 355.16 324.52 352.53 327.14 354.41 330.47 352.48 335.89 351.52 337.69 352.17 342.34 348.83 342.72 346.62 346.92 344.13 350.22 344.15 351.66 342.69 353.06 339.13 359.46 338.87 361.92 337.25 366.25 340.7 369.01 340.17 371.63 341.11 374.37 339.08 377.97 345.24 377.23 348.23 380.27 347.92 382.71 344.69 385.47 350.73 386.63 354.48 379.56 364.65 381.49 368.43 381.63 370.75 377.39 378.94 377.93 381.45 382.1 381.77 384.28 383.82 385.05 389.06 386.08 390.66 389.01 391.64 390.83 394.27 391.15 396.88 389.15 402.29 386.27 403.11 384.1 406.94 384.65 409.98 382.61 411.94 377.43 415.42 373.22 414.38 369.78 417.38 366.24 413.76 363.67 415.65 356.23 415.19 352.29 413.83 349.09 414.47 347.09 417.98 344.2 419.48 339.86 418.97 338.41 416.31 336.48 416.71 335.77 419.39 333.95 419.86 323.71 418.01 321.04 420.52 317.87 421.34 301.21 420.67 296.08 419.86 295.46 423.64 293.92 423.7 285.23 420.27 281.28 415.81 278.15 413.46 275.8 412.69 274.49 410.7 268.9 406.48 263 404.65 260.8 402.33 259.8 398.55 256.1 398.66 250.79 395.3 Z M 267.43 343.13 266.61 344.15 259.97 347.02 256.2 345.12 258.89 335.61 260.99 332.64 266.15 335.42 268.07 338.6 266.66 341.9 267.43 343.13 Z" fill-rule="evenodd" id="ES-CR" data-name="Ciudad Real"/>
<path d="M 218.83 439.78 221.34 437.74 222.57 433.22 222.33 429.94 219.64 424.74 219.51 418.07 224.71 414.78 228.3 411.28 231.66 406.17 234.92 406.05 236.02 404.02 240.6 400.52 242.32 399.99 243.57 396.09 248.25 395.98 250.79 395.3 256.1 398.66 259.8 398.55 260.8 402.33 263 404.65 268.9 406.48 274.49 410.7 275.8 412.69 278.15 413.46 281.28 415.81 285.23 420.27 293.92 423.7 295.46 423.64 297.47 424.64 299.04 428.26 299.99 433.83 301.77 436.37 301.75 439.65 300.3 440.34 296.94 445.3 296.41 447.95 294.94 449.58 296.31 452.57 294.97 463.22 298.09 466.63 298.73 470.97 301.54 472.38 301.16 474.49 299.12 477.64 300.93 478.65 305.17 484.19 306.55 487.99 309.43 490.22 311.58 494.23 307.15 494.13 303.58 497.52 299.35 497.91 297.81 499.77 297.71 502.04 296.17 504.7 296.65 506.98 292.83 510.14 289.78 508.01 289.12 503.43 285.51 503.43 283.42 506.29 279.97 508.32 276.63 507.56 275.6 505.08 273.29 505.03 271.88 498.76 269.92 497.22 266.82 499.65 263.38 497.48 261.75 493.6 259.69 491.57 258.32 487.38 256.23 485.5 257.16 480.79 255.56 478.22 255.54 476.02 253.99 472.9 251.37 471.39 246.77 472.84 245.34 474.72 241.72 474.42 236.69 477.77 232.72 478.84 229.39 477.28 228.63 474.1 230.04 472.35 234.67 472.32 234.75 466.71 233.29 465.77 232.41 462.47 228.67 458.41 228.17 454.27 224.84 451.25 223.81 446.66 218.78 441.24 218.83 439.78 Z" id="ES-CO" data-name="Córdoba"/>
<path d="M 425.9 209.77 430.68 208.25 432.27 208.68 439.78 213.93 442.69 216.43 444.71 219.46 451.22 225.63 452.45 232.46 455.76 235.68 456.1 238.82 455.03 242.83 456.18 247.64 455.37 252.89 453.29 254.79 448.34 253.34 446.72 256.97 446.65 260.76 443.7 263.39 440.28 267.8 437.46 265.74 435.39 257.7 433.14 253.08 430.04 253.5 427.2 252.56 424 249.33 419.81 247.97 418.62 250.3 416.59 250.7 412.93 248.94 411.92 249.94 411.45 253.7 409.6 254.58 406.2 251.68 404.6 254.06 406.13 256.36 400.38 259.24 398.05 256.84 397.07 258.98 397.63 262.58 399.57 264.64 398.93 266.44 395.26 264.26 392.23 263.87 389.14 265.4 386.59 268.17 383.83 266.32 381.62 267.43 381.17 273.71 382.01 278.24 381.11 282.6 378.18 283.52 375.45 286.62 373.44 285.68 370.44 282.65 369.17 283.89 369.49 286.79 366.06 286.62 365.25 280.33 363 277.6 360.29 280.09 359.3 277.64 359.88 274.7 361.35 272.87 362.19 268.37 361.11 266 358.58 264.06 358.32 259.24 356.23 257.26 353.02 257.24 353.13 254.95 351.2 252.69 351.65 248.94 348.8 247.96 347.49 245.83 344.84 246.67 343.4 245.17 344.54 242.38 343.33 238.67 341.07 237.32 346.13 222.33 346.28 220.54 344.71 215.46 342.35 214.41 338.54 210.25 338.29 208.88 339.83 208.85 344.38 205.39 346.19 204.84 347.45 201.56 350.39 201.72 355.7 200.7 358.66 198 365.41 199.59 371.37 199.09 375.63 196.36 377.4 196.95 379.48 200.6 383.17 201.13 386.29 200.22 387.4 201.8 394.28 204.18 394.61 209.83 397.8 209.24 401.58 214.78 405.01 216.43 407.63 215.2 412.1 216.23 415.11 214.56 418.6 214.43 421.46 212.42 424.75 215.34 425.9 209.77 Z" id="ES-GU" data-name="Guadalajara"/>
<path d="M 396.9 443.84 393.66 445.23 393.91 449.43 389.66 452.73 387.96 451.89 382.88 456.38 376.81 466.65 376.19 468.58 376.08 474.71 371.73 477.16 371.31 479.47 367.32 478.63 365 479.88 359.34 476.92 355.55 477.13 351.83 481.23 346.89 482.24 345.44 481.92 342.84 479.11 340.56 478.59 333.52 484.81 330.23 485.65 323.85 489.48 320.95 495.4 314.52 495.98 311.58 494.23 309.43 490.22 306.55 487.99 305.17 484.19 300.93 478.65 299.12 477.64 301.16 474.49 301.54 472.38 298.73 470.97 298.09 466.63 294.97 463.22 296.31 452.57 294.94 449.58 296.41 447.95 296.94 445.3 300.3 440.34 301.75 439.65 301.77 436.37 299.99 433.83 299.04 428.26 297.47 424.64 295.46 423.64 296.08 419.86 301.21 420.67 317.87 421.34 321.04 420.52 323.71 418.01 333.95 419.86 335.77 419.39 336.48 416.71 338.41 416.31 339.86 418.97 344.2 419.48 347.09 417.98 349.09 414.47 352.29 413.83 356.23 415.19 363.67 415.65 366.24 413.76 369.78 417.38 373.22 414.38 377.43 415.42 382.61 411.94 384.65 409.98 389.4 412.45 393.88 411.72 395.46 412.43 395.33 417.38 396.32 418.88 400.34 420.06 401.38 427.59 403.77 430.54 402.68 433.27 402.92 435.81 396.9 443.84 Z" id="ES-J" data-name="Jaén"/>
<path d="M 295.41 245.34 296.46 247.74 292.73 248.04 292.94 246.14 295.41 245.34 Z M 366.06 286.62 366.68 290.63 364.83 293.14 360.73 293.64 359.34 291.94 353.41 294.64 349.61 295.18 340.86 294.98 339.41 296.93 333.19 299.35 332.99 300.75 327.13 303.39 322.8 306.87 320.01 305.54 320.26 303.47 324.63 302.26 333.13 295.38 334.43 292.46 333.67 290.03 330.81 288.59 325.05 287.7 323.27 285.91 312.43 282.05 309.54 279.4 303.85 279.37 301.38 276.92 297.89 278.06 294.25 281.76 291.62 279.57 290.86 275.35 289.85 275.05 285.82 280.35 280.35 283.52 278.06 282.44 280.53 275.92 284.77 273.65 286.3 268.78 287.73 267.31 292.57 266.94 293.13 262.62 292.91 256.84 294.93 253.74 301.58 250.2 302.16 245.76 306.34 239.42 308.12 238.25 312.57 237.9 315.46 227.23 317.98 224.22 324.13 221.74 326.14 218.14 330.13 214.89 333.71 210.63 338.29 208.88 338.54 210.25 342.35 214.41 344.71 215.46 346.28 220.54 346.13 222.33 341.07 237.32 343.33 238.67 344.54 242.38 343.4 245.17 344.84 246.67 347.49 245.83 348.8 247.96 351.65 248.94 351.2 252.69 353.13 254.95 353.02 257.24 356.23 257.26 358.32 259.24 358.58 264.06 361.11 266 362.19 268.37 361.35 272.87 359.88 274.7 359.3 277.64 360.29 280.09 363 277.6 365.25 280.33 366.06 286.62 Z" fill-rule="evenodd" id="ES-M" data-name="Madrid"/>
<path d="M 338.53 176.33 339.6 179.24 345.42 181.47 345.99 184.03 350.55 186.51 350.04 189.87 350.81 192.06 358.66 198 355.7 200.7 350.39 201.72 347.45 201.56 346.19 204.84 344.38 205.39 339.83 208.85 338.29 208.88 333.71 210.63 330.13 214.89 326.14 218.14 324.13 221.74 317.98 224.22 315.46 227.23 312.57 237.9 308.12 238.25 306.34 239.42 302.16 245.76 297.2 244.71 295.41 245.34 292.94 246.14 292.73 248.04 287.01 249.93 285.54 240.79 283.74 238.34 283.27 235.78 278.7 233.84 279.61 231.15 278.55 225.66 275.76 223.29 273.91 219.23 270.57 216.19 269.73 214.43 270.45 209.41 273.45 205.9 273.43 204.22 280.28 196.57 282.54 194.88 281.41 189.51 283.08 189.57 287.71 186.99 296.82 186.19 303.78 184 310.75 181.34 312.13 179.28 312.77 175.9 318.15 178.74 321.27 182.44 324.19 182.27 325.14 185.56 327.53 185.75 327.51 182.04 330.84 177.78 333.74 176.66 336.7 177.3 338.53 176.33 Z" id="ES-SG" data-name="Segovia"/>
<path d="M 228.19 140.65 227.2 145.66 224.48 144.31 225.25 142.57 223.13 138.53 222.37 135.41 228.19 140.65 Z M 245.59 211.2 242.69 208.6 240.54 208.41 238.61 206.48 235.98 207.3 234.84 204.48 235.65 201.78 235.18 197.66 233.62 193.61 234.08 189.38 233.01 187.67 233.48 183.93 237.41 182.17 239.51 180.21 235.92 177.49 236.56 174.8 234.5 173.47 233.74 169.06 229.97 161.93 236.52 157.8 234.86 153.25 235.52 149.29 235.09 146.61 236.47 144.74 230.85 139.8 230.19 136.51 230.81 132.46 230.2 127.63 231.73 125.27 234.05 126.91 237.36 125.81 238.95 122.14 242.93 121.86 247.42 118.57 249.18 121.4 250.69 119.55 252.8 120.18 251.81 124.85 252.08 128.47 251.35 130.9 257.19 131.2 257.51 135.81 256.13 138.78 256.21 141.63 252.64 147.97 253.71 149.92 255.88 148.29 257.17 149.78 260.62 148.48 262.43 151.08 265.31 157.44 267.1 156.82 270 152.64 271.98 151.22 278.04 157.6 282.75 155.82 282.65 160.41 286.09 161.63 288.17 160.35 293.31 161.09 297.54 158.51 302.74 158.98 304.41 158.28 305.8 160.87 309.22 161.36 308.36 163.52 309.79 166.64 309.85 172.18 312.77 175.9 312.13 179.28 310.75 181.34 303.78 184 296.82 186.19 287.71 186.99 283.08 189.57 281.41 189.51 282.54 194.88 280.28 196.57 273.43 204.22 273.45 205.9 270.45 209.41 265.02 210.89 262.52 213.38 259.66 213.23 254.42 209.38 251.84 209.14 249.42 210.7 245.59 211.2 Z" fill-rule="evenodd" id="ES-VA" data-name="Valladolid"/>
</g>
</svg>