<?xml version="1.0"?>
<svg xmlns="http://www.w3.org/2000/svg" version="1.2" baseProfile="tiny" width="800" height="822" viewBox="0 0 800 822" stroke-linecap="round" stroke-linejoin="round">
<g id="MLOC-GR">
<path d="M 103.32 177.67 106.19 171.18 106.05 165.09 109.78 162.16 111.4 158.72 115.12 157.84 119.31 159.36 121.62 157.78 123.58 152.6 129.22 147.23 130.88 137.36 129.2 131.1 124.09 125.58 123.16 122.75 124.42 117.5 124.26 111.69 137.88 111.13 144.46 109.14 150.28 109.99 154.88 110.28 159.47 108.79 162.84 105.42 167.31 104.38 174.39 105.37 178.83 109.11 181.42 109.62 188.41 103.24 191.03 102.05 197.7 102.72 198.32 107.01 202.9 110.09 201.03 113.15 192.33 114.46 194.6 123.21 198.84 126.23 196.65 133.26 207.03 135.93 206.91 144.61 209.39 148.02 208.18 151.17 213.15 159.66 219.6 163.37 221.19 165.97 226.38 165.15 227.19 170.28 230.29 173.79 231.75 179.03 236.1 181.08 234.34 187.45 229.42 190.65 229.03 194.91 223.23 205.26 218.76 209.85 215.98 216.37 212.29 218.43 205.99 224.04 209.03 225.86 210.22 232.67 208.75 235.41 203.88 234.63 196.94 236.17 184.37 233.52 170.66 231.71 165.2 234.5 163.04 237.47 157.32 239.89 154.49 238.8 154.44 237.14 148.34 233.57 145.03 233.39 136.28 236.03 132.93 231.9 131.68 225.1 128.77 222.34 131.22 217.42 129.98 212.6 126.36 214.37 123.87 211.02 121.2 204.66 123.85 198.42 120.14 187.91 116.21 183.01 113 175.55 106.45 178.91 103.32 177.67 Z" id="GR-C" data-name="Dytiki Makedonia"/>
<path d="M 91.8 205.38 94.79 203.8 96.71 198.46 95.93 194.25 99.32 189.11 100.3 180.24 103.32 177.67 106.45 178.91 113 175.55 116.21 183.01 120.14 187.91 123.85 198.42 121.2 204.66 123.87 211.02 126.36 214.37 129.98 212.6 131.22 217.42 128.77 222.34 131.68 225.1 132.93 231.9 136.28 236.03 145.03 233.39 148.34 233.57 154.44 237.14 154.49 238.8 151.95 238.08 147.43 241.35 145.88 244.75 147.53 255.22 140.77 253.86 137.72 256.37 138.91 263.46 142.88 267.68 143.15 274.3 141.68 277.36 144.05 285.27 148.44 288.89 149.77 293.03 153.01 295.49 159.56 295.84 163.2 301.97 158.38 311.38 161.09 317.03 154.05 321.83 148.76 323.96 137.2 324.17 133.9 326.28 133.07 330.76 127.78 333.62 117.64 326.2 114.03 327.6 112.1 322.47 108.17 325.77 104.99 333.62 106.4 338.02 102.91 341.38 99.85 335.62 101.12 333.62 98.4 326.77 90 320.63 82.76 311.43 80.02 309.53 76.3 300.8 71.23 299.9 68.63 301.02 64.86 299.08 61.89 295.53 61.69 291.78 55.47 283.24 59.52 281.91 58.31 279.28 59.21 274.49 53.45 271.95 47.83 270.98 50.92 266.28 51.59 260.55 42.97 254.69 34.71 252.23 36.22 251.28 43.01 253.52 49.91 258.16 53.27 258.67 60.95 250.92 62.5 248.05 60.3 244.2 62.51 238.77 69.19 241.28 71.18 235.1 64.22 225.08 63.48 216.43 69.64 215.96 71.87 209.72 74.87 207.47 81.09 206.54 88.32 207.05 91.8 205.38 Z" id="GR-D" data-name="Ipeiros"/>
<path d="M 229.03 194.91 229.42 190.65 234.34 187.45 236.1 181.08 231.75 179.03 230.29 173.79 227.19 170.28 226.38 165.15 221.19 165.97 219.6 163.37 213.15 159.66 208.18 151.17 209.39 148.02 206.91 144.61 207.03 135.93 196.65 133.26 198.84 126.23 194.6 123.21 192.33 114.46 201.03 113.15 202.9 110.09 198.32 107.01 197.7 102.72 200.17 97.6 204.58 94 210.62 85.24 213.33 80.07 222.93 76.15 229.82 78.25 235.11 74.51 240.05 73.42 247.45 75.05 248.68 77.4 255.5 76.99 259.36 79.09 274.65 77.93 281.19 71.42 285.62 76.01 287.69 72.79 289.06 57.84 290.94 53.46 294.14 51.67 305.29 51.82 323.67 54.68 329.66 53.6 332.45 47.77 339.67 44.11 343.23 47.68 351.44 43.89 360.57 44.16 366.69 47.35 370.95 46.72 371.81 54.84 379.65 58.66 378.07 65.16 388.68 77.64 393.46 81.24 398.35 82.48 401.21 85.39 406.34 83.64 410.13 88.75 414.5 92.62 417.03 98.86 414.43 105.13 409.2 109.21 407.24 112.22 400.44 117.37 392.23 120.05 388.05 120.14 382.93 122.28 378.91 125.39 377.15 130.56 379.59 135.05 383.08 136.64 387.1 143.85 390.3 146.64 394.39 147.07 397.14 151.33 390.74 152.14 388.96 155.92 389.67 159.14 393.52 164.97 397.91 167.91 402.39 169.12 406.11 168.16 405.9 176.38 398.57 170.35 390.3 170.03 383.45 172.8 380.74 171.62 377.89 175.58 377.51 179.65 378.98 183.52 383.27 187.1 385.21 190.62 393.47 194.25 396.17 194.42 404.93 200.81 403.66 204.19 405.85 206.12 407.53 213.22 405.05 215.34 403.22 219.82 398.29 220.48 396.7 216.6 389.42 212.54 386.25 208.42 386.57 203.83 375.64 188.77 370.75 186.13 363.1 185.5 357.9 182.49 349.93 181.5 346.84 183.45 344.31 189.92 346.72 196.96 350.15 197.74 359.26 210.07 368.89 215.38 375.16 216.89 378.21 225.77 370.17 224.48 356.67 218.63 347.5 219.42 348.09 213.87 345.7 208.28 341.36 202.54 343.09 193.99 340.73 186.64 336.98 184.49 326.8 181.66 321.98 178.05 315.69 175.66 314 172.56 309.64 169.12 303.5 166.37 297.3 156.16 298.47 153.31 307.57 152.33 311.43 148 307.59 143.76 308.31 141.56 304.69 136.77 299.45 137.39 299.88 141.57 295.92 145.81 292.43 144.9 289.42 147.68 286.18 153.01 281.24 152.39 280.59 157.74 276.15 156.71 275.28 159.52 276.49 164.96 281.56 170.39 277.8 177.51 275.04 187.28 271.48 195 272.89 201.81 273.22 208.62 275.91 213.22 280.76 217.37 286.1 220.36 286.07 223.06 280.26 224.05 277.18 222.53 269.79 224.59 266.32 223.35 261.43 216.89 255.16 212.52 251.29 205.89 251.54 200.61 247.81 197 243.88 198.35 238.46 204.43 236.19 202.06 237.36 195.27 232.52 194.15 229.03 194.91 Z" id="GR-B" data-name="Kentriki Makedonia"/>
<path d="M 622.17 5.08 626.26 5.37 628.76 7.71 635.42 9.71 634.33 13.09 643.8 19.27 646.56 19.42 648.38 35.4 650.3 46.55 649.01 51.25 646.08 52.62 641.36 49.84 636.64 54.9 627.9 61.3 622.02 61.9 621.03 70.11 622.74 79.11 621.16 82.31 623.5 88.16 625.96 89.37 622.42 95.42 624.56 97.54 618.56 102.21 615.4 102.97 613.44 107.24 610.91 108 610.92 111.93 605.93 116.25 603.73 121.77 598.82 125.64 595.33 125.28 592.39 114.75 583.71 111.25 581.67 112.24 573 110.82 566.41 111.4 554.57 108.41 548.38 109.11 543.65 105.84 537.43 104.7 530.11 100.36 526.29 99.12 522.5 101.56 515.26 100.24 510.93 97.76 511.34 91.96 503.81 92.04 497.55 100.31 494.22 100.43 485.84 104.84 480.13 111.19 476.77 109.72 471.48 111.4 467.22 107.97 464.06 110.56 459.13 102.2 458.3 99.13 453.77 98.34 444.29 99.89 434.75 107.97 434.48 111.55 437.34 113.91 415.96 126.58 412.52 127.37 404.48 126.05 392.23 120.05 400.44 117.37 407.24 112.22 409.2 109.21 414.43 105.13 417.03 98.86 414.5 92.62 410.13 88.75 406.34 83.64 401.21 85.39 398.35 82.48 393.46 81.24 388.68 77.64 378.07 65.16 379.65 58.66 371.81 54.84 370.95 46.72 373.54 44.18 382.97 43.8 385.07 40.29 393.47 38.26 396.73 36.02 401.1 39.23 405.81 35.95 410.61 35.04 410.14 28.32 416.55 27.37 421.8 29.61 424.08 25.59 429 23.64 432.31 26.51 432.35 29.32 446.45 28.07 448.34 25.37 453.06 23.87 454.99 25.62 456.71 33.31 461.01 40.2 465.51 40.46 472.41 44.41 477.58 50.3 480.21 48.59 480.25 44.79 487.96 43.81 490.8 45.57 512.77 55.31 518.87 62.45 525 63.72 540.56 58.66 545.35 58.64 549.65 54.31 557.84 54.87 562.61 56.44 569.31 53.89 573.72 51.17 580.31 55.74 587.51 54.39 593.28 51.09 602.46 49.1 607.42 38.19 604.78 34.23 606.51 29.31 603.26 24.15 601.15 16.1 596.77 13.68 595.71 8.05 601.3 3.23 613 1 616.66 4.84 622.17 5.08 Z M 562.56 160.8 561.81 163.8 553.14 166.84 547.9 164.79 541.75 159.82 541.32 156.67 546.76 153.48 551.91 152.63 559.39 154.89 562.37 157.48 562.56 160.8 Z M 478.68 125.7 476.85 128.58 478.68 131.47 476.77 133.7 478.31 139.75 468.98 142.83 465.32 145.81 459.56 139.14 454.97 138.44 453.23 134.05 455.22 127.76 458.3 123.19 465.32 117.26 473.61 119.77 474.74 122.73 478.68 125.7 Z" fill-rule="evenodd" id="GR-A" data-name="Anatoliki Makedonia kai Thraki"/>
<path d="M 405.9 176.38 406.11 168.16 404.93 162.47 406.8 160.63 410.68 167.53 413.7 170.75 417.66 170.86 423.08 173.12 424.66 176.68 427.39 176.74 435.49 187.55 441.3 193.48 442.27 196.71 439.24 199.15 433.57 199.67 432.28 195.73 427.85 192.52 421.41 181.79 417.66 180 410.18 178.65 405.9 176.38 Z" id="GR-69" data-name="Ayion Oros"/>
<path d="M 154.49 238.8 157.32 239.89 163.04 237.47 165.2 234.5 170.66 231.71 184.37 233.52 196.94 236.17 203.88 234.63 208.75 235.41 210.22 232.67 209.03 225.86 205.99 224.04 212.29 218.43 215.98 216.37 218.76 209.85 223.23 205.26 229.03 194.91 232.52 194.15 237.36 195.27 236.19 202.06 238.46 204.43 243.88 198.35 247.81 197 251.54 200.61 251.29 205.89 255.16 212.52 261.43 216.89 266.32 223.35 269.79 224.59 277.18 222.53 280.26 224.05 286.07 223.06 288.96 230.36 294.54 234.51 299.88 242.61 301.09 249.54 306.05 263.56 308.62 267.11 318.18 272.25 322.43 275.84 324.64 281.01 338.16 296.79 340.1 303.25 344.74 312.4 340.93 317.34 332.44 319.67 331.88 322.93 326.55 323.27 323.7 324.88 317.81 323.75 319.27 318.93 323.57 316.41 322.32 322.93 328.92 319.3 332.8 315.33 332.68 312.65 329.27 307.41 327.03 301.35 322.09 298.07 314.89 297.44 313.31 293.25 307.53 292.13 305.5 299.7 298.38 300.92 296.87 302.87 296.87 308.97 299.45 316.41 302.8 313.4 305.62 320.47 309.38 321.2 312.81 327.09 315.15 334.42 312.68 339.79 309.83 338.51 306.23 340.17 300.88 340.55 298.09 337.78 286.5 336.11 278.74 331.52 268.09 332 265.93 329.35 266.04 321.18 259.98 321.81 257.84 315.22 253.14 311.82 246.61 309.42 242.11 306.71 233.87 316.17 231.06 322.91 223.87 326.31 217.45 331.15 212.41 331.65 212.2 325.08 204.55 319.6 197.64 323.4 194.27 323.85 192.13 320.89 192.27 316.01 189.27 314.23 188.77 309.24 186.63 306.28 178.69 308.31 174.68 312.59 171.78 310.18 161.09 317.03 158.38 311.38 163.2 301.97 159.56 295.84 153.01 295.49 149.77 293.03 148.44 288.89 144.05 285.27 141.68 277.36 143.15 274.3 142.88 267.68 138.91 263.46 137.72 256.37 140.77 253.86 147.53 255.22 145.88 244.75 147.43 241.35 151.95 238.08 154.49 238.8 Z M 353.46 317.96 352.82 314.36 356.63 309.86 360.56 314.09 353.46 317.96 Z M 375.11 321.31 371.22 317.82 367.45 310.61 369.98 310.61 374.72 315.15 386.51 321.31 381.74 325.84 374.77 324.34 375.11 321.31 Z M 399.86 308.97 396.08 316.09 395.48 309.42 400.16 301.96 402.68 305.39 399.86 308.97 Z M 413.29 293.26 413.34 298.97 409.59 295.88 413.29 293.26 Z" fill-rule="evenodd" id="GR-E" data-name="Thessalia"/>
<path d="M 161.09 317.03 171.78 310.18 174.68 312.59 178.69 308.31 186.63 306.28 188.77 309.24 189.27 314.23 192.27 316.01 192.13 320.89 194.27 323.85 197.64 323.4 204.55 319.6 212.2 325.08 212.41 331.65 217.45 331.15 223.87 326.31 231.06 322.91 233.87 316.17 242.11 306.71 246.61 309.42 253.14 311.82 257.84 315.22 259.98 321.81 266.04 321.18 265.93 329.35 268.09 332 278.74 331.52 286.5 336.11 298.09 337.78 300.88 340.55 306.23 340.17 309.83 338.51 312.68 339.79 307.06 341.77 303.57 345.01 298.75 344.2 297.84 347.77 293.7 349.97 284.14 349.97 277.89 345.62 270.21 349.97 268.94 352.34 272.49 354.95 279.7 355.67 285.41 353.23 291.61 361.07 295.92 360.54 300.67 364.61 305.09 362.17 307.92 364.25 314.5 364.68 318.5 367.86 321.38 377.21 325.35 378.32 329.91 376.65 332 373.22 335.03 375.16 342.76 377.9 343.9 382.53 340.19 385.52 347.57 391.82 351.8 394.38 361.16 396 363.35 393.51 368.76 397.99 368.09 403.65 370.96 405.09 375.4 411.9 378.84 414.23 384.12 413.65 376 417.11 370.89 423.3 370.07 434.48 364.22 439.55 356.62 436.56 353.03 431.38 348.29 430.53 348.11 426.29 345.73 423.28 339.22 426.65 338.55 432.02 334.15 432.85 332.78 435.07 326.35 434.23 326.8 432.05 323.16 429.19 319.17 432.37 313.96 428.02 308.53 427.4 304.52 431.24 303.25 425.53 294.96 427.2 291.18 424.72 294.33 420.68 289.09 418.92 284.37 415.95 283.72 411.35 280.2 407.93 275.97 411.99 274.7 414.97 275.91 418.26 270.85 418.26 268.95 411.62 263.19 403.65 257.49 400.42 258.11 404.9 254.9 407.69 256.99 410.49 254.32 413.62 246.66 412.98 241.09 411.47 237.02 415.03 232.53 409.97 224.79 406.92 221.28 407.69 219.09 405.49 213.65 406.4 209.89 409.14 206.44 408.16 206.8 403.89 208.7 400.31 212.52 397.05 218.63 393.82 218.26 390.19 219.81 386.88 217.05 383.83 218.22 380.78 218.61 370.77 220.08 366.08 216.49 363.92 212.44 364.58 207.33 367.66 202.48 367.21 202.01 372 198.61 374.71 195.84 371.67 187.54 372.31 179.49 367.47 176.7 362.48 177.27 359 184.19 354.87 181.09 351.78 176.02 350.66 171.52 348.01 171.01 341.09 161.73 335.41 161.35 333.72 164.24 326.01 161.11 320.95 161.09 317.03 Z M 468.49 358.1 466.73 362.93 462.67 362.47 458.98 358.1 458.04 354.67 450.51 351.79 447.91 349.16 448.51 339.28 451.33 337.69 458.98 343.47 459.93 350.82 465.35 354.3 468.49 358.1 Z M 460.25 435.19 459.53 444.04 460.89 446.61 459.13 453.44 456.95 456.53 449.98 458.38 445.6 451.47 441.58 454.37 440.23 457.27 434.85 450.52 434.94 446.32 430.72 442.72 425.29 442.44 423.11 437.21 425.11 432.91 422.93 428.26 417.9 426.16 420.87 422.38 417.02 417.45 410.83 415.11 411.95 412.54 410.3 407.39 403.96 406.88 397.61 407.69 391.25 406.07 385.24 406.88 378.84 405.26 374.52 406.25 372.21 404.91 369.01 398.64 371.96 394.79 371.94 391.51 368.64 386.44 359.84 383.35 359.16 379.36 355.02 376.15 354.35 373.92 348.38 370.3 343.41 364.24 331.76 355.7 326.31 353.23 320.73 353.83 316.36 350.4 310.15 348.65 312.13 353.23 309.79 354.39 299.61 355.34 297.91 352.78 301.38 350.34 316.3 344.2 317.25 341.77 321.04 340.87 321.75 336.87 325.79 334.35 331.51 334.35 340.73 330.35 348.38 335.24 348.66 339.3 352.47 340.87 354.79 350.38 357.56 354.73 361.65 356.5 370.49 363.37 374.42 364.61 378.16 363.42 381.48 365.28 382.89 368.88 392.53 373.24 402.64 374.71 412.52 373.61 418.4 375.7 417.47 383.21 425.79 390.21 423.2 397.97 422.91 405.84 425.29 409.39 425.67 414.27 429.16 419.47 428.48 425.53 430.35 428.46 436.07 432.05 437.69 435.19 442.16 434.63 444.76 436.6 450.06 437.61 460.25 435.19 Z" fill-rule="evenodd" id="GR-H" data-name="Stereá Elláda"/>
<path d="M 332.78 435.07 334.15 432.85 338.55 432.02 339.22 426.65 345.73 423.28 348.11 426.29 348.29 430.53 353.03 431.38 356.62 436.56 364.22 439.55 370.07 434.48 370.89 423.3 376 417.11 384.12 413.65 385.52 413.42 397.62 418.78 401.2 419.65 404.93 423.98 412.15 429.83 412.24 434.78 404.73 439.51 406.59 449.18 408.78 453.05 406.83 457.86 406.83 466.7 411.95 469.91 413.85 479.21 412.43 490.44 408.78 494.89 401.08 491.85 398.57 486.72 396.7 479.6 391.6 475.35 387.87 476.47 383.9 475.6 384.08 472.9 381.83 468.47 376.08 460.33 371.25 461.88 369.6 458.42 364.28 456.26 368.45 451.47 366.91 448.51 360.43 449.2 354.72 451.44 351.19 454.62 350.92 456.99 343.58 456.26 334.03 457.07 327.78 460.96 323.26 451.26 320.07 446.93 329.02 444.6 333.08 441.79 329.27 436.88 332.78 435.07 Z M 330.33 499.95 342.95 508.25 346.41 507.05 346.3 503.93 341.95 498.89 345.25 496.89 350.93 497.89 349.24 504.28 347.7 506.09 353.46 511.67 361.74 517.33 361.74 519.73 353.97 522.63 352.92 518.2 347.58 519.16 341.29 518.35 338.56 515.63 329.59 511.79 327.61 508.56 330.33 499.95 Z M 314.08 650.88 320.12 655.2 322.62 659.06 319.13 660.3 318.04 662.95 317.81 669.67 313.22 669.47 308.31 667.36 304.52 662.65 305.21 653.55 303.68 648.59 306.74 642.48 308.94 642.22 314.08 650.88 Z M 324.9 537.33 328.27 541.36 325.14 542.54 321.75 538.93 324.9 537.33 Z M 367.45 527.7 361.53 530.54 359.07 533.64 349.77 535.6 355.99 529.29 367.45 527.7 Z M 357.26 506.09 359.96 511.12 355.28 511.16 357.26 506.09 Z M 363.65 480.48 361.74 490.09 357.9 491.68 355.41 490.09 355.59 486.47 353.28 485.27 352.47 481.21 363.65 480.48 Z M 350.87 465.89 353.75 461.07 353.16 458.65 357.34 454.1 362.79 455.37 363.4 462.33 356.31 467.58 350.87 465.89 Z" fill-rule="evenodd" id="GR-A1" data-name="Attiki"/>
<path d="M 320.07 446.93 323.26 451.26 327.78 460.96 321.72 464.43 314.39 462.76 312.54 467.82 314.15 471.89 322 472.36 323.57 471.51 329.91 476.4 329.91 480.48 324.88 482.11 324.21 484.41 329.27 486.89 328.18 491.37 330.33 499.95 327.61 508.56 329.59 511.79 338.56 515.63 341.29 518.35 347.58 519.16 352.92 518.2 353.97 522.63 342.97 523.17 334.34 526.11 337.33 530.85 332.16 530.88 331.88 535.67 326.11 534.87 324.34 530.65 319.77 529.54 319.72 524.18 322.75 524.67 325.23 518.63 322 517.04 318.74 517.89 317.25 514.14 314.03 516.24 309.64 510.07 302.32 508.75 299.45 510.87 296.23 508.48 292.43 501.29 288.73 503.16 287.31 507.75 288.38 514.57 291.18 520.6 290.54 524.51 295.4 530.34 295.6 532.56 304.79 549.56 303.25 555.33 308.94 559.74 312.97 567.03 314.51 576.09 314.08 577.99 318.49 588.13 321.85 593.28 321.21 601.87 317.81 600.22 315.37 603.86 316.3 611.56 320.46 619.63 326.47 623.94 327.08 630.25 331.88 633.84 325.91 636.39 321.78 635.34 319.13 631.85 319.03 627.73 316.3 625.55 310.43 626.45 307.12 618.83 301.37 613.71 302.26 610.97 296.23 605.35 294.51 596.9 291.21 593.61 283.82 593 277.98 593.7 273.79 596.06 273.95 601 269.71 604.84 267.04 614.43 265.13 616.47 265.09 623.25 267.68 632.63 263.82 634.28 255.61 631.04 253.12 627.41 255.86 620.41 254.32 616.94 254.61 608.73 247.29 591.76 240.78 582.79 236.47 583.53 233.02 580.51 234.44 568.43 224.7 566.81 216.02 570.47 214.42 573.22 212.97 586.77 215.14 595.26 214.29 598.03 208.55 602.58 203.79 593.1 198.36 594.68 193.09 592.01 191.34 588.35 191.34 583.53 193.29 579.49 192.65 575.86 189.42 574.27 188.22 571.51 183.07 565.58 181.15 561.98 180.12 552.72 182.4 545.28 190.77 537.85 192.02 534.07 190.74 526.76 198.4 527.39 206.58 526.46 209.86 522.21 209.76 519.01 213.68 514.86 215.62 511.02 207.1 504.23 200.82 503.22 200.71 490.42 198.77 484.67 199.23 479.94 204.59 471.18 207.95 470.44 208.69 473.76 221.22 479.95 225.26 477.08 230.2 476.61 233.81 478.16 236.24 475.35 241.44 473.32 240.04 468.28 241.78 458.28 250.64 453.96 254.76 443.38 252.51 439.46 253.37 434.76 258.71 437.71 260.38 437.08 267.68 438.73 277.8 444.13 283.35 446.12 292.43 453.85 294.1 456.69 300.67 461.08 308.63 459.92 310.7 456.44 308.44 453.68 302.55 450 307.69 444.13 314.76 446.28 320.07 446.93 Z" id="GR-J" data-name="Peloponnisos"/>
<path d="M 253.37 434.76 252.51 439.46 254.76 443.38 250.64 453.96 241.78 458.28 240.04 468.28 241.44 473.32 236.24 475.35 233.81 478.16 230.2 476.61 225.26 477.08 221.22 479.95 208.69 473.76 207.95 470.44 204.59 471.18 199.23 479.94 198.77 484.67 200.71 490.42 200.82 503.22 207.1 504.23 215.62 511.02 213.68 514.86 209.76 519.01 209.86 522.21 206.58 526.46 198.4 527.39 190.74 526.76 183.79 512.68 178.49 505.43 168.57 498.75 164.78 494.43 155.18 492.42 156.41 486.12 154.87 480.8 148.56 476.08 138.8 473.08 137.33 468.3 139.87 460.27 142.73 462.24 146.75 460.31 153.22 453.85 157.71 451.44 158.21 444.96 161.52 439.7 162.33 429.88 163.18 429.07 171.44 430.85 176.08 434.4 183.41 436.07 190.07 432.78 192.53 429.76 198.36 419.07 206.27 413.69 212.4 414.97 216.14 414.23 222.12 417.01 223.75 420.68 233.53 424.59 235.2 428.83 241.25 432.05 244.13 432.05 253.37 434.76 Z M 133.07 330.76 133.9 326.28 137.2 324.17 148.76 323.96 154.05 321.83 161.09 317.03 161.11 320.95 164.24 326.01 161.35 333.72 161.73 335.41 171.01 341.09 171.52 348.01 176.02 350.66 181.09 351.78 184.19 354.87 177.27 359 176.7 362.48 179.49 367.47 187.54 372.31 195.84 371.67 198.61 374.71 202.01 372 202.48 367.21 207.33 367.66 212.44 364.58 216.49 363.92 220.08 366.08 218.61 370.77 218.22 380.78 217.05 383.83 219.81 386.88 218.26 390.19 218.63 393.82 212.52 397.05 208.7 400.31 206.8 403.89 206.44 408.16 204.58 407.14 200.04 411.04 198.21 415.22 193.92 411.73 183.1 412.54 177.14 416.92 176.08 419.07 171.64 417.86 172.91 414.23 166.09 407.44 161.79 405.77 154.49 409.39 149.04 415.1 145.34 415.72 141.91 418.11 140.5 414.23 136.56 413.76 140.5 406.88 135.53 405.5 138.6 401.96 135.38 394.68 130.8 394.08 129.04 389.46 129.77 382.03 125.53 374.42 121.93 374.38 118.89 371.33 116.64 361.72 114.48 358.84 109.98 363.72 106.08 363.42 102.37 358.84 105.64 348.33 104.99 342.57 110.51 344.8 118.56 344.01 125.19 341.77 130.26 344.23 129.85 347.59 135.38 351.6 140.64 343.68 142.31 335.69 135.38 327.91 133.07 330.76 Z" fill-rule="evenodd" id="GR-G" data-name="Dytiki Ellada"/>
<path d="M 417.66 816.62 415.81 821 410.05 817.33 413.22 815.08 417.66 816.62 Z M 621.04 764.48 620.22 766.56 615.92 770.76 617.58 776.64 620.17 779.57 618.52 784.78 613.6 795.83 604.91 799.99 601.01 800.32 598.83 798.01 593.13 797.88 589.85 795.82 584.21 796.39 573.45 799.6 554.27 798.71 545.45 802 537.01 800.96 526.69 801.97 517.76 805.74 512.49 805.26 507.53 807.28 505.68 806.51 500.27 807.99 496.99 807.19 474.25 807.99 475.79 805.01 476.14 795.55 474.65 791.5 471.37 789.36 463.16 789.21 458.12 788.22 452.19 782.97 448.79 783.23 443.2 780.41 443.04 778.58 432.94 779.58 422.71 777.81 413.59 777.06 410.36 778.58 404.6 773.79 396.64 774.03 389.67 771.6 385.53 773.63 367.45 773.09 361.06 765.33 364.28 763.77 362.95 757.79 366.18 750.88 364.92 748.94 366.64 743.39 365.5 740.32 366.82 734.8 372.52 742.65 376.37 743.5 379.63 741.99 380.74 737.27 379.1 731.25 378.96 726.47 381.77 722.12 384.21 725.9 385.24 734.8 388.78 739.48 405.79 741.18 409.89 740.3 411.09 737.42 414.47 737.27 413.33 733.2 416.43 731.9 422.71 733.69 424.6 738.68 422.71 741.94 418.97 742.65 413.28 741.75 412.42 743.64 423.06 748.94 429.16 745.84 430.23 751.06 430.18 757.29 437.29 760.72 445.45 758.29 450.76 758.01 460.8 755.84 466.58 752.83 472.62 751.74 481.82 753.36 483.73 754.38 488.81 752.05 494.56 754.38 495.83 752.05 503.56 755.13 503.63 759.93 508.4 761.38 516.78 760.6 521.85 762.16 533.37 761.3 537.95 766.26 543.2 766.5 557.75 760.99 564.15 762.16 569.58 762.16 565.72 766.88 566.93 768.78 564.61 779.52 566.07 785.13 571.11 786.88 575.52 786.38 577.12 783.18 581.67 779.29 589.26 778.09 594.33 774.64 597.5 773.79 605.64 777.81 615.33 767.97 618.52 767.59 621.04 764.48 Z" fill-rule="evenodd" id="GR-M" data-name="Kriti"/>
<path d="M 681.79 751.27 684.66 755.09 680.18 755.94 673.65 760.22 669.95 757.98 673.82 754.02 681.79 751.27 Z M 703.66 741.09 705.63 742.98 699 749.14 698.67 753.06 694.11 751.27 692.64 748.94 695.12 744.24 694.11 736.42 690.3 733.31 691.12 730.25 694.71 727.23 695.87 721.39 699.01 715.27 698.55 709.06 701.13 709.06 703.66 711.8 704.3 717.65 698.94 726.19 698.71 730.67 701.13 732.53 704.49 737.64 703.66 741.09 Z M 566.73 642.22 569.72 640.13 575.99 644.22 570.56 645.64 567.45 645.06 566.73 642.22 Z M 799 636.57 797.71 638.25 798.68 643.42 796.35 645.19 795.78 649.22 793.04 652.93 792.39 657.61 788.87 665.01 786.34 665.01 782.48 672.93 785.71 674.42 783.81 677.63 776.15 679.19 770.48 683.39 764.1 693.06 756.4 698.9 752.58 696.25 750.07 691.72 753.95 682.03 754.23 676.62 749.75 671.71 749 667.54 754.81 664.23 758.94 654.8 761.68 654.02 767.46 647.21 772.98 645.3 787.75 637.12 793.82 637.5 796.6 633.92 799 636.57 Z M 533.94 631.13 537.27 632.2 542.94 637.5 544.08 640.58 543.02 645.17 539.92 647.65 533.73 646.2 539.01 641.36 537.63 634.42 533.94 631.13 Z M 720.81 635.86 721.07 639.15 719.06 642.39 715.37 637.04 711.54 637.14 711.39 633.9 717.01 631.13 720.81 635.86 Z M 624.84 612.86 627.73 613.01 633.87 617.62 629.83 620.14 627.12 620.02 623.59 624.04 623.67 626.98 619.17 627.25 615.51 618.66 618.59 617.63 622.94 620.81 627.37 615.36 624.84 612.86 Z M 764.69 618.45 765.33 624.04 754.5 620.02 759.89 613.3 761.52 616.94 764.69 618.45 Z M 486.27 609.69 493.67 614.42 491.34 616.97 484.56 611.81 486.27 609.69 Z M 512.06 603.37 515.51 604.95 507.13 613 504.75 612.86 508.21 605.75 512.06 603.37 Z M 449.74 600.22 455.22 597.8 456.39 606.97 450.69 609.69 435.7 609.68 438.6 599.43 443.52 604.83 448.48 605.75 443.67 599.43 444.72 597.45 449.74 600.22 Z M 465.32 595.4 467.5 597.03 465.55 600.2 462.15 596.26 465.32 595.4 Z M 523.82 603.37 521.85 602.58 522.87 597.84 526.97 594.68 530.78 600.22 535.55 602.44 535.15 608.11 533.12 611.03 529.84 609.34 523.82 603.37 Z M 462.15 589.93 458.87 596.19 455.13 595.03 454.54 590.72 457.85 588.8 462.15 589.93 Z M 537.74 590.33 542.18 585.9 542.82 590.02 537.74 590.33 Z M 710.06 581.59 711.05 583.45 715.64 584.6 714.01 588.45 703.88 591.33 696.06 598.63 688.42 596.98 681.76 600.95 682.71 603.37 678.19 606.51 676.38 603.81 676.61 599.75 680.18 596.26 682.71 597.84 685.93 593.1 689.68 589.54 699.24 583.53 710.06 581.59 Z M 554.95 584.39 558.76 581.16 561.01 584.88 554.95 584.39 Z M 591.8 577.99 595.9 582.86 590.42 584.93 583.96 589.34 580.09 594.68 572.58 597.25 568.58 597.57 570.3 593.27 576.92 593.1 577.95 588.18 588.64 582.73 586.68 580.36 591.8 577.99 Z M 506.02 576.4 502.86 574.47 500.9 569.98 506.65 566.02 504.05 574.02 506.02 576.4 Z M 471.08 566.81 475.46 572.55 476.67 575.93 471.66 582.01 468.71 576.53 468.49 570.84 466.41 568.07 471.08 566.81 Z M 675.81 577.19 679.48 568.43 677.01 566.81 674.88 561.91 682.71 565.22 682.35 567.55 687.84 569.98 687.84 574.74 686.2 577.28 682.47 579.08 675.81 577.19 Z M 524.45 565.22 517.46 572.18 512.67 572.43 508.09 569.4 508.98 563.6 512.42 558.04 517.96 554.15 522.55 556.48 523.18 564.5 524.45 565.22 Z M 547.3 548.07 551.79 550.13 553.45 554.32 553.69 559.31 552.37 568.83 549.74 574.5 544.08 578.78 540.02 579.63 537.74 574.74 534.57 572.43 533.94 566.81 530.2 561.98 532.99 560.54 536.47 556.48 542.52 552.08 544.42 548.9 547.3 548.07 Z M 446.9 550.13 449.18 547.39 453.5 546.93 455.32 553.65 453.54 556.61 447.53 555.77 444.98 552.9 446.9 550.13 Z M 439.87 522.92 440.51 519.82 446.2 514.14 445.68 518.93 449.28 521.1 450.06 525.38 447.74 526.24 446.9 530.16 443.94 533.18 439.87 534.87 442.55 524.13 439.87 522.92 Z M 535.15 522.19 526.97 522.92 528.78 516.96 527.5 514 530.78 511.67 541.43 516.13 540.91 518.93 536.32 520.01 535.15 522.19 Z M 493.25 520.16 494.47 524.65 488.87 527.62 486.27 522.59 489.05 518.62 488.79 511.4 491.98 511.67 494.56 517.33 493.25 520.16 Z M 506.97 502.96 502.86 498.89 498.3 496.49 498.3 491.33 503.44 491.68 506.65 495.69 509.88 494.87 521.28 498.09 522.55 502.09 518.53 508.78 514.26 508.1 509.22 505.59 506.97 502.96 Z M 440.5 490.82 443.08 494.39 442.45 498.04 434.78 508.15 431.29 508.92 431.54 498.25 434.1 493.8 437.25 490.82 440.5 490.82 Z M 497.73 481.21 497.16 484.99 494.56 488.42 490.71 486.89 488.49 481.21 486 480.55 482.56 475.44 470.25 462.83 470.85 457.18 475.96 454.37 479.36 454.66 481.88 457.45 483.73 463.49 486.9 465.02 494.22 465.02 495.13 466.1 493.25 472.39 497.09 475.6 494.63 479.68 497.73 481.21 Z M 736.48 658.17 741.19 658.44 740.6 661.44 732.14 661.4 732.85 658.73 736.48 658.17 Z M 701.24 615.42 702.37 620.9 697.01 621.48 696.73 617.23 701.24 615.42 Z M 672.12 555.3 671.17 559.58 667.05 556.96 667.02 553.86 663.25 551.16 666.22 547.6 670.07 549.11 669.55 552.06 672.12 555.3 Z M 646.79 529.51 642.16 532.88 641 527.5 643.99 527.3 646.79 529.51 Z M 474.33 499.3 474.5 501.43 468.11 500.87 472.16 497.29 474.33 499.3 Z" fill-rule="evenodd" id="GR-L" data-name="Notio Aigaio"/>
<path d="M 624.84 490.82 620.85 496.91 612.65 504.28 603.12 506.1 596.62 510.37 589.06 510.75 589.37 506.93 592.4 503.85 595.15 498.93 598.14 496.49 609.57 497.14 614.83 494.83 617.3 492.09 624.84 490.82 Z M 688.42 486.01 675.66 491.78 671.1 495.84 664.29 495.39 660.91 489.6 656.95 487.62 645.93 490.72 645.07 484.42 646.44 482.01 650.98 480.71 652.29 478.32 662.84 475.82 669.36 476.4 676.28 480.08 678.91 478.8 685.96 480.15 688.42 486.01 Z M 606.43 389.82 604.64 395.74 605.54 398.78 604.18 404.51 605.16 413.42 606.43 418.26 601.78 420.43 600.73 423.1 601.65 427.72 594.97 430.36 592.16 435.49 588.92 434.4 583.36 428.61 581.03 427.95 578.96 423.33 580.67 420.71 585.15 418.26 587.95 418.26 590.23 409.19 586.68 406.07 587.13 403.4 584.94 399.26 581.03 397.99 576.72 393.08 575.74 389.67 577.24 385.36 590.82 382.53 597.19 384.22 601.29 389.82 604.57 387.26 606.43 389.82 Z M 553.12 381.65 556.22 384.96 554.61 390.71 550.2 389.61 550.51 387.39 547.03 383.35 553.12 381.65 Z M 648.05 329.54 646.67 334 642.4 333.63 639.42 331.09 640.1 325.46 638.17 322.38 633.45 322.12 633.27 325.1 636.88 327.91 642 334.35 642 336.87 636.63 338.7 630.6 339.32 622.73 337.47 616.89 334.15 606.62 332.75 599.41 325.46 606.11 323.75 609.01 320.18 612.18 319.67 618.47 314.25 616.28 311.43 610.21 310.82 607.33 312.11 600.29 322.8 595.24 324.29 587.39 321.37 580.95 318.13 576.96 312.67 578.14 304.42 584.21 299.9 585.35 302.35 596.87 300.8 599.97 298.28 606.35 296.7 606.43 290.08 623.07 289.58 624.16 292.76 629.98 295.88 626.47 301.62 630.6 306.12 634.91 308.5 643.9 321.31 645 326.43 648.05 329.54 Z M 499.63 267.85 502.89 270.07 502.24 273.05 497.73 279.5 496.32 271 499.63 267.85 Z M 540.23 210.81 540.23 216.6 535.75 219.58 530.19 229.25 530.29 232.78 532.68 236.42 530.87 240.87 525.88 238.45 522.3 232.63 524.45 228.62 520.65 224.94 515.62 232.16 518.4 236.4 518.4 238.97 511.78 237.32 514.26 233.53 504.75 232.37 502.86 229.89 504.82 224.78 502.86 221.56 502.71 217.05 510.77 214.13 512.99 215.77 519.38 214.13 521.44 214.9 525.13 219.91 530.78 217.43 533.94 212.47 540.23 210.81 Z" fill-rule="evenodd" id="GR-K" data-name="Voreio Aigaio"/>
<path d="M 118.33 478.36 123.25 486.41 117.64 485.28 112.97 489.02 113.27 494.68 110.33 494.89 100.06 484.71 92.83 473.43 92.18 469.91 98.33 462.25 100.56 463.42 103.54 470.16 106.81 472.39 109.75 471.65 113.58 473.2 118.33 478.36 Z M 102.77 446.61 97.95 442.44 91.73 439.85 88.59 440.36 87.13 443.32 82.01 440.91 78.59 432.5 80.53 431.36 77.12 423.16 74.42 423.1 75.17 428.91 74.17 433.3 69.98 436.07 66.17 430.36 67.54 424.1 69.94 421.65 71.66 414.71 74.36 411.08 76.94 415.85 80.08 417.07 83.87 414.14 85.86 408.5 84.61 403.65 85.15 399.74 87.76 397.99 92.77 412.45 90.3 418.26 93.21 423.54 96.93 421.49 99.05 422.75 100.49 427.2 104.41 430.77 108.72 438.49 109.65 442.23 108.44 446.18 102.77 446.61 Z M 101.12 407.69 103.25 408.61 103.7 413.32 99.22 413.42 94.8 406.07 94.1 401.23 91.72 398.8 97.25 396.68 100.49 401.23 97.32 409.39 101.12 407.69 Z M 89.03 380.91 85.27 383.66 86.89 372.2 90.61 361.44 93.47 357.29 98.38 353.3 101.3 356.56 102.33 367.52 101.57 378.48 97.95 382.53 94.17 382.97 89.03 380.91 Z M 47.75 306.53 52.36 311.2 50.37 313.57 46.61 308.75 47.75 306.53 Z M 43.26 283.51 44.53 291.78 37.73 288.14 34.66 287.62 28 281.88 22.26 279.3 19.96 269.28 17.09 264.81 11.4 261.09 8.65 254.69 5.94 254.57 2.56 249.68 1 244.64 4.76 239.97 16.09 239.04 20.98 236.42 24.79 238.97 29.9 240.55 29.74 244.31 26.65 247.78 20.96 250.18 19.51 252.36 21.61 256.41 28 260.45 26.55 265.5 28.46 278.09 36.92 282.58 41.6 281.66 43.26 283.51 Z" fill-rule="evenodd" id="GR-F" data-name="Ionioi Nisoi"/>
</g>
</svg>