<?xml version="1.0"?>
<svg xmlns="http://www.w3.org/2000/svg" version="1.2" baseProfile="tiny" width="800" height="491" viewBox="0 0 800 491" stroke-linecap="round" stroke-linejoin="round">
<g id="MLOC-HU">
<path d="M 799 110.95 794.11 118.73 784.33 125.96 783.5 132.31 777.13 134.81 770.78 141.67 761.99 144.18 749.21 138.89 745.6 139.74 743.68 146.65 739.08 148.73 733.65 147.91 726.55 151.41 719.78 160.07 715.48 172.54 713.9 174.75 711.34 171.45 706.95 158.32 701.49 164.4 695.69 150.71 687.51 146.11 683.49 146.32 677.04 157.13 672.46 153.06 654.56 146.77 641.61 135.38 643.55 116.19 638.66 111.17 634.14 113.9 615.08 115.35 609.82 117.45 600.09 109.67 591.5 108.53 594.33 100.41 607.87 93.24 611.57 96.98 622.04 96.84 628.99 92.7 630.2 87.2 628.28 81.82 630.69 73.8 634.14 70.41 650.21 69.84 659.32 72.11 677.65 60.66 685.08 60.18 689.08 57.93 696.39 48.15 705.08 46.66 711.9 33.32 714.38 30.61 719.52 27.78 727.74 30.39 725.97 38.57 730.9 40.01 732.01 49.82 737.77 58.76 746.84 59.88 752.4 58.85 761.14 70.4 766.36 83.8 777.31 83.69 783.49 81.13 793.52 88.85 797.12 96.6 794.67 107.43 799 110.95 Z M 678.12 103.3 671.87 102.85 671.87 97.52 668.49 95.13 655.99 96.46 652.83 104.19 651.04 123.72 666.22 128.16 670.09 130.82 676.63 129.49 679.31 123.72 679.61 117.51 683.48 116.62 683.48 103.74 678.12 103.3 Z" fill-rule="evenodd" id="HU-SZ" data-name="Szabolcs-Szatmár-Bereg"/>
<path d="M 627.95 334.48 624.71 339.94 615.33 341.61 613.53 343.78 612.4 353.57 607.25 361.99 606.96 365.51 611.14 375.84 603.44 378.14 599.16 381.28 597.48 392.57 593.99 399.33 589.79 399.7 584.18 406.55 559.27 400.6 553.11 401.91 548.62 395.41 549.78 387.24 543.07 379.7 530.99 381.28 529.38 370.43 529.79 364.8 533.92 354.93 528.63 349.96 528.21 337.21 529.82 329.05 529.48 318.11 525.72 314.62 510.27 309.58 508.47 303.89 509.75 298.91 514.35 294.85 522.48 295.44 525.81 290.73 531.93 289.3 535.22 292.58 543.51 288.88 544.75 283.73 542.89 273.25 547.4 267.85 546.86 264.53 557.11 252.1 561.82 251.97 571.29 242.59 577.48 234.93 592.02 244.45 602.34 246.82 610.01 250.61 612.41 255.63 612.04 272.99 618.59 278.71 617.53 282.91 623.63 285.93 636.79 283.71 644.8 275.51 652.74 272.37 656.65 277.03 654.42 285.55 647.38 291.89 647.74 299.71 641.25 304.13 637.28 309.24 633.47 319.94 637.55 323.33 635.01 329.92 627.95 334.48 Z M 597.85 332.44 602.47 326.72 600.39 320.99 601.78 314.25 596.47 306.49 585.15 301.18 580.3 309.96 575.22 315.35 578.45 333.21 597.85 332.44 Z" fill-rule="evenodd" id="HU-BE" data-name="Békés"/>
<path d="M 591.5 108.53 600.09 109.67 609.82 117.45 615.08 115.35 634.14 113.9 638.66 111.17 643.55 116.19 641.61 135.38 654.56 146.77 672.46 153.06 677.04 157.13 683.49 146.32 687.51 146.11 695.69 150.71 701.49 164.4 706.95 158.32 711.34 171.45 713.9 174.75 707.47 176.71 700.17 182.22 694.45 190.3 695.95 207.54 693.59 212.36 688.35 213.91 679.55 224.28 675.01 238.58 675.29 243.75 665.59 259.91 657.16 266.28 652.74 272.37 644.8 275.51 636.79 283.71 623.63 285.93 617.53 282.91 618.59 278.71 612.04 272.99 612.41 255.63 610.01 250.61 602.34 246.82 592.02 244.45 577.48 234.93 580.82 226.25 581.41 215.24 578.33 198.79 575.38 177.06 571.74 173.58 564.14 171.35 559.61 166.66 556.86 157.79 565.43 156.93 571.33 150.93 575.65 141.41 582.11 140.22 581.48 133.84 584.99 127.06 584.76 120.82 590.62 112.47 591.5 108.53 Z M 642.4 159.16 640.61 157.83 642.1 148.54 634.66 155.62 627.07 180.08 627.37 188.89 635.41 188.89 637.79 197.26 644.48 201.06 645.97 208.1 653.12 208.1 659.67 199.74 664.13 198.86 668.9 203.71 676.94 194.46 679.32 187.85 679.62 176.83 671.28 164.02 667.11 165.34 657.88 173.29 654.61 168.88 649.84 152.96 643.89 153.85 642.4 159.16 Z" fill-rule="evenodd" id="HU-HB" data-name="Hajdú-Bihar"/>
<path d="M 553.11 401.91 547.46 406.31 548.1 412.64 543.35 418.03 540.89 422.08 531.96 424.66 525.06 420.14 515.61 417.08 512.74 421.71 493.81 422.23 489.05 428.29 482.66 422.81 477.59 423.37 473.99 420.8 475.5 414.69 479.89 413.02 484.74 420.69 487.74 416.36 483.58 408.68 485.02 406.08 492.36 406.68 492.13 402.67 503.99 401.54 509.07 404.21 516 404.88 521.55 400.54 524.78 391.18 530.99 381.28 543.07 379.7 549.78 387.24 548.62 395.41 553.11 401.91 Z M 510.27 309.58 525.72 314.62 529.48 318.11 529.82 329.05 528.21 337.21 528.63 349.96 533.92 354.93 529.79 364.8 529.38 370.43 519.01 358.68 514.85 355.99 504.69 360.02 495.45 358.01 491.29 372.09 486.44 369.08 482.63 372.89 483.84 384.43 485.98 392.81 482.43 392.98 477.81 386.29 473.65 390.98 466.72 389.64 462.1 392.65 461.64 401.67 468.57 403.68 467.95 421.98 452.15 418.88 445.62 420.67 435.84 424.73 426.59 419.7 419.68 403.34 421.82 394.9 421.64 387.05 423.99 385.25 433.36 385.65 442.8 382.17 446.33 371.01 444.99 363.07 439.42 359.15 439.25 352.13 443.68 348.99 453.89 350.6 458.01 346.08 460.18 327.37 456.78 322.41 461.85 315.25 467.7 310.04 476.34 315.61 489.89 311.1 498.43 316.27 510.27 309.58 Z" fill-rule="evenodd" id="HU-CS" data-name="Csongrád"/>
<path d="M 125.03 100.64 129.32 98.03 138.43 100.32 147.32 101.82 151.03 104.9 163.1 121.12 169.52 124.05 174.93 131.51 178.65 130.69 187.18 138.58 192.19 141.3 204.71 145.44 211.51 145 212.84 151.04 213.17 166.35 216.64 169.41 214.1 176.43 216.87 180.37 211.88 183.52 213.2 188.41 211.38 196.94 207.74 192.99 192.97 192.15 182.56 197.87 177.85 195.76 174.47 197.87 168.41 196.99 166.03 200.62 159.07 203.01 151.03 199.35 139.13 202.52 131.32 206.75 125.52 200.01 114.36 205.98 116.56 197.9 113.62 197.04 101.01 204.38 91.46 202.73 88.58 200.3 79.72 205.89 67.03 201.94 63.69 198.55 64.85 190.26 70.87 185.13 70.09 180.26 64.08 167.8 55.55 166.44 59.44 163.41 70.42 164.94 70.86 159.25 74.26 154.7 77.12 157.42 83.75 158.47 89.95 151.92 91.66 156.5 96.13 157.32 114.02 153.83 112.22 130.14 108.05 125.6 116.7 120.61 118.89 108.29 125.03 100.64 Z M 193.04 148.94 187.48 147.7 176.03 151.65 173.79 160.28 166.96 165.55 170.81 171.6 176.7 173.94 181.34 170.49 188.89 170.49 201.25 163.35 202.17 160.15 198.35 148.44 193.04 148.94 Z" fill-rule="evenodd" id="HU-GS" data-name="Gyor-Moson-Sopron"/>
<path d="M 74.26 154.7 70.86 159.25 70.42 164.94 59.44 163.41 55.55 166.44 46.63 164.85 37.91 160.94 50.28 153.13 52.42 146.67 61.67 145.33 72.58 150.06 74.26 154.7 Z" id="HU-SN" data-name="Sopron"/>
<path d="M 63.69 198.55 67.03 201.94 79.72 205.89 88.58 200.3 91.46 202.73 101.01 204.38 113.62 197.04 116.56 197.9 114.36 205.98 125.52 200.01 131.32 206.75 136.6 213.3 143.14 217.89 135.31 221.43 130.62 232.8 131.08 246.04 133.5 264.14 119.1 267.64 115.83 272.2 109.22 269.73 107.14 276.17 102.25 279.1 88.54 281.07 78.25 286.41 66.5 287.17 62.08 289.3 56.62 299.7 48.85 309.19 43.91 312.48 38.34 312.51 39.36 318.47 33.02 327.93 32.92 327.88 26.9 319.89 25.17 313.67 26.53 310.58 28.73 304.24 24.92 302.07 21.94 299.15 11.05 300.1 5.26 300.4 1 299.36 8.66 291.18 17.07 284.62 22.28 274.98 35.55 275.37 38.22 277.37 47.15 275.97 41.37 270.24 47.95 267.24 44.26 263.9 44.15 259.1 49.88 251.97 38.5 243.38 39.5 233.69 44.83 230.17 45.13 225 39.93 214.96 40.99 207.02 46.63 207.81 59.27 202.01 63.69 198.55 Z M 67.47 226.15 64.45 225.41 51.97 229.07 57.16 247.26 69.99 248.18 71.87 234.3 67.47 226.15 Z" fill-rule="evenodd" id="HU-VA" data-name="Vas"/>
<path d="M 467.7 310.04 461.85 315.25 456.78 322.41 460.18 327.37 458.01 346.08 453.89 350.6 443.68 348.99 439.25 352.13 439.42 359.15 444.99 363.07 446.33 371.01 442.8 382.17 433.36 385.65 423.99 385.25 421.64 387.05 421.82 394.9 419.68 403.34 426.59 419.7 419.06 417.13 407.54 418.78 400.2 423.86 401.59 428.21 387.42 440.91 377.94 442.87 373.84 449.76 360.26 449.31 355.91 444.42 350.55 444.58 348.57 452.8 343.51 452.95 341.26 458.25 331.24 458.26 321.96 462.59 322.16 456.74 325.49 444.72 321.91 429.85 317.65 429.72 322.75 425.78 318.74 420.98 323.26 419.18 325.66 413.84 324.22 408.33 332.78 404.92 332.65 390.47 330.17 382.32 333.76 366.92 333.45 361.77 328.41 345.97 326.16 341.92 329.36 338.42 337.31 334.84 343.06 325.87 341.05 314.34 334.33 305.49 334.23 301.83 334.72 296.89 338.91 289.98 337.57 276.63 339.08 270 341.6 264.22 352.64 262.26 361.38 255.2 374.06 249.53 381.7 254.25 382.18 259.25 378.47 268.63 384.32 271.14 386.89 266.09 393.82 262.46 397.23 254.4 405.27 255.66 409.71 260.1 418.93 273.64 416.6 276.22 410.6 273.17 408.29 280.28 412.68 292.12 416.6 299.22 419.37 309.01 423.99 312.72 427.69 305.63 427.69 297.87 431.15 292.46 439.01 289.76 439.2 285.11 446.88 279.07 450.6 278.18 457.79 282.12 462.67 276.13 469.47 272.2 477.71 279.29 473.66 285.11 478.61 286.59 471.3 295.99 463.73 297.3 460.25 305.87 462.35 309.56 467.7 310.04 Z" id="HU-BK" data-name="Bács-Kiskun"/>
<path d="M 492.13 402.67 492.36 406.68 485.02 406.08 483.58 408.68 487.74 416.36 484.74 420.69 479.89 413.02 475.5 414.69 473.99 420.8 467.95 421.98 468.57 403.68 461.64 401.67 462.1 392.65 466.72 389.64 473.65 390.98 477.81 386.29 482.43 392.98 485.98 392.81 486.59 399.82 492.13 402.67 Z" id="HU-SD" data-name="Szeged"/>
<path d="M 33.02 327.93 39.36 318.47 38.34 312.51 43.91 312.48 48.85 309.19 56.62 299.7 62.08 289.3 66.5 287.17 78.25 286.41 88.54 281.07 102.25 279.1 107.14 276.17 109.22 269.73 115.83 272.2 119.1 267.64 125.58 274.05 123.54 279.85 125.06 318.65 123.55 330.57 127.18 336.02 133.5 333.39 134.23 355.94 128.9 371.43 115.64 374.67 112.3 367.82 111.31 361.54 108.17 358.4 106.98 351.03 102.07 351.32 101.28 358.17 97.94 358.74 98.54 378.37 103.26 381.79 109.35 382.64 113.91 380.4 115.93 384.84 113.13 391.42 100.82 395.37 97.88 391.9 93.38 393.62 91.04 384.64 84.45 380.56 73.74 376.47 67.49 367.68 58.61 366.57 50.56 361.27 48.85 353.9 40.55 343.7 33.73 338.23 37.3 333.65 37.58 329.51 33.02 327.93 Z M 85.27 313.36 97.3 310.14 95.34 296.85 89.44 291.46 80.61 292.96 81.09 303.67 85.27 306.55 85.27 313.36 Z" fill-rule="evenodd" id="HU-ZA" data-name="Zala"/>
<path d="M 115.64 374.67 128.9 371.43 134.23 355.94 133.5 333.39 138 325.58 142.78 321.59 150.63 322.09 161.49 318.81 185.44 308.64 206.63 295.96 211.91 294.46 216.54 289.53 233.76 280.55 240.13 281.1 246.05 283.81 251 294.91 250.07 306.93 250.86 311.75 243.03 315.31 240.05 320.53 236.7 331.02 235.43 344.1 229.67 358.88 230.79 365.89 233.33 367.34 236.7 383.55 231.37 391.82 217.94 393.48 207.09 407.78 203.46 410.61 192.26 412.77 188.86 416.71 189.16 427.15 187.14 432.47 180.16 436.07 183.57 446.44 183.13 454.97 190.91 465.52 190.52 470.43 184.59 471.62 183.54 464.92 177.11 457.41 167.8 454.41 153.35 452.86 148.2 454.11 143.64 450.02 140.03 444.58 136.82 433.02 130.79 426.07 121.24 425.74 113.8 420.59 110.87 416 104.61 410.89 93.38 393.62 97.88 391.9 100.82 395.37 113.13 391.42 115.93 384.84 113.91 380.4 115.64 374.67 Z M 198.91 371.96 194.33 372.47 193.56 381.66 190.74 385.24 193.91 394.41 194.96 404.6 199.54 401.03 203.41 403.58 207.29 393.9 211.16 390.84 210.1 381.66 206.58 370.94 198.91 371.96 Z" fill-rule="evenodd" id="HU-SO" data-name="Somogy"/>
<path d="M 317.65 429.72 321.91 429.85 325.49 444.72 322.16 456.74 321.96 462.59 315.01 466.24 304.54 461.78 299.68 464.9 292.67 477.61 287.59 481.97 279.97 483.17 273.65 490 268.41 487.47 262.58 489.31 250.06 482.89 240.38 482.89 234.68 485.19 222.31 481.75 214.18 481.75 208.5 484.49 202.76 477.99 184.59 471.62 190.52 470.43 190.91 465.52 183.13 454.97 183.57 446.44 180.16 436.07 187.14 432.47 189.16 427.15 188.86 416.71 192.26 412.77 203.46 410.61 207.09 407.78 217.94 393.48 231.37 391.82 236.7 383.55 242.75 384.67 247.03 377.94 260.9 376.65 269.15 387.44 271.4 393.49 273.2 408.06 282.7 401.9 288.59 407.58 293.26 406.1 298.21 414.75 305.56 424.59 317.65 429.72 Z M 267.74 437.02 268.8 435 262.81 417.73 257.88 420.78 248.38 419.25 241.15 425.68 240.28 440.07 248.73 447.16 256.12 447.16 261.76 436.01 267.74 437.02 Z" fill-rule="evenodd" id="HU-BA" data-name="Baranya"/>
<path d="M 714.38 30.61 711.9 33.32 705.08 46.66 696.39 48.15 689.08 57.93 685.08 60.18 677.65 60.66 659.32 72.11 650.21 69.84 634.14 70.41 630.69 73.8 628.28 81.82 630.2 87.2 628.99 92.7 622.04 96.84 611.57 96.98 607.87 93.24 594.33 100.41 591.5 108.53 590.62 112.47 584.76 120.82 584.99 127.06 581.48 133.84 582.11 140.22 575.65 141.41 571.33 150.93 565.43 156.93 556.86 157.79 551.55 159.02 532.12 154 528.1 144.51 522.66 138.1 513.24 122.55 514.71 115.85 510.13 107.02 516.81 98.97 518.34 91.93 522.71 89.1 535.81 87.32 539.67 92.66 552.17 101.11 562.88 98.89 566.75 94.44 563.48 85.54 563.48 80.19 557.83 68.59 549.2 65.92 544.14 62.34 526.2 76.59 519.95 77.04 516.11 81.64 509.71 74.94 502.22 84.87 498.22 81.96 486.47 85.25 479.44 80.79 474.39 75.56 471.76 76.75 464.99 70.38 471.9 66.64 476.31 58.13 480.59 58.59 487.44 53.85 492.53 57.11 498.63 52.25 504.03 42.63 508.6 28.57 515.3 19.69 517.15 17.04 517.15 8.64 527.84 6.77 552.72 1 559.95 5.13 565.34 5.97 571.75 9.9 578.89 10.04 590.99 15.2 604 9.94 608.92 12.7 613.69 6.18 628.07 2.38 635.86 6.12 639.51 13.25 647.73 14.51 650.28 23.85 657.83 35.9 663.73 41.47 670.99 42.42 687.45 35.8 697.88 34.59 704.92 35.29 711.39 30.15 714.38 30.61 Z" id="HU-BZ" data-name="Borsod-Abaúj-Zemplén"/>
<path d="M 464.99 70.38 471.76 76.75 463.71 83.04 458.73 84.99 462.91 93.77 463.76 99.57 457.36 102.58 455.41 111.04 449.13 116.23 445.54 114.69 439.7 122.63 432.6 122.78 426.66 133 422.24 134.45 411.17 147.67 403.9 149.04 396.8 153.13 395.67 141.65 391.79 132.8 387.23 130.7 362.11 125.92 352.6 126.15 338.01 115.75 335.24 109.55 339.34 105.88 339 97.68 335.04 92.04 345.09 90.07 354.44 89.15 369.03 90.94 377.34 86.15 393.22 86.49 399.52 82 402.02 68.24 405.34 64.49 416.16 61.6 423.67 66.91 431.85 66.31 433.04 73.6 429.12 78.51 426.44 92.77 435.66 94.55 438.93 88.76 449.32 79.72 457.42 73.71 464.99 70.38 Z" id="HU-NO" data-name="Nógrád"/>
<path d="M 433.04 73.6 442.4 74.72 449.32 79.72 438.93 88.76 435.66 94.55 426.44 92.77 429.12 78.51 433.04 73.6 Z" id="HU-ST" data-name="Salgótarján"/>
<path d="M 211.38 196.94 213.2 188.41 211.88 183.52 216.87 180.37 214.1 176.43 216.64 169.41 213.17 166.35 212.84 151.04 211.51 145 238.46 143.25 252.97 144.76 266.13 140.75 290.22 137.94 306.72 140.55 315.52 132.78 321.08 131.05 329.12 134.56 332.93 141.73 333.61 146.96 325.56 151.2 326.81 160.11 314.51 160.33 316.38 165 310.61 170.77 305.79 178.3 285.91 179.44 286.86 175.9 282.93 170.08 272.31 168.02 269.08 171.45 269.31 179.32 273.46 184.45 279.56 188.14 264.46 199.95 260.83 205.3 250.33 195.43 240.3 199.48 239.41 208.7 237.35 213.56 223.94 216.47 219.25 209.07 210.98 206.67 211.38 196.94 Z" id="HU-KE" data-name="Komárom-Esztergom"/>
<path d="M 418.93 273.64 409.71 260.1 405.27 255.66 397.23 254.4 393.82 262.46 386.89 266.09 384.32 271.14 378.47 268.63 382.18 259.25 381.7 254.25 374.06 249.53 361.38 255.2 352.64 262.26 341.6 264.22 339.08 270 331.45 261.64 328.64 249.94 329.55 239.75 331.98 234.68 333.29 226.06 331.41 223.18 334.45 220.62 336.84 211.81 350.23 209.29 359.63 213.39 370.81 205.39 378.63 198.19 381.28 191.49 361.04 177.08 353.27 170.46 347.67 170.83 341.71 175.14 334.57 176.22 335.63 186.45 339.77 198.32 337.61 205.69 326.83 195.72 323.83 197.08 326.6 208.69 321.6 214.06 317.01 204.64 316.46 195.25 310.45 187.75 305.79 178.3 310.61 170.77 316.38 165 314.51 160.33 326.81 160.11 325.56 151.2 333.61 146.96 332.93 141.73 329.12 134.56 321.08 131.05 313.29 124.29 314 110.06 312.64 106.68 318.64 102.8 323.85 94.56 335.04 92.04 339 97.68 339.34 105.88 335.24 109.55 338.01 115.75 352.6 126.15 362.11 125.92 387.23 130.7 391.79 132.8 395.67 141.65 396.8 153.13 403.9 149.04 411.17 147.67 415.78 151.46 413.66 156.04 422.23 172.37 421.03 177.51 423.28 182.33 431.42 184.36 432.02 190.42 460.32 218.81 461.05 229.44 463.12 232.65 470.24 241.6 467.12 249.47 466.5 257.83 470.3 265.69 476.85 271.5 484.26 274.41 477.71 279.29 469.47 272.2 462.67 276.13 457.79 282.12 450.6 278.18 446.88 279.07 439.2 285.11 433.33 284.64 424.33 279.07 418.93 273.64 Z" id="HU-PE" data-name="Pest"/>
<path d="M 577.48 234.93 571.29 242.59 561.82 251.97 557.11 252.1 546.86 264.53 547.4 267.85 542.89 273.25 544.75 283.73 543.51 288.88 535.22 292.58 531.93 289.3 525.81 290.73 522.48 295.44 514.35 294.85 509.75 298.91 508.47 303.89 510.27 309.58 498.43 316.27 489.89 311.1 476.34 315.61 467.7 310.04 462.35 309.56 460.25 305.87 463.73 297.3 471.3 295.99 478.61 286.59 473.66 285.11 477.71 279.29 484.26 274.41 476.85 271.5 470.3 265.69 466.5 257.83 467.12 249.47 473.96 250.85 486.47 258.72 496 255.22 496.29 249.53 492.12 247.78 489.74 242.8 494.29 237.87 491.23 232.01 483.19 225.42 476.05 216.64 463.12 232.65 461.05 229.44 460.32 218.81 432.02 190.42 431.42 184.36 423.28 182.33 421.03 177.51 422.23 172.37 428.58 169.42 434.99 168.77 439.07 171.16 445.51 162.31 455.86 159.36 460.47 160.89 463.3 174.62 469.56 178.91 472.41 173.55 483.53 170.47 488.65 179.3 493.14 181.71 494.39 191.07 497.77 196.81 504.53 201.31 510.01 201.18 519.08 194.68 520.76 189.63 541.58 175.5 543.98 166.78 548.71 164.2 551.55 159.02 556.86 157.79 559.61 166.66 564.14 171.35 571.74 173.58 575.38 177.06 578.33 198.79 581.41 215.24 580.82 226.25 577.48 234.93 Z" id="HU-JN" data-name="Jász-Nagykun-Szolnok"/>
<path d="M 339.08 270 337.57 276.63 330.75 272.98 324.28 279.76 322.67 289.23 324.51 294.98 334.23 301.83 323.7 307.07 312.21 321.72 302.87 326.97 299.36 326.04 291.06 312.82 286.29 314.85 283.43 319.32 272.1 316.36 263.97 309.62 250.86 311.75 250.07 306.93 251 294.91 246.05 283.81 250.53 276.83 252.22 268.39 251 264 251.97 252.59 247.03 246.39 242.76 236.67 237.74 231.76 237.07 222.4 241.27 221.22 237.35 213.56 239.41 208.7 240.3 199.48 250.33 195.43 260.83 205.3 264.46 199.95 279.56 188.14 281.97 182.31 285.91 179.44 305.79 178.3 310.45 187.75 316.46 195.25 317.01 204.64 321.6 214.06 327.36 222.6 331.41 223.18 333.29 226.06 331.98 234.68 329.55 239.75 328.64 249.94 331.45 261.64 339.08 270 Z M 283.78 228.04 279.16 222.59 276.16 227.36 263.91 240.46 272.93 252.85 275.7 264.39 282.86 259.98 286.79 262.01 293.02 250.47 290.25 241.98 291.41 231.44 283.78 228.04 Z" fill-rule="evenodd" id="HU-FE" data-name="Fejér"/>
<path d="M 131.32 206.75 139.13 202.52 151.03 199.35 159.07 203.01 166.03 200.62 168.41 196.99 174.47 197.87 177.85 195.76 182.56 197.87 192.97 192.15 207.74 192.99 211.38 196.94 210.98 206.67 219.25 209.07 223.94 216.47 237.35 213.56 241.27 221.22 237.07 222.4 237.74 231.76 242.76 236.67 247.03 246.39 251.97 252.59 251 264 252.22 268.39 250.53 276.83 246.05 283.81 240.13 281.1 233.76 280.55 216.54 289.53 211.91 294.46 206.63 295.96 185.44 308.64 161.49 318.81 150.63 322.09 142.78 321.59 138 325.58 133.5 333.39 127.18 336.02 123.55 330.57 125.06 318.65 123.54 279.85 125.58 274.05 119.1 267.64 133.5 264.14 131.08 246.04 130.62 232.8 135.31 221.43 143.14 217.89 136.6 213.3 131.32 206.75 Z M 225.98 265.69 224.29 247.49 217.25 236.3 213.31 237.54 211.9 242.93 205.14 243.34 207.11 249.14 204.58 259.08 211.06 272.72 216.41 273.96 221.19 264.04 225.98 265.69 Z" fill-rule="evenodd" id="HU-VE" data-name="Veszprém"/>
<path d="M 334.23 301.83 334.33 305.49 341.05 314.34 343.06 325.87 337.31 334.84 329.36 338.42 326.16 341.92 328.41 345.97 333.45 361.77 333.76 366.92 330.17 382.32 332.65 390.47 332.78 404.92 324.22 408.33 325.66 413.84 323.26 419.18 318.74 420.98 322.75 425.78 317.65 429.72 305.56 424.59 298.21 414.75 293.26 406.1 288.59 407.58 282.7 401.9 273.2 408.06 271.4 393.49 269.15 387.44 260.9 376.65 247.03 377.94 242.75 384.67 236.7 383.55 233.33 367.34 230.79 365.89 229.67 358.88 235.43 344.1 236.7 331.02 240.05 320.53 243.03 315.31 250.86 311.75 263.97 309.62 272.1 316.36 283.43 319.32 286.29 314.85 291.06 312.82 299.36 326.04 302.87 326.97 312.21 321.72 323.7 307.07 334.23 301.83 Z M 315.71 385.28 312.18 375.82 308.46 379.5 303.27 379.24 298.98 383.91 299.32 391.98 307.61 395.89 311.82 388.5 325.77 392.5 323.02 385.28 315.71 385.28 Z" fill-rule="evenodd" id="HU-TO" data-name="Tolna"/>
<path d="M 467.12 249.47 470.24 241.6 463.12 232.65 476.05 216.64 483.19 225.42 491.23 232.01 494.29 237.87 489.74 242.8 492.12 247.78 496.29 249.53 496 255.22 486.47 258.72 473.96 250.85 467.12 249.47 Z" id="HU-SK" data-name="Szolnok"/>
<path d="M 337.61 205.69 339.77 198.32 335.63 186.45 334.57 176.22 341.71 175.14 347.67 170.83 353.27 170.46 361.04 177.08 381.28 191.49 378.63 198.19 370.81 205.39 359.63 213.39 350.23 209.29 336.84 211.81 337.61 205.69 Z" id="HU-BU" data-name="Budapest"/>
<path d="M 336.84 211.81 334.45 220.62 331.41 223.18 327.36 222.6 321.6 214.06 326.6 208.69 323.83 197.08 326.83 195.72 337.61 205.69 336.84 211.81 Z" id="HU-ED" data-name="Érd"/>
<path d="M 513.24 122.55 522.66 138.1 528.1 144.51 532.12 154 551.55 159.02 548.71 164.2 543.98 166.78 541.58 175.5 520.76 189.63 519.08 194.68 510.01 201.18 504.53 201.31 497.77 196.81 494.39 191.07 493.14 181.71 488.65 179.3 483.53 170.47 472.41 173.55 469.56 178.91 463.3 174.62 460.47 160.89 455.86 159.36 445.51 162.31 439.07 171.16 434.99 168.77 428.58 169.42 422.23 172.37 413.66 156.04 415.78 151.46 411.17 147.67 422.24 134.45 426.66 133 432.6 122.78 439.7 122.63 445.54 114.69 449.13 116.23 455.41 111.04 457.36 102.58 463.76 99.57 462.91 93.77 458.73 84.99 463.71 83.04 471.76 76.75 474.39 75.56 479.44 80.79 486.47 85.25 498.22 81.96 502.22 84.87 509.71 74.94 516.11 81.64 518.13 83.76 518.34 91.93 516.81 98.97 510.13 107.02 506.92 103.05 505.8 94.7 500.22 93.59 495.38 101.38 497.61 113.61 496.12 128.04 498.73 134.69 503.94 134.69 506.54 126.38 513.24 122.55 Z" id="HU-HE" data-name="Heves"/>
<path d="M 510.13 107.02 514.71 115.85 513.24 122.55 506.54 126.38 503.94 134.69 498.73 134.69 496.12 128.04 497.61 113.61 495.38 101.38 500.22 93.59 505.8 94.7 506.92 103.05 510.13 107.02 Z" id="HU-EG" data-name="Eger"/>
<path d="M 516.11 81.64 519.95 77.04 526.2 76.59 544.14 62.34 549.2 65.92 557.83 68.59 563.48 80.19 563.48 85.54 566.75 94.44 562.88 98.89 552.17 101.11 539.67 92.66 535.81 87.32 522.71 89.1 518.34 91.93 518.13 83.76 516.11 81.64 Z" id="HU-MI" data-name="Miskolc"/>
<path d="M 529.38 370.43 530.99 381.28 524.78 391.18 521.55 400.54 516 404.88 509.07 404.21 503.99 401.54 492.13 402.67 486.59 399.82 485.98 392.81 483.84 384.43 482.63 372.89 486.44 369.08 491.29 372.09 495.45 358.01 504.69 360.02 514.85 355.99 519.01 358.68 529.38 370.43 Z" id="HU-HV" data-name="Hódmezôvásárhely"/>
<path d="M 337.57 276.63 338.91 289.98 334.72 296.89 334.23 301.83 324.51 294.98 322.67 289.23 324.28 279.76 330.75 272.98 337.57 276.63 Z" id="HU-DU" data-name="Dunaújváros"/>
<path d="M 439.2 285.11 439.01 289.76 431.15 292.46 427.69 297.87 427.69 305.63 423.99 312.72 419.37 309.01 416.6 299.22 412.68 292.12 408.29 280.28 410.6 273.17 416.6 276.22 418.93 273.64 424.33 279.07 433.33 284.64 439.2 285.11 Z" id="HU-KM" data-name="Kecskemét"/>
<path d="M 279.56 188.14 273.46 184.45 269.31 179.32 269.08 171.45 272.31 168.02 282.93 170.08 286.86 175.9 285.91 179.44 281.97 182.31 279.56 188.14 Z" id="HU-TB" data-name="Tatabánya"/>
<path d="M 193.04 148.94 198.35 148.44 202.17 160.15 201.25 163.35 188.89 170.49 181.34 170.49 176.7 173.94 170.81 171.6 166.96 165.55 173.79 160.28 176.03 151.65 187.48 147.7 193.04 148.94 Z" id="HU-GY" data-name="Gyôr"/>
<path d="M 67.47 226.15 71.87 234.3 69.99 248.18 57.16 247.26 51.97 229.07 64.45 225.41 67.47 226.15 Z" id="HU-SH" data-name="Szombathely"/>
<path d="M 85.27 313.36 85.27 306.55 81.09 303.67 80.61 292.96 89.44 291.46 95.34 296.85 97.3 310.14 85.27 313.36 Z" id="HU-ZE" data-name="Zalaegerszeg"/>
<path d="M 113.91 380.4 109.35 382.64 103.26 381.79 98.54 378.37 97.94 358.74 101.28 358.17 102.07 351.32 106.98 351.03 108.17 358.4 111.31 361.54 112.3 367.82 115.64 374.67 113.91 380.4 Z" id="HU-NK" data-name="Nagykanizsa"/>
<path d="M 225.98 265.69 221.19 264.04 216.41 273.96 211.06 272.72 204.58 259.08 207.11 249.14 205.14 243.34 211.9 242.93 213.31 237.54 217.25 236.3 224.29 247.49 225.98 265.69 Z" id="HU-VM" data-name="Veszprém"/>
<path d="M 198.91 371.96 206.58 370.94 210.1 381.66 211.16 390.84 207.29 393.9 203.41 403.58 199.54 401.03 194.96 404.6 193.91 394.41 190.74 385.24 193.56 381.66 194.33 372.47 198.91 371.96 Z" id="HU-KV" data-name="Kaposvár"/>
<path d="M 267.74 437.02 261.76 436.01 256.12 447.16 248.73 447.16 240.28 440.07 241.15 425.68 248.38 419.25 257.88 420.78 262.81 417.73 268.8 435 267.74 437.02 Z" id="HU-PS" data-name="Pécs"/>
<path d="M 315.71 385.28 323.02 385.28 325.77 392.5 311.82 388.5 307.61 395.89 299.32 391.98 298.98 383.91 303.27 379.24 308.46 379.5 312.18 375.82 315.71 385.28 Z" id="HU-SS" data-name="Szekszárd"/>
<path d="M 283.78 228.04 291.41 231.44 290.25 241.98 293.02 250.47 286.79 262.01 282.86 259.98 275.7 264.39 272.93 252.85 263.91 240.46 276.16 227.36 279.16 222.59 283.78 228.04 Z" id="HU-SF" data-name="Székesfehérvár"/>
<path d="M 597.85 332.44 578.45 333.21 575.22 315.35 580.3 309.96 585.15 301.18 596.47 306.49 601.78 314.25 600.39 320.99 602.47 326.72 597.85 332.44 Z" id="HU-BC" data-name="Békéscsaba"/>
<path d="M 642.4 159.16 643.89 153.85 649.84 152.96 654.61 168.88 657.88 173.29 667.11 165.34 671.28 164.02 679.62 176.83 679.32 187.85 676.94 194.46 668.9 203.71 664.13 198.86 659.67 199.74 653.12 208.1 645.97 208.1 644.48 201.06 637.79 197.26 635.41 188.89 627.37 188.89 627.07 180.08 634.66 155.62 642.1 148.54 640.61 157.83 642.4 159.16 Z" id="HU-DE" data-name="Debrecen"/>
<path d="M 678.12 103.3 683.48 103.74 683.48 116.62 679.61 117.51 679.31 123.72 676.63 129.49 670.09 130.82 666.22 128.16 651.04 123.72 652.83 104.19 655.99 96.46 668.49 95.13 671.87 97.52 671.87 102.85 678.12 103.3 Z" id="HU-NY" data-name="Nyíregyháza"/>
</g>
</svg>