<?xml version="1.0"?>
<svg xmlns="http://www.w3.org/2000/svg" version="1.2" baseProfile="tiny" width="800" height="2237" viewBox="0 0 800 2237" stroke-linecap="round" stroke-linejoin="round">
<g id="MLOC-IL">
<path d="M 1 1265.14 33.86 1239.27 50.91 1220.85 48.45 1181.84 58.91 1161.84 113.93 1108.91 150.74 1077.97 114.32 1053.23 176.82 948.94 204.23 886.87 225.85 887.9 223.18 909.09 208.02 937.02 254.77 930.77 262.92 948.76 282.99 933.79 304.82 956.64 304.97 1009.82 344.02 1038.84 336.3 1053.88 331.17 1103.89 309.24 1140.71 302.15 1159.78 307.83 1178.93 331.48 1189.14 386.35 1178.72 447.06 1179.25 475.48 1168.56 528.54 1124.21 556.66 1108.08 589.76 1105.31 589.27 1138.63 587.19 1157.28 569.49 1196.59 572.3 1213.02 559.38 1238.83 566.67 1269.03 579.09 1294.66 580.2 1326.39 557.37 1371.72 554.3 1406.16 535.73 1429.18 523.62 1447.76 518.08 1491.2 506.06 1503.09 495.23 1544.07 466.73 1602.27 434.94 1707.86 444.65 1754.5 435.79 1773.41 427.55 1828.56 437.5 1863 429.61 1899.66 408.78 1930.99 393.14 1993.14 390.63 2038.65 368.04 2099.89 361.86 2145.34 350.74 2169.89 345.18 2197.38 323.4 2236 311.68 2235.93 292.95 2191.42 293.85 2152.74 281.33 2095.07 240.94 1983.68 237.82 1946.35 171.88 1756.19 139.94 1724.77 135.51 1712.96 141.1 1678.51 128.52 1660.91 124.55 1627.94 113.93 1582.98 40.5 1388.44 1 1265.14 Z" id="IL-D" data-name="HaDarom"/>
<path d="M 639.81 593.33 564.81 576 558.02 530.04 543.53 521.02 498.42 520.81 469.18 502.69 450.51 484.58 423.02 510.35 392.14 495.62 378.91 464.57 388.64 444.18 404.96 445.64 419.4 428.3 417.34 414.24 431.17 406.28 441.96 362.21 433.73 333.26 416.43 323.98 403.54 299.55 401.62 273.55 404.99 238.22 418.02 185.87 456.97 188.8 507.37 179.95 528.34 204.37 600.47 186.82 616.11 151.94 619.89 108.46 634.22 74.23 661.03 95.56 668.57 80.91 684.18 76.76 706.75 49.97 728.73 45.02 749.2 29.46 766.41 1 760.97 28.21 738.54 43.14 757.15 55.9 740.85 79.07 757.91 93.17 759.87 120.36 772.39 143.97 761.73 172.57 778.43 187.96 784.87 243.23 799 269.49 780.34 297.96 772.79 337.28 735.5 385.68 700.26 404.83 676.32 423.39 664.77 421.97 640.66 443.58 646.34 484.85 640.01 515.79 649.06 528.16 635.43 563.65 639.81 593.33 Z" id="IL-Z" data-name="HaZafon"/>
<path d="M 403.54 299.55 416.43 323.98 433.73 333.26 441.96 362.21 431.17 406.28 417.34 414.24 419.4 428.3 404.96 445.64 388.64 444.18 378.91 464.57 392.14 495.62 423.02 510.35 450.51 484.58 469.18 502.69 459.64 502.78 440.62 522.29 398.12 548.12 388.56 564.86 382.73 594.78 358.28 581.34 302.46 580.2 320.15 491.87 327.44 444.3 338.61 397.15 341.26 345.27 352.43 329.51 380.27 338.06 397.34 319.68 403.54 299.55 Z" id="IL-HA" data-name="Haifa"/>
<path d="M 282.99 933.79 262.92 948.76 254.77 930.77 208.02 937.02 223.18 909.09 225.85 887.9 204.23 886.87 226.61 842.32 237.29 806.92 244.11 813.41 273.63 814.5 295.31 806.64 302.7 793.38 291.54 769.21 301.65 734.59 299.91 715.3 271.63 703.98 287.8 653.23 302.46 580.2 358.28 581.34 382.73 594.78 377.3 616.45 367.14 621.55 361.91 654.52 372.22 666.82 366.94 681.26 346.47 707.46 360.45 743.36 359.12 763.13 370.33 802.64 360.33 833.36 385.79 866.96 383.51 894.2 366.09 898.37 346.94 898.28 322.35 912.41 312.61 925.58 282.99 933.79 Z" id="IL-M" data-name="HaMerkaz"/>
<path d="M 344.02 1038.84 304.97 1009.82 304.82 956.64 282.99 933.79 312.61 925.58 322.35 912.41 346.94 898.28 366.09 898.37 380.18 910.46 394.07 898.67 414.3 911.3 451.45 924.88 471.81 917.69 488.46 903.79 494.71 958.61 482.62 981.09 454.12 974.93 439.29 965.06 395.63 999.7 353.96 1026.24 344.02 1038.84 Z" id="IL-JM" data-name="Jerusalem"/>
<path d="M 271.63 703.98 299.91 715.3 301.65 734.59 291.54 769.21 302.7 793.38 295.31 806.64 273.63 814.5 244.11 813.41 237.29 806.92 271.63 703.98 Z" id="IL-TA" data-name="Tel Aviv"/>
</g>
</svg>