<?xml version="1.0"?>
<svg xmlns="http://www.w3.org/2000/svg" version="1.2" baseProfile="tiny" width="800" height="917" viewBox="0 0 800 917" stroke-linecap="round" stroke-linejoin="round">
<g id="MLOC-JP">
<path d="M 239.63 617.43 240.2 619.65 239.39 620.31 237.75 623.8 236.59 624.74 235.31 623.9 236.4 621.51 237.31 620.27 238.6 619.72 239.63 617.43 Z M 287.35 630.89 284.6 631.77 283.67 632.68 282.57 635.31 285.72 636.71 284.99 638.01 285.32 638.87 284.2 640.94 282.38 641.11 281.39 643.77 279.44 645.52 274.85 646.95 273.98 647.83 272.51 648.21 270.85 649.92 270.15 650 270.35 647.29 273.11 645.18 273.89 642.52 273.51 641.81 274.43 640.24 274.95 636.08 273.28 632.35 271.74 631.38 271.36 630.3 271.81 628.53 271.47 627.84 269.42 627.45 267.82 626.19 269.46 624.69 272.03 625.03 272.3 626.82 273.67 627.1 275.08 625.14 275.47 623.53 275.27 622.04 274.29 621.09 272.95 621.17 271.14 620.47 269.7 620.91 268.59 622.24 268.21 624.05 267.01 625.59 265.66 629.17 265.28 630.84 265.36 632.48 267.21 637.29 268.96 638.88 270.3 639.58 269.52 642.52 268.26 643.1 265.93 643.52 265.4 643.25 264.46 640.86 262.94 639.96 257.57 639.78 254.95 640.08 253.93 637.27 254.45 636.39 253.14 634.74 251.35 633.45 252.86 632.91 254.04 633.31 255.16 634.57 257.43 631.97 258.26 630 258.87 627.16 258.52 626.16 258.93 624.54 256.25 620.66 253.62 619.11 253.18 617.82 253.51 616.3 254.69 613.89 254.89 612.09 254.36 610.36 253.23 608.47 254.32 607.2 253.47 605.34 254.41 604.22 255.86 603.68 256.92 605.05 258.78 603.89 259.22 602.53 260.55 603.98 262.01 604.52 265.54 603.43 267.78 602.46 268.51 602.72 272.06 605.45 271.63 606.43 274.55 611.05 277.68 613.81 277.78 616.41 278.5 618.06 280.89 619.03 282.18 620.55 283.34 623.76 285.61 624.82 287.54 625.09 288.79 626.65 288.42 629.23 287.35 630.89 Z M 243.48 695.68 243.62 696.8 242.43 697.7 241.36 695.75 242 695.2 243.48 695.68 Z M 270.74 675.51 269.78 678.91 267.34 681.11 264.16 681.52 262.47 680.99 260.68 676.92 260.33 674.71 261.97 674.52 263.5 672.16 264.61 671.73 267.01 673.03 268.12 673.98 269.48 674.37 270.74 675.51 Z M 283.91 656.62 285.16 658.97 284.58 659.51 284.85 662.36 283.97 663.87 284.1 665.92 283.41 666.82 283.33 668.11 282.21 668.36 281.49 669.65 280.86 672.2 281.32 674.47 280.13 675.5 278.83 675.85 278.11 676.75 277.11 675.85 277.4 674.59 276.91 671.64 277.78 671.21 279.66 668.78 280.38 666.58 279.97 663.45 282.08 660.47 282.31 658.7 283.91 656.62 Z M 254.88 671.58 256.35 672.58 254.61 673.64 253.24 672.28 252.96 670.84 254.88 671.58 Z M 245.23 692.03 243.7 691.61 244.48 690.44 245.23 692.03 Z M 244.87 614.63 244.48 616.6 242.87 616.95 241.6 615.21 242.47 614.31 243.78 615.43 244.87 614.63 Z" fill-rule="evenodd" id="JP-46" data-name="Kagoshima"/>
<path d="M 289.1 542.22 291.04 542.54 292 543.49 294.92 543.81 296.67 543.52 298.69 541.43 298.98 540.53 300.27 539.55 302.68 539.27 303.99 539.91 305.38 539.93 307.55 543.58 307.91 545.28 307.82 547.58 306.43 550.85 304.44 550.43 304.24 552.21 302.9 553.24 301.5 553.36 300.69 552.54 299.48 553.6 299.9 556.41 301.21 557.18 303.46 557.26 304.93 556.48 306.52 557.22 306.9 556.54 310.78 557.64 312.96 556.62 312.53 559.46 311.09 560.74 310.34 562.49 311.5 563.09 313.51 562.43 312.21 564.37 314.52 564.96 316.69 564.93 316.43 565.91 314.53 565.85 313.61 568.51 315.57 570.11 316.26 569.87 317.88 570.98 316.37 572.43 316.99 573.16 315.72 574.5 316.87 575.68 314.52 577.02 312.89 576.81 312.53 578.96 311.38 578.85 310.68 576.19 308.65 575.2 307.74 575.27 306.37 577.54 302.69 577.79 300.93 578.48 299.61 577.81 299.65 576.42 298.29 575.38 296.8 575.92 294.54 575.93 293.4 575.19 291.24 573.37 290.68 572.22 290.28 568.84 289.12 566.06 286.45 561.87 284.17 560.28 281.31 561.11 281.39 562.81 282.43 564.49 281.78 566.43 280.39 566.46 277.58 564.86 276.33 564.44 277.07 561.85 276.03 558.1 276.55 556.25 276.56 553.13 278.11 550.06 280.37 547.56 282.24 546.93 286.44 547.35 287.31 547.12 288.48 545.04 288.45 542.87 289.1 542.22 Z" id="JP-44" data-name="Ōita"/>
<path d="M 289.1 542.22 288.45 542.87 288.48 545.04 287.31 547.12 286.44 547.35 282.24 546.93 280.37 547.56 278.11 550.06 276.56 553.13 276.55 556.25 276.03 558.1 277.07 561.85 276.33 564.44 272.62 562.21 271.11 561.97 269.39 563.46 267.43 563.71 265.41 565.24 264.09 568.03 262.17 568.62 261.93 564.37 260.19 563.02 259.39 561.89 259.3 560.31 260.5 557.95 263.02 556.77 264.09 554.68 265.76 553.72 265.92 552.08 265.32 550.25 264.19 550.3 262.07 551.67 257.32 548.66 256.23 548.28 248.46 548.71 249.13 547.14 252.66 545.88 251.31 544.56 251.01 543.18 252.66 542.48 252.77 541.51 255.28 540.52 255.27 541.96 257.33 543.83 258.2 542.86 260.84 542.55 261.42 540.63 260.68 539.51 263.52 536.73 263.05 534.04 266.33 530.97 269.29 530.89 271.08 528.72 272.72 528.82 273.58 528.32 276.1 528.49 277.26 529.08 277.94 530.33 279.08 530.53 280.33 528.55 282.34 527.38 282.63 528.68 281.85 530.25 281.77 531.97 280.76 533.68 282.34 533.81 282.43 536.62 284.93 541.28 289.1 542.22 Z" id="JP-40" data-name="Fukuoka"/>
<path d="M 248.46 548.71 256.23 548.28 257.32 548.66 262.07 551.67 264.19 550.3 265.32 550.25 265.92 552.08 265.76 553.72 264.09 554.68 263.02 556.77 260.5 557.95 259.3 560.31 259.39 561.89 257.33 561.57 255.62 559.96 254.85 561.16 251.8 563.56 254.31 568.15 254.96 568.84 254.32 570.15 250.81 569.47 248.32 568.32 244.59 564.94 244.25 564.19 244.96 562.87 244.38 561.8 241.24 560.51 239.06 557.13 238.76 556.17 240.73 553.99 241.83 553.3 242.62 551.23 240.79 550.03 239.77 548.84 242.12 545.56 244.06 544.96 245.85 546.4 245.15 547.79 246.81 549.08 248.46 548.71 Z" id="JP-41" data-name="Saga"/>
<path d="M 240.73 553.99 238.76 556.17 239.06 557.13 241.24 560.51 244.38 561.8 244.96 562.87 244.25 564.19 244.59 564.94 248.32 568.32 250.81 569.47 254.32 570.15 253.78 571.33 250.87 572.97 252.56 574.36 254 574.25 255.7 572.99 257.92 572.95 259.04 573.77 260.19 576.39 260.31 578.28 259.12 581.63 256.56 582.33 256.06 583.39 253.53 584.73 253.11 583.62 251.72 582.71 251.67 580.94 252.55 580.84 254.54 578.89 253.42 576.41 250.47 576.33 248.33 577.81 245.62 578.4 243.53 581.82 242.15 582.75 239.72 585.11 239.62 584.11 240.72 581.82 240.11 580.59 241.81 580.22 242.28 579.25 241.06 578.77 239.21 575.54 237.87 575.89 236.66 574.48 235.67 571.76 234.58 570.86 234.37 568.67 235.11 567.63 235.05 566.41 236.09 563.89 237.43 564.52 238.81 565.81 238.08 567.01 240.11 567.39 241.03 568.66 240.73 571.02 240.02 573.01 241.68 574.27 243.12 572.97 246.78 574.39 246.7 573.5 244.8 570.76 245.3 567.15 243.06 565.19 241.05 566.01 240.13 564.59 239.35 565.38 238.35 565.07 237.72 562.71 236.06 563.02 236.28 561.88 233.24 559.13 231.57 558.39 232.03 556.47 232.94 555.99 232.24 554.44 232.56 552.33 233.96 552.82 235.92 552.69 236.76 553.08 238.27 552.61 240.48 553.29 240.73 553.99 Z M 208.06 581.35 208.79 582.65 204.36 583.09 205.15 584 204.39 585.59 203.09 584.27 200.54 584.35 198.36 583.83 198.98 581.94 200.18 581.6 199.8 577.72 201.1 576.83 201.82 578.45 204.6 577.09 206.8 577.8 206.79 580.11 208.06 581.35 Z M 215.72 568.29 218.22 567.56 218.44 569.18 216.4 570.47 215.53 571.69 215.67 573.75 213.71 573.51 213.97 571.55 213.46 570.58 211.66 569.45 213.79 567.8 214 566.16 215.89 565.54 215.72 568.29 Z M 231.69 550.67 231.92 552.53 231.09 554.65 229.79 556.13 229.51 557.59 227.89 559.53 225.42 560.74 224.25 560.32 226.56 557.23 226.48 556.34 227.56 555.44 227.75 553.29 229.58 552.86 230.63 550.91 231.69 550.67 Z M 239.39 535.48 239.66 536.95 237.95 537.02 237.09 538.52 235.23 536.77 234.87 535.5 235.23 533.71 236.27 531.85 239.08 532.49 239.39 535.48 Z M 223.21 514.15 223.64 516.28 223.1 516.72 221.95 520.51 220.97 521.74 219.84 521.81 218.25 519.76 218.54 518.79 219.23 512.61 220.12 513.57 222.08 512.33 223.21 514.15 Z M 228.1 499.77 228.99 500.72 227.87 504.21 225.54 506.84 225.71 508.05 224.93 508.84 226.54 511.12 225.15 512.98 223.98 510.74 221.81 510.1 221.67 507.67 222.94 503.98 223.68 503.34 222.89 501.16 223.58 498.56 225.51 498.7 226.9 496.98 228.51 496.32 229.32 497.36 229.08 499.75 228.1 499.77 Z M 208.8 575.36 209.07 576.37 208.2 577.56 206.55 576.63 206.62 574.72 207.7 574.55 208.8 575.36 Z M 213.27 571.97 213.29 573.81 211.19 573.06 211.07 572.04 212.04 570.74 213.27 571.97 Z M 217.03 555.3 217.52 556.59 216.74 557.49 214.96 556.6 217.03 555.3 Z" fill-rule="evenodd" id="JP-42" data-name="Nagasaki"/>
<path d="M 272.06 605.45 268.51 602.72 267.78 602.46 265.54 603.43 262.01 604.52 260.55 603.98 259.22 602.53 259.71 601.33 262.24 598.59 263.38 596.43 263.85 594.8 265.08 595.24 265 593.58 266.81 591.57 267.01 589.48 266.41 588.9 267.81 587.79 267.09 586.29 269.58 584.1 269.58 582.41 263.88 583.5 263.78 582.46 267.32 580.34 269.04 580.1 267.85 578.25 268.59 576.9 267.89 575.46 265.21 573.27 263.61 571.56 262.6 570.98 262.17 568.62 264.09 568.03 265.41 565.24 267.43 563.71 269.39 563.46 271.11 561.97 272.62 562.21 276.33 564.44 277.58 564.86 280.39 566.46 281.78 566.43 282.43 564.49 281.39 562.81 281.31 561.11 284.17 560.28 286.45 561.87 289.12 566.06 290.28 568.84 290.68 572.22 291.24 573.37 293.4 575.19 291.53 575.68 290.55 576.4 289.44 578.83 286.47 582.51 285.08 585.6 283.72 585.88 282.88 587.14 282.09 590.21 282.55 591.77 283.98 593.49 285.01 595.78 285.13 596.84 283.85 599.04 284.83 601.62 284.74 602.78 282.29 602.36 279.89 604.46 278.03 604.28 275.49 605.45 272.06 605.45 Z M 252.54 600.79 253.97 601.92 253.04 604.48 251.66 603.74 251.07 601.23 252.54 600.79 Z M 261.51 588.07 262.37 588.86 260.91 592.81 259.71 592.16 257.12 592.38 255.64 592.88 254.63 591.18 254.83 590.38 256.54 589.21 259.87 587.43 261.51 588.07 Z M 252.8 586.64 253.81 587.65 254.14 589.38 254.29 595.22 252.7 596.4 251.85 598.26 249.81 600.09 247.62 601.34 247 600.95 247.1 599.13 245.99 598.55 247.78 597.11 246.9 596.23 246.34 594.53 247.04 593.16 247 591.69 248.25 589.28 248.35 587.65 252.08 586.58 252.8 586.64 Z M 262.79 584.55 262.75 586.38 261.48 586.52 261.11 584.7 262.79 584.55 Z" fill-rule="evenodd" id="JP-43" data-name="Kumamoto"/>
<path d="M 287.35 630.89 288.42 629.23 288.79 626.65 287.54 625.09 285.61 624.82 283.34 623.76 282.18 620.55 280.89 619.03 278.5 618.06 277.78 616.41 277.68 613.81 274.55 611.05 271.63 606.43 272.06 605.45 275.49 605.45 278.03 604.28 279.89 604.46 282.29 602.36 284.74 602.78 284.83 601.62 283.85 599.04 285.13 596.84 285.01 595.78 283.98 593.49 282.55 591.77 282.09 590.21 282.88 587.14 283.72 585.88 285.08 585.6 286.47 582.51 289.44 578.83 290.55 576.4 291.53 575.68 293.4 575.19 294.54 575.93 296.8 575.92 298.29 575.38 299.65 576.42 299.61 577.81 300.93 578.48 302.69 577.79 306.37 577.54 307.74 575.27 308.65 575.2 310.68 576.19 311.38 578.85 312.53 578.96 310.03 581.06 308.89 582.59 308.03 584.91 306.83 585 305.9 587.1 306.37 588.08 307.79 588.9 305.01 590.32 306.14 591.79 304.2 592.88 303.71 595.29 302.77 596.67 301.72 600.21 300.61 604.77 297.7 614.25 297.71 615.46 298.43 617.21 299.41 617.58 298.68 618.97 297.81 623.52 297.98 624.76 296.45 626.18 295.54 628.61 295.83 630.08 295.22 630.76 294.79 633 294.15 634.01 291.37 634.57 289.51 631.56 288.33 631.66 287.35 630.89 Z" id="JP-45" data-name="Miyazaki"/>
<path d="M 402.22 517.17 404.06 516.5 406.35 516.62 407.51 516.16 408.7 518.45 408.51 520.28 407.9 521.28 407.71 525.55 409.01 525.5 409.91 527.26 411.06 527.97 411.31 529.89 409.89 531.17 409.84 532.41 411.8 532.34 412.33 533.27 407 535.86 406.69 537.03 402.74 539.78 400.88 540.47 400.34 541.76 398.62 543.71 397.68 543.9 397.09 545.67 393.41 544.78 392.18 542.36 392.32 540.39 391.39 539.72 388.88 539.42 388.6 536.52 387.39 533.91 385.2 533.84 384.06 534.93 382.76 534.78 380.26 533.38 377.82 533.24 374.49 532.02 375.15 530.1 374.93 526.04 378.3 523.47 379.49 523.2 380.78 522.04 383.29 521.71 385.57 522.92 387.97 521.92 389.96 521.47 391.55 519.89 394.45 519.1 401.42 519.14 402.22 517.17 Z" id="JP-36" data-name="Tokushima"/>
<path d="M 402.22 517.17 401.42 519.14 394.45 519.1 391.55 519.89 389.96 521.47 387.97 521.92 385.57 522.92 383.29 521.71 380.78 522.04 379.49 523.2 378.3 523.47 374.93 526.04 374.45 525.44 372.54 524.95 374.26 522.61 374.5 520.7 374.25 518.17 372.1 515.43 375.35 516.54 376.36 516.2 379.17 513.79 382.39 512.1 383.28 510.58 384.91 510.08 386.82 511.09 389.62 511.28 390.29 510.08 392.12 509.67 392.58 512.25 393.42 512.22 394.34 510.97 396.24 512.32 395.77 513.54 399.26 515.56 400.62 515.43 402.22 517.17 Z M 399.6 502.54 399.84 504.27 398.88 507.77 397.21 506.32 395.93 508.19 394.57 506.01 392.72 506.3 392.89 503.99 393.89 504.31 396.24 503.11 399.6 502.54 Z" fill-rule="evenodd" id="JP-37" data-name="Kagawa"/>
<path d="M 374.93 526.04 375.15 530.1 374.49 532.02 371.43 532.13 368.23 533.55 363.57 533.81 361.25 534.16 359.66 535.47 358.12 535.55 355.96 539.72 354.19 542 353.45 544.23 353.12 546.45 351.39 548.56 350.15 549.04 345.61 549.02 345.04 549.64 345.46 551.58 347.63 554.2 347.58 555.19 343.98 557.85 343.46 559.96 342.26 560.82 341.27 562.36 340.48 562.69 339.06 561.47 338.54 562.59 339.61 564.93 340.43 567.76 340.35 570.2 339.32 571.59 335.28 570.71 335.16 572.41 334.1 571.92 333.47 570.56 334.49 568.09 333.44 566.11 332.75 565.6 334 562.58 332.18 561.31 333.08 559.83 334.61 560.26 335.72 557.7 333.9 556.28 333.97 554.63 331.65 555.12 330.2 554.49 331.49 553.57 330.62 552.17 331.23 550.43 330.29 548.36 327.73 548.43 323.26 550.83 321.55 552.64 320.53 552.37 318.02 552.57 320.28 550.77 321.72 550.28 323.96 548.82 326.22 548.44 327.24 547.55 331.38 545.47 332.4 543.88 334.46 541.7 337.99 540.22 340.6 537.9 341.31 536.18 341.07 533.78 341.85 529.97 343.33 529.72 343.94 527.81 343.85 526.11 346.55 524.27 347.08 523.6 349.06 523.07 349.87 520 352.99 523.73 354.9 528.08 356.31 528.76 360.39 527.79 360.57 527.04 363.14 526.35 366.36 526.55 369.71 527.41 371.03 526.75 372.54 524.95 374.45 525.44 374.93 526.04 Z M 351.86 517.17 350.59 516.74 350.83 515.3 352.23 513.67 352.93 513.49 353.83 515.73 353.1 517.21 351.86 517.17 Z M 339.37 525.36 339.13 527.43 337.47 527.23 339.37 525.36 Z M 355.15 518.6 355.18 519.19 353.46 520.96 352.48 520.94 352.8 518.52 353.82 517.79 355.15 518.6 Z" fill-rule="evenodd" id="JP-38" data-name="Ehime"/>
<path d="M 374.49 532.02 377.82 533.24 380.26 533.38 382.76 534.78 384.06 534.93 385.2 533.84 387.39 533.91 388.6 536.52 388.88 539.42 391.39 539.72 392.32 540.39 392.18 542.36 393.41 544.78 397.09 545.67 395.31 548.58 394.26 552.1 393.42 557.46 390.55 554.68 388.18 551.79 387.67 550.48 385.69 549.63 384.17 547.2 381.71 546.93 378.51 546.11 377.68 545.37 373.09 546.28 372.45 546.86 368.14 548.85 367.76 550.51 366.36 551.41 362.78 552.14 361.28 553.34 360.68 555.52 361.33 556.99 360.72 558.68 358.52 561 355.27 565.8 352.52 566.81 351.69 569.93 352.21 571.82 351.97 573.24 350.52 573.46 350.33 575.51 352.49 577.87 352.86 579.41 351.07 579.25 350.38 577.84 348.92 577.03 346.94 577.38 345.33 578.6 343.42 578.1 341.81 576.55 340.18 577 338.89 578.11 338.74 576.14 340.12 573.76 341.73 571.57 339.32 571.59 340.35 570.2 340.43 567.76 339.61 564.93 338.54 562.59 339.06 561.47 340.48 562.69 341.27 562.36 342.26 560.82 343.46 559.96 343.98 557.85 347.58 555.19 347.63 554.2 345.46 551.58 345.04 549.64 345.61 549.02 350.15 549.04 351.39 548.56 353.12 546.45 353.45 544.23 354.19 542 355.96 539.72 358.12 535.55 359.66 535.47 361.25 534.16 363.57 533.81 368.23 533.55 371.43 532.13 374.49 532.02 Z" id="JP-39" data-name="Kōchi"/>
<path d="M 356.12 435.99 356.18 438.01 354.64 439.82 354.72 437.27 356.12 435.99 Z M 354.47 435.2 353.92 436.27 353.83 438.06 351.24 439 350.12 438.05 353.23 435.08 354.47 435.2 Z M 305.67 497.54 308.13 497.4 312.05 495.74 312.58 493.84 313.54 493.36 316.89 490.53 319.2 487.54 324.54 483.02 325.24 482.11 328.04 480.94 328.38 479.67 330.25 478.27 331.23 476.13 335.55 472.6 339.27 471.02 340.42 468.43 340.4 466.53 339.01 465.66 339.16 464.76 342.62 464.43 342.3 463.48 344.05 463.04 347.17 461.76 350.83 461.5 350.95 460.43 353.05 460.26 353.69 459.07 355.56 458.04 357.34 459.54 359.11 459.1 360.23 459.5 362.66 458.92 362.8 459.57 360.87 460.68 359.2 461.19 360.6 464.11 362.94 465.5 362.49 466.97 362.34 471.54 361.36 472.68 358.43 474.11 357.62 474.81 357.9 476.87 357.03 478.4 356.35 480.73 353.78 480.9 351.67 480.16 349.75 480.66 347.55 480.28 346.27 480.76 343.06 485.21 341.2 486.25 339.41 488.08 340.71 489.72 340.29 490.48 337.47 491.36 334.75 492.55 331.79 492.12 330.61 493 329.28 492.67 326.64 493.45 325.64 492.83 324.23 494.3 322.34 495.65 322.13 498.09 321.29 499.55 320.82 501.55 318.43 505.04 318.75 506.62 316.7 508.5 317.06 510.59 315.81 511.46 315.13 513.04 313.37 512.55 311.59 513.17 309.84 513.22 309.01 512.69 308.31 510.19 308.91 508.39 306.4 507.84 305.79 507.08 305.37 505 306.64 501.83 306.02 499.93 305.67 497.54 Z M 364.69 428.87 365.21 429.59 365.12 431.73 363.26 433.9 360.6 433.46 358.43 431.39 358.73 428.71 359.19 427.88 362.07 425.92 364.69 428.87 Z" fill-rule="evenodd" id="JP-32" data-name="Shimane"/>
<path d="M 305.67 497.54 306.02 499.93 306.64 501.83 305.37 505 305.79 507.08 306.4 507.84 308.91 508.39 308.31 510.19 309.01 512.69 309.84 513.22 311.59 513.17 313.37 512.55 315.13 513.04 315.81 511.46 317.06 510.59 316.7 508.5 318.75 506.62 319.12 507.59 319.46 510.78 321.4 515.46 322.01 516.32 325.38 517.95 325.33 519.94 324.03 521.37 323.93 523.22 324.43 526.38 323.32 527.72 321.96 528.2 321.66 529.59 322.57 531.95 322.22 533.09 319.64 534.9 319.27 534.07 320.94 532.47 320.46 531.32 319 530.36 316.02 529.45 314.96 528.02 311.83 526.02 309.71 527.46 309.22 526.55 310.84 525.1 309.99 524.36 307.97 523.58 306.13 523.96 304.6 524.73 302.51 524.83 302.94 525.84 301.9 526.53 298.94 524.6 297.78 526.7 294.51 526.39 293.33 527.92 291.59 529.03 289.79 528.04 288.31 528.87 287.89 526.91 286.42 525.95 285.69 524.68 283.33 523.93 282.58 525.33 279.72 528.25 278.58 528.06 279.2 525.49 279.04 523.7 277.85 523.09 277.26 521.2 278.99 519.44 279.42 518.2 278.31 514.99 277.61 514.17 278.6 510.97 279.56 511.23 283.27 509.84 280.53 508.92 281.27 507.42 282.43 508.63 284.7 508.02 286.77 508.58 287.01 509.98 288.12 510.43 288.78 509.34 290.33 509.82 293.37 509.36 293.77 508.39 296.55 508.05 296.52 506.79 298.01 505.24 297.96 504.03 300.26 502.64 301.32 501.38 301.54 499.97 302.89 499.88 302.92 498.07 305 498.33 305.67 497.54 Z M 325.23 531.46 324.54 532.03 323.49 529.26 324.03 528.27 325.84 528.05 327.39 528.87 328.37 530.31 330.78 529.51 330.04 532.61 328.87 532.47 328.46 531.2 326.92 531.77 325.23 531.46 Z" fill-rule="evenodd" id="JP-35" data-name="Yamaguchi"/>
<path d="M 356.35 480.73 357.03 478.4 357.9 476.87 357.62 474.81 358.43 474.11 361.36 472.68 362.34 471.54 362.49 466.97 362.94 465.5 360.6 464.11 359.2 461.19 360.87 460.68 361.12 462.39 363.39 463.71 366.45 464.09 367.28 462.61 370.22 461.27 372.13 460.79 377.4 462.1 383.69 461.6 387.07 460.64 387.99 461.4 395.07 460.23 396.6 459.44 397.03 458.54 399.53 457.94 400.68 458.86 401.32 460.33 402.29 464.85 403.48 468.14 404.3 469.41 404.39 472.58 402.01 474.32 400.58 473.82 398.13 475.39 395.41 475.67 392.87 476.7 391.37 473.24 389.61 471.68 387.01 471.31 386.32 469.72 384.3 469.96 383.31 471.12 380.19 473.26 379.25 472.07 377.54 470.99 373.1 469.84 372.12 470.14 371.08 472.91 369.58 474.58 369.48 475.87 367.48 476.83 365.74 476.92 365.25 478.69 364.45 479.54 361.98 480.51 361.11 481.44 359.89 481.04 356.35 480.73 Z" id="JP-31" data-name="Tottori"/>
<path d="M 400.58 473.82 402.01 474.32 404.39 472.58 404.3 469.41 403.48 468.14 402.29 464.85 401.32 460.33 400.68 458.86 399.53 457.94 399.92 457.46 403.05 456.33 405.52 454.84 407.37 455.39 409.37 455.18 414.63 455.12 416.9 455.44 417.06 459.2 418.56 461.68 420.05 462.36 422.5 461.42 423.2 462.11 423.43 465.81 423.01 467.14 421.79 467.98 419.91 467.09 419.24 467.39 418.91 470.01 420.11 471.4 421.33 471.75 422.63 472.84 424.39 473.63 425.74 473.1 427.23 473.38 428.7 476.34 431.25 477.11 432.3 478.11 433.67 478.09 435.25 479.33 435.66 480.32 434.88 481.52 433.49 482.31 434.35 483.71 434.47 485.58 437.02 487.7 436.79 492.37 437.32 495.12 436.08 496.69 434.98 497.15 433.58 496 431.68 496.13 430.13 498.45 429.03 498.26 425.56 498.89 423.27 499.54 422.26 498.81 420.29 498.75 415.86 495.45 414.71 495.04 412.75 493.53 411.08 493.12 404.89 493.82 403.29 493.09 401.83 495.06 400.09 494.67 399.13 496.14 397.41 495.97 397.73 493.76 395.84 491.2 395.8 486.3 395.98 483.56 397.71 481.85 399.43 478.86 400.53 477.6 400.32 475.6 400.58 473.82 Z M 421.77 500.24 422.72 501.5 421.79 502.65 421.12 504.59 420.15 505.48 418.29 508.27 418.04 510.22 419.1 512.94 420.22 514.55 415.88 516.4 414.7 517.49 412.2 517.9 410.04 514.75 409.71 513.8 410.62 512.1 411.93 512.04 414.66 507.09 416.66 505.54 417.62 503.59 419.51 502.68 421.02 500.5 421.77 500.24 Z" fill-rule="evenodd" id="JP-28" data-name="Hyōgo"/>
<path d="M 434.35 483.71 433.49 482.31 434.88 481.52 435.66 480.32 435.25 479.33 433.67 478.09 432.3 478.11 431.25 477.11 428.7 476.34 427.23 473.38 425.74 473.1 424.39 473.63 422.63 472.84 421.33 471.75 420.11 471.4 418.91 470.01 419.24 467.39 419.91 467.09 421.79 467.98 423.01 467.14 423.43 465.81 423.2 462.11 422.5 461.42 420.05 462.36 418.56 461.68 417.06 459.2 416.9 455.44 419.13 456.17 420.41 455.32 421.25 454.08 422.69 453.95 424.67 452.53 424.61 451.97 429.01 450.92 429.59 450.53 431.33 452.29 432.28 454.12 430.7 455.5 430.13 456.97 430.82 459.76 430 460.43 433.97 462.79 435.45 463.24 435.71 461.93 433.89 461.79 433.46 460.62 434.28 459.9 437.46 459.15 438.38 460.35 437.09 461.47 437.48 464.84 439.78 467.65 440.49 468.04 445.69 469.49 447.59 469.18 450.53 472.36 450.24 474.54 450.87 478.45 450.1 483.36 451.46 486.41 451.52 488.29 452.16 489.21 453.63 489.26 456.48 491.99 456.68 493.23 457.84 495.7 456.88 496.53 454.2 495.34 453.42 495.33 450.71 496.39 447.47 494.92 446.32 493.83 446.39 491.63 444.23 487.89 442.54 487.02 442.01 485.87 440.45 487.44 438.63 486.23 437.67 484.67 436.69 484.13 434.35 483.71 Z" id="JP-26" data-name="Kyōto"/>
<path d="M 447.59 469.18 445.69 469.49 440.49 468.04 439.78 467.65 437.48 464.84 437.09 461.47 438.38 460.35 439.56 460.95 439.5 462.31 441.15 462.58 442.49 462.01 443.47 460.84 444.18 463.08 446.95 462.63 446.31 459.56 447.44 459.2 449.38 460.88 449.64 459.31 451.5 458.84 450.15 456.61 453.76 457.59 455.93 456.06 455.03 452.43 457.26 450.83 458.2 453.48 457.51 454.46 458.98 455.28 459.79 452.99 460.04 450.39 459.03 448.28 456.34 445.68 456.37 443.49 455.08 441.88 455.28 440.73 456.57 439.68 458.09 435.94 459.81 433.76 461.27 431.02 462.24 429.83 464.48 428.38 466.57 430.25 467.22 432.77 468.28 433.73 471.12 434.66 472.71 434.39 475.17 434.68 476.33 435.39 478.31 437.51 479.47 437.99 481.72 437.5 480.94 443.16 481.57 444.38 483.75 445.6 484.59 447.79 483.39 449.73 480.54 450.44 477.92 450.23 474.3 450.99 473.46 451.96 472.46 451.41 468.33 450.79 467.19 451.74 466.68 453.85 465.55 455.98 462.4 454.72 460.91 455.82 461.67 458.7 461.3 459.74 459.91 459.72 459.66 461.26 457.12 462.09 455.85 463.07 454.16 462.11 453.11 465.92 451.92 467.38 449.56 467.5 447.59 469.18 Z" id="JP-18" data-name="Fukui"/>
<path d="M 481.72 437.5 479.47 437.99 478.31 437.51 476.33 435.39 475.17 434.68 472.71 434.39 471.12 434.66 468.28 433.73 467.22 432.77 466.57 430.25 464.48 428.38 466.98 425.71 468.67 424.91 471.58 422.01 478.9 412.02 480.63 409.05 483.11 402.96 483.28 401.09 482.75 400.55 483.35 398.14 482.47 396.72 481.64 393.97 481.93 391.77 479.96 390.74 480.66 387.9 482.15 384.83 481.75 383.06 482.71 381.63 485.96 379.8 487.3 379.43 489.19 379.8 493.03 377.67 493.96 377.45 495.44 375.92 501.78 374 503.36 374.63 503.72 377.77 501.49 377.89 500.31 378.5 499.75 380.66 500.8 381.75 500.62 383.02 499.5 384.51 497.24 384.13 495.26 384.89 493.95 386.88 493.93 387.74 491.96 389.22 489.03 387.61 487.71 389.72 487.55 392.48 487.09 394.26 489.15 393.81 490.18 395.04 491.6 394.88 492.31 393.13 493.35 393.81 493.01 399.21 490.74 399.42 488.49 400.04 486.57 402.24 485.63 404.75 484.89 408.1 483.68 409.56 484.03 411.93 483.41 413.8 483.91 417.2 483.38 419.23 483 422.6 483.55 424.44 483.24 426.82 483.55 428.1 484.94 430.05 484.9 431.22 482.89 434.35 482.57 436.14 481.72 437.5 Z M 493.14 390.64 492.81 392.05 489.5 393.05 488.52 391.72 490.54 390.6 491.43 391.2 493.14 390.64 Z" fill-rule="evenodd" id="JP-17" data-name="Ishikawa"/>
<path d="M 483.55 428.1 483.24 426.82 483.55 424.44 483 422.6 483.38 419.23 483.91 417.2 483.41 413.8 484.03 411.93 483.68 409.56 484.89 408.1 485.63 404.75 486.57 402.24 488.49 400.04 490.74 399.42 493.01 399.21 492.34 401.06 491.03 402.94 491.66 404.47 494.28 406.47 496.94 407.74 499.89 407.56 501.88 407.91 503.09 407.66 504.85 406.03 506.1 402.66 506.37 400.71 508.89 399.24 512.91 398.39 515.71 401.15 517.03 407.13 517.08 411.78 516.57 415.18 515.04 416.97 515.07 418.27 513.38 421.93 511.19 424.42 508.13 423.16 505.92 422.79 503.94 421.83 501.75 422.51 501.4 421.22 498.45 422.17 497.09 421.83 496.09 422.33 492.91 425.56 492.4 426.91 490 428.91 489.54 426.94 488.74 426.34 486.25 425.9 484.99 428 483.55 428.1 Z" id="JP-16" data-name="Toyama"/>
<path d="M 517.03 407.13 515.71 401.15 512.91 398.39 515.31 397.83 522.75 394.79 526.34 392.45 528.22 391.61 529.76 389.82 532.1 390.23 534.9 389.26 537.7 387.19 541.62 383.2 545.57 380.75 546.53 379.65 548.08 376.37 549.38 374.31 551.42 372.53 553.07 369.45 554.6 363.89 556.29 360.93 558.82 358.85 563.34 355.7 565.87 355.13 568.79 353.76 571.88 351.45 575.49 347.46 576.34 345.81 577.38 336.66 578.44 333.13 580.4 329.08 585.74 331.34 585.55 334.85 586.43 336.57 587.87 337.57 589.36 337.58 591.34 339.36 591.65 340.62 590.72 342.62 588.41 344.06 585.73 344.04 584.95 344.99 584.44 350.12 583.74 351.48 583.72 353.26 582.8 357.31 584.07 359.55 586.54 361.26 584.48 363.75 579.86 370.38 580.43 371.98 580.66 374.58 577.55 375.33 575.89 375.23 574.56 377.1 572.63 377.08 568.54 377.97 567.83 378.98 568.52 381.77 568.02 384.32 566.84 386.77 567.48 389.01 568.38 388.9 569.46 391.19 569.65 395.58 569.17 398.97 568.74 399.68 567.1 399.04 566.53 397.53 564.9 395.75 564.04 395.71 563.14 397.36 560.34 398.53 559.88 399.17 559.81 401.91 558.36 402.61 557.42 404.87 555.06 405.88 554.56 407.44 553.19 408.21 551.58 408.25 550.07 409.06 549.63 407.64 549.72 405.05 548.97 403.5 547.45 402.26 546.4 400.67 545.73 397.28 543.16 396.69 539.69 397.91 537.65 400.55 536.35 401.34 535.8 403.49 533.87 403.43 531.45 404.42 529.86 404.49 527.9 405.72 526.78 404.91 526.55 402.42 525.43 401.51 522.34 400.71 521.24 401.27 521.12 402.82 519.42 405.89 517.03 407.13 Z M 542.38 350.21 546.43 350.02 546.43 351.76 544.27 355.75 543.33 358.1 539.28 360.89 535.61 362.23 534.13 362.06 534.17 360.65 535.85 360.29 536.4 359.46 536.4 357.47 538.31 354.78 537.34 353.42 535.01 354.26 534.48 352.97 534.58 351 535.19 349.31 536.64 347.27 537.18 345.86 541.31 341.94 542.74 339.41 544.48 339.66 544.05 342.6 543.34 345.27 541.85 348.78 542.38 350.21 Z" fill-rule="evenodd" id="JP-15" data-name="Niigata"/>
<path d="M 586.54 361.26 584.07 359.55 582.8 357.31 583.72 353.26 583.74 351.48 584.44 350.12 584.95 344.99 585.73 344.04 588.41 344.06 590.72 342.62 591.65 340.62 591.34 339.36 589.36 337.58 587.87 337.57 586.43 336.57 585.55 334.85 585.74 331.34 580.4 329.08 582.16 324.47 583.13 323 586.24 320.11 588.26 316.91 589.7 311.36 591.18 307.26 591.99 303.54 594.85 304.3 596.57 303.78 600.55 306.53 602.36 306.86 603.5 307.81 608.11 308.54 610.84 310.33 611.81 312.51 612.87 313.55 614.74 314.02 617.64 319.23 617.05 323.95 615.03 324.74 614.92 326.3 615.49 328.06 615.51 330 616.66 332.62 615.68 335.78 614.38 337.43 612.99 340.21 612.25 342.45 611.88 346.56 609.98 349.27 608.73 350.27 606.91 350.58 606 351.31 605.55 354.89 605.4 358.96 605.7 362.18 605.26 363.53 603.24 364.87 602.17 364.67 599.79 365.57 598.28 364.27 595.82 364.08 593.79 361.64 592.31 361.95 589.39 361.89 586.54 361.26 Z" id="JP-06" data-name="Yamagata"/>
<path d="M 614.74 314.02 612.87 313.55 611.81 312.51 610.84 310.33 608.11 308.54 603.5 307.81 602.36 306.86 600.55 306.53 596.57 303.78 594.85 304.3 591.99 303.54 592.38 302.72 592.78 298.59 593.77 295.79 595.98 293.98 597.84 285.96 598.22 275.87 597.51 273.97 597.11 271.46 594.98 268.94 593.4 268.1 591.87 268.36 590.7 269.77 587.78 269.94 585.98 266.93 585.6 264 589.94 265.25 591.5 264.19 592.8 262.67 595.38 257.76 595.75 254.76 596.54 252.73 596.99 247.26 594.26 244.34 594.18 243.86 596.01 243.74 598.29 242.26 600.4 242.97 606.64 243.04 609.57 241.53 615.14 244.83 616.19 244.11 618.25 244.63 621.16 244.03 623.65 242.34 624.73 240.97 625.81 240.63 628.96 242.07 628.83 243.69 629.64 244.7 629.74 246.64 628.8 249.89 628.47 252.34 627.02 253.59 626 255.24 626.02 258.73 625.51 259.96 625.55 264.5 626.53 269.02 623.87 269.83 623.46 271.25 624.99 273.29 623.72 276.22 624.54 279.66 623.75 281.69 622.25 283.45 621.07 286.5 619.74 289.09 619.11 291.04 620.34 295.09 621.37 296.73 622.69 297.88 623.16 299.91 623.93 300.86 622.81 302.05 622.3 303.62 622.62 304.83 623.88 306.01 622.65 310.88 618.55 313.68 616.3 314.45 614.74 314.02 Z" id="JP-05" data-name="Akita"/>
<path d="M 628.47 252.34 628.8 249.89 629.74 246.64 629.64 244.7 628.83 243.69 628.96 242.07 625.81 240.63 624.73 240.97 623.65 242.34 621.16 244.03 618.25 244.63 616.19 244.11 615.14 244.83 609.57 241.53 606.64 243.04 600.4 242.97 598.29 242.26 596.01 243.74 594.18 243.86 594.15 238.57 593.19 236.65 591.83 236.78 591.27 235.62 594.74 232.45 596.08 229.48 597.75 228.3 599.9 229.39 601.04 229.14 603.06 227.44 604.54 227.57 605.6 226.24 606.5 223.41 607.48 216.31 607.38 213.74 606.62 212.43 607.76 208.72 607.76 206.59 608.68 205.81 609.81 206.44 611.35 208.4 613.03 209.08 615.29 207.1 616.87 207.38 618.57 209.64 618.18 213.27 618.99 217.18 619.63 222.4 620.68 224.35 622.4 225.19 624.04 225.01 625.88 222.94 626.53 221.5 625.93 220.12 626.94 217.21 629.25 218 630.39 219.44 630.17 220.45 633.42 221.7 634.93 223.46 636.18 223.17 637.51 221.68 639.29 216.85 639.85 212.08 640.74 210.38 640.48 209 639.26 206.55 638.23 205.31 636.67 204.67 636.17 206.63 633.07 209.1 630.26 208.48 629.17 209.55 626.25 209.98 624 211.62 622.87 210.86 622.86 208.5 623.38 205.9 624.59 201.93 625.35 198.17 627.8 194.33 628.03 192.18 630.28 194.47 633.32 195.24 634.8 196.05 637.85 199.62 640.68 201.2 642.14 201.21 644.38 200.3 646.68 198.17 647.01 200.07 645.83 203.08 644.68 210.12 644.94 211.65 644.52 216.17 644.66 220.63 645.19 226.04 646.3 232.79 647.46 236.32 649.18 238.87 651.13 238.67 654.81 242.86 651.55 244.87 650.77 246.69 649.78 247.2 647.57 246.64 643.5 247.94 641.6 247.24 639.47 248.21 634.1 251.49 631.09 253.83 628.47 252.34 Z" id="JP-02" data-name="Aomori"/>
<path d="M 622.65 310.88 623.88 306.01 622.62 304.83 622.3 303.62 622.81 302.05 623.93 300.86 623.16 299.91 622.69 297.88 621.37 296.73 620.34 295.09 619.11 291.04 619.74 289.09 621.07 286.5 622.25 283.45 623.75 281.69 624.54 279.66 623.72 276.22 624.99 273.29 623.46 271.25 623.87 269.83 626.53 269.02 625.55 264.5 625.51 259.96 626.02 258.73 626 255.24 627.02 253.59 628.47 252.34 631.09 253.83 634.1 251.49 639.47 248.21 641.6 247.24 643.5 247.94 647.57 246.64 649.78 247.2 650.77 246.69 651.55 244.87 654.81 242.86 657 245.94 658.21 249.07 659.08 250.24 660.42 253.17 659.42 255.1 661.23 256.19 661.65 257.12 660.27 259.17 660.88 260.97 664.18 263.63 664.59 265.59 663.92 266.92 664.96 268.8 665.19 270.79 666.24 274.72 665.38 276.8 665.18 279.48 667.2 281.12 667.01 282.37 668.36 284.34 666.47 286.69 664.76 287.47 664.92 288.74 667.33 288.23 667.04 289.91 665.27 290.13 663.8 291.37 664.31 292.41 662.63 293.83 665.37 293.99 662.97 295.44 662.42 297.53 664.09 297.48 664.17 298.45 662.52 299.52 662.28 301.55 660.49 301.86 662.76 303.78 662.12 304.69 660.2 304.02 659.56 304.63 661.46 305.88 659.77 306.5 659.18 307.39 656.45 307.74 656.52 310.9 653.39 310.17 649.88 309.15 648.47 309.31 647.87 310.34 647.84 312.69 646.77 314.42 646.71 316.95 645.23 318.33 642.23 317.1 638.64 319.75 636.14 318.3 635 316.68 635.82 315.12 634.97 314.57 631.23 314.41 624.62 311.11 622.65 310.88 Z" id="JP-03" data-name="Iwate"/>
<path d="M 605.55 354.89 606 351.31 606.91 350.58 608.73 350.27 609.98 349.27 611.88 346.56 612.25 342.45 612.99 340.21 614.38 337.43 615.68 335.78 616.66 332.62 615.51 330 615.49 328.06 614.92 326.3 615.03 324.74 617.05 323.95 617.64 319.23 614.74 314.02 616.3 314.45 618.55 313.68 622.65 310.88 624.62 311.11 631.23 314.41 634.97 314.57 635.82 315.12 635 316.68 636.14 318.3 638.64 319.75 642.23 317.1 645.23 318.33 646.71 316.95 646.77 314.42 647.84 312.69 647.87 310.34 648.47 309.31 649.88 309.15 653.39 310.17 653.26 313.6 651.58 314 651.61 316.51 649.55 318.54 649.61 319.32 651.02 321.32 647.2 323.88 647.97 324.8 649.61 324.91 648.89 326.74 647.34 327.99 648.46 329.23 649.51 328.9 650.15 330.26 647.49 333.95 647.71 335.48 649.37 337.33 649.98 339.88 649.38 341.43 647.44 340.17 647.02 338.62 645.89 338.06 646.39 336.81 644.93 336.54 642.67 335.14 639.05 335.81 637.36 336.83 637.15 338.91 636.35 338.97 635.64 336.81 634.46 336.81 633.3 337.92 632.74 339.57 633.85 340.22 631.65 342.45 629.88 345.75 628.45 351.12 628.24 354.85 628.71 358.19 625.98 358.8 625.79 362.21 623.3 362.78 622.81 363.47 620.39 362.22 619.98 360.08 618.88 358.49 616.21 357.59 614.2 358.04 613.07 357.58 611.61 355.83 610.27 355.32 607.34 355.71 605.55 354.89 Z" id="JP-04" data-name="Miyagi"/>
<path d="M 568.74 399.68 569.17 398.97 569.65 395.58 569.46 391.19 568.38 388.9 567.48 389.01 566.84 386.77 568.02 384.32 568.52 381.77 567.83 378.98 568.54 377.97 572.63 377.08 574.56 377.1 575.89 375.23 577.55 375.33 580.66 374.58 580.43 371.98 579.86 370.38 584.48 363.75 586.54 361.26 589.39 361.89 592.31 361.95 593.79 361.64 595.82 364.08 598.28 364.27 599.79 365.57 602.17 364.67 603.24 364.87 605.26 363.53 605.7 362.18 605.4 358.96 605.55 354.89 607.34 355.71 610.27 355.32 611.61 355.83 613.07 357.58 614.2 358.04 616.21 357.59 618.88 358.49 619.98 360.08 620.39 362.22 622.81 363.47 623.3 362.78 625.79 362.21 625.98 358.8 628.71 358.19 630.81 362.16 631.82 365.38 631.37 367.22 632.03 368.86 632.5 380.78 631.32 387.38 631.32 391.45 630.62 393.38 630.15 397.23 629.66 398.78 628.45 399.97 625.29 401.3 624.22 402.28 623.97 404.01 620.51 403.04 615.74 400.89 616.03 402.92 612.94 406.16 611.85 406.27 610.35 405.35 606.13 401.42 604.43 400.59 604.22 397.31 603.08 396.42 602.6 394.99 599.57 392.68 594.69 391.21 593.25 391.02 591.31 391.6 588.86 393.75 587.33 393.94 584.93 394.98 579.03 398.4 576.81 399.22 575.49 400.57 573.8 401.58 568.84 400.38 568.74 399.68 Z" id="JP-07" data-name="Fukushima"/>
<path d="M 604.43 400.59 606.13 401.42 610.35 405.35 611.85 406.27 612.94 406.16 616.03 402.92 615.74 400.89 620.51 403.04 623.97 404.01 622.03 407.41 620.36 413.96 618.44 417.36 617.91 418.82 617.44 421.95 617.91 424.31 617.67 426.12 615.83 428.49 616.33 433.77 618.69 440.15 623.69 448.97 626.14 452.12 624.03 451.76 622.51 450.46 620.95 448.49 615.39 445.53 612.25 445.36 608.98 445.97 608.21 446.96 602.77 447.5 600.59 447 595.09 444.44 593.79 443.38 591.47 440.51 589.36 437.37 587.52 437.29 586.06 436.48 584.77 434.15 584.06 431.95 585.81 431.88 588.88 430.29 590.58 427.76 592.48 427.35 594.52 425.07 596.64 424.95 598.06 424.15 600.13 423.6 601.63 423.75 602.47 422.78 604.17 419.1 604.44 417.29 603.86 411.38 605.46 409.58 604.89 407.72 604.92 405.62 604.43 400.59 Z" id="JP-08" data-name="Ibaraki"/>
<path d="M 587.52 437.29 589.36 437.37 591.47 440.51 593.79 443.38 595.09 444.44 600.59 447 602.77 447.5 608.21 446.96 608.98 445.97 612.25 445.36 615.39 445.53 620.95 448.49 622.51 450.46 624.03 451.76 626.14 452.12 626.83 452.76 626.18 454.17 625.05 453.04 621.3 454.39 619.21 454.13 616.95 455.7 613.02 459.4 610.92 462.63 609.61 467.33 610.56 470.74 609.9 475.21 608.32 475.9 607.36 478.04 604.99 477.86 604.43 478.8 600.84 478.37 599.66 480.37 598.09 481.09 595.83 482.72 594.89 484.62 594.83 486.12 593.58 487.54 590.67 487.86 589.98 486.37 588.43 485.55 590.11 484.02 591.22 484.16 591.53 483.03 590.42 482.44 590.82 480.64 590.44 477.83 589.83 476.87 590.03 475.11 591.44 474.04 590.89 471.07 590.01 469.58 590.73 467.53 592.4 468.05 592.93 467.42 592.66 465.52 596.35 463.37 598.66 460.39 598.92 457.78 596.46 455.37 594.42 454.82 594.04 456.35 592.56 457.32 591.41 456.56 592.17 453.74 591.4 450.28 591.78 447.17 591.49 445.52 590.52 444.05 589.04 439.91 587.52 437.29 Z" id="JP-12" data-name="Chiba"/>
<path d="M 591.4 450.28 592.17 453.74 591.41 456.56 590.47 457.31 589.41 456.3 588.64 458.78 589.14 460.51 588.7 461.73 585.6 460.59 584.1 459.48 580.08 457.4 578 458.34 577.82 461.88 577.24 462.53 575.18 459.81 574.42 459.36 571.64 459 569.81 458.3 568.37 456.92 565.5 455.62 562.5 453.8 560.24 450.99 559.39 448.63 558.56 447.82 559.61 446.85 561.73 446.01 563.35 447.06 570.73 448.96 574.67 451.28 576.41 451.4 578.96 450.3 579.94 451.43 582.32 451.1 583.63 450.33 585.89 450.39 587.7 449.55 591.4 450.28 Z M 643.53 895.57 641.6 897.69 641.16 896.7 641.49 895.71 643.53 895.57 Z M 672.68 823.64 671.52 824.19 670.79 823 670.54 820.95 672.68 823.64 Z M 672.68 806.21 674.35 806.5 674.12 807.84 672.87 807.8 672.68 806.21 Z M 588.86 562.17 591.34 563.35 591.87 564.16 590.75 565.86 589.9 566.13 588.74 565.37 587.19 562.87 588.04 561.56 588.86 562.17 Z M 578.25 523.39 578.5 522.04 579.52 521.22 580.67 521.17 581.32 522.16 580.84 523.5 578.91 524.44 578.25 523.39 Z M 570.69 509.24 571.81 509.08 571.14 511.74 570.1 511.55 570.69 509.24 Z M 575.85 492.92 577.19 494.78 577.09 497.25 575.97 497.32 573.79 496.26 573.51 495.51 573.69 492.23 575.85 492.92 Z" fill-rule="evenodd" id="JP-13" data-name="Tokyo"/>
<path d="M 565.5 455.62 568.37 456.92 569.81 458.3 571.64 459 574.42 459.36 575.18 459.81 577.24 462.53 577.82 461.88 578 458.34 580.08 457.4 584.1 459.48 585.6 460.59 588.7 461.73 586.17 463.74 584.52 463.6 585.22 466.48 584.19 467.5 583.88 470.88 585.48 472.13 586.87 472.28 586.66 474.76 585.29 474.68 584.3 475.99 585.16 477.61 582.59 477.54 582.25 474.99 583.03 474.57 580.39 471.31 579.63 470.7 575.73 469.99 569.4 471.42 567.66 472.36 566.35 473.56 566.22 475.75 564.55 478.59 561.68 477.34 560.33 474.85 560.23 472.94 561.26 471.2 560.78 467.32 560.02 467.01 557.77 467.33 558.92 464.92 564.06 462.02 564.96 460.54 565.5 455.62 Z" id="JP-14" data-name="Kanagawa"/>
<path d="M 557.77 467.33 560.02 467.01 560.78 467.32 561.26 471.2 560.23 472.94 560.33 474.85 561.68 477.34 564.55 478.59 563.9 481.33 564.95 481.49 564.27 483.71 565.81 485.08 566.43 487.64 566.17 489.11 564.34 490.31 562.75 493.49 561.21 494.94 560.64 498.71 559.19 498.01 555.51 500.77 553.28 498.59 552.41 496.72 552.32 495.13 553.38 494.18 552.46 491.55 552.96 490.13 552.66 488.73 553.52 486.92 552.94 484.45 553.79 482.47 557.55 482.74 558.03 482.29 554.39 478.4 550.65 477.67 548.59 478.65 546.83 478.72 545.69 479.5 544.77 481.43 543.73 482.21 543.63 483.57 544.3 484.44 539.17 487.12 537.81 489.76 538.25 490.98 536.59 493.56 533.89 495.83 533.11 498.84 532.99 500.55 528.01 498.28 525.23 497.78 522.62 497.73 519.11 498.93 515.31 497.6 510.55 497.32 507.79 497.59 507.63 495.29 508.51 491.69 509.33 490.99 511.67 490.19 513.03 488.74 513.56 487.36 514.86 485.85 515.36 483.49 518.34 480.14 519.24 477.78 519.57 475.3 520.71 474.84 524.26 471.94 526.54 470.91 527.33 469.98 529.34 469.21 530.78 467.17 530.31 465.06 531.26 463.52 531.02 462.56 531.36 459.61 532.7 458.5 533.2 456.74 533.82 457.43 534.78 461.47 534.66 466.15 534.26 467.9 534.59 470.63 535.51 471.06 537.81 470.8 538.66 471.72 539.74 475.48 541.38 476.8 542.84 476.7 544.17 474.75 544 471.04 544.99 466.1 545.78 465.76 547.06 466.85 548.5 467.32 550.69 468.62 555.31 468.02 557.77 467.33 Z" id="JP-22" data-name="Shizuoka"/>
<path d="M 519.57 475.3 519.24 477.78 518.34 480.14 515.36 483.49 514.86 485.85 513.56 487.36 513.03 488.74 511.67 490.19 509.33 490.99 508.51 491.69 507.63 495.29 507.79 497.59 503.32 498.59 496.37 501.05 494.81 500.89 492.02 501.5 493.28 498.61 494 497.86 495.69 499 500.53 496.18 501.31 495.03 502.25 495.27 502.78 493.52 501.86 492.23 499.24 491.42 497.45 492.79 496.37 492.63 492.1 492.82 489.32 489.52 488.52 493.13 490.16 494.87 489.56 496.42 486.44 494.67 485.98 493.42 486.74 491.19 486.45 489.71 485.45 489.05 485.3 485.52 487.27 481.73 483.73 482.73 482.8 482.48 480.07 477.68 480.3 473.51 483.46 468.56 484.69 468.99 486.18 468.22 489.82 467.19 492.19 468.75 493.93 471.44 495.91 472.22 497.02 473.11 498.43 473.3 500.67 472.24 501.69 472.17 506.19 474.38 510.58 472.06 510.26 473.48 511.53 475.57 515.26 474.69 517.68 475.23 519.57 475.3 Z" id="JP-23" data-name="Aichi"/>
<path d="M 457.84 495.7 456.68 493.23 459.43 492.07 460.5 490.7 460.92 489.03 462.86 489.45 464.96 489.42 467.44 488.74 469.22 487.61 470.52 485.75 471.65 480.95 472.03 477.98 470.48 474.95 474.54 473.7 476.04 475.32 478.13 476.86 480.07 477.68 482.8 482.48 481.89 482.44 479.57 484.28 478.99 485.81 479.19 487.36 478.07 489.83 475.23 493.57 474.7 497.17 475.63 498.41 475.41 499.93 476.39 500.75 478.66 500.98 480.19 502.54 482.82 504.27 486.31 505.45 487.05 507.08 488.53 507.63 488.56 510.08 487.11 510.37 487.98 514.03 487.48 514.97 486.18 514.43 486.1 512.98 483.56 512.97 482.97 513.46 481.09 513.5 481.81 511.97 480.17 512.18 479.42 513.89 477.24 514.87 474.82 514.43 474.12 516.29 473.03 515.87 471.1 517.34 469.98 517.34 468.32 518.19 467 519.45 467.51 521.95 466.46 522.53 465.16 521.59 465.08 523.25 466.33 525.22 466.1 527.15 464.51 527.56 463.51 529.28 462.32 529.48 461.54 530.42 460.22 530.52 458.99 532.38 456.35 539.13 454.85 538.39 451.79 534.9 451.25 532.76 452.22 532.22 452.78 530.88 455.09 529.4 456.7 526.24 457.8 525.5 459.61 525.55 459.56 523.85 460.39 520.63 460.31 517.97 460.71 515.78 460.33 513.27 458.98 510.04 459.9 508.22 462.06 507.75 463.64 506.58 463.63 504.77 462.55 504.44 461.93 503.4 460.55 503.3 458.4 501.68 459.09 498.21 458.63 496.25 457.84 495.7 Z" id="JP-24" data-name="Mie"/>
<path d="M 451.25 532.76 451.79 534.9 454.85 538.39 456.35 539.13 454.43 542.58 455.17 543.04 452.55 545.72 450.57 546.37 448.99 548.07 448.39 547.71 443.92 547.16 438.8 545.21 437.2 544.81 435.19 543 434.96 541.19 433.11 539.77 433.64 538.81 435.34 537.99 432.56 535.81 428.53 533.74 427 531.17 425.81 530.45 423.96 530.76 424.32 526.9 427.02 525.54 427.35 524.28 424.97 523.1 426.23 520.79 428.2 520.22 427.46 518.08 426.4 516.35 424.91 514.99 423.8 514.68 424.65 513.33 425.88 514.32 428.25 514.38 432.58 513.41 437.62 511.83 440 511.83 442.65 510.4 444.24 510.26 444.8 513.93 446.42 516.45 446.14 517.27 444.74 517.33 443.76 518.17 440.9 522.48 440.74 523.81 441.4 524.45 443.07 527.85 442.55 530.57 442.92 531.68 443.91 531.88 445.48 531 447.36 531.44 449.07 531.04 450.19 531.32 451.25 532.76 Z" id="JP-30" data-name="Wakayama"/>
<path d="M 436.08 496.69 437.32 495.12 436.79 492.37 437.02 487.7 434.47 485.58 434.35 483.71 436.69 484.13 437.67 484.67 438.63 486.23 440.45 487.44 442.01 485.87 442.54 487.02 444.23 487.89 446.39 491.63 446.32 493.83 444.97 497.42 444.23 500.55 443.38 502.57 444.88 505.13 445.29 507.04 445.08 509.55 444.24 510.26 442.65 510.4 440 511.83 437.62 511.83 432.58 513.41 428.25 514.38 425.88 514.32 424.65 513.33 425.34 512.53 428.97 511.51 432.83 507.85 434.67 505.49 436.13 502.37 436.18 500.19 435.76 498.1 436.08 496.69 Z M 428.83 507.78 430.08 506.76 430.64 507.56 429.5 508.38 428.83 507.78 Z" fill-rule="evenodd" id="JP-27" data-name="Ōsaka"/>
<path d="M 361.11 481.44 361.98 480.51 364.45 479.54 365.25 478.69 365.74 476.92 367.48 476.83 369.48 475.87 369.58 474.58 371.08 472.91 372.12 470.14 373.1 469.84 377.54 470.99 379.25 472.07 380.19 473.26 383.31 471.12 384.3 469.96 386.32 469.72 387.01 471.31 389.61 471.68 391.37 473.24 392.87 476.7 395.41 475.67 398.13 475.39 400.58 473.82 400.32 475.6 400.53 477.6 399.43 478.86 397.71 481.85 395.98 483.56 395.8 486.3 395.84 491.2 397.73 493.76 397.41 495.97 395.43 495.59 394.46 497.9 393 498.53 392.96 499.99 391.94 500.73 389.7 501.38 388.43 500.4 386.05 500.35 384.17 501.54 384.77 502.5 386.22 501.06 387.45 500.73 388.37 502.13 386.19 503.62 384.55 506.9 380.56 506.44 379.6 507.25 378.71 505.34 376.31 503.74 372.69 505.59 371.73 506.53 368.29 508.05 370.11 505.55 369.37 505.17 367.34 505.99 367.56 504.46 365.58 500.25 365.6 498.52 364.85 496.8 364.52 492.42 363.15 490.25 362.7 488.84 362.5 483.71 361.11 481.44 Z" id="JP-33" data-name="Okayama"/>
<path d="M 318.75 506.62 318.43 505.04 320.82 501.55 321.29 499.55 322.13 498.09 322.34 495.65 324.23 494.3 325.64 492.83 326.64 493.45 329.28 492.67 330.61 493 331.79 492.12 334.75 492.55 337.47 491.36 340.29 490.48 340.71 489.72 339.41 488.08 341.2 486.25 343.06 485.21 346.27 480.76 347.55 480.28 349.75 480.66 351.67 480.16 353.78 480.9 356.35 480.73 359.89 481.04 361.11 481.44 362.5 483.71 362.7 488.84 363.15 490.25 364.52 492.42 364.85 496.8 365.6 498.52 365.58 500.25 367.56 504.46 367.34 505.99 366.51 506.2 366.28 508.03 363.78 511.27 362.54 511.23 362.52 510.02 360.51 507.95 359.9 510.08 358.24 511.55 358.93 512.1 358.96 513.77 357.67 513.62 355.14 515.3 354.35 514.26 354.57 512.59 357.76 510.66 356.57 509.82 354.64 509.82 354.88 511.14 352.52 512.31 348.81 512.67 346.75 513.83 346.17 512.83 343.59 514.55 344.14 515.72 341.52 516.44 339.89 517.55 338.4 516.74 336.74 517.86 336.52 516.74 334.56 513.83 335.52 511.81 334.32 510.66 332.4 511.18 330.37 510.52 327.89 512.16 324.75 515.87 325.38 517.95 322.01 516.32 321.4 515.46 319.46 510.78 319.12 507.59 318.75 506.62 Z M 336.36 522.94 335.56 522.49 332.88 522.24 334.79 520.4 334.32 519.33 335.95 518.5 336.36 522.94 Z M 349.13 514.25 348.98 516.6 347.11 517.16 346.52 515.82 348.68 514.86 349.13 514.25 Z M 328.8 513.11 329.03 514.06 327.31 515.69 326.31 515.26 327.42 513.63 328.8 513.11 Z" fill-rule="evenodd" id="JP-34" data-name="Hiroshima"/>
<path d="M 797.4 105.09 799 105.51 797.15 107.51 794.49 108.79 792.58 108.81 790.86 110.96 789.66 113.98 788.67 115.27 786.41 114.84 784.72 115.27 781.18 115.34 778.69 116.89 776 117.31 775 117.9 774.09 121.5 772.41 122.05 770.63 124.29 768.31 124.67 766.04 124.18 765.11 123.29 765.05 121.72 763.6 121.4 762.16 122.74 761.6 125.29 763.07 126.74 761.62 127.25 756.63 126.06 753.93 126.3 753.03 126.82 749.36 125.71 748.22 123.66 747 123.51 742.12 124.76 737.19 127.13 731.76 131.06 728.41 135.19 723.12 139.76 720.9 142.5 716.47 149.53 713.01 155.95 712.17 160.16 712.62 163.91 712.38 165.95 711.42 169.76 710.1 171.6 709.66 173.7 708.72 174.15 707.2 172.78 706.53 171.43 704.85 169.66 699.43 166.02 692.38 163.53 685 159.18 681.99 158.2 675.74 153.71 671.79 149.3 668.12 148.78 665.27 146.91 663.35 144.62 659.56 142.68 656.38 141.85 653.25 141.91 650.22 142.61 645.97 144.35 640.2 148.9 636.93 150.55 634.24 152.52 631.63 156.09 629.19 154.34 627.98 153.05 627.6 151.14 621.75 144.36 620.1 143.65 616.99 144 614.49 143.58 612.11 144.35 609.44 147.16 607.5 150.58 606.22 154.48 605.97 156.62 606.33 158.76 607.37 159.97 610.95 161.93 614.65 165.72 615.3 166.01 619.67 165.24 621.05 164.7 623.14 166.17 625.36 169.86 627.85 171.96 630.15 175.02 631.45 175.96 633.95 176.48 637.42 179.49 637.67 180.78 634.67 181.74 632.55 183.91 631.26 184.46 629.65 184 626.66 182.31 624.9 181.72 623.19 181.74 621.62 182.69 620.52 182.23 621.74 180.65 620.89 179.21 618.54 179.65 617.23 183.33 614.41 185.09 611.95 185.92 611.27 187.62 611.61 191.39 611.24 192.93 610.13 193.76 605.73 195.19 604.56 196.36 603.44 198.97 600.94 198.05 599.65 198.39 597.48 197.04 595.58 191.54 595.6 189.55 596.27 188.08 596.83 185.17 598.63 182.21 599.04 180.32 600.67 179.26 600.61 177.04 601.44 175.02 601.21 171.79 600.05 170.45 598.28 167.21 597.11 166.01 593.62 164.44 592.09 161.8 590.68 161.16 588.73 159.36 588.04 156.33 588.63 154.45 590.08 152.03 590.9 148.85 590.89 146.73 590.31 143.19 590.68 141.38 591.85 139.65 593.26 139 596.64 138.79 598.03 138.19 599.48 136.31 600.89 135.68 602.07 133.36 603.14 132.48 605.25 135.02 606.73 134.6 607.03 132.4 607.92 131.54 609.31 128.7 612.24 125.59 613.71 124.58 614.54 122.9 613.15 119.68 611.47 117.23 607.94 113.57 607.64 111.64 608.71 108.07 610.44 108.1 611.95 107.42 613.15 105.81 617.82 109.22 620.2 111.76 622.72 112.95 624.41 114.43 627.99 113.87 630.63 112.78 631.81 115.27 633.48 115.56 636.94 116.9 638.98 116.25 641.65 114.2 643.98 111.64 645.82 108.42 646.4 106.32 645.94 102.82 643.98 99.81 643.69 97.59 644.7 95.87 642.82 89.41 644.48 85.62 646.68 84.11 649.47 83.21 651.45 81.55 653.4 78.52 654.04 76.3 654.43 72.28 653.91 62.05 654.27 60.3 657.12 54.86 658.67 46.4 658.82 44.21 658.38 38.14 657.34 32.23 656.23 28.79 651.51 18.45 651.1 16.35 651.41 14.15 652.6 12.46 653.7 9.7 653.35 5.71 654.9 4.97 655.19 6.65 659.77 5.64 661.59 4.37 661.7 2.58 663.13 1 664.56 1.28 665.5 3.36 666.56 3.99 667.91 6.66 669.31 8.14 673.66 11.75 684.76 25.67 687.95 32.31 689.17 33.15 690.85 36.13 697.6 43.93 698.73 44.55 700.19 46.92 702.32 48.46 704.96 51.3 707.97 53.73 709.23 54.26 711.19 56.3 713.09 56.97 713.71 58.66 714.97 60.07 720.11 63.24 727.93 66.32 724.58 66.65 726.74 69.64 728.16 70.63 733.27 70.71 735.7 69.01 739.89 69.25 741.72 70.37 740.15 71.62 739.41 73.98 741.55 74.28 742.31 73.07 743.23 70.1 744.92 70.28 744.66 71.66 745.44 73.73 746.85 75.94 748.97 77.62 750.75 78.3 755.63 79.16 761.57 79.65 763.23 79.31 764.73 78.32 768.79 73.86 772.31 69.58 774.79 68.01 777.66 65.51 779.35 62.3 782.54 58.7 783.64 61.3 783.6 63.42 782.83 65.23 780.76 68.01 779.71 72.14 776.54 76.23 774.89 79.54 774.67 82.18 773.23 87.44 774.67 90.67 777.42 93.86 778.25 95.36 778.73 97.75 779.85 100.17 780.77 104.22 781.5 106.08 780.04 107.06 779.85 108.48 781.62 109.14 781.85 110.42 784.01 111.25 786.97 111.53 791.38 107.23 792.74 106.73 794.21 105.35 797.4 105.09 Z M 580.39 159.52 580.94 160.07 579.42 162.77 579.01 166.23 577.14 168.55 576.45 168.02 575.71 162.86 576.5 161.23 580.39 159.52 Z M 642.46 18.06 642.75 18.78 641.67 20.64 639.26 21.52 636.28 19.31 635.62 18.17 635.64 16.18 636.88 14.71 638.11 14.26 640.41 15.42 642.46 18.06 Z M 632.88 4.26 633.61 5.54 633.1 10.64 632.29 12.12 630.84 8.2 631.27 4.76 632.88 4.26 Z" fill-rule="evenodd" id="JP-01" data-name="Hokkaidō"/>
<path d="M 31.36 910.84 32.06 910.69 34.71 911.31 35.6 912.76 33.4 915.95 32.64 916 28.96 915.07 26.78 914.92 26.79 913.45 28.38 913.75 29.04 913.22 29.8 909.82 31.36 910.84 Z M 3.02 907.67 2.88 909.01 1.1 909.01 1 907.98 3.02 907.67 Z M 49.31 903.48 49.42 903.96 47.39 907.15 46.27 911.91 45.22 912.93 42.72 912.74 42.09 912.03 42.82 911.1 42.11 909.97 40.92 909.68 41.88 907.94 43.29 908.93 45.22 908.72 46.21 906.88 47.19 906.29 48.32 904.01 49.31 903.48 Z M 86.24 895.85 88.25 896.83 88.22 897.58 86.12 897.97 83.18 898.02 81.75 897.73 82.31 893 83.27 892.95 84.12 894.75 85.22 895.84 86.24 895.85 Z M 291 853.65 291.76 854.3 290.9 855.82 289.49 855.43 290.33 853.77 291 853.65 Z M 135.89 835.12 134.92 836.96 134.14 835.8 132.17 834.98 132.87 833.79 135.08 834.02 135.89 835.12 Z M 189.19 817.75 189.19 819.02 186.63 823.4 185.9 824.14 183.42 824.52 182.02 826.17 182.36 827.14 181.2 827.58 179.36 827.37 176.85 830.18 175.32 831.38 172.89 831.39 171.79 832.26 172.69 832.99 172.99 834.61 173.98 836.94 171.85 836.21 171.42 836.5 169.64 839.73 169.57 841.61 171.25 841.54 170.32 843.37 168.86 843.93 167.82 845.32 165.25 845.52 165.44 844.07 164.7 841.36 166.16 839.84 166.95 838.07 167.58 838.15 168.4 836.34 167.79 833.81 168.03 831.69 170.61 831.39 171.5 829.79 175.23 828.09 176.1 826.15 175.34 825.34 173.42 824.65 173.15 822.06 173.41 821.69 176.17 821.65 177.45 822.31 177.01 823.37 177.93 824.08 179.41 823.69 181.28 822.55 181.29 821.4 182.72 820.31 183.06 819.3 185.29 817.59 186.29 815.11 188.97 817.1 189.19 817.75 Z M 201.86 791.95 201.75 792.7 200.29 793.7 199.42 795.06 197.45 795.94 195.79 795.21 196.04 793.5 199 793.49 201.86 791.95 Z M 211.91 777.91 213.16 778.9 213.15 780.06 211.94 782 210.93 782.85 209.84 782.82 209.38 781.41 208.62 781.18 208.79 779.55 208.08 777.37 208.62 774.75 210.45 773.84 211.1 774.63 211.91 777.91 Z M 222.65 765.72 223.66 765.57 224.53 767.03 223.61 767.34 222.8 766.48 221.51 766.64 219.91 766.26 219.77 764.91 220.42 763.7 221.52 765.12 222.65 765.72 Z M 248.25 755.66 247.95 757.34 247.04 758.94 245.68 759.18 244.18 758.69 246.35 756.86 248.25 755.66 Z M 236.99 752.14 237.29 753.45 233.91 754.58 232.6 755.77 231.63 757.45 229.31 759.27 228.4 758.91 226.97 760.56 228.63 761.91 226.79 763.1 226.31 763.99 225.25 763.84 225.07 765.58 222.31 763.41 222.1 761.8 220.76 761.97 217.85 760.93 219.59 759.99 221.75 760.35 220.25 758.39 222.36 757.26 223.86 755.96 226.25 755.73 229.14 754.17 230.32 754.88 230.92 753.4 234.16 751.33 233.73 752.71 234.78 753.03 236.3 750.28 236.99 752.14 Z M 170.77 820.15 170.82 821.26 168.98 821.03 169.34 820.21 170.77 820.15 Z M 177.25 806.21 177.17 807.19 175.74 809.08 175.17 808.82 177.25 806.21 Z M 193.26 807.94 193.06 808.99 191.24 808.2 192.38 807.2 193.26 807.94 Z M 79.8 893.39 79.89 894.97 77.98 895 77.65 894.07 78.43 893.07 79.8 893.39 Z" fill-rule="evenodd" id="JP-47" data-name="Okinawa"/>
<path d="M 550.07 409.06 551.58 408.25 553.19 408.21 554.56 407.44 555.06 405.88 557.42 404.87 558.36 402.61 559.81 401.91 559.88 399.17 560.34 398.53 563.14 397.36 564.04 395.71 564.9 395.75 566.53 397.53 567.1 399.04 568.74 399.68 568.84 400.38 573.8 401.58 573.09 403.91 574.05 405.67 572.86 407.38 572.78 409.55 572.17 411.42 572.14 413.34 573.94 414.45 576.03 414.72 576.81 415.35 576.56 416.85 575.11 419.15 574.46 421.52 573.04 423.91 573.06 424.79 575.24 427.74 576.62 429.12 578.8 428.87 581.79 429.48 583.53 430.97 584.06 431.95 584.77 434.15 582.54 432.97 579.2 432.4 577.76 433.03 574.46 431.11 571.87 430.86 567.98 429.59 565.16 429.02 562.8 432.66 562.67 434.26 561.89 435.16 559.75 435.93 556.31 437.59 553.67 439.21 552.55 439.55 550.82 442.04 547.8 439.39 547.76 435.7 546.44 434.53 546.18 433.58 547.46 432.67 546.84 429.05 548.34 427.3 548.12 424.12 546.73 422.69 544.3 423.24 541.66 423.41 539.93 421.93 539.51 420.48 540.48 416.03 541.59 413.63 543.26 413.07 543.78 411.17 545.27 410.47 547.42 410.1 550.07 409.06 Z" id="JP-10" data-name="Gunma"/>
<path d="M 511.19 424.42 513.38 421.93 515.07 418.27 515.04 416.97 516.57 415.18 517.08 411.78 517.03 407.13 519.42 405.89 521.12 402.82 521.24 401.27 522.34 400.71 525.43 401.51 526.55 402.42 526.78 404.91 527.9 405.72 529.86 404.49 531.45 404.42 533.87 403.43 535.8 403.49 536.35 401.34 537.65 400.55 539.69 397.91 543.16 396.69 545.73 397.28 546.4 400.67 547.45 402.26 548.97 403.5 549.72 405.05 549.63 407.64 550.07 409.06 547.42 410.1 545.27 410.47 543.78 411.17 543.26 413.07 541.59 413.63 540.48 416.03 539.51 420.48 539.93 421.93 541.66 423.41 544.3 423.24 546.73 422.69 548.12 424.12 548.34 427.3 546.84 429.05 547.46 432.67 546.18 433.58 546.44 434.53 547.76 435.7 547.8 439.39 550.82 442.04 551.33 445.19 549.49 446.78 548.1 447.02 546.78 445.38 544.46 445.06 542.63 445.54 541.86 445.13 541.3 443.35 538.93 442.54 538.16 443.36 536.38 446.64 535.33 447.27 533.91 447.17 532.64 449.91 533.43 451.62 532.24 453.69 533.2 456.74 532.7 458.5 531.36 459.61 531.02 462.56 531.26 463.52 530.31 465.06 530.78 467.17 529.34 469.21 527.33 469.98 526.54 470.91 524.26 471.94 520.71 474.84 519.57 475.3 517.68 475.23 515.26 474.69 511.53 475.57 510.26 473.48 510.58 472.06 511.65 469.58 511.16 467.75 512.6 466.77 512.08 464.96 511.88 462.44 509.89 460.55 509.26 458.37 509.29 456.45 507.93 454.43 506.96 452.21 502.74 449.27 504.58 446.39 505.81 445.61 507.61 445.49 509.6 442.76 511.61 439.38 511.78 438.27 510.29 435.63 511.17 433.12 511.1 431.63 512.82 429.01 513.25 427.11 512.69 425.72 511.19 424.42 Z" id="JP-20" data-name="Nagano"/>
<path d="M 573.8 401.58 575.49 400.57 576.81 399.22 579.03 398.4 584.93 394.98 587.33 393.94 588.86 393.75 591.31 391.6 593.25 391.02 594.69 391.21 599.57 392.68 602.6 394.99 603.08 396.42 604.22 397.31 604.43 400.59 604.92 405.62 604.89 407.72 605.46 409.58 603.86 411.38 604.44 417.29 604.17 419.1 602.47 422.78 601.63 423.75 600.13 423.6 598.06 424.15 596.64 424.95 594.52 425.07 592.48 427.35 590.58 427.76 588.88 430.29 585.81 431.88 584.06 431.95 583.53 430.97 581.79 429.48 578.8 428.87 576.62 429.12 575.24 427.74 573.06 424.79 573.04 423.91 574.46 421.52 575.11 419.15 576.56 416.85 576.81 415.35 576.03 414.72 573.94 414.45 572.14 413.34 572.17 411.42 572.78 409.55 572.86 407.38 574.05 405.67 573.09 403.91 573.8 401.58 Z" id="JP-09" data-name="Tochigi"/>
<path d="M 465.55 455.98 466.68 453.85 467.19 451.74 468.33 450.79 472.46 451.41 473.46 451.96 474.3 450.99 477.92 450.23 480.54 450.44 483.39 449.73 484.59 447.79 483.75 445.6 481.57 444.38 480.94 443.16 481.72 437.5 482.57 436.14 482.89 434.35 484.9 431.22 484.94 430.05 483.55 428.1 484.99 428 486.25 425.9 488.74 426.34 489.54 426.94 490 428.91 492.4 426.91 492.91 425.56 496.09 422.33 497.09 421.83 498.45 422.17 501.4 421.22 501.75 422.51 503.94 421.83 505.92 422.79 508.13 423.16 511.19 424.42 512.69 425.72 513.25 427.11 512.82 429.01 511.1 431.63 511.17 433.12 510.29 435.63 511.78 438.27 511.61 439.38 509.6 442.76 507.61 445.49 505.81 445.61 504.58 446.39 502.74 449.27 506.96 452.21 507.93 454.43 509.29 456.45 509.26 458.37 509.89 460.55 511.88 462.44 512.08 464.96 512.6 466.77 511.16 467.75 511.65 469.58 510.58 472.06 506.19 474.38 501.69 472.17 500.67 472.24 498.43 473.3 497.02 473.11 495.91 472.22 493.93 471.44 492.19 468.75 489.82 467.19 486.18 468.22 484.69 468.99 483.46 468.56 480.3 473.51 480.07 477.68 478.13 476.86 476.04 475.32 474.54 473.7 470.48 474.95 469.69 473.72 469.67 472.23 470.32 470 470.79 466.8 470.43 464.25 469.11 460.78 467.94 460.81 466.97 459.48 466.66 457.93 465.55 455.98 Z" id="JP-21" data-name="Gifu"/>
<path d="M 456.68 493.23 456.48 491.99 453.63 489.26 452.16 489.21 451.52 488.29 451.46 486.41 450.1 483.36 450.87 478.45 450.24 474.54 450.53 472.36 447.59 469.18 449.56 467.5 451.92 467.38 453.11 465.92 454.16 462.11 455.85 463.07 457.12 462.09 459.66 461.26 459.91 459.72 461.3 459.74 461.67 458.7 460.91 455.82 462.4 454.72 465.55 455.98 466.66 457.93 466.97 459.48 467.94 460.81 469.11 460.78 470.43 464.25 470.79 466.8 470.32 470 469.67 472.23 469.69 473.72 470.48 474.95 472.03 477.98 471.65 480.95 470.52 485.75 469.22 487.61 467.44 488.74 464.96 489.42 462.86 489.45 460.92 489.03 460.5 490.7 459.43 492.07 456.68 493.23 Z" id="JP-25" data-name="Shiga"/>
<path d="M 584.77 434.15 586.06 436.48 587.52 437.29 589.04 439.91 590.52 444.05 591.49 445.52 591.78 447.17 591.4 450.28 587.7 449.55 585.89 450.39 583.63 450.33 582.32 451.1 579.94 451.43 578.96 450.3 576.41 451.4 574.67 451.28 570.73 448.96 563.35 447.06 561.73 446.01 559.61 446.85 558.56 447.82 556.68 447.72 554.19 446.93 551.33 445.19 550.82 442.04 552.55 439.55 553.67 439.21 556.31 437.59 559.75 435.93 561.89 435.16 562.67 434.26 562.8 432.66 565.16 429.02 567.98 429.59 571.87 430.86 574.46 431.11 577.76 433.03 579.2 432.4 582.54 432.97 584.77 434.15 Z" id="JP-11" data-name="Saitama"/>
<path d="M 558.56 447.82 559.39 448.63 560.24 450.99 562.5 453.8 565.5 455.62 564.96 460.54 564.06 462.02 558.92 464.92 557.77 467.33 555.31 468.02 550.69 468.62 548.5 467.32 547.06 466.85 545.78 465.76 544.99 466.1 544 471.04 544.17 474.75 542.84 476.7 541.38 476.8 539.74 475.48 538.66 471.72 537.81 470.8 535.51 471.06 534.59 470.63 534.26 467.9 534.66 466.15 534.78 461.47 533.82 457.43 533.2 456.74 532.24 453.69 533.43 451.62 532.64 449.91 533.91 447.17 535.33 447.27 536.38 446.64 538.16 443.36 538.93 442.54 541.3 443.35 541.86 445.13 542.63 445.54 544.46 445.06 546.78 445.38 548.1 447.02 549.49 446.78 551.33 445.19 554.19 446.93 556.68 447.72 558.56 447.82 Z" id="JP-19" data-name="Yamanashi"/>
<path d="M 446.32 493.83 447.47 494.92 450.71 496.39 453.42 495.33 454.2 495.34 456.88 496.53 457.84 495.7 458.63 496.25 459.09 498.21 458.4 501.68 460.55 503.3 461.93 503.4 462.55 504.44 463.63 504.77 463.64 506.58 462.06 507.75 459.9 508.22 458.98 510.04 460.33 513.27 460.71 515.78 460.31 517.97 460.39 520.63 459.56 523.85 459.61 525.55 457.8 525.5 456.7 526.24 455.09 529.4 452.78 530.88 452.22 532.22 451.25 532.76 450.19 531.32 449.07 531.04 447.36 531.44 445.48 531 443.91 531.88 442.92 531.68 442.55 530.57 443.07 527.85 441.4 524.45 440.74 523.81 440.9 522.48 443.76 518.17 444.74 517.33 446.14 517.27 446.42 516.45 444.8 513.93 444.24 510.26 445.08 509.55 445.29 507.04 444.88 505.13 443.38 502.57 444.23 500.55 444.97 497.42 446.32 493.83 Z" id="JP-29" data-name="Nara"/>
</g>
</svg>