<?xml version="1.0"?>
<svg xmlns="http://www.w3.org/2000/svg" version="1.2" baseProfile="tiny" width="800" height="610" viewBox="0 0 800 610" stroke-linecap="round" stroke-linejoin="round">
<g id="MLOC-LT">
<path d="M 771 189.68 772.78 201.84 771.14 213.48 762.52 225.91 764.04 239.49 759.22 244.39 750.76 268.7 753.51 272.67 763.91 275.84 772.11 273.62 794.64 277.59 799 284.01 790.74 291.29 787.48 285.04 776.25 285.01 767.34 291.09 752.16 295.5 733.81 294.59 710.48 285.26 712.44 279.58 704.31 274.04 695.79 274.32 688.76 282.07 665.11 276.65 654.17 271.2 650.65 282.76 642.71 290.06 642.14 300.29 652.15 312.21 660.54 318 651.88 336.21 638.26 332.16 601.87 342.63 584.65 339.09 582.68 330.81 571.57 324.43 572.85 313.26 584.53 305.53 586.89 301.24 574.61 293.66 578.48 286.56 570.66 284.89 562.02 276.4 562.36 271.65 549.44 271.52 548.85 263.23 539.16 266.24 535.66 260.2 525.23 257.92 523.27 250.35 527.23 245.97 523.06 238.67 504.28 224.39 505.98 211.68 511.34 204.03 510.83 198.22 504.85 192.55 516.1 188.49 512.27 176.6 531.57 178.43 535.49 175.04 548.32 172.72 556.88 173.4 571.04 183.7 586.68 177.51 594.24 177.81 595.57 169.62 605.88 163.74 611.81 172.33 620.71 175.89 630.24 171.03 644.9 170.57 647.81 174.47 657.12 162.18 663.34 163.89 673.58 140.59 682.08 130.85 685 119.22 692.65 124.34 701.05 133.84 714.52 145.6 721.07 158.33 728.25 171.3 736.75 177.78 755.59 186.95 771 189.68 Z" id="LT-UT" data-name="Utenos"/>
<path d="M 790.74 291.29 785.47 292.71 776.35 303.34 773.96 316.84 768.88 320.85 754.55 314.4 747.33 318.58 732.29 314.65 726.17 315.73 721.9 322.49 720.77 335.96 713.39 350.56 704.19 359.14 687.7 362.52 677.75 361.25 671.04 364.82 669.44 371.15 660.75 379.77 660.17 394.96 652.82 400.89 652.86 416.06 650.81 425.47 654.94 441.41 655.01 450.6 650.52 456.92 642.21 461.87 638.64 469.42 637.65 484.91 626.43 502.56 631.05 512.57 648.97 508.42 651.61 516.75 657.37 520.52 661.31 529.17 659.16 543.02 654.95 549.03 648.24 548.57 640.23 553.18 628.2 551.18 621.45 546.41 625.31 539.29 625.37 529.91 629.69 529.29 618.56 513.97 613.41 515.21 604.67 525.43 593.51 526.05 584.89 522.95 580.74 526.41 575.71 542.19 564.23 552.29 558.14 553.29 547.43 549.11 534.22 549.33 529.34 538.37 523.21 530.65 542.74 509.71 545.06 495.86 553.61 491.26 553.91 478.02 535.99 482.71 529.61 487.42 517.26 488.57 515.45 480.93 505.84 478.42 491.77 483.96 477.04 480.6 477.69 471.66 474.73 467.39 474.71 456.38 478.62 443.03 483.46 443.43 485.7 435.24 482.74 423.49 484.14 419.43 494.52 412.67 503.48 412.46 507.8 392.27 519.18 384.76 527.29 374.89 518.71 366.45 510.39 365.03 493.18 351.86 497.43 344.59 506.83 336.85 505.31 329.5 499.42 321.21 491.56 320.42 489.82 311.53 483.91 306.01 484.18 294.65 476.05 289.19 471.43 273.71 475.09 255.38 483.29 252.22 488.18 246.94 493.94 232.89 503.86 234.11 504.28 224.39 523.06 238.67 527.23 245.97 523.27 250.35 525.23 257.92 535.66 260.2 539.16 266.24 548.85 263.23 549.44 271.52 562.36 271.65 562.02 276.4 570.66 284.89 578.48 286.56 574.61 293.66 586.89 301.24 584.53 305.53 572.85 313.26 571.57 324.43 582.68 330.81 584.65 339.09 601.87 342.63 638.26 332.16 651.88 336.21 660.54 318 652.15 312.21 642.14 300.29 642.71 290.06 650.65 282.76 654.17 271.2 665.11 276.65 688.76 282.07 695.79 274.32 704.31 274.04 712.44 279.58 710.48 285.26 733.81 294.59 752.16 295.5 767.34 291.09 776.25 285.01 787.48 285.04 790.74 291.29 Z" id="LT-VL" data-name="Vilniaus"/>
<path d="M 474.71 456.38 474.73 467.39 477.69 471.66 477.04 480.6 491.77 483.96 505.84 478.42 515.45 480.93 517.26 488.57 529.61 487.42 535.99 482.71 553.91 478.02 553.61 491.26 545.06 495.86 542.74 509.71 523.21 530.65 529.34 538.37 534.22 549.33 524.92 561.4 530.2 578.28 525.76 589.89 516.96 591.33 510.71 584.66 497.3 588.52 490.45 592.5 474.88 606.5 469.97 609 453.56 607.34 445.97 593.86 437.22 593.18 424.82 598.85 416.11 598.95 407.76 594.95 395.34 601.34 389.76 599.53 370.12 606.2 365.68 605.55 348.8 596.9 345.22 584.66 350.27 577.81 347.21 556.84 341.59 543.68 334.76 539.38 328.48 530.45 330.03 512.42 337.36 499.25 344.97 497.16 346.01 489.74 356.29 485.81 356.46 477.01 369.9 464.82 378.52 471.78 385.56 473.7 386.99 475.14 405.81 473.45 418.35 466.61 416.91 458.47 425.36 454.8 431.73 456.95 454.15 452.83 462.64 457.95 474.71 456.38 Z" id="LT-AL" data-name="Alytaus"/>
<path d="M 685 119.22 682.08 130.85 673.58 140.59 663.34 163.89 657.12 162.18 647.81 174.47 644.9 170.57 630.24 171.03 620.71 175.89 611.81 172.33 605.88 163.74 595.57 169.62 594.24 177.81 586.68 177.51 571.04 183.7 556.88 173.4 548.32 172.72 535.49 175.04 531.57 178.43 512.27 176.6 516.1 188.49 504.85 192.55 510.83 198.22 511.34 204.03 505.98 211.68 504.28 224.39 503.86 234.11 493.94 232.89 488.18 246.94 483.29 252.22 475.09 255.38 466.12 243.67 459.74 240.18 452.8 242.51 447.13 236.52 437.65 241.43 425.22 243.31 425.55 233.83 417.4 225.31 407.67 223.64 405.3 214.24 400.61 213.18 407.17 200.13 418.47 196.94 417.74 183.71 422.37 178.23 421.55 166.63 418.03 158.61 411.88 154.12 417.19 140.05 425.6 134.89 427.91 118.91 420.22 112.72 419.08 102.76 424.25 98.74 431.03 83.27 433.6 73.26 439.17 71.14 436.23 61.33 437.72 46.35 457.72 37.07 466.29 38.04 479.39 45.64 491.85 39.01 496.44 33.57 510.81 17.04 528.05 9.36 532.41 10.49 536.93 1 542.25 6.07 549.31 31.26 558.02 45.72 564.39 60.96 569.29 64.55 601.86 70.22 616.22 72.71 625.45 71.02 634.59 74.79 642.68 74.14 650.71 89.42 662.49 99.38 672.78 111.04 685 119.22 Z" id="LT-PN" data-name="Panevezio"/>
<path d="M 225.57 14.65 222.83 16.97 222.32 29.35 209.69 31.06 208.06 44.16 199.82 54.96 197.92 69.18 202.92 70.8 206.94 82.03 212.36 83.95 239 77.28 242.39 89.77 228.58 98.41 229.81 107.41 225.93 111.97 229.6 118.96 237.1 116.15 241.88 121.44 232.82 137.86 225.43 141.53 223.97 151.7 215.62 156.43 215.64 181.2 209.12 187.04 198.77 188.73 184.98 184.88 170.41 186.6 156.5 190.95 150.89 203.42 130.43 205.37 119.16 193.14 112.52 176.91 112.37 167.3 97.26 169.52 92.71 154.08 84.4 149.49 95.18 138.59 90.58 125.76 90.47 111.52 98.48 104.97 104.09 90.64 112.03 83.57 133.36 76.83 145.05 54.46 138.81 41.93 138.01 32.4 133.86 24.97 142.34 15.47 144.76 14.32 159.82 7.19 165.94 7.61 176.23 13.82 216.54 12.45 225.57 14.65 Z" id="LT-TE" data-name="Telšiai"/>
<path d="M 142.34 15.47 133.86 24.97 138.01 32.4 138.81 41.93 145.05 54.46 133.36 76.83 112.03 83.57 104.09 90.64 98.48 104.97 90.47 111.52 90.58 125.76 95.18 138.59 84.4 149.49 92.71 154.08 97.26 169.52 112.37 167.3 112.52 176.91 119.16 193.14 130.43 205.37 128.89 211.2 121.81 214.29 128.13 231.5 131.58 245.06 136.79 244.53 152.03 251 150.17 262.23 134.88 279.96 135.46 285.86 152.7 292.25 158.52 304.99 157.91 311.44 168.25 308.34 173.46 311.73 185.09 312.9 187.64 317.03 183.7 332.48 166.42 336.02 160.61 341.87 150.81 338.44 149.14 328 140.44 329.89 129.83 326.45 122.59 320.66 113.18 318.61 98.95 306 93.42 303.27 79.68 302.81 74.75 298.83 66.32 284.24 58.75 280.56 47.58 289.89 47.15 281.47 50.52 276.4 44.73 260.89 44.96 249.48 41.52 224.96 37.74 218.49 37.74 209.38 30.36 184.58 21.35 170.89 17.31 139.76 19.17 120.82 18.5 91.48 37.1 88.59 42.43 69.41 55.74 54.47 68.18 51.29 77.18 44.35 92.19 34.05 104.2 33.5 111.26 30.16 142.34 15.47 Z M 9.81 284.06 1 281.79 11.18 264.04 16.88 249.91 22.43 230.38 24.74 202.67 29.38 213.41 27.52 232.34 23.08 243.93 25.67 248.68 21.22 255.72 16.38 270.82 9.74 279.72 9.81 284.06 Z" fill-rule="evenodd" id="LT-KL" data-name="Klaipedos"/>
<path d="M 437.72 46.35 436.23 61.33 439.17 71.14 433.6 73.26 431.03 83.27 424.25 98.74 419.08 102.76 420.22 112.72 427.91 118.91 425.6 134.89 417.19 140.05 411.88 154.12 418.03 158.61 421.55 166.63 422.37 178.23 417.74 183.71 418.47 196.94 407.17 200.13 400.61 213.18 375.89 226.94 368.97 235.9 361.75 233.83 362.59 223.9 354.79 218.64 344.8 225.56 337.26 222.44 326.95 213.66 317.07 219.72 312.18 211.64 298.36 211.98 285.67 226.09 264.73 234.42 256.87 227.8 246.79 229.31 234.74 235.98 230.65 228.66 233.52 224.25 224.35 211.92 216.19 206.18 214.99 196 209.12 187.04 215.64 181.2 215.62 156.43 223.97 151.7 225.43 141.53 232.82 137.86 241.88 121.44 237.1 116.15 229.6 118.96 225.93 111.97 229.81 107.41 228.58 98.41 242.39 89.77 239 77.28 212.36 83.95 206.94 82.03 202.92 70.8 197.92 69.18 199.82 54.96 208.06 44.16 209.69 31.06 222.32 29.35 222.83 16.97 225.57 14.65 235.2 22.97 239.59 23.65 263.78 12.18 272.6 8.49 277.01 10.98 285.12 30.14 291.31 34.96 298.16 33.31 306.29 21.78 322.02 18.08 334.19 22.59 353.14 28.96 365.67 22.79 378.82 22.64 381.31 28.92 401.15 28.12 416.11 32.94 428.86 43.03 437.72 46.35 Z" id="LT-SA" data-name="Šiauliai"/>
<path d="M 385.56 473.7 378.52 471.78 369.9 464.82 356.46 477.01 356.29 485.81 346.01 489.74 344.97 497.16 337.36 499.25 330.03 512.42 328.48 530.45 314.82 523.97 298.75 512.5 289.65 514.51 288.5 503.76 281.46 500.87 279.22 495.74 263.69 490.19 257.23 491.72 251.24 500.2 239.45 477.58 239.63 450.27 243.21 434.86 242.8 422.91 245.48 414.25 260.15 401.23 262.26 392.95 259.67 379.05 256.89 374.09 248.8 370.28 244.22 360.47 233.08 358.92 224.61 333.8 234.53 335.43 246.01 333.33 258.42 328.01 272.71 329.16 283.08 323.98 326.28 332.08 338.84 330.3 348.62 336.94 357.7 337.11 351.08 352.19 342.95 352.03 337.61 358.91 347 363.81 350.01 373.52 356.54 371.06 367.62 378.55 370.83 393.72 370.01 401.94 373.25 410.77 374.6 430.82 367.54 435.69 374.74 440.28 373.1 448.92 380.1 455.9 386 457.89 388.28 468.93 385.56 473.7 Z" id="LT-MR" data-name="Marijampoles"/>
<path d="M 130.43 205.37 150.89 203.42 156.5 190.95 170.41 186.6 184.98 184.88 198.77 188.73 209.12 187.04 214.99 196 216.19 206.18 224.35 211.92 233.52 224.25 230.65 228.66 234.74 235.98 237.79 241.94 245.97 248.68 248.61 255.87 256.15 257.48 256.53 268.35 264.96 279.23 275.37 271.86 284.64 279.14 284.05 286.95 303.96 282.92 313.15 291.63 327.14 290.65 333.84 295.71 341.56 293.99 347.69 297.9 344.38 305.27 344.78 314.44 338.84 330.3 326.28 332.08 283.08 323.98 272.71 329.16 258.42 328.01 246.01 333.33 234.53 335.43 224.61 333.8 220.53 331 206.3 335.27 183.7 332.48 187.64 317.03 185.09 312.9 173.46 311.73 168.25 308.34 157.91 311.44 158.52 304.99 152.7 292.25 135.46 285.86 134.88 279.96 150.17 262.23 152.03 251 136.79 244.53 131.58 245.06 128.13 231.5 121.81 214.29 128.89 211.2 130.43 205.37 Z" id="LT-TA" data-name="Taurages"/>
<path d="M 475.09 255.38 471.43 273.71 476.05 289.19 484.18 294.65 483.91 306.01 489.82 311.53 491.56 320.42 499.42 321.21 505.31 329.5 506.83 336.85 497.43 344.59 493.18 351.86 510.39 365.03 518.71 366.45 527.29 374.89 519.18 384.76 507.8 392.27 503.48 412.46 494.52 412.67 484.14 419.43 482.74 423.49 485.7 435.24 483.46 443.43 478.62 443.03 474.71 456.38 462.64 457.95 454.15 452.83 431.73 456.95 425.36 454.8 416.91 458.47 418.35 466.61 405.81 473.45 386.99 475.14 385.56 473.7 388.28 468.93 386 457.89 380.1 455.9 373.1 448.92 374.74 440.28 367.54 435.69 374.6 430.82 373.25 410.77 370.01 401.94 370.83 393.72 367.62 378.55 356.54 371.06 350.01 373.52 347 363.81 337.61 358.91 342.95 352.03 351.08 352.19 357.7 337.11 348.62 336.94 338.84 330.3 344.78 314.44 344.38 305.27 347.69 297.9 341.56 293.99 333.84 295.71 327.14 290.65 313.15 291.63 303.96 282.92 284.05 286.95 284.64 279.14 275.37 271.86 264.96 279.23 256.53 268.35 256.15 257.48 248.61 255.87 245.97 248.68 237.79 241.94 234.74 235.98 246.79 229.31 256.87 227.8 264.73 234.42 285.67 226.09 298.36 211.98 312.18 211.64 317.07 219.72 326.95 213.66 337.26 222.44 344.8 225.56 354.79 218.64 362.59 223.9 361.75 233.83 368.97 235.9 375.89 226.94 400.61 213.18 405.3 214.24 407.67 223.64 417.4 225.31 425.55 233.83 425.22 243.31 437.65 241.43 447.13 236.52 452.8 242.51 459.74 240.18 466.12 243.67 475.09 255.38 Z" id="LT-KU" data-name="Kauno"/>
</g>
</svg>