<?xml version="1.0"?>
<svg xmlns="http://www.w3.org/2000/svg" version="1.2" baseProfile="tiny" width="800" height="1130" viewBox="0 0 800 1130" stroke-linecap="round" stroke-linejoin="round">
<g id="MLOC-NZ">
<path d="M 141.06 1076.4 142.09 1078.54 139.91 1082.12 137.9 1079.03 141.06 1076.4 Z M 115.29 1106.84 114.81 1111.81 112.56 1112.79 107.63 1112.79 101.89 1114.28 95.66 1120.49 91.44 1118.55 88.23 1118.82 86.63 1115.55 83.65 1117.43 78.77 1122.12 82.56 1125.23 80.49 1127.5 74.15 1129 70.54 1128.71 71.4 1122.01 76.61 1116.63 77.06 1109.85 78.93 1106.88 85.24 1104.87 84.79 1097.89 87.55 1097.38 90.04 1092.31 88.82 1088.07 86.19 1083.63 86.32 1078.68 88.11 1073.01 94.37 1073.27 96.9 1071.65 102.4 1075.66 108.29 1084.02 113.96 1089.13 113.17 1093.51 107.18 1092.91 103.92 1091.45 103.15 1095.03 112.11 1098.92 111.54 1101.53 117.32 1099.48 119.35 1102.15 118.45 1106.18 115.29 1106.84 Z M 17.14 970.04 19.25 972.82 19.72 979.09 17.81 981.45 13.09 981.65 12.24 975.79 10.16 974.15 6.06 979.03 4.58 977.33 7.59 972.01 17.14 970.04 Z M 34.43 927.47 35.98 934.02 38.44 940.33 35.35 940.5 30.39 937.45 28.98 934.25 34.43 927.47 Z M 180.81 1065.4 177.92 1069.84 174.74 1069.43 170.47 1071.54 160.02 1067.92 157.87 1059.85 148.26 1061.92 146.18 1058.74 144.7 1063.86 141.15 1065.05 129.79 1063.86 132.49 1060.99 126.26 1057.93 126.11 1061.56 120.22 1058.55 121.83 1055.97 124.09 1056.96 127.54 1054.04 128.15 1051.48 126.47 1046.12 124.66 1050.79 122.05 1052.01 116.39 1040.14 113.43 1038.44 106.97 1039.6 106.04 1042.86 102.79 1041.61 98.7 1041.66 97.78 1043.57 94.6 1042.96 92.25 1044.17 87.98 1039.28 85 1037.04 88.23 1034.38 84.86 1029.86 82.21 1024.32 78.19 1023.61 75.09 1021.55 66.58 1020.46 62.94 1030.28 59.7 1030.41 55.64 1032.42 51.62 1031.21 47.7 1032.37 41.82 1028.92 38.44 1029.1 33.94 1027.86 24.88 1028.09 20.47 1027.3 16.75 1024.55 14.88 1020.36 17.42 1018.99 22.19 1012.84 25.11 1006.47 23.17 1005.68 21.92 1010.39 19.57 1013.02 10.85 1014.74 12.69 1011.48 13.65 1006.38 18.99 1001.64 15.62 1000.08 19.22 995.64 17.19 994.57 11.71 1003.06 5.44 1004.94 3.02 1007.22 1.17 1004.8 1 991.24 2.51 988.11 20.73 986.52 26.04 984.88 28.89 985.17 32.14 982.23 36.73 979.69 28.98 978.43 22.82 980.25 21.05 969.5 21.79 967.95 37.3 962.13 39.8 958.29 31.02 962.97 25.59 964.06 21.96 966.13 17.35 966.2 16.55 963.08 18.99 957.71 20.84 950.58 25.62 947.59 23.37 944.63 24.66 941.89 28.35 938.37 30.75 941.47 37.43 944.16 41.37 940.88 51.55 937.44 50.01 935.93 45.82 937.56 39.31 937.44 38.17 932.46 36.68 930.38 36.49 926.19 38.44 923.64 45.21 926.19 41.42 921.86 42.4 917.44 45.45 916.24 49 921.76 53.29 919.85 48.16 917.54 46.27 914.46 47.04 911.46 50.07 909.66 49.59 907.55 56.54 900.59 61.62 897.53 63.79 897.39 66.04 902.81 67.63 902.25 65.55 895.79 66.36 892.59 70.69 890.22 73.26 893.51 71.94 896.13 73.78 899.12 75.54 894.86 72.38 887.49 75.69 885.05 75.95 882.75 80.49 880.86 81.84 878.39 85.77 875.31 89.66 874.94 95.66 879.91 97.69 878.96 93.04 875.2 91.35 866.25 98.37 857.7 104.33 852.2 103.99 849.17 109.93 849.17 111.15 845.52 118.07 844.12 122.64 846.71 126.8 853.72 123.83 864.83 120.21 867.89 115.66 874.71 112.72 885.11 112.91 888.46 111.83 895.9 110.45 899.45 111.46 906 112.74 908.9 116.42 913.1 120.13 914.84 120.34 916.61 117.91 924.53 118.21 927.25 121.42 934.83 122.43 940.24 125.66 941.95 132.64 941.75 144.21 936.36 145.71 937.19 147.65 941.92 153.49 951.24 158.29 952.58 161.17 951.21 168.41 940.63 171.38 939.03 173.76 940.44 179.8 947.2 180.97 951.19 178.18 953.81 173.6 965.92 169.52 974.31 168.08 984.13 168.92 991.06 171.99 994.14 173.11 998.57 173.5 1007.1 177.01 1012.76 177.62 1018.42 180.48 1026.32 180.33 1032.51 178.47 1040.59 179.82 1045.54 180.14 1050.07 182.86 1053.82 181.03 1060.29 180.81 1065.4 Z" fill-rule="evenodd" id="NZ-STL" data-name="Southland"/>
<path d="M 523.04 560.42 524.4 563.42 522.06 568.85 518.5 568.85 522.16 565.02 519.82 563.19 523.04 560.42 Z M 483.7 543 483.7 537.05 485.7 536.74 486.5 530.72 490.32 529.84 493.33 530.4 495.53 533.16 493.6 535.31 492.75 539.48 491.16 539.48 485.07 544.68 483.7 543 Z M 470.91 555.98 472.91 556.03 474.62 558.73 480.75 555.32 478.61 550.61 484.83 548.42 489.59 549.02 492.26 544.79 496.84 542.46 499.51 543 500.22 545.31 496.33 545.94 495 548.42 492.26 549.02 492.51 551.28 488.28 552.06 484.45 551.24 484.6 556.25 482.77 559.84 484.08 560.75 486.63 556.25 493.3 555.34 492.98 558.52 489.11 560.42 486.65 563.37 489.59 567.33 488.66 571.25 485.96 573.24 482.35 574.31 484.15 576.65 491.12 572.52 490.5 570.05 494.65 569.74 498.32 570.55 505.32 568.05 499.32 566.65 497.88 568.05 491.08 567.9 490.83 563.82 493.2 561.68 494.55 558.03 498.94 559.25 497.93 555.74 495.04 553.09 498.97 548.89 504.14 552.79 506.38 550.81 511.87 551.08 512.87 556.82 518.01 551.17 518.94 553.44 515.56 558.9 515.1 561.46 511.33 565.53 512.2 567.65 508.14 570.47 503.76 570.67 504.43 573.28 507.7 571.85 510.24 574.08 516.68 572.17 517.56 574.31 514.1 579.38 510.47 581.21 506.7 579.17 501.58 588.36 501.75 596.52 505.53 600.16 505.65 595.62 509.29 601.89 510.45 607.75 512.82 614.71 516.81 617.47 510.98 628.23 503.31 636.48 501.02 633.59 492.24 631.78 486.73 632.98 483.76 634.85 480.31 631.76 478.39 635.57 474.88 638.43 469.04 641.89 464.84 645.63 462.87 653.2 460.84 657 452.55 660.63 445.2 667.62 446.16 670.14 444.81 674.07 442.01 677.66 436.2 681.22 430.46 678.09 430.95 674.36 428.4 672.26 425.83 667.33 422.32 665.82 422.2 662.45 419.94 655.28 414.39 652.79 412.58 649.53 414.87 641.85 421.52 633.34 423.56 624.24 427.01 619.45 427.89 616.9 431.75 613.49 436.41 606.87 441.63 600.82 443.38 597.98 447.98 596.94 449.59 592.9 450.77 585.19 454.65 583.02 457.69 580.02 463.43 571.06 469.24 564.08 470.36 561.02 470.91 555.98 Z" fill-rule="evenodd" id="NZ-MBH" data-name="Marlborough District"/>
<path d="M 470.91 555.98 470.36 561.02 469.24 564.08 463.43 571.06 457.69 580.02 454.65 583.02 450.77 585.19 445.83 581.57 444.16 578.3 450.71 574.02 454.39 569.15 460.87 563.1 463.83 564.24 470.91 555.98 Z" id="NZ-NSN" data-name="Nelson City"/>
<path d="M 450.77 585.19 449.59 592.9 447.98 596.94 443.38 597.98 441.63 600.82 436.41 606.87 431.75 613.49 427.89 616.9 427.01 619.45 423.56 624.24 421.52 633.34 414.87 641.85 412.58 649.53 409.6 648.91 405.29 658.7 402.27 662.38 397.96 664.67 395.09 664.9 393.01 667.04 389.77 662.11 388.71 656.26 387.45 653.63 381.53 651.73 379.85 648.82 375.34 648.03 373.97 641.46 371.36 639.13 370.22 635.2 370.99 630.83 372.57 629.48 374.18 623.7 373.37 619.27 374.47 615.94 378.02 613.61 382.04 612.59 382.98 608.2 386.46 606.04 389.77 596.09 392.9 593.86 393.31 588.63 396.02 587.58 399.66 588.35 404.13 584.27 404.84 577.77 404.35 574.71 408.99 572.88 412.03 570.14 411.48 568.11 405.23 565.28 400.17 561.1 397.51 556.08 395.84 554.98 389.98 555.32 387.32 556.57 387.45 552.59 389.52 547.86 387.1 545.17 385.37 541.51 382.59 538.36 381.39 531.7 382.75 531.66 389.97 526.33 396.57 518.14 399.44 515.33 400.82 517.23 403.93 517.31 407.24 514.01 405.3 509.97 408.3 508.4 421.38 507.75 425.65 508.3 430.24 510.27 415.98 509.1 413.64 512.04 411.6 520.45 412.26 523.85 411.45 527.91 413.64 528.12 414.55 530.6 422.49 537.46 424.19 537.42 429.46 534.12 431.24 531.99 433.1 533.42 433.41 538.58 436.24 541.21 435.8 547.89 434 552.6 435.27 559.64 434 564.17 435.8 567.65 437.46 567.68 438.9 573.62 437.19 576.05 440.27 578.43 444.16 578.3 445.83 581.57 450.77 585.19 Z" id="NZ-TAS" data-name="Tasman District"/>
<path d="M 123.83 864.83 126.8 853.72 122.64 846.71 118.07 844.12 111.15 845.52 108.95 843.44 113.28 841.59 115.68 838.75 119.8 835.95 124.57 830.56 125.44 826.79 129.2 822.26 133.28 821.99 137.95 820.26 144.74 816.44 148.26 820.16 151.39 820.65 158.74 817.2 162.72 813.18 168.21 808.92 173.46 805.66 174.09 803.22 178.27 800.66 180.77 797.61 188.05 793.17 193.18 791.08 196.43 787.51 199.36 787.57 206.57 783.4 210.7 783.83 216.49 780 221.48 771.69 223.92 770.52 224.45 767.31 227.26 764.43 236.05 760.01 237.46 756.17 239.89 754.77 240.99 752.06 246.87 748.93 249.81 750.23 254.09 743.38 251.98 742.97 253.15 738.38 258.02 738.04 262.57 732.89 268 729.32 273.89 727.2 276.45 725.13 280.29 724.64 284.84 721.12 288.36 716.31 290.69 714.61 296.32 704.76 300.33 702.24 308.13 692.07 312.85 682.33 314.9 679.38 315.52 674.47 318.74 669.47 320.14 665.44 321.9 652.31 324.37 644.15 327.59 639.78 329.35 632.18 332.27 624.18 330.98 622.68 330.91 618.51 342.21 617.73 345.48 616.33 351.7 612.3 359.65 604.42 364.85 591.98 367.35 589.2 370.66 587.45 371.77 578.17 375.2 576.65 373.54 573.09 372.95 563.42 373.81 559.54 373.4 554.99 373.04 541.23 375.02 540.27 378.39 534.12 381.39 531.7 382.59 538.36 385.37 541.51 387.1 545.17 389.52 547.86 387.45 552.59 387.32 556.57 389.98 555.32 395.84 554.98 397.51 556.08 400.17 561.1 405.23 565.28 411.48 568.11 412.03 570.14 408.99 572.88 404.35 574.71 404.84 577.77 404.13 584.27 399.66 588.35 396.02 587.58 393.31 588.63 392.9 593.86 389.77 596.09 386.46 606.04 382.98 608.2 382.04 612.59 378.02 613.61 374.47 615.94 373.37 619.27 374.18 623.7 372.57 629.48 370.99 630.83 370.22 635.2 371.36 639.13 373.97 641.46 375.34 648.03 379.85 648.82 381.53 651.73 387.45 653.63 388.71 656.26 389.77 662.11 393.01 667.04 395.09 664.9 397.96 664.67 395.48 672.1 389.8 674.89 382.4 681.08 377.36 688 374.38 690.38 372.63 693.98 367.79 697.01 364.87 697.45 361.63 700.02 358.55 704.2 358.01 706.92 350.5 710.47 347.99 718.88 346.29 720.36 342.99 720.25 335.35 721.77 332.55 721.35 327.71 723.99 321.65 725.53 317.31 729.41 315.71 733.49 313.7 735.23 304.52 738.36 300.4 745.51 291.33 750.61 279.77 759.85 273.37 767.07 270.52 766.63 265.1 768.25 256.23 773.37 247.56 776.98 240.68 783.64 238.75 787.92 235.29 792.46 230.76 799.81 220.48 808.33 212.42 817.45 207.61 816.57 204.23 821.85 192.33 829.07 187.38 826.69 182.95 828.08 172.79 829.01 166.62 832.92 162.88 838.4 157.84 842.76 155.11 850.98 151.13 855.93 144.98 857.69 132.08 863.96 123.83 864.83 Z" id="NZ-WTC" data-name="West Coast"/>
<path d="M 180.81 1065.4 181.03 1060.29 182.86 1053.82 180.14 1050.07 179.82 1045.54 178.47 1040.59 180.33 1032.51 180.48 1026.32 177.62 1018.42 177.01 1012.76 173.5 1007.1 173.11 998.57 171.99 994.14 168.92 991.06 168.08 984.13 169.52 974.31 173.6 965.92 178.18 953.81 180.97 951.19 179.8 947.2 173.76 940.44 171.38 939.03 168.41 940.63 161.17 951.21 158.29 952.58 153.49 951.24 147.65 941.92 145.71 937.19 144.21 936.36 132.64 941.75 125.66 941.95 122.43 940.24 121.42 934.83 118.21 927.25 117.91 924.53 120.34 916.61 120.13 914.84 116.42 913.1 112.74 908.9 111.46 906 110.45 899.45 111.83 895.9 112.91 888.46 112.72 885.11 115.66 874.71 120.21 867.89 123.83 864.83 132.08 863.96 144.98 857.69 151.13 855.93 155.11 850.98 157.84 842.76 162.88 838.4 166.62 832.92 172.79 829.01 182.95 828.08 187.38 826.69 192.33 829.07 204.23 821.85 207.61 816.57 212.42 817.45 212.94 822.53 209.36 830.09 204.18 838.37 204 857.11 204.55 860.77 208.48 863.31 210.56 871.85 213.34 874.49 215.19 874.19 220.69 880.64 225.55 880 227.68 881.02 231.25 886.87 235.62 899.13 239.03 904.11 245.77 905.58 254.1 904.43 256.17 907.12 256.99 914.16 259.79 917.86 266.23 914.14 276.52 904.65 281.45 902.76 289.61 901.19 301.33 904.44 308.28 907.27 311.41 907.86 310.5 910.68 306.04 919.09 298.73 926.7 295.15 934.51 291.91 945.53 293.84 949.93 290.78 954.13 291.19 957.39 287.07 961.82 287.54 964.13 284.25 966.83 280.13 975.99 276.69 978.43 284.12 983.94 282.98 986.1 278.45 987.47 276.69 990.12 279.39 992.29 282.1 988.11 286.23 988.19 286 993.37 281.69 995.13 280.27 997.61 266.61 999.05 260.98 1000.98 256.08 1004.61 251.22 1012.41 249.56 1021.01 245.5 1025.2 240.38 1027.71 236.56 1032.65 227.43 1039.23 225.14 1042.43 224.1 1050.97 217.94 1054.04 216.62 1057.35 209.99 1061.59 205.5 1060.31 199.79 1063.86 199.41 1066.46 195.17 1065.63 188.71 1066.24 186.48 1068.35 182.59 1069.51 180.81 1065.4 Z" id="NZ-OTA" data-name="Otago"/>
<path d="M 412.58 649.53 414.39 652.79 419.94 655.28 422.2 662.45 422.32 665.82 425.83 667.33 428.4 672.26 430.95 674.36 430.46 678.09 436.2 681.22 442.01 677.66 444.81 674.07 446.16 670.14 445.2 667.62 452.55 660.63 460.84 657 462.87 653.2 464.84 645.63 469.04 641.89 474.88 638.43 478.39 635.57 480.31 631.76 483.76 634.85 486.73 632.98 492.24 631.78 501.02 633.59 503.31 636.48 498.19 641.99 495 649.04 494.89 653.34 490.72 660.65 485.05 665.2 483.01 668.58 481.24 668.92 478.37 672.94 478.51 675.21 472.27 678.74 468.8 683 466.47 690.36 458.27 707.6 457.55 710.73 455.29 714.26 453.23 715.33 453.42 720.02 450.91 724.56 447.42 726.99 442.09 728.95 441.2 731.65 437.45 734.77 428.54 736.99 419.5 744 415.17 752.72 415.86 755.19 415 764.47 414.12 766.28 415.49 773.9 417.38 779.28 415.32 780.13 419.02 784.13 412.71 785.09 411.71 787.42 415 788.19 416.37 786.4 422.25 785.99 424.95 784.45 426.7 785.56 427 790.39 429.75 787.94 435.45 787.98 438.21 790.79 439.64 798.84 438.91 804.07 434.03 808.91 431.75 809.52 430.36 805.09 430.46 802.21 427.2 802.56 427.82 807.52 429.91 810.83 423.82 810.72 419.9 808.83 413.39 801.69 402.35 803.84 396.54 805.94 396.8 803.68 406.74 800.23 405.58 797.7 402.35 797.54 398.78 794.24 393.52 795.67 391.79 798.9 391.79 805.72 390.11 807.64 382.47 808.82 381.3 810.19 370.03 815.72 357.31 825.07 353.24 825.31 347.5 829.3 344.04 830.25 341.79 832.54 336.35 835.06 334.06 837.98 331.55 839.27 327.51 843.63 322.85 845.32 318.5 853.88 317.88 861.94 315.09 865.62 314.71 868.4 311.5 870.11 312.96 871.94 313.81 889.93 312.14 891.13 314.04 894.85 313.43 903.41 311.41 907.86 308.28 907.27 301.33 904.44 289.61 901.19 281.45 902.76 276.52 904.65 266.23 914.14 259.79 917.86 256.99 914.16 256.17 907.12 254.1 904.43 245.77 905.58 239.03 904.11 235.62 899.13 231.25 886.87 227.68 881.02 225.55 880 220.69 880.64 215.19 874.19 213.34 874.49 210.56 871.85 208.48 863.31 204.55 860.77 204 857.11 204.18 838.37 209.36 830.09 212.94 822.53 212.42 817.45 220.48 808.33 230.76 799.81 235.29 792.46 238.75 787.92 240.68 783.64 247.56 776.98 256.23 773.37 265.1 768.25 270.52 766.63 273.37 767.07 279.77 759.85 291.33 750.61 300.4 745.51 304.52 738.36 313.7 735.23 315.71 733.49 317.31 729.41 321.65 725.53 327.71 723.99 332.55 721.35 335.35 721.77 342.99 720.25 346.29 720.36 347.99 718.88 350.5 710.47 358.01 706.92 358.55 704.2 361.63 700.02 364.87 697.45 367.79 697.01 372.63 693.98 374.38 690.38 377.36 688 382.4 681.08 389.8 674.89 395.48 672.1 397.96 664.67 402.27 662.38 405.29 658.7 409.6 648.91 412.58 649.53 Z" id="NZ-CAN" data-name="Canterbury"/>
<path d="M 575.01 189.97 578.08 191.4 575.83 193.59 576.4 196.06 571.86 197.45 567.76 196.2 564.53 192.65 568.93 191.64 570.87 193.33 575.01 189.97 Z M 554.21 161.26 556.99 162.07 557.81 165.17 554.33 166.24 554.21 161.26 Z M 572.76 143.6 574.11 146.67 570.5 147.84 570.18 144.47 572.76 143.6 Z M 599.4 152.31 601.22 154.54 599.92 157.3 597.87 157.4 597.23 154.5 594.33 154.54 593.44 151.35 590.8 149.46 587.4 149.16 588.89 142.74 586.66 141.36 589.46 138.86 588.15 137.5 588.65 134.6 591.61 135.1 593.3 140.43 598.89 143.63 596.99 148.94 599.4 152.31 Z M 542.31 235.64 538 224.13 535.21 218.8 540.32 216.04 541.06 219.33 544.38 225.88 545.59 230.63 547.44 229.6 546.18 223.46 549.76 220.3 556 217.63 558.52 220.56 560.48 219.73 559.73 216.74 554.08 214.66 552.4 210.8 549.63 210.18 552.85 206.6 548.6 205.83 544.14 206.06 540.2 208.03 538.89 211.98 536.15 211.41 532.26 214.68 530.17 212.52 527.5 203.1 526.05 195.34 524.8 191.64 521.39 185.37 512.3 173.85 510.35 170.07 509.95 166.3 514.88 165.79 515.87 168.48 518.68 172.44 520.74 173.38 520.31 175.87 522.11 178 521.66 180.93 526.38 183.75 527.76 182.17 528.91 176.99 528.96 171.72 527.6 171.4 527.59 167.12 528.91 165.18 527.04 162.47 528.66 159.74 526.59 158.44 523.65 161.03 519.77 161.32 516.23 159.46 517.2 155.38 519.86 156.22 523.99 155.6 526.94 153.19 532.32 150.02 531.64 147.84 541.21 140.13 547.86 149.24 552.31 151.87 550.74 154.2 551.11 156.6 547.44 158.2 549.59 164.91 546.4 166.5 547 170.22 545.14 171.94 545.61 177.84 547.43 179.42 554.14 179.7 549.48 182.11 548.01 184.38 551.95 196.77 548.73 195.26 547 196.2 544.33 191.4 540 193.31 539.46 195.14 542.47 198.56 542.5 202.55 548.48 198.34 555.68 199.02 556.91 202.46 555.25 204.71 557.36 206.9 559.16 197.89 561.57 203.67 561.45 205.83 565.46 204.74 564.13 201.36 569.15 201.79 569.94 203.67 569.2 207.44 571.07 209.16 575.27 206.85 579.78 206.56 582.59 208.36 585.39 212.1 579.64 212.67 575.97 214.6 574.98 218.04 574.42 224.57 570.38 226.97 555.77 230.55 550.07 232.34 542.31 235.64 Z" fill-rule="evenodd" id="NZ-AUK" data-name="Auckland"/>
<path d="M 542.31 235.64 550.07 232.34 555.77 230.55 570.38 226.97 574.42 224.57 574.98 218.04 575.97 214.6 579.64 212.67 585.39 212.1 585.83 216.2 585 221.96 586.07 225.65 588.11 228.46 590.49 229.84 593.43 229.93 598.99 227.9 600.09 226.38 603.18 228.96 602.15 223.07 600.8 219.37 600.87 215.01 598.7 208.22 594.45 203.52 593.5 200.93 595.89 198.56 594.9 195.59 598.22 194.65 595.71 186.97 597.03 182.79 593.07 177.61 589.43 176.02 587.44 172.57 587.79 168.24 592.94 168.07 594.31 170.52 597.27 172.73 598.99 170.78 600.96 174.39 600.78 179.24 603.46 179.66 603.95 184.98 605.74 186.95 604.85 189.46 606.24 192.07 608.9 189.97 611.31 189.54 616.04 187.21 617.75 188.56 615.71 193.4 612.33 195.34 610.3 198.51 610.95 201.01 614 200.47 613.49 197.88 618.49 196.94 620 198.2 620.16 201.24 622.05 205.21 622.46 209.16 622.18 215.85 624.33 217.91 622.26 221.96 624.3 223.38 623.34 230.41 626.1 234.7 627.13 241.85 624.46 242.95 624.17 246.05 621.31 250.29 618.55 250.98 617.27 253.44 618.86 256 618.19 259.25 619.32 264.02 622.27 269.61 624.61 275.41 625.44 282.14 627.72 285.45 627.18 289.24 628.92 294.14 633.27 295.48 635.52 299.31 635.43 302.87 636.47 307.67 639.67 310.47 643.43 310.5 647.49 314.29 650.92 320.88 660.99 325.38 662.72 327.02 663.33 330.32 661.87 336.98 656.98 344.45 653.58 351.14 646.68 362.55 646.89 369.48 647.48 370.88 644.03 377.69 640.65 381.87 635.25 389.66 631.25 386.02 629.1 388.94 628.6 392.05 626.31 394.94 622.89 396.89 620.16 402.8 617.57 404.11 608.8 403.87 603.08 402.17 602.81 398.82 605.77 392.1 606.57 388.19 605.16 385.11 607.82 379.13 607.79 377.28 603.51 377.48 601.18 376.14 602.17 370.6 600.51 366.99 601.7 362.21 598.61 358.28 600.94 354.62 603.24 348.3 605.12 346.17 605.14 340.32 603.96 337.87 598.02 334.79 594.43 335.21 588.51 342.28 585.8 341.78 581.32 346.33 577.08 347.98 571.77 347.34 566.1 349.95 561.98 350.75 561.75 353.44 559.98 357.64 555.2 359.92 551.38 356.68 543.34 356.42 538.66 354.02 540.2 347.94 540.37 333.38 540.92 330.23 543.24 324.9 544.58 318.7 545.64 309 544.43 304.53 549.29 303.27 553.27 304.95 557.36 302.65 556.23 299.75 553.05 299.54 550.6 298.12 556.42 293.35 554.21 290.13 551.73 294.59 549.66 291.72 550.15 283.79 551.94 279.85 555.06 278.7 562.35 278.09 561.16 276.51 561.9 272.33 555.14 276.17 554.01 274.84 549.79 258.47 545.98 249.26 545.28 244.55 549.29 242.11 552.18 235.14 548.8 237.53 546.91 240.92 544.52 240.13 542.31 235.64 Z" id="NZ-WKO" data-name="Waikato"/>
<path d="M 652.8 524.64 648.76 533.67 644.39 545.28 641.12 546.65 637.85 552.06 635.74 560.04 634.34 563.35 627.66 572.75 617.59 581.08 615.16 583.69 608 588.1 593.46 599.57 588.94 601.38 585.67 604.68 579.55 605.61 578.51 605.02 575.85 595.88 576.91 589.33 575.88 587.77 567.99 584.71 564.51 584.93 559.76 589.55 557.36 589.9 555.02 587.91 555.75 585.51 555.1 580.3 557.06 574.99 556.61 570.78 551.55 571.25 548.8 575.45 551.89 576.24 552.4 579.11 549.21 579.72 546.77 581.5 540.53 579.2 538.12 576.69 538.26 571.91 542.46 570.65 547.76 565.01 549.37 561.28 555.1 557.39 553.46 554.94 558.28 551.22 560.11 548.55 560.51 545.5 562.51 540.19 566.41 535.91 570.1 529.67 573.2 522.72 574.23 524.91 578.36 529.67 581.18 530.71 585.8 529.09 591.96 528.89 595.36 525.73 602.63 527.92 606.02 528.3 611.39 524.68 615.87 527.58 616.39 531.31 623.93 530.28 629.52 527.81 635.62 524.36 642.53 523.17 652.8 524.64 Z" id="NZ-WGN" data-name="Wellington"/>
<path d="M 555.2 359.92 559.98 357.64 561.75 353.44 561.98 350.75 566.1 349.95 571.77 347.34 577.08 347.98 581.32 346.33 585.8 341.78 588.51 342.28 594.43 335.21 598.02 334.79 603.96 337.87 605.14 340.32 605.12 346.17 603.24 348.3 600.94 354.62 598.61 358.28 601.7 362.21 600.51 366.99 602.17 370.6 601.18 376.14 603.51 377.48 607.79 377.28 607.82 379.13 605.16 385.11 606.57 388.19 605.77 392.1 602.81 398.82 603.08 402.17 608.8 403.87 617.57 404.11 620.16 402.8 622.89 396.89 626.31 394.94 628.6 392.05 629.1 388.94 631.25 386.02 635.25 389.66 637.29 395.31 637.39 401.37 638.45 404.57 636.31 409.8 639.22 419.61 642.6 421.76 639.36 428.43 643.15 436.32 641.95 439.16 638.89 450.2 636.74 462.53 639.45 466.1 643.75 465.93 648.65 470.01 650.74 470.68 651.24 474.15 654.22 477.38 653.99 482.75 655.81 487.37 655.51 495.61 659.77 499.44 666.8 500.07 671.38 503.58 670.17 506.22 665.63 506.35 661.8 512.63 657.87 516.59 655.25 523.04 652.8 524.64 642.53 523.17 635.62 524.36 629.52 527.81 623.93 530.28 616.39 531.31 615.87 527.58 611.39 524.68 606.02 528.3 602.63 527.92 595.36 525.73 591.96 528.89 585.8 529.09 581.18 530.71 578.36 529.67 574.23 524.91 573.2 522.72 576.25 513.53 576.83 505.13 578.57 504.53 577.87 500.57 579.38 493.35 579.53 489.01 578.11 486.23 576.01 475.93 574.11 471.69 569.09 466.45 567.76 464.05 561.73 457.14 553.46 452.5 548.86 452.21 550.64 448.88 559.8 441 559.95 437.52 563.36 435.64 562.32 434.1 562.38 430.13 563.41 426.26 561.88 421.1 556.88 415.94 556.6 409.35 552.28 406.53 549.56 401.44 548.13 397.22 545.75 394.77 545.31 390.81 546.88 387.42 550.81 382.88 552.06 378.12 551.24 372.56 551.77 370.85 550.61 364.79 552.68 361.11 555.2 359.92 Z" id="NZ-MWT" data-name="Manawatu-Wanganui"/>
<path d="M 538.66 354.02 543.34 356.42 551.38 356.68 555.2 359.92 552.68 361.11 550.61 364.79 551.77 370.85 551.24 372.56 552.06 378.12 550.81 382.88 546.88 387.42 545.31 390.81 545.75 394.77 548.13 397.22 549.56 401.44 552.28 406.53 556.6 409.35 556.88 415.94 561.88 421.1 563.41 426.26 562.38 430.13 562.32 434.1 563.36 435.64 559.95 437.52 559.8 441 550.64 448.88 548.86 452.21 546.41 452.24 541.1 450.25 535.36 449.43 526.76 441.71 521.66 434.02 518.96 431.17 512.11 428.14 500.86 426.34 497.04 425.03 488.11 418.34 483.7 412.3 482.04 404.46 483.25 396.48 485.2 392.67 488.2 390.24 495 387.18 511.88 376.55 513.33 376.11 522.11 376.75 525.3 375.68 528.2 373.49 536.1 365.2 537.1 363.43 538.66 354.02 Z" id="NZ-TKI" data-name="Taranaki"/>
<path d="M 541.21 140.13 531.64 147.84 530.09 149.08 521.9 152.27 523.27 147.56 525.21 144.66 524.22 141.88 521.74 146.89 519.18 145.99 518.78 143.99 515.85 143.35 515.65 138.92 512.83 138.77 509.95 141.08 510.64 143.52 513.56 144.03 517.78 147.15 518.95 148.96 514.45 151.14 511.27 149.06 507.25 143.32 502.88 142.95 497.79 138.73 496.87 132.83 495.23 132.39 496.6 137.97 498.4 141.36 500.62 142.73 506.57 151.45 511.3 157.64 509.45 160.47 506.38 161.82 503.19 161.9 501.61 159.03 499.51 151.14 490.94 139.37 488.57 134.58 473.69 114.44 458.82 94.35 458.88 91.53 461.06 88.6 462.16 83.55 464.75 81.97 466.73 84.4 469.7 83.12 470.4 78.63 473.79 77.5 474.47 75.27 472.34 72.38 469.24 70.33 468.08 71.54 469.7 75.84 469.32 77.28 462.54 79.85 461.33 78.35 457.95 83.63 457.72 89.64 456.36 89.92 450.7 81.97 449.91 79.78 445.63 75.09 444.81 71.97 442.76 70.81 438.57 65.92 438.24 63.28 441.65 63.74 443.79 60.76 445.04 56.97 445.28 52.83 444.4 48.78 441.43 42.41 436.24 36.64 434.2 31.38 432.17 29.93 418.72 12.1 416.06 9.79 410.46 6.41 412.26 3.69 414.92 2.52 418.78 2.69 420.44 3.69 425.34 1 432.84 1.66 434.78 3.77 434.47 9.79 432.85 10.24 431.3 5.81 429.49 5.49 428.77 9.27 425.85 11.34 428.59 13.62 432.11 13.92 432.2 19.58 435.31 16.14 436.69 23.97 441.56 28.85 440.07 32.86 442.83 35.69 451.63 40.88 449.4 45.02 449.36 48.35 452.88 49.42 456.26 45.53 455.2 39.38 455.57 37.61 458.43 36.77 462 33.34 465.15 37.7 459.69 38.83 458.61 40.4 461.11 45.6 463.51 47.4 471.54 47.68 469.34 45.05 469.89 42.39 475.54 45.64 480.35 46.09 482.83 48.41 481.86 51.53 479.74 53.35 482.11 55.99 485.05 51.53 485.52 48.96 490.54 48.66 495.94 54.29 497.26 57.75 503.15 57.64 506.36 59.18 508.15 62.88 504.65 63.45 504.09 60.99 501.75 60.39 499.48 61.81 501.35 65.91 504.89 67.18 504.09 70.33 506.99 73.93 511.75 75.84 514.29 73.43 508.78 71.59 509.52 69.94 514.45 70.33 521.21 64.26 521.72 66.25 519.86 71.42 521.48 74.16 525.78 78.35 524.8 79.21 520.49 75.39 523.37 81.98 529.24 84.83 531.15 88.66 528.85 90.01 535.49 96.23 536.07 98.14 532.95 102.5 534.31 104.52 532.05 106.5 536.6 109.77 536.22 112.72 537.95 116.48 536.13 116.97 532.05 113.76 530.7 110.37 526.6 111.31 523.45 109.77 521.67 112.08 521.19 116.35 524.16 114.52 529.73 114.88 532.24 116.8 529.36 121.49 530.44 122.66 530.7 128.22 535.7 132.11 539.53 133.73 539.22 137.99 541.21 140.13 Z" id="NZ-NTL" data-name="Northland"/>
<path d="M 647.48 370.88 646.89 369.48 646.68 362.55 653.58 351.14 656.98 344.45 661.87 336.98 663.33 330.32 662.72 327.02 660.99 325.38 650.92 320.88 647.49 314.29 643.43 310.5 639.67 310.47 636.47 307.67 635.43 302.87 635.52 299.31 633.27 295.48 628.92 294.14 627.18 289.24 627.72 285.45 625.44 282.14 624.61 275.41 622.27 269.61 619.32 264.02 618.19 259.25 618.86 256 617.27 253.44 618.55 250.98 621.31 250.29 624.17 246.05 624.46 242.95 627.13 241.85 628.96 246.98 628.85 250.81 631.5 251.24 635.8 254.33 636.5 258.63 630.9 254.09 626.1 254.59 627 258.63 629.67 259.77 629.67 263.74 634.03 263.76 635.6 267.21 638.51 268.35 640.23 266.37 642.75 267.9 643.14 271.09 646 270.62 645.1 266.59 655.17 271.32 659.42 273.69 664.05 274.61 677.23 284.26 688.04 287.79 692.53 288.44 696.14 290.76 702.27 291.59 700.56 293.73 705.41 296.47 706.76 292.69 708.81 294.12 713.13 294.12 718.76 292.98 724.67 292.55 732.54 287.28 735.51 283.9 735.51 281.77 737.21 278.4 739.96 276.89 741.73 272.37 744.55 267.44 753.64 265.08 756.08 261.74 761.25 260.33 762.35 258.57 761.25 256.35 766.88 257.04 765.55 260.51 760.34 262.43 761.16 266.56 760.29 272.87 763.47 272.69 765.66 274.55 761.35 280.14 757.94 286.69 754.18 299.88 751.49 303.5 746.02 299.55 743.56 296.96 741.28 296.29 740.96 304.1 738.87 307.66 733.85 311.55 728.6 313.31 728.17 319.15 724.32 324.15 716.35 327.46 711.91 330.59 712.64 336.32 707.21 342.4 700.13 346.68 697.73 348.92 694.75 353.78 691.24 353.34 687.43 351.08 681.8 352.61 678.2 354.89 676.84 356.9 676.42 365.61 674.49 366.05 666 362.44 664.83 362.45 662.43 368.89 660.6 372.09 659.88 377.89 657.08 378.45 652.67 375.5 650.16 370.91 647.48 370.88 Z" id="NZ-BOP" data-name="Bay of Plenty"/>
<path d="M 707.21 342.4 712.64 336.32 711.91 330.59 716.35 327.46 724.32 324.15 728.17 319.15 728.6 313.31 733.85 311.55 738.87 307.66 740.96 304.1 741.28 296.29 743.56 296.96 746.02 299.55 751.49 303.5 754.18 299.88 757.94 286.69 761.35 280.14 765.66 274.55 763.47 272.69 760.29 272.87 761.16 266.56 760.34 262.43 765.55 260.51 766.88 257.04 780.09 257.7 784.3 262.61 788.83 263.17 790.92 264.61 795.61 265.45 798.09 267.81 799 270.9 794.71 276.38 792.46 282.32 790.09 283.99 787.29 291.08 784.97 294.64 785.25 297.52 786.92 301.09 786.56 303.27 783.52 306.73 785.17 310.27 782.79 316.79 785.66 321.06 783.81 323.98 782.92 328 784.75 330.98 781.52 333.73 781.21 339.87 773.77 348.19 765.88 354.79 761.6 351.98 757.98 353.72 757.61 356.34 759.4 358.59 757.67 363.56 757.61 368.01 756 375.48 752.82 373.9 750.88 371.62 741.71 368.25 732.42 360.72 726.08 350.61 723.38 348.73 707.21 342.4 Z" id="NZ-GIS" data-name="Gisborne District"/>
<path d="M 635.25 389.66 640.65 381.87 644.03 377.69 647.48 370.88 650.16 370.91 652.67 375.5 657.08 378.45 659.88 377.89 660.6 372.09 662.43 368.89 664.83 362.45 666 362.44 674.49 366.05 676.42 365.61 676.84 356.9 678.2 354.89 681.8 352.61 687.43 351.08 691.24 353.34 694.75 353.78 697.73 348.92 700.13 346.68 707.21 342.4 723.38 348.73 726.08 350.61 732.42 360.72 741.71 368.25 750.88 371.62 752.82 373.9 756 375.48 755.36 380.22 755.93 381.9 754.05 386.08 758.6 386.58 761.7 389.85 758.11 393.57 755.97 400.59 753.1 403.51 750.8 395.55 751.2 391.65 752.95 387.09 749.91 387.81 746.2 385.7 725.1 384.92 723.07 383.83 721.37 385.39 700.1 395.77 697.43 402.22 691.69 408.5 689.67 412.9 689.63 416.93 692.16 421 692.55 428.96 693.22 432.07 698.16 435.45 703.66 435.74 701.26 441.39 698.21 443.15 696.2 451.65 693.69 454.18 691.5 461.76 688.89 467.5 688.78 471.79 685.08 479.68 682.42 483.56 679.55 486.24 677.21 485.11 674.82 488.03 676.26 489.39 672.03 498.1 671.38 503.58 666.8 500.07 659.77 499.44 655.51 495.61 655.81 487.37 653.99 482.75 654.22 477.38 651.24 474.15 650.74 470.68 648.65 470.01 643.75 465.93 639.45 466.1 636.74 462.53 638.89 450.2 641.95 439.16 643.15 436.32 639.36 428.43 642.6 421.76 639.22 419.61 636.31 409.8 638.45 404.57 637.39 401.37 637.29 395.31 635.25 389.66 Z" id="NZ-HKB" data-name="Hawke&apos;s Bay"/>
</g>
</svg>