<?xml version="1.0"?>
<svg xmlns="http://www.w3.org/2000/svg" version="1.2" baseProfile="tiny" width="800" height="659" viewBox="0 0 800 659" stroke-linecap="round" stroke-linejoin="round">
<g id="MLOC-SA">
<path d="M 644.88 339.31 645.12 340.9 645.03 344.63 645.8 346.69 653.88 357.2 661.79 367.46 669.69 377.7 681.6 393.09 683.29 394.06 699.91 396.28 715.71 398.38 731.51 400.49 742.05 401.9 757.85 404 778.84 406.8 779.41 406.69 781.93 403.41 787.39 412.55 798.59 431.24 799 433.07 797.58 437.68 792.26 454.91 787.9 468.98 784.25 480.71 778.71 498.53 774.03 513.52 761.84 517.84 748.88 522.43 735.91 527.01 722.95 531.6 709.99 536.18 690.53 543.05 677.57 547.62 660.39 553.68 642.27 556.26 624.07 558.84 605.86 561.43 587.66 564.02 575.52 565.74 552.43 569.02 548.91 570.31 528.01 581.06 516.65 586.9 515.8 587.5 503.43 603.05 494.1 614.77 493.46 616 489.13 627.95 488.02 629.45 500.01 532.19 510.2 452.59 521 364.22 521.2 354.98 520.64 349.94 519.72 346.99 518.12 343.36 516.53 340.7 515.01 338.73 505.44 329.08 492.03 319.4 490.58 317.13 490.25 315.26 489.4 259.01 489.17 257.67 488.07 255.33 487.05 254.45 474.93 249.58 473.44 248.33 472.43 246.73 466.17 240.6 463.56 239.73 457.91 240.75 456.17 240.58 454.38 239.88 445.03 233.14 442.63 231.77 439.3 230.84 433.04 230.66 431.41 230.31 428.94 228.81 425.33 225.36 422.25 221.79 420.55 221.18 417.78 220.94 416.04 220.41 405.31 214.19 403.52 212.2 402.01 207.39 400.85 205.49 399.26 203.96 395.64 201.37 394.17 199.37 393.69 197.66 394.08 194.93 395.84 191.1 402.21 183.38 404.07 180.66 417.41 155.47 419.68 152.05 422.62 148.73 426.36 145.28 431.66 142.34 449.6 135.56 450.09 134.99 454.07 134.14 471 136.24 488.23 138.52 488.69 139.31 490.52 142.44 492.62 148.2 492.94 151.62 494.39 155.19 496.78 157.29 497.09 158.43 505.86 158.34 526.06 158.13 528.4 159.87 528.9 162.07 528.57 164.47 529.51 165.03 529.25 166.66 529.93 168.54 533.09 172.04 532.46 174.19 532.64 175.94 534.47 178.73 534.37 179.39 536.26 180.34 537.97 180.34 539.65 181.34 537.96 182.16 537.84 183.03 540.55 185.56 542.92 188.36 542.15 189.79 540.86 189.96 540.13 189.3 539.41 192.31 540.4 194.3 541.72 194.34 541.69 195.62 542.75 197.96 544.04 198.52 546.36 197.62 548.21 199.13 550.92 200.58 553.01 200.88 554.71 200.34 556.63 200.84 558.88 203.2 559.4 204.96 555.46 204.55 553.66 205.88 555.39 207.24 556.65 205.87 557.54 206.44 556.14 208.36 556.01 209.96 558.11 208.79 559.1 210.21 559.63 212.72 559.56 214.54 560.37 216 562.19 214.72 563.17 215.38 562.61 217.15 562.97 218.42 565.19 217.81 567.11 216.05 568.74 217.51 569.35 219.87 570.75 221 574.05 225.83 576.75 227.73 579.11 228.82 580.58 229.9 583.24 230.08 585.51 231.83 588.05 235.58 590.81 237.58 586.87 236.99 584.82 236.44 584.92 237.95 585.67 238.97 585.57 242.27 586.59 245.49 588.33 247.22 591.58 248.35 592.69 249.34 593.36 250.78 593.64 252.71 593.61 257.3 593.08 259.15 591.62 258.9 591.43 262.05 590.79 264.86 590.2 264.41 589.72 262.02 588.22 260.83 587.92 259.05 586.23 258.04 585.24 259.96 584.52 260.49 585.83 263.13 585.05 263.82 585.31 265.64 586.71 264.97 587.97 266.53 589.27 266.81 590.27 269.17 589.51 269.96 589.91 271.93 591.56 275.52 593.84 278.26 592.54 278.84 591.46 277.66 590.79 278.41 592.04 279.71 592.86 279.53 594.3 282.56 598.61 288.14 599.14 287.26 600.97 288.9 602.97 289.62 604.03 291.91 605.32 296.08 605.12 298.62 606.23 301.02 606.09 303.37 606.73 306.03 608.4 306.54 610.5 309.16 611.25 311.92 612.95 313.26 613.36 317.42 614.65 319.72 616.04 318.9 618.81 323.49 620.61 325.54 622.51 326.35 626.93 326.67 628.9 326 631.47 323.93 633.5 323.99 634.92 325.26 634.31 325.9 634.55 328.26 635.96 327.84 636.99 326 638.85 323.99 640.13 324.19 640.56 325.25 642.19 326 640.12 326.89 638.29 329.67 636.05 331.34 634.92 333.08 634.67 335.56 633.87 335.8 634.01 337.36 636.38 337.58 638.95 336.51 641.46 337.04 643.25 338.8 644.88 339.31 Z" id="SA-04" data-name="Ash Sharqiyah"/>
<path d="M 450.09 134.99 449.6 135.56 431.66 142.34 426.36 145.28 422.62 148.73 419.68 152.05 417.41 155.47 404.07 180.66 402.21 183.38 395.84 191.1 394.08 194.93 393.69 197.66 394.17 199.37 395.64 201.37 394.07 203.62 392.29 204.55 389.94 203.55 388.4 201.89 386.89 199.5 380.61 193.81 376.72 191.75 365.04 189.98 362.7 188.97 360.78 187.35 359.47 185.51 356.28 177.04 349.89 165.44 348.35 163.9 347.36 163.52 344.99 164.08 340.58 166.94 339.04 167.7 337.2 167.72 335.74 167.21 331.71 165.09 329.37 164.67 325.6 165.04 323.55 164.64 321.39 162.8 320.43 160 320.27 156.79 319.04 155.62 317.72 155.62 315.57 156.32 312.51 158.04 310.31 158.73 307.68 158.59 305.79 157.89 303.4 156.14 298.79 150.6 297.08 149.34 295.34 148.64 282.4 145.6 277.33 145.79 272.75 146.99 269.45 146.9 260.27 143.89 257.46 143.65 254.73 144 234.62 148.66 231.53 148.06 227.19 146.23 232.53 140.92 233.74 138.27 234.7 123.82 235.14 121.98 237.33 119.27 241.44 116.11 273.08 96.34 276.23 93.83 277.92 92.07 278.76 90.3 277.79 88.65 272.12 84.24 270.29 82.45 268.54 79.55 266.8 75.58 264.62 72.84 262.07 71.54 257.61 70.92 252.48 70.63 250.18 69.68 242.63 63.58 239.94 62.62 236.23 62.66 233.96 62.98 213.24 62.46 209.68 61.7 207.41 60.66 204.65 58.14 201.59 56.65 175.99 52.68 170.95 52.56 159.29 54.3 142.42 56 138.9 55.49 137.22 54.62 135.74 53.1 132.71 47.38 130.3 44.47 127.04 42.11 126.16 40.61 125.59 35.86 125.76 34.37 130.32 17.42 145.99 12.87 167.33 6.67 168.64 6.11 173.14 1.82 174.26 1.14 174.69 1 189.68 3.57 207.71 6.67 220.63 9.17 222.67 9.97 241.97 21.5 251.93 27.46 265.23 35.4 285.22 47.3 300.54 60.6 312.04 70.62 314.91 73.1 328.93 84.56 336.61 90.82 351.47 102.9 366.98 115.5 384.34 129.54 385.31 129.92 397.83 131.05 412.49 132.38 434.79 134.4 447.44 135.55 450.09 134.99 Z" id="SA-08" data-name="Al Hudud ash Shamaliyah"/>
<path d="M 15.27 123.03 35.13 126.49 45.23 128.24 55.69 130.05 57.7 129.62 73.14 116.82 81.77 102.15 83.72 100.65 101.23 97 110.76 95.02 111.58 94.29 116.99 81.08 118.36 79.55 130.12 72.88 124.09 65.79 111.14 50.51 101.35 39.89 91.42 29.09 92.87 28.65 110.19 23.45 121.8 19.97 130.32 17.42 125.76 34.37 125.59 35.86 126.16 40.61 127.04 42.11 130.3 44.47 132.71 47.38 135.74 53.1 137.22 54.62 138.9 55.49 142.42 56 159.29 54.3 170.95 52.56 175.99 52.68 201.59 56.65 204.65 58.14 207.41 60.66 209.68 61.7 213.24 62.46 233.96 62.98 236.23 62.66 239.94 62.62 242.63 63.58 250.18 69.68 252.48 70.63 257.61 70.92 262.07 71.54 264.62 72.84 266.8 75.58 268.54 79.55 270.29 82.45 272.12 84.24 277.79 88.65 278.76 90.3 277.92 92.07 276.23 93.83 273.08 96.34 241.44 116.11 237.33 119.27 235.14 121.98 234.7 123.82 233.74 138.27 232.53 140.92 227.19 146.23 223.99 145.76 209.65 151.67 195.6 159.7 188.97 161.55 174.64 168.37 172.86 169.61 168.72 174.16 167.24 172.96 165.07 172.44 162.68 172.96 158.71 174.99 155.91 175.38 154.5 174.16 153.43 171.59 151.06 171.56 148.11 170.28 144.62 171.52 143.26 171.57 135.69 170.81 133.35 170.32 129.19 168.87 127.43 167.88 124.94 165.77 123.21 163.16 122.22 159.86 121.84 153.58 122.21 146.63 121.61 144.8 120.09 144.02 119.26 144.35 116.92 146.58 113.61 148.91 112.58 150.65 111.07 154.61 109.98 156.23 108.04 156.93 101.51 156.54 98.36 155.88 92.61 153.96 90.44 153.63 87.44 153.64 78.34 155.63 74.2 157.21 72.67 157.19 70.6 156.3 60.84 143.5 59.62 142.39 57.01 140.8 49.58 138.96 47.11 138.97 44.14 139.53 39.11 139.85 31.34 141.34 28.42 142.53 27.11 143.77 25.52 144.29 20.13 143.77 17.05 143.01 11.23 143.28 10.57 142.86 11.74 139.85 12.02 138.01 11.6 136.33 12.39 134.59 13.75 128.29 14.99 127.43 14.63 125.74 15.5 125.05 15.27 123.03 Z" id="SA-12" data-name="Al Jawf"/>
<path d="M 500.01 532.19 488.02 629.45 479.01 634.76 476.66 635.39 471.67 635.17 470.66 634.84 462.21 623.04 460.8 622.22 446.12 624.26 429.76 622.57 412.32 620.77 410.59 620.2 404.43 616.59 402.28 616.15 394.97 616.1 382.62 616.02 379.42 617.1 378.35 617.17 375.76 616.63 373.44 616.54 369.78 616.92 366.15 617.65 363.78 617.09 362.09 619.19 360.38 619.38 358.93 618.63 357.46 618.99 355.81 621.04 353.97 620.45 354.07 619.22 348.69 619.44 346.36 617.92 344.44 615.75 344.44 614.51 345.49 610.52 345.39 608.41 344.63 605.97 344.55 603.93 344.9 602.34 345.87 593.51 345.77 591.84 344.43 586.7 344.8 584.58 346.54 581.85 352.67 575.35 356.93 571.73 359.03 568.96 360.45 565.84 361.26 564.95 363.03 563.97 365.65 563.42 369.07 561.96 370.73 560.85 372.5 558.6 373.12 556.52 373.26 553.62 373.09 551.84 371.76 546.75 371.99 544.73 373.81 542.51 376.32 541.18 377.27 540.2 377.72 537.99 377.71 532.94 388.25 539.56 392.98 541.66 396.56 542.53 406.34 543.21 495.08 533.6 500.01 532.19 Z" id="SA-10" data-name="Najran"/>
<path d="M 377.71 532.94 377.72 537.99 377.27 540.2 376.32 541.18 373.81 542.51 371.99 544.73 371.76 546.75 373.09 551.84 373.26 553.62 373.12 556.52 372.5 558.6 370.73 560.85 369.07 561.96 365.65 563.42 363.03 563.97 361.26 564.95 360.45 565.84 359.03 568.96 356.93 571.73 352.67 575.35 346.54 581.85 344.8 584.58 344.43 586.7 345.77 591.84 345.87 593.51 344.9 602.34 344.55 603.93 344.63 605.97 345.39 608.41 345.49 610.52 344.44 614.51 344.44 615.75 342.11 613.99 339.32 612.78 336.73 612.4 335.06 612.84 333.21 614.01 330.07 609.24 328.64 607.75 325.73 606.72 324.46 605.42 323.25 602.89 321.76 601.1 318.83 598.72 317.98 596.72 318.1 595.08 317.41 593.72 315.62 593.5 312.29 595.69 310.26 598.73 308.53 605.29 307.67 606.65 306.2 606.93 304.42 605.97 300.88 602.32 299.01 598.75 298.29 597.99 296.3 597.21 290.34 597.13 288.68 596.47 287.88 595.49 287.03 593.23 285.18 591.59 283.48 591.3 280.94 591.63 279.59 590.86 279.23 587.94 280.03 583.16 279.44 581 277.95 580.58 273.68 580.92 275.03 575.86 274.9 572.49 272.3 564.59 271.24 563.16 269.72 562.46 266.46 562.01 262.32 562.08 260.83 561.46 259.75 560.01 259.02 556.69 259.28 547.36 259.72 546.23 261.73 547.43 263.19 547.1 266.77 544.67 269.27 544.21 273.48 544.67 275.99 543.69 276.88 542.21 278.17 538.13 277.93 536.16 276.33 533.45 276.07 530.63 277.23 525.39 277.01 522.91 276 521.43 274.97 520.85 272.65 520.82 270.95 521.51 274.78 513.19 275.34 511.19 275.54 508.31 276.44 506.14 277.24 505.37 281.74 502.21 283.4 500.22 283.53 498.28 282.12 496.58 281.78 494.31 283.58 488.1 284.27 489.26 288.15 497.25 288.78 498.05 291.13 499.42 293.47 498.94 296.81 496.87 306.4 488.14 313.91 484.04 316.42 481.69 318.42 480.59 322.15 480.27 325.79 478.93 328.64 478.38 330.71 478.65 333.15 479.49 335.56 478.96 341.52 475.43 345.54 473.87 351.07 478.85 353.16 481.29 354.36 483.24 356.61 486.26 359.75 489.73 360.48 491.57 360.51 493.25 359.9 494.79 357.68 498.31 356.95 499.85 355.47 506.76 355.74 509.02 358.51 512.58 362.16 518.69 377.05 532.47 377.71 532.94 Z" id="SA-14" data-name="`Asir"/>
<path d="M 333.21 614.01 331.73 614.94 328.43 617.79 326.5 620.22 328.67 620.94 329.8 622.36 329.67 623.15 326.95 624.2 326.17 624.83 325.75 627.33 324.74 629.72 325.4 631.89 325.23 633.51 324.37 636.03 325.77 639.69 327.62 640.44 328.15 642.1 326.63 643.53 327.28 645.6 326.42 646.53 323.95 645.88 323.47 646.09 323.08 648.21 321.62 651.47 319.15 653.07 317.12 653.55 316.72 655.48 315.42 656.79 312.27 658 311.96 656.06 312.23 654.02 310.39 651.94 309.83 650.29 310.3 646.15 309.41 645.25 309.12 643.4 306.45 640.45 304.98 639.59 304.18 639.77 302.89 637.96 303.42 636.22 302.98 632.96 301.79 631.67 299.78 631.61 298.94 630.56 297.58 626.66 295.98 626.59 296.92 628.34 296.15 628.83 296.53 631.42 295.9 631.33 295.88 628.61 295.21 626.26 294.55 620.88 294.14 619.22 294.31 616.4 293.79 615.15 292.73 614.9 292.24 613.9 288.16 610.38 287.44 610.14 285.91 607.27 284.38 607.22 284.03 606.39 282.39 604.67 281.58 604.94 280.05 602.91 277.42 600.57 276.6 600.91 273.97 599.01 271.73 597.04 270.14 595 270 593.06 266.97 589.61 267.11 588.61 268.78 585.59 271.84 583.8 272.99 582.48 273.68 580.92 277.95 580.58 279.44 581 280.03 583.16 279.23 587.94 279.59 590.86 280.94 591.63 283.48 591.3 285.18 591.59 287.03 593.23 287.88 595.49 288.68 596.47 290.34 597.13 296.3 597.21 298.29 597.99 299.01 598.75 300.88 602.32 304.42 605.97 306.2 606.93 307.67 606.65 308.53 605.29 310.26 598.73 312.29 595.69 315.62 593.5 317.41 593.72 318.1 595.08 317.98 596.72 318.83 598.72 321.76 601.1 323.25 602.89 324.46 605.42 325.73 606.72 328.64 607.75 330.07 609.24 333.21 614.01 Z M 289.43 644.79 289.06 646.92 289.5 648.75 288.27 649.55 287.21 648.27 285.54 647.9 286.82 646.59 285.62 645.26 282.77 645.69 281.44 646.44 279.22 644.8 278.35 644.59 276.43 643.16 275.73 641.12 273.96 640.55 274.38 638.06 275.85 638.73 277.07 640.21 277.19 641.64 278.77 643.12 280.15 642.98 280.6 643.7 282.79 643.46 283.93 640.96 284.72 640.49 286.31 641.35 286.86 642.83 287.96 644.16 289.43 644.79 Z M 279.29 641.4 278.74 640.94 276.11 637.42 278.12 636.79 278.99 635.67 280.29 635.42 280.25 638.95 280.02 640.2 282.19 641.17 281.32 641.92 279.29 641.4 Z" fill-rule="evenodd" id="SA-09" data-name="Jizan"/>
<path d="M 11.23 143.28 17.05 143.01 20.13 143.77 25.52 144.29 27.11 143.77 28.42 142.53 31.34 141.34 39.11 139.85 44.14 139.53 47.11 138.97 49.58 138.96 57.01 140.8 59.62 142.39 60.84 143.5 70.6 156.3 72.67 157.19 74.2 157.21 78.34 155.63 87.44 153.64 90.44 153.63 92.61 153.96 98.36 155.88 101.51 156.54 108.04 156.93 109.98 156.23 111.07 154.61 112.58 150.65 113.61 148.91 116.92 146.58 119.26 144.35 120.09 144.02 121.61 144.8 122.21 146.63 121.84 153.58 122.22 159.86 123.21 163.16 124.94 165.77 127.43 167.88 129.19 168.87 133.35 170.32 135.69 170.81 143.26 171.57 144.62 171.52 148.11 170.28 151.06 171.56 153.43 171.59 154.5 174.16 155.91 175.38 158.71 174.99 162.68 172.96 165.07 172.44 167.24 172.96 168.72 174.16 169.38 175.08 170.92 175.82 183.12 178.73 186.6 180.32 188.42 182.3 191.87 184.23 196.31 187.91 198.55 190.13 199.45 191.96 203.56 208.69 204.57 210.34 206.6 211.9 211.19 214.35 212.87 216.1 212.57 218.73 211.25 220.4 206.6 224.47 204.9 226.77 203.75 229.09 201.57 235.94 199.64 238.62 198.35 236.73 195.98 235.54 180.23 237.98 176.45 238 173.11 237.26 168.54 233.75 163.74 232 161.53 230.51 160.48 227.95 158.89 227.14 158.39 228.37 158.49 230.7 157.53 231.13 155.74 230.75 152.94 229.41 150.75 228.97 149.42 229.38 146.01 232.1 143.84 233.03 142.72 232.16 142.83 229.6 141.92 228.09 139.59 226.61 138.69 225.2 138.59 223.3 137.61 222.19 136 221.79 132.17 221.63 130.53 221.32 128.58 220.01 126.47 216.77 124.99 213.55 123.92 209.65 122.05 207.48 120.69 207.32 113.6 211.17 111.02 211.56 108.32 210.81 105.12 208.78 102.25 207.82 100.37 208.12 90.64 212.73 86.29 213.82 84.82 214.86 84.74 216.3 86.2 216.8 89.83 216.37 91.19 217.09 92.39 218.96 92.96 221.57 92.97 225.01 92.17 230.78 92.4 233.57 93.03 235.39 94.99 237.89 96.73 238.84 101.08 240.13 102.57 241.34 103 243.37 102.52 244.93 100.2 248.76 99.27 252.22 99.6 253.97 101.81 258.42 103.27 263.09 105.24 261.81 106.88 261.64 113.65 265.54 114.6 266.41 115.18 268.71 116.62 271.24 121.55 275.39 123.38 278.19 124.53 281.36 125.86 286.49 127.16 287.71 130.35 287.99 131.35 288.79 131.72 290.37 130.38 299.89 130.85 313.64 130.33 315.02 128.7 316.8 126.82 317.4 123.29 317.02 120.79 317.62 118.97 319.77 117.12 321.28 113.93 322.06 110.82 322.06 109.29 322.63 108 324.82 107.45 327.52 101.61 319.27 101.68 316.98 100.39 317.11 99.23 316.03 98.58 314.54 101.24 314.73 102.67 313.7 102.73 311.59 103.56 309.82 102.48 306.13 102.72 303.66 102.45 301.82 101.68 300.23 99.77 298.32 96.94 294.85 96.32 292.56 95.22 290.76 95.33 289.33 93.64 287.61 92.74 285.29 90.54 281.26 88.47 280.13 86.03 276.56 85.52 277.87 84.6 277.98 82.53 276.73 81.39 274.97 81.35 273.83 80.2 272.45 80.51 270.52 81.81 268.74 81.95 267.59 81.44 265.43 79.34 263.83 75.4 262.9 74.49 261.69 72.09 255.96 69.57 252.26 66.77 245.34 63.77 239.95 61.97 237.63 58.77 234.5 58.17 232.67 57.03 230.66 56.28 228.02 55.6 228.21 54.19 226.28 51.73 224.08 48.69 220.12 47.44 217.26 47.98 215.93 46.89 214.04 43.7 210.24 41.91 209 39.53 205.8 38.38 204.66 36.52 200.88 36.36 198.47 35.82 197.11 33.88 194.64 32.91 192.02 32.13 190.92 30.49 189.88 29.41 186.67 26.85 183.4 24.06 181.25 25.38 179.76 25.38 179.04 22.38 178 21.37 177.98 19.15 176.24 17.11 176.47 13.43 177.84 11.89 177.71 10.57 176.53 8.81 177.26 6.86 176.56 6.17 175.36 3.82 177.38 4.62 178 3.36 179.94 2.53 179.46 2.27 177.25 1 176.53 3.04 174.48 4.22 174.05 3.91 172.75 4.49 171.73 4.86 169.47 5.62 168.73 6.97 165.75 7.38 163.73 8.12 162.61 8.66 160.6 9.75 158.71 9.36 154.73 8.79 152.79 9.49 150.14 10.98 146.22 11.23 143.28 Z M 93.97 290.76 92.13 290.45 91.49 288.32 93.77 289.37 93.97 290.76 Z M 90.76 290.81 90.8 291.35 89.15 293.22 88.36 292.69 85.32 289.6 85.95 288.82 88.3 290.03 90.76 290.81 Z M 89.19 285.32 89.09 283.38 90.21 283.48 89.19 285.32 Z M 80.95 284.36 80.36 285.3 76.58 283.26 75.13 283.45 73.92 282.19 74 280.57 76.67 282.17 78.15 283.55 80.95 284.36 Z M 75.69 277.68 75.62 274.71 77.72 276.54 77.15 279.05 75.69 277.68 Z" fill-rule="evenodd" id="SA-07" data-name="Tabuk"/>
<path d="M 107.45 327.52 108 324.82 109.29 322.63 110.82 322.06 113.93 322.06 117.12 321.28 118.97 319.77 120.79 317.62 123.29 317.02 126.82 317.4 128.7 316.8 130.33 315.02 130.85 313.64 130.38 299.89 131.72 290.37 131.35 288.79 130.35 287.99 127.16 287.71 125.86 286.49 124.53 281.36 123.38 278.19 121.55 275.39 116.62 271.24 115.18 268.71 114.6 266.41 113.65 265.54 106.88 261.64 105.24 261.81 103.27 263.09 101.81 258.42 99.6 253.97 99.27 252.22 100.2 248.76 102.52 244.93 103 243.37 102.57 241.34 101.08 240.13 96.73 238.84 94.99 237.89 93.03 235.39 92.4 233.57 92.17 230.78 92.97 225.01 92.96 221.57 92.39 218.96 91.19 217.09 89.83 216.37 86.2 216.8 84.74 216.3 84.82 214.86 86.29 213.82 90.64 212.73 100.37 208.12 102.25 207.82 105.12 208.78 108.32 210.81 111.02 211.56 113.6 211.17 120.69 207.32 122.05 207.48 123.92 209.65 124.99 213.55 126.47 216.77 128.58 220.01 130.53 221.32 132.17 221.63 136 221.79 137.61 222.19 138.59 223.3 138.69 225.2 139.59 226.61 141.92 228.09 142.83 229.6 142.72 232.16 143.84 233.03 146.01 232.1 149.42 229.38 150.75 228.97 152.94 229.41 155.74 230.75 157.53 231.13 158.49 230.7 158.39 228.37 158.89 227.14 160.48 227.95 161.53 230.51 163.74 232 168.54 233.75 173.11 237.26 176.45 238 180.23 237.98 195.98 235.54 198.35 236.73 199.64 238.62 200.32 240.43 200.55 243.26 200.05 245.3 198.22 249.12 198.67 251.03 201.06 252.09 203.77 251.75 204.6 252.44 205.07 254.2 202.97 268.36 203.09 270.66 204.29 275.29 204.95 279.5 204.61 290.66 205.24 292.81 206.36 294.21 209.15 295.27 210.91 295.09 220.32 291.77 222.22 291.43 226.73 291.55 230.4 290.8 232.59 289.14 235.37 285.68 237.25 284.27 239.61 283.55 246.16 283.27 256.74 284.94 260.01 285.86 265.92 287.38 267.6 287.98 268.91 289.31 269.35 291.32 268.63 302.17 269.11 304.05 269.87 305.2 271.55 306.37 276.45 307.69 277.57 308.37 278.86 311.15 280.85 319 281.58 320.71 282.7 322.06 286.01 324.53 286.02 325.98 284.97 329.17 283.21 331.47 282.42 333.11 282.97 335.41 282.87 337.98 282.2 341.12 281.73 348.2 281.85 352.04 276.89 351.29 274.5 351.43 272.38 353.12 272.27 354.83 273.26 357.54 273.45 361.1 272.66 363.22 271.67 364.76 269.82 366.39 263.08 369.35 258.17 372.13 255.32 374.63 255.16 376.5 256.65 377.84 260.78 380.07 261.64 381.66 261.25 382.81 259.65 384.09 255.25 385.73 253.07 387.35 247.79 392.67 236.99 401.21 235.48 402.94 232.77 407.16 231.79 408.22 229.97 408.69 224.16 406.88 222.09 406.98 220.53 407.97 216.67 411.24 214.74 412.03 213.02 412.12 210.58 411.76 209.65 411.23 209.03 409.76 209.74 405.5 209.52 403.74 208.56 402.12 206 400.35 202.75 399.23 202.25 398.58 202.32 396.92 204.41 392 204.87 389.28 204.43 386.5 203.29 385.2 201.66 384.91 198.12 385.35 190.04 387.89 187.16 388.42 185.88 387.35 185.75 385.67 185.16 384.18 183.32 383.75 179.28 384.48 176.55 384.37 174.78 383.03 171.82 379.51 168.27 376.3 166.67 373.73 164.94 372.72 161.11 373.44 155.22 373.94 154.66 370.29 153.74 369.16 153.57 367.8 151.29 368.83 151.26 366.82 149.58 364.64 147.98 358.88 145.97 357.64 144.67 355.3 142.55 354.35 140.64 352.22 139.25 351.9 137.86 350.93 133.83 347.02 132.57 347.14 127.73 343.73 125.74 343.72 122.03 340.75 121.69 339.91 118.56 337.85 116.67 338.26 116.76 339.64 115.14 339.7 113.62 338.55 112.75 338.83 110.55 335.84 109.22 334.69 108.78 333.29 110.19 333.04 110.25 331.61 107.45 327.52 Z" id="SA-03" data-name="Al Madinah"/>
<path d="M 270.95 521.51 272.65 520.82 274.97 520.85 276 521.43 277.01 522.91 277.23 525.39 276.07 530.63 276.33 533.45 277.93 536.16 278.17 538.13 276.88 542.21 275.99 543.69 273.48 544.67 269.27 544.21 266.77 544.67 263.19 547.1 261.73 547.43 259.72 546.23 259.28 547.36 259.02 556.69 259.75 560.01 260.83 561.46 262.32 562.08 266.46 562.01 269.72 562.46 271.24 563.16 272.3 564.59 274.9 572.49 275.03 575.86 273.68 580.92 272.99 582.48 271.84 583.8 268.78 585.59 267.11 588.61 265.74 585.87 263.6 583.75 263.44 582.32 262.37 582.31 262.37 581 261.56 579.24 261.14 577.07 261.08 574.93 260.07 573.27 258.7 572.32 257.96 570.74 256.92 570 256.14 570.56 254.61 569.45 253.6 567.19 252.45 565.59 252.52 564.27 253.92 560.14 252.52 559.03 250.97 558.64 249.68 555.2 251.17 550.8 250.84 550.21 247.08 548.48 246.16 546.53 246.28 544.39 245.85 542.9 244.83 541.32 242.81 539.74 242.15 536.24 242.94 535.22 242.39 533.22 238.25 531.58 236.33 529.58 236.93 527.73 236.56 524.85 234.82 522.31 234.08 521.82 230.42 521.7 227.98 517.93 226.81 517.2 227.08 515.59 226.4 514.44 223.48 512.94 221.51 510.74 219.24 510.13 216.75 508.28 215.39 506.74 215.01 505.71 212.84 505.25 210.98 503.18 209.16 501.78 207.37 501.96 206.3 502.58 203.77 501.26 203.69 502.7 199.98 500.42 197.51 499.18 196.93 497.96 193.21 494.71 190.96 491.05 190.21 490.42 190.18 489.18 189.06 487.89 188.66 486.25 187.39 484.81 187.89 483.18 185.25 482.77 185.01 481.52 186.05 481.25 185.72 479.91 184.24 479.87 182.34 478.48 181.56 477.47 182.3 476.34 181.14 475.67 179.96 475.83 178.66 473.6 178.53 471.94 177.73 470.36 175.32 468.49 174.65 466.11 175.16 465.14 173.48 462.34 171.78 460.12 174.78 457.48 175.2 456.5 174.74 452.28 173.26 451.91 172.55 450.62 172.08 448.28 172.06 445.9 171.72 444.19 170.44 442.06 169.97 440.33 167.91 437.84 166.81 435.4 166.11 431.96 167.17 430.8 168.2 432.12 168.93 432.13 169.19 429.99 169.86 429.47 170.4 426.87 169.97 425.35 170.25 422.57 171.49 421.13 171.88 419.39 174.13 416.24 172.82 415.49 172.31 417.07 171.34 416.08 171.83 414.37 171.53 412.13 171.81 409.84 171.52 408.71 170.18 406.72 168.18 402.56 169.21 400.81 167.39 398.78 167.12 400.47 165.03 397.67 163.07 394.12 164.19 394.17 165.42 396.9 166.5 397.37 167.38 396.55 166.34 394.84 165.13 393.76 164.7 392.66 162.44 391.78 161.68 391.94 160.35 389.53 161.38 387.39 161.08 385.07 160.29 385.49 157.79 381.52 156.6 378.71 156.32 376.89 155.22 373.94 161.11 373.44 164.94 372.72 166.67 373.73 168.27 376.3 171.82 379.51 174.78 383.03 176.55 384.37 179.28 384.48 183.32 383.75 185.16 384.18 185.75 385.67 185.88 387.35 187.16 388.42 190.04 387.89 198.12 385.35 201.66 384.91 203.29 385.2 204.43 386.5 204.87 389.28 204.41 392 202.32 396.92 202.25 398.58 202.75 399.23 206 400.35 208.56 402.12 209.52 403.74 209.74 405.5 209.03 409.76 209.65 411.23 210.58 411.76 213.02 412.12 214.74 412.03 216.67 411.24 220.53 407.97 222.09 406.98 224.16 406.88 229.97 408.69 231.79 408.22 232.77 407.16 235.48 402.94 236.99 401.21 247.79 392.67 253.07 387.35 255.25 385.73 259.65 384.09 261.25 382.81 261.64 381.66 260.78 380.07 256.65 377.84 255.16 376.5 255.32 374.63 258.17 372.13 263.08 369.35 269.82 366.39 271.67 364.76 272.66 363.22 273.45 361.1 273.26 357.54 272.27 354.83 272.38 353.12 274.5 351.43 276.89 351.29 281.85 352.04 281.46 355.96 281.58 358.55 282.72 360.35 285.7 362.64 286.42 363.9 288.42 370.44 289.75 373.63 290.86 379.51 295.74 391.2 296.66 392.39 298.2 393.51 301.22 394.39 307.09 394.28 315.35 394.97 317.06 395.32 319.95 397 320.65 398.72 319.93 401.26 319.71 405.44 320 407.49 320.83 408.99 322.48 410.28 324.12 410.84 325.88 410.85 330.35 409.61 332.03 409.54 336.53 410.4 338.07 411.04 338.67 411.85 337.62 417.85 337.61 419.55 339.51 433.21 339.12 435.74 337.16 438.85 336.3 441.24 336.77 448.05 336.51 449.79 334.99 455.73 334.98 457.39 335.64 459.06 345.54 473.87 341.52 475.43 335.56 478.96 333.15 479.49 330.71 478.65 328.64 478.38 325.79 478.93 322.15 480.27 318.42 480.59 316.42 481.69 313.91 484.04 306.4 488.14 296.81 496.87 293.47 498.94 291.13 499.42 288.78 498.05 288.15 497.25 284.27 489.26 283.58 488.1 281.45 486.25 278.95 486.06 275.43 488.05 273.78 488.66 269.72 488.69 267.47 489.13 264.48 490.23 263.2 490.04 261.69 488.05 260.52 484.72 259.08 483.2 257.02 482.52 255.29 482.96 253.94 484.21 253.16 485.97 253.15 487.61 254.14 491.7 253.95 494.39 251.26 499.19 250.21 501.84 248.83 503.45 247.06 504.12 243.37 504.7 241.24 505.53 237.5 509.18 236.98 509.94 237.12 511.45 238.47 512.49 241.31 513.32 242.26 514.38 242.89 516.91 242.47 521.03 243.31 525.32 243.09 528.65 243.31 530.25 244.74 531.98 247.66 533.54 248.56 534.39 250.94 537.59 252.66 538.67 255.41 538.76 257.69 537.52 258.45 536.02 259.34 531.7 261.78 525.26 263.63 522.65 265.05 522.19 268.6 522.2 270.95 521.51 Z" id="SA-02" data-name="Makkah"/>
<path d="M 395.64 201.37 399.26 203.96 400.85 205.49 402.01 207.39 403.52 212.2 405.31 214.19 416.04 220.41 417.78 220.94 420.55 221.18 422.25 221.79 425.33 225.36 428.94 228.81 431.41 230.31 433.04 230.66 439.3 230.84 442.63 231.77 445.03 233.14 454.38 239.88 456.17 240.58 457.91 240.75 463.56 239.73 466.17 240.6 472.43 246.73 473.44 248.33 474.93 249.58 487.05 254.45 488.07 255.33 489.17 257.67 489.4 259.01 490.25 315.26 490.58 317.13 492.03 319.4 505.44 329.08 515.01 338.73 516.53 340.7 518.12 343.36 519.72 346.99 520.64 349.94 521.2 354.98 521 364.22 510.2 452.59 500.01 532.19 495.08 533.6 406.34 543.21 396.56 542.53 392.98 541.66 388.25 539.56 377.71 532.94 377.05 532.47 362.16 518.69 358.51 512.58 355.74 509.02 355.47 506.76 356.95 499.85 357.68 498.31 359.9 494.79 360.51 493.25 360.48 491.57 359.75 489.73 356.61 486.26 354.36 483.24 353.16 481.29 351.07 478.85 345.54 473.87 335.64 459.06 334.98 457.39 334.99 455.73 336.51 449.79 336.77 448.05 336.3 441.24 337.16 438.85 339.12 435.74 339.51 433.21 337.61 419.55 337.62 417.85 338.67 411.85 338.07 411.04 336.53 410.4 332.03 409.54 330.35 409.61 325.88 410.85 324.12 410.84 322.48 410.28 320.83 408.99 320 407.49 319.71 405.44 319.93 401.26 320.65 398.72 319.95 397 317.06 395.32 315.35 394.97 307.09 394.28 301.22 394.39 298.2 393.51 296.66 392.39 295.74 391.2 290.86 379.51 289.75 373.63 288.42 370.44 286.42 363.9 285.7 362.64 282.72 360.35 281.58 358.55 281.46 355.96 281.85 352.04 281.73 348.2 282.2 341.12 282.87 337.98 282.97 335.41 282.42 333.11 283.21 331.47 284.97 329.17 286.02 325.98 286.01 324.53 286.73 322.94 289.25 319.13 290.79 317.81 293.37 317.41 297.39 319.48 301.76 320.77 308.6 321.5 310.49 321.45 315.87 320.64 317.67 320.75 320.63 321.58 322.15 321.39 323.95 320.17 325.33 317.57 325.09 315.48 323.57 312.07 324.28 309.92 327.94 305.03 331.52 301.39 333.35 300.32 346 297.29 348.47 295.9 350.5 293.97 353.19 292.22 354.73 290.24 356.13 287.4 357.75 285.38 359.62 284.2 363.07 283.75 371.13 284.82 380.15 284.17 383.61 284.49 385.11 284.09 385.99 281.79 386.02 279.11 385.67 276.6 384.75 273.89 383.44 270.99 384.02 267.83 383.74 266.33 380.86 262.45 377.49 256.81 373.6 252.67 372.55 250.98 372.37 249.23 373.17 243.74 372.97 238.98 374.52 237.52 376.9 236.93 378 236.1 380.77 232.04 383.88 228.89 385.77 227.72 389.23 226 390.14 224.09 390.07 222.58 389.02 219.87 387.62 218.2 384.36 215.69 381.91 214.6 381.29 212.55 381.27 210.77 381.79 208.6 383.43 205.54 386.19 202.72 388.4 201.89 389.94 203.55 392.29 204.55 394.07 203.62 395.64 201.37 Z" id="SA-01" data-name="Ar Riyad"/>
<path d="M 286.01 324.53 282.7 322.06 281.58 320.71 280.85 319 278.86 311.15 277.57 308.37 276.45 307.69 271.55 306.37 269.87 305.2 269.11 304.05 268.63 302.17 269.35 291.32 268.91 289.31 267.6 287.98 265.92 287.38 260.01 285.86 261.48 284.51 263 284 266.59 283.38 272.65 280.06 275.27 279.11 278.92 278.74 280.46 277.9 280.34 276.04 278.58 272.74 278.22 270.9 278.92 268.97 280.79 267.52 282.24 267.6 285.22 268.77 287 269.02 288.19 268.14 288.26 266.37 287.58 262.93 287.75 260.37 289.21 256.84 290.5 255.78 293.16 255.79 294.96 255.36 296.21 254.19 297.12 251.79 298.19 249.94 302.64 244.82 312.61 236.72 317.16 233.77 325.82 230.05 327.12 229.13 328.49 227.21 330.05 223.83 333.24 220.32 336.07 218.48 350.44 211.1 354.06 210.1 355.79 210.54 358.04 212.2 360.74 215.13 365.58 219.04 368.18 220.35 372.1 220.53 374.64 221.08 376.25 220.94 377.4 220.09 380.34 216.06 381.91 214.6 384.36 215.69 387.62 218.2 389.02 219.87 390.07 222.58 390.14 224.09 389.23 226 385.77 227.72 383.88 228.89 380.77 232.04 378 236.1 376.9 236.93 374.52 237.52 372.97 238.98 373.17 243.74 372.37 249.23 372.55 250.98 373.6 252.67 377.49 256.81 380.86 262.45 383.74 266.33 384.02 267.83 383.44 270.99 384.75 273.89 385.67 276.6 386.02 279.11 385.99 281.79 385.11 284.09 383.61 284.49 380.15 284.17 371.13 284.82 363.07 283.75 359.62 284.2 357.75 285.38 356.13 287.4 354.73 290.24 353.19 292.22 350.5 293.97 348.47 295.9 346 297.29 333.35 300.32 331.52 301.39 327.94 305.03 324.28 309.92 323.57 312.07 325.09 315.48 325.33 317.57 323.95 320.17 322.15 321.39 320.63 321.58 317.67 320.75 315.87 320.64 310.49 321.45 308.6 321.5 301.76 320.77 297.39 319.48 293.37 317.41 290.79 317.81 289.25 319.13 286.73 322.94 286.01 324.53 Z" id="SA-05" data-name="Al Quassim"/>
<path d="M 227.19 146.23 231.53 148.06 234.62 148.66 254.73 144 257.46 143.65 260.27 143.89 269.45 146.9 272.75 146.99 277.33 145.79 282.4 145.6 295.34 148.64 297.08 149.34 298.79 150.6 303.4 156.14 305.79 157.89 307.68 158.59 310.31 158.73 312.51 158.04 315.57 156.32 317.72 155.62 319.04 155.62 320.27 156.79 320.43 160 321.39 162.8 323.55 164.64 325.6 165.04 329.37 164.67 331.71 165.09 335.74 167.21 337.2 167.72 339.04 167.7 340.58 166.94 344.99 164.08 347.36 163.52 348.35 163.9 349.89 165.44 356.28 177.04 359.47 185.51 360.78 187.35 362.7 188.97 365.04 189.98 376.72 191.75 380.61 193.81 386.89 199.5 388.4 201.89 386.19 202.72 383.43 205.54 381.79 208.6 381.27 210.77 381.29 212.55 381.91 214.6 380.34 216.06 377.4 220.09 376.25 220.94 374.64 221.08 372.1 220.53 368.18 220.35 365.58 219.04 360.74 215.13 358.04 212.2 355.79 210.54 354.06 210.1 350.44 211.1 336.07 218.48 333.24 220.32 330.05 223.83 328.49 227.21 327.12 229.13 325.82 230.05 317.16 233.77 312.61 236.72 302.64 244.82 298.19 249.94 297.12 251.79 296.21 254.19 294.96 255.36 293.16 255.79 290.5 255.78 289.21 256.84 287.75 260.37 287.58 262.93 288.26 266.37 288.19 268.14 287 269.02 285.22 268.77 282.24 267.6 280.79 267.52 278.92 268.97 278.22 270.9 278.58 272.74 280.34 276.04 280.46 277.9 278.92 278.74 275.27 279.11 272.65 280.06 266.59 283.38 263 284 261.48 284.51 260.01 285.86 256.74 284.94 246.16 283.27 239.61 283.55 237.25 284.27 235.37 285.68 232.59 289.14 230.4 290.8 226.73 291.55 222.22 291.43 220.32 291.77 210.91 295.09 209.15 295.27 206.36 294.21 205.24 292.81 204.61 290.66 204.95 279.5 204.29 275.29 203.09 270.66 202.97 268.36 205.07 254.2 204.6 252.44 203.77 251.75 201.06 252.09 198.67 251.03 198.22 249.12 200.05 245.3 200.55 243.26 200.32 240.43 199.64 238.62 201.57 235.94 203.75 229.09 204.9 226.77 206.6 224.47 211.25 220.4 212.57 218.73 212.87 216.1 211.19 214.35 206.6 211.9 204.57 210.34 203.56 208.69 199.45 191.96 198.55 190.13 196.31 187.91 191.87 184.23 188.42 182.3 186.6 180.32 183.12 178.73 170.92 175.82 169.38 175.08 168.72 174.16 172.86 169.61 174.64 168.37 188.97 161.55 195.6 159.7 209.65 151.67 223.99 145.76 227.19 146.23 Z" id="SA-06" data-name="Ha&apos;il"/>
<path d="M 283.58 488.1 281.78 494.31 282.12 496.58 283.53 498.28 283.4 500.22 281.74 502.21 277.24 505.37 276.44 506.14 275.54 508.31 275.34 511.19 274.78 513.19 270.95 521.51 268.6 522.2 265.05 522.19 263.63 522.65 261.78 525.26 259.34 531.7 258.45 536.02 257.69 537.52 255.41 538.76 252.66 538.67 250.94 537.59 248.56 534.39 247.66 533.54 244.74 531.98 243.31 530.25 243.09 528.65 243.31 525.32 242.47 521.03 242.89 516.91 242.26 514.38 241.31 513.32 238.47 512.49 237.12 511.45 236.98 509.94 237.5 509.18 241.24 505.53 243.37 504.7 247.06 504.12 248.83 503.45 250.21 501.84 251.26 499.19 253.95 494.39 254.14 491.7 253.15 487.61 253.16 485.97 253.94 484.21 255.29 482.96 257.02 482.52 259.08 483.2 260.52 484.72 261.69 488.05 263.2 490.04 264.48 490.23 267.47 489.13 269.72 488.69 273.78 488.66 275.43 488.05 278.95 486.06 281.45 486.25 283.58 488.1 Z" id="SA-11" data-name="Al Bahah"/>
</g>
</svg>