<?xml version="1.0"?>
<svg xmlns="http://www.w3.org/2000/svg" version="1.2" baseProfile="tiny" width="800" height="339" viewBox="0 0 800 339" stroke-linecap="round" stroke-linejoin="round">
<g id="MLOC-TR">
<path d="M 742.04 56.31 739.33 57.24 735.13 59.62 721.56 65.44 716.56 68.08 715.57 72.31 714.97 78.9 714.17 82.84 709.18 83.37 704.37 84.28 703.12 82.04 700.22 78.55 699.34 76.41 696.65 73.84 694.46 70.59 693.63 66.35 696.23 61.12 699.88 57.13 703.34 55.38 704.45 51.63 703.26 47.76 701.67 43.84 700.79 38.3 702.16 37.7 704.73 33.95 705.12 31.68 706.45 30.08 709.54 29.57 715.38 30.07 715.45 32.58 713.94 34.24 716.59 36.01 718.17 34.47 719.05 36.15 721.91 37.99 723.76 41.01 728.84 44.88 731.35 45.65 730.23 47.28 733.29 52.66 737.12 51.58 739.65 51.85 741.92 53.57 742.04 56.31 Z" id="TR-75" data-name="Ardahan"/>
<path d="M 700.79 38.3 701.67 43.84 703.26 47.76 704.45 51.63 703.34 55.38 699.88 57.13 696.23 61.12 693.63 66.35 688.71 67.12 685.84 66.81 683.01 67.07 680.28 68.97 679.74 71.11 680.02 73.48 678.96 75.71 677.3 77.4 676.49 79.58 676.42 82.05 674.52 84.91 670.93 82.94 667.68 81.97 664.43 82.9 660.88 85.23 657.04 86.67 654.21 84.18 654.77 79.49 655.84 77.52 655.53 75.73 654.03 75.19 648.87 74.38 645.62 72.53 646.21 70.33 650.2 65.7 651.99 64.37 652.99 62.08 655.26 60.63 656.39 58.04 653.49 55.87 652.58 53.98 650.95 52.65 649.83 48.56 648.63 45.53 652.19 42.61 656.58 41.19 657.99 39.61 658.57 37.19 661.44 34.74 662.01 33.69 666.45 35.57 669.28 35.09 670.26 36.73 672.03 37.07 673.69 38.62 676.27 37.17 677.57 35.29 679.82 34.17 682.81 35.31 685.47 34.48 688.59 34.49 689.88 35.5 692.93 35.47 700.24 38.33 700.79 38.3 Z" id="TR-08" data-name="Artvin"/>
<path d="M 738.79 260.97 737.69 260.12 734.66 260.62 729.18 257.65 727.17 257.57 723.89 258.7 721.05 260.12 715.93 258.72 714.15 257.25 712.1 258.09 711.27 259.85 706.04 267.5 705.39 269.21 696.88 271.12 696.77 268.9 695.97 267.92 696.71 265 694.74 263.03 691.3 261.8 690.8 259.87 689.43 260.85 687.34 263.62 684.2 266.59 682.38 267.69 677.67 268.8 676.82 265.53 674.24 263.37 669.41 261.85 668.73 259.69 670.45 257.74 677.51 254.05 678.03 250.58 676.82 246.01 674.36 239.43 680.27 242.32 688.54 242.97 691.8 239.71 697.31 239.93 705.74 242.11 714.55 243.4 721.61 244.06 724.17 241.46 724.65 238.49 727.97 236.67 731.55 237.16 735.77 238.72 739.8 238.39 739.53 243.19 738.67 246.23 739.36 249.06 740.74 252.53 740.39 257.09 738.79 260.97 Z" id="TR-73" data-name="Sirnak"/>
<path d="M 768.24 260.46 764.96 260.52 763.43 261.83 760.93 265.11 758.69 265.52 757.42 266.43 755.8 265.06 753.72 264.71 749.45 265 746.29 263.67 743.67 264.14 738.79 260.97 740.39 257.09 740.74 252.53 739.36 249.06 738.67 246.23 739.53 243.19 739.8 238.39 745.4 238.33 750.97 237.43 753.33 236.31 756.79 237.28 759.48 237.31 762.15 236.76 764.44 235.35 765.51 232.5 767.21 229.54 770.23 228.92 773.91 229.35 774.52 230.91 778.67 230.83 781.12 232.03 782.22 234.37 783.44 234.83 784.14 236.65 786.47 235.98 788.68 237.42 790.21 239.29 789.88 240.48 788.09 242.11 787.91 243.7 789.85 246.26 789.12 249.92 789.51 251.89 788.95 253.46 789.77 254.64 791.96 255.27 792.94 257.21 794.46 256.98 795.43 258.91 798.77 261.56 798.65 263.26 797.06 264.67 797.3 269.45 795.95 268.13 791.58 267.51 789.46 268.17 787.84 269.36 785.34 272.06 783.2 273.48 779.66 274.65 778.14 278.05 777.23 278.47 775.13 277.72 772.86 272.29 773.25 270.12 775.37 268.61 775.72 266.84 774.66 263.58 773.05 262.27 768.24 260.46 Z" id="TR-30" data-name="Hakkari"/>
<path d="M 781.24 116.49 784.72 118.54 787.13 120.64 789.02 123.93 792.36 127.62 793.81 128.05 797.65 133.17 799 136.57 794.8 133.42 792.31 132.26 790.61 129.89 788.94 129.75 784.51 133.4 784.46 136.43 782.15 135.51 774.72 137.22 771.51 136.84 768.39 135.85 764.25 136.4 760.39 135.76 759.86 134.18 757.23 133.56 753.5 131.79 751.33 128.14 747.16 126.1 745.84 125.81 743.02 126.95 740.37 128.81 738.27 127.69 737.66 125.64 737.89 121.78 736.95 118.7 738.53 116.89 738.53 114.8 740.72 113.76 745.92 112.98 751.41 111.03 753.32 112.09 757.14 113.18 761.7 115.7 766.71 116.56 769.72 115.07 771.01 115.81 776 114.67 778.94 115.14 781.24 116.49 Z" id="TR-76" data-name="Iğdir"/>
<path d="M 784.46 136.43 782.81 140.12 782.74 143.84 782.11 145.69 782.24 147.68 780.73 149.34 778.57 150.33 776.6 150.46 773.72 149.02 767.92 149.52 765.98 150.93 767.34 152.91 761.44 154.48 756.7 153.68 753.09 152.75 751.5 152.95 749.25 154.95 744.2 154.21 742.32 153.02 739.93 150.5 737.05 149.19 733.83 149 732.03 150.39 730.46 152.4 725.56 153.78 725.24 155.38 728.45 157 728.75 158.63 728.38 162.36 727.36 163.49 722.51 165.47 714.81 167.2 711.93 169.18 708.15 170.92 707.99 168.17 708.77 163.43 708.72 158.4 706.18 155.17 705.47 153.68 702.88 150.98 701.13 147.99 699.97 144.6 701.3 142.43 701.7 139.89 701.63 132.55 702.62 130.71 696.7 128.32 693.31 124.13 694.78 123.52 697.9 124.06 699.41 123.54 700.33 122.27 702.96 121.77 705.49 119.65 713.56 121.26 726.36 117.61 730.91 117.65 732.83 118.15 734.74 117.76 736.95 118.7 737.89 121.78 737.66 125.64 738.27 127.69 740.37 128.81 743.02 126.95 745.84 125.81 747.16 126.1 751.33 128.14 753.5 131.79 757.23 133.56 759.86 134.18 760.39 135.76 764.25 136.4 768.39 135.85 771.51 136.84 774.72 137.22 782.15 135.51 784.46 136.43 Z" id="TR-04" data-name="Agri"/>
<path d="M 739.8 238.39 735.77 238.72 731.55 237.16 727.97 236.67 724.65 238.49 722.99 234.55 724.01 231.81 724.15 228.73 724.9 224.35 724.36 216.28 721.41 215.14 718.05 214.51 714.79 214.73 712.57 213.94 711.83 211.29 711.97 207.36 710.26 202.84 711.35 199.81 715.82 197.3 718.48 195.42 720.07 192.3 723.88 186.56 726.2 184.16 729.18 181.8 730.4 177.9 728.7 175.22 723.83 172.27 722.56 169.55 722.51 165.47 727.36 163.49 728.38 162.36 728.75 158.63 728.45 157 725.24 155.38 725.56 153.78 730.46 152.4 732.03 150.39 733.83 149 737.05 149.19 739.93 150.5 742.32 153.02 744.2 154.21 749.25 154.95 751.5 152.95 753.09 152.75 756.7 153.68 761.44 154.48 767.34 152.91 768.81 158.39 768.6 160.31 773.14 163.26 773.48 164.58 772.44 167.06 772.83 169.18 771.16 171.38 772.64 173.96 773.37 176.91 774.61 178.37 776.82 179.43 777.02 181.01 775.73 185.95 776.82 189.81 777.74 191.26 777.54 194.47 777.92 197.18 777.35 200.24 777.43 204.05 780.51 204.98 783.06 204.32 784.17 205.55 784.5 207.23 780.88 211.1 781.06 213.64 780.39 216.49 779 217.52 779.28 218.98 777.69 220.14 776.6 222.73 774.59 225.97 774.76 228.06 773.91 229.35 770.23 228.92 767.21 229.54 765.51 232.5 764.44 235.35 762.15 236.76 759.48 237.31 756.79 237.28 753.33 236.31 750.97 237.43 745.4 238.33 739.8 238.39 Z" id="TR-65" data-name="Van"/>
<path d="M 58.72 1.89 61.56 3.08 63.97 3.34 65.22 1.6 68.12 1.4 70.58 3.32 72.35 6.06 74.26 8.02 77.33 9.75 78.95 11.7 82.12 9.15 85.36 8.31 86.9 8.36 89.64 9.76 90.4 6.91 92.25 6.8 94.95 7.78 96.99 7.55 99.11 8.08 100.17 11.88 97.47 12.86 97.24 16.5 99.29 19.4 100.08 21.92 102.09 24.62 101.57 25.54 103.13 28.27 104.32 28.97 106.87 32.25 104.9 34.92 90.38 36.63 81.79 38.95 79.82 41.89 78.31 44.98 75.88 46.81 73.23 47.56 70.91 46.02 69.04 43.55 66.72 42 61.87 42 55.07 42.53 48.79 43.92 47.56 41.4 49.57 37.14 50.2 33.13 51.9 30.55 52.81 25.18 52.34 19.78 51.02 14.44 49.96 7.94 54.17 6.76 55.35 4.95 56.74 4.14 58.72 1.89 Z" id="TR-39" data-name="Kirklareli"/>
<path d="M 49.96 7.94 51.02 14.44 52.34 19.78 52.81 25.18 51.9 30.55 50.2 33.13 49.57 37.14 47.56 41.4 48.79 43.92 49.28 44.91 49.61 52.65 48.96 55.93 46.93 58.59 45.64 61.9 44.9 65.79 45.18 70.28 46.76 73.73 47.82 77.32 47.57 80.97 43.28 82.07 39.3 82.42 36.11 84.31 33.57 83.19 31.7 84.01 30.59 83.44 27.65 84.17 19.93 84.12 18.24 83.59 17.28 80.91 17.46 78.87 16.87 76.62 18.44 76.78 20.64 75.05 21.63 72.56 23.88 70.62 23.87 68.86 25.01 68.52 25.89 66.6 27.31 66.26 30.01 64.16 29.04 63.21 30.63 60.49 29.53 59.94 28.48 57.31 29.19 55.88 28.42 51.83 28.86 48.14 31.5 47.87 35.43 44.99 37.55 42.72 39.68 43.97 40.99 43.36 41.57 41.24 40.71 36.23 39.89 29.05 38.65 28.98 34.4 26.21 34.89 24.69 31.89 23.79 30.77 22.74 28.93 22.61 28.22 20.89 28.97 18.33 30.69 16.82 34.98 17 36.97 16.39 38.08 13.18 37.84 10.64 39.61 8.86 41.03 8.28 44.95 8.94 47.57 7.47 49.96 7.94 Z" id="TR-22" data-name="Edirne"/>
<path d="M 704.37 84.28 709.18 83.37 714.17 82.84 714.97 78.9 715.57 72.31 716.56 68.08 721.56 65.44 735.13 59.62 739.33 57.24 742.04 56.31 741.86 57.61 742.87 60.94 745.45 61.96 748.89 64.23 750.67 66.96 751.17 70.37 753.33 74.25 753.86 76.19 754.08 80 752.84 82.33 753.15 83.58 751.39 85.66 750.88 88.11 748.42 89.23 747.17 91.65 749.71 94.59 748.45 98.18 751.85 102.53 752.45 103.92 751.73 104.62 753.75 107.8 750.88 109.46 751.41 111.03 745.92 112.98 740.72 113.76 738.53 114.8 738.53 116.89 736.95 118.7 734.74 117.76 732.83 118.15 730.91 117.65 726.36 117.61 713.56 121.26 705.49 119.65 702.19 113.82 699.72 112.88 697.78 110.22 695.19 108.88 691.62 108.28 688.26 103.92 689.55 100.97 695.62 98.92 701.03 95.35 704.43 93.52 703.42 88.05 704.37 84.28 Z" id="TR-36" data-name="Kars"/>
<path d="M 674.36 239.43 676.82 246.01 678.03 250.58 677.51 254.05 670.45 257.74 668.73 259.69 669.41 261.85 674.24 263.37 676.82 265.53 677.67 268.8 660.31 272.92 648.7 273.47 645.94 272.47 635.99 270.46 628.18 271.62 626.11 272.41 620.54 275.51 616.76 276.31 615.04 277.18 609.52 280.89 607.71 279.91 603.94 273.26 604.34 269.1 603.83 268 599.2 263.4 598.62 257.21 602.7 251.95 604.57 250.22 609.12 247.04 611.17 246.25 615.81 242.66 619.13 242.42 621.61 238.58 626.22 237.61 640.8 237.98 643.44 236.74 645.3 237.09 648.23 240.79 651.16 246.88 655.64 249.71 662.01 248.4 674.36 239.43 Z" id="TR-47" data-name="Mardin"/>
<path d="M 609.52 280.89 604.99 283.63 601.93 284.43 597.78 286.93 588.84 290.3 575.35 292.89 566.93 294.51 564.68 294.6 558.28 292.43 555.19 292.86 548.41 293.19 545.47 292.81 542.94 291.48 541.73 290.2 537.32 285.54 535.26 284.39 527.34 281.99 523.17 281.79 520.38 282.88 516.34 285.47 515.58 279.11 513.87 277.37 514.37 274.25 512.03 274.68 509.81 273.46 510.09 270.03 508.73 267.11 508.76 265.41 510.01 264.62 508.61 262.86 509.32 260.5 510.48 258.52 514.18 254.07 516.92 253.52 519.19 253.12 520.49 254.16 523.47 254.69 523.87 253.12 525.67 253.39 526.59 251.92 529.46 250.97 530.77 251.53 535.88 250.65 536.74 250.1 542.17 244.15 551.45 242.72 549.37 241.17 551.3 240.2 552.85 237.38 555.47 236.93 555.02 234.81 556.49 230.77 556.03 229.29 558.07 228.66 559.04 227.51 559.45 224.96 560.67 223.95 563.19 223.22 564.81 222.04 568.09 223.84 573.94 224.48 576.22 225.55 578.75 228.23 581.48 230.51 584.15 231.61 585.75 233.1 587.72 233.98 588.58 232.65 592.31 234.79 592.92 236.06 592.65 241.77 593.8 248.05 595.29 252.28 596.69 255.02 598.62 257.21 599.2 263.4 603.83 268 604.34 269.1 603.94 273.26 607.71 279.91 609.52 280.89 Z" id="TR-63" data-name="Sanliurfa"/>
<path d="M 495.33 293.87 492.16 295.91 490.43 295.9 483.65 294.65 480.08 295.41 477.92 295.04 475.78 296.65 474.17 295.49 474.01 291.48 472.1 289.69 469.68 288.72 467.05 288.55 459.38 285.87 461.66 283.7 465.1 282.08 467.9 280.2 468.33 276.69 469.62 275.61 471.13 276.42 472.42 279.39 475.22 279.93 478.45 282.08 481.89 285.58 483.61 287.73 484.91 286.92 491.8 290.69 495.33 293.87 Z" id="TR-79" data-name="Kilis"/>
<path d="M 516.92 253.52 514.18 254.07 510.48 258.52 509.32 260.5 508.61 262.86 510.01 264.62 508.76 265.41 508.73 267.11 510.09 270.03 509.81 273.46 512.03 274.68 514.37 274.25 513.87 277.37 515.58 279.11 516.34 285.47 507.74 289.34 500.83 290.82 498.3 291.95 495.33 293.87 491.8 290.69 484.91 286.92 483.61 287.73 481.89 285.58 478.45 282.08 475.22 279.93 472.42 279.39 471.13 276.42 469.62 275.61 468.33 276.69 467.9 280.2 465.1 282.08 461.66 283.7 459.38 285.87 457.84 284.86 456.76 283.11 453.44 281.61 450.72 278.92 451.73 277.01 453.27 275.54 456.17 271.82 458.45 267.32 461.95 262.69 466.99 260.37 468.96 257.68 470.97 258.97 472.17 263.63 475.37 264.67 479.16 260.67 481.5 259.53 486.69 258.59 492.29 256.65 497.53 256.36 499.3 255.18 499.85 252.8 499.63 249.69 504.22 248.75 508.73 248.81 513.65 250.65 516.92 253.52 Z" id="TR-27" data-name="Gaziantep"/>
<path d="M 459.38 285.87 457.03 290.05 456.67 293.23 455.61 296.64 455.45 301.19 454.2 303.19 454.14 304.82 454.92 307.64 456.3 308.73 456.38 311.95 458.93 312.94 459.78 315.31 459.57 316.91 456.62 317.47 452.67 316.97 450.67 318.41 447.96 317.61 446.91 319.35 446.7 327.57 445.92 329.33 443.45 329.02 443.1 330.85 440.09 331.21 439.17 332.71 438.92 336.34 438.36 337.87 437.66 338 435.23 336.23 431.56 335.04 431.06 332.49 428.19 332.96 430.47 329.05 430.86 327.77 429.73 324.2 425.72 317.71 425.26 316.1 423.49 314.18 423.08 312.19 424.21 310.49 426.12 309.43 426.61 308.18 428.07 307.12 428.5 305.56 431.48 303.93 433.44 301.48 439.77 297.48 440.89 294.69 440.3 292.17 440.32 288.89 439.76 287.2 437.3 283.68 434.33 281.12 432.73 280.71 431.26 281.27 429.07 283.49 428.4 282.43 428.42 280.27 431.85 276.32 434.45 276.36 436.27 276.06 439.72 276.58 441.69 276.06 443.58 276.64 446.56 279.13 450.72 278.92 453.44 281.61 456.76 283.11 457.84 284.86 459.38 285.87 Z" id="TR-31" data-name="Hatay"/>
<path d="M 104.9 34.92 106.87 32.25 108.11 33.43 114.43 37.41 123.45 41.29 136.28 47.45 141.42 48.65 141.97 48.02 144.64 49.19 142.98 52.54 141.79 53.12 143.04 55.01 141.4 59.23 139.98 60 139.34 62.11 137.61 61.83 135.89 63.07 132.67 64.33 129.47 63.3 124.47 63.95 123.22 63.42 123.56 61.68 121.85 60.17 120.97 62.78 119.77 62.61 117.61 60.39 112.28 58.53 109.41 58.29 108.27 57.5 105.69 57.74 104.63 50.42 105.2 47.08 106.45 42.53 106 38.88 104.9 34.92 Z M 150.67 69.08 146.13 66.95 143.56 64.43 141.26 63.19 140.41 60.52 142.69 57.99 143.87 54.41 142.97 53.76 145.51 50.48 147.16 49.31 149.75 48.89 157.58 50.35 165.89 52.31 176.97 53.97 176.08 54.35 176.66 57.79 175.5 60.58 170.55 62.88 168.13 64.58 167.04 67.18 165.56 67.34 164.34 66.33 163.06 63.63 161.09 61.93 158.89 61.73 155.31 64.82 152.09 67.2 150.67 69.08 Z" fill-rule="evenodd" id="TR-34" data-name="Istanbul"/>
<path d="M 48.79 43.92 55.07 42.53 61.87 42 66.72 42 69.04 43.55 70.91 46.02 73.23 47.56 75.88 46.81 78.31 44.98 79.82 41.89 81.79 38.95 90.38 36.63 104.9 34.92 106 38.88 106.45 42.53 105.2 47.08 104.63 50.42 105.69 57.74 105.3 57.5 98.95 59.96 97.85 60.9 95.96 63.8 92.6 63.4 90.71 62.06 87.48 61.51 78.57 62.8 77.28 63.57 76.38 65.42 75.34 69.84 74.43 71.51 70.51 75.38 68.72 78.54 64.99 81.31 64.13 82.44 61.53 83.48 58.7 83.56 56.78 85.86 55.2 86.37 53.88 82.27 53.91 77.92 47.82 77.32 46.76 73.73 45.18 70.28 44.9 65.79 45.64 61.9 46.93 58.59 48.96 55.93 49.61 52.65 49.28 44.91 48.79 43.92 Z" id="TR-59" data-name="Tekirdag"/>
<path d="M 47.57 80.97 47.82 77.32 53.91 77.92 53.88 82.27 55.2 86.37 53.04 86.94 49.26 89.55 46.69 89.93 43.52 92.16 42.71 94.45 41.08 95.61 40.74 97.41 37.54 100.46 36.31 100.77 33.57 103.86 29.44 106.14 30.7 108.67 28.71 110.56 24.65 113.5 22.44 114.27 23.99 109.07 25.87 106.43 26.16 102.98 24.13 100.84 24.17 98.95 25.47 97.96 28.42 97.1 29.05 96 33.08 93.02 35.53 92.1 37.38 90.51 39.86 89.15 42.96 89.13 45.58 86.22 46.56 86.71 49.08 85.28 49.59 84.12 48.32 81.4 47.57 80.97 Z M 42.85 141.39 34.08 142.99 30.13 145.15 27.43 144.75 21.41 146.34 18.13 145.51 17.95 144.34 19.65 138.85 21.21 137.32 21.86 133.09 20.9 131 21.5 126.48 20.95 125.23 21.57 122.52 21.4 120.15 23.28 116.55 25.51 117.31 28 115.97 30.13 113.57 30.44 111.42 31.43 111.13 32.04 106.47 35.91 105.42 38.53 102.3 40.36 101.19 44.83 95.71 45.7 95 51.01 95.2 52.44 94.86 53.99 95.61 57.28 95.61 60.74 92.33 65.7 92.59 68.04 91.48 69.37 92 70.42 94.45 69 94.86 70.79 96.82 75.58 99.46 78.53 100.19 80.57 99.81 80.27 102.7 78.27 103.92 75.36 106.96 74.26 107.6 75.05 109.25 77.6 110.42 76.61 114.68 75.43 117.25 76.85 119.02 76.65 121.21 75.01 125.48 73.37 126.72 68.15 129.38 65.09 128.34 62.02 127.82 60.87 128.45 57.64 128.28 55.87 129.74 52.86 130.97 51.3 132.3 49.53 132.89 45.75 132.42 44.08 132.77 42.73 137.03 42.85 141.39 Z M 17.56 125.86 18.44 127.9 17.5 128.65 14.36 126.7 14.45 125.6 17.56 125.86 Z M 15.55 107.95 15.55 109.07 13.69 109.91 10.89 110.34 9.05 111.15 5.28 111.74 1 110.16 1.96 108.27 4.99 105.76 7.82 105.22 11.42 103.88 13.86 104.98 13.91 108.68 15.55 107.95 Z" fill-rule="evenodd" id="TR-17" data-name="Çanakkale"/>
<path d="M 648.63 45.53 649.83 48.56 650.95 52.65 652.58 53.98 653.49 55.87 656.39 58.04 655.26 60.63 652.99 62.08 651.99 64.37 650.2 65.7 646.21 70.33 645.62 72.53 642.43 74.43 637.99 78.25 632.88 79.48 631.63 82.63 625.78 84.01 619.02 87.41 618.44 83.92 618.92 80.21 616.31 73.54 615.84 69.64 614.79 65.97 613.31 62.53 618 59.42 619.45 60.06 621.86 59.86 624.72 57.66 627.73 56.78 630.2 53.45 633.12 51.26 636.01 51.83 641.15 49.83 642.87 48.77 645.37 46.4 648.63 45.53 Z" id="TR-53" data-name="Rize"/>
<path d="M 613.31 62.53 614.79 65.97 615.84 69.64 616.31 73.54 618.92 80.21 618.44 83.92 619.02 87.41 616.52 88.1 612.24 88.08 608.12 89.1 606.32 89.15 602.86 88.04 599.28 87.93 597.57 86.96 595.03 84.07 592.93 84.27 593.2 85.61 591.7 86.37 589.7 83.01 586.84 81.08 585.55 82.06 585.06 84.3 583.55 85.23 581.07 84.91 571.33 80.96 568.55 78.05 567.92 74.83 566.16 73.8 564.62 75.51 562.96 74.81 562.19 72.71 561.83 67.66 561.94 64.9 563.12 58.2 566.11 58.18 568.33 59.42 571.49 58.12 574.87 55.99 577.49 56.62 581.62 60.82 584.85 62.06 587.37 61.26 590.25 62.19 592.73 64.18 594.95 64.21 598.6 63.19 602.19 66.27 604.57 66.47 611.17 63.95 613.31 62.53 Z" id="TR-61" data-name="Trabzon"/>
<path d="M 563.12 58.2 561.94 64.9 561.83 67.66 562.19 72.71 562.96 74.81 557.96 75.41 557.46 76.85 555.64 77.58 553.09 79.47 552.58 80.89 553.13 82.58 550.63 85.96 550.36 90.81 551.51 92.23 556.43 93.42 558.73 95.55 559.43 97.83 558.17 98.86 553.98 101.19 553.07 102.31 553.01 107.93 553.38 109.83 554.53 111.3 554.16 113.14 552.46 113.89 547 114.04 542.81 111.94 538.44 110.53 534.19 111.59 529.06 108.06 526.71 106.89 525.18 104.57 525.28 101.48 521.85 88.43 517.89 83.95 518.55 81.43 518.8 75.86 517.87 72.44 517.88 70.69 520.06 66.65 520.01 64.52 523.65 65.44 527.23 65.12 529.05 66.74 531.48 66.24 534.11 66.8 537.74 66.24 539.91 64.27 541.81 63.53 543.51 65.04 545.17 64.7 547.92 62.11 551.76 61.16 553.92 59.85 558.68 59.81 562.04 59.04 563.12 58.2 Z" id="TR-28" data-name="Giresun"/>
<path d="M 520.01 64.52 520.06 66.65 517.88 70.69 517.87 72.44 518.8 75.86 518.55 81.43 517.89 83.95 521.85 88.43 519.22 90.15 515.6 90.76 514.43 95.13 510.99 94.97 506.99 98.72 505.54 98.92 502.34 96.32 500.04 91.85 499.29 88.56 497.92 85.91 492.28 85.55 482.73 78.87 479.92 78.64 477.09 79.05 474.13 78.8 469.21 76.28 465.72 75.1 463.42 73.68 461.02 72.86 460.54 71.25 461.28 69.79 466.41 68.4 468.59 67.04 470.24 65.2 473.53 63.33 475.33 59.9 477.67 57.42 479.89 54.09 484.55 54.03 487.01 55.35 490.05 56.21 491.76 57.91 493.47 58.46 494.61 59.83 497.77 60.17 498.91 59.42 500.87 55.7 502.32 54.44 503.38 55.86 506.24 55.43 506.3 58.89 509.18 60.9 510.91 63.19 512.53 62.48 514.49 62.75 520.01 64.52 Z" id="TR-52" data-name="Ordu"/>
<path d="M 479.89 54.09 477.67 57.42 475.33 59.9 473.53 63.33 470.24 65.2 468.59 67.04 466.41 68.4 461.28 69.79 459.1 67.42 456.89 67.35 454.92 68.26 450.35 69.36 445.87 66.11 444.68 63.65 442.01 61.82 440.35 62.88 439.62 65.4 438.34 67.65 434.95 70.21 433.19 70.63 429.93 69.06 424.41 68.98 422.81 68.66 419.63 68.89 418.25 68.5 416.83 66.01 410.79 61.38 409.42 60.58 406.87 61.06 393.92 57.4 392.35 57 389.15 57.37 387.68 51.13 385.53 47.27 387.77 45.61 388.27 43.94 389.84 43.66 391.2 42.33 394.47 40.86 395.73 41.32 396.06 43.3 402.55 47.91 406.17 47.81 408.28 46.53 410.42 47.11 411.24 46.46 410.61 41.52 409.83 39.09 409.89 35.85 409.21 33.17 409.41 30.35 411.05 26.59 414.24 27.26 416.04 27.09 418.49 25.74 421.07 25.29 425.47 23.41 427.46 22.92 429.17 21.52 430.96 21.68 433.76 23.25 436.9 27.37 437.49 31.24 436.88 34.8 437.49 36.6 440.42 39.68 441.76 42.33 445.94 44.57 446.21 46.22 448.35 48.02 450.68 48.9 453.47 47.67 455.68 45.71 457.72 41.43 459.88 41.92 463.48 41.92 466.76 42.78 472.94 45.9 474.21 47.01 474.9 48.77 475.22 52.16 479.89 54.09 Z" id="TR-55" data-name="Samsun"/>
<path d="M 411.05 26.59 409.41 30.35 409.21 33.17 409.89 35.85 409.83 39.09 410.61 41.52 411.24 46.46 410.42 47.11 408.28 46.53 406.17 47.81 402.55 47.91 396.06 43.3 395.73 41.32 394.47 40.86 391.2 42.33 389.84 43.66 388.27 43.94 387.77 45.61 385.53 47.27 385.04 49.31 383.42 51.05 378.69 49.52 376.46 47.48 372.45 47.23 371.75 46.45 369.29 46.38 368.19 45 368.51 37.73 367.81 35.6 369.01 31.57 371.58 29.41 373.02 25.71 370.71 22.6 367.95 21.8 362.87 21.52 360.36 20.81 357.06 20.66 354.37 19.59 354.44 17.73 356.54 15.22 357.72 11.95 357.52 8.78 362.32 9.46 367.08 8.07 368.63 7.93 371.93 9.25 377.45 9.58 381.8 8.66 385.57 6.11 387.78 2.66 388.04 1 391.2 1.35 392.05 3.65 394.56 5.32 394.08 9.53 394.31 11.44 398.36 17.49 399.57 19.88 402.63 22.49 406.92 23.81 408.92 25.54 411.05 26.59 Z" id="TR-57" data-name="Sinop"/>
<path d="M 357.52 8.78 357.72 11.95 356.54 15.22 354.44 17.73 354.37 19.59 357.06 20.66 360.36 20.81 362.87 21.52 367.95 21.8 370.71 22.6 373.02 25.71 371.58 29.41 369.01 31.57 367.81 35.6 368.51 37.73 368.19 45 366 45.49 364.57 47.58 363.41 50.62 360.48 53.51 359.03 57.16 357.17 60.03 357.95 62.09 360.19 63.91 359.2 66.66 353.29 69.12 349.65 69.89 346.2 69.45 343.5 67.21 341.05 66.33 339.48 63.65 339.97 62 342.31 59.04 341.88 56.87 339.85 57.01 333.09 60.63 329.86 61.23 325.48 63.81 323.88 64.42 321.93 63.79 320.4 61.93 316.61 59.42 311.24 58.82 309.72 57.06 308.41 55.08 306.24 54.08 303.9 53.73 303.09 47.79 303.47 45.91 305.36 43.31 307.54 41.14 311.64 40.3 310.46 37.6 309.28 32.66 306.25 30.41 303.21 31.43 300.67 31.82 299.24 30.23 298.85 26.24 301.53 24.32 298.84 17.77 298.43 14.41 303.75 13.17 307.17 11.18 313.73 8.96 320.36 5.48 324.93 5.95 329.36 5.95 332.4 6.9 343.24 7.98 348.66 7.52 357.52 8.78 Z" id="TR-37" data-name="Kastamonu"/>
<path d="M 298.43 14.41 298.84 17.77 301.53 24.32 298.85 26.24 299.24 30.23 295.3 34.01 292.94 34.68 291.09 38.73 286.04 42.99 281.66 44.11 277.11 43.89 277.95 39.18 275.59 32.43 273.07 31.31 270.74 28.94 275.29 23.73 276.12 22.21 279.81 21.69 281.29 20.33 282.54 20.6 284.08 19.02 288 16.87 289.23 17.11 290.68 15.53 293.46 15.71 296.63 14.44 298.43 14.41 Z" id="TR-74" data-name="Bartın"/>
<path d="M 270.74 28.94 273.07 31.31 275.59 32.43 277.95 39.18 277.11 43.89 273.4 48.82 271.38 56.21 271.37 61.14 262.42 60.87 256.77 59.9 246.64 58.92 239.49 55.39 237.9 53.87 240.18 51.03 240.95 46.69 240.28 44.68 243.1 44.22 244 42.95 250.93 40.16 259.79 34.23 264.87 31.73 266.79 30.27 270.74 28.94 Z" id="TR-67" data-name="Zinguldak"/>
<path d="M 237.9 53.87 239.49 55.39 246.64 58.92 256.77 59.9 256.05 64.69 254.03 67.15 250.16 68.04 244.77 68.93 242.75 70.49 242.58 73.38 241.06 77.38 237.86 79.83 233.82 80.27 229.1 78.27 222.37 78.5 218.92 77.27 219.81 75.57 218.59 72.84 219.01 69.63 218.01 66.5 219.47 63.22 221.86 60.99 221.62 57.65 227.24 57.5 228.26 56.9 230.52 57.12 235.56 55.69 237.9 53.87 Z" id="TR-81" data-name="Düzce"/>
<path d="M 221.62 57.65 221.86 60.99 219.47 63.22 218.01 66.5 219.01 69.63 218.59 72.84 219.81 75.57 218.92 77.27 216.28 79.35 216.68 82.83 216.18 84.46 213.49 85.76 210.57 85.64 208.87 88.17 207.72 91.57 206.58 92.52 206.83 93.95 208.65 96.99 207.87 98.95 205.68 98.43 202.56 98.5 200.85 96.34 199.55 95.52 194.6 95.25 188.83 96.79 185.15 95.67 181.97 92.58 179.31 87.88 178.7 85.49 181.6 85.23 184.23 83.93 186.99 83.3 189.4 81.69 191.11 78.26 192.78 70.09 195.49 67.16 194.82 64.96 197.82 65.98 200.92 65.76 202.12 62.19 201.91 60.39 198.86 59.81 198.12 57.01 199.67 52.77 210.92 55.49 212.96 57.12 216.51 57.79 221.62 57.65 Z" id="TR-54" data-name="Sakarya"/>
<path d="M 150.67 69.08 152.09 67.2 155.31 64.82 158.89 61.73 161.09 61.93 163.06 63.63 164.34 66.33 165.56 67.34 167.04 67.18 168.13 64.58 170.55 62.88 175.5 60.58 176.66 57.79 176.08 54.35 176.97 53.97 187.48 54.26 191.21 52.64 193.08 50.52 195.81 51.1 197.2 52.18 199.67 52.77 198.12 57.01 198.86 59.81 201.91 60.39 202.12 62.19 200.92 65.76 197.82 65.98 194.82 64.96 195.49 67.16 192.78 70.09 191.11 78.26 189.4 81.69 186.99 83.3 184.23 83.93 181.6 85.23 178.7 85.49 172.98 83.43 170.12 84 162.4 86.85 159.98 86.99 157.63 86.26 157.99 84.15 157.95 79.24 160.98 77.15 163.43 79.23 171.49 77.39 176.24 77.15 178.61 77.83 178.82 75.55 177.2 75.25 171.93 75.84 170.84 74.9 167.86 74.14 157.96 74.55 155.84 75.63 154.97 75.31 153.99 72.42 150.67 69.08 Z" id="TR-41" data-name="Kocaeli"/>
<path d="M 157.95 79.24 157.99 84.15 157.63 86.26 155.02 85.72 152.34 88.5 149.7 89.08 143.36 86.25 142.07 86.42 139.17 85.7 139.27 91.66 136.62 91.31 132.94 89.01 130.68 88.47 131.45 86.8 135.83 84.69 139.52 81.77 151.83 80.61 156.43 78.31 157.95 79.24 Z" id="TR-77" data-name="Yalova"/>
<path d="M 178.7 85.49 179.31 87.88 177.1 89.12 175.38 90.71 173.44 96.73 173.6 98.48 174.77 101.16 174.04 102.66 170.03 106.92 168.84 112.37 168.92 115.12 171.09 118.25 172.18 119.12 172.78 121.84 170.7 122.63 168.34 122.12 165.86 122.88 163.2 122.91 158.86 121.19 156.74 122.69 155.44 127.17 154.59 128.06 153.44 132.38 151.52 133.81 150.62 136.25 150.35 139.85 148.04 141.32 145.06 141.35 140.29 140.56 138.72 139.32 136.43 137.65 132.58 137.95 130.93 137.71 129.9 136.12 128.07 135.32 127.02 133.35 127.13 130.75 126.49 129.84 124.49 131.28 121.16 130.87 110.14 122.7 109.4 121 108.66 117.22 107.87 115.85 105.62 114.26 104.07 111.78 103.11 108.68 104.62 104.72 102.84 102.69 102.53 100.82 104.9 98.68 107.08 95.23 112.91 94.98 115.1 95.34 121.14 95.67 124.99 97.1 129.33 95.94 130.59 95.06 135.26 95.95 138.28 97.21 141.51 97.14 142.83 96.53 143.85 93.71 146.41 93.33 144.74 91.58 142.83 90.71 140.55 90.71 139.27 91.66 139.17 85.7 142.07 86.42 143.36 86.25 149.7 89.08 152.34 88.5 155.02 85.72 157.63 86.26 159.98 86.99 162.4 86.85 170.12 84 172.98 83.43 178.7 85.49 Z" id="TR-16" data-name="Bursa"/>
<path d="M 42.85 141.39 42.73 137.03 44.08 132.77 45.75 132.42 49.53 132.89 51.3 132.3 52.86 130.97 55.87 129.74 57.64 128.28 60.87 128.45 62.02 127.82 65.09 128.34 68.15 129.38 73.37 126.72 75.01 125.48 76.65 121.21 76.85 119.02 75.43 117.25 76.61 114.68 77.6 110.42 75.05 109.25 74.26 107.6 75.36 106.96 78.27 103.92 80.27 102.7 80.57 99.81 82.27 98.97 85.4 99.91 86.41 99.34 89.64 99.55 90.62 98.09 92.88 96.9 92.79 95.92 90.71 95.2 88.25 93.41 85.24 89.59 88.4 87.69 90.27 88.47 97.15 89.55 99.84 91.12 99.11 92.4 94.4 95.2 94.59 96.61 96.1 97.06 99.55 96.73 103.07 95.41 107.08 95.23 104.9 98.68 102.53 100.82 102.84 102.69 104.62 104.72 103.11 108.68 104.07 111.78 105.62 114.26 107.87 115.85 108.66 117.22 109.4 121 110.14 122.7 121.16 130.87 124.49 131.28 126.49 129.84 127.13 130.75 127.02 133.35 128.07 135.32 129.9 136.12 130.93 137.71 132.58 137.95 136.43 137.65 138.72 139.32 137.62 143 136.29 145.72 135.76 149.55 133.83 152.35 132.23 155.43 130.87 156.42 126.2 158.26 125.9 162.64 122.26 162.06 118.41 164.04 115.28 164.65 111.78 164.81 109.09 167.24 105.54 168.36 103.62 167.67 101.48 162.85 97.07 157.98 93.96 159.13 92.33 158.35 94.08 154.21 93.04 152.51 91.03 152.79 88.73 151.88 84.06 152.14 81.15 151.32 77.42 148.92 74.23 150.6 73.01 148.2 71.21 146.53 68.85 146.06 61.29 150.94 58.8 152.17 56.46 155.42 47.5 161.92 45.79 160.46 45 156.93 41.26 156.63 41.41 154.2 42.98 154.61 44.58 152.94 49 149.57 48.43 147.73 51.01 146.99 51.22 145.68 53.64 144.9 54.43 142 54.12 140.1 52.28 139.58 49.75 141.07 48.71 140.32 42.85 141.39 Z M 84.13 81.31 87.06 81.89 86.49 83.43 84.13 83.94 81.93 85.51 79.06 84.12 78.66 82.09 81.95 80.76 84.13 81.31 Z M 83.62 91.92 80.98 91.61 82.04 89.42 83.42 90.04 83.62 91.92 Z" fill-rule="evenodd" id="TR-10" data-name="Balikesir"/>
<path d="M 47.5 161.92 56.46 155.42 58.8 152.17 61.29 150.94 68.85 146.06 71.21 146.53 73.01 148.2 74.23 150.6 75.85 154.73 77.22 161.19 79.45 166.01 79.13 168.84 75.28 172.43 72.65 173.49 70.36 175.08 69.62 179.11 67.59 182.19 66.24 185.25 69.01 187.94 70.11 191.61 72.57 193.73 75.5 194.02 81.03 194.05 82.3 195.28 82.99 198.23 85.9 200.28 89.14 201.79 90.32 205.05 92.08 206.67 94.19 206.18 95.86 202.74 97.84 202.83 99.84 203.73 102.38 203.39 104.06 205.27 105.2 207.95 110.89 206.77 112.79 207.95 117.07 208.95 118.24 210.43 119.97 215.88 121.85 218.7 115.27 221.08 111.94 221.84 109 223.26 100.95 223.35 91.29 225.96 81.03 225.15 78.91 225.5 73.81 228.85 70.45 230.16 67.63 230.22 68.17 228.07 66.69 224.96 64.12 225.33 61.57 224.63 59.65 223.26 59.42 222.17 54.61 220.75 51.09 222.19 50.14 220.29 50.32 218.85 49.43 216.64 47.2 214.92 46.73 212.84 41.54 213.53 41 216.97 40.34 218.59 38.25 217.85 33.47 213.09 32.22 213.39 30.67 211.88 28.74 211.87 26.1 209.12 28.14 206.47 29.88 207.52 31.02 206.47 32.44 206.47 34.88 204.86 34.55 202.7 35.79 202.71 36.42 201.35 31.87 198.44 30.7 196.26 29.57 191.31 29.89 189.16 32.3 188.21 34.44 188.57 36.11 189.64 38.21 192.16 39.38 194.53 41.31 196.75 41.85 199.5 40.5 199.46 39.55 202.11 40.54 202.24 43.1 208.04 42.99 203.89 44.32 201.5 45.74 201.88 47 205.01 48.18 205.3 50.28 204.62 53.58 204.29 57.28 202.44 60.42 202.98 62.37 201.31 63.16 199.94 59.84 200.26 57.65 199.78 54.16 201.28 52.13 196.99 49.85 195.17 50.42 192.59 49.81 192.01 46.43 191.49 46.43 188.91 45.01 185.99 49.14 184.15 52.07 185.29 54.02 183.35 52.44 180.88 54.12 180.15 57.28 177.96 59.13 175.42 58.44 174.27 56 175.36 55.15 174.27 51.68 175.55 48.66 173.73 48.35 171.14 48.65 169.24 51.85 167.21 49.37 163.05 47.5 161.92 Z" id="TR-35" data-name="Izmir"/>
<path d="M 67.63 230.22 70.45 230.16 73.81 228.85 78.91 225.5 81.03 225.15 91.29 225.96 100.95 223.35 109 223.26 111.94 221.84 115.27 221.08 121.85 218.7 127.5 218.82 128.51 221.19 130.82 222.79 131.93 229.34 130.64 231.13 130.53 232.5 132.97 236.44 135.63 236.98 135.9 239.65 134.63 240.56 133.01 240.63 131.06 243.4 128.85 245.51 125.63 245.09 122.72 245.96 121.87 247.9 122.39 249.91 123.79 251.86 118.34 251.12 115.28 249.47 112.69 247.24 109.66 246.61 107.41 248.2 105.94 251.08 104.3 252.43 99.23 252.79 96.31 252.66 94.54 251.74 90.74 252.21 88.84 251.91 85.9 249.9 82.55 249.4 79.47 247.82 76.78 248.62 73.54 255.27 72.16 255.66 70.49 258.47 66.38 258.65 64.67 258.17 66.15 255.66 66 251.9 64.75 251.8 64.24 248.34 65.45 247.35 65.41 245.59 62.4 243.79 58.76 242.78 57.2 241.96 58.32 240.68 62.02 240.76 65.61 239.45 67.12 237.82 67.58 234.04 66.61 232.49 67.63 230.22 Z" id="TR-09" data-name="Aydin"/>
<path d="M 73.54 255.27 76.78 248.62 79.47 247.82 82.55 249.4 85.9 249.9 88.84 251.91 90.74 252.21 94.54 251.74 96.31 252.66 99.23 252.79 104.3 252.43 105.94 251.08 107.41 248.2 109.66 246.61 112.69 247.24 115.28 249.47 118.34 251.12 123.79 251.86 124.28 252.76 124.14 255.35 124.56 256.85 129.06 258.04 130.29 260.2 130.83 262.64 132.23 264.66 135.34 265.11 137.1 267.64 140.17 269.04 142.67 271.49 143.23 273.45 143.85 278.02 144.89 279.05 147.17 279.22 151.36 281.48 152.78 280.74 154.08 278.27 154.37 274.88 156.36 273.28 157.32 275.95 156.63 278.97 158.23 279.61 160.24 277.08 165.27 276.42 168.81 281.34 164.28 291.66 164.84 294.87 164.08 297.74 160.15 300.95 159.99 303.79 157.78 303.73 155.18 304.79 153.15 309.29 152.89 311.94 150.98 313.57 149.87 311.98 147.38 311.18 146.12 309.24 144.11 308.53 145.27 307.12 145.27 305.28 144.11 303.93 145.27 303.23 144.88 300.15 143.61 299.75 141.61 300.53 140.95 298.23 142.42 296.95 144.96 295.91 144.11 294.3 141.52 292.44 138.27 291.06 137.55 289.83 134.4 292.88 134.95 296.1 134.2 297.62 132.53 297.08 133.53 295.72 131.96 294.82 129.52 292.61 127.66 292.23 126.12 292.88 125.47 291.54 124.09 292.18 123.56 290.75 124.01 288.05 122.41 286.27 121.17 286.07 119.99 287.52 117.74 286.31 116.59 283.92 114.55 284.32 116.11 285.78 114.91 287.84 111.28 286.45 109.79 284.58 108.27 286.6 108.78 289.02 110.44 290.28 108.96 291.05 108.14 292.53 105.17 293.91 103.05 297.47 100.98 297.88 100.41 299.3 98.03 299.78 96.71 297.56 99.84 297.56 102.14 295.4 100.82 293.71 97.58 293.75 97.21 292.88 100.15 291.46 103.28 290.75 101.91 289.7 103.56 287.71 102 287.46 100.37 289.2 99.23 289.21 94.97 290.39 92.41 290.39 91.16 289.5 87.41 289.33 85.24 291.1 84.7 294.69 81.86 293.59 79.84 293.27 76.23 294.94 74.05 294.1 72.09 292.63 73.99 292.01 74.53 290.64 76.86 289.69 82.21 289.1 82.71 287.2 83.62 286.95 85.53 288.11 88.4 288.26 90.03 286.95 93.67 286.83 95.9 287.52 99.69 287.72 100.72 286.84 98.89 284.29 100.72 283.61 99.55 280.73 100.15 280.05 104.32 280.59 106.13 280.05 107.26 277.88 108.69 276.45 112.15 275.28 111.11 274.21 105.67 275.03 103.67 274.99 102.28 275.75 97.85 275.03 96.87 275.63 93.66 275.5 89.25 277.2 86.72 276.59 84.06 277.05 83.25 277.88 81.33 276.96 76.89 277.35 75 275.42 72.7 276.45 70.42 276.13 70.33 277.6 67.69 278.78 66.26 273.64 66.69 272.53 69.35 270.62 72.84 270.07 76.53 272.03 79.84 270.07 78.72 266.79 80.68 266.35 82.27 263.55 82.4 262.5 79.78 262.59 79.37 263.8 76.23 262.38 76.99 261.43 73.26 259.96 73.26 257.74 75 256.41 73.54 255.27 Z" id="TR-48" data-name="Mugla"/>
<path d="M 150.98 313.57 152.89 311.94 153.15 309.29 155.18 304.79 157.78 303.73 159.99 303.79 160.15 300.95 164.08 297.74 164.84 294.87 164.28 291.66 168.81 281.34 171.12 280.47 173.29 277.97 174.94 274.93 175.57 270.99 177.86 267.87 185.35 263.97 187.9 263.52 194.07 260.92 196.61 261.26 199.17 264.4 200.15 264.8 205.95 264.56 209.73 264.97 214.52 264.57 217.05 261.77 217.82 259.52 220.75 256.97 224.44 258.48 228.73 256.98 230.99 256.63 232.94 255.2 235.04 254.47 237.29 254.76 240.78 258.3 242.59 259.01 246.75 259.04 257.45 261.25 260.92 263.52 263.6 266.01 266.53 268.05 268.61 270.25 270.48 272.88 275.69 277.55 278.63 279.05 278.78 280.64 277.24 283.05 277.87 284.47 279.68 285.14 282.92 285.62 283.8 286.86 284.45 290.33 284.16 293.88 285.59 297.61 287.3 301.13 288.43 302.56 291.49 304.42 292.31 306.09 291.93 309.13 292.12 314.83 291.46 317.3 290.24 319.99 289.75 322.54 288.98 323.88 286.55 323.41 283.37 321.57 282.64 320.5 280.38 319.54 278.43 316.93 276.94 315.79 276.66 313.87 275.68 312.44 273.15 310.22 272.41 307.94 270.65 306.06 269.4 303.6 266.23 300.63 263.82 299.68 261.31 299.63 260.48 298.67 255.52 297.17 254.16 295.49 252.78 295.42 249.62 294.01 248.31 292.72 240.45 289.2 237.67 286.84 220.95 284.32 214.12 284.71 212.96 284.39 210.39 282.54 206.86 285.31 205.53 288.26 205.03 296.67 206 298.98 205.53 301.43 203.49 303.41 202.98 305.25 201.56 307.98 201.63 308.88 203.45 311.07 201.73 312.79 200.15 316.37 192.39 312.81 188.38 313.31 187.81 315.6 186.39 316.34 184.11 315.98 181.29 317.49 178.09 317.53 175.27 318.85 173.24 321.24 171.84 321.66 170.58 320.25 167.95 321.31 166.52 320.62 166.86 319.08 165.19 318.04 160.7 317.84 155.83 315.22 154.98 316.56 153.52 315.98 150.98 313.57 Z" id="TR-07" data-name="Antalya"/>
<path d="M 288.98 323.88 289.75 322.54 290.24 319.99 291.46 317.3 292.12 314.83 291.93 309.13 292.31 306.09 295.05 305.73 297.76 306.42 300.26 306.36 305.09 304.72 309.01 304.61 310 303.63 311.09 300.1 312.32 299.7 315.37 301.1 316.46 299.73 315.45 298.16 313.55 296.73 311.35 296.15 308.64 293.91 307.63 291.02 306.08 288.77 305.98 287.09 308.23 286.56 311.33 284.88 312.3 286.19 313.8 286.59 314.7 285.07 315.2 282.76 316.53 281.14 318.09 280.62 322.33 277.49 324.05 277.01 329.34 276.52 332.65 275.21 336.09 274.92 337.53 275.37 340.07 274.4 343.12 273.85 347.13 270.8 348.63 270.14 351.79 269.92 354.72 268.77 357.29 266.34 360.93 265.08 363.27 263.9 365.13 262.11 368.6 260.71 369.87 258.45 373 258.38 378.59 255.86 381.51 256.58 384.44 262.61 386.44 264.15 386.57 269.5 387.49 272.5 389.45 273.97 392 273.85 393.61 275.51 392.37 278.77 392.39 281.72 393.16 286.1 392.98 287.52 391.41 288.94 389.65 289.42 387.42 291.06 385.76 290.1 384.05 288.26 380.64 286.45 377.4 286.57 371.64 288.98 365.82 294.42 361.33 297.24 360.03 298.37 356.45 302.96 355.92 304.26 351.74 307.34 351.76 311.74 348.5 313.09 347.21 315.98 345.63 313.73 343.14 312.47 340.96 315.01 340.14 316.82 337.79 317.72 336.23 319.35 335.4 321.34 333.81 318.79 332.67 319.16 329.85 322.15 329.51 321.27 325.93 320.57 322.94 321.66 320.45 320.98 319.68 321.91 314.69 322.24 312.42 321.93 310.49 324.45 304.37 323.39 301.69 324.85 298.65 327.32 293.1 326.32 288.98 323.88 Z" id="TR-33" data-name="Mersin"/>
<path d="M 434.45 276.36 431.85 276.32 428.42 280.27 428.4 282.43 429.07 283.49 427.46 285.47 425.79 286.47 423.77 288.59 418.72 289.13 415.49 290.39 414.08 292.46 415.91 292.69 416.52 297.32 415.16 298.13 412.9 298.23 411.6 297.02 407.43 298.54 404.7 300.58 391.94 292.74 389.46 291.41 387.42 291.06 389.65 289.42 391.41 288.94 392.98 287.52 393.16 286.1 392.39 281.72 392.37 278.77 393.61 275.51 392 273.85 389.45 273.97 387.49 272.5 386.57 269.5 386.44 264.15 384.44 262.61 381.51 256.58 381.64 252.93 383.94 250.13 384.58 247.89 383.22 243.85 383.02 241.2 384.35 239.28 388.61 240.12 392.69 239.44 398.15 233.93 405.34 234.5 409.11 235.48 414.26 237.5 416.45 236.46 415.53 226.77 431.01 216.11 433.26 213.02 435.03 209.38 436.19 207.77 437.97 203.36 439.8 201.85 443.01 200.03 446.39 199.13 448.56 200.09 450.11 202.58 451.17 205.34 452.96 207.2 450.61 209.43 449.31 212.73 447.24 222.09 446 225.5 445.46 228.98 445.67 233.08 446.98 236.33 446.88 238.48 443.55 241.79 436.47 242.04 434.53 245.3 429.37 257.51 429.37 261.57 430.62 265.38 434.21 265.86 435.75 267.54 436.25 270.49 434.45 276.36 Z" id="TR-01" data-name="Adana"/>
<path d="M 256.77 59.9 262.42 60.87 271.37 61.14 276.98 61.99 276.74 65.05 285.66 69.5 287.22 72.4 287.08 73.86 286.28 78.45 283.6 80.22 283.44 83.19 285.02 87.58 281.66 92.55 278.29 94.37 272.51 93.48 269.02 95.26 264.11 96.45 261.23 97.75 257.7 98.57 250.88 98.69 247.13 100.2 242.32 98.92 240.96 97.4 233.92 98.15 230.25 95.91 226.35 94.58 225.29 95.75 224.88 97.8 225.05 101.1 223.76 103.86 220.35 105.82 217.77 109.25 215.07 108.81 212.56 107.89 211 105.91 208.45 101.36 207.87 98.95 208.65 96.99 206.83 93.95 206.58 92.52 207.72 91.57 208.87 88.17 210.57 85.64 213.49 85.76 216.18 84.46 216.68 82.83 216.28 79.35 218.92 77.27 222.37 78.5 229.1 78.27 233.82 80.27 237.86 79.83 241.06 77.38 242.58 73.38 242.75 70.49 244.77 68.93 250.16 68.04 254.03 67.15 256.05 64.69 256.77 59.9 Z" id="TR-14" data-name="Bolu"/>
<path d="M 217.77 109.25 220.35 105.82 223.76 103.86 225.05 101.1 224.88 97.8 225.29 95.75 226.35 94.58 230.25 95.91 233.92 98.15 240.96 97.4 242.32 98.92 247.13 100.2 250.88 98.69 257.7 98.57 261.23 97.75 264.11 96.45 269.02 95.26 272.51 93.48 278.29 94.37 281.66 92.55 285.02 87.58 283.44 83.19 283.6 80.22 286.28 78.45 289.58 78.32 292.87 78.85 305.11 84.56 307.26 88.04 308.64 89.62 314.02 93.54 315.4 96.81 318.14 98.97 321.2 98.59 321.83 95.67 323.43 95.4 325.99 96.64 331.64 98.5 330.53 106.08 330.86 113.02 330.26 116.13 325.46 116.72 322.37 118.03 320.5 122.63 318.21 131.83 319.25 136.42 322.57 140.46 323.75 142.53 325.37 150.22 328.69 156.72 329.55 159.72 334.24 162.7 337.65 165.21 339.18 166.88 341.38 167.06 345.9 169.19 345.6 171 344.21 174.54 345.87 179.07 345.73 182.18 342.25 185.5 340.66 186.29 336.94 186.17 333.32 187.18 329.9 189.14 326.28 190.12 324.06 186.06 322.09 181.84 321.99 178.73 322.65 172.73 322.44 169.84 320.19 164.62 316.11 161.64 313.75 160.91 311.2 159.12 309.43 159.12 308.17 161.63 307.21 165.41 305.4 165.12 302.99 163.27 301 162.61 296.74 166.11 295.23 168.13 293.33 169.24 290.22 167.92 287.57 169.14 285.1 171.21 283.32 171.05 280.47 168.84 276.91 167.64 274.82 167.89 270.44 169.22 268.92 168.72 262.98 163.73 259.37 161.85 262.57 160.07 263.32 158.94 265.14 158.55 266.93 156.27 266.64 154.64 264.45 152.33 264.11 149.27 264.78 144.36 263.69 142.25 262.93 139.46 260.85 137.62 258.78 131.91 258.51 129.21 260.21 127.26 260.12 125.82 258.68 123.77 256.07 122.98 255.01 121.37 253.76 115.75 251.86 116.03 250.15 114.85 248.64 115.4 243.99 115.83 241.42 115.74 239.68 113.93 237.59 114.4 233.75 113.89 231.43 115.72 229.29 114.66 226.86 114.41 222.9 116.13 220.21 115.94 219.57 111.55 217.77 109.25 Z" id="TR-06" data-name="Ankara"/>
<path d="M 179.31 87.88 181.97 92.58 185.15 95.67 188.83 96.79 194.6 95.25 199.55 95.52 200.85 96.34 202.56 98.5 205.68 98.43 207.87 98.95 208.45 101.36 211 105.91 212.56 107.89 208.29 108.06 204.93 110.79 203.63 116.4 202.23 118.92 200.1 120.5 197.83 120.47 195.69 121.4 194.35 123.6 192 125.2 191.57 130.73 189.77 133.94 187.45 136.63 182.78 137.42 179.5 138.32 177.69 137.83 173.07 134.56 169.95 132.82 167.85 129.04 167.67 126.75 168.34 122.12 170.7 122.63 172.78 121.84 172.18 119.12 171.09 118.25 168.92 115.12 168.84 112.37 170.03 106.92 174.04 102.66 174.77 101.16 173.6 98.48 173.44 96.73 175.38 90.71 177.1 89.12 179.31 87.88 Z" id="TR-11" data-name="Bilecik"/>
<path d="M 212.56 107.89 215.07 108.81 217.77 109.25 219.57 111.55 220.21 115.94 222.9 116.13 226.86 114.41 229.29 114.66 231.43 115.72 233.75 113.89 237.59 114.4 239.68 113.93 241.42 115.74 243.99 115.83 248.64 115.4 250.15 114.85 251.86 116.03 253.76 115.75 255.01 121.37 256.07 122.98 258.68 123.77 260.12 125.82 260.21 127.26 258.51 129.21 258.78 131.91 260.85 137.62 262.93 139.46 263.69 142.25 264.78 144.36 264.11 149.27 264.45 152.33 266.64 154.64 266.93 156.27 265.14 158.55 263.32 158.94 262.57 160.07 259.37 161.85 258.91 164.96 258.28 165.8 255.02 166.42 252.55 166.08 247.72 165.58 242.33 166.16 239.23 163.77 237.14 159.03 234.2 155.9 232.49 156.41 229.56 158.7 227.93 159.1 224.92 161.43 221.88 162.75 220.07 160.71 217.98 159.73 213.87 163.47 209.62 166.06 207.67 166.39 204.44 164.39 202.82 161.47 200.19 159.97 199.46 156.57 195.27 151.05 194.78 146.86 193.63 143.61 189.03 139.25 187.45 136.63 189.77 133.94 191.57 130.73 192 125.2 194.35 123.6 195.69 121.4 197.83 120.47 200.1 120.5 202.23 118.92 203.63 116.4 204.93 110.79 208.29 108.06 212.56 107.89 Z" id="TR-26" data-name="Eskisehir"/>
<path d="M 309.72 57.06 311.24 58.82 316.61 59.42 320.4 61.93 321.93 63.79 323.88 64.42 325.48 63.81 329.86 61.23 333.09 60.63 339.85 57.01 341.88 56.87 342.31 59.04 339.97 62 339.48 63.65 341.05 66.33 343.5 67.21 346.2 69.45 349.65 69.89 351.71 73.33 350.35 77.69 350.62 80.04 351.63 82.09 351.79 85.95 352.32 88.01 354 91.09 354.78 93.94 353.12 98.04 351.92 100.11 347.02 102.55 343.12 102.18 331.64 98.5 325.99 96.64 323.43 95.4 321.83 95.67 321.2 98.59 318.14 98.97 315.4 96.81 314.02 93.54 308.64 89.62 307.26 88.04 305.11 84.56 292.87 78.85 289.58 78.32 286.28 78.45 287.08 73.86 291.43 71.82 296.34 67.87 298.33 64.25 299.85 63.35 303.89 63.8 307.94 61.57 309.72 57.06 Z" id="TR-18" data-name="Çankiri"/>
<path d="M 299.24 30.23 300.67 31.82 303.21 31.43 306.25 30.41 309.28 32.66 310.46 37.6 311.64 40.3 307.54 41.14 305.36 43.31 303.47 45.91 303.09 47.79 303.9 53.73 306.24 54.08 308.41 55.08 309.72 57.06 307.94 61.57 303.89 63.8 299.85 63.35 298.33 64.25 296.34 67.87 291.43 71.82 287.08 73.86 287.22 72.4 285.66 69.5 276.74 65.05 276.98 61.99 271.37 61.14 271.38 56.21 273.4 48.82 277.11 43.89 281.66 44.11 286.04 42.99 291.09 38.73 292.94 34.68 295.3 34.01 299.24 30.23 Z" id="TR-78" data-name="Karabük"/>
<path d="M 461.28 69.79 460.54 71.25 461.02 72.86 463.42 73.68 465.72 75.1 469.21 76.28 474.13 78.8 477.09 79.05 479.92 78.64 482.73 78.87 492.28 85.55 497.92 85.91 499.29 88.56 500.04 91.85 497.92 96.18 495.42 99.74 491.16 100.91 488.19 102.91 484.7 103.43 481.17 103.24 477.3 103.76 470.33 105.86 465.55 105.22 462.48 106.6 459.68 115.15 458.35 116.5 452.21 118.88 445.31 119.22 435.58 121.18 433.53 117.7 433.87 112.52 432.15 110.78 428.67 112.07 424.75 112.65 421.48 111.98 417.6 112.3 414.31 109.99 411.45 106.75 413.09 103.25 414.31 101.9 418.81 100.1 421.14 97.07 424.22 90.75 425.31 89.44 428.76 89.15 432.13 90.07 434.35 91.59 437.54 92.81 440.1 91.58 444.82 88.4 445.08 85.61 448.44 84.89 450.3 82.25 450.31 80.21 452.47 76.23 451.62 74.05 449.43 72.44 449.18 70.01 450.35 69.36 454.92 68.26 456.89 67.35 459.1 67.42 461.28 69.79 Z" id="TR-60" data-name="Tokat"/>
<path d="M 521.85 88.43 525.28 101.48 525.18 104.57 526.71 106.89 529.06 108.06 534.19 111.59 538.44 110.53 542.81 111.94 547 114.04 546.87 116.82 545.98 118.91 542.17 118.58 539.98 119.06 538.03 120.45 536 120.13 534.06 118.62 532.21 119.71 530.64 124.21 530.98 125.92 533.85 125.82 536.9 125.07 537.77 126.12 537.33 127.61 534.12 128.59 531.03 133.13 530.56 138.78 529.6 140.64 530.08 142.71 532.92 145 533.87 146.3 530.54 150.15 530.63 152.91 531.4 156.05 531.62 159.72 530.33 162.98 527.09 164.09 524.1 166.35 521.41 167.16 518.6 166.75 515.67 167.64 512.42 167.71 506.33 171.14 502.84 171.89 499.31 170.14 497.48 170.61 496.56 172.69 496.97 175.23 498.45 179.93 497.77 181.94 494.82 185.15 492.1 186.67 487.86 191.12 485.42 192.26 476.06 193.08 473.94 191.89 468.52 191.11 463.04 192.48 463.16 190.29 464.14 188.49 466.28 181.97 467.38 177.73 469.13 173.75 470.91 168.68 469.39 163.89 466.09 162.12 462.49 161.45 458.61 161.45 454.86 162.73 452.78 162 450.73 160.41 443.83 159.43 440.66 160.55 436.53 160 432.58 157.11 429.86 156.35 428.59 154.27 426.56 153.23 424.37 153.07 425.95 151.19 427.85 149.79 430.17 145.98 432.9 142.24 436.48 139.45 439.53 136.43 440.76 132 440.23 129.54 438.77 128.75 436.75 125.16 435.58 121.18 445.31 119.22 452.21 118.88 458.35 116.5 459.68 115.15 462.48 106.6 465.55 105.22 470.33 105.86 477.3 103.76 481.17 103.24 484.7 103.43 488.19 102.91 491.16 100.91 495.42 99.74 497.92 96.18 500.04 91.85 502.34 96.32 505.54 98.92 506.99 98.72 510.99 94.97 514.43 95.13 515.6 90.76 519.22 90.15 521.85 88.43 Z" id="TR-58" data-name="Sivas"/>
<path d="M 385.53 47.27 387.68 51.13 389.15 57.37 392.35 57 393.92 57.4 394.29 58.94 392.25 63.11 392.14 68.63 391.51 72.23 391.92 73.73 394.73 79.34 396.04 80.17 402.97 81.37 406.11 83.24 408.22 83.81 409.27 86.31 409.29 88.33 408.32 92.31 404.72 97.81 403.84 104.27 402.17 104.89 398.18 105.18 398.29 108.26 397.62 111.44 396.49 112.92 393.23 114.91 391.31 115.13 387.76 114.09 381.51 117.15 376.49 117.16 374.01 118.12 367.63 116.99 363.58 118.32 359.6 120.14 353.06 120.91 350.7 122.05 350.63 119.28 352.58 115.7 352.74 113.93 352.04 111.09 349.2 109.04 347.48 105.15 347.02 102.55 351.92 100.11 353.12 98.04 354.78 93.94 354 91.09 352.32 88.01 351.79 85.95 351.63 82.09 350.62 80.04 350.35 77.69 351.71 73.33 349.65 69.89 353.29 69.12 359.2 66.66 360.19 63.91 357.95 62.09 357.17 60.03 359.03 57.16 360.48 53.51 363.41 50.62 364.57 47.58 366 45.49 368.19 45 369.29 46.38 371.75 46.45 372.45 47.23 376.46 47.48 378.69 49.52 383.42 51.05 385.04 49.31 385.53 47.27 Z" id="TR-19" data-name="Çorum"/>
<path d="M 393.92 57.4 406.87 61.06 409.42 60.58 410.79 61.38 416.83 66.01 418.25 68.5 419.63 68.89 422.81 68.66 424.41 68.98 429.93 69.06 433.19 70.63 434.95 70.21 438.34 67.65 439.62 65.4 440.35 62.88 442.01 61.82 444.68 63.65 445.87 66.11 450.35 69.36 449.18 70.01 449.43 72.44 451.62 74.05 452.47 76.23 450.31 80.21 450.3 82.25 448.44 84.89 445.08 85.61 444.82 88.4 440.1 91.58 437.54 92.81 434.35 91.59 432.13 90.07 428.76 89.15 425.31 89.44 424.22 90.75 421.14 97.07 418.81 100.1 414.31 101.9 413.09 103.25 411.45 106.75 409.39 106.11 405.34 106.09 403.84 104.27 404.72 97.81 408.32 92.31 409.29 88.33 409.27 86.31 408.22 83.81 406.11 83.24 402.97 81.37 396.04 80.17 394.73 79.34 391.92 73.73 391.51 72.23 392.14 68.63 392.25 63.11 394.29 58.94 393.92 57.4 Z" id="TR-05" data-name="Amasya"/>
<path d="M 138.72 139.32 140.29 140.56 145.06 141.35 148.04 141.32 150.35 139.85 150.62 136.25 151.52 133.81 153.44 132.38 154.59 128.06 155.44 127.17 156.74 122.69 158.86 121.19 163.2 122.91 165.86 122.88 168.34 122.12 167.67 126.75 167.85 129.04 169.95 132.82 173.07 134.56 177.69 137.83 179.5 138.32 182.78 137.42 187.45 136.63 189.03 139.25 193.63 143.61 194.78 146.86 195.27 151.05 199.46 156.57 200.19 159.97 197.29 164.48 192.34 166.72 190.88 171.33 189.8 173.58 188.65 177.17 185.76 181.54 177.11 186.74 177.14 181.22 175.16 178.96 168.78 177.21 166.12 177.28 163.91 178.28 163.2 181.27 162.15 183.75 159.73 183.93 154.5 185.42 151.49 185.55 148.71 185.14 146.16 183.55 143.71 183.52 141.44 185.5 141.6 182.12 139.34 177.12 139.71 173.84 139.02 172.04 136.33 167.86 135.13 167.01 128.85 165.64 125.9 162.64 126.2 158.26 130.87 156.42 132.23 155.43 133.83 152.35 135.76 149.55 136.29 145.72 137.62 143 138.72 139.32 Z" id="TR-43" data-name="Kütahya"/>
<path d="M 284.16 293.88 284.45 290.33 283.8 286.86 282.92 285.62 279.68 285.14 277.87 284.47 277.24 283.05 278.78 280.64 278.63 279.05 275.69 277.55 270.48 272.88 268.61 270.25 266.53 268.05 263.6 266.01 260.92 263.52 257.45 261.25 246.75 259.04 242.59 259.01 240.78 258.3 237.29 254.76 238.41 251.86 238.79 248.71 237.19 245.22 237.18 243.38 239 242.83 240.35 241.13 240.52 238.62 242.25 235.9 242.15 231.76 241.18 227.62 242.1 224.17 246.37 222.22 249.04 220.51 249.34 218.78 246.32 216.12 245.36 214.74 243.95 214.12 241.05 211.71 238.53 208.42 235.27 205.76 234.06 201.88 241.42 197.03 244.6 193.67 248.25 188.91 248.15 185.57 248.81 182.72 250.07 180.21 253.26 174.93 253.62 172.8 251.58 171.03 252.55 166.08 255.02 166.42 258.28 165.8 258.91 164.96 259.37 161.85 262.98 163.73 268.92 168.72 270.44 169.22 274.82 167.89 276.91 167.64 280.47 168.84 283.32 171.05 285.1 171.21 287.57 169.14 290.22 167.92 293.33 169.24 295.23 168.13 296.74 166.11 301 162.61 302.99 163.27 305.4 165.12 307.21 165.41 308.17 161.63 309.43 159.12 311.2 159.12 313.75 160.91 316.11 161.64 320.19 164.62 322.44 169.84 322.65 172.73 321.99 178.73 322.09 181.84 324.06 186.06 326.28 190.12 325.48 191.59 323.07 194.32 322.15 196.1 321.55 200.3 320.07 202.58 318.17 209.16 317.86 213.49 319.38 217.59 320.38 218.56 321.36 222.78 324.15 226.24 325.84 227.85 327.66 227.93 332.63 226.85 339.12 226.39 342.42 226.55 345.68 225.72 348.91 224.42 352.05 223.7 355.18 224.2 355.73 226.93 357.11 229.08 361.04 230.91 364.08 235.75 367.08 239.26 367.56 242.25 366.56 244.97 364.94 247.47 364.74 251.39 366.32 253.66 368.9 256.2 369.87 258.45 368.6 260.71 365.13 262.11 363.27 263.9 360.93 265.08 357.29 266.34 354.72 268.77 350.9 261.95 340.37 250.48 339.43 247.11 339.27 243.74 337.55 243.15 333.46 242.95 331.58 244.14 328.28 248.5 324.03 250.09 317.59 250.48 311.31 251.27 307.38 252.86 300.31 260.77 295.28 267.68 291.35 272.8 290.28 276.29 290.57 278.11 293.08 279.29 295.59 279.49 296.07 282.44 294.81 284.4 288.84 290.29 284.16 293.88 Z" id="TR-42" data-name="Konya"/>
<path d="M 292.31 306.09 291.49 304.42 288.43 302.56 287.3 301.13 285.59 297.61 284.16 293.88 288.84 290.29 294.81 284.4 296.07 282.44 295.59 279.49 293.08 279.29 290.57 278.11 290.28 276.29 291.35 272.8 295.28 267.68 300.31 260.77 307.38 252.86 311.31 251.27 317.59 250.48 324.03 250.09 328.28 248.5 331.58 244.14 333.46 242.95 337.55 243.15 339.27 243.74 339.43 247.11 340.37 250.48 350.9 261.95 354.72 268.77 351.79 269.92 348.63 270.14 347.13 270.8 343.12 273.85 340.07 274.4 337.53 275.37 336.09 274.92 332.65 275.21 329.34 276.52 324.05 277.01 322.33 277.49 318.09 280.62 316.53 281.14 315.2 282.76 314.7 285.07 313.8 286.59 312.3 286.19 311.33 284.88 308.23 286.56 305.98 287.09 306.08 288.77 307.63 291.02 308.64 293.91 311.35 296.15 313.55 296.73 315.45 298.16 316.46 299.73 315.37 301.1 312.32 299.7 311.09 300.1 310 303.63 309.01 304.61 305.09 304.72 300.26 306.36 297.76 306.42 295.05 305.73 292.31 306.09 Z" id="TR-70" data-name="Karaman"/>
<path d="M 381.51 256.58 378.59 255.86 373 258.38 369.87 258.45 368.9 256.2 366.32 253.66 364.74 251.39 364.94 247.47 366.56 244.97 367.56 242.25 367.08 239.26 364.08 235.75 361.04 230.91 357.11 229.08 355.73 226.93 355.18 224.2 368.93 203.71 371.32 204.04 374.85 202.98 377.26 202.88 380.17 205.24 382.29 205.85 386.66 204.2 389.57 212.27 392.03 214.89 398.77 214.97 399.89 218.5 399.49 220.76 399.71 223.01 400.99 226.75 399.06 227.98 398.15 233.93 392.69 239.44 388.61 240.12 384.35 239.28 383.02 241.2 383.22 243.85 384.58 247.89 383.94 250.13 381.64 252.93 381.51 256.58 Z" id="TR-51" data-name="Nigde"/>
<path d="M 452.96 207.2 451.17 205.34 450.11 202.58 448.56 200.09 446.39 199.13 443.01 200.03 439.8 201.85 437.97 203.36 436.19 207.77 435.03 209.38 433.26 213.02 431.01 216.11 415.53 226.77 416.45 236.46 414.26 237.5 409.11 235.48 405.34 234.5 398.15 233.93 399.06 227.98 400.99 226.75 399.71 223.01 399.49 220.76 399.89 218.5 398.77 214.97 392.03 214.89 389.57 212.27 386.66 204.2 387.76 201.97 389.47 200.18 393.16 194.27 393.34 191.78 392.92 189.33 393.08 186.85 390.18 183.06 388.23 179.19 390.25 173.56 390.35 170.95 391.36 168.85 400.82 170.34 405.49 167.35 407.35 166.72 420.87 157.95 424.37 153.07 426.56 153.23 428.59 154.27 429.86 156.35 432.58 157.11 436.53 160 440.66 160.55 443.83 159.43 450.73 160.41 452.78 162 454.86 162.73 458.61 161.45 462.49 161.45 466.09 162.12 469.39 163.89 470.91 168.68 469.13 173.75 467.38 177.73 466.28 181.97 464.14 188.49 463.16 190.29 463.04 192.48 461.63 193.36 460.81 194.99 460.31 197.78 458.98 199.96 452.96 207.2 Z" id="TR-38" data-name="Kayseri"/>
<path d="M 237.29 254.76 235.04 254.47 232.94 255.2 230.99 256.63 228.73 256.98 224.44 258.48 220.75 256.97 219.3 254.25 217.4 254.18 213.72 248.47 212.59 245.95 211.22 241.7 208.72 240.16 206.09 240.19 203.16 239.67 199.73 236.55 197.88 233.93 195.81 232.45 193.86 234.46 191.51 235.87 186.92 239.27 185.37 239.99 183.8 239.42 182.41 236.13 185.67 235.98 188.67 234.34 190.02 231.8 190.58 226.34 191.45 224.68 194.28 223.03 198.05 219.31 199.66 218.38 203.88 214.1 207.02 213 209.39 211.07 211.17 210.83 214.34 209.6 216.98 207.09 219.53 204.14 224.73 199.92 227.61 196.97 230.22 198.27 232.09 200.99 234.06 201.88 235.27 205.76 238.53 208.42 241.05 211.71 243.95 214.12 245.36 214.74 246.32 216.12 249.34 218.78 249.04 220.51 246.37 222.22 242.1 224.17 241.18 227.62 242.15 231.76 242.25 235.9 240.52 238.62 240.35 241.13 239 242.83 237.18 243.38 237.19 245.22 238.79 248.71 238.41 251.86 237.29 254.76 Z" id="TR-32" data-name="Isparta"/>
<path d="M 74.23 150.6 77.42 148.92 81.15 151.32 84.06 152.14 88.73 151.88 91.03 152.79 93.04 152.51 94.08 154.21 92.33 158.35 93.96 159.13 97.07 157.98 101.48 162.85 103.62 167.67 105.54 168.36 109.09 167.24 111.78 164.81 115.28 164.65 118.41 164.04 122.26 162.06 125.9 162.64 128.85 165.64 135.13 167.01 136.33 167.86 139.02 172.04 139.71 173.84 139.34 177.12 141.6 182.12 141.44 185.5 136.67 189.58 134.95 192 133.77 192.44 133.92 194.33 136.04 195.89 136.57 200.94 135.71 205.06 133.36 208.24 135.66 209.09 137.21 210.8 133.34 211.67 131.49 215.29 131.1 217.97 129.38 218.8 127.5 218.82 121.85 218.7 119.97 215.88 118.24 210.43 117.07 208.95 112.79 207.95 110.89 206.77 105.2 207.95 104.06 205.27 102.38 203.39 99.84 203.73 97.84 202.83 95.86 202.74 94.19 206.18 92.08 206.67 90.32 205.05 89.14 201.79 85.9 200.28 82.99 198.23 82.3 195.28 81.03 194.05 75.5 194.02 72.57 193.73 70.11 191.61 69.01 187.94 66.24 185.25 67.59 182.19 69.62 179.11 70.36 175.08 72.65 173.49 75.28 172.43 79.13 168.84 79.45 166.01 77.22 161.19 75.85 154.73 74.23 150.6 Z" id="TR-45" data-name="Manisa"/>
<path d="M 123.79 251.86 122.39 249.91 121.87 247.9 122.72 245.96 125.63 245.09 128.85 245.51 131.06 243.4 133.01 240.63 134.63 240.56 135.9 239.65 135.63 236.98 132.97 236.44 130.53 232.5 130.64 231.13 131.93 229.34 130.82 222.79 128.51 221.19 127.5 218.82 129.38 218.8 131.1 217.97 131.49 215.29 133.34 211.67 137.21 210.8 139.7 211.33 141.96 212.7 144.31 212.71 146.41 211.27 147.91 211.54 149.23 213.02 150.6 213.08 153.09 212.06 154.61 212.67 155.17 210.98 157.28 209.34 163.4 209.57 166.26 207.91 165.93 204.79 166.29 201.57 171.49 200.43 177.25 201.78 181.71 209.3 182.84 210.64 183.48 214.18 182.33 215.5 171.1 223.93 168.43 225.15 167.8 226.66 167.77 232.05 170.68 232.44 173.47 233.77 175.34 237.03 172.34 239.5 168.81 241.51 167.85 243.83 162.52 246.67 162.84 251.59 163.33 253.57 164.45 255.41 162.61 259.1 158.51 265.24 157.38 267.74 156.36 273.28 154.37 274.88 154.08 278.27 152.78 280.74 151.36 281.48 147.17 279.22 144.89 279.05 143.85 278.02 143.23 273.45 142.67 271.49 140.17 269.04 137.1 267.64 135.34 265.11 132.23 264.66 130.83 262.64 130.29 260.2 129.06 258.04 124.56 256.85 124.14 255.35 124.28 252.76 123.79 251.86 Z" id="TR-20" data-name="Denizli"/>
<path d="M 168.81 281.34 165.27 276.42 160.24 277.08 158.23 279.61 156.63 278.97 157.32 275.95 156.36 273.28 157.38 267.74 158.51 265.24 162.61 259.1 164.45 255.41 163.33 253.57 162.84 251.59 162.52 246.67 167.85 243.83 168.81 241.51 172.34 239.5 175.34 237.03 178.71 235.84 182.41 236.13 183.8 239.42 185.37 239.99 186.92 239.27 191.51 235.87 193.86 234.46 195.81 232.45 197.88 233.93 199.73 236.55 203.16 239.67 206.09 240.19 208.72 240.16 211.22 241.7 212.59 245.95 213.72 248.47 217.4 254.18 219.3 254.25 220.75 256.97 217.82 259.52 217.05 261.77 214.52 264.57 209.73 264.97 205.95 264.56 200.15 264.8 199.17 264.4 196.61 261.26 194.07 260.92 187.9 263.52 185.35 263.97 177.86 267.87 175.57 270.99 174.94 274.93 173.29 277.97 171.12 280.47 168.81 281.34 Z" id="TR-15" data-name="Burdur"/>
<path d="M 326.28 190.12 329.9 189.14 333.32 187.18 336.94 186.17 340.66 186.29 342.25 185.5 345.73 182.18 345.87 179.07 344.21 174.54 345.6 171 346.17 171.84 348.79 172.08 350.43 172.82 351.03 174.96 352.67 176.42 355.63 174.9 358.34 174.98 357.89 177.14 359.25 181.93 358.55 184.63 357.11 187.04 357.7 189.74 359.62 190.99 361.72 191.61 364.39 191.52 364.75 193.96 363.49 196.63 363.53 199.21 367.35 202.69 368.93 203.71 355.18 224.2 352.05 223.7 348.91 224.42 345.68 225.72 342.42 226.55 339.12 226.39 332.63 226.85 327.66 227.93 325.84 227.85 324.15 226.24 321.36 222.78 320.38 218.56 319.38 217.59 317.86 213.49 318.17 209.16 320.07 202.58 321.55 200.3 322.15 196.1 323.07 194.32 325.48 191.59 326.28 190.12 Z" id="TR-68" data-name="Aksaray"/>
<path d="M 386.66 204.2 382.29 205.85 380.17 205.24 377.26 202.88 374.85 202.98 371.32 204.04 368.93 203.71 367.35 202.69 363.53 199.21 363.49 196.63 364.75 193.96 364.39 191.52 361.72 191.61 359.62 190.99 357.7 189.74 357.11 187.04 358.55 184.63 359.25 181.93 357.89 177.14 358.34 174.98 362.95 178.92 364.62 178.47 363.97 174.88 364.88 172 369.91 169.89 374.77 167.33 376.51 165.1 374.33 160.85 374.89 157.36 374.38 154.58 373.12 151.06 374.18 149.3 376.87 149.93 379.24 149.52 381.17 150.23 382.01 153.1 384.4 155.1 385.74 158.88 389.09 160.97 390.04 162.59 389.67 163.85 390.19 166.21 391.36 168.85 390.35 170.95 390.25 173.56 388.23 179.19 390.18 183.06 393.08 186.85 392.92 189.33 393.34 191.78 393.16 194.27 389.47 200.18 387.76 201.97 386.66 204.2 Z" id="TR-50" data-name="Nevsehir"/>
<path d="M 411.45 106.75 414.31 109.99 417.6 112.3 421.48 111.98 424.75 112.65 428.67 112.07 432.15 110.78 433.87 112.52 433.53 117.7 435.58 121.18 436.75 125.16 438.77 128.75 440.23 129.54 440.76 132 439.53 136.43 436.48 139.45 432.9 142.24 430.17 145.98 427.85 149.79 425.95 151.19 424.37 153.07 420.87 157.95 407.35 166.72 405.49 167.35 400.82 170.34 391.36 168.85 390.19 166.21 389.67 163.85 390.04 162.59 389.09 160.97 385.74 158.88 384.4 155.1 382.01 153.1 381.17 150.23 379.24 149.52 378.16 147.01 376.36 145.43 374.25 145.08 372.43 143.86 366.67 136.78 364.98 133.28 361.7 133.24 359.79 132.58 355.51 128.17 353.25 128.14 351.57 126.5 350.7 122.05 353.06 120.91 359.6 120.14 363.58 118.32 367.63 116.99 374.01 118.12 376.49 117.16 381.51 117.15 387.76 114.09 391.31 115.13 393.23 114.91 396.49 112.92 397.62 111.44 398.29 108.26 398.18 105.18 402.17 104.89 403.84 104.27 405.34 106.09 409.39 106.11 411.45 106.75 Z" id="TR-66" data-name="Yozgat"/>
<path d="M 345.6 171 345.9 169.19 341.38 167.06 339.18 166.88 337.65 165.21 334.24 162.7 329.55 159.72 328.69 156.72 333.37 148.53 340.13 143.04 343 138.5 344.88 132.94 351.57 126.5 353.25 128.14 355.51 128.17 359.79 132.58 361.7 133.24 364.98 133.28 366.67 136.78 372.43 143.86 374.25 145.08 376.36 145.43 378.16 147.01 379.24 149.52 376.87 149.93 374.18 149.3 373.12 151.06 374.38 154.58 374.89 157.36 374.33 160.85 376.51 165.1 374.77 167.33 369.91 169.89 364.88 172 363.97 174.88 364.62 178.47 362.95 178.92 358.34 174.98 355.63 174.9 352.67 176.42 351.03 174.96 350.43 172.82 348.79 172.08 346.17 171.84 345.6 171 Z" id="TR-40" data-name="Kirsehir"/>
<path d="M 141.44 185.5 143.71 183.52 146.16 183.55 148.71 185.14 151.49 185.55 154.5 185.42 159.73 183.93 162.15 183.75 163.2 181.27 163.91 178.28 166.12 177.28 168.78 177.21 175.16 178.96 177.14 181.22 177.11 186.74 176.28 190.97 173.73 193.45 172.35 197.74 171.39 198.97 171.49 200.43 166.29 201.57 165.93 204.79 166.26 207.91 163.4 209.57 157.28 209.34 155.17 210.98 154.61 212.67 153.09 212.06 150.6 213.08 149.23 213.02 147.91 211.54 146.41 211.27 144.31 212.71 141.96 212.7 139.7 211.33 137.21 210.8 135.66 209.09 133.36 208.24 135.71 205.06 136.57 200.94 136.04 195.89 133.92 194.33 133.77 192.44 134.95 192 136.67 189.58 141.44 185.5 Z" id="TR-64" data-name="Usak"/>
<path d="M 547 114.04 552.46 113.89 554.16 113.14 556.48 114.37 559.01 114.9 566.65 119.17 568.05 120.82 573 122.83 575.57 123.12 582.87 122.8 585.13 121.67 589.78 120.57 593.17 116.22 595.42 115.4 599.88 115.38 601.57 113.84 603.54 113.07 610.35 114.46 609.06 117.36 608.72 120.48 610.93 121.61 618.09 121.73 620.84 125.44 620.92 128.43 622.26 130.51 625.62 132.41 626.97 133.99 624.56 139.04 624.42 142.38 621.75 141.49 618.34 141.39 614.96 140.84 608.74 140.63 606.37 139.65 598.15 142.39 594.89 141.56 592.64 140.27 591.08 140.76 589.21 143.14 586.27 144.09 579.92 145.07 576.63 145.1 573.43 144.31 570.23 144.1 566.82 145.44 564.63 145.03 562.44 145.5 558.33 147.04 556.43 149.41 554.19 149.88 553.1 151.65 550.14 152.84 549.48 154.54 550.59 157.2 547.35 158.72 546.75 161.78 545.28 162.58 545.3 165.09 545.98 165.71 546.34 169.03 543.93 169.82 541.25 166.64 537.58 164.83 533.63 164.64 530.33 162.98 531.62 159.72 531.4 156.05 530.63 152.91 530.54 150.15 533.87 146.3 532.92 145 530.08 142.71 529.6 140.64 530.56 138.78 531.03 133.13 534.12 128.59 537.33 127.61 537.77 126.12 536.9 125.07 533.85 125.82 530.98 125.92 530.64 124.21 532.21 119.71 534.06 118.62 536 120.13 538.03 120.45 539.98 119.06 542.17 118.58 545.98 118.91 546.87 116.82 547 114.04 Z" id="TR-24" data-name="Erzincan"/>
<path d="M 546.34 169.03 545.98 165.71 545.3 165.09 545.28 162.58 546.75 161.78 547.35 158.72 550.59 157.2 549.48 154.54 550.14 152.84 553.1 151.65 554.19 149.88 556.43 149.41 558.33 147.04 562.44 145.5 564.63 145.03 566.82 145.44 570.23 144.1 573.43 144.31 576.63 145.1 579.92 145.07 586.27 144.09 589.21 143.14 591.08 140.76 592.64 140.27 594.89 141.56 598.15 142.39 606.37 139.65 608.74 140.63 614.96 140.84 618.34 141.39 621.75 141.49 620.11 143.45 618.02 144.44 614.97 144.02 613.14 147 611.2 148.4 609.16 148.36 607.28 149.11 606.53 151.06 603.01 151.15 600.97 151.81 600.36 152.88 599.41 158.32 600.29 162.38 599.25 165.83 594.92 166.44 593.58 167.87 594.22 171.84 593.63 174.35 592.52 176.64 589.99 179.45 586.1 181 579.1 181.44 576.76 183.73 574.72 182.89 573.63 183.15 571.89 181.39 570.04 180.83 566.33 178.66 561.61 177.89 560.31 177.1 558.66 177.32 556.89 176.55 553.6 176.8 549.15 177.64 547.34 175.9 547.95 171.42 546.34 169.03 Z" id="TR-62" data-name="Tunceli"/>
<path d="M 200.19 159.97 202.82 161.47 204.44 164.39 207.67 166.39 209.62 166.06 213.87 163.47 217.98 159.73 220.07 160.71 221.88 162.75 224.92 161.43 227.93 159.1 229.56 158.7 232.49 156.41 234.2 155.9 237.14 159.03 239.23 163.77 242.33 166.16 247.72 165.58 252.55 166.08 251.58 171.03 253.62 172.8 253.26 174.93 250.07 180.21 248.81 182.72 248.15 185.57 248.25 188.91 244.6 193.67 241.42 197.03 234.06 201.88 232.09 200.99 230.22 198.27 227.61 196.97 224.73 199.92 219.53 204.14 216.98 207.09 214.34 209.6 211.17 210.83 209.39 211.07 207.02 213 203.88 214.1 199.66 218.38 198.05 219.31 194.28 223.03 191.45 224.68 190.58 226.34 190.02 231.8 188.67 234.34 185.67 235.98 182.41 236.13 178.71 235.84 175.34 237.03 173.47 233.77 170.68 232.44 167.77 232.05 167.8 226.66 168.43 225.15 171.1 223.93 182.33 215.5 183.48 214.18 182.84 210.64 181.71 209.3 177.25 201.78 171.49 200.43 171.39 198.97 172.35 197.74 173.73 193.45 176.28 190.97 177.11 186.74 185.76 181.54 188.65 177.17 189.8 173.58 190.88 171.33 192.34 166.72 197.29 164.48 200.19 159.97 Z" id="TR-03" data-name="Afyonkarahisar"/>
<path d="M 328.69 156.72 325.37 150.22 323.75 142.53 322.57 140.46 319.25 136.42 318.21 131.83 320.5 122.63 322.37 118.03 325.46 116.72 330.26 116.13 330.86 113.02 330.53 106.08 331.64 98.5 343.12 102.18 347.02 102.55 347.48 105.15 349.2 109.04 352.04 111.09 352.74 113.93 352.58 115.7 350.63 119.28 350.7 122.05 351.57 126.5 344.88 132.94 343 138.5 340.13 143.04 333.37 148.53 328.69 156.72 Z" id="TR-71" data-name="Kinkkale"/>
<path d="M 499.63 249.69 499.85 252.8 499.3 255.18 497.53 256.36 492.29 256.65 486.69 258.59 481.5 259.53 479.16 260.67 475.37 264.67 472.17 263.63 470.97 258.97 468.96 257.68 466.99 260.37 461.95 262.69 460.15 260 456.43 256.89 454.83 256.47 447.34 258.23 446.64 257.46 444.54 258.6 442.81 256.51 442.62 253.03 441.06 250.34 441.41 248.75 443.53 245.9 443.55 241.79 446.88 238.48 446.98 236.33 445.67 233.08 445.46 228.98 446 225.5 447.24 222.09 449.31 212.73 450.61 209.43 452.96 207.2 458.98 199.96 460.31 197.78 460.81 194.99 461.63 193.36 463.04 192.48 468.52 191.11 473.94 191.89 476.06 193.08 485.42 192.26 482.98 196.38 483.45 199.53 486.52 199.12 492.73 200.46 498.05 203.63 500.88 204.45 504.15 205.96 506.18 209.57 505.92 211.75 503.64 217.83 503.38 219.41 501 222.91 498.87 230.69 497.13 233.81 495.12 236.34 492.82 238.38 491.17 240.47 491.15 243.58 492.62 245.97 495.1 246.89 499.63 249.69 Z" id="TR-46" data-name="K. Maras"/>
<path d="M 699.97 144.6 701.13 147.99 702.88 150.98 705.47 153.68 706.18 155.17 708.72 158.4 708.77 163.43 707.99 168.17 708.15 170.92 705.15 173.39 701.73 174.72 694.91 173.97 690.42 176.11 687.81 176.91 687.31 179.4 686.42 180.16 682.74 180.08 681.97 182.02 683.3 184.12 683.56 186.39 679.36 190.65 676.43 192.3 669.31 191.77 662.89 194.18 662.45 194.88 657.84 195.94 656.57 195.56 656.07 194.11 656.55 191.96 656.08 189.85 653.28 187.77 651.13 185.02 650.32 182.34 648.07 180.13 647.16 177.06 648.44 172.9 651.35 169.33 651.85 167.16 651.57 164.81 648.69 160.21 648.74 157.73 647.49 154.67 648.85 151.39 655.53 150.26 658.88 151.06 660.43 152.07 664.52 156.1 666.95 159.55 667.93 160.37 671.47 161.85 675.09 161.99 678.44 159.73 683.54 158.85 685.6 156.76 688.48 154.98 689.66 152.97 689.42 150.53 690.27 148.13 695.99 145.25 699.97 144.6 Z" id="TR-49" data-name="Mus"/>
<path d="M 693.63 66.35 694.46 70.59 696.65 73.84 699.34 76.41 700.22 78.55 703.12 82.04 704.37 84.28 703.42 88.05 704.43 93.52 701.03 95.35 695.62 98.92 689.55 100.97 688.26 103.92 691.62 108.28 695.19 108.88 697.78 110.22 699.72 112.88 702.19 113.82 705.49 119.65 702.96 121.77 700.33 122.27 699.41 123.54 697.9 124.06 694.78 123.52 693.31 124.13 696.7 128.32 702.62 130.71 701.63 132.55 701.7 139.89 701.3 142.43 699.97 144.6 695.99 145.25 690.27 148.13 689.42 150.53 689.66 152.97 688.48 154.98 685.6 156.76 683.54 158.85 678.44 159.73 675.09 161.99 671.47 161.85 667.93 160.37 666.95 159.55 664.52 156.1 660.43 152.07 658.88 151.06 655.53 150.26 648.85 151.39 647.1 148.3 645.24 146.1 642.72 145.82 639.6 144.32 635.56 140.54 634.26 139.76 631.86 141.32 628.13 142.93 624.42 142.38 624.56 139.04 626.97 133.99 625.62 132.41 622.26 130.51 620.92 128.43 620.84 125.44 618.09 121.73 610.93 121.61 608.72 120.48 609.06 117.36 610.35 114.46 617.16 115.28 618.67 115.04 622.26 111.88 624.6 110.75 629.8 108.9 631.96 105.49 631.86 104.37 629.1 104.11 625.16 102.97 622.58 101.55 621.54 98.17 620.36 90.73 619.02 87.41 625.78 84.01 631.63 82.63 632.88 79.48 637.99 78.25 642.43 74.43 645.62 72.53 648.87 74.38 654.03 75.19 655.53 75.73 655.84 77.52 654.77 79.49 654.21 84.18 657.04 86.67 660.88 85.23 664.43 82.9 667.68 81.97 670.93 82.94 674.52 84.91 676.42 82.05 676.49 79.58 677.3 77.4 678.96 75.71 680.02 73.48 679.74 71.11 680.28 68.97 683.01 67.07 685.84 66.81 688.71 67.12 693.63 66.35 Z" id="TR-25" data-name="Erzurum"/>
<path d="M 485.42 192.26 487.86 191.12 492.1 186.67 494.82 185.15 497.77 181.94 498.45 179.93 496.97 175.23 496.56 172.69 497.48 170.61 499.31 170.14 502.84 171.89 506.33 171.14 512.42 167.71 515.67 167.64 518.6 166.75 521.41 167.16 524.1 166.35 527.09 164.09 530.33 162.98 533.63 164.64 537.58 164.83 541.25 166.64 543.93 169.82 540.96 169.96 539.82 171.47 539.84 173.69 541.07 176.63 541.26 181.09 541.75 182.74 541.04 184.53 536.47 184.08 535.41 184.28 534.45 187.52 532.03 188.53 529.8 192.68 530.82 195.83 532.05 197.35 532.99 197.12 535.33 199.06 538.87 199.66 543.97 202 545.17 202.11 549.04 200.96 551.14 203.17 552.17 205.02 553.23 205.19 555.16 206.8 556.61 207.03 560 205.87 561.73 206.1 563.13 209.26 561.73 214.11 559.83 216.3 554.1 218.64 548.74 219.54 545.82 219.11 542.89 219.12 540.41 218.47 538.76 216.55 541.21 214.44 541.04 212.71 538.63 212.22 536.13 212.95 533.21 212.98 530.17 216.43 527.55 220.41 524.31 222.18 523.21 224.28 523.14 227.04 520.57 229.34 517.1 230.2 514.15 231.42 510.58 230.61 506.75 231.13 503.06 232.67 497.13 233.81 498.87 230.69 501 222.91 503.38 219.41 503.64 217.83 505.92 211.75 506.18 209.57 504.15 205.96 500.88 204.45 498.05 203.63 492.73 200.46 486.52 199.12 483.45 199.53 482.98 196.38 485.42 192.26 Z" id="TR-44" data-name="Malatya"/>
<path d="M 543.93 169.82 546.34 169.03 547.95 171.42 547.34 175.9 549.15 177.64 553.6 176.8 556.89 176.55 558.66 177.32 560.31 177.1 561.61 177.89 566.33 178.66 570.04 180.83 571.89 181.39 573.63 183.15 574.72 182.89 576.76 183.73 579.1 181.44 586.1 181 589.99 179.45 592.52 176.64 593.63 174.35 594.22 171.84 593.58 167.87 594.92 166.44 599.25 165.83 608.81 160.7 613.68 158.73 614.94 161.29 613.2 164.74 611.11 167.66 610.27 171.43 611.29 175.58 613.79 178.65 614.55 180.42 613.73 184.46 612.97 185.91 610.3 185.16 608.34 190.83 610.58 194.16 611.18 198.95 597.21 199.41 594.16 197.57 592.26 197.92 591.62 199.64 589.63 202.96 586.95 204.29 583.74 204.11 580.59 204.36 579.4 205.07 576.19 205.52 574.46 206.28 570.9 206.01 567.45 205.11 561.73 206.1 560 205.87 556.61 207.03 555.16 206.8 553.23 205.19 552.17 205.02 551.14 203.17 549.04 200.96 545.17 202.11 543.97 202 538.87 199.66 535.33 199.06 532.99 197.12 532.05 197.35 530.82 195.83 529.8 192.68 532.03 188.53 534.45 187.52 535.41 184.28 536.47 184.08 541.04 184.53 541.75 182.74 541.26 181.09 541.07 176.63 539.84 173.69 539.82 171.47 540.96 169.96 543.93 169.82 Z" id="TR-23" data-name="Elazig"/>
<path d="M 708.15 170.92 711.93 169.18 714.81 167.2 722.51 165.47 722.56 169.55 723.83 172.27 728.7 175.22 730.4 177.9 729.18 181.8 726.2 184.16 723.88 186.56 720.07 192.3 718.48 195.42 715.82 197.3 711.35 199.81 710.26 202.84 711.97 207.36 711.83 211.29 712.57 213.94 714.79 214.73 713.61 218.25 712.66 219.55 712.72 225.25 711.44 227.17 709.86 227.27 707.02 225.24 702.81 222.85 700.24 220.92 695.45 219.38 692.45 218.14 689.75 216.09 687.31 213.6 684.5 212.29 680.93 213.66 677.33 214.61 672.82 214.24 668.54 212.59 668.4 206.35 667.43 203.44 665.99 196.25 662.45 194.88 662.89 194.18 669.31 191.77 676.43 192.3 679.36 190.65 683.56 186.39 683.3 184.12 681.97 182.02 682.74 180.08 686.42 180.16 687.31 179.4 687.81 176.91 690.42 176.11 694.91 173.97 701.73 174.72 705.15 173.39 708.15 170.92 Z" id="TR-13" data-name="Bitlis"/>
<path d="M 621.75 141.49 624.42 142.38 628.13 142.93 631.86 141.32 634.26 139.76 635.56 140.54 639.6 144.32 642.72 145.82 645.24 146.1 647.1 148.3 648.85 151.39 647.49 154.67 648.74 157.73 648.69 160.21 651.57 164.81 651.85 167.16 651.35 169.33 648.44 172.9 647.16 177.06 648.07 180.13 650.32 182.34 651.13 185.02 649.08 186.45 644.01 188.43 638.86 191.62 636.15 192.41 629.04 192.13 625.5 191.42 621.45 191.99 619.09 193.18 618.8 196.27 617.74 198.03 616.03 198.79 611.18 198.95 610.58 194.16 608.34 190.83 610.3 185.16 612.97 185.91 613.73 184.46 614.55 180.42 613.79 178.65 611.29 175.58 610.27 171.43 611.11 167.66 613.2 164.74 614.94 161.29 613.68 158.73 608.81 160.7 599.25 165.83 600.29 162.38 599.41 158.32 600.36 152.88 600.97 151.81 603.01 151.15 606.53 151.06 607.28 149.11 609.16 148.36 611.2 148.4 613.14 147 614.97 144.02 618.02 144.44 620.11 143.45 621.75 141.49 Z" id="TR-12" data-name="Bingöl"/>
<path d="M 461.95 262.69 458.45 267.32 456.17 271.82 453.27 275.54 451.73 277.01 450.72 278.92 446.56 279.13 443.58 276.64 441.69 276.06 439.72 276.58 436.27 276.06 434.45 276.36 436.25 270.49 435.75 267.54 434.21 265.86 430.62 265.38 429.37 261.57 429.37 257.51 434.53 245.3 436.47 242.04 443.55 241.79 443.53 245.9 441.41 248.75 441.06 250.34 442.62 253.03 442.81 256.51 444.54 258.6 446.64 257.46 447.34 258.23 454.83 256.47 456.43 256.89 460.15 260 461.95 262.69 Z" id="TR-80" data-name="Osmaniye"/>
<path d="M 564.81 222.04 563.19 223.22 560.67 223.95 559.45 224.96 559.04 227.51 558.07 228.66 556.03 229.29 556.49 230.77 555.02 234.81 555.47 236.93 552.85 237.38 551.3 240.2 549.37 241.17 551.45 242.72 542.17 244.15 536.74 250.1 535.88 250.65 530.77 251.53 529.46 250.97 526.59 251.92 525.67 253.39 523.87 253.12 523.47 254.69 520.49 254.16 519.19 253.12 516.92 253.52 513.65 250.65 508.73 248.81 504.22 248.75 499.63 249.69 495.1 246.89 492.62 245.97 491.15 243.58 491.17 240.47 492.82 238.38 495.12 236.34 497.13 233.81 503.06 232.67 506.75 231.13 510.58 230.61 514.15 231.42 517.1 230.2 520.57 229.34 523.14 227.04 523.21 224.28 524.31 222.18 527.55 220.41 530.17 216.43 533.21 212.98 536.13 212.95 538.63 212.22 541.04 212.71 541.21 214.44 538.76 216.55 540.41 218.47 542.89 219.12 545.82 219.11 548.74 219.54 554.1 218.64 559.83 216.3 561.73 214.11 562.83 214.86 566.19 213.46 567.47 214.8 567.62 216.21 566.3 219.54 566.31 220.95 564.81 222.04 Z" id="TR-02" data-name="Adiyaman"/>
<path d="M 643.44 236.74 640.8 237.98 626.22 237.61 621.61 238.58 619.13 242.42 615.81 242.66 611.17 246.25 609.12 247.04 604.57 250.22 602.7 251.95 598.62 257.21 596.69 255.02 595.29 252.28 593.8 248.05 592.65 241.77 592.92 236.06 592.31 234.79 588.58 232.65 587.72 233.98 585.75 233.1 584.15 231.61 581.48 230.51 578.75 228.23 576.22 225.55 573.94 224.48 568.09 223.84 564.81 222.04 566.31 220.95 566.3 219.54 567.62 216.21 567.47 214.8 566.19 213.46 562.83 214.86 561.73 214.11 563.13 209.26 561.73 206.1 567.45 205.11 570.9 206.01 574.46 206.28 576.19 205.52 579.4 205.07 580.59 204.36 583.74 204.11 586.95 204.29 589.63 202.96 591.62 199.64 592.26 197.92 594.16 197.57 597.21 199.41 611.18 198.95 616.03 198.79 617.74 198.03 618.8 196.27 619.09 193.18 621.45 191.99 625.5 191.42 629.04 192.13 636.15 192.41 638.86 191.62 644.01 188.43 649.08 186.45 651.13 185.02 653.28 187.77 656.08 189.85 656.55 191.96 656.07 194.11 656.57 195.56 657.84 195.94 658.08 197.73 656.5 198.63 653.83 199.22 651.63 200.28 650.69 201.6 649.51 206.42 649.03 209.47 649.56 215.29 649.25 218.23 647.83 220.6 645.85 227.01 644.2 228.94 642.19 230.35 641.78 231.61 642.55 235.12 643.44 236.74 Z" id="TR-21" data-name="Diyarbakir"/>
<path d="M 674.36 239.43 662.01 248.4 655.64 249.71 651.16 246.88 648.23 240.79 645.3 237.09 643.44 236.74 642.55 235.12 641.78 231.61 642.19 230.35 644.2 228.94 645.85 227.01 647.83 220.6 649.25 218.23 649.56 215.29 649.03 209.47 649.51 206.42 650.69 201.6 651.63 200.28 653.83 199.22 656.5 198.63 658.08 197.73 657.84 195.94 662.45 194.88 665.99 196.25 667.43 203.44 668.4 206.35 668.54 212.59 666.66 214.8 665.8 217.65 663.73 220.06 658.91 221.37 657.53 223.78 657.87 227.27 662.35 231.42 669.93 234.47 674.36 239.43 Z" id="TR-72" data-name="Batman"/>
<path d="M 724.65 238.49 724.17 241.46 721.61 244.06 714.55 243.4 705.74 242.11 697.31 239.93 691.8 239.71 688.54 242.97 680.27 242.32 674.36 239.43 669.93 234.47 662.35 231.42 657.87 227.27 657.53 223.78 658.91 221.37 663.73 220.06 665.8 217.65 666.66 214.8 668.54 212.59 672.82 214.24 677.33 214.61 680.93 213.66 684.5 212.29 687.31 213.6 689.75 216.09 692.45 218.14 695.45 219.38 700.24 220.92 702.81 222.85 707.02 225.24 709.86 227.27 711.44 227.17 712.72 225.25 712.66 219.55 713.61 218.25 714.79 214.73 718.05 214.51 721.41 215.14 724.36 216.28 724.9 224.35 724.15 228.73 724.01 231.81 722.99 234.55 724.65 238.49 Z" id="TR-56" data-name="Siirt"/>
<path d="M 591.7 86.37 593.2 85.61 592.93 84.27 595.03 84.07 597.57 86.96 599.28 87.93 602.86 88.04 606.32 89.15 608.12 89.1 612.24 88.08 616.52 88.1 619.02 87.41 620.36 90.73 621.54 98.17 622.58 101.55 625.16 102.97 629.1 104.11 631.86 104.37 631.96 105.49 629.8 108.9 624.6 110.75 622.26 111.88 618.67 115.04 617.16 115.28 610.35 114.46 603.54 113.07 601.57 113.84 599.88 115.38 595.42 115.4 593.17 116.22 591.65 112.84 590.76 109.19 591.43 105.63 592.79 102.47 593.09 94.45 591.7 86.37 Z" id="TR-69" data-name="Bayburt"/>
<path d="M 562.96 74.81 564.62 75.51 566.16 73.8 567.92 74.83 568.55 78.05 571.33 80.96 581.07 84.91 583.55 85.23 585.06 84.3 585.55 82.06 586.84 81.08 589.7 83.01 591.7 86.37 593.09 94.45 592.79 102.47 591.43 105.63 590.76 109.19 591.65 112.84 593.17 116.22 589.78 120.57 585.13 121.67 582.87 122.8 575.57 123.12 573 122.83 568.05 120.82 566.65 119.17 559.01 114.9 556.48 114.37 554.16 113.14 554.53 111.3 553.38 109.83 553.01 107.93 553.07 102.31 553.98 101.19 558.17 98.86 559.43 97.83 558.73 95.55 556.43 93.42 551.51 92.23 550.36 90.81 550.63 85.96 553.13 82.58 552.58 80.89 553.09 79.47 555.64 77.58 557.46 76.85 557.96 75.41 562.96 74.81 Z" id="TR-29" data-name="Gümüshane"/>
</g>
</svg>