<?xml version="1.0"?>
<svg xmlns="http://www.w3.org/2000/svg" version="1.2" baseProfile="tiny" width="800" height="706" viewBox="0 0 800 706" stroke-linecap="round" stroke-linejoin="round">
<g id="MLOC-ZA">
<path d="M 299.82 213.25 303.91 214.24 303.76 229.43 309.26 231.47 310.98 228.8 314.12 215.61 317.58 215.93 317.89 212.31 321.03 212.63 323.07 206.5 336.42 208.07 335.32 211.53 329.35 210.43 329.04 213.73 332.97 214.98 329.04 221.73 332.02 225.82 331.39 233.2 340.5 235.87 346.47 240.58 342.23 247.17 359.34 255.34 360.6 254.08 363.27 254.24 366.25 256.75 367.98 262.4 367.35 265.07 365 266.96 361.7 275.59 367.49 279.89 370.96 281.13 368.6 287.47 368.94 293.53 372.45 295.89 371.28 299.58 372.3 302.17 386.64 298.97 388.23 299.97 386.89 303.11 388.47 304.37 384.45 310.75 385.31 312.49 388.56 315.06 388.14 318.38 392.09 321.8 396.54 316.32 397.02 311.05 400.43 306.77 399.46 298.27 400.57 296.73 405.51 294.95 404.75 298.05 406.44 299.12 414.07 299.03 416.73 300.25 407.75 311.14 406.9 311.31 412.14 321.63 416.09 320.07 415.91 322.65 413.02 329.32 410.56 331.35 411.35 333.81 410.18 339.49 407.9 344.97 407.71 348.47 409.32 352.19 398.67 375.47 383.4 407.79 384.56 411.39 386.71 414.25 392.57 417.15 394.8 419.94 398.79 421.6 399.41 424.65 401.2 426 404.96 426.79 410.91 438.75 416.85 443.36 417.54 446.02 421.81 449.92 424.42 453.08 428.73 456.18 429.54 458.01 433.01 458.14 438.15 461.97 438.9 470.03 440.8 472.64 439.15 476.48 440.05 480.14 438.38 483.61 438.62 485.54 437.08 489.25 434.25 492.97 432.44 496.78 425.88 495.3 418.51 498.87 413.88 499.98 408.03 504.32 404.02 505.96 393.98 506.69 391.74 515.3 391.11 523.97 383.1 524.79 378.58 526.5 374.33 527.01 373.98 528.83 370.11 527.83 367.96 524.81 365.04 525.22 363.63 527.27 360.19 529.4 357.9 527.58 357.54 525.27 352.2 521.83 348.78 521.37 343.75 522.69 337.72 522.62 332.46 526.6 327.02 534.55 321.63 539.51 319.53 534.35 315.47 532.63 306.4 531.34 303.5 529.57 299.07 528.07 296.95 524.85 292.84 521 283.81 516.28 282.41 518.26 276.66 532.51 273.96 534.73 273.37 540.72 274.56 544.15 268.25 552.09 265.45 554.09 262.48 554.8 255.83 553.04 251.88 553.2 247.94 554.71 246.53 557.45 241.61 560.86 235.88 562.49 232.6 566.32 230.39 567.23 226.77 575.76 223.06 577.53 214.49 579.79 212.46 582.06 210.56 590.46 206.72 593.74 201.99 593.9 198.97 592.82 192.92 594.82 189.73 592.28 186.04 587.26 182.63 584.84 178.44 575.15 176.28 567.19 176.45 564.5 179.19 561.96 182.79 557.13 181.48 552.21 179.22 551.73 173.26 557.76 168.79 561.38 162.79 562.26 158.07 566 153.49 567.14 151.68 573.21 152.59 576.16 149.79 577.52 146.84 574.4 147.55 567.6 145.58 563.95 144.51 558.65 147.8 554.17 146.73 545.34 143.72 543.15 139.37 542.13 136.13 538.59 136.74 534.47 134.1 535.9 130.26 536.36 125.25 534.74 127.35 526.44 126.49 521.52 127.1 516.68 124.67 511.98 123.35 502.94 123.7 500.32 120.81 495.04 119.24 484.4 120.37 480.58 119.31 477.2 120.84 475.03 120.88 468.23 116.21 466.6 110.99 459.93 102.51 453.93 99.91 454.21 97.82 457.07 95.21 455.58 92.86 459.96 91.6 464.3 87.27 471.56 82.89 473.76 78.88 471.54 76.43 471.12 74.03 473.45 72.88 477.41 69.99 480.13 69.31 484.21 66.92 487.43 66.55 493.48 63.94 492.7 60.04 484.93 56.66 480.12 53.96 474.68 52.71 469.82 48.55 463.43 47.54 459.91 40.37 447 39.27 441.22 36.72 436.74 34.75 428.17 31.7 421 29.4 412.34 29.4 409.33 27.25 403.77 27.05 401.66 23.45 391.52 21.07 388.25 18.06 379.44 17.37 375.97 14.27 373.21 10.52 366.54 7.24 363.7 5.23 355.39 1 350.84 1.74 347.93 7.1 345.35 10.78 341.67 12.27 343.59 15.46 340.73 15.9 337.43 17.13 336.5 15.22 331.92 17.45 328.59 19.69 327.7 21.1 325.24 21.46 320.86 28.87 318.31 31.42 318.03 33.29 320.98 35.9 322.75 35.99 327.82 38.58 329.4 43.47 328.86 46.2 336.59 45.68 339.41 42.61 341.47 44.79 347.18 47.1 349.07 46.28 355.21 48.09 355.5 54.99 353.87 56.17 358.05 58.79 358.98 62.93 357.66 71.05 359.47 77.4 363.75 83.35 366.17 90.26 364.95 94.58 366 98.56 364.74 111.5 362.72 121.65 364.21 124.19 367.52 127.83 369.36 131.71 368.58 137.9 364.45 136.08 361.3 135.94 358.94 137.95 356.06 139.81 356.95 144.98 355.72 147.32 353.76 148.72 349.32 151.5 345.62 157.31 344.78 160.21 343.19 163.98 342.61 167.43 339.9 171.56 339.61 171.63 311.07 171.62 277.25 171.61 240.57 171.6 219.27 171.58 192 171.58 155.81 171.57 140.79 178.23 147.34 180.19 147.68 183.91 149.95 190.18 155.16 194.07 162.41 193.56 164.1 195.95 167.15 198.8 173.9 201.03 175.08 202.92 179.42 202.51 181.77 204.69 183.73 203.72 186.34 205.06 190.77 206.8 191.82 208.31 196.36 211.04 201.49 211.52 211.07 213.34 214.32 209.06 222.17 204.82 228.44 202.71 230.38 201.87 236.9 203.1 240.74 202.04 244.43 202.32 248.08 203.49 251.55 206.16 255.47 213.85 250.98 216.56 250.63 220.58 252.72 227 254.18 232.74 252.91 235.48 253.05 239.56 251.93 242.89 252.06 245.28 253.15 254.44 253.63 258.63 249.91 258.34 245.42 261.81 243.25 266.53 243.22 269.6 242.48 272.45 240.7 276.75 235.36 279.24 229.11 282.15 225.68 286.31 224.4 290.48 219.48 293.1 218.3 296.13 218.44 297.84 215.15 299.82 213.25 Z" id="ZA-NC" data-name="Northern Cape"/>
<path d="M 602.96 359.01 606.49 350.62 608.5 348.04 614.44 346.27 618.99 345.86 619.2 343.37 621.22 340.56 624.61 339.76 626.27 337.67 629.61 335.99 633.55 331.1 638.43 330.1 642.07 325.38 642.63 322.98 640.14 318.96 642.22 314.18 642.28 311.39 644.89 305.92 644.19 301.08 642.99 298.07 644.32 296.12 647.06 294.63 647.1 291.36 644.62 289.83 644.97 287.39 647.29 286.24 649.86 285.49 651.08 282.72 654.97 281.43 658.93 282.43 661.13 281.21 664.89 282.24 672.06 278.02 678.94 276.55 679.97 278.39 686.34 278.5 690.58 276.63 693.72 277.06 698.9 279.78 702.22 278.52 706.04 280.9 712.13 279.22 714.35 279.22 718.9 274.22 729.33 277.84 732.59 278.5 754.06 278.8 753.04 275.47 752.79 267.02 755.22 252.71 755.12 251.08 759.16 251.24 762.56 253.11 766.44 252.88 772.72 253.91 799 253.14 797.65 262.47 796.39 268.27 794.66 270.71 793.55 275.5 788.48 289.99 784.34 309.76 784.68 312.05 782.03 326.79 777.95 333.22 776.11 337.37 776.41 339.99 774.04 346.82 769.85 351.14 766.56 353.45 765.01 355.87 759.67 360.48 758.34 359.37 755.31 360.86 756.19 364.2 750.18 367.43 744.38 367.3 743.55 369.74 734.1 380.62 730.74 383.28 727.76 387.87 724.74 390.13 724.24 391.84 716.09 402.83 709.7 415.67 707.77 420.06 708.16 423.85 703.11 428.49 699.35 434.38 696.63 440.79 689.59 453.3 688.03 457.25 685.74 459.75 677.48 475.19 673.98 478.89 672.44 482.22 667.93 488.27 665.26 484.74 664.52 480.14 661.5 475.87 657.16 474.33 655.42 471.22 653.56 471.41 648.39 467.37 646.49 467.98 641.92 466.04 639.09 466.21 632.95 462.37 627.57 463.3 625.37 464.35 620.52 462.24 618.9 463.34 615.53 460.16 617.73 458.67 619.55 451.99 624.22 448.49 624.28 445.32 618.32 443.5 616.11 441.23 614.75 437.21 615.43 431.84 610.58 426.25 616.82 422.95 616.28 419.15 614.95 417.67 615.34 413.45 617.65 408.79 623.35 405.81 623.18 401.27 624.58 397.61 628.68 395.99 631 390.67 627.18 381.81 625.21 379.81 624.96 376.61 619.94 375.44 615.93 371.19 612.52 369.69 611.78 367.34 608.88 366.56 606.21 363.81 602.96 359.01 Z" id="ZA-NL" data-name="KwaZulu-Natal"/>
<path d="M 438.15 461.97 433.01 458.14 429.54 458.01 428.73 456.18 424.42 453.08 421.81 449.92 417.54 446.02 416.85 443.36 410.91 438.75 404.96 426.79 401.2 426 399.41 424.65 398.79 421.6 394.8 419.94 392.57 417.15 386.71 414.25 384.56 411.39 383.4 407.79 398.67 375.47 409.32 352.19 407.71 348.47 407.9 344.97 410.18 339.49 411.35 333.81 410.56 331.35 413.02 329.32 415.91 322.65 416.09 320.07 418.03 319.52 420.38 316.17 421.7 312.41 423.88 312.04 426.37 309.58 427.12 306.57 429.04 304.63 431.65 304.09 435.91 300.39 440.84 299.21 443.66 297.34 446.55 298.36 449.16 296.22 454.24 293.28 457.92 295.49 464.02 296.49 464.71 300 468.96 293.59 475.13 288.27 476.16 284.8 481.63 282.66 488.73 283.04 485.9 280.8 487.61 278.5 487.64 275.38 484.01 271.18 487.82 269.09 489.87 266.9 492.33 266.7 492.29 264.33 495.37 261.49 498.25 260.69 502.6 257.6 505.7 256.78 508.63 259.08 508.45 255.52 514.76 257.64 521.27 257.4 522.46 258.9 527.57 254.02 528.96 253.81 532.43 255.77 535.96 254.65 537.44 252.39 537.86 249.57 540.93 247.23 543.89 248.67 550.23 247.93 555.5 246.51 557.59 244.14 559.75 243.62 560.77 247.16 563.35 251.6 568.91 253.92 570.9 256.29 573.65 255.72 576.93 257.73 579.97 257.87 581.94 260.58 584.56 259.54 586.45 261.7 590.04 262.46 592.38 262.06 592.89 259.11 601.2 263.66 603.69 263.94 607.8 261.25 612.6 263.18 612.88 265.67 615.92 269.93 618.45 269.06 631.31 275.35 633.36 280.22 639.71 288.96 643.57 288.27 644.47 286.19 647.29 286.24 644.97 287.39 644.62 289.83 647.1 291.36 647.06 294.63 644.32 296.12 642.99 298.07 644.19 301.08 644.89 305.92 642.28 311.39 642.22 314.18 640.14 318.96 642.63 322.98 642.07 325.38 638.43 330.1 633.55 331.1 629.61 335.99 626.27 337.67 624.61 339.76 621.22 340.56 619.2 343.37 618.99 345.86 614.44 346.27 608.5 348.04 606.49 350.62 602.96 359.01 599.5 357.67 597.37 354.39 595.21 354.33 593.61 349.28 591.32 347.9 587.59 350.03 580.82 350.48 576.63 354.97 568.75 355.1 562.13 363.66 560.12 364.99 556.92 363.88 554.48 366.92 548.94 366.54 545.06 373.1 544.94 375.27 542.41 379.05 537.94 384.19 538.32 386.13 534.65 387.84 534.29 390.09 532.36 391.88 532.92 393.69 529.38 398.6 524.37 402.2 518.59 404.03 513.34 406.48 512.73 408.77 515.1 410.46 516.94 413.45 522.28 426.25 525.54 429.32 527.82 434.84 531.15 435.46 529.32 439.41 530.98 445.01 529.6 445.44 528.9 452.4 527.09 454.92 522.79 454.76 519.03 455.67 518.3 457.76 513.13 457.44 513.82 460.71 510.07 461.59 508.82 464.35 504.6 465.21 501.97 463.64 498.17 465.47 490.01 464.11 487.34 462.45 485.48 458.94 479.16 460.18 476.66 458.01 473.98 457.02 472.38 454.99 470.61 457.05 466.94 456.36 463.34 457.56 461.02 459.32 458.79 457.93 456.23 462.21 450.68 465.78 446.26 464.42 445.13 461.58 438.15 461.97 Z" id="ZA-FS" data-name="Free State"/>
<path d="M 373.98 528.83 374.33 527.01 378.58 526.5 383.1 524.79 391.11 523.97 391.74 515.3 393.98 506.69 404.02 505.96 408.03 504.32 413.88 499.98 418.51 498.87 425.88 495.3 432.44 496.78 434.25 492.97 437.08 489.25 438.62 485.54 438.38 483.61 440.05 480.14 439.15 476.48 440.8 472.64 438.9 470.03 438.15 461.97 445.13 461.58 446.26 464.42 450.68 465.78 456.23 462.21 458.79 457.93 461.02 459.32 463.34 457.56 466.94 456.36 470.61 457.05 472.38 454.99 473.98 457.02 476.66 458.01 479.16 460.18 485.48 458.94 487.34 462.45 490.01 464.11 498.17 465.47 501.97 463.64 504.6 465.21 508.82 464.35 510.07 461.59 513.82 460.71 513.13 457.44 518.3 457.76 519.03 455.67 522.79 454.76 527.09 454.92 528.9 452.4 529.6 445.44 530.98 445.01 534.95 445.25 536.59 448.12 541.14 453.04 541.71 455.04 548.76 461.24 552.49 462.05 554.89 461.63 558.14 463.53 563.88 464.03 565.5 459.96 568.08 455.63 567.69 452.5 571.82 449.23 572.68 445.97 570.86 444.37 571.72 442.48 575.05 441.29 578.91 436.4 583.39 435.71 586.7 434.01 592.3 434.84 603.01 431.18 610.58 426.25 615.43 431.84 614.75 437.21 616.11 441.23 618.32 443.5 624.28 445.32 624.22 448.49 619.55 451.99 617.73 458.67 615.53 460.16 618.9 463.34 620.52 462.24 625.37 464.35 627.57 463.3 632.95 462.37 639.09 466.21 641.92 466.04 646.49 467.98 648.39 467.37 653.56 471.41 655.42 471.22 657.16 474.33 661.5 475.87 664.52 480.14 665.26 484.74 667.93 488.27 661.46 497.41 658.89 500.45 651.81 507.24 647.94 508.56 640.65 516.41 636.15 520.03 629.52 522.79 628.86 525.72 622.51 533.04 620.2 537.63 616.99 539.13 614.5 543.93 608.52 550.42 603.51 557.33 600.5 559.51 591.21 568.33 587.88 573.19 578.87 579.86 578.72 580.77 571.46 585.44 568.78 586.24 566.6 589.01 565.79 591.96 556.22 600.8 552.95 602.96 548.23 604.79 542.26 610.77 538.83 612.09 536.92 614.34 531.1 619.23 519.58 626.34 517.53 629.01 511.88 631.63 508.69 632.29 505.97 634.69 502.64 635.25 495.4 638.57 489.06 642.44 485.16 643.06 481.03 642.45 477.96 643.08 474.99 641.51 468.52 640.2 461.85 639.84 453.6 641.75 448.43 644.77 446.24 648.28 445.53 653.59 449.66 657.97 444.5 659.6 439.01 658.37 435.38 658.69 428.92 655.65 424.79 654.54 420.34 654.45 413.14 655.89 411.22 657.42 411.9 659.83 407.71 664.53 408.53 667.73 402.08 667.51 398.29 666.63 395.21 667.22 390.09 666.02 385.34 663 379.43 662.28 374.76 659.97 366.07 659.17 362.93 658.14 357.75 657.6 349.12 655.57 349.34 652.95 351.61 649.26 345.62 646.32 344.68 644.83 336.05 643.92 339.49 639.9 348.28 635.94 348.98 634.52 346.56 631.27 345.62 627.3 339.5 623.61 330.95 621.65 319.67 621.13 313.64 622 306.07 621.8 305.86 617.51 314.14 604.02 314.17 599.29 315.97 595.22 318.28 592.06 321.84 589.55 327.72 587.37 334.13 587.35 336.24 585.07 331.76 579.25 331.95 576.52 329.76 569.89 330.03 565.24 334.05 561.21 337.6 561.58 339.96 560.39 347.47 559.5 349.15 558.47 350.98 554.59 355.03 552.09 361.27 553.94 368.23 550.87 371.21 548.01 372.78 541.03 375.66 538.08 373.14 532.7 373.98 528.83 Z" id="ZA-EC" data-name="Eastern Cape"/>
<path d="M 748.63 98 744.91 98.12 742.73 100.04 741.62 102.62 737.79 100.7 736.18 102.49 733.1 102.43 728.66 101.17 727.06 102.85 722.98 104.26 720.39 104.07 719.08 105.33 716.87 101.85 712.39 105.14 711.69 108.21 709.49 110.09 709.88 117.08 716.47 116.53 718.83 119.43 714.9 120.14 715.14 123.28 717.5 123.05 719.62 127.05 717.73 129.64 709.57 130.2 705.8 130.98 705.42 128.06 700.93 128.5 695.59 124.73 693.75 127.37 694.1 131.01 691.12 132.9 693.39 137.53 691.51 139.1 690.41 143.66 688.53 145.85 683.89 148.68 682.32 150.56 678.87 145.38 675.42 146.8 667.33 145.62 666.94 148.68 667.41 154.57 665.6 155.2 665.52 159.28 664.42 159.99 660.11 157.24 657.36 158.42 658.77 161.4 658.61 171.21 652.88 171.84 651.55 173.41 648.25 173.02 647.23 174.59 642.44 173.25 640.01 174.75 635.46 175.45 626.98 175.06 626.43 173.57 622.82 173.49 620.07 175.3 617.87 169.72 614.65 170.43 614.26 168.86 611.67 167.84 611.9 161.01 614.02 161.32 615.99 159.36 613.39 157.16 610.96 156.45 608.29 157.24 606.8 153.55 604.84 151.04 601.68 150.17 596.77 150.31 590.94 153.47 591.8 156.14 588.87 157.77 583.51 159.67 578.45 163.5 580.27 165.38 583.94 164.68 590.65 161.85 593.44 166.66 590.91 167.96 586.83 167.85 582.27 170.67 578.89 170.05 575.49 170.4 572.44 165.49 567.41 164.12 565.3 161.38 567.26 159.26 571.5 160.05 572 157.54 569.84 155.59 565.99 153.88 559.56 152.58 556.66 153.55 549.41 152.67 547.05 153.77 545.06 151.81 541.16 153.2 540.87 155.54 539.14 158.35 536.33 156.36 530.43 156.54 526.69 153.73 521.49 152.89 519.79 150.07 516.49 147.35 515.32 145.32 514.71 139.94 513.74 138.59 509.92 142.1 501.35 146.2 498.42 145.99 494.47 144.12 486.16 143.32 483.97 139.53 483.66 133.71 486.84 130.43 489.84 124.41 494.32 121.25 498.72 116.79 503.01 115.39 505.32 113.18 506.35 106.13 509.76 92 509.62 89.49 512.82 81.15 516.03 81.7 515.61 78.95 518.13 76.83 518.81 74.75 522.62 74.64 522.46 73 526.14 71.49 529.63 67.67 537.27 67.01 539.3 66.05 540 62.79 542.17 58.42 544.07 59 546.56 57.19 549.25 58.64 550.12 54 552.26 52.5 556.14 51.17 558.6 48.51 558.18 45.06 562.28 43.1 563.63 41.24 563.51 38.37 566.26 37.3 569.11 34.26 569.22 31.61 570.75 29.66 573.39 28.81 577.67 25.08 583.54 24.29 586.61 25.09 588.42 23.94 591.53 23.93 596.76 21.36 600.91 20.25 602.36 17.99 605.56 18.19 608.25 14.33 607.88 10.65 612.14 5.92 618.02 5.59 620.61 3.92 628.18 4.49 632.02 2.7 635.66 3.41 636.59 2.02 641.96 1 646.69 1.23 650.5 3.41 655.82 4.77 659.16 6.28 664.97 9.77 670.09 9.91 673.02 12.05 678.46 12.05 683.06 10.61 689.14 11.72 692.13 10.26 699.13 9.18 712.08 11.86 714.94 11.3 717.38 13.36 719.91 13.55 725.22 30.71 733.07 55.27 733.37 56.87 732.35 68.95 733.55 73.01 738.22 78.08 741.05 86.63 743.02 91.29 747.76 95.6 748.63 98 Z" id="ZA-LP" data-name="Limpopo"/>
<path d="M 416.09 320.07 412.14 321.63 406.9 311.31 407.75 311.14 416.73 300.25 414.07 299.03 406.44 299.12 404.75 298.05 405.51 294.95 400.57 296.73 399.46 298.27 400.43 306.77 397.02 311.05 396.54 316.32 392.09 321.8 388.14 318.38 388.56 315.06 385.31 312.49 384.45 310.75 388.47 304.37 386.89 303.11 388.23 299.97 386.64 298.97 372.3 302.17 371.28 299.58 372.45 295.89 368.94 293.53 368.6 287.47 370.96 281.13 367.49 279.89 361.7 275.59 365 266.96 367.35 265.07 367.98 262.4 366.25 256.75 363.27 254.24 360.6 254.08 359.34 255.34 342.23 247.17 346.47 240.58 340.5 235.87 331.39 233.2 332.02 225.82 329.04 221.73 332.97 214.98 329.04 213.73 329.35 210.43 335.32 211.53 336.42 208.07 323.07 206.5 321.03 212.63 317.89 212.31 317.58 215.93 314.12 215.61 310.98 228.8 309.26 231.47 303.76 229.43 303.91 214.24 299.82 213.25 301.96 210 301.79 208.35 304.6 206.37 304.96 202.98 304.09 201.33 306.84 197.85 305.92 194 308.74 190.33 309.17 184.28 310.69 179.22 312.78 177.56 314.38 174.35 316.11 173.36 318.58 170.06 321.72 170.88 326.43 168.41 331.15 167.55 336.02 168.91 340.56 168.52 342.86 171.15 345.51 172.56 351.61 177.78 354.33 178.62 359.32 183.96 363.18 187.2 365.69 186.57 368.15 188.42 373.2 187.04 375.75 187.02 377.9 188.27 381.26 192.29 385.75 194.23 389.03 193.34 394.86 195.51 399.15 197.67 402.7 197.27 405.64 197.99 410.98 196.64 413.87 194.41 417.94 193.06 424.07 194.43 434.21 193.37 437.71 191.62 443.97 186.68 447.68 177.01 449.23 170.02 456.02 154.25 456.11 152.26 458.04 147.27 457.63 139.88 462.38 139.1 464.69 137.55 477.57 133.48 483.66 133.71 483.97 139.53 486.16 143.32 494.47 144.12 498.42 145.99 501.35 146.2 509.92 142.1 513.74 138.59 514.71 139.94 515.32 145.32 516.49 147.35 519.79 150.07 521.49 152.89 526.69 153.73 530.43 156.54 536.33 156.36 539.14 158.35 540.87 155.54 541.16 153.2 545.06 151.81 547.05 153.77 549.41 152.67 556.66 153.55 559.56 152.58 565.99 153.88 569.84 155.59 572 157.54 571.5 160.05 567.26 159.26 565.3 161.38 567.41 164.12 572.44 165.49 575.49 170.4 572.65 172.35 566.29 173.37 563.7 174.86 561.42 172.74 559.7 172.9 558.75 175.41 560.79 176.28 562.84 178.71 559.46 185.23 559.07 188.29 559.41 193.26 558.44 196.78 555.17 199.28 547.98 200.65 544.29 199.05 543.76 196.61 538.16 198.78 534.94 201.02 534.26 207.6 531.8 213.87 529.15 215.35 526.74 215.12 528.39 222.73 521.92 227.9 523.34 230.7 523.79 234.5 520.27 235.68 521.63 238.37 523.83 238.18 524.45 241.92 528.89 240.6 532.73 242.16 534.29 241.2 540.25 242.47 540.93 247.23 537.86 249.57 537.44 252.39 535.96 254.65 532.43 255.77 528.96 253.81 527.57 254.02 522.46 258.9 521.27 257.4 514.76 257.64 508.45 255.52 508.63 259.08 505.7 256.78 502.6 257.6 498.25 260.69 495.37 261.49 492.29 264.33 492.33 266.7 489.87 266.9 487.82 269.09 484.01 271.18 487.64 275.38 487.61 278.5 485.9 280.8 488.73 283.04 481.63 282.66 476.16 284.8 475.13 288.27 468.96 293.59 464.71 300 464.02 296.49 457.92 295.49 454.24 293.28 449.16 296.22 446.55 298.36 443.66 297.34 440.84 299.21 435.91 300.39 431.65 304.09 429.04 304.63 427.12 306.57 426.37 309.58 423.88 312.04 421.7 312.41 420.38 316.17 418.03 319.52 416.09 320.07 Z" id="ZA-NW" data-name="North West"/>
<path d="M 718.9 274.22 714.35 279.22 712.13 279.22 706.04 280.9 702.22 278.52 698.9 279.78 693.72 277.06 690.58 276.63 686.34 278.5 679.97 278.39 678.94 276.55 672.06 278.02 664.89 282.24 661.13 281.21 658.93 282.43 654.97 281.43 651.08 282.72 649.86 285.49 647.29 286.24 644.47 286.19 643.57 288.27 639.71 288.96 633.36 280.22 631.31 275.35 618.45 269.06 615.92 269.93 612.88 265.67 612.6 263.18 607.8 261.25 603.69 263.94 601.2 263.66 592.89 259.11 592.38 262.06 590.04 262.46 586.45 261.7 584.56 259.54 581.94 260.58 579.97 257.87 576.93 257.73 573.65 255.72 575.97 254.41 575.98 252.23 581.05 248.39 580.19 245.96 580.74 242.97 583.24 242.54 585.83 240.45 586.94 237.87 586.94 234.57 589.61 236.3 592.51 234.73 598.48 235.2 599.89 230.33 603.19 228.92 602.25 226.01 600.44 223.89 596.12 225.54 591.73 222.95 591.41 220.68 587.09 219.18 586.94 215.02 585.29 214.08 585.56 211.55 589.45 210.39 590.26 207.41 592.04 205.76 599.03 207.88 603.5 207.49 604.37 205.76 604.05 201.58 606.96 200.18 606.98 196.45 608.65 189.6 611.35 187.04 612.34 183.48 607.19 185.38 605.94 183.03 603.66 183.26 602.72 180.2 600.28 182.48 602.01 184.36 602.95 187.35 600.68 188.21 601.54 190.72 598.32 191.35 598.56 188.13 596.67 187.19 595.65 190.09 593.77 189.07 591.73 181.69 591.49 176.12 592.51 174.47 591.8 171.25 596.99 168.43 599.26 165.6 597.75 159.54 595.65 159.79 590.65 161.85 583.94 164.68 580.27 165.38 578.45 163.5 583.51 159.67 588.87 157.77 591.8 156.14 590.94 153.47 596.77 150.31 601.68 150.17 604.84 151.04 606.8 153.55 608.29 157.24 610.96 156.45 613.39 157.16 615.99 159.36 614.02 161.32 611.9 161.01 611.67 167.84 614.26 168.86 614.65 170.43 617.87 169.72 620.07 175.3 622.82 173.49 626.43 173.57 626.98 175.06 635.46 175.45 640.01 174.75 642.44 173.25 647.23 174.59 648.25 173.02 651.55 173.41 652.88 171.84 658.61 171.21 658.77 161.4 657.36 158.42 660.11 157.24 664.42 159.99 665.52 159.28 665.6 155.2 667.41 154.57 666.94 148.68 667.33 145.62 675.42 146.8 678.87 145.38 682.32 150.56 683.89 148.68 688.53 145.85 690.41 143.66 691.51 139.1 693.39 137.53 691.12 132.9 694.1 131.01 693.75 127.37 695.59 124.73 700.93 128.5 705.42 128.06 705.8 130.98 709.57 130.2 717.73 129.64 719.62 127.05 717.5 123.05 715.14 123.28 714.9 120.14 718.83 119.43 716.47 116.53 709.88 117.08 709.49 110.09 711.69 108.21 712.39 105.14 716.87 101.85 719.08 105.33 720.39 104.07 722.98 104.26 727.06 102.85 728.66 101.17 733.1 102.43 736.18 102.49 737.79 100.7 741.62 102.62 742.73 100.04 744.91 98.12 748.63 98 749.26 108.69 753.72 118.41 754.95 122.51 754.81 130.31 754.9 146.78 755.05 173.39 753.97 179.15 754.94 183.07 755.19 188.33 753.38 190.21 751.32 195.62 751.23 198.73 753.13 204.95 750.35 206.35 747.56 206.25 727.75 193.37 725.08 192.98 722.03 194.11 712.83 202.36 708.84 212.63 705.54 218.54 697.51 228.75 696.45 232.81 696.59 246.1 697.4 251.11 701.18 249.11 702.27 252.33 705.11 256.68 704.55 260.18 705.84 263.44 710.83 267.98 714.64 272.75 718.9 274.22 Z" id="ZA-MP" data-name="Mpumalanga"/>
<path d="M 63.94 492.7 66.55 493.48 66.92 487.43 69.31 484.21 69.99 480.13 72.88 477.41 74.03 473.45 76.43 471.12 78.88 471.54 82.89 473.76 87.27 471.56 91.6 464.3 92.86 459.96 95.21 455.58 97.82 457.07 99.91 454.21 102.51 453.93 110.99 459.93 116.21 466.6 120.88 468.23 120.84 475.03 119.31 477.2 120.37 480.58 119.24 484.4 120.81 495.04 123.7 500.32 123.35 502.94 124.67 511.98 127.1 516.68 126.49 521.52 127.35 526.44 125.25 534.74 130.26 536.36 134.1 535.9 136.74 534.47 136.13 538.59 139.37 542.13 143.72 543.15 146.73 545.34 147.8 554.17 144.51 558.65 145.58 563.95 147.55 567.6 146.84 574.4 149.79 577.52 152.59 576.16 151.68 573.21 153.49 567.14 158.07 566 162.79 562.26 168.79 561.38 173.26 557.76 179.22 551.73 181.48 552.21 182.79 557.13 179.19 561.96 176.45 564.5 176.28 567.19 178.44 575.15 182.63 584.84 186.04 587.26 189.73 592.28 192.92 594.82 198.97 592.82 201.99 593.9 206.72 593.74 210.56 590.46 212.46 582.06 214.49 579.79 223.06 577.53 226.77 575.76 230.39 567.23 232.6 566.32 235.88 562.49 241.61 560.86 246.53 557.45 247.94 554.71 251.88 553.2 255.83 553.04 262.48 554.8 265.45 554.09 268.25 552.09 274.56 544.15 273.37 540.72 273.96 534.73 276.66 532.51 282.41 518.26 283.81 516.28 292.84 521 296.95 524.85 299.07 528.07 303.5 529.57 306.4 531.34 315.47 532.63 319.53 534.35 321.63 539.51 327.02 534.55 332.46 526.6 337.72 522.62 343.75 522.69 348.78 521.37 352.2 521.83 357.54 525.27 357.9 527.58 360.19 529.4 363.63 527.27 365.04 525.22 367.96 524.81 370.11 527.83 373.98 528.83 373.14 532.7 375.66 538.08 372.78 541.03 371.21 548.01 368.23 550.87 361.27 553.94 355.03 552.09 350.98 554.59 349.15 558.47 347.47 559.5 339.96 560.39 337.6 561.58 334.05 561.21 330.03 565.24 329.76 569.89 331.95 576.52 331.76 579.25 336.24 585.07 334.13 587.35 327.72 587.37 321.84 589.55 318.28 592.06 315.97 595.22 314.17 599.29 314.14 604.02 305.86 617.51 306.07 621.8 313.64 622 319.67 621.13 330.95 621.65 339.5 623.61 345.62 627.3 346.56 631.27 348.98 634.52 348.28 635.94 339.49 639.9 336.05 643.92 344.68 644.83 345.62 646.32 351.61 649.26 349.34 652.95 349.12 655.57 339.02 657.48 335.79 660.67 338.08 663.21 317.49 661.17 315.13 661.61 308.53 658.84 300.25 656.51 297.05 656.6 293.74 659.06 289.59 660.61 283.02 660.14 278.84 661.17 275.65 663.83 275.19 668.14 268.87 669.09 265.84 671.24 265.94 674.12 264.52 676.5 259.38 679.16 255.19 679.71 246.12 677.45 242.38 678.63 238.01 681.39 233.8 681.53 225.83 678.54 219.17 677.67 212.48 679.69 214.64 682.5 213.33 684.09 204.74 682.53 197.94 683.46 194.22 685.76 191.56 689.39 185.94 693.11 182.74 696.31 179.58 697.5 175.98 700.15 175.26 703.59 173.21 705 170.19 704.39 165.57 700.9 157.78 701.14 155.08 702.23 148.14 695.85 143.23 692.16 138.47 692.45 141.36 688.44 141.36 686.18 138.65 681.32 133.95 681.36 129.66 680.3 128.15 676.89 124.44 676.64 114.54 678.18 114.81 673.83 116 670.83 115.23 667.62 116.96 665.58 114.92 662.45 111.26 661.3 102.23 661.09 98.51 663.03 96.72 665.22 98.42 671.14 97.99 675.04 95 674.49 92.48 667.05 90.63 666 92.13 661.18 90.56 658.46 93.34 652.37 94.92 651.09 98.36 650.89 99.01 648.73 97.86 646.1 96.25 639.01 94.26 635.09 90.83 631.47 90.2 626.33 87.61 622.84 82.36 619.14 82.56 617.01 78.92 610.21 74.86 607.2 73.07 604.39 75.55 603.8 77.23 601.29 75.24 598.74 71.02 601.23 69.36 597.41 68.54 592.63 69.48 590.81 68.09 588.62 70.54 585.57 70.69 582.62 73.68 581.33 77.08 584.98 79.18 585.82 82.65 584.08 88.53 578.1 90.36 573.79 91.5 569.09 91.45 562.79 90.59 560.59 92.24 555.8 90.36 548.28 89.82 542.15 88.67 538.42 88.72 534.71 86.71 531.01 85.65 525.44 83.66 521.59 75.72 509.81 70.1 503.44 69.03 499.35 66.45 497.03 63.94 492.7 Z" id="ZA-WC" data-name="Western Cape"/>
<path d="M 573.65 255.72 570.9 256.29 568.91 253.92 563.35 251.6 560.77 247.16 559.75 243.62 557.59 244.14 555.5 246.51 550.23 247.93 543.89 248.67 540.93 247.23 540.25 242.47 534.29 241.2 532.73 242.16 528.89 240.6 524.45 241.92 523.83 238.18 521.63 238.37 520.27 235.68 523.79 234.5 523.34 230.7 521.92 227.9 528.39 222.73 526.74 215.12 529.15 215.35 531.8 213.87 534.26 207.6 534.94 201.02 538.16 198.78 543.76 196.61 544.29 199.05 547.98 200.65 555.17 199.28 558.44 196.78 559.41 193.26 559.07 188.29 559.46 185.23 562.84 178.71 560.79 176.28 558.75 175.41 559.7 172.9 561.42 172.74 563.7 174.86 566.29 173.37 572.65 172.35 575.49 170.4 578.89 170.05 582.27 170.67 586.83 167.85 590.91 167.96 593.44 166.66 590.65 161.85 595.65 159.79 597.75 159.54 599.26 165.6 596.99 168.43 591.8 171.25 592.51 174.47 591.49 176.12 591.73 181.69 593.77 189.07 595.65 190.09 596.67 187.19 598.56 188.13 598.32 191.35 601.54 190.72 600.68 188.21 602.95 187.35 602.01 184.36 600.28 182.48 602.72 180.2 603.66 183.26 605.94 183.03 607.19 185.38 612.34 183.48 611.35 187.04 608.65 189.6 606.98 196.45 606.96 200.18 604.05 201.58 604.37 205.76 603.5 207.49 599.03 207.88 592.04 205.76 590.26 207.41 589.45 210.39 585.56 211.55 585.29 214.08 586.94 215.02 587.09 219.18 591.41 220.68 591.73 222.95 596.12 225.54 600.44 223.89 602.25 226.01 603.19 228.92 599.89 230.33 598.48 235.2 592.51 234.73 589.61 236.3 586.94 234.57 586.94 237.87 585.83 240.45 583.24 242.54 580.74 242.97 580.19 245.96 581.05 248.39 575.98 252.23 575.97 254.41 573.65 255.72 Z" id="ZA-GT" data-name="Gauteng"/>
</g>
</svg>