<?xml version="1.0"?>
<svg xmlns="http://www.w3.org/2000/svg" version="1.2" baseProfile="tiny" width="800" height="630" viewBox="0 0 800 630" stroke-linecap="round" stroke-linejoin="round">
<g id="MLOC-AE">
<path d="M 793.33 144.31 798.95 139.32 796.13 159.85 795.51 185.64 782.79 183.78 786.16 194.37 782.25 207 780.3 209.25 777.52 202.33 765.69 189.64 762.65 188.37 760.9 179.37 762.83 167.78 762.99 157.92 769.73 156.65 774.54 159.49 784.05 153.14 792.55 149.35 793.33 144.31 Z M 778.66 137.52 774.19 140.92 762.42 136.85 756.91 140.6 764.45 145.81 759.69 149.68 758.61 154.95 753.5 158.21 733.17 156.9 731.7 146.51 736.62 141.07 732.65 137.4 735.67 128.38 740.17 132.88 748.27 135.32 752.8 134.56 758.1 129.97 757.81 126.21 750.66 121.67 756.66 112.82 752.77 106.46 746.01 108.92 737.39 109.24 732.58 107.34 729.78 92.45 731.78 88.78 739.14 87.31 746.86 80.49 751.59 80.98 760.74 77.52 766.76 79.83 772.18 85.63 781.72 83.13 791.82 87.33 796.79 101.82 795.96 120.63 780.62 132.36 778.66 137.52 Z M 787.56 214.21 780.99 221.52 777.39 217.35 781.15 213.85 787.56 214.21 Z" fill-rule="evenodd" id="AE-FU" data-name="Fujayrah"/>
<path d="M 798.95 139.32 793.33 144.31 786.74 142.97 783.65 138.17 778.66 137.52 780.62 132.36 795.96 120.63 795.17 130.89 798.95 139.32 Z M 782.25 207 786.16 194.37 782.79 183.78 795.51 185.64 799 202.11 790 203.12 787.85 210.94 782.25 207 Z M 731.7 146.51 733.17 156.9 727.69 165.66 731.93 171.55 727.28 182.74 727.18 190.15 731.46 203.22 724.76 202.2 718.38 203.86 707.18 212.53 702.16 218.94 700.43 224.58 701.81 238.61 701.1 248.84 702.29 254.13 693.84 254.57 680.9 251.26 682.58 240.27 679.83 226.93 679.29 217.23 672.39 198.25 678.72 188.11 673.91 168.05 669.28 161.47 648.23 146.75 644.1 141.98 632.34 144.56 623.54 141.92 629.91 138.81 640.06 125.89 643.92 128.43 654.72 131.53 668.73 132.29 674.5 122.47 662.08 119.08 651.27 113.85 655.09 104.1 673.44 116.74 685.12 121.51 695.92 130.58 699.32 135.14 703.41 145.77 712.8 146.84 719.59 144.11 719.77 135.49 723.55 134.49 729.78 127.71 735.67 128.38 732.65 137.4 729.62 142.02 731.7 146.51 Z M 762.65 188.37 765.69 189.64 777.52 202.33 780.3 209.25 781.15 213.85 777.39 217.35 769.31 216.29 765.48 212.29 766.87 205.69 760.69 191.58 762.65 188.37 Z" fill-rule="evenodd" id="AE-SH" data-name="Sharjah"/>
<path d="M 769.73 156.65 762.99 157.92 762.83 167.78 760.9 179.37 762.65 188.37 760.69 191.58 766.87 205.69 765.48 212.29 769.31 216.29 777.39 217.35 780.99 221.52 775.52 226.91 763.87 230.27 752.98 230.94 739.65 219.58 736.39 206.14 731.46 203.22 727.18 190.15 727.28 182.74 731.93 171.55 727.69 165.66 733.17 156.9 753.5 158.21 758.61 154.95 759.69 149.68 764.45 145.81 756.91 140.6 762.42 136.85 774.19 140.92 774.44 149.18 770 151.39 769.73 156.65 Z M 760.74 77.52 751.59 80.98 746.86 80.49 739.14 87.31 731.78 88.78 729.78 92.45 732.58 107.34 737.39 109.24 746.01 108.92 752.77 106.46 756.66 112.82 750.66 121.67 757.81 126.21 758.1 129.97 752.8 134.56 748.27 135.32 740.17 132.88 735.67 128.38 729.78 127.71 723.55 134.49 715.66 126.04 715.92 118.19 709.69 111.4 707.09 98.18 702.64 83.36 693.35 76.72 697.42 72.15 709.34 67.25 715.25 62.43 724.26 50.93 727.56 56.53 730.87 43.51 737.85 36.88 738.27 31.06 744.63 16.63 748.29 3.31 762.43 1 765.87 11.88 764.42 20.73 763.73 37.26 759.41 44.42 759.35 50.31 763.2 55.5 758.87 63.78 760.74 77.52 Z" fill-rule="evenodd" id="AE-RK" data-name="Ras Al Khaymah"/>
<path d="M 752.98 230.94 763.87 230.27 761.13 237.08 755.06 246.44 748.1 247.44 748.04 243.48 752.98 230.94 Z M 623.54 141.92 632.34 144.56 644.1 141.98 648.23 146.75 669.28 161.47 673.91 168.05 678.72 188.11 672.39 198.25 679.29 217.23 679.83 226.93 682.58 240.27 680.9 251.26 677.09 253.78 658.83 261.3 647.67 267.75 638.05 270.61 602.93 272.03 596.28 270.59 592.54 264.4 572.12 205.49 570.66 203.63 583.33 195.05 595.7 180.43 612.63 158.74 613.35 153.3 623.54 141.92 Z" fill-rule="evenodd" id="AE-DU" data-name="Dubay"/>
<path d="M 780.3 209.25 782.25 207 787.85 210.94 787.56 214.21 781.15 213.85 780.3 209.25 Z" id="AE-X01~" data-name="Neutral Zone"/>
<path d="M 739.65 219.58 752.98 230.94 748.04 243.48 748.1 247.44 740.69 243.03 735.81 230.46 729.62 224.83 728.97 219.83 739.65 219.58 Z" id="AE-X02~" data-name="Neutral Zone"/>
<path d="M 680.9 251.26 693.84 254.57 702.29 254.13 705.33 263.23 700.68 267.51 699.66 273.62 695.65 278.69 697.94 290.21 698.1 302.83 704.11 309.5 703.53 318.32 694.7 335.64 696.95 339.38 710.12 341.83 719.41 338.05 724.38 340.14 728.95 354.36 735.1 365.46 733.27 368.34 722.79 370.93 703.48 378.85 696.08 375.1 690.37 376.65 676.92 375.67 667.67 378.39 652.54 385.53 645.41 386.88 646.2 392.79 654.99 398.95 657.65 402.92 658.93 421.87 648.98 438.83 643.51 461.27 631.9 476.25 626.59 500.27 622.92 511.31 607.14 539.04 601.98 556.36 601.4 561.7 602.45 587.95 600.66 614.16 589.65 628.56 587.15 629 495.32 616.78 426.19 607.57 380.07 601.41 310.92 592.19 241.77 582.98 169.04 573.27 161.65 569.01 109.53 501.69 74.96 456.88 40.37 412.01 5.01 365.99 1.63 357.01 2.03 340.68 1 333.7 4.53 328.57 4.7 320.53 1.77 314.01 5.05 310.29 10.03 318.58 11.79 339.02 20.88 337.6 24.28 340.07 29.3 329.82 32.41 327.46 36.29 336.57 34.59 348.2 36.86 361.38 36.86 369.44 40.8 380.08 61.02 382.38 76.36 382.4 83.56 386.83 91.94 385.48 109.58 384.91 118.65 379.95 128.93 378.84 135.07 373.31 146.02 368.83 148.07 364.84 167.63 352.6 168.66 344.02 171.89 342.17 177.51 345.74 183.47 353.94 191.75 352.71 202.14 355.18 211.5 352.62 229.39 355.18 238.12 350.14 249.3 358.09 255.92 355.18 262.44 358.19 261.77 350.11 265.56 349.29 273.89 354.52 280.22 362.28 289.39 362.83 310.6 358.46 317.52 363.2 324.24 362.63 331.24 367.04 334.52 371.4 342.45 369.86 347.06 371.4 354.66 367.41 359.52 368.82 379.68 368.96 395.83 361.38 406.3 359.65 417.44 355.18 424.24 353.94 429.4 350.21 434.93 343.25 445.83 340.07 457.47 331.07 467.34 333.99 477.85 322.8 484.42 309.67 484.02 302.98 491.07 301.14 496.52 297.04 495.51 292.69 486.69 291.54 476.98 284.99 483.29 276.62 488.94 286.56 493.02 289.63 500.37 287.81 509.42 271.53 513.64 256.89 510.09 246.95 512.09 242.32 521.13 233.95 526.5 236.55 531.33 234.39 529.91 229.08 547.95 218.47 564.41 205.69 570.66 203.63 572.12 205.49 592.54 264.4 596.28 270.59 602.93 272.03 638.05 270.61 647.67 267.75 658.83 261.3 677.09 253.78 680.9 251.26 Z M 347.06 351.46 342.22 349 357.98 338.47 365.84 338.95 377.34 332.21 386.08 340.66 396.4 343.72 398.1 348.88 395.8 353.03 390.73 354.83 379.89 352.59 376.97 348 371.98 355.53 361.07 355.98 351.58 351.76 347.06 351.46 Z M 435.55 338.95 433.9 335.72 422.58 330.88 420.76 326.14 426.63 320.84 435.14 329.82 435.55 338.95 Z M 167.62 317.74 173.69 312.41 179.37 316.51 179.93 324 170.55 334.21 164.57 324.47 167.62 317.74 Z M 291.66 332.51 283.91 327.79 276.58 326.54 298.09 316.5 304.31 307.29 312.26 311.22 309.04 320.5 293.12 327.83 291.66 332.51 Z M 467.34 300.36 459.42 297.87 459.42 295 466.14 288.69 478.76 297.87 479.63 303.76 467.34 300.36 Z M 448.08 326.73 440.75 328.55 434.28 323 437.71 315.96 442.45 315.26 448.08 326.73 Z M 457.94 312.45 459.64 316.58 455.13 323.21 450.6 315.28 454.46 310.11 457.94 312.45 Z M 123.73 282.15 128.62 289.06 124.48 293.78 119.19 287.45 123.73 282.15 Z" fill-rule="evenodd" id="AE-AZ" data-name="Abu Dhabi"/>
<path d="M 723.55 134.49 719.77 135.49 719.59 144.11 712.8 146.84 703.41 145.77 699.32 135.14 695.92 130.58 685.12 121.51 673.44 116.74 655.09 104.1 656.66 98.71 663.14 102.18 673.51 99.87 678.59 88.59 685.64 81.79 693.35 76.72 702.64 83.36 707.09 98.18 709.69 111.4 715.92 118.19 715.66 126.04 723.55 134.49 Z" id="AE-UQ" data-name="Umm Al Qaywayn"/>
<path d="M 651.27 113.85 662.08 119.08 674.5 122.47 668.73 132.29 654.72 131.53 643.92 128.43 640.06 125.89 648.02 122.54 651.27 113.85 Z M 732.65 137.4 736.62 141.07 731.7 146.51 729.62 142.02 732.65 137.4 Z" fill-rule="evenodd" id="AE-AJ" data-name="Ajman"/>
</g>
</svg>