<?xml version="1.0"?>
<svg xmlns="http://www.w3.org/2000/svg" version="1.2" baseProfile="tiny" width="800" height="809" viewBox="0 0 800 809" stroke-linecap="round" stroke-linejoin="round">
<g id="MLOC-AFRICA">
<path d="M 619.61 321.85 619.89 319.47 621.18 315.81 622.03 314.88 622.26 313.24 621.78 310.1 623.43 307.66 624.99 306.77 626.69 308.2 627.61 308.36 628.6 307.13 628.39 305.87 629.08 303.84 628.74 302.57 630.05 299.66 629.79 297.29 631.53 295.96 632.59 294.6 632.97 293.3 635.71 288.73 636.88 287.67 640.99 287.16 640.9 284.89 642.14 280.32 643.68 278.08 644.48 275.4 644.25 273.57 645.19 270.64 647.5 269.91 650.88 270.41 651.38 268.95 653.18 268.56 655.07 271.33 656.01 272.22 659.41 264.01 660.61 265.68 662.93 266.17 663.92 268.05 664.98 268.99 669.56 268.17 671.74 266.62 673.12 268.74 676.05 267.84 678.94 268.05 680.44 268.92 682.46 268.47 684.26 269.13 685.76 270.53 690.05 272.34 692.24 274.84 693.79 277.59 697.31 279.97 699.2 281.54 700.29 282.98 701.65 285.51 703.63 286.61 706.16 289.89 701.54 296.69 700.21 297.66 699.59 299.77 699.99 302.73 700.11 305.8 701.73 306.11 702.93 305.68 706.28 305.43 708.62 304.54 710.24 305.53 711.82 305.5 710.74 306.84 709.49 309.11 708.95 309.39 710.29 311.59 710.91 313.88 712.18 314.86 713.32 316.9 714.57 317.32 715.07 319.34 716.48 320.9 716.98 322.29 719.09 323.09 723.28 326.8 728.71 328.6 738.81 331.95 753.46 336.91 754.07 337.21 764.48 337.21 758.41 343.13 748.28 352.96 743.2 358.2 732.84 369.56 732.54 369.69 722.71 369.12 718.12 370.29 713.86 372.32 712.21 373.68 711.25 375.67 710.43 376.1 705.3 376.98 703.61 376.99 701.41 378.35 701.01 379.32 699.08 379.12 696.26 379.62 692.98 379.48 691.85 378.18 689.33 376.11 685.36 377.82 679.79 380.47 678.71 382.63 676.94 384.32 675.5 384.7 672.83 384.54 671.66 384.03 669.86 384.16 665.71 383.01 664.6 383.29 661.6 383.13 660.29 381.94 651.29 376.13 650.28 375.21 648.5 374.57 640.13 374.45 639.01 373.63 638.88 372.61 637.46 371.1 637.12 370.16 637.16 367.97 637.7 366.91 637.66 365.31 636.15 364.59 633.77 364.17 632.63 364.99 632.02 363.28 630.32 362.12 629.12 359.83 628.78 357.32 627.67 355.56 626.51 351.49 625.49 350.52 624.34 350.28 624.12 348.84 621.97 348.01 620.91 346.33 619.2 345 618.94 343.38 615.91 340.78 613.27 339.81 612.2 340.13 610.98 339.48 608.99 339.27 608.35 338.05 610.61 334.64 610.27 332.92 614.71 332.29 615.7 333.25 618.57 332.49 620.04 330.58 619.61 321.85 Z" id="ET" data-name_long="Ethiopia"/>
<path d="M 619.61 321.85 620.04 330.58 618.57 332.49 615.7 333.25 614.71 332.29 610.27 332.92 610.61 334.64 608.35 338.05 608.99 339.27 610.98 339.48 612.2 340.13 613.27 339.81 615.91 340.78 618.94 343.38 619.2 345 620.91 346.33 621.97 348.01 624.12 348.84 624.34 350.28 625.49 350.52 626.51 351.49 627.67 355.56 628.78 357.32 629.12 359.83 630.32 362.12 632.02 363.28 632.63 364.99 633.77 364.17 636.15 364.59 637.66 365.31 637.7 366.91 637.16 367.97 637.12 370.16 637.46 371.1 638.88 372.61 636.58 372.93 635.65 372.61 634.73 370.93 635.23 369.63 631.85 368.82 625.81 371.09 622.84 372.6 618.63 376.79 614 381.44 613.11 381.75 610.49 381.62 608.63 380.37 605.92 381.49 601.91 381.89 599.99 383.06 599.86 384.08 597.45 383.35 597.17 382.42 595.76 381.01 594.59 382.16 592.89 382.63 590.69 381.44 589.1 381.33 587.04 382.43 585.95 384.41 585.93 383.65 584.43 382.93 583.17 383.25 582.82 380.74 579.35 379.6 578.48 378.01 574.87 374.85 574.89 373.61 573.23 372.38 571.94 372.1 569.95 375.04 568.6 375.45 566.65 373.9 564.86 374.09 564.24 373.3 562.08 375.21 560.58 376.18 559.53 375.4 558.22 375.46 556.47 373.87 554 372.86 553.94 371.4 552.63 369.77 551.71 369.67 550.55 367.89 549.09 366.49 548.25 364.02 548.67 362.88 547.73 361.1 545.76 359.64 544.07 359.27 542.88 358.07 541.04 357.72 540.25 355.23 538.56 354.11 538.43 353.17 539.48 351.32 538 350.62 536.38 349.34 535.81 347.72 528.87 344.16 527.11 342.42 526.84 341.59 528.03 340.76 527.38 338.61 526.06 338.39 524.63 337.21 523.37 335.43 519.2 334.32 518.17 334.59 516.08 333.57 516.14 332.56 517.25 331.17 516.48 329.92 518.67 328.29 520.52 327.84 520.6 326.49 521.59 324.72 521.79 322.7 522.98 321.03 522.96 318.21 524.88 316.43 525.3 314.3 526 312.98 530.12 312.44 533.9 311.66 534.44 312.42 534.51 314.06 537.41 316.52 541.34 321.15 542.77 321.61 546.79 320.24 549.49 320.18 555.28 320.36 556.84 323.15 565.16 323.22 565.01 322.13 566.89 320.28 569.42 319.14 571.82 318.6 573.18 316.99 573.2 315.47 577.34 313.22 582.25 316.38 585.01 318.88 589.33 318.58 590.07 318.28 594.55 313.82 596.62 311.08 597.44 309.14 602.35 304.95 601.83 302.94 601.63 297.95 598.89 294.86 605.82 294.83 605.66 292.55 610.63 292.62 609.97 295.55 609.83 298.2 609.32 299.28 610.35 307.15 610.02 308.34 612.32 309.19 613.34 310.32 617.85 314.05 618.53 315.58 618.55 317.79 617.88 319.14 617.84 321.84 619.61 321.85 Z" id="SS" data-name_long="South Sudan"/>
<path d="M 701.01 379.32 701.41 378.35 703.61 376.99 705.3 376.98 710.43 376.1 711.25 375.67 712.21 373.68 713.86 372.32 718.12 370.29 722.71 369.12 732.54 369.69 732.84 369.56 743.2 358.2 748.28 352.96 758.41 343.13 764.48 337.21 768.23 331.47 774.48 321.88 774.48 314.76 774.48 302.84 777.61 302.3 780.55 301.31 781.13 300.6 783.99 300.55 786.29 300.08 788.33 299.23 790.88 297.29 791.53 295.7 793.85 294.97 796.26 296.08 799 296.63 798.53 298.56 797.21 300.12 796.85 303.49 797.77 303.8 797.15 305.56 797.39 308.92 798.46 311.58 796.89 311.77 795.19 312.61 794.91 315.83 793.93 320.05 794.29 321.83 793.54 323.28 792.58 323.91 792.29 325.48 789.93 328.15 788.56 332.05 787.16 333.8 786.14 335.81 783.89 337.57 783.65 339.91 781.23 344.38 778.94 347.41 777.69 349.67 775.9 353.82 775.49 356.66 771.44 363.61 769.37 366.45 766.81 369.59 765.28 372.68 764.17 374.31 760.31 378.46 759.38 379.75 754.42 384.92 750.39 389.27 746.33 392.99 744.15 395.38 742.06 396.73 735.87 400.28 733.47 401.34 728.77 404.54 724.55 407.98 722.33 410.27 720.76 411.18 717.49 414.32 710.23 422.13 708.95 423.17 704.81 427.93 703.05 429.77 700.56 433.55 698.58 437.09 697.36 438.46 697.23 437.17 691.58 429.86 691.46 420.81 691.46 414.3 691.46 402.58 691.43 391.46 695.36 387.42 701.01 379.32 Z" id="SO" data-name_long="Somalia"/>
<path d="M 638.88 372.61 639.01 373.63 640.13 374.45 648.5 374.57 650.28 375.21 651.29 376.13 660.29 381.94 661.6 383.13 664.6 383.29 665.71 383.01 669.86 384.16 671.66 384.03 672.83 384.54 675.5 384.7 676.94 384.32 678.71 382.63 679.79 380.47 685.36 377.82 689.33 376.11 691.85 378.18 692.98 379.48 696.26 379.62 699.08 379.12 701.01 379.32 695.36 387.42 691.43 391.46 691.46 402.58 691.46 414.3 691.46 420.81 691.58 429.86 697.23 437.17 697.36 438.46 694.95 441.17 693.86 441.03 690.79 442.46 691 443.89 690.1 444.18 690 445.53 687.79 447.38 685.43 447.46 683.91 448.47 683.19 449.57 683.06 451.36 683.71 451.99 682.61 453.96 682.71 454.68 681.01 456.22 679.8 458.57 679.99 459.3 679.14 461.62 677.93 463.41 676.69 466.69 674.73 469.11 673.71 468.82 672.94 469.56 665.83 464.43 658.15 458.89 657.64 457.68 656.36 457.41 656.27 456.27 657.41 455.33 656.84 452.53 647.03 447.05 633.62 439.55 624.67 434.56 619.42 431.62 617.87 431.23 617.78 427.69 618.39 422.39 617.76 419.64 619.79 416.96 620.25 414.82 621.75 413.69 622.91 412.29 624.16 409.3 625.99 408.19 627.18 407.95 626.99 406.32 629.07 403.32 628.95 398.88 627.89 396.32 628.49 394.97 627.4 393.71 626.48 391.05 624.86 390.08 624.55 388.5 623.39 387.62 622.85 384.66 623.45 382.55 621.78 382.11 619.51 379 619.59 378.16 618.63 376.79 622.84 372.6 625.81 371.09 631.85 368.82 635.23 369.63 634.73 370.93 635.65 372.61 636.58 372.93 638.88 372.61 Z" id="KE" data-name_long="Kenya"/>
<path d="M 628.92 542.17 625.66 542.14 624.74 544.91 622.83 547.82 622.56 548.84 624.02 554.04 624.59 559.08 624.55 560.87 625.54 562.65 628.19 563.11 630.16 564.92 634.04 569.57 634.73 570.92 638.17 575.27 638.71 577.64 637.46 580.96 638.04 583.36 637.58 589.72 636.55 590.83 633.19 591.19 631.98 592.61 631.52 594.92 630.66 595.5 632.19 597.27 632.16 600.04 632.46 601.67 630.13 601.88 629.67 600.92 630.47 600.1 630.29 598.54 629.33 598.51 626.5 595.41 625.69 594.98 624.34 592.93 622.88 591.69 622.91 590.07 621.3 588.47 621.45 587.44 623.08 585.84 623.14 584.05 624.8 581.78 624.59 579.48 624.96 578.69 624.14 575.63 624.1 574.28 622.46 572.26 617.71 573.34 616.52 573.79 614.75 573.73 613.03 572.19 610.57 568.24 608.97 568.06 606.99 566.04 605.57 563.52 607.14 562.12 608.4 559.42 608.1 558.63 608.51 556.24 607.84 554.92 608.71 553.25 612.34 552.24 613.85 550.67 611.89 549.89 611.11 547.49 611.71 545.63 611.61 542.56 610.67 542.07 610.85 540.51 612.53 537.83 611.62 536.45 611.78 534.15 613.67 533.63 615.48 531.6 613.97 528.86 614.01 527.93 611.68 525.62 612.26 524.42 610.71 522.6 608.19 521.27 608.37 520.22 607.63 519.23 608.37 519.06 610.26 520.32 611.58 520.12 612.67 521.31 616.11 521.09 617.47 521.99 619 519.96 621.87 522.41 623.91 524.92 624.97 528.67 624.92 531.2 625.88 533.32 625.05 536.25 626.31 538.23 626.78 539.67 628.11 540.07 628.92 542.17 Z" id="MW" data-name_long="Malawi"/>
<path d="M 617.87 431.23 619.42 431.62 624.67 434.56 633.62 439.55 647.03 447.05 656.84 452.53 657.41 455.33 656.27 456.27 656.36 457.41 657.64 457.68 658.15 458.89 665.83 464.43 672.94 469.56 673.11 471.6 672.31 472.08 672.4 474.02 671.73 474.88 670.94 477.8 669.21 481.47 668.64 483.72 669.46 485.12 669.41 487.06 670.59 488.36 671.38 488.33 673.17 490.13 674.01 491.95 675.79 492.39 676.69 493.82 676.66 495.13 675.4 495.9 674.12 498.6 674.04 501.12 675.57 502.63 675.69 504.5 674.55 507.1 673.87 507.65 674.7 511.7 675.53 512.35 675.21 513.56 676.08 514.28 676.09 515.76 677.66 516.92 677.73 519.62 678.79 522.83 679.07 524.75 681.23 526.97 683.79 527.61 684.9 529.18 686.05 529.14 685.92 530.51 681.45 534.08 678.88 535.48 675.98 536.07 673.94 537.72 672.27 537.56 669.87 537.86 668.45 538.88 667.35 539.01 665.66 540.47 663.21 539.02 661.27 538.8 659.24 539.47 658.28 542.02 654.58 543.76 652.48 543.45 650.58 542.41 648.25 542.17 647.49 543.16 645.57 543.85 644.86 543.32 641.78 543.54 641.45 542.23 639.08 540.69 637.9 540.47 636.53 541.34 636.11 542.23 628.92 542.17 628.11 540.07 626.78 539.67 626.31 538.23 625.05 536.25 625.88 533.32 624.92 531.2 624.97 528.67 623.91 524.92 621.87 522.41 619 519.96 617.47 521.99 616.11 521.09 612.67 521.31 611.58 520.12 610.26 520.32 608.37 519.06 607.63 519.23 605.47 517.94 603.43 517.65 602.03 516.34 600.24 516.26 599.44 515.6 597.18 515.16 597.38 514.21 595.83 513.79 594.63 514.01 593.39 512.91 593.24 511.8 591.3 510.57 588.87 510.88 587.2 510.19 585.83 508.48 585.04 506.44 584.03 503.63 581.81 500.15 581.06 497.14 579.65 494.49 578.15 492.73 574.48 490.24 572.26 486.26 571.75 483.42 573.07 481.11 572.97 479.43 571.54 475.34 570.72 473.85 570.13 471.23 570.97 468.62 571 467.19 574.38 467.31 575.13 466.29 577.24 465.33 578.77 463.39 579.38 461.76 581.17 459.2 582.09 457.4 583.59 456.69 583.88 455.52 585.54 454.91 585.87 453.85 584.69 451.94 581.54 450.5 581.54 448.35 582.98 445.8 585.9 445.22 586.45 442.48 585.85 441.21 585.86 437.39 584.89 435.44 582.99 434.52 582.12 431.9 583.86 431.97 585.83 431.23 592.23 431.23 601.76 431.23 611.3 431.23 617.87 431.23 Z M 680.28 500.58 680.26 501.81 679.53 503.49 677.72 504.33 678.4 502.41 679.26 502.2 680.28 500.58 Z M 676.61 486.77 676.25 488.25 673.71 486.57 672.94 482.5 674.64 482.32 675.73 485.47 676.61 486.77 Z M 677.65 477.27 678.69 474.63 678.01 472.36 679.35 472.53 679.87 475.34 679.25 477.19 677.65 477.27 Z" fill-rule="evenodd" id="TZ" data-name_long="Tanzania"/>
<path d="M 764.48 337.21 754.07 337.21 753.46 336.91 738.81 331.95 728.71 328.6 723.28 326.8 719.09 323.09 716.98 322.29 716.48 320.9 715.07 319.34 714.57 317.32 713.32 316.9 712.18 314.86 710.91 313.88 710.29 311.59 708.95 309.39 709.49 309.11 710.74 306.84 711.82 305.5 715.13 300.31 717.41 301.76 717.7 302.95 719.48 305.62 721.26 307.58 725.89 311.25 727.09 311.88 729.14 312.02 730.86 311.55 733.06 311.68 736.97 308.98 738.53 308.83 741.81 306.81 744.93 307.92 746.03 307.65 747.36 308.57 748.53 308.74 750.74 308.09 753.05 306.62 754.37 306.14 756.17 304.63 758.11 303.65 759.73 303.5 761.35 304.34 766.38 303.94 768.27 302.56 771.52 301.98 774.48 302.84 774.48 314.76 774.48 321.88 768.23 331.47 764.48 337.21 Z" id="-99" data-name_long="Somaliland"/>
<path d="M 87.49 192.27 87.98 188.22 89.54 184.3 90.69 182.67 92.61 182.22 94.33 179.2 95.03 175.62 96.25 174.79 96.64 172.39 98.39 168.67 100.42 165.55 100.46 163.59 102.01 162.83 106.67 157.48 108.31 156.7 109.42 155.29 110.17 152.61 110.03 149.22 110.73 146.53 111.43 145.63 112.41 142.64 113.47 141.02 113.75 138.6 114.61 137.12 115.77 136.63 117.25 135.1 119.68 134.32 122.84 132.13 124.08 130.15 125.11 126.43 126.16 124.7 127.51 120.47 128.66 119.78 129.63 117.76 130.98 117.1 134.36 116.81 139.07 115.7 145.07 112.91 146.74 110.66 149.63 107.74 154.57 105.01 159.07 99.79 160 97.73 162.42 94.87 164.14 91.4 164.59 88.06 163.67 86.39 161.73 84.64 162.42 83.36 162.14 75.94 163.78 73.1 164.01 71.92 167.15 68.3 168.15 65.83 167.92 64.31 168.26 61.52 172.34 57.74 174.83 54.69 175.87 52.93 176.68 52.99 178.85 51.24 180.27 50.91 186.62 48.17 189.41 46.28 190.76 45.79 193.65 43.28 196.4 38.52 199.17 32.65 200.07 29.55 201.96 24.75 202.97 21.16 206.39 20.63 207.96 19.39 209.08 20.31 210.03 23.68 211.94 25.82 215.02 28.07 219.13 29.21 223.45 27.95 225.5 28.36 226.45 27.47 229.16 28.62 233.81 27.14 234.45 28.93 238.01 29.92 239.54 29.24 241.56 30 241.86 31.09 246.09 34.23 245.22 36.26 246.48 37.55 245.86 39.09 247.27 42.45 246.81 45.06 247.91 49.78 247.18 51.68 247.27 53.31 249.09 55.52 248.47 57.1 249.89 59.47 253.8 62.26 252.02 63.79 251.28 66.77 251.7 67.62 238.5 67 234.1 68.03 235.26 71.14 226.59 72.94 226.45 76.1 224.93 76.96 224.97 78.16 226.84 79.68 227.68 81.38 226.59 82.82 226.74 84.34 224.77 85.36 221.42 85.87 219.17 86.8 216.55 89.5 213.93 90.76 209.78 94.29 207.01 98.65 205.12 98.65 204.75 97.57 202.2 97.98 199.37 97.98 194.92 98.74 194.05 99.57 192.23 98.82 190.27 98.82 188.15 100.33 185.34 100.25 180.65 103.96 177.39 106.02 174.62 108.16 174.27 108.87 174.27 120.74 172.87 120.74 173.32 123.11 173.03 124.28 173.54 126.27 173.11 127.09 170.95 127.45 166.67 127.47 163.31 130.13 161.6 130.25 160.22 129.55 157.94 130.13 154.81 128.61 150.94 128.38 146.05 129.87 146.84 131.49 146.62 132.78 145.24 134.1 143.5 136.72 142.66 138.94 139.4 139.79 137.94 144.31 136.48 150.41 135.23 153.63 132.32 155.93 129.4 157.76 128.67 158.55 126.07 163.35 121.28 165.52 120.03 166.65 118.67 169.84 117.11 177.2 116.59 182.28 112.32 187.33 112.53 188.57 111.9 190.25 110.13 191.93 103.67 191.93 100.65 191.48 90.44 191.71 87.49 192.27 Z" id="MA" data-name_long="Morocco"/>
<path d="M 87.49 192.27 90.44 191.71 100.65 191.48 103.67 191.93 110.13 191.93 111.9 190.25 112.53 188.57 112.32 187.33 116.59 182.28 117.11 177.2 118.67 169.84 120.03 166.65 121.28 165.52 126.07 163.35 128.67 158.55 129.4 157.76 132.32 155.93 135.23 153.63 136.48 150.41 137.94 144.31 139.4 139.79 142.66 138.94 143.5 136.72 145.24 134.1 146.62 132.78 146.84 131.49 146.05 129.87 150.94 128.38 154.81 128.61 157.94 130.13 160.22 129.55 161.6 130.25 163.31 130.13 166.67 127.47 170.95 127.45 173.11 127.09 173.54 126.27 173.03 124.28 173.32 123.11 172.87 120.74 174.27 120.74 174.27 125.16 174.29 139.99 174.01 140.2 163.69 140.2 151.1 140.2 139.55 140.2 139.55 148.06 139.55 160.2 139.55 168.87 136.03 170.83 133.26 171.42 129.14 174.28 127.57 177.28 128.33 180.19 129.14 193.23 118.72 193.24 108.44 193.24 95.26 193.24 88.06 193.24 86.79 198.36 87.04 199.56 86.59 198.77 87.49 192.27 Z" id="EH" data-name_long="Western Sahara"/>
<path d="M 458.73 384.54 458.9 386.14 458.59 388.18 457.71 388.84 456.3 392.51 454.77 394.54 452.96 398.28 452.95 404.62 452.34 405.97 451.83 408.37 450.82 410.19 451.25 413.07 451.16 414.71 451.58 417.02 450.69 418.27 449.68 420.88 449.25 422.82 449.6 426.24 446.08 430.35 444.89 431.42 442.09 432.19 440.12 433.94 438 437.67 437.8 438.8 436.82 440.18 433.78 442.97 433.22 444.61 433.72 448.25 433.22 450.82 433.54 455.83 430.16 461.92 426.86 462.88 425.74 464.72 423.08 466.03 421.98 467.71 420.24 469.24 419.2 471 417.15 471.93 415.96 471.28 414.67 471.43 414.78 469.55 414.19 468.41 415.4 467.17 414.38 465.39 412.07 466.56 410.76 466.83 410.07 467.62 408.35 466.92 407.53 467.34 407.31 469.71 404.22 471.74 403.86 470.79 400.89 469.12 397.64 466.57 396.04 468.39 393.64 468.96 393.17 470.49 392.16 470.89 389.81 473.14 388.62 471.71 387.43 469.6 387.69 468.52 383.47 464.8 383.02 463.66 380.48 461.83 381.51 459.33 383.6 458.18 385.23 457.74 386.05 459.08 387.83 459.46 388.65 458.54 387.92 457.77 389.13 455.21 386.45 453.83 387.25 451.87 385.93 450.31 384.89 449.94 385.65 448.7 385.11 445.27 387.17 445.95 389.07 445.05 390.36 445.95 394.49 445.06 394.61 443.25 394.12 440.56 395.78 439.81 398.09 440.78 400.24 444.62 403.89 446.09 404.76 446.08 406.31 445.03 408.15 442.86 409.12 444.97 409.34 446.72 411.39 446.84 412.91 444.99 412.12 444.32 413.03 442.88 413.17 441.29 414.4 440.8 414.74 438.19 414.44 437.5 415.56 435.25 415.39 433.54 414.62 431.45 415.3 429.7 415.74 427.36 415.4 426.54 413.59 425.33 412.21 425.53 411.81 423.93 408.78 422.92 409.72 421.34 409.2 418.74 409.97 417.13 410.96 416.47 411.33 415.17 412.96 415.13 415.2 412.28 415.42 411.27 413.4 408.75 413.17 406.92 412.46 406.4 408.4 405.84 405.79 407.41 404.44 407.29 402.73 408.06 402.62 405.91 401.48 404.19 402.28 400.01 403.19 398.27 413.32 398.36 414.9 398.54 416.4 397.77 417.89 398.85 419.62 398.89 420.57 399.84 421.91 400.11 423.39 399.62 424.6 400.75 425.99 400.2 428.92 400.9 430.23 402.1 433.03 402.71 432.05 400.17 432.46 397.93 433.42 397.48 436.37 391.23 436.02 389.96 436.49 388.81 437.29 384.67 438.04 384 441.46 383.95 445.27 383.07 446.57 382.13 448.33 382.98 450.21 383.17 450.71 383.91 453.06 383.64 454.1 384.54 454.8 383.52 457.56 383.34 458.73 384.54 Z" id="CG" data-name_long="Republic of the Congo"/>
<path d="M 550.55 367.89 551.71 369.67 552.63 369.77 553.94 371.4 554 372.86 556.47 373.87 558.22 375.46 559.53 375.4 560.58 376.18 562.08 375.21 564.24 373.3 564.86 374.09 566.65 373.9 568.6 375.45 569.95 375.04 571.94 372.1 573.23 372.38 574.89 373.61 574.87 374.85 578.48 378.01 579.35 379.6 582.82 380.74 583.17 383.25 584.43 382.93 585.93 383.65 585.95 384.41 586.68 385.42 585.58 386.95 584.97 389.14 586.11 390.63 584.91 393.66 584.76 395.35 586.29 396.49 587.46 395.83 588.2 396.92 589.47 396.79 590.41 398.14 590.15 399.41 587.89 402.26 584.31 405.15 582.19 407.88 579.69 408.95 578.72 411.38 577.6 411.63 576.46 412.61 576.59 415.59 575.46 417.27 575.13 418.99 574.2 419.75 573.34 425.39 573.15 429.79 572.58 430.36 572.81 435.25 571.32 436.48 570.52 436.52 568.34 439.53 568.12 440.74 568.36 443.19 567.93 444.09 566.62 444.62 565.32 445.98 565.66 448.43 566.95 449.14 567.72 451.28 569.23 452.54 568.94 455.54 569.13 458.19 569.03 461.44 570.33 463.46 571 467.19 570.97 468.62 570.13 471.23 570.72 473.85 571.54 475.34 572.97 479.43 573.07 481.11 571.75 483.42 572.26 486.26 574.48 490.24 578.15 492.73 579.65 494.49 581.06 497.14 581.81 500.15 584.03 503.63 585.04 506.44 575.73 507.86 565.91 509.37 566.06 511.55 564.35 514.23 562.61 515.94 560.25 517.41 560.21 518.18 561.75 518.92 563.34 523.6 562.87 524.97 562.99 530.99 563.66 532.3 562.24 534.09 561.34 536.91 560.95 539.78 560.09 540.83 561.09 544.38 561.55 545.19 565.07 547.69 566.21 548.91 567.11 550.72 569.45 550.62 571.99 551.54 571.44 550.28 571.73 549.3 575.11 548.35 575.1 561.92 574.11 562.28 573.06 561.39 572.77 559.79 568.55 562.03 566.73 561.62 565.78 559.12 563.33 555.77 562.46 556.19 561.31 554.57 561.7 554.12 560.78 552.27 559.91 551.51 557.74 551.29 555.94 550.63 555.68 549.95 552.6 549.84 551.38 548.63 550.34 545.88 548.4 544.68 547.83 542.13 546.06 542.56 545.62 545.33 544.65 546.33 542.24 546.56 539.86 545.77 538.64 546.09 535.48 545.7 533.98 544.52 532.68 544.59 531.6 543.83 530.14 543.68 528.79 542.95 528.03 540.29 528.51 539.09 528.03 538.2 526.42 538.83 524.53 538.93 521.73 539.71 520.59 540.8 519.36 541.01 517.94 540.4 518.79 539.05 518.68 537.36 517.77 536.62 516 536.54 515.9 535.23 514.37 534.73 512.97 536.38 509.44 535.7 508.18 535.82 506.34 536.85 504.44 537.17 502.51 536.64 501.45 537.11 499.47 536.48 498.76 537.38 496.81 538.6 495.6 534.52 497.23 533.35 496.73 530.81 497.14 529.39 495.99 526.87 495.54 524.76 493.86 523.47 492.35 521.45 491.72 519.08 492.22 517.84 492.41 513.31 493.21 508.74 492.32 505.9 491.36 504.55 491.48 502.36 492.35 500.04 492.23 497.77 491.63 496.86 478.46 496.89 478.5 495.39 479.41 493 476.49 493.01 476.11 493.91 468.06 493.91 467.59 497.2 467.97 498.92 467.05 499.97 466.1 503 466.33 504.41 460.27 504.41 459.9 503.68 457.59 503.68 457.5 504.37 454.05 504.38 453.23 505.54 451.18 504.9 450.02 505.25 447.46 505.28 447.38 504.55 444.8 501.23 442.81 498.11 441.75 497.01 441.03 494.79 441.51 494.04 441.03 492.72 440.05 492.08 438.99 489.37 438.95 485.38 437.67 484.05 437.6 482.61 434.66 481.88 427.4 482 417.87 482.16 416.55 482.4 410.76 482.07 409.95 481.74 406.81 482 402.04 481.9 398.28 481.62 397.24 483.18 394.39 483.95 391.9 480.92 395.01 480.53 395.24 474.64 394.34 473.51 396.78 472.14 398.39 470.04 400.89 469.12 403.86 470.79 404.22 471.74 407.31 469.71 407.53 467.34 408.35 466.92 410.07 467.62 410.76 466.83 412.07 466.56 414.38 465.39 415.4 467.17 414.19 468.41 414.78 469.55 414.67 471.43 415.96 471.28 417.15 471.93 419.2 471 420.24 469.24 421.98 467.71 423.08 466.03 425.74 464.72 426.86 462.88 430.16 461.92 433.54 455.83 433.22 450.82 433.72 448.25 433.22 444.61 433.78 442.97 436.82 440.18 437.8 438.8 438 437.67 440.12 433.94 442.09 432.19 444.89 431.42 446.08 430.35 449.6 426.24 449.25 422.82 449.68 420.88 450.69 418.27 451.58 417.02 451.16 414.71 451.25 413.07 450.82 410.19 451.83 408.37 452.34 405.97 452.95 404.62 452.96 398.28 454.77 394.54 456.3 392.51 457.71 388.84 458.59 388.18 458.9 386.14 458.73 384.54 458.38 382.11 458.93 379.27 458.66 377.31 457.8 375.89 458.21 375.19 459.72 375.14 460.84 373.23 462.75 371.09 463.49 369.58 466.88 367.27 470.12 367.21 471.9 368.61 473.08 368.9 476.57 371.02 477.86 372.81 477.75 373.56 479.32 374.8 482.12 374.35 484.33 375.03 485.1 375.84 486.57 375.63 489.06 376.53 490.99 376 492.5 376.56 493.97 376.55 496.03 377.51 498.28 377.68 499.01 377.27 501.06 373.95 502.06 371.51 503.23 370.48 504.47 371.24 506.05 371.37 507.05 372.45 508.34 372.95 510.19 371.51 512.8 370.51 514.17 370.54 515.64 369.47 516.4 369.6 519.49 367.51 521.06 368.46 521.63 369.42 522.93 369.47 524.69 368.72 526.01 369.11 526.47 368.44 528.33 368.3 528.33 366.7 528.91 365.39 531.18 364.71 532.76 365.93 535.82 366.65 536.89 365.93 538.58 367.05 539.61 367.08 540.36 368.01 543.46 367.71 544.57 368.24 545.56 367.05 547.17 366.54 550.55 367.89 Z" id="CD" data-name_long="Democratic Republic of the Congo"/>
<path d="M 436.45 731.59 435.74 732 430.45 726.84 428.09 724.22 426.65 721.84 426.38 720.5 424.03 716.85 423.4 712.67 422.82 712.15 421.82 709.51 422.71 708.44 422.3 706.75 420.61 705.32 420.74 702.11 419.32 698.69 419.68 696.55 418.89 692.91 419.43 690.63 418.67 687.63 416.81 684.87 416.92 683.53 415.48 680.26 415.71 677.6 415.7 673.64 415.07 671.79 415.67 670.59 414.81 666.75 415.98 666.22 415.84 661.98 414.57 658.92 411.97 655.2 410.05 653.38 410.11 652.49 408.79 649.71 406.4 646.38 404.16 642.56 403.77 640.65 402.86 638.88 401.74 635.2 400.86 634.76 400.18 632.77 397.05 626.97 395.62 623.57 394.4 621.39 392.7 619.11 390.04 617 389.06 614 388.14 613.02 386.77 606.49 387.27 603.29 390.7 602.05 392.24 602.98 395.49 603.1 398.23 601.67 398.95 600.86 401.86 600 403.91 600.14 405.28 600.79 405.56 601.86 409.34 604.22 409.95 604.98 412.7 604.76 421.55 604.77 434.91 604.77 448.28 604.77 456.93 604.78 457.34 605.6 460.15 608.69 462.84 609.51 464.42 609.28 467.01 609.91 469.63 609.73 472.54 609.95 473.4 610.31 476.54 609.86 478.93 611.29 481.44 611.8 484.43 610.78 485.71 610.69 487.43 611.59 496.27 609.89 508.27 607.53 517 605.76 518.95 605.71 520.87 606.29 521.84 605.9 524.69 606.55 527.83 609.2 525.72 609.57 524.69 609.27 522.26 610.31 520.72 611.94 519.1 610.98 516.61 611.78 511.01 616.56 510.32 616.58 509.51 614.06 508.04 612.76 507.53 611.56 504.1 611.67 488.41 614.74 483.2 614.95 483.22 630.73 483.26 641.83 483.3 655.4 483.17 655.81 472.82 655.81 472.83 669.4 472.84 677.22 472.85 687.05 472.85 698.17 472.86 708.58 472.86 716.44 472.85 729.81 468.55 731.1 467.65 732.84 465.21 733.95 465.63 735.13 463.47 736.19 462.15 735.08 459.98 734.76 456.35 735.47 453.94 735.5 451.3 734.07 448.12 733.76 447.86 732.87 446 733.15 446.17 731.84 445.21 730.21 445.98 729.16 445.39 727.5 443.79 727.28 442.81 725.18 440.68 725.79 440.6 726.73 439.34 728.16 439.39 730.05 436.45 731.59 Z" id="NA" data-name_long="Namibia"/>
<path d="M 436.45 731.59 439.39 730.05 439.34 728.16 440.6 726.73 440.68 725.79 442.81 725.18 443.79 727.28 445.39 727.5 445.98 729.16 445.21 730.21 446.17 731.84 446 733.15 447.86 732.87 448.12 733.76 451.3 734.07 453.94 735.5 456.35 735.47 459.98 734.76 462.15 735.08 463.47 736.19 465.63 735.13 465.21 733.95 467.65 732.84 468.55 731.1 472.85 729.81 472.86 716.44 472.86 708.58 472.85 698.17 472.85 687.05 474.28 688.6 476.84 690.27 478.69 694.29 479.95 696.4 479.74 696.96 481.31 700.2 481.81 702.95 479.53 706.4 479.38 709.41 480.27 711.77 481.91 710.81 484.73 711.5 487.42 711.02 490.62 711.38 491.45 709.62 494.47 708.61 496.55 705.39 498.34 704.06 499.55 703.84 501.37 701.25 501.65 698.6 502.25 697.81 502.67 695.43 504.36 693.47 507.06 692.93 509.07 693.14 513.92 697.14 517.08 697.37 517.8 698.23 519.46 698.46 521.63 699.39 523.03 699.45 525.66 698.4 529.15 698.46 531.24 697.03 532.37 693.46 534.26 688.58 534.17 687 538.44 685.63 539.75 685.68 541.07 683.68 544.39 681.27 544.61 679.76 546 674.41 547.28 673.04 549.6 671.52 551.67 671.17 552.29 669.54 555.28 667.98 555.72 666.67 558.07 664.36 558.42 663.37 559.9 662.39 562.87 662.14 565.88 660.91 566.37 659.3 567.29 658.28 570.44 657.91 574.69 657.28 578.61 659.11 580.34 659.6 582.49 659.29 583.79 659.53 585.93 658.98 588.71 659.56 590.63 660.28 590.53 660.48 593.21 668.86 593.05 671.79 594.31 673.75 595.34 676.58 596.54 677.83 596.68 680.31 597.9 683.27 597.95 697.38 597.12 698.94 597.51 700.95 596.32 701.22 592.07 698.46 590.84 698.62 588.87 700.39 587.31 703.86 585.59 706.05 585.39 709.77 586.37 710.41 587.37 713.48 589.26 715.48 593.11 716.71 597.71 716.77 597.44 714.25 597.96 711.18 599.22 711.2 601.71 711.44 607.34 711.27 606.78 714.52 605.09 719.17 604.2 723.41 603.7 727.06 602.43 729.33 601.99 731.35 598.16 735.08 595.46 736.27 592.71 739.17 589.57 743.36 587.79 747.05 581.29 758.87 577.31 764.29 574.96 766.02 570.87 769.7 568.33 772.58 565.44 776.48 562.8 778.84 562.09 779.88 558.57 782.5 555.3 785.79 553.59 786.65 549.92 789.74 547.45 791.27 540.91 794.72 538.53 794.86 535.07 794.16 532.2 795.22 531.35 798.4 529.4 798.2 526.18 797.29 524.63 797.6 523.47 799.46 520.79 800.03 516.41 798.48 510.91 797.53 508.74 797.95 508.54 799.17 503.62 798.83 500.44 797.74 498.15 798.61 496.74 798.52 495.16 799.31 495.06 800.23 493.06 800.89 492.78 802.02 490.78 802.71 488.83 802.22 486.19 803.1 483.05 802.27 478.5 803.51 475.25 806.27 472.56 808 471.57 807.25 469.32 807.54 466.78 805.38 465.79 803.05 463.55 802.1 460.63 802.38 461.15 799.68 459.92 798.76 457.99 798.72 456.81 799.6 455.49 798.15 457.16 796.53 456.71 793.99 455.41 791.27 453.73 789.73 452.99 787.81 451.3 785.89 450.67 783.18 451.87 781.62 453.05 782.58 455.05 780.93 455.69 779 455.85 776.15 455.09 771.63 454.01 768.82 451.1 764.93 447.64 758.76 447.37 757.72 444.73 752.83 442.87 747.25 442.38 744.75 439.8 737.6 437.63 734.97 436.45 731.59 Z M 566.59 735.59 565.6 734.26 563.66 732.96 563.32 731.88 560.57 732.14 559.68 733.1 557.99 733.13 556.57 734.97 553.74 735.58 552.88 737.45 550.68 740.15 550.31 741.4 548.48 743.23 546.11 744.14 548.03 748.38 548.73 749.04 549.77 752.38 550.74 752.45 552.19 754.55 553.7 755.88 556.94 756.48 558.65 753.31 558.62 751.86 560.17 750.56 563.04 750.22 565.33 749.44 568.29 747.67 567.89 746.54 568.47 744.64 569.69 744 569.95 742.24 571.33 740.75 570.04 737.74 568.96 737.49 566.59 735.59 Z" fill-rule="evenodd" id="ZA" data-name_long="South Africa"/>
<path d="M 384.55 54.02 385.91 54.92 388.12 55.24 390.98 57.25 393.34 58.35 397.31 58.77 400.9 57.93 401.84 57.36 403.79 57.46 406.08 58.72 408.32 58.76 412.37 59.77 415.43 62.23 418.11 63.07 423 63.83 424.82 66.67 424.82 69.49 426.07 72.73 427.45 74.78 428.89 76.12 431.84 77.49 435.11 78.08 438.96 78.12 445.6 79.79 446.65 80.48 450.63 81.77 451.45 82.6 454.03 83.44 459.01 87.84 461.85 89.4 463.22 89.73 466.15 89.33 469.04 87.85 470.42 86.77 473.42 83.04 474.57 80.29 474.57 78.2 473.27 76.01 472.21 72.09 472.42 69.14 473.79 66.46 478.9 61.75 484.46 58.99 486.44 59.11 488.19 58.6 489.8 57.13 492.6 57.47 494.88 57.23 497.82 57.88 499.23 58.87 505.19 60.66 505.84 62.74 505.29 64.64 506.83 65.91 511.27 66.37 514.69 67.47 515.65 68.55 520.39 68.73 521.69 68.23 524.93 69.02 526.69 72.84 525.37 74.82 523.68 76.21 523.66 79.07 525.07 83.45 524.16 86.92 522.75 88.94 521.88 91.2 523.16 94.24 523.09 95.88 523.78 97.27 523.81 99.31 524.93 102.74 524.93 110.94 524.93 120.68 524.93 132.42 524.93 149.32 524.93 166.02 524.93 179.24 524.93 185.82 524.93 192.8 524.92 202.53 524.79 208.14 514.51 208.13 514.51 213.66 506.79 209.61 496.5 204.2 490.07 200.8 478.49 194.68 472.05 191.27 464.33 187.17 454.04 181.68 446.32 177.55 438.6 173.42 431.22 169.45 420.75 174.54 412.96 178.81 412.64 178.75 406.37 173.14 405.15 172.45 389.38 168.62 385.2 160.08 384.59 159.55 376.38 156.82 373.57 157.68 371.59 156.54 370.89 154.55 369.21 153.33 369.1 148.6 368.56 147.13 362.64 138.82 362.4 138.18 363.49 136.05 367.17 134.28 367.8 132.55 367.94 130.33 367.06 129.43 365.97 125.08 367.02 122.57 368.21 118.33 366.55 113.59 367.33 107.45 367.07 103.37 365.41 97.63 364.19 95.31 361.44 91.52 363.87 90.18 367.54 88.65 370.88 84.1 371.69 81.87 371.43 79.89 370 75.83 370.09 74.82 371.63 72.54 374.23 71.6 375.19 69.19 377.27 68.23 377.97 66.94 383.92 64.09 385.17 62.89 383.98 60.76 384.05 57.49 384.55 54.02 Z" id="LY" data-name_long="Libya"/>
<path d="M 384.55 54.02 384.05 57.49 383.98 60.76 385.17 62.89 383.92 64.09 377.97 66.94 377.27 68.23 375.19 69.19 374.23 71.6 371.63 72.54 370.09 74.82 370 75.83 371.43 79.89 371.69 81.87 370.88 84.1 367.54 88.65 363.87 90.18 361.21 78.17 358.93 67.74 358.67 67.34 353.07 63.27 351.37 61.72 350.99 58.3 348.95 55.1 345.45 53.69 344.85 50.62 343.39 48.06 342.62 45.11 343.02 42.59 345.69 40.5 346.29 38.56 349.02 37.1 350.51 35.61 350.64 32.39 351.31 29.83 352.54 28.06 351.35 27.45 351.41 22.81 350.56 20.56 351.35 16.46 351.68 12.55 349.81 11.55 352.29 10.04 352.67 8.04 354.54 7.65 354.32 6.17 356.4 5.74 358.33 3.86 360.65 2.33 362.03 2.31 365.4 1 367.41 1.09 366.96 3.4 369.41 1.9 370.4 2.3 371.17 5.69 372.49 6.95 372.21 8.66 374.48 8.35 374.78 7.17 376.52 6.74 379.43 4.28 380.51 7.49 379.52 8.14 377.21 12.51 374.28 13.99 373.87 17.32 375.22 20.2 377.64 22.22 379.42 22.74 379.89 24.93 379.73 26.88 380.45 28.52 378.43 31.68 378.42 32.75 375.1 36.91 373.38 37.53 372.82 38.45 370.2 39.68 368.93 41.63 369.38 43.99 370.58 45.84 372.32 47.51 373.97 48.21 376.34 47.46 376.35 50.25 378.35 49.55 379.06 48.26 380.42 49.42 380.23 50.62 381.07 52.14 381.16 53.65 384.55 54.02 Z M 379.2 45.77 379.92 46.28 378.19 48.07 376.59 47.35 376.54 45.23 379.2 45.77 Z" fill-rule="evenodd" id="TN" data-name_long="Tunisia"/>
<path d="M 607.63 519.23 608.37 520.22 608.19 521.27 610.71 522.6 612.26 524.42 611.68 525.62 614.01 527.93 613.97 528.86 615.48 531.6 613.67 533.63 611.78 534.15 611.62 536.45 612.53 537.83 610.85 540.51 610.67 542.07 611.61 542.56 611.71 545.63 611.11 547.49 611.89 549.89 613.85 550.67 612.34 552.24 608.71 553.25 607.84 554.92 608.51 556.24 608.1 558.63 608.4 559.42 607.14 562.12 605.57 563.52 606.99 566.04 608.97 568.06 610.57 568.24 600.41 571.74 594.48 573.68 591.9 574.91 585.7 576.36 579.44 578.66 580.2 581.87 581.05 582.9 581.33 585.73 577.32 585.84 575.51 585.5 571.03 586.57 568.73 587.64 567.23 589.08 566.08 589.27 565.45 590.61 564.94 594.77 563.07 595.84 559.29 597.34 557.56 598.65 555 599.76 554.05 600.54 552.63 602.69 551.97 604.49 547.59 608.93 546.46 610.84 542.96 612.17 539.8 610.79 537.65 610.22 535.32 611.44 532.22 609.39 530.29 609.86 527.83 609.2 524.69 606.55 521.84 605.9 520.87 606.29 518.95 605.71 517 605.76 508.27 607.53 507.32 606.37 505.05 604.95 504.28 603.73 501.75 602.22 501.27 601.13 499.32 599.6 497.35 596.98 495.45 596.15 494.71 594.63 493.71 591.46 493.68 581.68 493.67 571.94 493.66 557.4 505.31 557.4 514.71 557.4 513.31 555.14 513.96 552.7 515.03 550.82 514.29 548.81 514.29 542.64 515.34 540.28 514.82 538.98 514.75 535.9 514.37 534.73 515.9 535.23 516 536.54 517.77 536.62 518.68 537.36 518.79 539.05 517.94 540.4 519.36 541.01 520.59 540.8 521.73 539.71 524.53 538.93 526.42 538.83 528.03 538.2 528.51 539.09 528.03 540.29 528.79 542.95 530.14 543.68 531.6 543.83 532.68 544.59 533.98 544.52 535.48 545.7 538.64 546.09 539.86 545.77 542.24 546.56 544.65 546.33 545.62 545.33 546.06 542.56 547.83 542.13 548.4 544.68 550.34 545.88 551.38 548.63 552.6 549.84 555.68 549.95 555.94 550.63 557.74 551.29 559.91 551.51 560.78 552.27 561.7 554.12 561.31 554.57 562.46 556.19 563.33 555.77 565.78 559.12 566.73 561.62 568.55 562.03 572.77 559.79 573.06 561.39 574.11 562.28 575.1 561.92 575.11 548.35 571.73 549.3 571.44 550.28 571.99 551.54 569.45 550.62 567.11 550.72 566.21 548.91 565.07 547.69 561.55 545.19 561.09 544.38 560.09 540.83 560.95 539.78 561.34 536.91 562.24 534.09 563.66 532.3 562.99 530.99 562.87 524.97 563.34 523.6 561.75 518.92 560.21 518.18 560.25 517.41 562.61 515.94 564.35 514.23 566.06 511.55 565.91 509.37 575.73 507.86 585.04 506.44 585.83 508.48 587.2 510.19 588.87 510.88 591.3 510.57 593.24 511.8 593.39 512.91 594.63 514.01 595.83 513.79 597.38 514.21 597.18 515.16 599.44 515.6 600.24 516.26 602.03 516.34 603.43 517.65 605.47 517.94 607.63 519.23 Z" id="ZM" data-name_long="Zambia"/>
<path d="M 157.61 332.08 156.75 335.62 155.03 335.87 154.11 337.06 154.14 339.61 152.94 340.27 151.44 342.11 148.81 343.82 147.86 345.02 146.24 346.23 145.17 348.53 141.38 346.12 134.44 343.59 135.25 342.08 134.18 340.47 132.3 340.21 130.59 338.98 130.39 336.34 129.52 334.63 127.61 335.21 127.47 334.19 126.44 332.75 127.79 332.64 126.79 330.1 126.8 328.48 127.81 327.52 126.29 326.97 126.16 326.21 128.09 326.18 129 325.63 129.74 323.77 131.01 323.67 132.41 322.21 133.06 320.42 134.12 319.09 134.42 317.56 137.07 316.84 138.24 317.41 140.53 316.9 140.65 316.16 147.29 316.12 150.03 318.8 151.67 321.24 151.64 321.84 153.51 323.41 152.77 325.76 154.23 325.97 154.29 328.55 155.53 330.1 153.89 331.7 153.58 332.98 155.14 333.65 156.49 332.03 157.61 332.08 Z M 134.58 341.72 133.41 342.66 130.36 341.27 133.24 340.97 134.58 341.72 Z" fill-rule="evenodd" id="SL" data-name_long="Sierra Leone"/>
<path d="M 157.61 332.08 156.49 332.03 155.14 333.65 153.58 332.98 153.89 331.7 155.53 330.1 154.29 328.55 154.23 325.97 152.77 325.76 153.51 323.41 151.64 321.84 151.67 321.24 150.03 318.8 147.29 316.12 140.65 316.16 140.53 316.9 138.24 317.41 137.07 316.84 134.42 317.56 134.12 319.09 133.06 320.42 132.41 322.21 131.01 323.67 129.74 323.77 129 325.63 128.09 326.18 126.16 326.21 125.94 323 124.8 322.73 123.45 321.27 122.79 319.04 121.51 318.54 119.45 316.43 117.29 315.49 114.06 312.59 112.81 310.99 112.33 309.55 110.62 308.19 111.08 307.44 109.52 305.56 108.74 307.4 107.62 306.78 108.25 305.83 109.89 303.17 110.25 301.93 111.73 300.06 113.45 300.04 115.98 298.42 118.72 298.72 121.69 297.95 121.76 294.83 119.25 293.28 120.55 291.9 121.88 292.01 122.39 289.79 121.71 287.68 128.5 288.08 128.44 289.36 129.5 289.88 130.2 289.14 131.66 290.22 134.45 290.7 135.95 291.6 138.89 290.51 142.24 290.77 144.76 290.26 146.08 290.55 144.84 292.82 146.47 294.43 148.14 294.7 149.59 292.7 151.07 292.72 152.16 293.83 153.14 296.02 156.57 292.94 157.77 292.54 161.89 294.3 163.43 294.59 164.42 293.04 166.57 292.12 167.75 291.18 167.61 289.56 169.43 289.9 171.03 290.73 171.01 292.08 171.86 293.05 171.73 294.17 172.84 294.72 173.08 295.78 172.55 298.5 173.95 298.69 174.31 299.86 175.88 300.99 176.35 302.46 174.12 305.53 175.74 305.66 176.11 304.93 178.14 305.48 178.3 310.39 179 311.6 181.22 312.49 181.49 314.37 179.57 316.7 180.09 317.72 179.7 320.57 180.47 322.26 182.78 322.32 182.11 324.7 183.89 325.68 182.25 326.51 181.81 328.94 183.42 329.29 184.59 330.8 184.61 332.56 183.77 333.11 181.69 331.95 179.29 332 178.61 334.59 181.15 335.94 180.04 338.41 180.05 340.19 178.99 341.97 178.22 341.5 176.32 341.82 175.47 340.46 174.23 340.39 173.78 342.34 171.74 345.07 169.72 345.19 168.52 343.68 166.4 343.26 167.28 341.15 167.26 339.89 166.39 338.58 166.56 337.01 164.93 333.1 163.84 332.05 160.95 332.13 159.6 331.81 157.61 332.08 Z" id="GN" data-name_long="Guinea"/>
<path d="M 145.17 348.53 146.24 346.23 147.86 345.02 148.81 343.82 151.44 342.11 152.94 340.27 154.14 339.61 154.11 337.06 155.03 335.87 156.75 335.62 157.61 332.08 159.6 331.81 160.95 332.13 163.84 332.05 164.93 333.1 166.56 337.01 166.39 338.58 167.26 339.89 167.28 341.15 166.4 343.26 168.52 343.68 169.72 345.19 171.74 345.07 173.78 342.34 174.23 340.39 175.47 340.46 176.32 341.82 176.76 342.04 178.42 347.5 177.72 350.25 175.48 352.39 175.46 353.03 177.16 353.6 177.33 354.45 179.6 355.3 182.06 355.32 183 356.24 183.47 358.44 184.71 358.79 185.97 359.85 187.14 359.78 187.7 363.15 187.11 364.21 186.7 367.16 185.77 368.06 185.49 369.71 185.83 371.53 185.82 375.16 186.16 375.4 184.37 375.31 183.12 374.36 180.33 373.3 178.7 373.02 175.05 370.86 170.81 368.86 168.06 367.11 166.06 365.28 165.78 364.56 163.71 362.92 160.13 359.69 160.07 359.25 156.43 356.31 153.68 355.79 152.34 355.1 151.96 353.58 149.57 352.05 146.45 350.82 146.29 349.66 145.17 348.53 Z" id="LR" data-name_long="Liberia"/>
<path d="M 516.48 329.92 517.25 331.17 516.14 332.56 516.08 333.57 518.17 334.59 519.2 334.32 523.37 335.43 524.63 337.21 526.06 338.39 527.38 338.61 528.03 340.76 526.84 341.59 527.11 342.42 528.87 344.16 535.81 347.72 536.38 349.34 538 350.62 539.48 351.32 538.43 353.17 538.56 354.11 540.25 355.23 541.04 357.72 542.88 358.07 544.07 359.27 545.76 359.64 547.73 361.1 548.67 362.88 548.25 364.02 549.09 366.49 550.55 367.89 547.17 366.54 545.56 367.05 544.57 368.24 543.46 367.71 540.36 368.01 539.61 367.08 538.58 367.05 536.89 365.93 535.82 366.65 532.76 365.93 531.18 364.71 528.91 365.39 528.33 366.7 528.33 368.3 526.47 368.44 526.01 369.11 524.69 368.72 522.93 369.47 521.63 369.42 521.06 368.46 519.49 367.51 516.4 369.6 515.64 369.47 514.17 370.54 512.8 370.51 510.19 371.51 508.34 372.95 507.05 372.45 506.05 371.37 504.47 371.24 503.23 370.48 502.06 371.51 501.06 373.95 499.01 377.27 498.28 377.68 496.03 377.51 493.97 376.55 492.5 376.56 490.99 376 489.06 376.53 486.57 375.63 485.1 375.84 484.33 375.03 482.12 374.35 479.32 374.8 477.75 373.56 477.86 372.81 476.57 371.02 473.08 368.9 471.9 368.61 470.12 367.21 466.88 367.27 463.49 369.58 462.75 371.09 460.84 373.23 459.72 375.14 458.21 375.19 457.8 375.89 458.66 377.31 458.93 379.27 458.38 382.11 458.73 384.54 457.56 383.34 454.8 383.52 454.1 384.54 453.06 383.64 450.71 383.91 450.21 383.17 448.33 382.98 446.57 382.13 445.27 383.07 441.46 383.95 438.04 384 437.29 384.67 436.49 388.81 436.02 389.96 436.37 391.23 433.42 397.48 432.32 394.62 432.03 392.62 432.34 390.95 430.48 388.5 429.14 388.39 422.74 381.6 421.84 380.28 422.03 377.91 420.96 374.87 418.66 373.39 418.01 372.59 417.41 368.66 417.45 367.15 416 365.71 416.76 364.33 416.72 362.11 417.12 360.91 416.63 358.97 415.56 359.11 414.68 357.97 416.11 356.18 418.03 355.47 420.25 350.72 421.4 349.88 423.29 345.09 425.47 343.59 425.97 342.19 427.92 342.26 429.23 342.87 430.6 342.56 432.05 341.48 435.24 340.62 435.62 339.32 437.09 338.54 437.88 340.66 439.38 341.91 440.55 341.04 442.85 340.57 444.4 339.04 446.65 338.4 448.87 337.33 451.14 337.52 452.94 336.98 458.35 336.67 459.21 334.99 460.68 334.27 463.92 330.07 461.89 328.79 461.51 327.72 463.67 326.48 466.47 326.64 471.89 326.15 473.76 325.19 476.78 325.42 477.57 325.19 478.21 323.79 481.65 322.23 486.13 316.34 487.36 316.37 488.51 314.34 490.29 313.61 491.28 311.72 490.98 309.34 493.91 308.21 494.38 307.22 495.71 307.44 496.51 306.39 498.67 305.48 502.84 306.35 504.35 308.81 507.32 311.43 510.79 317.06 511.31 319.36 510.6 320.97 511.03 322.23 510.88 323.72 509.06 325.1 508.99 326.92 510.2 326.91 509.31 328.93 511.8 329.79 513.9 329.67 516.48 329.92 Z" id="CF" data-name_long="Central African Republic"/>
<path d="M 645.19 270.64 644.25 273.57 644.48 275.4 643.68 278.08 642.14 280.32 640.9 284.89 640.99 287.16 636.88 287.67 635.71 288.73 632.97 293.3 632.59 294.6 631.53 295.96 629.79 297.29 630.05 299.66 628.74 302.57 629.08 303.84 628.39 305.87 628.6 307.13 627.61 308.36 626.69 308.2 624.99 306.77 623.43 307.66 621.78 310.1 622.26 313.24 622.03 314.88 621.18 315.81 619.89 319.47 619.61 321.85 617.84 321.84 617.88 319.14 618.55 317.79 618.53 315.58 617.85 314.05 613.34 310.32 612.32 309.19 610.02 308.34 610.35 307.15 609.32 299.28 609.83 298.2 609.97 295.55 610.63 292.62 605.66 292.55 605.82 294.83 598.89 294.86 601.63 297.95 601.83 302.94 602.35 304.95 597.44 309.14 596.62 311.08 594.55 313.82 590.07 318.28 589.33 318.58 585.01 318.88 582.25 316.38 577.34 313.22 573.2 315.47 573.18 316.99 571.82 318.6 569.42 319.14 566.89 320.28 565.01 322.13 565.16 323.22 556.84 323.15 555.28 320.36 549.49 320.18 546.79 320.24 542.77 321.61 541.34 321.15 537.41 316.52 534.51 314.06 534.44 312.42 533.9 311.66 530.12 312.44 526 312.98 525.3 314.3 524.88 316.43 522.96 318.21 522.98 321.03 521.79 322.7 521.59 324.72 520.6 326.49 520.52 327.84 518.67 328.29 516.48 329.92 513.9 329.67 511.8 329.79 509.31 328.93 510.2 326.91 508.99 326.92 509.06 325.1 510.88 323.72 511.03 322.23 510.6 320.97 511.31 319.36 510.79 317.06 507.32 311.43 504.35 308.81 502.84 306.35 503.84 303.27 503.4 301.28 502.02 301.25 500.42 300.07 499.47 298.25 500.05 294.97 498.89 294.39 498.89 292.97 497.76 289.92 498.52 288.34 496.01 286.93 494.49 288.07 493.21 288.04 491.89 286.39 493.2 283.55 495.33 282.12 496.66 280.61 495.91 277.97 494.64 275.93 496.41 273.74 499.41 272.16 498.47 270.79 498.3 268.42 497.66 267.63 498.72 266.71 500.81 266.14 500.65 264.7 501.57 262.93 503.31 261.5 503.93 260.3 503.94 258.34 503.52 256.62 505.28 255.11 507.63 255.35 510.46 254.62 514.54 254.92 514.54 244.21 514.53 236.62 514.52 223.9 514.51 213.66 514.51 208.13 524.79 208.14 524.92 202.53 524.93 192.8 524.93 185.82 539.12 185.82 549.26 185.82 559.4 185.82 571.56 185.82 581.7 185.83 590.21 185.83 591.37 183.65 592.73 184.1 592.16 185.82 599.46 185.81 610.34 185.81 614.27 189.01 617.48 188.57 618.86 188.37 619.75 185.81 634.35 185.81 648.91 185.81 649.05 189.38 649.95 191.75 651.67 195.05 651.02 196.32 651.66 197.62 651.88 199.79 652.5 201.81 651.95 204.21 652.46 206.76 652.16 208.31 652.82 210.07 652.6 211.9 653.59 217.37 654.64 220.65 655.86 222.32 657.15 221.98 658.59 223.36 659.76 223.7 660.94 225.06 662.12 227.38 663.09 227.44 665.23 228.67 666.19 228.82 666.8 230.06 665.32 231.31 664.12 233.88 662.21 234.96 660.7 235.15 659.2 236.27 655.4 237.57 655.34 238.91 654.32 240.71 653.35 240.44 651.52 240.86 650.13 240.25 649.96 243.59 649.09 244.79 648.84 246.18 649.43 247.37 649.54 249.16 648.93 249.9 647.62 253.66 646.69 254.9 645.17 260.04 644.12 261.51 645.19 270.64 Z" id="SD" data-name_long="Sudan"/>
<path d="M 711.82 305.5 710.24 305.53 708.62 304.54 706.28 305.43 702.93 305.68 701.73 306.11 700.11 305.8 699.99 302.73 699.59 299.77 700.21 297.66 701.54 296.69 706.16 289.89 707.64 289.57 709.27 291.02 710.46 290.28 711.08 288.33 713.85 287.31 715.88 289.77 716.9 292.28 716.55 294.81 714.77 295.31 713.05 297 711.54 297.19 710.06 297.97 709.33 299.3 713.9 299.31 715.13 300.31 711.82 305.5 Z" id="DJ" data-name_long="Djibouti"/>
<path d="M 706.16 289.89 703.63 286.61 701.65 285.51 700.29 282.98 699.2 281.54 697.31 279.97 693.79 277.59 692.24 274.84 690.05 272.34 685.76 270.53 684.26 269.13 682.46 268.47 680.44 268.92 678.94 268.05 676.05 267.84 673.12 268.74 671.74 266.62 669.56 268.17 664.98 268.99 663.92 268.05 662.93 266.17 660.61 265.68 659.41 264.01 656.01 272.22 655.07 271.33 653.18 268.56 651.38 268.95 650.88 270.41 647.5 269.91 645.19 270.64 644.12 261.51 645.17 260.04 646.69 254.9 647.62 253.66 648.93 249.9 649.54 249.16 649.43 247.37 648.84 246.18 649.09 244.79 649.96 243.59 650.13 240.25 651.52 240.86 653.35 240.44 654.32 240.71 655.34 238.91 655.4 237.57 659.2 236.27 660.7 235.15 662.21 234.96 664.12 233.88 665.32 231.31 666.8 230.06 670.21 236.71 671.54 240.67 672.66 245.09 673.41 250.73 674.22 253.05 675.4 253.85 675.98 256.07 677.07 256.98 678.44 259.87 678.23 261.38 679.4 261.86 679.86 260.84 679.01 258.5 680.07 257.27 682.12 258.93 681.65 260.15 683.03 262.91 684.51 263.61 685.28 262.86 687.14 262.82 689.01 264.67 689.79 265.92 693.41 266.58 694.98 268.22 695.29 269.15 698.25 272.79 698.83 274.12 700.18 274.23 702 275.21 703.24 277.18 705.21 278.04 706.16 281.81 707.63 281.67 709.89 284 710.26 285.66 712.24 286.21 713.52 286.1 713.85 287.31 711.08 288.33 710.46 290.28 709.27 291.02 707.64 289.57 706.16 289.89 Z" id="ER" data-name_long="Eritrea"/>
<path d="M 176.32 341.82 178.22 341.5 178.99 341.97 180.05 340.19 180.04 338.41 181.15 335.94 178.61 334.59 179.29 332 181.69 331.95 183.77 333.11 184.61 332.56 184.59 330.8 183.42 329.29 181.81 328.94 182.25 326.51 183.89 325.68 182.11 324.7 182.78 322.32 180.47 322.26 179.7 320.57 180.09 317.72 179.57 316.7 181.49 314.37 183.16 313.84 184.41 311.82 186.94 311.54 188.18 313.46 192.22 314.12 192.08 312.57 193.84 312.16 194.92 312.47 195.26 309.19 196.78 310.11 197.69 309.01 199.3 308.42 200.05 309.33 200.33 313.8 202.05 314.07 203.2 312.4 204.23 311.71 206.44 311.28 207.19 311.58 208.44 312.9 210.36 312.7 211.46 313.13 212.13 315.18 212.89 315.49 212.98 317.13 214.31 317.46 215.7 319.23 216.75 318.97 217.82 319.73 219.69 320.22 220.23 318.79 221.66 317.98 222.42 318.24 224.19 317.2 226.57 316.62 229.41 317 230.57 317.74 232.04 317.88 232.48 318.9 233.57 319.17 234.4 320.92 235.92 322.51 236.7 321.49 237.01 323.76 235.81 326.06 237 326.49 237.43 327.45 238.6 334.98 237.43 335.88 235.13 339.07 234.07 341.62 233.56 344.84 232.98 346.94 232.32 347.2 231.12 349.26 231.27 350.66 230.73 351.7 231.55 355.4 232.23 356.46 233.25 360.07 233.15 361.27 233.78 362.13 235.73 362.58 236.25 364.91 235.65 365.01 235.74 367.06 235.09 367.07 234.02 366.78 232.01 367.15 231.33 366.35 230.21 367.38 224.7 366.53 221.74 365.42 218.07 365.59 218.45 366.28 221.13 365.7 223.09 366.21 216.58 366.74 214.87 367.13 207.16 367.59 203.76 368.32 196.13 371.14 195.68 371.51 192.69 372.23 191.19 373.45 189.99 373.66 187.04 375.49 186.16 375.4 185.82 375.16 185.83 371.53 185.49 369.71 185.77 368.06 186.7 367.16 187.11 364.21 187.7 363.15 187.14 359.78 185.97 359.85 184.71 358.79 183.47 358.44 183 356.24 182.06 355.32 179.6 355.3 177.33 354.45 177.16 353.6 175.46 353.03 175.48 352.39 177.72 350.25 178.42 347.5 176.76 342.04 176.32 341.82 Z" id="CI" data-name_long="Côte d&apos;Ivoire"/>
<path d="M 181.49 314.37 181.22 312.49 179 311.6 178.3 310.39 178.14 305.48 176.11 304.93 175.74 305.66 174.12 305.53 176.35 302.46 175.88 300.99 174.31 299.86 173.95 298.69 172.55 298.5 173.08 295.78 172.84 294.72 171.73 294.17 171.86 293.05 171.01 292.08 171.03 290.73 169.43 289.9 167.61 289.56 167.75 291.18 166.57 292.12 164.42 293.04 163.43 294.59 161.89 294.3 157.77 292.54 156.57 292.94 153.14 296.02 152.16 293.83 151.07 292.72 149.59 292.7 148.14 294.7 146.47 294.43 144.84 292.82 146.08 290.55 146.2 289.74 145.33 287.84 145.94 287.05 145.44 283.38 144.58 282.99 143.74 280.33 142.25 279.91 139.75 278.36 138.7 276.65 139.59 276.14 140.1 274.45 139.45 273.19 139.74 271.69 138.51 269.66 137.4 269.27 137.25 267.89 137.99 266.75 136.96 265.14 139.99 265.09 141.41 263.87 141.65 262.41 141.32 260.78 142.56 256.87 145.86 256.21 147.02 257.84 149.66 259.8 151.01 261.6 152.88 258.15 157.33 258.02 159.18 258.69 162.26 258.71 163.96 258.06 166.55 257.96 167.33 257.36 177.97 257.37 186.41 257.37 195.19 257.37 207.31 257.36 208.95 248.52 206.14 246.18 204.75 232.95 203.7 222.87 202.59 212.28 201.03 197.86 199.93 187.75 198.31 172.79 197.02 160.75 196.03 151.75 202.95 151.74 214.49 151.74 221.32 156.56 228.79 161.92 238.43 168.81 245.65 173.95 254.67 180.35 264.6 187.36 276.65 195.82 277 197.01 276.64 199.24 278.92 200.77 280.55 201.23 281.84 202.28 281.89 203.51 283.23 204.7 286.13 205.7 287.44 204.99 288.46 205.66 289.72 207.45 290.7 207.86 295.4 208.73 298.22 210.36 298.04 213.02 298.65 214.6 297.03 217.44 299.17 219.33 300.54 219.18 308.76 217.56 308.79 228.44 308.83 241.08 308.27 243.11 308.29 247.39 307.01 248.67 306.08 250.97 306.2 252.08 305.37 253.14 305.04 254.99 303.17 255.89 301.45 257.36 301.24 258.89 296.72 258.1 295.96 259.05 286.39 259.38 278.58 259.65 277.95 259.91 274.85 262.81 271.69 263.36 270.07 262.78 266.99 263.67 262.25 262.01 260.57 262.69 259.84 261.85 256.87 261.96 253.84 264.68 250.65 265.79 247.04 268.14 244.22 268.27 243.83 268.7 243.63 271.34 242.3 271.8 239.07 270.46 237.66 271.09 235.12 273.01 234.21 275.62 234.55 277.21 232.76 277.69 232.16 276.94 230.76 277.14 230.5 278.38 230.87 281.06 229.02 281.25 228.65 282.41 227.24 282.05 225.14 280.47 223.21 279.94 221.96 280.09 221.51 280.98 219.39 282.92 220.66 284.73 220.84 286.12 219.95 287.26 218.86 287 218.02 287.97 219.02 289.21 218.34 290.22 218.82 291.58 216.95 292.76 216.24 294.12 214.64 294.9 213.11 294.8 210.88 295.46 209.84 296.53 209.42 298.81 210.19 299.37 210.36 301 209.27 304.05 207.53 304.62 208.14 307.14 207.75 309.86 207.19 311.58 206.44 311.28 204.23 311.71 203.2 312.4 202.05 314.07 200.33 313.8 200.05 309.33 199.3 308.42 197.69 309.01 196.78 310.11 195.26 309.19 194.92 312.47 193.84 312.16 192.08 312.57 192.22 314.12 188.18 313.46 186.94 311.54 184.41 311.82 183.16 313.84 181.49 314.37 Z" id="ML" data-name_long="Mali"/>
<path d="M 146.08 290.55 144.76 290.26 142.24 290.77 138.89 290.51 135.95 291.6 134.45 290.7 131.66 290.22 130.2 289.14 129.5 289.88 128.44 289.36 128.5 288.08 121.71 287.68 106.43 287.61 101.41 290.17 95.62 290.03 94.07 290.87 90.46 291.31 89.73 290.26 90.12 287.25 90.2 283.49 91.03 282.43 99.78 282.51 99.9 280.77 103.05 280.05 104.51 280.31 106.09 279.64 107.03 277.87 108.31 278.88 112.71 280.41 114.77 281.59 116.78 281.73 118.29 281.01 120.43 280.6 120.77 279.59 119.22 278.03 117.91 278.25 115.44 279.3 113.98 278.6 112.78 277.12 111.29 277.56 109.34 275.7 107.45 275.41 105.68 276.24 104.36 275.93 103.07 277.95 92.2 277.9 90.65 275.9 89.69 272.32 88.84 271.44 88.26 269.65 87.01 268.6 85.78 266.45 83.77 264.87 86.19 263.49 88.9 260.2 92.43 254.35 92.4 253.97 93.19 250.02 94.08 249.23 94.64 246.75 96.67 245.88 97.49 246.53 100 246.33 101.46 246.68 103.35 245.78 107.16 245.58 108.73 244.4 109.18 244.92 115.31 244.99 118.72 248.04 119.26 249.41 120.85 250.58 122.26 250.74 124.25 250.22 126.03 252.75 126.82 255.98 128.02 256.2 128.36 257.35 129.67 257.22 130.79 260.32 132.52 261.72 133.23 261.61 134.8 262.74 135.73 264.37 136.96 265.14 137.99 266.75 137.25 267.89 137.4 269.27 138.51 269.66 139.74 271.69 139.45 273.19 140.1 274.45 139.59 276.14 138.7 276.65 139.75 278.36 142.25 279.91 143.74 280.33 144.58 282.99 145.44 283.38 145.94 287.05 145.33 287.84 146.2 289.74 146.08 290.55 Z" id="SN" data-name_long="Senegal"/>
<path d="M 302.17 298.1 302.91 297.42 302.25 295.86 302.75 291.99 302.69 289.22 305.64 286.85 307.3 284.23 307.67 281.69 307.69 279.13 308.97 278.9 311.66 276.75 315.3 275.9 316.01 276.34 319.64 276.13 320.69 275.03 322.57 274.83 328.46 277.18 329.6 276.92 331.05 277.48 334.22 280.75 335.32 282.79 336.65 284.11 338.57 284.12 339.69 282.93 341.71 282.98 345.5 280.69 348.85 280.87 350.6 281.92 352.19 283.38 353.6 283.5 355.12 285 357.86 285.82 361.27 286.22 365.13 286.08 368.15 282.63 370.56 281.33 375.91 280.17 378.8 280.32 383.88 280.29 388.18 281.56 390.31 282.94 394.63 283.5 395.55 281.59 396.82 281.1 398.92 278.88 400.7 278.32 402.5 278.32 403.88 276.54 406.45 276.65 411.22 283.35 412.39 289.04 412.42 290.75 415.9 291.41 417.52 293.07 416.84 294.53 417.04 295.75 416.23 297.85 417.01 298.8 416.73 300.21 414.38 301.42 412.27 302.96 410.36 302.55 407.99 305.31 407.88 306.23 406.02 308.89 405.35 310.83 404.66 314.46 402.71 315.24 402.34 317.46 402.86 318.18 402.16 320.92 399.94 321.64 398.69 322.6 398.96 324.25 398.27 325.62 398.1 328.42 396.59 330.24 395.52 330.8 393.64 330.91 393.92 331.95 392.31 332.77 392.18 334.89 391.67 335.94 391.77 337.44 390.28 339.45 389.97 341.42 388.09 343.52 387.42 345.15 388.47 346.61 385.78 348.39 384.6 351.75 383.63 352.17 382.62 353.59 380.3 353.46 379.88 350.83 378.02 349.61 377.54 348.26 375.15 347.07 374.04 349 371.36 349.04 370.12 347.74 367.57 349.91 366.48 350.06 365.68 352.6 364.59 352.9 361.87 355.04 361.31 356.04 358.34 358.83 356.96 359.77 356.58 361.27 357.35 362.13 356.37 366.96 354.32 369.87 354.23 370.56 351.15 373.3 348.38 373.25 345.59 373.66 343.44 373.6 339.39 372.75 339.48 373.85 337.31 375.17 336.02 375.46 332.02 375.65 328.22 376.18 326.65 375.58 324.94 374.32 322.99 372.43 321.86 370.36 320.58 366.84 320.34 365.04 318.86 363.39 316.87 359.75 315.61 358.1 313.85 356.45 310.6 354.41 307.69 353.87 301.6 353.4 300.15 352.38 299.97 354 295.21 354.09 292.88 354.31 293.65 350.84 293.08 349.79 292.99 347.9 293.61 347.15 293.26 343.4 293.8 342.67 293.05 341.52 293.12 339.35 292.55 338.34 293.2 334.95 292.81 333.8 293.3 331.93 293.07 329.04 293.56 326.04 295.78 326 296.91 325.31 297.54 323.6 297.3 322.11 299.49 319.48 299.26 318.39 301.31 317.7 302.21 316.41 302.79 314.23 301.92 313.06 302.75 311.47 303.85 311.79 304.68 309.73 303.58 307.34 303.82 306.47 303.48 304.3 302.86 303.97 301 301.32 301.22 299.58 302.17 298.1 Z" id="NG" data-name_long="Nigeria"/>
<path d="M 302.17 298.1 301.22 299.58 301 301.32 302.86 303.97 303.48 304.3 303.82 306.47 303.58 307.34 304.68 309.73 303.85 311.79 302.75 311.47 301.92 313.06 302.79 314.23 302.21 316.41 301.31 317.7 299.26 318.39 299.49 319.48 297.3 322.11 297.54 323.6 296.91 325.31 295.78 326 293.56 326.04 293.07 329.04 293.3 331.93 292.81 333.8 293.2 334.95 292.55 338.34 293.12 339.35 293.05 341.52 293.8 342.67 293.26 343.4 293.61 347.15 292.99 347.9 293.08 349.79 293.65 350.84 292.88 354.31 284.34 355.29 281.58 355.93 283.28 355.26 282.88 353.71 281.02 351.06 281.65 347.72 281.6 337.21 281.39 326.12 281.04 325.2 279.56 323.64 278.79 320.36 278.58 316.12 272.72 312.2 272.85 308.74 273.7 307.65 274.1 305.56 275.49 304.96 276.49 302.86 277.92 302.86 279.65 300.61 281.39 301.36 284.29 300.76 285.66 300.95 288.58 298.32 289.61 295.96 289.77 294.36 289.31 292.52 292.09 291.65 294.34 290.6 298.62 294.66 299.01 295.72 301.21 296.67 302.17 298.1 Z" id="BJ" data-name_long="Benin"/>
<path d="M 389.81 473.14 392.16 470.89 393.17 470.49 393.64 468.96 396.04 468.39 397.64 466.57 400.89 469.12 398.39 470.04 396.78 472.14 394.34 473.51 395.24 474.64 395.01 480.53 391.9 480.92 391.24 479.4 392.13 477.95 391.01 474.87 391.09 473 389.81 473.14 Z M 402.04 481.9 406.81 482 409.95 481.74 410.76 482.07 416.55 482.4 417.87 482.16 427.4 482 434.66 481.88 437.6 482.61 437.67 484.05 438.95 485.38 438.99 489.37 440.05 492.08 441.03 492.72 441.51 494.04 441.03 494.79 441.75 497.01 442.81 498.11 444.8 501.23 447.38 504.55 447.46 505.28 450.02 505.25 451.18 504.9 453.23 505.54 454.05 504.38 457.5 504.37 457.59 503.68 459.9 503.68 460.27 504.41 466.33 504.41 466.1 503 467.05 499.97 467.97 498.92 467.59 497.2 468.06 493.91 476.11 493.91 476.49 493.01 479.41 493 478.5 495.39 478.46 496.89 491.63 496.86 492.23 497.77 492.35 500.04 491.48 502.36 491.36 504.55 492.32 505.9 493.21 508.74 492.41 513.31 492.22 517.84 491.72 519.08 492.35 521.45 493.86 523.47 495.54 524.76 495.99 526.87 497.14 529.39 496.73 530.81 497.23 533.35 495.6 534.52 496.81 538.6 498.76 537.38 499.47 536.48 501.45 537.11 502.51 536.64 504.44 537.17 506.34 536.85 508.18 535.82 509.44 535.7 512.97 536.38 514.37 534.73 514.75 535.9 514.82 538.98 515.34 540.28 514.29 542.64 514.29 548.81 515.03 550.82 513.96 552.7 513.31 555.14 514.71 557.4 505.31 557.4 493.66 557.4 493.67 571.94 493.68 581.68 493.71 591.46 494.71 594.63 495.45 596.15 497.35 596.98 499.32 599.6 501.27 601.13 501.75 602.22 504.28 603.73 505.05 604.95 507.32 606.37 508.27 607.53 496.27 609.89 487.43 611.59 485.71 610.69 484.43 610.78 481.44 611.8 478.93 611.29 476.54 609.86 473.4 610.31 472.54 609.95 469.63 609.73 467.01 609.91 464.42 609.28 462.84 609.51 460.15 608.69 457.34 605.6 456.93 604.78 448.28 604.77 434.91 604.77 421.55 604.77 412.7 604.76 409.95 604.98 409.34 604.22 405.56 601.86 405.28 600.79 403.91 600.14 401.86 600 398.95 600.86 398.23 601.67 395.49 603.1 392.24 602.98 390.7 602.05 387.27 603.29 387.2 600.89 387.84 598.15 387.85 594.86 387.41 590.75 387.7 589.87 386.97 588.58 389.63 585.52 390.3 581.37 390.8 580.72 391.87 577.06 392.55 576.17 393.16 572.75 393.13 569.09 394.04 566.79 394.94 566.54 395.05 562.11 396.32 561.06 399.55 557.19 399.5 555.42 401.99 553.13 403.92 553.03 404.91 552.12 405.39 550.67 406.79 549.36 408.11 545.87 408.4 544.27 408.23 542.34 408.4 539.71 408.94 537.29 408.76 535.17 407.83 533.78 407.97 532.33 405.57 529.59 405.43 528.42 403.43 525.24 403.53 524.28 402.19 522.41 402.46 521.41 401.9 519.17 400.09 515.92 402.34 512.97 404.09 512.34 404.36 511.1 403.69 509.31 403.97 507.8 403.01 506.28 399.49 498.46 398.56 496.68 398.2 493.33 396.17 491.1 392.62 484.95 396.43 483.71 397.44 483.92 399.37 483.2 399.98 482.37 402.04 481.9 Z" fill-rule="evenodd" id="AO" data-name_long="Angola"/>
<path d="M 472.85 687.05 472.84 677.22 472.83 669.4 472.82 655.81 483.17 655.81 483.3 655.4 483.26 641.83 483.22 630.73 483.2 614.95 488.41 614.74 504.1 611.67 507.53 611.56 508.04 612.76 509.51 614.06 510.32 616.58 511.01 616.56 516.61 611.78 519.1 610.98 520.72 611.94 522.26 610.31 524.69 609.27 525.72 609.57 527.83 609.2 527.48 610.71 529.16 612.98 530.42 615.83 533.06 618.37 533.62 620.39 534.92 621.57 535.09 623.78 535.9 625.13 536.9 627.97 538.59 628.76 538.79 629.63 541.44 631.28 543.15 632.78 546.23 633.6 548.19 634.71 549.51 638.74 552.11 638.74 553.23 639.14 553.32 641.45 552.98 645.62 555.17 648.08 556.27 650.78 559.34 651.28 561.21 652 562.93 651.89 565.34 653.08 567.19 653.54 567.01 655.61 567.53 656.38 569.28 656.62 570.44 657.91 567.29 658.28 566.37 659.3 565.88 660.91 562.87 662.14 559.9 662.39 558.42 663.37 558.07 664.36 555.72 666.67 555.28 667.98 552.29 669.54 551.67 671.17 549.6 671.52 547.28 673.04 546 674.41 544.61 679.76 544.39 681.27 541.07 683.68 539.75 685.68 538.44 685.63 534.17 687 534.26 688.58 532.37 693.46 531.24 697.03 529.15 698.46 525.66 698.4 523.03 699.45 521.63 699.39 519.46 698.46 517.8 698.23 517.08 697.37 513.92 697.14 509.07 693.14 507.06 692.93 504.36 693.47 502.67 695.43 502.25 697.81 501.65 698.6 501.37 701.25 499.55 703.84 498.34 704.06 496.55 705.39 494.47 708.61 491.45 709.62 490.62 711.38 487.42 711.02 484.73 711.5 481.91 710.81 480.27 711.77 479.38 709.41 479.53 706.4 481.81 702.95 481.31 700.2 479.74 696.96 479.95 696.4 478.69 694.29 476.84 690.27 474.28 688.6 472.85 687.05 Z" id="BW" data-name_long="Botswana"/>
<path d="M 590.63 660.28 588.71 659.56 585.93 658.98 583.79 659.53 582.49 659.29 580.34 659.6 578.61 659.11 574.69 657.28 570.44 657.91 569.28 656.62 567.53 656.38 567.01 655.61 567.19 653.54 565.34 653.08 562.93 651.89 561.21 652 559.34 651.28 556.27 650.78 555.17 648.08 552.98 645.62 553.32 641.45 553.23 639.14 552.11 638.74 549.51 638.74 548.19 634.71 546.23 633.6 543.15 632.78 541.44 631.28 538.79 629.63 538.59 628.76 536.9 627.97 535.9 625.13 535.09 623.78 534.92 621.57 533.62 620.39 533.06 618.37 530.42 615.83 529.16 612.98 527.48 610.71 527.83 609.2 530.29 609.86 532.22 609.39 535.32 611.44 537.65 610.22 539.8 610.79 542.96 612.17 546.46 610.84 547.59 608.93 551.97 604.49 552.63 602.69 554.05 600.54 555 599.76 557.56 598.65 559.29 597.34 563.07 595.84 564.94 594.77 565.45 590.61 566.08 589.27 567.23 589.08 568.73 587.64 571.03 586.57 575.51 585.5 577.32 585.84 581.33 585.73 581.4 589.68 586.14 589.65 587.34 590.34 588.81 589.63 590.33 589.92 591.84 591.43 594.77 591.91 596.58 593.36 597.1 594.32 601.06 594.57 605.04 596.18 605.32 597.12 607.34 597.4 607.76 598.52 606.67 599.82 607.98 602.35 608.69 604.47 608.02 605.75 608.52 606.87 607.8 611.97 607.96 614.01 608.82 615.1 608.42 616.58 607.11 617.33 607.62 619.42 607.26 620.1 605.24 620.61 605.24 622.6 606.58 622.75 607.02 623.74 606.05 626.45 606.64 627.73 606.54 629.64 608.8 631.1 608.48 632.68 607.26 634.63 606.84 636.67 604.77 639.69 603.38 639.76 602.92 641.12 603.22 643.47 601.58 646.11 602.29 647.85 592.14 659.2 590.63 660.28 Z" id="ZW" data-name_long="Zimbabwe"/>
<path d="M 420.75 174.54 431.22 169.45 438.6 173.42 446.32 177.55 454.04 181.68 464.33 187.17 472.05 191.27 478.49 194.68 490.07 200.8 496.5 204.2 506.79 209.61 514.51 213.66 514.52 223.9 514.53 236.62 514.54 244.21 514.54 254.92 510.46 254.62 507.63 255.35 505.28 255.11 503.52 256.62 503.94 258.34 503.93 260.3 503.31 261.5 501.57 262.93 500.65 264.7 500.81 266.14 498.72 266.71 497.66 267.63 498.3 268.42 498.47 270.79 499.41 272.16 496.41 273.74 494.64 275.93 495.91 277.97 496.66 280.61 495.33 282.12 493.2 283.55 491.89 286.39 493.21 288.04 494.49 288.07 496.01 286.93 498.52 288.34 497.76 289.92 498.89 292.97 498.89 294.39 500.05 294.97 499.47 298.25 500.42 300.07 502.02 301.25 503.4 301.28 503.84 303.27 502.84 306.35 498.67 305.48 496.51 306.39 495.71 307.44 494.38 307.22 493.91 308.21 490.98 309.34 491.28 311.72 490.29 313.61 488.51 314.34 487.36 316.37 486.13 316.34 481.65 322.23 478.21 323.79 477.57 325.19 476.78 325.42 473.76 325.19 471.89 326.15 466.47 326.64 463.67 326.48 461.51 327.72 461.89 328.79 463.92 330.07 460.68 334.27 459.21 334.99 458.35 336.67 452.94 336.98 451.14 337.52 448.87 337.33 446.65 338.4 444.4 339.04 442.85 340.57 440.55 341.04 439.38 341.91 437.88 340.66 437.09 338.54 435.62 339.32 435.24 340.62 432.05 341.48 430.6 342.56 429.23 342.87 427.92 342.26 425.97 342.19 426.68 341.06 426.82 339.36 425.55 338.87 424.56 335.75 422.87 332.13 421.28 330.24 418.81 328.61 414.18 324.87 413.89 324.08 410.92 320.64 410 319.91 411.79 317.65 412.43 316.31 415.13 316.13 418.17 316.89 419.9 316.5 421.6 316.62 423.2 316.25 424.95 316.82 428.05 316.17 426.54 315.23 424.1 312.78 421.64 307.68 421.18 303.55 421.59 301.07 422.37 299.85 421.67 298.05 422.11 297.17 421.4 295.9 421.38 294.26 419.95 293.3 420 291.37 419.2 288.27 416.83 286.74 415.65 285.4 415.8 284.52 414.9 283.32 411.22 283.35 406.45 276.65 404.8 269.39 405.15 268.28 406.63 267.87 406.88 266.49 408.09 265.74 408.05 264.15 408.81 262.5 414.39 254.62 421.23 247.21 425.67 242.39 425.87 241.95 427.12 227.21 427.75 219.69 428.63 209.15 430.99 204.54 430.9 203.92 426.63 199.2 427.31 197.51 424.09 192.48 422.84 191.29 422.75 185.84 420.75 174.54 Z" id="TD" data-name_long="Chad"/>
<path d="M 174.27 120.74 174.27 108.87 174.62 108.16 177.39 106.02 180.65 103.96 185.34 100.25 188.15 100.33 190.27 98.82 192.23 98.82 194.05 99.57 194.92 98.74 199.37 97.98 202.2 97.98 204.75 97.57 205.12 98.65 207.01 98.65 209.78 94.29 213.93 90.76 216.55 89.5 219.17 86.8 221.42 85.87 224.77 85.36 226.74 84.34 226.59 82.82 227.68 81.38 226.84 79.68 224.97 78.16 224.93 76.96 226.45 76.1 226.59 72.94 235.26 71.14 234.1 68.03 238.5 67 251.7 67.62 251.28 66.77 252.02 63.79 253.8 62.26 249.89 59.47 248.47 57.1 249.09 55.52 247.27 53.31 247.18 51.68 247.91 49.78 246.81 45.06 247.27 42.45 245.86 39.09 246.48 37.55 245.22 36.26 246.09 34.23 241.86 31.09 241.56 30 243.33 30.19 246.37 29.49 248.98 27.38 251.51 26.16 252.31 23.92 253.95 22.42 256.12 21.32 257.6 21.98 259.26 21.18 261.08 19.54 262.01 20.69 263.42 21.08 265.07 20.1 266.04 17.69 271.62 14.05 273.72 13.47 275.59 12.06 284.65 10.98 286.17 10.98 288.77 10.19 290.31 10.72 292.14 10.52 295.26 7.88 297.83 8.73 298.44 7.82 300.76 8.31 304.58 6.52 307.47 6.9 310.97 6.54 314.58 6.75 317.89 8.23 318.03 9.3 319.96 10.03 321.64 9.74 322.8 8.49 324.7 7.56 325.84 7.69 329.26 6.66 330.74 4.48 332.03 4.16 333.29 5.52 335.77 6 336.68 6.78 340.12 5.76 341.62 4.3 345.05 5.86 347.09 7.35 350.47 5.93 353.23 6.63 354.32 6.17 354.54 7.65 352.67 8.04 352.29 10.04 349.81 11.55 351.68 12.55 351.35 16.46 350.56 20.56 351.41 22.81 351.35 27.45 352.54 28.06 351.31 29.83 350.64 32.39 350.51 35.61 349.02 37.1 346.29 38.56 345.69 40.5 343.02 42.59 342.62 45.11 343.39 48.06 344.85 50.62 345.45 53.69 348.95 55.1 350.99 58.3 351.37 61.72 353.07 63.27 358.67 67.34 358.93 67.74 361.21 78.17 363.87 90.18 361.44 91.52 364.19 95.31 365.41 97.63 367.07 103.37 367.33 107.45 366.55 113.59 368.21 118.33 367.02 122.57 365.97 125.08 367.06 129.43 367.94 130.33 367.8 132.55 367.17 134.28 363.49 136.05 362.4 138.18 362.64 138.82 368.56 147.13 369.1 148.6 369.21 153.33 370.89 154.55 371.59 156.54 373.57 157.68 376.38 156.82 384.59 159.55 385.2 160.08 389.38 168.62 380.17 174.54 373.08 179.07 365.99 183.59 354.65 190.79 342.66 198.38 337.84 202.58 333.56 206.5 325.52 213.85 324.6 214.35 317.66 215.76 308.76 217.56 300.54 219.18 299.17 219.33 297.03 217.44 298.65 214.6 298.04 213.02 298.22 210.36 295.4 208.73 290.7 207.86 289.72 207.45 288.46 205.66 287.44 204.99 286.13 205.7 283.23 204.7 281.89 203.51 281.84 202.28 280.55 201.23 278.92 200.77 276.64 199.24 277 197.01 276.65 195.82 264.6 187.36 254.67 180.35 245.65 173.95 238.43 168.81 228.79 161.92 221.32 156.56 214.49 151.74 207.25 146.81 200.76 142.57 188.7 134.67 180.46 129.24 174.27 125.16 174.27 120.74 Z" id="DZ" data-name_long="Algeria"/>
<path d="M 610.57 568.24 613.03 572.19 614.75 573.73 616.52 573.79 617.71 573.34 622.46 572.26 624.1 574.28 624.14 575.63 624.96 578.69 624.59 579.48 624.8 581.78 623.14 584.05 623.08 585.84 621.45 587.44 621.3 588.47 622.91 590.07 622.88 591.69 624.34 592.93 625.69 594.98 626.5 595.41 629.33 598.51 630.29 598.54 630.47 600.1 629.67 600.92 630.13 601.88 632.46 601.67 632.16 600.04 632.19 597.27 630.66 595.5 631.52 594.92 631.98 592.61 633.19 591.19 636.55 590.83 637.58 589.72 638.04 583.36 637.46 580.96 638.71 577.64 638.17 575.27 634.73 570.92 634.04 569.57 630.16 564.92 628.19 563.11 625.54 562.65 624.55 560.87 624.59 559.08 624.02 554.04 622.56 548.84 622.83 547.82 624.74 544.91 625.66 542.14 628.92 542.17 636.11 542.23 636.53 541.34 637.9 540.47 639.08 540.69 641.45 542.23 641.78 543.54 644.86 543.32 645.57 543.85 647.49 543.16 648.25 542.17 650.58 542.41 652.48 543.45 654.58 543.76 658.28 542.02 659.24 539.47 661.27 538.8 663.21 539.02 665.66 540.47 667.35 539.01 668.45 538.88 669.87 537.86 672.27 537.56 673.94 537.72 675.98 536.07 678.88 535.48 681.45 534.08 685.92 530.51 686.91 530.88 687.64 534.18 686.54 535.61 687.12 536.87 686.65 538.07 685 539.45 686.28 540.51 685.84 542.9 686.96 546.68 686.5 549.38 686.91 550.88 686.37 551.88 688.11 554.77 687.2 555.39 687.51 556.93 687.21 558.44 687.29 561.31 686.86 562.85 687.02 564.44 688.15 568.44 687.72 569.58 689.14 571.01 689.29 572.43 690.15 573.09 689.82 574.69 690.07 576.73 688.36 578.6 688.79 579.64 686.92 580.16 688.47 581.37 687.34 584.31 685.81 585.5 685.16 586.58 683.08 588.75 681.29 592.08 679.43 592.67 678.23 595.44 673.08 598.54 671.9 600.35 666.74 601.56 660.95 604.1 659.59 604.4 653.88 607.62 651.02 610.02 648.95 613.53 646.28 616.25 645.45 616.78 644.05 619.01 642.78 620.02 642.25 621.15 640.84 620.3 639.46 621.61 636.19 623.9 635.3 625.38 632.83 628.18 630.61 630.22 628.04 631.98 626.76 632.04 626.96 634.99 625.95 637.34 626.6 639.6 627.74 640.94 629.22 641.6 629.32 642.66 630.54 644.24 629.89 646.15 630.87 649.68 632.11 651.81 632.79 656.81 634.46 657.4 634.94 660.42 634.42 662.17 634.71 666.04 635.55 666.44 634.27 669.09 634.31 670.68 633.71 672.53 633.4 676.64 634.95 676.88 634.43 679.7 632.46 682.73 630.4 685.28 625.63 687.74 623.9 688.18 616.05 691.1 610.05 694.1 607.13 696.15 606.05 697.75 605.19 700.11 604.2 701.07 605.13 703.61 607.72 704.52 607.34 711.27 601.71 711.44 599.22 711.2 599.26 708.2 598.45 704.72 598.64 701.91 597.51 700.95 597.12 698.94 597.95 697.38 597.9 683.27 596.68 680.31 596.54 677.83 595.34 676.58 594.31 673.75 593.05 671.79 593.21 668.86 590.53 660.48 590.63 660.28 592.14 659.2 602.29 647.85 601.58 646.11 603.22 643.47 602.92 641.12 603.38 639.76 604.77 639.69 606.84 636.67 607.26 634.63 608.48 632.68 608.8 631.1 606.54 629.64 606.64 627.73 606.05 626.45 607.02 623.74 606.58 622.75 605.24 622.6 605.24 620.61 607.26 620.1 607.62 619.42 607.11 617.33 608.42 616.58 608.82 615.1 607.96 614.01 607.8 611.97 608.52 606.87 608.02 605.75 608.69 604.47 607.98 602.35 606.67 599.82 607.76 598.52 607.34 597.4 605.32 597.12 605.04 596.18 601.06 594.57 597.1 594.32 596.58 593.36 594.77 591.91 591.84 591.43 590.33 589.92 588.81 589.63 587.34 590.34 586.14 589.65 581.4 589.68 581.33 585.73 581.05 582.9 580.2 581.87 579.44 578.66 585.7 576.36 591.9 574.91 594.48 573.68 600.41 571.74 610.57 568.24 Z" id="MZ" data-name_long="Mozambique"/>
<path d="M 599.22 711.2 597.96 711.18 597.44 714.25 597.71 716.77 593.11 716.71 589.26 715.48 587.37 713.48 586.37 710.41 585.39 709.77 585.59 706.05 587.31 703.86 588.87 700.39 590.84 698.62 592.07 698.46 596.32 701.22 597.51 700.95 598.64 701.91 598.45 704.72 599.26 708.2 599.22 711.2 Z" id="SZ" data-name_long="Kingdom of eSwatini"/>
<path d="M 582.98 445.8 581.54 448.35 581.54 450.5 584.69 451.94 585.87 453.85 585.54 454.91 583.88 455.52 583.59 456.69 582.09 457.4 581.17 459.2 579.38 461.76 578.77 463.39 577.24 465.33 575.13 466.29 574.38 467.31 571 467.19 570.33 463.46 569.03 461.44 569.13 458.19 568.94 455.54 569.23 452.54 567.72 451.28 566.95 449.14 567.13 448.09 568.14 447.85 569.98 448.51 570.33 450.24 574.05 450.05 575.37 449.58 576.2 448.39 576.49 444.93 578.65 446.11 579.37 445.16 581.15 444.78 582.98 445.8 Z" id="BI" data-name_long="Burundi"/>
<path d="M 582.12 431.9 582.99 434.52 584.89 435.44 585.86 437.39 585.85 441.21 586.45 442.48 585.9 445.22 582.98 445.8 581.15 444.78 579.37 445.16 578.65 446.11 576.49 444.93 576.2 448.39 575.37 449.58 574.05 450.05 570.33 450.24 569.98 448.51 568.14 447.85 567.13 448.09 566.95 449.14 565.66 448.43 565.32 445.98 566.62 444.62 567.93 444.09 568.36 443.19 568.12 440.74 568.34 439.53 570.52 436.52 571.32 436.48 572.81 435.25 575.5 434.64 576.14 436.1 578.74 434.8 580.88 431.84 582.12 431.9 Z" id="RW" data-name_long="Rwanda"/>
<path d="M 585.95 384.41 587.04 382.43 589.1 381.33 590.69 381.44 592.89 382.63 594.59 382.16 595.76 381.01 597.17 382.42 597.45 383.35 599.86 384.08 599.99 383.06 601.91 381.89 605.92 381.49 608.63 380.37 610.49 381.62 613.11 381.75 614 381.44 618.63 376.79 619.59 378.16 619.51 379 621.78 382.11 623.45 382.55 622.85 384.66 623.39 387.62 624.55 388.5 624.86 390.08 626.48 391.05 627.4 393.71 628.49 394.97 627.89 396.32 628.95 398.88 629.07 403.32 626.99 406.32 627.18 407.95 625.99 408.19 624.16 409.3 622.91 412.29 621.75 413.69 620.25 414.82 619.79 416.96 617.76 419.64 618.39 422.39 617.78 427.69 617.87 431.23 611.3 431.23 601.76 431.23 592.23 431.23 585.83 431.23 583.86 431.97 582.12 431.9 580.88 431.84 578.74 434.8 576.14 436.1 575.5 434.64 572.81 435.25 572.58 430.36 573.15 429.79 573.34 425.39 574.2 419.75 575.13 418.99 575.46 417.27 576.59 415.59 576.46 412.61 577.6 411.63 578.72 411.38 579.69 408.95 582.19 407.88 584.31 405.15 587.89 402.26 590.15 399.41 590.41 398.14 589.47 396.79 588.2 396.92 587.46 395.83 586.29 396.49 584.76 395.35 584.91 393.66 586.11 390.63 584.97 389.14 585.58 386.95 586.68 385.42 585.95 384.41 Z" id="UG" data-name_long="Uganda"/>
<path d="M 566.59 735.59 568.96 737.49 570.04 737.74 571.33 740.75 569.95 742.24 569.69 744 568.47 744.64 567.89 746.54 568.29 747.67 565.33 749.44 563.04 750.22 560.17 750.56 558.62 751.86 558.65 753.31 556.94 756.48 553.7 755.88 552.19 754.55 550.74 752.45 549.77 752.38 548.73 749.04 548.03 748.38 546.11 744.14 548.48 743.23 550.31 741.4 550.68 740.15 552.88 737.45 553.74 735.58 556.57 734.97 557.99 733.13 559.68 733.1 560.57 732.14 563.32 731.88 563.66 732.96 565.6 734.26 566.59 735.59 Z" id="LS" data-name_long="Lesotho"/>
<path d="M 433.42 397.48 432.46 397.93 432.05 400.17 433.03 402.71 430.23 402.1 428.92 400.9 425.99 400.2 424.6 400.75 423.39 399.62 421.91 400.11 420.57 399.84 419.62 398.89 417.89 398.85 416.4 397.77 414.9 398.54 413.32 398.36 403.19 398.27 402.66 397.12 401 397.35 398.13 397.19 397.52 397.48 393.19 396.72 391.82 397.03 387.13 397.01 386.28 396.6 382.96 396.81 382.65 398.22 368.78 398.22 366.91 397.19 366.79 396.38 367.6 390.76 368.44 388.66 367.87 386.67 366.59 384.96 365.15 383.9 364.6 381.07 365.38 379.71 364.49 378.95 362.75 380.1 358.16 378.03 358.37 376.81 357.62 375.76 357.13 372.79 355.35 373.85 354.05 373.95 353.3 373.33 354.23 370.56 354.32 369.87 356.37 366.96 357.35 362.13 356.58 361.27 356.96 359.77 358.34 358.83 361.31 356.04 361.87 355.04 364.59 352.9 365.68 352.6 366.48 350.06 367.57 349.91 370.12 347.74 371.36 349.04 374.04 349 375.15 347.07 377.54 348.26 378.02 349.61 379.88 350.83 380.3 353.46 382.62 353.59 383.63 352.17 384.6 351.75 385.78 348.39 388.47 346.61 387.42 345.15 388.09 343.52 389.97 341.42 390.28 339.45 391.77 337.44 391.67 335.94 392.18 334.89 392.31 332.77 393.92 331.95 393.64 330.91 395.52 330.8 396.59 330.24 398.1 328.42 398.27 325.62 398.96 324.25 398.69 322.6 399.94 321.64 402.16 320.92 402.86 318.18 402.34 317.46 402.71 315.24 404.66 314.46 405.35 310.83 406.02 308.89 407.88 306.23 407.99 305.31 410.36 302.55 412.27 302.96 414.38 301.42 416.73 300.21 417.01 298.8 416.23 297.85 417.04 295.75 416.84 294.53 417.52 293.07 415.9 291.41 412.42 290.75 412.39 289.04 411.22 283.35 414.9 283.32 415.8 284.52 415.65 285.4 416.83 286.74 419.2 288.27 420 291.37 419.95 293.3 421.38 294.26 421.4 295.9 422.11 297.17 421.67 298.05 422.37 299.85 421.59 301.07 421.18 303.55 421.64 307.68 424.1 312.78 426.54 315.23 428.05 316.17 424.95 316.82 423.2 316.25 421.6 316.62 419.9 316.5 418.17 316.89 415.13 316.13 412.43 316.31 411.79 317.65 410 319.91 410.92 320.64 413.89 324.08 414.18 324.87 418.81 328.61 421.28 330.24 422.87 332.13 424.56 335.75 425.55 338.87 426.82 339.36 426.68 341.06 425.97 342.19 425.47 343.59 423.29 345.09 421.4 349.88 420.25 350.72 418.03 355.47 416.11 356.18 414.68 357.97 415.56 359.11 416.63 358.97 417.12 360.91 416.72 362.11 416.76 364.33 416 365.71 417.45 367.15 417.41 368.66 418.01 372.59 418.66 373.39 420.96 374.87 422.03 377.91 421.84 380.28 422.74 381.6 429.14 388.39 430.48 388.5 432.34 390.95 432.03 392.62 432.32 394.62 433.42 397.48 Z" id="CM" data-name_long="Cameroon"/>
<path d="M 403.19 398.27 402.28 400.01 401.48 404.19 402.62 405.91 402.73 408.06 404.44 407.29 405.79 407.41 408.4 405.84 412.46 406.4 413.17 406.92 413.4 408.75 415.42 411.27 415.2 412.28 412.96 415.13 411.33 415.17 410.96 416.47 409.97 417.13 409.2 418.74 409.72 421.34 408.78 422.92 411.81 423.93 412.21 425.53 413.59 425.33 415.4 426.54 415.74 427.36 415.3 429.7 414.62 431.45 415.39 433.54 415.56 435.25 414.44 437.5 414.74 438.19 414.4 440.8 413.17 441.29 413.03 442.88 412.12 444.32 412.91 444.99 411.39 446.84 409.34 446.72 409.12 444.97 408.15 442.86 406.31 445.03 404.76 446.08 403.89 446.09 400.24 444.62 398.09 440.78 395.78 439.81 394.12 440.56 394.61 443.25 394.49 445.06 390.36 445.95 389.07 445.05 387.17 445.95 385.11 445.27 385.65 448.7 384.89 449.94 385.93 450.31 387.25 451.87 386.45 453.83 389.13 455.21 387.92 457.77 388.65 458.54 387.83 459.46 386.05 459.08 385.23 457.74 383.6 458.18 381.51 459.33 380.48 461.83 379.51 461 379.13 459.51 375.61 456.77 375.5 455.32 373.59 453.44 367.86 448.93 367.24 446.84 369.29 448.02 370.31 447.12 367.93 446.53 364.68 445.29 364.35 443.63 362.29 441.57 362.21 440.73 361 439.39 361.58 437.22 361.43 435.53 360.11 435.32 358.77 434.32 358.62 432.97 357.18 430.93 356.38 428.43 357.72 427.94 358.51 429.17 359.51 427.03 361.25 425.08 362.16 420.62 361.66 417.46 362.88 418.62 365.88 419.38 365.54 418.47 363.65 417.75 361.68 414.39 363.88 413.66 364.97 414.13 364.9 412.38 364.31 410.76 365.43 409.76 366.84 410.38 367.92 411.04 369.18 410.33 382.8 410.38 382.65 398.22 382.96 396.81 386.28 396.6 387.13 397.01 391.82 397.03 393.19 396.72 397.52 397.48 398.13 397.19 401 397.35 402.66 397.12 403.19 398.27 Z" id="GA" data-name_long="Gabon"/>
<path d="M 389.38 168.62 405.15 172.45 406.37 173.14 412.64 178.75 412.96 178.81 420.75 174.54 422.75 185.84 422.84 191.29 424.09 192.48 427.31 197.51 426.63 199.2 430.9 203.92 430.99 204.54 428.63 209.15 427.75 219.69 427.12 227.21 425.87 241.95 425.67 242.39 421.23 247.21 414.39 254.62 408.81 262.5 408.05 264.15 408.09 265.74 406.88 266.49 406.63 267.87 405.15 268.28 404.8 269.39 406.45 276.65 403.88 276.54 402.5 278.32 400.7 278.32 398.92 278.88 396.82 281.1 395.55 281.59 394.63 283.5 390.31 282.94 388.18 281.56 383.88 280.29 378.8 280.32 375.91 280.17 370.56 281.33 368.15 282.63 365.13 286.08 361.27 286.22 357.86 285.82 355.12 285 353.6 283.5 352.19 283.38 350.6 281.92 348.85 280.87 345.5 280.69 341.71 282.98 339.69 282.93 338.57 284.12 336.65 284.11 335.32 282.79 334.22 280.75 331.05 277.48 329.6 276.92 328.46 277.18 322.57 274.83 320.69 275.03 319.64 276.13 316.01 276.34 315.3 275.9 311.66 276.75 308.97 278.9 307.69 279.13 307.67 281.69 307.3 284.23 305.64 286.85 302.69 289.22 302.75 291.99 302.25 295.86 302.91 297.42 302.17 298.1 301.21 296.67 299.01 295.72 298.62 294.66 294.34 290.6 292.09 291.65 289.31 292.52 289.77 294.36 289.61 295.96 289.07 295.49 286.28 291.59 286.27 290.77 288.1 290.34 287.66 288.64 286.68 287.33 285.25 287.13 283.73 288.42 280.71 287.95 276.32 284.23 274.83 283.47 274.96 280.25 275.63 279.46 274.62 277.94 271.18 276.91 268.24 272.12 268.76 270.77 266.68 268.66 266.3 267.6 267 265.61 266.99 263.67 270.07 262.78 271.69 263.36 274.85 262.81 277.95 259.91 278.58 259.65 286.39 259.38 295.96 259.05 296.72 258.1 301.24 258.89 301.45 257.36 303.17 255.89 305.04 254.99 305.37 253.14 306.2 252.08 306.08 250.97 307.01 248.67 308.29 247.39 308.27 243.11 308.83 241.08 308.79 228.44 308.76 217.56 317.66 215.76 324.6 214.35 325.52 213.85 333.56 206.5 337.84 202.58 342.66 198.38 354.65 190.79 365.99 183.59 373.08 179.07 380.17 174.54 389.38 168.62 Z" id="NE" data-name_long="Niger"/>
<path d="M 236.7 321.49 235.92 322.51 234.4 320.92 233.57 319.17 232.48 318.9 232.04 317.88 230.57 317.74 229.41 317 226.57 316.62 224.19 317.2 222.42 318.24 221.66 317.98 220.23 318.79 219.69 320.22 217.82 319.73 216.75 318.97 215.7 319.23 214.31 317.46 212.98 317.13 212.89 315.49 212.13 315.18 211.46 313.13 210.36 312.7 208.44 312.9 207.19 311.58 207.75 309.86 208.14 307.14 207.53 304.62 209.27 304.05 210.36 301 210.19 299.37 209.42 298.81 209.84 296.53 210.88 295.46 213.11 294.8 214.64 294.9 216.24 294.12 216.95 292.76 218.82 291.58 218.34 290.22 219.02 289.21 218.02 287.97 218.86 287 219.95 287.26 220.84 286.12 220.66 284.73 219.39 282.92 221.51 280.98 221.96 280.09 223.21 279.94 225.14 280.47 227.24 282.05 228.65 282.41 229.02 281.25 230.87 281.06 230.5 278.38 230.76 277.14 232.16 276.94 232.76 277.69 234.55 277.21 234.21 275.62 235.12 273.01 237.66 271.09 239.07 270.46 242.3 271.8 243.63 271.34 243.83 268.7 244.22 268.27 247.04 268.14 250.65 265.79 253.84 264.68 256.87 261.96 259.84 261.85 260.57 262.69 262.25 262.01 266.99 263.67 267 265.61 266.3 267.6 266.68 268.66 268.76 270.77 268.24 272.12 271.18 276.91 274.62 277.94 275.63 279.46 274.96 280.25 274.83 283.47 276.32 284.23 280.71 287.95 283.73 288.42 285.25 287.13 286.68 287.33 287.66 288.64 288.1 290.34 286.27 290.77 286.28 291.59 289.07 295.49 289.61 295.96 288.58 298.32 285.66 300.95 284.29 300.76 281.39 301.36 279.65 300.61 277.92 302.86 276.49 302.86 275.49 304.96 274.1 305.56 269.78 305.45 262.98 304.05 260.48 304.41 259.33 305.61 248.06 305.52 236.06 305.64 234.88 306.93 234.17 309.37 235.39 311.92 235.2 312.84 236.2 317.85 235.59 319.04 235.95 320.67 236.7 321.49 Z" id="BF" data-name_long="Burkina Faso"/>
<path d="M 274.1 305.56 273.7 307.65 272.85 308.74 272.72 312.2 278.58 316.12 278.79 320.36 279.56 323.64 281.04 325.2 281.39 326.12 281.6 337.21 281.65 347.72 281.02 351.06 282.88 353.71 283.28 355.26 281.58 355.93 279.6 356.26 277.06 357.12 272.7 353.77 272.16 352.05 270.12 349.44 269.86 347.97 270.94 347.36 271.44 344.29 269.93 342.91 269.91 341.78 271.09 340.34 270.69 335.03 272.06 334.2 271.13 332.03 269.33 330.79 268.52 329.02 269.98 328.05 269.2 326.35 269.97 324.67 270.31 322.66 269.2 321.48 267.12 322.22 267.11 320.57 268.41 320.62 268.07 318.61 268.57 316.64 268.53 312.86 267.66 311.88 266.55 311.87 264.92 309.86 263.79 309.37 264.88 304.82 262.98 304.05 269.78 305.45 274.1 305.56 Z" id="TG" data-name_long="Togo"/>
<path d="M 235.09 367.07 235.74 367.06 235.65 365.01 236.25 364.91 235.73 362.58 233.78 362.13 233.15 361.27 233.25 360.07 232.23 356.46 231.55 355.4 230.73 351.7 231.27 350.66 231.12 349.26 232.32 347.2 232.98 346.94 233.56 344.84 234.07 341.62 235.13 339.07 237.43 335.88 238.6 334.98 237.43 327.45 237 326.49 235.81 326.06 237.01 323.76 236.7 321.49 235.95 320.67 235.59 319.04 236.2 317.85 235.2 312.84 235.39 311.92 234.17 309.37 234.88 306.93 236.06 305.64 248.06 305.52 259.33 305.61 260.48 304.41 262.98 304.05 264.88 304.82 263.79 309.37 264.92 309.86 266.55 311.87 267.66 311.88 268.53 312.86 268.57 316.64 268.07 318.61 268.41 320.62 267.11 320.57 267.12 322.22 269.2 321.48 270.31 322.66 269.97 324.67 269.2 326.35 269.98 328.05 268.52 329.02 269.33 330.79 271.13 332.03 272.06 334.2 270.69 335.03 271.09 340.34 269.91 341.78 269.93 342.91 271.44 344.29 270.94 347.36 269.86 347.97 270.12 349.44 272.16 352.05 272.7 353.77 277.06 357.12 276.16 357.68 275.08 359.85 274.24 360.5 272.25 360.73 268.07 360.48 266.35 361.05 265.07 362.06 260.84 363.48 259.43 364.78 258.07 365.07 256.38 366.39 253.78 366.56 251.86 367.58 248.36 368.44 246.5 369.92 242.94 371.38 240.16 369.47 236.69 368.53 233.83 368.16 232.22 367.68 232.26 367.51 233.71 367.75 235.09 367.07 Z" id="GH" data-name_long="Ghana"/>
<path d="M 121.71 287.68 122.39 289.79 121.88 292.01 120.55 291.9 119.25 293.28 121.76 294.83 121.69 297.95 118.72 298.72 115.98 298.42 113.45 300.04 111.73 300.06 110.25 301.93 109.89 303.17 108.25 305.83 107.24 305.65 106.31 304.16 104.2 303.47 104.15 301.92 103.18 301.69 104.34 299.84 102.72 297.7 102.37 296.44 99.81 297.54 98.37 297.32 98.24 295.7 96.65 296.04 94.59 294.81 94.24 292.81 93.13 292.87 91.16 291.32 90.46 291.31 94.07 290.87 95.62 290.03 101.41 290.17 106.43 287.61 121.71 287.68 Z M 96.32 296.23 98.1 295.93 97.74 297.31 96.32 296.23 Z" fill-rule="evenodd" id="GW" data-name_long="Guinea-Bissau"/>
<path d="M 524.93 185.82 524.93 179.24 524.93 166.02 524.93 149.32 524.93 132.42 524.93 120.68 524.93 110.94 524.93 102.74 523.81 99.31 523.78 97.27 523.09 95.88 523.16 94.24 521.88 91.2 522.75 88.94 524.16 86.92 525.07 83.45 523.66 79.07 523.68 76.21 525.37 74.82 526.69 72.84 527.11 74.36 529.31 74.71 533.71 73.34 535.19 73.32 539.31 74.48 545.6 75.36 547.18 76.09 549.3 76.2 549.95 77.57 552.83 78.65 554.95 78 555.3 79.45 559.69 80.11 560.59 79.79 564.89 81.44 567.08 82.94 569.07 82.81 572.03 81.37 575.52 78.97 577.65 76.94 578.93 78.2 579.99 77.71 580.98 74.64 584.92 75.9 586.68 75.68 587.99 74.51 589.92 73.77 593.08 75.36 596.35 74.44 596.7 75.85 595.85 76.66 598.63 79.87 600.62 79.54 601.17 77.42 603.35 79.54 605.66 80.37 608.13 79.79 609.48 78.54 610.41 80.09 613.66 79.28 615.2 79.42 619.36 78.05 620.96 77.02 623.88 85.07 624.43 88.11 625.12 88.78 627.46 96.03 628.11 99.05 626.54 101.26 625.9 103.63 625.47 107.63 623.11 113.12 623.61 114.78 623.32 116.95 621.37 119.18 619.69 119.1 616.41 116.47 614.34 113.24 612.97 112.42 610.84 110.02 609.97 104.52 607.26 102 606.55 99.96 605.13 97.73 605.23 96.13 603.91 93.26 602.13 96.12 601.56 97.73 604.2 100.73 604.91 103.84 604.55 105.23 606.59 107.9 607.09 109.91 608.49 110.97 609.77 113.36 611.98 115.75 613.79 117.24 614.46 118.52 613.9 119.68 614.27 122.21 615.05 122.69 615.66 124.5 617.05 125.46 617.17 127.09 618.91 130.26 618.26 132.54 619.02 133.03 622.4 140.12 624.56 143.32 625.97 146.74 629.18 152.77 631.74 158.56 633.37 159.9 634.43 161.89 634.64 163.39 634.39 168.85 635.76 172.91 636.53 175.26 638.52 177.48 641.76 178.42 644.29 181.75 649.03 185.02 648.91 185.81 634.35 185.81 619.75 185.81 610.34 185.81 599.46 185.81 592.16 185.82 592.73 184.1 591.37 183.65 590.21 185.83 581.7 185.83 571.56 185.82 559.4 185.82 549.26 185.82 539.12 185.82 524.93 185.82 Z" id="EG" data-name_long="Egypt"/>
<path d="M 87.04 199.56 86.79 198.36 88.06 193.24 95.26 193.24 108.44 193.24 118.72 193.24 129.14 193.23 128.33 180.19 127.57 177.28 129.14 174.28 133.26 171.42 136.03 170.83 139.55 168.87 139.55 160.2 139.55 148.06 139.55 140.2 151.1 140.2 163.69 140.2 174.01 140.2 174.29 139.99 174.27 125.16 180.46 129.24 188.7 134.67 200.76 142.57 207.25 146.81 214.49 151.74 202.95 151.74 196.03 151.75 197.02 160.75 198.31 172.79 199.93 187.75 201.03 197.86 202.59 212.28 203.7 222.87 204.75 232.95 206.14 246.18 208.95 248.52 207.31 257.36 195.19 257.37 186.41 257.37 177.97 257.37 167.33 257.36 166.55 257.96 163.96 258.06 162.26 258.71 159.18 258.69 157.33 258.02 152.88 258.15 151.01 261.6 149.66 259.8 147.02 257.84 145.86 256.21 142.56 256.87 141.32 260.78 141.65 262.41 141.41 263.87 139.99 265.09 136.96 265.14 135.73 264.37 134.8 262.74 133.23 261.61 132.52 261.72 130.79 260.32 129.67 257.22 128.36 257.35 128.02 256.2 126.82 255.98 126.03 252.75 124.25 250.22 122.26 250.74 120.85 250.58 119.26 249.41 118.72 248.04 115.31 244.99 109.18 244.92 108.73 244.4 107.16 245.58 103.35 245.78 101.46 246.68 100 246.33 97.49 246.53 96.67 245.88 94.64 246.75 94.08 249.23 93.19 250.02 92.4 253.97 92.43 249.01 93.18 246.56 93.26 244.91 94.47 241.67 96.25 238.18 97.54 233.76 97.8 230.55 97.33 224.81 96.67 223.22 95.92 219.32 95.1 217.69 93.1 216.15 93.22 214.92 94.31 214.54 95.08 213.29 94.04 212.8 95.61 210.37 94.94 208.94 95.82 207.71 95.33 206.58 95.97 205.69 94.97 204.41 93.97 201.76 93.04 200.58 92.29 201.68 91.12 200.63 90.28 198.42 88.35 195.27 87.47 196.61 87.04 199.56 Z" id="MR" data-name_long="Mauritania"/>
<path d="M 366.79 396.38 366.91 397.19 368.78 398.22 382.65 398.22 382.8 410.38 369.18 410.33 367.92 411.04 366.84 410.38 366.33 409.26 364.55 409.92 363.74 408.93 362.21 408.84 362.71 407.41 364.34 405.12 364.89 403.37 366.78 400.98 366.43 399.06 366.79 396.38 Z M 357.65 381.69 358.02 382.81 357.01 384.18 355.29 387.34 352.73 386.67 352.98 384.69 353.91 384.76 355.36 381.58 357.65 381.69 Z" fill-rule="evenodd" id="GQ" data-name_long="Equatorial Guinea"/>
<path d="M 92.2 277.9 103.07 277.95 104.36 275.93 105.68 276.24 107.45 275.41 109.34 275.7 111.29 277.56 112.78 277.12 113.98 278.6 115.44 279.3 117.91 278.25 119.22 278.03 120.77 279.59 120.43 280.6 118.29 281.01 116.78 281.73 114.77 281.59 112.71 280.41 108.31 278.88 107.03 277.87 106.09 279.64 104.51 280.31 103.05 280.05 99.9 280.77 99.78 282.51 91.03 282.43 90.2 283.49 89.41 280.57 92.2 277.9 Z" id="GM" data-name_long="The Gambia"/>
<path d="M 619.75 185.81 618.86 188.37 617.48 188.57 614.27 189.01 610.34 185.81 619.75 185.81 Z" id="-99" data-name_long="Bir Tawil"/>
<path d="M 725.69 637.66 726.74 635.02 727.61 634.1 728.03 632.52 726.9 630.99 727.25 629.17 728.07 628.21 727.82 627.05 725.41 623.04 725.72 620.28 724.97 618.15 723.55 616.13 723.47 613.62 723.05 610.77 723.41 608.93 722.3 607.1 722.44 605.5 724.91 601.57 725.52 600.21 727.52 597.27 727.21 593.71 727.75 591.69 730.9 591.8 731.93 592.11 733.87 590.95 734.9 589.57 736.23 588.84 737.4 589.38 740.1 589.05 740.68 587.32 742.04 587.65 744.03 587.42 745.37 586.46 746.92 589.02 747.86 587.88 747.07 586.35 747.33 585.66 753.03 581.28 753.99 581 755.06 582.35 753.94 584.17 756.7 583.53 754.89 581.19 757.32 578.03 757.3 577.21 758.92 575.32 759.53 577.21 758.67 578.48 759.31 579.72 762.13 574.55 761.68 572.07 762.77 570.42 763.94 570.74 765.17 569.72 764.09 568.14 763.41 565.78 763.71 563.84 765.03 562.92 766.19 563.76 766.59 565.38 768.11 565.73 768.16 564.46 769.16 562.99 772.49 561.79 773.44 560.17 773.49 558.25 774.51 556.62 774.65 555.37 773.72 553.51 774.65 551.71 774.96 550.27 777.22 548.28 777.22 547.23 778.48 546.71 778.76 549.89 780.74 550.74 781.23 551.85 780.99 553.29 782.73 554.58 784.12 556.11 784.93 557.74 785.25 560.93 787.02 565.77 787.34 568.71 787.22 570.27 787.75 571.18 787.52 573 788.49 577.55 790.5 580.96 790.78 582.27 790.01 585.34 788.05 589.21 787.29 589.5 785.94 588.14 785.28 585.62 784.55 584.92 784.5 583.41 782.93 583.56 781.77 584.74 782.76 588.64 782.44 590.91 783.93 591.97 783.97 595.66 782.65 597.35 783.23 598.96 781.62 599.29 780.63 600.98 779.61 603.63 780.37 607.77 780.3 609.23 779.43 612.19 778.86 616.1 777.65 618.66 777.11 620.7 775.92 623.16 774.97 626.62 773.66 630 773.28 632.41 770.56 639.9 769.45 644.77 766.8 653.52 764.15 659.72 763.67 661.22 762.97 665.96 761.97 669.98 760.74 673.78 760.21 676.76 759.03 678.9 757.81 682.14 757.54 683.99 755.72 688.85 753.92 690.64 750.68 692 747.9 691.79 746.34 692.17 741.52 694.59 738.58 696.5 734.87 696.62 731.73 693.85 730.62 693.38 726.88 692.84 724.99 690.66 723.34 689.88 722.29 687.3 722.29 685.9 721.37 684.22 719.98 683.08 719.46 680.56 719.54 676.93 719.3 674.33 720.41 673.55 720.52 672.23 719.17 670.93 718.69 667.94 716.34 665.16 715.59 662.42 715.52 660.6 714.94 658.67 715.69 657.67 715.19 656.2 716.12 653.21 717.54 652.13 717.54 649.14 718.73 647.68 720.27 647.76 721.09 647.12 722.01 643.3 723.41 641.55 724.35 639.02 725.69 637.66 Z M 768.16 561.24 766.85 561.48 766.77 560.07 767.98 560.02 768.16 561.24 Z" fill-rule="evenodd" id="MG" data-name_long="Madagascar"/>
<path d="M 728.55 549.19 728.54 550.49 726.48 549.23 728.08 547.62 728.55 549.19 Z M 717.48 544.81 716.47 545.23 715.36 544.78 715.16 543.23 715.5 540.11 716.78 540.53 716.55 542.51 717.48 544.81 Z" fill-rule="evenodd" id="KM" data-name_long="Comoros"/>
<path d="M 334.31 416.54 334.98 417.26 334.92 418.51 334.09 419.67 332.59 420.43 332.02 418.47 332.76 417.16 334.31 416.54 Z" id="ST" data-name_long="São Tomé and Principe"/>
<path d="M 11.63 263.6 10.79 264.7 9.23 263.53 10.51 262.3 11.63 263.6 Z M 20.37 262.46 19.99 263.59 18.09 263.41 17.09 262.3 16.95 260.83 17.87 259.84 19.81 261.49 20.37 262.46 Z M 28.44 250.67 27.15 252.06 25.7 251.69 25.92 249.59 28.11 249.67 28.44 250.67 Z M 25.87 245.46 25.23 243.05 26.23 242.9 25.87 245.46 Z M 3.81 240.66 2.34 241.82 1.19 241.94 1 239.88 3.23 238.9 4.6 239.87 3.81 240.66 Z" fill-rule="evenodd" id="CV" data-name_long="Republic of Cabo Verde"/>
</g>
</svg>