<?xml version="1.0"?>
<svg xmlns="http://www.w3.org/2000/svg" version="1.2" baseProfile="tiny" width="800" height="411" viewBox="0 0 800 411" stroke-linecap="round" stroke-linejoin="round">
<g id="MLOC-AT">
<path d="M 541.91 67.96 543.24 54.25 550.72 46.18 553.34 37.84 560.38 37.99 565.79 40.21 569.11 37.23 567.76 33.66 570.9 20.59 570.52 6.77 572.35 1 588.6 3.38 589.08 12.23 599.14 10.12 601.73 5.04 609.33 6.25 623.6 12.36 631.16 17.79 645.52 24.81 652.04 24.81 659.86 22.61 662.12 26.14 682.24 40.77 687.78 43.18 697.45 42.6 716.34 45.66 719.13 44.1 724.44 34.98 732.25 33.35 746.14 37.56 748.11 43.63 755.13 44.73 760.52 47.8 770.19 46.97 772.67 50.46 774.12 60.96 777.73 65.17 778.15 74.55 774.48 78.59 768.92 90.52 767.21 102.84 773.22 106.97 774.76 114.62 778.31 116.86 781.59 134.97 788.45 139.72 790.01 142.59 781.7 144.93 779.53 153.07 773.04 148.95 764.24 153.47 757.37 155.62 752.56 158.81 750.03 164.69 738.83 172.78 731.49 170.35 724.81 171.48 719.75 175.42 716.52 180.28 716.31 186.32 712.77 192.03 709.17 192.46 709.12 201.97 718.18 215.6 712.46 226.97 712.8 237.87 703.01 246.51 694.33 246.9 690.73 243.75 687.27 235.52 683.79 237.12 678.67 234.4 670.14 232.93 667.59 226.92 660.59 223.29 660.93 217.58 657.6 215.53 651.99 216.87 650.2 208.55 641.04 204.32 637.65 200.27 630.59 199.65 609.71 187.51 603.3 189.1 598.27 188.46 593.8 194.51 580.1 199.13 575.76 198.89 566.86 202.85 562.03 203.19 557.3 199.17 546.41 199.23 542.77 196.31 548.15 175.57 541.85 170.06 533.07 166.31 516.2 153.52 516.2 149.51 519.82 141.77 518.71 135.83 520.33 126.01 524.01 121.85 528.72 121.94 540.27 131.64 555.26 128.01 559.79 123.08 570.94 121.44 571.65 107.88 570.44 100.08 567.37 92.06 562.39 87.79 562.12 82.43 564.43 77.36 541.91 67.96 Z M 729.35 114.98 725.56 108.76 715.61 112.67 705.93 119.85 700.66 119.14 698.55 124.17 700.93 128.45 700.04 132.93 703.19 136.87 715.14 136.87 721.8 139.05 724.93 135.61 731.39 134.92 738.63 136.26 735.68 129.26 737.04 121.19 732.38 112.73 729.35 114.98 Z" fill-rule="evenodd" id="AT-3" data-name="Niederösterreich"/>
<path d="M 349.1 162.99 347.26 157.82 339.89 150.08 337.46 144.59 338.3 141.35 346.37 135.06 352.18 128.57 357.97 127.44 368.41 118.9 379.25 114.58 393.67 112.05 397.18 110.08 407.41 101.11 410.83 90.96 412.73 80.59 411.02 72 419.46 68.27 430.3 71.31 439.71 77.97 441.76 72.19 445.12 71.56 448.93 63.97 448.61 49.57 447.2 46.05 450.32 39.44 454.53 40.57 467.75 48.96 472.97 55.17 470.25 59.57 473.87 65.64 477.43 67.14 492.26 68.81 502.64 72.49 512.01 68 516.01 60.05 524.22 64.15 530.16 62.58 541.91 67.96 564.43 77.36 562.12 82.43 562.39 87.79 567.37 92.06 570.44 100.08 571.65 107.88 570.94 121.44 559.79 123.08 555.26 128.01 540.27 131.64 528.72 121.94 524.01 121.85 520.33 126.01 518.71 135.83 519.82 141.77 516.2 149.51 516.2 153.52 533.07 166.31 541.85 170.06 548.15 175.57 542.77 196.31 536.1 201.7 521.03 207.74 519.51 210.41 505.94 218.59 500.3 219.38 490.01 213.61 475.85 218.53 474 212.88 469.26 207.25 464.65 207.89 451.11 203.84 439.94 209.44 436.87 212.64 436.27 222.95 441.39 230.94 440.75 238.38 435.54 242.07 425.85 240.19 416.13 232.54 415.1 228.1 417.88 222.12 416.14 216.13 419.97 204.31 418.67 201.52 412.34 199.15 412.41 196.15 418.2 195.65 417.03 191.79 398.12 187.56 395.52 185.13 393.36 173.96 395.88 165.05 401.69 165.63 401.85 162.17 396.67 158.68 389.53 161.98 379.51 162.25 374.38 160.2 368.74 155.41 361.67 155.29 357.35 159.95 349.1 162.99 Z" id="AT-4" data-name="Oberösterreich"/>
<path d="M 694.33 246.9 703.01 246.51 712.8 237.87 712.46 226.97 718.18 215.6 709.12 201.97 709.17 192.46 712.77 192.03 716.31 186.32 716.52 180.28 719.75 175.42 724.81 171.48 731.49 170.35 738.83 172.78 750.03 164.69 752.56 158.81 757.37 155.62 764.24 153.47 773.04 148.95 779.53 153.07 781.7 144.93 790.01 142.59 791.87 144.96 789.67 150.78 790.77 154.66 799 159.39 793.54 166.19 791.59 177.16 783.9 181.6 787.61 185.64 789.21 206.72 773.3 209.83 769.33 209.1 767.8 205.02 762.29 210.85 756.4 209.92 753.85 207.5 752.35 203.36 742.65 199.16 734.42 200.35 732.52 206.1 721.52 213.05 729.28 216.52 737.21 217.94 744.79 219.15 750.15 230.24 750.84 234.57 745.48 239.13 744.45 246.51 740.52 249.59 729.28 254.75 724.26 254.05 723.32 261.11 727.95 270.05 727.68 274.65 722.94 277.78 722.04 286.4 732.16 294.05 727.07 300.39 727.17 304.66 730.45 307.64 724.59 310.3 729.74 315.4 721.79 316.65 719.42 314.87 707.62 314.52 702.99 323.11 695.51 328.94 688.69 336.22 684.39 338.77 681.83 340.17 679.17 334.05 680.8 327.01 684.55 323.74 693.11 311.36 688.22 302.44 688.79 289.8 685.92 278.63 684.96 270.38 680.95 257.82 683.82 251.92 688.29 253.26 694.33 246.9 Z" id="AT-1" data-name="Burgenland"/>
<path d="M 4.45 233 10.57 234.69 20.13 233.21 25.22 225.36 31.01 226.25 31.55 231.61 36.34 231.67 45.73 234.32 49.28 241.02 53.47 239.95 58.61 247.51 58.75 258.89 64.25 259.33 71.07 256.77 72.92 260.6 69.4 273.27 72.38 284.63 72.25 290.43 65.56 303.3 63.7 322.06 59.83 329.29 64.2 338.67 58.22 337.16 51.82 331.93 40.63 328.31 36.71 324.42 36.24 312.81 16.47 306.55 7.28 306.45 8.02 305.51 9.79 303.26 10.73 298.17 10.24 296.37 5.81 290.46 4.23 289.53 4.22 288.19 5.26 285.87 4.47 282.64 3.3 279.06 2.36 276.54 1 274.75 7.93 264.71 9.36 259.55 14.43 252.06 14.52 245.5 7.63 241.07 4.34 235.46 3.75 232.73 4.45 233 Z" id="AT-8" data-name="Vorarlberg"/>
<path d="M 69.4 273.27 76.14 272.44 83.11 268.67 89.36 259.57 94.17 256.49 98.39 247.56 97.37 240.96 95 239.16 96.19 231.54 106.04 233.67 112.17 228.39 114.7 228.43 133.79 235.59 140.94 233.33 140.2 239.15 146.3 242.88 151.52 248.53 153.58 255.02 164.49 255.18 173.37 249.81 178.24 250 182.81 253.45 187.7 248.08 194.19 247.35 193.96 242.83 198.9 237.14 206.22 237.68 213.4 235.96 217.36 227.17 220.64 224.18 235.66 225.19 241.55 226.41 244.86 222.7 253.64 220.9 277.68 221.96 281.5 217.94 281.52 210.49 291.08 208.59 297.12 209.88 304.73 208.35 307.72 214.84 312.31 218.08 319.29 216.09 322 220.78 329.15 227.1 329.1 232.11 331.38 238.26 324.57 250.52 319.82 254.64 312.85 255.84 308.21 263.84 301.46 265.81 293.36 263.94 289.68 266.2 277.98 270.39 270.4 272.11 269.17 288.06 272.86 292.89 274.28 303.07 261.92 308.97 254.45 309.32 245.39 313.34 241.78 316.22 233.82 319.41 227.27 316.42 218.13 315.11 209.64 316.8 203.11 315.05 198.74 319.71 188.56 317.14 181.23 318.37 172.11 321.85 165.34 328.61 161.44 342.77 155.4 350.54 148.49 349.8 143.21 351.23 130.07 347.23 128.41 341.3 120.41 336.49 116.95 336.27 106.31 339.21 98.58 335.96 99.07 324.9 89.59 315.87 86.56 317.62 82.09 324.18 82.04 327.04 75.7 326.94 72.17 335.6 64.2 338.67 59.83 329.29 63.7 322.06 65.56 303.3 72.25 290.43 72.38 284.63 69.4 273.27 Z M 309.49 364.79 302.73 362.6 299.1 359.39 296.21 351.15 288.51 347.57 288.25 335.39 280.76 333.57 275.17 326.23 271.98 316.26 273.09 313.57 279.42 310.02 281.68 304.89 293.89 299.07 300.11 293.03 310.16 291.24 320.79 293.02 326.67 297.97 329.2 303.26 338.23 306.27 337.25 314.54 340.29 321.82 345.6 327.62 347.06 334.2 359.25 349.61 354.24 349.51 338.36 352.52 336.13 353.64 334.54 360.31 330.59 368.35 319.15 368.54 309.49 364.79 Z" fill-rule="evenodd" id="AT-7" data-name="Tirol"/>
<path d="M 319.29 216.09 322.96 212.8 328.68 210.9 338.28 212.42 342.57 222.16 341.85 229.58 347.91 233.02 352.69 238.3 358.97 242.65 365.9 242.71 368.88 239.16 367.92 231.62 372.81 215.33 369.64 207.57 365.43 204.76 361.22 206.2 353.68 203.37 357.31 194.99 364.06 184.12 357.77 171.98 350.54 166.1 349.1 162.99 357.35 159.95 361.67 155.29 368.74 155.41 374.38 160.2 379.51 162.25 389.53 161.98 396.67 158.68 401.85 162.17 401.69 165.63 395.88 165.05 393.36 173.96 395.52 185.13 398.12 187.56 417.03 191.79 418.2 195.65 412.41 196.15 412.34 199.15 418.67 201.52 419.97 204.31 416.14 216.13 417.88 222.12 415.1 228.1 416.13 232.54 425.85 240.19 424.11 246.53 428.22 262.44 430.96 268.14 437.6 272.95 448.33 268.68 453.72 276.66 455.04 281.03 463.03 292.04 457.04 298.99 457.07 304.01 450.83 317.05 446.82 322.21 443.77 318.16 434.78 311.17 428.4 308.39 410.98 305.59 397.22 301.79 393.67 302.3 388.64 306.75 383.13 309.43 371.2 310.76 364.37 308.92 356.02 303.51 341.17 299.93 329.93 294.21 326.67 297.97 320.79 293.02 310.16 291.24 300.11 293.03 293.89 299.07 281.68 304.89 279.25 302.09 274.28 303.07 272.86 292.89 269.17 288.06 270.4 272.11 277.98 270.39 289.68 266.2 293.36 263.94 301.46 265.81 308.21 263.84 312.85 255.84 319.82 254.64 324.57 250.52 331.38 238.26 329.1 232.11 329.15 227.1 322 220.78 319.29 216.09 Z" id="AT-5" data-name="Salzburg"/>
<path d="M 330.59 368.35 334.54 360.31 336.13 353.64 338.36 352.52 354.24 349.51 359.25 349.61 347.06 334.2 345.6 327.62 340.29 321.82 337.25 314.54 338.23 306.27 329.2 303.26 326.67 297.97 329.93 294.21 341.17 299.93 356.02 303.51 364.37 308.92 371.2 310.76 383.13 309.43 388.64 306.75 393.67 302.3 397.22 301.79 410.98 305.59 428.4 308.39 434.78 311.17 443.77 318.16 446.82 322.21 453.27 327.04 457.04 326.25 467.39 319.33 472.39 312.49 483.82 306.97 490.59 306.47 497.51 310.69 510.89 315.46 521.56 311.66 531.23 311.44 534.06 312.6 546.93 311.6 558.52 308.84 562.74 311.07 575.1 328.79 572.85 339.36 576.35 351.85 577.86 360.59 585.28 369.29 583.2 369.06 574.69 370.73 570.79 376.31 565.81 374.06 563.14 375.55 558.58 376.17 554.82 383.76 552.95 388.62 549.21 392.13 543.86 392.7 539.97 397.68 531.35 401.53 528.41 408.01 526.14 410 522.15 403.97 515.34 403.89 512.13 400.79 494.96 400.95 485.08 400.62 478.08 395.22 471.16 394.22 467.75 394.32 458.18 389.77 446.81 390.38 438.31 388.56 435.1 388.72 414.99 381.89 404.04 381.56 393.37 383.84 389.16 383.63 380.3 378.64 371.73 376.65 347.23 374.88 338.66 370.1 330.59 368.35 Z" id="AT-2" data-name="Kärnten"/>
<path d="M 542.77 196.31 546.41 199.23 557.3 199.17 562.03 203.19 566.86 202.85 575.76 198.89 580.1 199.13 593.8 194.51 598.27 188.46 603.3 189.1 609.71 187.51 630.59 199.65 637.65 200.27 641.04 204.32 650.2 208.55 651.99 216.87 657.6 215.53 660.93 217.58 660.59 223.29 667.59 226.92 670.14 232.93 678.67 234.4 683.79 237.12 687.27 235.52 690.73 243.75 694.33 246.9 688.29 253.26 683.82 251.92 680.95 257.82 684.96 270.38 685.92 278.63 688.79 289.8 688.22 302.44 693.11 311.36 684.55 323.74 680.8 327.01 679.17 334.05 681.83 340.17 677.56 341.23 675.82 349.64 676.97 358.27 680.6 365.57 675.46 361.93 666.15 357.94 656.32 359.24 650.47 360.64 642.45 359.45 639.28 364.43 633.59 364.8 628.67 369.07 628 371.39 622.63 374.11 619.78 372.2 614.84 369.4 609.05 369.7 592.28 370.04 585.28 369.29 577.86 360.59 576.35 351.85 572.85 339.36 575.1 328.79 562.74 311.07 558.52 308.84 546.93 311.6 534.06 312.6 531.23 311.44 521.56 311.66 510.89 315.46 497.51 310.69 490.59 306.47 483.82 306.97 472.39 312.49 467.39 319.33 457.04 326.25 453.27 327.04 446.82 322.21 450.83 317.05 457.07 304.01 457.04 298.99 463.03 292.04 455.04 281.03 453.72 276.66 448.33 268.68 437.6 272.95 430.96 268.14 428.22 262.44 424.11 246.53 425.85 240.19 435.54 242.07 440.75 238.38 441.39 230.94 436.27 222.95 436.87 212.64 439.94 209.44 451.11 203.84 464.65 207.89 469.26 207.25 474 212.88 475.85 218.53 490.01 213.61 500.3 219.38 505.94 218.59 519.51 210.41 521.03 207.74 536.1 201.7 542.77 196.31 Z" id="AT-6" data-name="Steiermark"/>
<path d="M 729.35 114.98 732.38 112.73 737.04 121.19 735.68 129.26 738.63 136.26 731.39 134.92 724.93 135.61 721.8 139.05 715.14 136.87 703.19 136.87 700.04 132.93 700.93 128.45 698.55 124.17 700.66 119.14 705.93 119.85 715.61 112.67 725.56 108.76 729.35 114.98 Z" id="AT-9" data-name="Wien"/>
</g>
</svg>