<?xml version="1.0"?>
<svg xmlns="http://www.w3.org/2000/svg" version="1.2" baseProfile="tiny" width="800" height="773" viewBox="0 0 800 773" stroke-linecap="round" stroke-linejoin="round">
<g id="MLOC-AU">
<path d="M 299.72 118.41 300.26 118.76 300.46 120.14 299.58 119.87 299.07 119.31 299.03 117.57 299.58 117.64 299.72 118.41 Z M 304.76 115.69 305.18 116.35 304.69 116.95 303.62 115.69 303.43 114.2 303.89 114.03 304.76 115.69 Z M 316.2 474.78 314.86 475.21 311.71 476.83 309.45 478.39 300.89 482.36 296.94 483.9 292.02 484.8 288.49 486.17 287.43 486.84 282.66 488.28 279.16 488.75 278.04 488.99 275.74 488.92 273.48 489.15 270.68 489.28 264.7 488.5 262.28 487.55 261.04 487.33 260.1 487.63 258.94 488.45 257.55 488.28 254.85 489.66 248.33 494.67 244.42 495.91 239.69 498.48 237.8 499.07 235.87 501.32 234.54 502.11 232.09 502.96 228.36 503.51 225.19 504.1 224.37 504.41 223.19 505.51 222.14 506.09 220.48 508.05 219.79 509.67 219.56 511.14 218.36 513.5 218.33 514.04 217.52 516.92 217.26 518.51 216.07 519 215.42 520.08 214.57 520.65 213.43 521.97 212.96 523.21 213.08 523.85 211.33 525 210.8 525.8 209.7 525.99 208.92 527.27 208.26 527.09 207.61 526.36 206.11 526.14 205.33 526.44 203.82 528.4 203.14 528.74 201.48 528.77 201.2 527.28 200.26 525.84 199.05 525.42 197.69 525.71 196.19 526.29 194.82 526.36 194.44 525.91 193.41 526.14 191.7 526.11 190.25 526.61 189.98 527.75 186.64 526.73 185.11 526.94 184.17 528.03 184.21 528.81 183.26 528.56 182.66 529.21 180.85 529.17 180.43 528.88 181.07 527.87 180.31 525.8 179.3 524.59 177.76 524.67 176.63 525.64 175.33 526.24 172.86 525.32 171.71 525.8 171.2 525.16 169.84 524.45 165.93 524.35 163.87 524.88 162.65 525.6 161.31 525 158.81 525.66 156.8 525.32 155.28 526.02 154.43 526.14 151.01 526.16 150.13 527.22 148.07 528.01 145.25 527.27 143.3 527.09 142.19 527.55 140.56 526.95 139.83 526.97 138.39 527.84 137.02 527.96 135.99 528.36 134.51 529.87 132.75 530.74 132.07 531.74 131.4 532.08 130.75 533.67 129.93 534.38 129.5 535.49 129.4 536.68 129.67 537.22 131.15 537.82 129.59 538.31 128.86 537.6 127.74 537.84 127.68 539.16 128.06 539.6 127.11 540.43 126.73 539.44 125.47 539.78 125.3 541.11 124.51 541.34 124.29 540.66 123.32 540.46 122.48 539.92 118.85 539.29 118.19 539.6 117.75 540.73 116.07 541.03 114.84 541.96 114.94 542.92 114.42 544.1 112.61 545.01 109.99 545.75 109.02 546.65 108.18 548.35 108.45 549.58 108.14 550.32 105.77 550.39 104.55 551.06 103.87 551.14 104.53 552.57 103.9 552.91 102.94 552.2 100.92 552.87 100.18 552.69 97.63 553.13 97.84 554.22 99.65 554.66 99.58 555.33 97.85 555.12 96.86 554.22 95.63 553.74 94.4 553.62 93.27 554.44 93.13 555.82 91.54 554.72 90 554.34 88.03 553.09 87.34 553.3 86.22 552.87 84.35 552.83 83.74 554.02 83.08 553.43 81.78 553.02 81.03 553.21 79.76 552.95 79.02 553.72 77.95 553.69 76.89 553.02 74.29 553.18 73.89 553.72 72.85 553.02 70.5 552.53 69.13 551.31 68.89 550.72 71.14 551.23 71.19 550.81 70.05 550.25 68.76 550.54 67.87 550.43 66.25 549.58 63.27 548.66 61.77 548.43 61.02 547.77 60.08 545.88 56.39 541.54 53.78 539.29 52.1 538.55 51.37 537.78 48.34 536.17 46.93 535.79 45.38 535.87 44.48 537.01 43.91 536.88 42.13 534.93 42.01 532.96 41.21 530.68 41.25 526.89 41.07 525.01 41.56 523.55 40.98 522.1 40.94 521.22 41.74 520.01 41.59 517.91 42.68 517.8 44.11 519.67 45.6 520.33 47.32 520.47 48.98 520.02 50.29 519.17 51.92 517.22 53.06 515.2 54.27 512.21 54.85 511.94 55 505.79 54.72 503.76 54.03 500.81 53.56 497.31 54.12 495.69 55.03 494.36 55.37 494.77 54.33 496.07 54.32 497.2 55.33 499.85 55.95 499.69 54.99 496.87 56.46 496.74 56.86 495.92 55.79 494.41 56.39 492.51 56.16 490.94 55.66 490.51 56.21 489.67 55.78 488.97 56.21 488.07 56.62 486.25 56.19 484.95 56.34 484.32 56.05 483.23 56.36 480.28 55.93 476.7 55.52 474.82 55.12 473.84 53.64 471.49 52.58 468.92 50.69 465.9 49.29 462.02 47.92 458.74 46.46 456.18 45.33 455 44.96 453.06 43.76 450.58 42.97 448.05 42.86 446.36 41.99 443.28 42.16 441.96 41.29 441.04 41.56 439.49 40.66 436.89 41.14 433.98 40.75 432.35 40.62 430.4 40.72 428.46 41.38 425.42 41.37 424.45 40.6 422.36 40.4 421.02 39.75 418.9 38.49 415.72 34.97 411.7 33.5 408.85 33.85 408.02 33.74 405.96 32.59 402.98 32.15 402.27 30.47 400.27 28.26 396.46 26.98 395.62 25.43 393.72 25.06 392.71 25 391.76 24.26 389.22 24.09 387.34 25 384.42 23.64 379.1 22.43 376.19 17.56 367.44 15.41 364.3 14.16 362.11 8.42 356.01 8.16 354.29 7.37 352.57 5.66 350.64 8.05 351.64 8.31 350.19 8.17 348.56 8.58 347.25 8.87 349.98 9.15 354.12 9.71 352.31 10.67 350.72 11.43 350.8 11.4 351.71 12.3 354.47 12.65 353.31 13.23 353.6 13.58 355.02 13.41 355.72 13.7 357.06 13.66 359.68 14.22 359.42 14.31 358.66 15.21 357.85 15.01 359.86 16.2 360.76 17.48 360.35 18.5 360.44 18.53 359.65 19.29 359.24 19.96 358.1 19.69 356.03 19.92 354.81 19.6 354.29 17.9 352.6 15.99 352.16 15.91 351.34 14.56 349.43 13.89 349.27 13.7 348.12 13.88 347.52 13.43 346.72 13.51 346.04 12.75 345.57 12.61 344.13 11.87 343.35 11.78 342.78 10.83 341.4 10.86 339.8 11.68 338.03 12.68 336.64 13.02 339.01 14.03 339.31 14.5 340.88 15.53 341.87 15.81 342.55 16.85 342.87 16.63 343.97 17.49 345.25 16.99 345.92 17.06 346.99 16.67 348.03 16.39 350.56 16.85 351.63 18.17 351.84 19.2 349.98 19.81 348.27 19.27 346.18 20.41 346.81 20.27 348.02 20.34 349.93 21.16 350.37 20.92 351.51 21.59 354.57 23.53 356.87 24.21 357.12 25.25 355.93 26.25 355.53 26.77 354.24 25.94 351.6 26.64 348.74 25.94 347.41 27.24 347.08 26.77 345.74 27.34 344.32 27.25 343.88 25.97 343.01 25.22 342.74 24.71 341.12 24 340.17 23.15 339.63 22.49 337.95 20.78 335.35 19.48 332.16 19.3 331.32 18.31 329.32 16.56 328.3 15.87 327.37 15.22 325.29 15.62 324.62 15.48 323.7 14.55 323.28 14.44 321.93 14.75 321.18 14.43 319.73 13.21 317.9 11.19 315.51 10.42 313.9 10.25 312.94 10.13 309.4 10.37 308.65 11.07 307.7 10.71 305.11 11.34 304.21 11.6 303.36 11.59 302.12 12.42 300.89 12.9 299 13.54 298.51 14.33 296.2 15.05 295.41 15.95 295.04 16.3 294.4 17.04 293.91 17.65 292.43 17.92 289.64 17.65 287.81 17.25 286.12 17.44 285.2 18.05 284.73 18.49 283.76 18.4 281.19 17.78 279.52 17.47 278.17 16.57 277.16 15.5 276.87 15.75 275.61 15.25 273.68 16.17 272.78 16.92 271.6 17.45 269.54 18.34 268.44 19.94 263.79 20.18 262.48 20.67 261.72 21.14 260.43 22.41 258.48 23.87 257.46 25.3 257.04 25.63 257.68 25.17 258.19 24.68 259.81 24.07 263.69 23.7 265.15 24.62 267.27 25.54 268.16 25.39 268.97 24.59 269.68 24.65 270.72 24.35 271.56 25.08 272.49 25.7 272.49 26.53 271.35 27.8 270.83 28.45 271.77 29.37 271.57 29.86 269.02 30.88 266.46 31.35 265.81 31.35 265.08 31.94 264.9 32.42 262.9 32.97 262.32 34.56 259.28 34.86 258.13 35.91 257.41 37.45 256.82 40.39 254.97 41.21 254.72 41.96 254.95 43.52 254.1 43.84 254.37 46.17 252.96 50.69 251.17 52.3 249.29 53.6 247.59 54.76 246.63 57.58 245.31 58.98 242.78 60.14 241.6 63.05 240.23 64.35 239.73 65.06 238.35 65.09 237.4 65.67 237.06 66.6 237.48 67.43 237.33 68.2 236.76 69.91 236.63 71.45 235.6 71.59 235.14 72.89 234.81 75.09 233.21 75.95 232.32 76.89 230.61 77.54 230.46 77.28 232.18 76.82 233.32 77.77 234.16 78.63 234.34 79.45 234.03 80.14 233.4 82.21 232.42 82.86 232.75 84 231.89 84.18 233.01 84.86 233.73 86.33 234.34 87.92 234.65 89.56 234.54 91.05 234.2 92.8 233.17 94.21 233.48 97.44 232.32 98.21 231.24 98.84 231.14 99.32 230.5 99.42 229.72 103.24 226.99 104.06 226.7 105.11 227.19 106.9 226.44 107.82 226.99 108.64 226.66 112.47 225.89 113.28 226.14 114.35 226.06 115.05 225.53 116.38 225.29 116.89 224.9 117.85 223.3 119.38 221.6 119.69 220.48 121.29 219.63 121.53 219.07 124.35 218.62 125.91 219.11 127.57 219.35 128.73 219.71 129.48 219.54 129.74 220.07 131.3 220.86 132.79 220.21 133.22 219.64 133.96 219.71 134.58 218.65 135.91 218.71 141.17 217.79 144.46 217.48 147.01 216.65 152.54 214.49 158.5 211.79 161.91 209.44 163.18 208.43 165.5 205.97 167.55 203.22 169.57 200.07 170.55 197.47 171.1 196.78 171.99 194.69 172.06 193.72 171.58 193.22 172.01 192.76 173.58 192.39 174.47 191.52 174.58 190.46 173.73 189.94 174.56 189.21 175.01 188 175.54 187.27 176.38 187.66 177.23 187.53 179.43 185.88 180.21 184.55 181.39 184 182.59 182.59 183.31 182.01 185.34 181.05 185.79 180.44 186.23 179.26 186.06 177.95 185.74 177.59 184.55 177.21 183.25 177.32 182.86 177.92 182.32 177.5 182.84 176.82 183.06 175.33 182.78 173.94 183.02 171.99 182.47 171 181.8 168.96 181.76 166.8 181.92 164.39 182.36 162.74 184.47 160.24 184.02 159.87 184.4 159.21 187.08 156.82 188.43 156.36 188.91 155.73 189.64 156.58 190.4 156.48 189.39 154.8 190.18 153.05 191.04 153.2 192.8 153.01 193.51 152.49 194.16 152.5 193.62 151.29 193.87 149.28 194.62 148.37 195.41 148.4 196.37 147.39 196.95 145.42 197.38 145.43 198.72 144.57 198.56 145.57 199.74 146.19 199.39 146.69 198.4 146.6 198.41 147.74 197.81 148.78 198.37 149.78 199.01 149.48 199.2 150.75 199.92 150.9 200.57 151.9 200.45 152.65 201.55 153.44 201.67 154.42 201.4 155.61 202.2 155.92 202.87 156.92 203.7 157.68 204.09 159.46 205.14 160.71 206.03 162.61 205.84 163.12 206.43 164.14 207.11 164.45 207.57 165.27 208.42 166.2 208.62 167.07 209.45 168.04 210.11 167.96 209.59 166.57 209.72 164.81 210.26 163.82 210.25 163.1 210.61 161.81 211.22 161.17 209.96 159.31 209.85 158.26 210.18 157.38 211.06 157.2 211.67 157.55 212.28 158.34 213.32 159.08 213.6 159.79 214.7 160.58 215.47 161.7 216.5 161.8 215.33 160.73 215 160.1 214.17 157.38 215.12 156.96 215.09 156.29 215.92 155.27 216.29 154.49 214.13 155.14 213.65 154.89 212.96 153.57 212.64 152.41 212.18 151.85 211.2 151.32 210.27 150.52 208.59 150.29 209.69 149.51 209.45 149.07 210.53 148.45 210.29 147.88 209.48 147.95 208.64 148.51 206.98 147.14 208.87 147.11 210.72 147.75 210.5 147.02 211.41 146.82 209.15 145.64 209.45 145.01 211.3 145.67 211.37 144.29 212.31 144.71 212.62 143.94 211.49 143.62 210.88 142.99 210.24 143.4 209.17 142.34 209.89 141.88 209.45 141.23 210.26 140.11 212.14 139.96 213.71 140.26 214.46 140.99 214.04 141.53 214.54 141.95 212.96 142.21 214.34 143.22 215.5 143.61 215.66 144.21 214.97 144.45 215.51 145.71 216.13 145.3 216.07 144.48 216.37 143.84 218.06 144.64 217.37 143.48 217.92 142.77 216.69 141.72 218.77 142.02 220.67 142.49 221.55 143.11 222.1 144.59 222.56 145.01 224.9 145.26 225.38 144.37 226.04 144.14 227.48 144.96 229.81 145.12 230.94 144.85 232.42 144.74 231.86 143.96 229.88 143.6 226.3 143.83 225.71 142.7 225.97 141.8 225.61 141.32 225.93 140.33 226.62 139.82 226.64 138.36 227.46 138.43 227.46 139.28 228.4 140.53 228.91 139.54 229.76 138.85 229.64 136.7 230.11 136.06 230.15 134.86 230.79 134.19 231.61 134.5 232.09 133.27 231.5 132.68 230.15 132.98 229.14 134.38 228.29 136.32 227.52 135.45 227.02 133.73 226.12 134.37 226.02 132.95 225.73 132.27 225.6 130.55 226.39 130.19 226.58 129.21 225.97 128.94 226.1 127.95 227.06 127.18 227.47 126.1 228.08 126.08 229.53 126.88 230.54 126.84 231.02 126.18 231.58 126.21 231.38 125.08 231.88 124.18 231.54 123.69 231.88 122.64 231.21 122.51 231.21 121.67 233.12 122.51 233.83 122.51 234.57 123.04 234.31 123.77 235.51 123.63 236.24 123.91 236.96 124.85 237.67 125.16 237.33 126.11 238.14 125.99 238.77 126.7 239.55 123.63 240.33 123.13 239.84 122.65 239.23 122.76 238.54 122.3 236.4 123.45 235.97 123.35 235.53 122.28 236.32 121.24 237.34 120.8 237.92 121.07 238.88 119.87 238.07 119.6 237.87 120.28 236.46 120.71 235.25 121.67 234.98 120.54 235.08 119.89 234.7 119.45 235.11 118.9 235.99 118.61 237.01 119.01 238.34 118.3 238 117.23 237.96 116.26 240.27 117.58 240.09 117.99 240.82 119.63 241.25 118.94 240.65 117.15 242.02 117.75 243.3 118.76 243.17 119.18 243.89 119.64 244.8 119.35 246.03 119.61 246.13 118.94 245.12 118.76 245.04 117.55 245.32 116.86 244.75 116.45 243.3 116.44 241.8 115.2 242.03 114.72 242.76 114.58 243.48 114.96 243.63 113.91 242.36 113.75 241.55 113.18 241.5 112.1 240.49 111.66 240.63 111.07 241.28 111.05 241.36 110.47 242.07 109.76 242.76 109.94 243.32 109.07 242.36 108.75 243.01 107.97 243.97 107.92 244.4 106.73 244.78 106.53 244.77 108.21 245.72 107.52 246.41 108.44 246.8 108.32 246.94 106.94 247.62 106.16 249.24 106.98 249.9 104.44 249.33 103.42 249.27 101.49 249.91 100.85 250.43 101.53 251.39 101.98 252.17 101.8 251.5 103.2 250.7 103.61 251.21 106.58 250.28 108.43 250.58 108.92 251.73 105.85 252.38 105.32 253.91 105.65 253.82 106.12 254.21 107.35 254.04 107.92 255.62 109.26 255.93 108.4 255.51 107.85 255.93 106.82 257.34 106.84 258.21 106.62 258.02 105.68 257.12 104.07 258.59 103.4 258.85 102.45 258.66 101.79 258.81 100.91 259.69 100.7 260.17 100.28 260.03 98.24 259.5 97.93 257.53 97.9 256.91 96.95 258.85 96.85 259.19 96.66 259.08 95.7 258.1 95.16 259.19 94.82 260.33 94.96 259.84 96.06 260.9 96.23 261.6 97.12 260.71 97.31 261.59 98.34 261.14 99.55 262.13 100.07 262.25 100.84 264.17 99.85 263.16 99.08 263.59 98.08 264.79 97.19 265.05 96.43 265.87 95.71 266.22 96.16 267.22 96.27 267.08 96.97 267.51 97.72 267.08 98.61 267.62 99.3 268.35 99.05 268.56 100.27 270.08 99.52 270.09 98.63 270.6 97.95 271.21 98.71 271.65 97.5 271.14 96.47 272.05 96.13 272.33 95.71 273.4 95.97 273.44 95.16 273 93.98 272.45 93.22 272.05 92.12 273.99 91.66 274.33 91.14 275.31 91.55 275.34 90.99 276.08 90.74 276.87 91.6 277.39 91.83 277.74 92.61 278.38 92.85 278.08 94.05 278.67 93.98 279.11 95.37 279.79 95.44 280.21 94.52 281.19 95.03 281.64 94.14 282.64 95.08 283.32 94.65 285.2 95.15 285.79 96.06 285.75 97.31 286.59 97.5 288.57 99.03 288.88 99.01 290.06 99.93 290.69 101.08 291.82 102.08 292.48 103.75 294.24 105.21 294.75 106.39 295.71 107.11 295.57 107.92 296.71 107.67 297.66 108.48 297.9 109.14 298.91 109.48 300.04 110.46 301.07 110.69 301.07 111.38 300.22 111.24 300.41 112.97 299.52 113.21 298.72 116.03 298.38 116.81 298.37 117.81 297.92 119.12 298.26 120.12 298.09 122.22 297.44 122.51 298 124.05 298.24 125.87 298.81 124.34 298.91 122.51 298.57 121.25 299.06 120.28 300.02 120.91 301 121.86 301.61 122.88 302.1 124.37 302.42 123 302.06 122.1 300.92 120.76 300.88 118.98 300.52 118.61 300.44 117.73 300.83 117.02 302.17 115.75 302.75 114.65 303.75 116.25 304.79 117.38 305.31 117.52 305.61 116.61 304.89 115.36 304.59 113.92 305.21 113.53 304.49 112.99 304.36 112.44 305.24 112.36 307.04 111.56 308.18 112.07 310.58 112.47 311.64 112.96 312.95 113.33 314.63 113.33 316.21 113.9 316.21 121.02 316.21 128.1 316.21 135.18 316.21 142.28 316.21 149.39 316.21 156.51 316.21 163.65 316.21 170.8 316.21 177.96 316.21 185.14 316.21 192.33 316.21 199.54 316.21 206.76 316.21 214 316.21 221.26 316.21 228.52 316.21 235.81 316.21 243.11 316.21 250.43 316.21 257.77 316.21 265.13 316.21 272.5 316.21 279.89 316.21 287.3 316.21 294.73 316.21 302.19 316.21 309.66 316.21 317.15 316.21 324.66 316.21 332.19 316.21 339.75 316.21 347.32 316.21 355.1 316.21 362.9 316.21 370.72 316.21 378.57 316.21 386.44 316.21 394.34 316.21 402.26 316.21 410.22 316.21 418.19 316.21 426.2 316.21 434.23 316.21 442.3 316.21 450.39 316.21 458.52 316.21 466.67 316.2 474.78 Z M 6.83 348.81 6.87 350.14 6.05 350.07 5.63 348.5 4.2 346.57 3.48 346.02 2.82 343.95 1.88 342.84 1.69 340.73 1 339.3 1 336.95 1.52 336.26 2.73 336.36 2.7 337.59 3.43 339.26 3.58 341.16 5.28 344.84 4.84 346.52 5.8 346.82 6.68 348.12 6.83 348.81 Z M 5.56 324.02 4.75 324.76 5.18 321.32 5.69 321.31 5.22 323.26 5.56 324.02 Z M 50.89 234.7 51 235.03 50.38 236.56 49.54 237.5 48.94 237.78 48.36 237.21 47.59 237.35 47.87 236.2 49.61 233.94 50.63 233.4 50.89 234.7 Z M 226.39 121.74 226.66 122.51 225.57 123.06 224.76 122.51 226.19 122.11 226.39 121.74 Z M 229.48 123.34 229.99 123.56 230.65 124.8 228.96 125.44 228.68 125.02 229.37 124.17 227.72 124.25 227.46 123.2 228.04 123.02 228.08 122.25 229.34 121.54 228.97 122.62 229.48 123.34 Z M 241.62 105.83 241.73 106.65 241.28 107.29 241.58 108.38 240.68 108.81 239.55 108.61 239.69 107.43 240.45 107.28 240.2 106.06 240.89 105.56 241.62 105.83 Z" fill-rule="evenodd" id="AU-WA" data-name="Western Australia"/>
<path d="M 326.66 112.49 327.53 113.75 327.79 114.74 327.14 114.71 326.04 112.49 326.66 112.49 Z M 431.56 57.22 432.37 57.44 432.01 58.43 431.21 57.61 431.56 57.22 Z M 436.2 54.66 434.94 55.13 434.87 54.45 436.2 54.66 Z M 402.62 47.9 403.51 47.73 403.91 48.28 402.37 48.52 402.62 49.13 401.9 49.36 401.66 48.4 402.62 47.9 Z M 403.96 45.15 404.28 46.23 402.5 46.11 403.96 45.15 Z M 316.21 347.32 316.21 339.75 316.21 332.19 316.21 324.66 316.21 317.15 316.21 309.66 316.21 302.19 316.21 294.73 316.21 287.3 316.21 279.89 316.21 272.5 316.21 265.13 316.21 257.77 316.21 250.43 316.21 243.11 316.21 235.81 316.21 228.52 316.21 221.26 316.21 214 316.21 206.76 316.21 199.54 316.21 192.33 316.21 185.14 316.21 177.96 316.21 170.8 316.21 163.65 316.21 156.51 316.21 149.39 316.21 142.28 316.21 135.18 316.21 128.1 316.21 121.02 316.21 113.9 317.2 114.15 318.39 114.87 318.56 115.49 319.6 115.86 319.88 116.67 319.64 117.77 320.11 118.96 319.19 121.12 320.37 120.35 320.98 118.88 321.36 118.76 321.21 117.21 320.97 116.75 320.54 113.4 320.99 113.42 321.48 114.3 321.87 113.78 322.56 113.78 323.51 114.65 325.54 115.23 325.97 115.72 326.26 116.74 327.42 117.67 327.93 118.96 329.27 119.59 329.48 120.62 330.45 120.51 330.35 119.81 329.12 118.4 328.55 116.97 328.2 115.41 328.75 114.44 328.86 113.34 331.29 113.75 333.19 113.31 334.54 112.18 333.71 111.95 331.86 112.86 331.8 112.03 330.4 112.33 329.33 111.57 329.4 110.95 328.1 109.92 327.86 108.61 330.27 108.38 329.66 107.94 327.67 107.78 326.7 107.36 324.97 105.97 324.37 105.35 323.22 104.59 323.51 102.98 324.23 102.08 324.64 100.75 325.87 99.24 325.92 98.12 325.68 97.54 326.59 97.37 326.93 98.05 328.06 97.66 328.6 97.04 330.27 96.64 330.82 95.54 330.8 94.58 330.22 93.91 330.74 92.81 332.2 91.51 331.67 91.11 331.6 89.77 332.42 87.9 332.62 86.44 333.23 86.1 333.97 85.16 334.13 86.46 335.2 86.84 336.65 86.32 338.02 85.2 338.43 85.44 339.01 84.88 340.46 82.91 341.16 82.58 342.01 83.07 342.16 82.58 340.75 81.89 338.95 79.61 338.13 79.3 338.14 77.1 338.44 76.13 338.35 74.96 339.35 74.16 339.81 74.9 340.64 74.9 342.05 74.26 342.7 72.99 342.68 71.75 342.87 71.14 342.57 70.02 342.75 69.56 343.65 69.75 343.72 69.16 344.59 68.65 345.94 68.19 346.75 69.75 348.07 70.42 349.05 70.3 349.44 69.95 347.82 69.47 347.07 68.91 347.91 68.19 347.16 67.48 347.65 66.19 347.38 65.35 347.96 64.84 347.14 64.11 347.68 63.81 349.02 63.94 349.44 64.37 350.3 64.41 351.17 64.8 350.96 65.48 351.17 66.17 352.33 67.29 353 68.46 353.63 68.07 354.58 68.09 353.18 66.99 353.07 66.28 354.67 66.5 354.05 65.82 353.52 65.75 353.11 65.13 351.97 65.06 351.97 64.11 353.4 62.77 355.9 63.3 356.42 63.17 355.92 62.17 356 61.15 355.43 60.21 355.41 59.51 356.26 59 356.93 59.43 357.69 59.18 358.11 59.73 358.6 59.56 359.65 60.38 360.45 59.5 360.76 57.41 361.34 57.03 361.64 57.98 361.83 59.79 362.2 60.47 363.38 61.49 365.07 62.04 366.75 61.77 367.42 62.02 370.78 61.49 372.35 60.6 373.14 60.48 373.71 61.36 375.9 62.24 377.27 61.6 378.36 60.52 379.25 60.25 379.64 59.29 380.28 59.7 380.46 60.65 381.79 60.11 382.45 60.4 383.47 62.71 383.82 62.09 383.3 60.71 383.62 59.18 384.59 58.79 385.68 58.05 386.32 57.95 388.32 58.81 389.04 58.61 387.73 57.74 387.3 56.95 387.3 56.16 387.77 53.38 387.57 52.43 386.63 51.75 387.84 50.23 388.08 49.54 388.64 49.13 386.67 48.5 385.83 47.72 385.96 47.13 385.3 46.63 384.72 45.58 383.53 44.99 382.26 44.75 381.11 45.28 379.78 45.15 378.85 45.83 377.8 46.24 376.67 46.41 375.85 45.74 375.61 45.07 375.81 44.43 374.82 44.56 373.99 43.64 373.55 42.47 372.19 42.12 371.39 42.39 371.1 41.32 372.01 41.32 372.04 40.2 372.7 39.49 373.84 41.08 374.68 40.58 374.39 39.41 374.65 38.66 375.29 38.85 375.88 39.65 376.53 39.9 377.23 41.79 378.01 42.58 378 43.75 379 44.26 378.7 43.08 379.46 43.33 379.63 42.84 378.7 42.12 378.75 40.39 377.9 39.2 378.17 38.53 378.7 38.71 379.25 39.67 379.73 39.98 380.19 41.18 380.65 41.16 380.35 39.6 380.85 39.12 381.87 38.98 382.52 40.34 382.42 41.72 382.93 41.72 383.26 40.63 383.73 40.3 384.32 40.74 385.15 42.27 386.16 43.56 387.03 44.18 388.22 46.22 389.04 46.38 389.9 45.9 390.46 44.93 391.79 44.06 392.55 44.43 392.49 43.22 392.86 42.69 393.45 43.13 393.82 43.9 394.83 44.71 395.49 45.96 396.1 46.25 396.06 47.27 397.38 49.55 398.24 50.4 399.73 50.65 400.33 49.82 401.4 49.82 400.95 51.25 401.91 51.28 402.59 50.54 403.22 51.46 403.99 51.88 404.86 51.32 405.55 52.29 406.17 52.02 406.8 52.73 407.58 52.43 407.98 51.46 409.33 51.46 410.34 50.36 412.28 50.84 412.43 51.54 411.66 51.91 410.96 52.69 411.15 53.17 413.1 54.34 414.36 53.69 414.71 52.98 415.55 53.15 415.92 53.86 416.8 53.79 417.38 54.68 418.03 55.02 417.5 55.6 417.93 56.44 417.79 57.44 419.26 56.4 419.8 55.43 421.7 56.92 422.62 57.22 424.45 57.36 426.06 57.06 426.61 56.69 428.02 55.28 429.28 55.02 429.39 55.97 430.02 56.95 430.6 56.83 431.09 58.61 433.17 59 433.91 60.25 434.61 60.62 435.19 61.28 436.7 60.96 438.08 62.1 438.32 61.58 437.51 61.11 437.88 60.66 438.88 60.52 439.73 61.26 440.44 61 438.99 60.25 439.01 59.65 439.96 59.15 439.75 58.64 441.44 57.9 442.21 58.39 442.83 58.35 444.3 57.69 445.34 58.05 446.01 57.44 447.77 56.44 447.57 56.23 446.27 56.54 445.2 57.22 445 55.96 445.58 55.2 446.65 55.4 447.55 54.72 448.3 54.9 450.97 52.98 451.2 52.55 450.83 51.4 451.46 51.24 452.17 51.6 451.52 53.06 449.71 55.11 449.23 55.86 450.57 55.86 449.35 56.81 448.81 57.51 446.55 59.37 446.93 60.83 447.8 61.62 448.16 62.32 448.81 61.23 449.23 61.36 449.63 60.42 451.06 59.11 451.5 59.28 452.78 58.94 453.97 57.72 454.12 58.14 453.12 59.4 452.15 60.35 452.58 61.23 453.31 61.28 454.28 60.71 453.93 62.32 453.12 63.35 453.87 65.21 456.18 64.8 456.82 65.33 458.37 64.92 459.38 63.76 459.96 62.18 460.55 61.21 460.53 60.54 459.56 60.11 458.02 60.3 457.83 59.92 456.94 59.83 456.99 59.33 457.82 59.15 457.94 58.72 459.3 57.09 460 57.07 462.25 54.91 462.77 56.12 463.87 55.93 464.39 57.66 464.91 57.74 464.82 59.05 464.99 59.56 466.95 61.74 467.51 61.71 468.43 60.94 467.15 59.89 468.33 59.37 469.58 60.36 470.59 60.55 471.58 61.87 472.02 63.21 470.3 64.79 468.98 66.43 469.2 65.23 468.89 65.01 467.92 65.62 468.01 67.06 467.16 68.44 466.73 69.54 467.08 70.09 465.72 70.17 465.21 70.8 465.6 71.41 465.6 72.5 464.91 72.59 464.49 71.09 463.75 71.22 462.7 71.98 463.01 73.15 464.54 74.38 465.9 75.25 466.3 76.07 464.48 75.75 464 75.39 463.15 75.66 463.89 77.17 464.53 77.33 463.47 79.04 462.85 79.51 462.78 80.74 462.24 80.51 461.24 81.03 460.62 82.15 460.17 81.82 461.02 80.7 460.61 80.08 460.7 77.47 459.94 77.1 459.38 77.99 459.71 78.6 459.46 79.43 457.96 79.19 458.22 80.12 456.89 80.9 456.13 80.32 456.49 79.63 456.09 78.68 455.45 79.35 454.44 81.09 453.58 80.49 452.97 80.83 452.78 81.7 451.92 81.53 451.13 82.72 451.13 83.55 451.86 83.76 451.9 84.52 452.72 84.52 451.84 85.5 451.44 84.97 450.57 85.34 450.83 87.27 450.37 88.25 451.33 90.02 451.48 91.05 452.17 91.28 453.35 90.72 454.06 89.76 454.46 90.02 454.06 91.28 453.51 92.24 453.66 92.73 453.28 93.51 453.24 94.32 452.72 95.03 451.91 95.51 451.52 99.07 451.64 100.27 450.55 100.38 448.69 101.69 448.2 102.35 447.05 104.54 446.56 105.15 446.06 105.05 444.24 108.08 443.96 108.8 444.06 109.51 442.71 110.2 442.32 110.91 441.48 111.3 441.73 112.8 442.59 114.88 443.02 115.52 444.61 116.97 445.87 117.52 446.61 117.44 447.71 118.56 449.07 119.15 449.42 119.56 450.69 120.15 452.47 121.95 454.27 122.71 455.19 123.49 457.45 124.64 458.12 125.2 458.46 126.15 458.66 127.66 458.99 128.19 460.24 129.06 461.58 129.21 462.59 130.29 463.77 131.2 465.07 131.03 465.41 131.93 466.55 132.83 467.58 134.12 467.22 135.2 468.15 135.47 468.47 134.91 470.27 135.04 471.18 135.63 471.89 134.59 472.86 134.16 473.91 135.34 476.16 136.46 476.9 136.62 477.92 137.35 478.73 138.4 480.09 139.42 481.11 139.6 482.76 140.55 483.8 140.44 485.97 141.24 487.64 142.08 488.4 143.43 490.01 145.86 491.64 147.36 492.62 147.99 492.62 154.3 492.62 166.41 492.62 178.57 492.62 190.76 492.62 203 492.62 209.14 492.62 221.44 492.62 233.79 492.62 246.19 492.62 252.41 492.62 264.88 492.62 277.4 492.62 289.99 492.62 302.62 492.62 315.32 492.62 328.07 492.62 334.47 492.62 347.32 487.11 347.32 476.08 347.32 465.05 347.32 454.03 347.32 443 347.32 431.98 347.32 420.95 347.32 415.44 347.32 404.41 347.32 393.39 347.32 382.36 347.32 371.34 347.32 360.31 347.32 349.28 347.32 338.26 347.32 332.75 347.32 321.72 347.32 316.21 347.32 Z M 466.55 130.06 467.37 130.89 466.42 132.41 465.76 131.81 465.6 130.66 466.55 130.06 Z M 469.11 129.63 468.67 130.4 468.91 131.27 467.76 131.72 467.98 130.32 467.76 129.77 469.11 129.63 Z M 474.54 131.86 475.1 132.33 474.44 133.81 473.88 133.55 473.67 132.78 473.02 132.59 472.65 131.06 472.06 131.03 471.9 130.15 473.01 129.09 474.65 129.84 474.54 131.86 Z M 465.48 127.53 464.94 129.49 464.13 129.34 463.6 129.63 463.19 128.52 463.73 127.95 463.7 127.44 465.23 127.07 465.48 127.53 Z M 470.97 128.52 470.57 129.21 469.82 128.76 470.62 127.64 470.97 128.52 Z M 448.84 113.9 448.76 114.57 448.06 114.46 447.74 113.71 448.5 113.3 448.84 113.9 Z M 459.04 90.38 459.07 90.84 458.3 91.12 458.54 92.15 458.22 93.08 457.55 92.81 457.06 91.74 456.42 91.69 456.48 93.08 455.7 92.62 455.66 90.74 456.65 91.12 456.81 90.41 457.55 89.48 458.26 89.7 459.04 90.38 Z M 472.06 99.99 472.21 101.03 471.88 101.74 471.12 102.37 470.11 101.9 467.78 101.5 466.75 102.09 465.95 101.99 462.45 100.7 461.99 100.33 460.88 100.5 460.41 100.88 459.84 100.7 461.48 99.67 461.99 98.76 461.69 98.11 461.44 96.27 461.85 93.84 461.4 92.94 461.74 92.49 462.51 93.08 463.45 92.97 463.81 92 464.41 92.68 465.07 92.53 465.34 91.7 464.78 89.9 466.29 90.31 466.78 89.4 467.63 89.54 467.41 90.41 466.83 90.68 467.5 92.87 469.04 93.36 469.84 92.8 469.63 92.1 469.91 91.28 471.12 91.43 471.53 92.39 470.57 93.5 470.19 94.61 469.54 94.41 468.93 94.66 468.31 95.86 468.52 96.42 469.21 96.8 468.71 97.37 467.46 97.61 467.22 98.89 467.59 100.07 468.71 100.11 469.3 99.54 470.5 100.53 470.91 100.34 471.38 99.3 472.42 99.46 472.06 99.99 Z M 456.08 84.91 456.32 84.01 457.12 85.26 456.44 85.68 456.08 84.91 Z M 382.6 57.51 383.16 58.28 382.6 58.74 381.67 58.05 382.6 57.51 Z M 459.1 55.58 459.35 56.34 458.69 56.85 457.69 57.15 457.03 57.63 455.95 57.22 457.15 56.2 457.49 56.68 458.51 56.39 459.1 55.58 Z M 462.51 53.94 462.78 52.35 463.15 52.39 462.51 53.94 Z M 452.55 50.2 452.46 49.73 453.88 48.87 454.5 49.06 453.53 50.23 452.55 50.2 Z M 387.16 48.99 387.7 49.4 387.3 50.23 385.96 50.44 385.04 49.47 385.69 48.69 387.16 48.99 Z M 461.71 46.25 462.38 46.53 461.1 47.2 460.78 47.9 459.25 48.38 458.48 49.1 457.96 48.58 458.97 47.35 459.68 48.12 460.63 46.94 461.71 46.25 Z M 346.33 50.16 347.07 50.37 348.25 51.42 348.12 52.15 347.04 52.68 345.53 52.84 344.4 52.29 342.86 51.94 342.1 51.46 340.41 51.86 338.69 52.56 336.85 52.52 336.13 51.6 337.17 51.17 337.06 49.88 337.53 49.53 338.14 49.95 339.08 49.91 339.75 49.13 339.41 47 339.7 46.19 339.44 45.78 338.69 45.83 339.35 44.74 340.28 44.05 341.09 42.82 342.21 42.66 342.66 42.84 343.63 44.71 343.32 45.74 343.58 46.75 344.54 47.4 344.85 47.9 344.88 49.06 344.59 49.95 345.56 49.86 346.33 50.16 Z M 365.94 44.32 365.8 45.55 364.87 45.55 364.44 46.59 364.39 47.3 364.7 48.06 363.88 48.2 362.82 47.74 361.79 49.7 361.15 50.54 360.45 50.64 359.36 51.56 357.35 52.63 355.01 54.59 354.26 54.62 353.88 54.07 352.66 53.26 351.65 52.92 350.71 52.34 349.77 52.05 347.22 50.02 346.75 49.4 345.54 49.05 345.25 46.94 344.24 45.74 343.8 43.55 343.5 42.74 343.77 41.98 342.98 40.7 343.11 39.73 343.65 39.12 344.36 40.11 345.73 41.59 347.05 41.56 347.49 42.08 347.38 42.72 346.82 43.28 347.13 44 348.33 42.93 349.36 44.51 349.99 43.75 352.38 43.26 353.21 42.32 354.5 42.38 355.6 43.15 355.98 44.05 356.36 42.35 357.35 41.86 358.41 41.04 358.87 42.63 359.89 43.47 359.3 41.96 359.43 40.98 359.91 40.22 360.79 39.85 361.9 40.91 362.65 41.18 363.79 41.05 364.34 42.25 364.71 43.86 365.75 43.79 365.94 44.32 Z M 468.38 36.86 467.53 39.54 467.46 40.18 466.74 40.51 466.52 41.17 465.94 41.78 464.98 43.61 463.7 44.99 463.17 44.02 464.4 43.15 464.79 42.6 464.89 41.75 466.23 39.78 466.9 39.61 467.36 37.99 468.38 36.86 Z M 384.6 39.26 385.15 38.85 385.03 37.79 384.55 37.33 385.81 36.7 386.11 35.7 387.03 38.23 386.42 39.12 387.01 39.77 387.3 40.97 386.78 42.37 386.09 42.27 386 41.59 385.48 40.43 384.6 39.26 Z" fill-rule="evenodd" id="AU-NT" data-name="Northern Territory"/>
<path d="M 316.2 474.78 316.21 466.67 316.21 458.52 316.21 450.39 316.21 442.3 316.21 434.23 316.21 426.2 316.21 418.19 316.21 410.22 316.21 402.26 316.21 394.34 316.21 386.44 316.21 378.57 316.21 370.72 316.21 362.9 316.21 355.1 316.21 347.32 321.72 347.32 332.75 347.32 338.26 347.32 349.28 347.32 360.31 347.32 371.34 347.32 382.36 347.32 393.39 347.32 404.41 347.32 415.44 347.32 420.95 347.32 431.98 347.32 443 347.32 454.03 347.32 465.05 347.32 476.08 347.32 487.11 347.32 492.62 347.32 499.97 347.32 507.32 347.32 514.67 347.32 522.02 347.32 529.37 347.32 536.72 347.32 544.07 347.32 551.42 347.32 551.42 355.52 551.42 363.74 551.42 371.99 551.42 380.27 551.42 388.57 551.42 396.9 551.42 405.27 551.42 413.66 551.42 420.71 551.42 434.88 551.42 449.15 551.42 463.5 551.42 477.95 551.42 492.5 551.42 499.81 551.42 514.52 551.42 529.16 550.78 528.4 550.78 542.15 550.78 554.09 550.78 566.1 550.79 578.18 550.79 590.35 550.79 602.58 550.79 614.91 550.8 627.2 550.47 627.07 545.81 627.47 543.63 626.66 540.78 624.2 539.62 623.72 538.87 622.78 538.43 621.15 537.46 619.48 536.53 617.42 534.51 615.67 534.06 613.75 532.44 612.86 531.59 613 527.8 607.61 526.75 605.44 527.53 604.75 527.67 604.1 526.72 602.38 526.64 601.46 525.39 599.85 527.6 598.59 528.72 597.22 529.14 595.29 528.95 591.73 526.51 585.65 523.34 578.43 522.31 577.46 521.17 575.58 516.12 570.47 514.76 569.33 512.84 568.03 512.2 567.35 510.61 566.37 511.42 566.13 512.24 566.58 519.04 572.92 520.99 574.84 523.3 577.81 525.26 582.13 525.27 581.06 524.19 578.45 523.86 577.15 521.54 574.09 520.41 573.49 519.59 572.49 515.88 569.12 513.03 567.03 513.7 566.37 513.9 565.37 514.87 564.48 516.81 565.67 516.63 567.3 517.19 568.18 517 569.21 518.4 569.35 518.84 569.04 519.19 566.77 517.79 565.45 516.51 564.7 518 564.07 519.09 564.35 519.58 563.65 518.4 562.06 518.13 561.07 516.59 560.16 514.22 561.86 512.76 561.74 511.46 562.45 511.61 563.93 512.83 564.45 512.36 565.04 510.61 564.55 509.89 563.83 508.37 563.94 508.81 564.69 510.21 564.71 511.17 565.4 509.91 565.98 508.58 565.46 507.24 565.45 505.14 566.14 504.82 566.83 503.03 568.04 501.18 568.33 498.12 568.18 496.97 568.6 496.08 568.58 494.72 567.43 495.02 565.85 495.74 565.22 497.67 564.3 498.25 563.8 499.6 561.74 500.99 560.97 501.33 560.24 501.35 558.77 501.87 557.66 501.62 556.96 501.76 555.16 502.56 553.87 502.6 552.41 502.15 549.49 502.3 547.53 503.13 546.32 502.35 545.91 501.24 544.76 501.12 543.83 499.61 542.39 499.08 541.07 498.38 540.69 497.71 539.12 497.06 536.31 496.64 535.55 495.67 534.89 495.73 533.74 494.15 531.76 493.66 533 492.94 534.1 492.81 534.96 493.36 536.02 492.6 537.17 491.26 538.55 490.5 541.2 490.33 542.72 490.86 543.53 490.25 545.12 490.13 546.78 489.07 548.96 488.03 552.71 488.19 553.35 487.66 553.92 487.66 555.7 486.18 556.85 485.17 556.51 484.01 555.65 482.46 555.33 480.92 555.49 479.52 556.64 477.7 556.64 476.33 558.32 473.79 557.96 472.64 558.64 472.1 559.32 470.54 559.58 469.79 558.45 470.18 557.42 471.72 556.01 472.25 554.82 471.88 553.44 472.54 552.44 472.46 551.7 473.61 550.12 474.88 550.72 475.75 550.74 478.25 550.24 479.05 550.8 480.68 551.41 481.76 550.54 481.99 547.77 482.39 546.8 482.39 545.65 483.06 543.39 482.43 541.21 482.39 539.78 482.02 539.33 482.5 537.14 482.66 534.88 482.49 533.8 481.91 532.6 482.94 532.28 483.88 530.42 483.44 529.08 483.85 528.35 485.07 527.34 485.35 526.61 484.82 525.8 487.04 523.69 488.24 521.48 488.71 521.6 489.93 519.9 491.26 519.67 491.39 517.58 490.73 515.89 489.92 514.48 490.06 513.6 489.05 512.08 488.9 511.29 489.77 509.66 490.54 509.4 491.68 508.56 493.48 508.13 493.31 506.75 492.63 505.67 491.79 505.31 490.7 500.24 491.41 499.43 490.41 498.43 489.66 498.15 489.55 496.82 488.77 495.75 487.92 495.72 487.79 498.05 488.71 499.11 488.86 501.88 488.44 502.89 487.75 503.5 488.21 504.51 487.21 504.96 486.23 504.16 485.4 504.3 484.68 505.03 484.59 506.02 483.06 507.75 481.88 508.48 481.53 510.4 480.62 512.09 480.4 514.34 480.06 515.31 479.01 516.91 477.95 519.57 477.42 520.53 476.05 521.77 473.41 522.35 472.34 521.27 471.65 521.46 471.45 522.21 470.72 522.68 470.64 524.05 469.24 524.19 467.35 525.56 465.32 526.42 464.81 527.51 463.09 528.95 461.87 529.36 460.65 530.46 460.25 531.87 459.17 533.67 457.96 536.03 456.12 537.13 455.66 537.82 455.86 539.46 455.68 540.98 455.12 541.35 454.77 540.15 454.25 540.26 452.17 541.4 451.77 542.72 452.23 543.44 450.96 544 450.71 545.3 451.24 546.46 450.24 546.94 449.48 547.86 449.85 548.25 451.55 547.83 452.27 547.03 453.73 546.4 453.65 548.17 452.82 549.56 453.66 552.03 452.72 552.69 451.99 551.44 450.75 550.83 449.93 549.51 449.15 549.11 448.35 549.19 447.22 550.56 447.34 551.28 446.21 551.39 445.65 549.65 443.85 547.62 443.15 546.53 442.23 545.65 440.87 544.99 440.08 545.01 440.48 543.87 439.45 542.78 438.33 542.13 437.21 542.39 436.19 543.07 435.97 542.45 436.57 541.56 436.81 540.63 437.54 539.78 438.56 540.82 439.97 541.14 439.75 541.79 440.66 542.62 440.7 543.31 441.77 544.02 443.57 543.53 442.38 542.96 442.5 541.98 441.44 542.23 441.19 541.13 441.56 539.92 440.89 538.39 440.6 535.25 440.25 533.96 439.72 532.98 439.01 532.94 438.34 531.96 439.17 531.46 438.9 528.67 438.08 527.59 437.53 526.19 436.53 525.62 435.07 523.86 433.91 522.73 430.87 520.18 430.82 519.34 431.22 517.98 430.96 515.96 430.17 513.47 428.53 511.6 427.66 511.06 428.53 510.48 427.8 509.04 426.12 508.56 425.79 509.52 426.57 509.54 427.19 510.48 426.53 510.98 425.76 509.93 424.83 509.72 423.57 508.88 422.95 508.81 421.11 509.61 420.75 510 419.68 509.01 419.41 507.71 418.55 506.18 417.56 506.21 418.36 504.77 417.95 503.95 417.12 504.08 415.83 503.71 415.38 503.12 416.64 501.92 416.81 501.36 416.33 500.05 415.57 498.97 415.66 498.52 418.46 498.8 419.01 499.43 419.53 498.95 420.04 497.7 419.57 495.59 418.72 494.1 417.12 492.54 415.83 492.86 414.84 492.76 414.1 493.69 412.97 493.57 412.27 494.55 411.34 494.24 411.45 492.59 413.23 490.97 412.15 489.22 410.53 487.67 408.17 486.33 407.98 484.79 407.33 484.3 406.1 484.34 405.83 485.73 405.43 485.94 404.22 485.17 403.96 484.54 402.82 485.04 403.15 486.37 402.68 486.84 400.6 486.37 400.09 486.93 398.38 486.22 397.51 486.5 395.7 484.45 393.32 483.38 390.65 480.94 387.92 480.78 386.52 480.44 384.33 480.91 383.88 481.58 384.48 482.56 382.36 482.3 381.4 482.72 379.59 482.71 378.18 481.76 376.53 479.82 373.5 477.88 370.75 475.67 365.91 472.85 362.18 471.13 358.89 469.91 358.06 469.84 357.22 470.23 355.28 471.67 352.15 472.76 349.46 472.85 346.54 472.39 341.92 472.39 341.05 472.13 338.88 472.12 337.35 472.59 334.7 472.47 330.97 473.08 326.73 473.23 325.05 473.72 323.37 473.72 321.82 474.02 320.13 474.02 318.91 474.51 316.2 474.78 Z M 495.16 572.16 495.08 573.31 494.32 573.63 493.55 574.63 492.29 574.29 491.29 573.58 489.58 573.37 487.85 573.49 485.04 574.77 485.18 576.6 484.82 577.23 483.88 577.46 482.02 578.61 480.29 576.86 477.16 576.12 476.37 577.42 475.76 577.63 473.4 577.13 471.46 577.8 470.09 577.34 468.54 577.96 467.44 578.12 466.29 575.97 465 575.55 463.85 574.47 464 573.46 464.83 571.69 464.81 571 465.59 570.58 466.96 570.46 469.2 569.54 474.47 568.66 475.84 568 478.5 567.34 479.25 566.63 479.92 566.58 481.56 567.19 482.27 566.85 483.46 566.85 485.22 566.5 484.41 568.03 485.71 568.37 484.4 569.99 486.46 570.73 488.27 570.3 488.44 571.4 488.95 572.04 490.35 571.26 490.82 570.05 492.75 570.32 493.88 570.82 494.07 571.74 495.16 572.16 Z M 456.82 552.79 457.33 553.3 457.45 554.22 456.59 554.08 456.21 552.53 455.36 551.75 455.9 551.28 456.82 552.79 Z M 424.92 521.92 425 522.43 423.45 523.21 423.74 521.91 424.92 521.92 Z M 405.7 489.39 405.27 488.77 405.97 487.96 406.83 487.6 406.57 489.07 405.7 489.39 Z" fill-rule="evenodd" id="AU-SA" data-name="South Australia"/>
<path d="M 492.62 347.32 492.62 334.47 492.62 328.07 492.62 315.32 492.62 302.62 492.62 289.99 492.62 277.4 492.62 264.88 492.62 252.41 492.62 246.19 492.62 233.79 492.62 221.44 492.62 209.14 492.62 203 492.62 190.76 492.62 178.57 492.62 166.41 492.62 154.3 492.62 147.99 493.82 149.45 494.62 149.88 496.23 151.18 498.06 151.8 498.73 152.25 499.93 152.17 502.27 153.17 503.29 152.85 505.5 152.87 506.03 153.46 507.38 154.13 508.38 154.33 509.66 154.88 511.66 155.02 512.95 155.65 513.44 156.92 515.32 158.06 514.97 158.74 514.99 159.78 515.44 161.56 516.32 163.25 517.59 164.53 518.38 164.75 520.82 165.09 523.51 167.06 524.78 168.31 527.99 169.06 528.52 169.49 530.36 170.14 530.93 171.12 531.81 171.89 534.12 172.08 536.53 171.81 539.74 171.1 540.47 170.56 541.77 170.45 542.92 169.66 543.54 169.5 545.32 168.12 546.21 167.98 546.62 167.2 548.15 166.64 548.6 166 549.13 164.49 549.55 161.99 550.1 161.29 550.64 158.9 550.38 157.76 552.41 155.08 553.06 153.29 553.73 153.15 555.33 151.3 555.81 149.99 556.01 148.64 556.55 148.37 557.16 147.05 557.38 145.96 557.1 145.15 557.67 144.29 558.28 142.34 558.28 141.51 559.75 138.6 558.85 135.66 559.29 134.96 559.39 133.9 560.04 129.77 560.97 126.31 562.6 122.41 562.81 121.02 563.14 120.28 563.95 119.45 563.89 118.48 564.23 118.11 564.47 116.81 563.91 115.1 563.27 114.1 562.12 108.87 562.06 107.57 561.65 106.11 561.88 104.42 563.03 101.28 563.27 99.58 562.87 97.86 560.93 95.28 560.59 93.61 560.71 91.8 561.75 87.67 562.39 86.07 563.17 84.99 563.8 83.13 564.24 83.27 564.96 81.39 564.88 80.58 563.89 79.38 563.59 78.54 563.49 77.14 562.9 75.7 563.72 74.36 565.46 73.42 566.21 72.5 567.29 69.47 568.15 69.81 568.71 70.48 568.92 71.68 568.95 73 569.81 73.09 569.17 71.27 570.81 70.73 570.67 70.46 569.17 70.16 567.83 68.92 569.98 67.62 569.41 67.42 568.78 67.69 567.32 67.79 566.77 67.54 565.85 66.43 565.81 65.61 564.47 64.92 564.34 66.65 564.47 66.99 563.18 67.35 563.08 66.63 565.02 62.32 565.3 61.05 566.19 60.24 566.44 59.15 567.12 57.17 567.71 56.19 568.5 55.39 569.03 55.89 569.38 57.39 570.55 56.9 571.45 57.51 571.67 56.9 570.86 55.79 570.1 55.58 570 53.99 570.38 52.29 571.22 51.22 571.23 50.16 573.61 42.82 573.64 40.79 574.15 39.08 574.12 37.39 573.87 35.72 574.44 34.66 577.36 34.09 578.89 32.47 579.35 30.97 579.82 30.36 581.79 30.23 583.08 30.97 582.8 31.66 582.08 32.19 581.79 32.82 581.12 33.09 581.11 34.53 581.61 34.57 582.14 33.47 583.07 33.43 583.46 34.68 584.76 35.46 585.57 35.56 585.77 36.36 586.5 37.75 586.64 38.92 586.73 41.61 587.5 42.21 588.07 43.88 587.12 45.61 587.48 46.03 587.44 47.35 587.84 48.16 587.99 50.78 587.84 52.5 588.13 53.08 590.12 54.57 591.03 54.7 592.14 54.2 593.04 54.28 594.62 55.72 592.7 58.79 592.31 59.06 592.4 61.09 592.14 62.66 592.65 62.94 594.26 62.94 595.58 63.87 596.03 64.76 596.08 66 596.41 66.8 596.96 67.26 598.29 67.64 599.13 68.37 598.51 69.44 598.7 69.77 598.06 70.78 597.78 72.23 598.06 73.19 598.72 73.5 599.22 73.16 600.37 73.27 601.28 72.79 600.34 74.58 600.65 75.24 600.48 77.67 600.97 80.15 600.95 82.8 601.81 83.75 602.28 84.93 602.03 86.2 602.34 86.72 601.69 88.23 601.1 91.59 601.65 92.93 602.35 94 602.75 95.44 604.1 96.61 604.43 98.63 604.5 100.56 605.3 103.2 605.97 104.46 606.92 105.56 607.48 105.93 609.28 106.42 610.01 106.25 611.54 105.48 612.45 104.52 613.39 103.87 613.75 103.2 613.86 101.63 614.84 101.53 615.24 102.37 616.18 102.64 619.01 101.25 619.61 99.56 620.32 99.82 621.69 101.68 621.45 102.45 621.6 103.69 622.4 103.5 622.64 103.94 622.23 104.68 622.37 106.11 623.04 106.67 623.51 107.57 625.06 107.51 625.84 108.47 627.59 108.66 628.03 108.91 628.61 109.92 628.68 111.03 630.1 112.2 630.91 112.37 632.86 113.28 634.19 113.18 634.14 114.16 635.26 115.5 636.6 115.41 636.34 115.98 634.67 118.51 634.45 119.95 634.92 121.45 635.59 121.82 636.53 121.24 636.57 122.05 635.76 122.36 635.34 123.06 635.39 124.18 634.85 124.48 635.31 126.66 635.19 127.47 635.9 128.02 636.13 128.58 636.01 129.55 637.01 131.82 636.87 133.11 637.14 133.5 636.8 134.96 638.26 136.76 638.89 138.16 638.89 138.94 638.34 141.02 638.82 141.3 638.89 142.51 637.95 143.76 637.95 145.28 637.68 145.98 638.21 146.69 638.91 146.76 639.26 147.79 639.96 148.51 640.23 149.21 641.18 150.66 642.1 151.48 642.79 151.81 643.44 152.96 643.99 153.29 644.4 154.27 645.07 155.03 644.34 155.78 644.94 156.51 646.27 154.95 647.08 155.45 647.81 154.74 648.55 154.78 648.28 155.94 647.66 156.8 647.12 158.2 647.23 158.92 647.7 159.21 648.5 160.71 648.81 162.35 649.5 163.41 650.02 164.7 650.82 165.43 650.91 167.76 650.77 167.97 652.32 170.37 651.71 171.12 651.44 171.89 651.52 173.19 651.25 174.54 651.48 175.4 651.35 176.53 650.8 177.92 649.85 179.71 649.5 181.17 649.89 183.37 651.41 185.16 653.02 185.79 653.14 186.7 653.62 188.1 654.81 188.76 656.08 188.83 655.71 191.31 655.15 192.63 654.85 196.02 655.96 197.77 657.48 198.83 658.18 199.86 659.91 200.82 660.44 201.51 660.93 201.58 662.26 202.41 663.01 202.63 664.06 202.21 665.2 203.55 667.17 204.95 668.6 204.51 669.97 203 670.31 203.73 670.18 205.18 671.66 207.15 672.31 206.93 674.18 207.4 674.64 207.15 677.29 207.19 677.85 206.86 679.82 209.44 680.38 211.38 680.66 211.84 680.63 213.63 682.44 215.84 684.42 215.99 683.83 214.35 683.75 212.99 685.18 213.47 685.61 213.9 685.87 215.77 686.63 216.84 687.64 217.5 688.92 217.57 689.07 217.09 690.05 216.86 691.19 218.09 692.48 218.28 693.61 218.66 694.64 220.13 693.82 221.16 694.54 221.5 695.05 222.19 696.51 223.06 696.79 223.65 697.53 223.47 697.63 222.55 697.33 221.6 697.63 220.61 698.34 221.16 699.74 220.68 699.77 221.83 700.6 223.89 701.57 223.38 702.14 224.43 702.02 225.15 703.15 224.67 703.46 224.22 704.39 225 704.16 225.43 705.28 226.71 705.1 227.59 705.31 228.22 706.73 229.31 706.76 230.22 706.32 230.61 705.65 230.46 704.84 229.74 704.99 229.23 704.47 228.48 703.82 229.27 702.43 228.94 702.83 229.89 702.32 230.78 701.48 231.04 702.28 232.61 702.76 232.68 703.13 234.46 703.67 234.73 704.12 235.51 704.7 235.33 705.25 235.91 705.78 237.06 706.48 237.7 707.67 237.64 708.75 238.66 709.14 239.94 710.09 239.73 710.39 240.21 711.19 240.28 711.66 241.14 712.76 242.25 712.76 243.01 712.08 244.16 712.09 244.99 712.66 246.11 713.97 246.28 713.98 247.07 714.52 248.29 714.04 248.97 714.92 249.29 713.97 250.06 714.24 251.08 715.2 250.77 715.98 250.96 715.93 251.6 716.65 252.65 717.43 251.67 718.01 252.35 717 253.42 717 254.27 717.61 255.49 716.86 256.19 716.77 256.99 717.61 258.57 717.46 259.5 717.7 260.41 718.45 261.7 718.74 263.46 719.49 264.79 719.49 265.52 720.16 266.61 719.84 267.48 721.03 268.07 722.05 269.57 721.84 271.79 723.64 270.45 723.94 269.67 724.52 269.67 725.5 271.34 727.13 272.75 727.85 274.34 728.75 275.12 728.27 273.17 726.96 269.93 726.6 269.49 726.34 267.75 727.65 264.88 728.88 264.43 729.35 264.77 729.84 266.04 730.85 267.08 731.31 268.86 732.06 269.8 733.71 270.3 735.74 271.48 736.87 272.51 737.89 272.78 739.77 274.38 739.1 272.68 739.23 272.2 738.52 271.64 738.31 270.48 738.49 269.21 738.96 268.28 739.63 268.73 740.31 268.69 740.78 269.57 741.81 270.85 742.66 271.16 742.7 271.66 742.01 272.46 741 272.47 741.87 273.36 742 274.66 742.6 274.38 743.66 275.26 744.03 276.24 743.43 279.43 743.29 281.01 742.37 281.15 743 281.96 742.85 282.57 743.12 283.5 742.75 285.24 742.82 286.05 743.53 286.49 743.41 287.21 744.15 288.55 743.27 289.26 743.79 291.44 745 292.82 744.63 293.76 745.2 294.87 746.2 294.25 747.97 295.05 748.25 295.75 748.8 295.99 749.91 297.09 750.59 299.13 751.1 299.85 752.88 300.27 755.35 302.97 756.22 304.24 756.55 303.8 758.09 304.63 758.03 305.85 758.82 305.28 759.63 305.14 760.5 305.88 760.82 305.39 760.45 304.69 759.62 304.18 759.66 303.71 760.73 303.65 761.8 304.53 762.73 304.53 762.85 305.95 763.34 307.1 764.13 307.73 765.1 307.87 765.73 308.58 767.11 312.87 768.19 315.1 768.7 315.48 769.99 317.37 773.04 319.64 774.97 320.17 776.24 321.4 776.67 322.3 776.96 325.59 778.64 328.21 779.43 328.69 779.53 329.96 780.31 330.84 783.01 331.75 783.76 331.59 784.95 331.83 785.44 335.91 785.98 336.38 785.05 337.39 784.63 338.28 784.87 339.58 784.56 340.53 785.52 341.95 786.31 342.17 787.06 343.51 787.32 345.22 787.85 345.22 788.39 344.39 789.02 345.88 790.56 346.21 789.42 348.67 788.16 353.46 788.09 354.24 788.39 355.33 789.33 355.91 788.86 357.33 788.8 361.48 789.6 362.31 789.46 363.75 789.62 364.97 789.46 365.82 789.63 367.59 790.68 370.25 790.4 371.42 789.67 371.09 788.25 371.67 787.39 373.06 787.78 373.69 788.94 373.58 788.87 374.58 788.05 375.29 787.91 376.08 788.39 376.56 789.6 377 790.12 377.67 790.25 378.68 790.71 379.49 791.55 379.66 792.67 381.99 792.82 383.69 793.41 384.4 793.62 385.2 795.37 387.14 795.11 388.24 795.11 389.91 794.48 390.33 795.36 390.92 795.45 392.97 796.57 394.66 794.14 396.63 792.77 396.75 791.19 397.13 790.41 397.12 789.9 398.06 788.93 399.14 785.35 398.9 783.63 398.59 782.68 399.22 781.76 399.31 779.88 398.5 779.23 397.87 778.47 398.72 777.62 398.41 777.39 397.53 776.68 397.15 775.45 398.21 775.17 398.99 774.04 399.71 772.76 399.94 771.32 401.09 770.25 401.07 768.03 402.25 767.24 403.01 766.4 403.29 766.22 403.83 766.75 404.38 767.19 405.59 768.35 407.01 767.94 407.98 767.87 409.4 767.54 410.87 767.13 411.52 765.74 411.96 764.15 411.86 763.78 412.89 762.38 412.49 761.73 411.17 760.05 412.07 758.3 412.66 757.63 414.27 757.63 415.04 756.9 415.58 755.72 417.13 754.31 417.37 754.15 416.42 753.62 415.89 753.5 414.35 753.07 411.89 751 410.45 750.18 410.11 748.96 410.01 748.53 409.42 748.34 407.72 747.03 407.47 746.13 406.66 745.3 406.47 743.39 405.49 742.59 405.51 740.01 406.03 737.48 405.93 736.65 405.75 734.93 404.1 733.68 403.26 732.9 403.66 731.23 403.64 728.22 404.71 723.11 404.86 722.04 405.32 721.47 404.95 720.4 404.88 720.19 404.21 719.56 404.1 717.73 404.35 717.43 404.6 716.39 406.51 715.63 406.76 713.63 407.82 712.5 408.63 711.32 409.83 710.07 410.26 709.48 412.23 707.67 413.65 694.25 413.66 684.73 413.66 675.21 413.66 665.68 413.66 656.16 413.66 646.64 413.66 637.12 413.66 627.6 413.66 618.08 413.66 608.55 413.66 599.03 413.66 589.51 413.66 579.99 413.66 570.47 413.66 560.94 413.66 551.42 413.66 551.42 405.27 551.42 396.9 551.42 388.57 551.42 380.27 551.42 371.99 551.42 363.74 551.42 355.52 551.42 347.32 544.07 347.32 536.72 347.32 529.37 347.32 522.02 347.32 514.67 347.32 507.32 347.32 499.97 347.32 492.62 347.32 Z M 796.19 378.39 797.4 378.39 796.61 380.36 795.58 385.15 794.54 385.27 794.31 384.73 794.67 383.11 794.44 382.62 794.66 380.97 794.44 380.11 795.11 378.85 795.15 377.9 796.19 378.39 Z M 794.7 376.72 794.43 375.17 794.02 374.7 793.77 372.84 793.89 371.5 793.71 370.69 794.16 370.21 795.49 369.61 795.77 370.56 794.98 373.21 794.84 375.21 795.11 376.34 794.7 376.72 Z M 793.89 325.36 793.96 325.85 791.88 331.13 789.79 335.64 788.28 340.04 788.63 341.26 788.27 342.68 787.72 342.9 786.63 341.41 786.68 340.64 785.82 338.87 785.62 337.57 786.36 336.98 786.65 335.01 787.32 334.26 787.98 332.73 787.74 331.52 787.86 330.74 786.92 330.4 787.39 329.57 789.54 328.07 791.07 326.19 791.52 324.62 791.34 323.72 790.44 322.15 789.84 321.54 790.47 320.17 792.15 318.98 792.25 319.9 792.15 322.54 792.56 324.07 793.89 325.36 Z M 752.73 296.89 753.08 297.17 753.27 298.65 752.8 299.16 751.63 299.29 750.75 298.26 750.56 297.48 749.5 296.07 748.77 295.43 747.04 293.07 747.79 292.34 748.83 292.21 749.03 292.79 750.22 293.08 751.19 293.63 752.12 293.68 751.86 295.13 752.1 296.21 752.73 296.89 Z M 722.5 268.65 723.05 269.25 722.97 269.89 722.16 269.6 722.5 268.65 Z M 738.35 267.27 738.73 267.92 737.54 268.87 737.48 268.14 736.98 267.66 737.86 266.18 738.35 267.27 Z M 726.2 262.32 726.13 263.58 726.43 264.83 726.04 266.02 725.44 266.09 725.27 264.45 725.75 262.73 726.2 262.32 Z M 733.72 254.65 732.58 254.33 733.03 253.8 733.72 254.65 Z M 710.08 228.16 710.05 229.58 709.65 230.22 709.12 229.76 709.84 229.3 710.08 228.16 Z M 709.55 226.01 709.01 225.43 707.67 226.14 706.93 225.22 707.63 222.86 708 222.88 708.31 224.21 708.81 224.54 709.67 225.69 709.55 226.01 Z M 707.4 222.43 706.05 222.65 706.04 221.97 707.52 220.29 707.85 220.61 707.13 221.79 707.4 222.43 Z M 666.29 201.03 666.55 201.59 665.5 202.25 664.72 201.36 665.75 200.74 666.29 201.03 Z M 655.68 185.85 656.35 186.41 655.71 187.54 655.15 188.12 653.81 187.55 653.33 185.69 652.62 184.66 651.79 184.12 651.25 183.44 651.82 183.01 653.69 183.68 653.72 182.67 655.35 182.84 654.88 183.87 655 184.61 655.68 185.85 Z M 523.24 158.19 523.38 159.44 520.95 159.59 520.25 159.2 521.02 158.68 522.19 157.23 523.24 158.19 Z M 526.61 145.98 526.72 146.6 525.51 147.51 524.69 147.69 524.19 148.23 523.59 147.25 523.05 146.8 521.36 148.51 521.49 149.35 520.93 150.51 519.77 150.23 519.51 151 518.14 151.74 516.87 151.74 515.94 150.65 515.86 151.47 515.06 152.38 514.9 151.18 515.26 150.67 515.6 149.19 516.31 148.56 516.57 147.66 517.28 147.28 517.86 146.54 521.77 145.78 522.92 145.14 524.05 145.06 525.16 145.95 526.61 145.98 Z M 576.03 29.4 576.49 29.88 575.98 30.41 575.06 30.73 574.69 31.46 574.02 31.18 573.22 29.75 573.34 29.14 575.18 28.02 576.03 29.4 Z M 576.16 27.63 576.79 27.54 577.4 28.32 576.4 28.89 575.87 28.07 576.16 27.63 Z M 576.77 18.88 577.7 19.91 576.7 21.3 574.97 20.5 575.22 19.17 575.56 18.94 576.77 18.88 Z M 574.75 17.73 574.75 18.98 574.3 19.74 573.74 19.55 572.92 18.48 573.81 17.12 574.75 17.73 Z M 662.19 193.35 661.68 193.72 660.85 193.75 660.85 192.77 661.41 192.47 662.19 193.35 Z M 585.81 3.58 586.36 3.9 585.37 4.67 583.6 4.74 583.02 4.5 583.02 3.84 583.52 3.66 584.62 3.77 585.81 3.58 Z M 575.08 1 576.51 1.43 576.49 1.93 575.38 2.01 573.98 1.62 574.24 1.21 575.08 1 Z" fill-rule="evenodd" id="AU-QLD" data-name="Queensland"/>
<path d="M 551.42 529.16 551.42 514.52 551.42 499.81 551.42 492.5 551.42 477.95 551.42 463.5 551.42 449.15 551.42 434.88 551.42 420.71 551.42 413.66 560.94 413.66 570.47 413.66 579.99 413.66 589.51 413.66 599.03 413.66 608.55 413.66 618.08 413.66 627.6 413.66 637.12 413.66 646.64 413.66 656.16 413.66 665.68 413.66 675.21 413.66 684.73 413.66 694.25 413.66 707.67 413.65 709.48 412.23 710.07 410.26 711.32 409.83 712.5 408.63 713.63 407.82 715.63 406.76 716.39 406.51 717.43 404.6 717.73 404.35 719.56 404.1 720.19 404.21 720.4 404.88 721.47 404.95 722.04 405.32 723.11 404.86 728.22 404.71 731.23 403.64 732.9 403.66 733.68 403.26 734.93 404.1 736.65 405.75 737.48 405.93 740.01 406.03 742.59 405.51 743.39 405.49 745.3 406.47 746.13 406.66 747.03 407.47 748.34 407.72 748.53 409.42 748.96 410.01 750.18 410.11 751 410.45 753.07 411.89 753.5 414.35 753.62 415.89 754.15 416.42 754.31 417.37 755.72 417.13 756.9 415.58 757.63 415.04 757.63 414.27 758.3 412.66 760.05 412.07 761.73 411.17 762.38 412.49 763.78 412.89 764.15 411.86 765.74 411.96 767.13 411.52 767.54 410.87 767.87 409.4 767.94 407.98 768.35 407.01 767.19 405.59 766.75 404.38 766.22 403.83 766.4 403.29 767.24 403.01 768.03 402.25 770.25 401.07 771.32 401.09 772.76 399.94 774.04 399.71 775.17 398.99 775.45 398.21 776.68 397.15 777.39 397.53 777.62 398.41 778.47 398.72 779.23 397.87 779.88 398.5 781.76 399.31 782.68 399.22 783.63 398.59 785.35 398.9 788.93 399.14 789.9 398.06 790.41 397.12 791.19 397.13 792.77 396.75 794.14 396.63 796.57 394.66 797.07 395.3 797.66 395.24 798.22 397.32 798.22 398.43 797.68 401.6 797.93 404.48 799 406.08 798.78 407.61 798.43 408.32 798.52 410.69 796.86 412.39 795.53 414.46 795.18 415.77 795.38 417.06 794.92 417.27 793.51 419.97 793.31 420.91 793.89 422.57 793.63 423.19 793.77 424.23 793.06 426.36 793.09 427.56 792.82 428.11 792.94 429.35 792.45 430.2 792.42 432.27 792.01 432.96 791.74 434.91 790.54 437 790.63 439.12 790.36 440.16 789.33 442.04 789.51 442.68 788.39 445.02 788.12 446.14 787.63 446.93 787.09 449.26 786.99 450.57 786.4 452.89 786.64 453.26 786.74 455.2 787.48 456.39 788.33 456.54 788.36 457.27 787.55 458.79 787.42 459.64 787.81 460.72 786.81 461.75 786.26 462.75 785.85 464.46 786.18 466.28 785.32 467.34 785 468.6 785.35 469 785.35 470.02 783.61 472.01 783.67 473.74 782.5 475.12 782.74 475.79 781.62 477.17 781.48 477.96 780.62 479.3 778.98 480.7 777.75 482.96 777.92 483.61 777.39 484.2 777.04 485.7 778.11 486.72 777.35 488.47 777.7 489.73 777.26 491.86 777.62 492.2 774.92 493.3 772.82 494.93 772.64 495.61 771.66 496.03 770.38 497.83 769.88 497.42 768.23 498.15 768.85 498.63 770.32 498.63 770.75 499.56 769.98 499.74 769.18 500.39 768.2 500.19 765.77 500.9 763.78 502.05 763.1 502.72 763.19 503.32 761.89 504.55 761.83 505.55 760.58 506.63 759.71 509.69 759 510.33 758.48 511.41 757.55 511.32 756.33 512.33 757.31 513.64 756.16 515.42 755.75 517.58 754.16 518.06 753.51 518.78 753.15 520.14 754.12 519.69 753.5 521.47 753.66 522.74 753.41 524.59 752.66 524.66 752.28 525.58 753.17 526.16 752.95 527.59 752.32 528.81 751.39 527.75 750.58 529.13 750.81 529.85 750.31 530.76 750.75 531.33 749.32 532.58 747.98 533.47 746.83 534.94 745.96 536.55 746.03 537.34 745.54 539.41 745.85 540.26 744.2 540.91 743.53 541.73 745.13 542.78 744.45 546.58 744.18 547.31 743.11 547.9 742.6 549.12 742.12 549.4 743.06 550.36 743.27 551.21 743.05 552.2 744.59 553.03 744.39 554.36 743.66 555.16 743.09 554.4 743.37 553.72 742.88 552.69 741.47 553.14 741.11 554.33 741.63 555.4 740.31 555.98 739.85 557 738.69 557.63 737.33 560.29 737.48 561.47 736.67 562.32 735.87 563.72 735.86 565.45 734.35 567.88 733.85 569.35 733.2 570.08 732.38 569.67 732.11 570.58 732.56 572 732.39 572.82 731.58 573.14 730.83 574.03 731.04 575.55 730.75 578.12 729.55 578.12 730.64 579.38 730.25 580.3 730.27 581.34 730.67 582.74 730.62 584.37 729.39 585.98 729.29 587.87 728.88 588.78 729.12 590.39 727.62 593.76 727.43 595.36 726.46 596.84 726.66 597.39 725.95 599.24 726.73 599.85 726.27 601.06 726.73 602.31 725.41 603.35 725.81 603.93 726.78 603.93 727.79 604.7 728.22 606.43 728.88 607.61 727.55 607.37 726.87 607.99 727.28 609.31 726.99 611.23 727.55 613.21 727.29 613.57 714.65 607.15 706.15 602.83 697.64 598.53 692.88 596.13 691.04 595.71 692.46 593.43 692.83 592.46 692.51 590.85 691.8 590.63 691.55 588.87 691 587.46 689.96 586.56 690.19 585.21 689.26 582.36 689.52 580.79 688.46 579.37 688.57 578.04 687.25 577.46 686.86 576.72 686.12 576.56 683.02 575.13 682.21 575.62 679.94 576.51 679.23 575.58 678.51 575.29 676.8 575.8 676.1 576.8 675.7 578.45 675.03 577.86 673.26 578.09 671.47 577.71 670.59 579.12 670.79 580.39 671.38 581.39 672.73 581.69 671.13 582.46 669.83 580.82 669.91 579.21 668.52 578.9 667.68 579.41 666.65 578.73 666.03 578.97 665.36 578.29 664.25 577.73 662.94 577.63 661.66 576.45 660.12 576.45 659.51 576.04 657.89 576.21 656.98 577.75 655.33 577.72 654.65 577.45 653.67 577.96 652.55 577.51 651.33 577.41 650.65 577.02 649.28 576.99 648.64 576.05 647.39 575.8 646.09 576.2 644.42 575.75 641.05 572.82 640.34 572.47 638.66 572.72 637.2 573.52 636.38 573.6 634.1 573 632.19 573 629.99 573.4 629.26 574.05 629.09 575.47 628.53 576.74 629.55 578.57 628.97 579.01 627.67 578.45 626.12 579.79 624.74 579.88 623.59 578.63 622.04 578.21 619.88 575.62 619.1 575.32 618.51 574.52 617.6 572.11 616.58 570.65 615.48 570.35 614.36 569.1 613.76 568.84 612.19 566.61 610.19 565.86 609.85 565.08 608.25 564.32 605.85 562.56 605.01 562.16 603.39 561.86 602.3 561.16 601.92 560.41 602.22 559.84 602.02 558.49 601.35 557.93 599.64 557.53 598.6 556.8 597.76 555.08 597.12 551.62 597.25 549.9 597.66 549.32 597.69 547.88 597.06 547.36 596.17 547.55 595.89 546.63 593.42 545.32 591.61 545.16 590.54 544.6 590.26 545.12 589.33 544.35 588.28 544.85 587.63 543.32 586.3 542.59 585.26 543.04 584.62 545.09 584.5 546.2 583.39 546.21 583.62 547.44 581.93 547.12 581.26 546.54 581.26 545.81 580.27 543.99 580.01 542.76 578.58 541.38 578.3 539.27 578.44 538.28 578.99 537.17 578.79 536.73 577.46 536.65 576.1 535.18 575.63 533.26 574.94 533.28 574.24 532.57 572.87 532.76 572.54 531.95 571.52 531.38 570.46 531.65 569.58 531.48 568.82 531.81 567.44 531.71 566.09 531.16 564.47 531.73 563.27 532.76 562.55 533.78 561.95 533.83 561.43 532.8 560.42 532.72 559.1 531.88 557.9 532.15 557.49 531.43 556.16 530.52 555.15 530.83 554.05 530.23 552.31 530.19 551.42 529.16 Z M 715.09 561.14 716.16 560.43 715.09 559.71 713.29 558.97 712.88 558.04 712.05 557.69 711.94 556.79 710.72 555.86 710.25 556.01 707.05 558.48 704.82 560.03 704.35 560.82 704.38 561.78 703.74 564.36 703.97 566.47 703.78 567.83 704.17 569.52 705.26 570.56 706.1 570.37 706.29 572.21 706.72 573.4 707.22 573.89 709.26 574.54 710.13 573.25 710.32 572.42 710.11 570.78 710.27 570.1 709.93 567.17 710.71 566.5 711.2 564.76 711.01 563.06 711.89 561.65 713.02 561.56 713.67 560.89 715.09 561.14 Z" fill-rule="evenodd" id="AU-NSW" data-name="New South Wales"/>
<path d="M 739.85 557 740.31 555.98 741.63 555.4 742.87 555.49 742.72 556.8 741.65 557.29 741.25 556.73 739.85 557 Z" id="AU-X02~" data-name="Jervis Bay Territory"/>
<path d="M 550.8 627.2 550.79 614.91 550.79 602.58 550.79 590.35 550.79 578.18 550.78 566.1 550.78 554.09 550.78 542.15 550.78 528.4 551.42 529.16 552.31 530.19 554.05 530.23 555.15 530.83 556.16 530.52 557.49 531.43 557.9 532.15 559.1 531.88 560.42 532.72 561.43 532.8 561.95 533.83 562.55 533.78 563.27 532.76 564.47 531.73 566.09 531.16 567.44 531.71 568.82 531.81 569.58 531.48 570.46 531.65 571.52 531.38 572.54 531.95 572.87 532.76 574.24 532.57 574.94 533.28 575.63 533.26 576.1 535.18 577.46 536.65 578.79 536.73 578.99 537.17 578.44 538.28 578.3 539.27 578.58 541.38 580.01 542.76 580.27 543.99 581.26 545.81 581.26 546.54 581.93 547.12 583.62 547.44 583.39 546.21 584.5 546.2 584.62 545.09 585.26 543.04 586.3 542.59 587.63 543.32 588.28 544.85 589.33 544.35 590.26 545.12 590.54 544.6 591.61 545.16 593.42 545.32 595.89 546.63 596.17 547.55 597.06 547.36 597.69 547.88 597.66 549.32 597.25 549.9 597.12 551.62 597.76 555.08 598.6 556.8 599.64 557.53 601.35 557.93 602.02 558.49 602.22 559.84 601.92 560.41 602.3 561.16 603.39 561.86 605.01 562.16 605.85 562.56 608.25 564.32 609.85 565.08 610.19 565.86 612.19 566.61 613.76 568.84 614.36 569.1 615.48 570.35 616.58 570.65 617.6 572.11 618.51 574.52 619.1 575.32 619.88 575.62 622.04 578.21 623.59 578.63 624.74 579.88 626.12 579.79 627.67 578.45 628.97 579.01 629.55 578.57 628.53 576.74 629.09 575.47 629.26 574.05 629.99 573.4 632.19 573 634.1 573 636.38 573.6 637.2 573.52 638.66 572.72 640.34 572.47 641.05 572.82 644.42 575.75 646.09 576.2 647.39 575.8 648.64 576.05 649.28 576.99 650.65 577.02 651.33 577.41 652.55 577.51 653.67 577.96 654.65 577.45 655.33 577.72 656.98 577.75 657.89 576.21 659.51 576.04 660.12 576.45 661.66 576.45 662.94 577.63 664.25 577.73 665.36 578.29 666.03 578.97 666.65 578.73 667.68 579.41 668.52 578.9 669.91 579.21 669.83 580.82 671.13 582.46 672.73 581.69 671.38 581.39 670.79 580.39 670.59 579.12 671.47 577.71 673.26 578.09 675.03 577.86 675.7 578.45 676.1 576.8 676.8 575.8 678.51 575.29 679.23 575.58 679.94 576.51 682.21 575.62 683.02 575.13 686.12 576.56 686.86 576.72 687.25 577.46 688.57 578.04 688.46 579.37 689.52 580.79 689.26 582.36 690.19 585.21 689.96 586.56 691 587.46 691.55 588.87 691.8 590.63 692.51 590.85 692.83 592.46 692.46 593.43 691.04 595.71 692.88 596.13 697.64 598.53 706.15 602.83 714.65 607.15 727.29 613.57 726.92 614.08 725.8 614.52 723.66 614.62 722.45 616.29 721.3 618.27 720.29 618.52 719.9 619.13 718.66 619.41 717.62 620.4 714.92 620.42 714.09 620.71 711.63 620.5 710.89 620.15 710.05 620.49 707.13 620.48 704.04 620.7 702.83 621.33 700.47 621.02 694.64 621.33 691.19 622.16 686.99 623.69 683.88 625.35 680.58 627.72 676.78 631.2 672.57 635.64 670.65 637.52 668.71 640.01 666.65 641.82 662.93 642.72 661.54 642.7 660.69 643.3 659.31 643.24 657.91 643.71 657.5 644.22 656.3 643.09 654.44 643.26 653 644.63 654.08 646.19 654.54 646.19 655.04 648.5 655.68 648.42 656.39 647.46 657.32 647.21 658.21 645.49 658.77 646 658.61 646.75 658.89 648.86 658.33 649.5 658.01 651.45 658.65 651.49 658.9 652.41 657.94 653.02 657.77 654.22 657.16 654.44 655.82 653.45 656.1 652.17 655.28 651.73 654.6 650.67 654.35 649.25 652.99 647.45 651.23 646.23 649.77 646.53 649.5 648.16 648.23 648.47 647.78 648.15 647.4 646.47 646.01 643.12 645.69 641.97 644.2 641.68 642.36 642.65 641.02 642.26 639.9 640.17 638.61 639.47 637.5 639.27 638.33 638.25 638.28 636.77 638.68 636.03 639.75 636.3 640.74 635.33 639.93 634.17 640.1 633.47 639.17 631.82 638.25 631.37 635.64 631.49 634.51 632.75 633.8 634.09 634.11 634.46 634.32 636.03 632.5 635.72 631.02 636.82 630.31 638.05 628.95 638.17 627.6 637.75 624.52 634.48 624.89 634.25 625.98 635.17 627.73 635.02 629.49 634.23 629.66 633.32 632.17 629.69 632.36 628.86 631.99 627 631.49 626.3 630.36 625.62 629.87 624.72 629.49 623.21 628.55 622.43 628 623.21 626.41 623.19 625.99 624.24 624.61 624.92 623.4 626.14 621.17 626.9 620.48 627.81 619.13 628.37 617.97 628.37 617.33 629.37 620.49 630.15 621.63 629.78 623.04 628.82 624.44 629.82 624.12 631.16 623.04 632.24 623.02 632.84 620.62 632.95 619.82 633.28 618.94 632.95 618.1 633.23 616.3 634.61 615.11 635.74 612.5 637.41 611.25 637.84 610.21 639.04 609.82 640.1 609.07 640.34 608.37 641.81 607.19 643 604.44 643.93 603.61 645.51 602.6 645.9 601.15 647.2 599.47 645.65 597.18 644.63 595.36 644.8 592.95 642.38 591.8 641.61 589.59 641.18 586.9 640.17 585.96 639.13 583.84 637.52 581.12 635.86 580.19 635.86 578.82 634.87 577.15 634.87 575.43 635.84 574.46 635.66 572.8 634.83 570.73 633.17 569.98 632.77 566.36 632.24 564.6 632.8 563.81 633.42 563.53 634.15 564.2 635.36 563.21 635.5 562.06 636.56 561.38 635.36 559.94 635.07 559.7 635.77 558.69 635.36 559.26 634.11 558.77 632.98 555.61 630.03 554.05 628.89 550.8 627.2 Z M 661.71 644.63 660.85 644.97 660.37 645.65 658.83 644.88 661.23 644.4 661.71 644.63 Z M 636.4 638.44 636.6 639.64 635 638.68 633.71 639.07 632.19 638.69 633.51 637.37 635.44 636.98 636.4 638.44 Z M 638.49 633.61 639.52 634.83 637.94 635.17 636.75 636.41 635.39 635.76 635.12 634.66 636.19 633.47 637.27 633.81 638.49 633.61 Z" fill-rule="evenodd" id="AU-VIC" data-name="Victoria"/>
<path d="M 688.6 760.95 687.93 760.73 686.03 758.56 685.45 760.18 684.56 761.32 684.16 760.59 682.75 759.13 682.66 758.36 683.69 757.6 681.73 756.71 681.19 755.38 682.41 754.35 682.3 753.34 683.35 753.34 683.08 754.9 684.43 756.06 686.42 755.68 685.37 753.78 685.5 752.14 682.54 751.95 681.34 751.11 680.51 749.97 678.91 750.86 679.21 752.58 679.99 754.15 679.05 755.43 677.58 756 678.51 754.18 678.17 753.78 678.39 752.32 677.31 752.8 677.06 751.76 675.29 750.66 676.09 752.76 675.51 754.19 675.56 755.9 674.36 755.06 674.02 755.49 674.94 756.99 674.08 757.83 673.87 759.06 674.08 761.59 673.12 762.47 672.06 761.87 672.14 761.23 670.84 760.99 671.34 760.05 670.95 759.46 670.05 760.12 669.5 759.57 669.38 757.78 668.5 758.28 668.37 760.1 670.25 761.58 670.99 762.81 668.98 766.14 669.05 767.02 667.78 768.09 667.85 769.23 666.95 769.79 667.9 770.42 667.6 771.25 666.2 772 664.75 771.16 663.36 771.71 662.66 770.58 661.35 769.81 660.64 767.63 659.49 769.14 656.84 768.99 656.08 768.35 655.42 769.05 654.6 768 653.53 768 653.36 769.09 652.37 768.37 650.98 769.29 649.9 769.64 650.03 767.75 649.16 764.95 649.31 764.04 651.11 764.28 652.22 765.54 652.87 764.67 654.09 765.1 653.93 763.36 652.52 762.33 651.97 763.51 651.11 763.36 650.48 762.63 649.93 763.49 648.95 762.39 648.71 760.86 646.94 761.7 647.74 762.84 646.13 762.62 645.56 760.35 644.67 759.48 644.1 758.26 644.14 757.44 642.97 757.22 643.32 756.09 642.25 755.43 641.24 753.78 639.83 753.65 639.09 752.49 637.54 748.63 636.98 748.1 637.09 746.85 636.74 745.42 635.82 744.38 635.01 743.94 635.67 742.97 634.67 741.52 634.6 739.52 633.79 736.25 633.79 734.71 635.9 735.76 636.31 736.71 638.15 737.97 638.91 741.48 639.28 741.07 639.28 739.16 640.02 739.47 640.7 737.44 639.88 736.78 638.91 736.82 637.01 734.44 636.17 731.93 635.25 732.97 634.32 733.33 635.05 731.42 634.76 729.26 633.88 727.28 632.86 725.94 631.01 724.2 629.67 721.49 629.04 720.63 628.38 720.5 628.15 718.99 627.21 716.19 625.8 713.62 624.92 712.78 625.55 712.18 625.27 710.72 623.59 707.78 623.78 706.35 623.3 705.12 623.46 704.08 622.1 701.89 622.73 701.31 622.33 700.15 623.89 699.04 624.12 697.06 623.74 694.32 623.92 693.17 624.44 693.09 625.18 694.73 626.46 694.75 627.76 695.36 629.53 695.36 632.16 697.34 632.44 696.57 635.29 696.93 636.53 697.92 637.77 698.09 638.51 698.55 640.1 697.98 640.29 698.99 642 699.97 643.78 700.17 645.34 702.42 646.54 702.93 647.77 703.05 650.98 704.95 651.77 705.12 653.63 706.02 656.36 706.35 657.73 706.3 660.14 705.43 660.45 706.35 661.71 705.28 662.26 704.39 664.01 703.68 664.82 704.03 665.27 704.91 665.27 706.05 666.29 706.36 666.26 705.21 665.58 704.57 665.85 703.01 667.71 702.45 669.37 701.37 669.78 701.71 672.38 702.15 674.64 700.45 675.75 700.48 677.03 702.06 677.75 702.2 679.23 700.73 680.74 698 682.14 697.46 683.09 698.53 683.8 698.26 685.1 699.21 686.99 698.16 687.81 695.52 688.32 695.14 690.47 696.19 691.45 697.69 692.73 697.85 694.26 699.98 695.13 702.04 693.97 703.15 694.64 703.68 693.9 705.92 693.97 707.25 694.83 708.62 695.12 710.38 694.11 713.72 694.14 715.97 694.67 716.99 694.73 718.42 694.24 719.99 694.64 721.6 693.75 722.9 694.3 724.8 695.04 725.94 694.52 728.2 694.5 729.5 695.76 731.07 694.82 732.66 695.7 733.04 695.57 734.53 694.94 735.51 693.82 734.78 694.58 733.38 693.97 732.27 694.79 731.72 693.07 730.15 691.82 729.72 692.95 728.98 693.38 727.92 691.51 728.14 691.67 730.27 690.45 730.81 690.09 733.38 689.39 734.08 689.23 734.9 688.31 736.6 689.07 736.57 688.73 737.87 688.86 739.9 688.75 741.78 687.96 742.69 687.22 742.07 686.45 742.61 687.39 743.83 687.79 745.45 687.71 747.27 686.46 748.36 686.45 749.93 687.58 751.39 688.25 751.31 688.72 752.32 688.46 753.05 688.82 753.95 687.92 755.04 688.17 758.12 688.62 758.73 688.19 760.21 688.6 760.95 Z M 675.63 763.91 676.19 765.19 675.22 768.24 673.69 767.8 671.95 768.25 670.72 766.32 671.17 765.92 672.2 766.98 672.57 765.45 672.33 764.66 673.76 764.34 673.51 763.69 674.64 762.17 675.16 761.97 675.63 763.91 Z M 676.91 758.28 677.61 761.18 676.1 761.69 675.84 760.88 676.63 760.03 674.83 759.21 675.5 757.47 676.09 756.77 676.91 758.28 Z M 691.41 744.17 691.56 745.84 690.06 745.85 690.69 747.26 688.86 747.56 689.52 745.9 688.88 745.45 689.11 744.43 690.2 743.52 691.41 744.17 Z M 630.1 693.38 629.49 694.18 628.4 694.81 627.33 694.61 627.27 693.29 628.46 692.01 628.75 692.65 630.1 693.38 Z M 690.87 689.66 691.2 689.39 693.55 688.76 692.44 691.52 691 690.63 690.87 689.66 Z M 625.73 687 625.72 689.09 625.23 689.67 625.21 691.22 624.52 690.84 624.51 689.39 624.11 688.76 625.26 688.01 625.73 687 Z M 627.88 688.25 627.37 688.2 627.21 687 627.81 685.93 629.05 686.4 628.82 687.43 627.88 688.25 Z M 697.06 685.77 698.13 687.18 696.91 687.88 696.65 688.76 695.31 688.25 694.43 687.35 693.15 688.06 692.88 687.63 690.24 687.86 688.68 687.14 688.89 685.89 690.08 685.2 691.34 685.05 692.44 685.57 692.75 684.88 694.12 684.69 695.41 684.13 696.3 685.33 697.06 685.77 Z M 688.92 680.05 688.46 678.55 687.68 678.4 687.48 677.34 686.38 676.98 686.85 675.58 686.3 673.5 685.23 673.99 683.88 673.1 684.63 672.28 685.76 671.78 685.95 670.09 686.88 669.78 687.72 668.82 691.41 673.61 691.9 674.54 692.77 674.94 694.49 675.21 694.36 677.76 693.34 678.93 693.87 679.45 694.49 678.73 695.17 680.67 694.66 682.28 692.83 681.42 692.41 682.47 691.07 683.13 690.1 682.73 689.41 681.9 689.78 681.37 688.92 680.05 Z M 612.29 673.45 613.06 674.31 612.94 675.71 612.43 676.98 611.22 678.12 610.6 678.28 608.71 679.45 608 678.92 607.72 677.5 608.12 677.08 607.99 675.37 607.05 674.51 607.15 672.72 607.51 672.16 607.52 668.54 609.21 667.35 608.93 665.67 609.94 665.25 611.88 666.64 612.43 667.96 612.29 669.09 612.7 671.27 612.29 673.45 Z" fill-rule="evenodd" id="AU-TAS" data-name="Tasmania"/>
<path d="M 715.09 561.14 713.67 560.89 713.02 561.56 711.89 561.65 711.01 563.06 711.2 564.76 710.71 566.5 709.93 567.17 710.27 570.1 710.11 570.78 710.32 572.42 710.13 573.25 709.26 574.54 707.22 573.89 706.72 573.4 706.29 572.21 706.1 570.37 705.26 570.56 704.17 569.52 703.78 567.83 703.97 566.47 703.74 564.36 704.38 561.78 704.35 560.82 704.82 560.03 707.05 558.48 710.25 556.01 710.72 555.86 711.94 556.79 712.05 557.69 712.88 558.04 713.29 558.97 715.09 559.71 716.16 560.43 715.09 561.14 Z" id="AU-ACT" data-name="Australian Capital Territory"/>
</g>
</svg>