<?xml version="1.0"?>
<svg xmlns="http://www.w3.org/2000/svg" version="1.2" baseProfile="tiny" width="800" height="654" viewBox="0 0 800 654" stroke-linecap="round" stroke-linejoin="round">
<g id="MLOC-BE">
<path d="M 72.46 263.73 52.06 252.89 36.23 228.11 21.44 225.6 14.67 214.6 12.42 194.4 18.95 178.09 8.29 164.9 1 136.44 13.04 130.74 41.17 109.37 84.25 83.91 125.94 56.35 172.47 41.23 173.26 69.96 182.7 84.5 176.11 89.5 185.09 112.15 177.66 126.35 168.59 132.28 192.03 149.04 193.73 162.97 188.31 171.08 195.43 183.82 186.92 194.18 196.64 197.08 193.41 208.27 206.23 219.37 207.82 231.7 194.89 241.33 176.2 258.1 167.03 256.09 162.92 245.29 154.12 246.63 145.59 241.74 133.81 247.42 121.48 236.23 105.01 241.41 99.83 227.2 87.78 232.1 91.83 238.62 77.21 246.04 67.38 247.12 72.46 263.73 Z" id="BE-VWV" data-name="West Flanders"/>
<path d="M 105.01 241.41 85.61 251.9 79.38 262.75 72.46 263.73 67.38 247.12 77.21 246.04 91.83 238.62 87.78 232.1 99.83 227.2 105.01 241.41 Z M 334.54 499.17 334.67 485.44 350.77 471.7 344.67 450.04 333.81 443.89 339.85 422.38 348.98 413.04 345.63 405.29 333.21 407.98 327.54 395.77 311.97 381.71 303.56 380.25 285.7 385.87 274.16 379.41 256.51 379.05 244.46 394.66 237.18 387.82 233.58 346.81 226.11 336.71 203.49 333.37 195.98 322.83 179.92 331.78 171.27 331.36 156.23 320.28 154.84 306.18 147.69 278.35 146.58 262.07 139.23 258.82 133.81 247.42 145.59 241.74 154.12 246.63 162.92 245.29 167.03 256.09 176.2 258.1 194.89 241.33 210.71 242.02 212.07 252.33 225.76 252.57 231.57 256.61 239.99 240.21 257.08 237.46 260.57 247.73 285.51 252.58 287.98 265.51 304.95 267.45 322.33 259.54 327.93 261.43 328.22 284.68 359.47 290.5 370.27 306.85 404.24 309.65 404.66 319.37 414.29 320.21 426.76 314.91 423.07 330.98 431.44 335.63 425.91 348.02 434.89 353.42 427.75 374.6 429.06 386.79 415.06 389.08 405.51 384.74 401.28 392.06 388.1 396.51 366.51 407.72 377.49 416.85 390.25 415.57 389.43 430.59 381.87 436.42 389.8 450.29 387.1 455.81 388.18 474.02 399.25 504.33 395.87 512.51 364.78 503.95 352 505.8 334.54 499.17 Z" fill-rule="evenodd" id="BE-WHT" data-name="Hainaut"/>
<path d="M 395.87 512.51 399.25 504.33 388.18 474.02 387.1 455.81 389.8 450.29 381.87 436.42 389.43 430.59 390.25 415.57 377.49 416.85 366.51 407.72 388.1 396.51 401.28 392.06 405.51 384.74 415.06 389.08 429.06 386.79 427.75 374.6 434.89 353.42 425.91 348.02 431.44 335.63 423.07 330.98 426.76 314.91 433.19 306.08 445.38 307.73 442.98 297.57 459.36 292.64 471.61 294.6 499.52 287.19 510.84 282.28 510.12 290.15 520.2 299.73 525.51 315.4 533.17 318.98 548.03 338.85 555.05 336.02 563.37 349.23 562.68 359.8 572.96 362.6 575.59 372.6 586.95 364.94 595.75 367.96 593.23 377.97 595.81 397.96 575.46 413.39 571.02 410.77 557.1 420.05 572.37 439.61 569.82 452.27 557.61 459.14 533.78 461.42 512.62 481.33 516.41 496.68 527.41 496.01 535.37 503.5 526.87 527.78 511.33 538.98 507.9 556.42 495.1 559.8 483.17 557.32 480.67 540.03 485.31 525.99 482.25 513.1 472.44 509.06 470.58 499.4 478.55 479.49 478.65 470.44 486.04 463.98 487.9 445.98 470.65 441.58 448.55 464.03 446.68 485.83 443.32 494.62 432.44 497.49 403.56 511.85 395.87 512.51 Z" id="BE-WNA" data-name="Namur"/>
<path d="M 726.39 442.41 721.29 434.59 713.69 437.62 709.43 449.68 695.21 459.84 688.01 475.81 682.81 498.34 672.68 508.24 662.57 529.15 666.09 536.19 663.67 547.52 667.41 559.03 675.74 564.11 681.31 580.52 691.89 585.67 688.95 595.88 697.91 605.61 688.74 622.83 687.95 631.96 678.27 639.42 671.31 636.02 661.61 641.55 648.01 637.49 639.23 647.1 627.91 644 613.43 653 607.67 648.98 607.73 636.87 595.49 616.71 583.84 611.28 576.17 615.3 576.49 599.54 568.16 590.3 554.33 593.03 542.7 585.82 531.42 570.62 519.9 566.13 507.9 556.42 511.33 538.98 526.87 527.78 535.37 503.5 527.41 496.01 516.41 496.68 512.62 481.33 533.78 461.42 557.61 459.14 569.82 452.27 572.37 439.61 557.1 420.05 571.02 410.77 575.46 413.39 595.81 397.96 593.23 377.97 595.75 367.96 602.66 361.41 619.83 353.16 624.59 363.2 636.21 361.41 653.32 375.37 663.75 392.75 663.77 406.06 682.36 405.15 689.62 399.09 694.24 387.77 692.23 378.54 717.35 384.06 724.33 390.27 723.18 420.42 726.39 442.41 Z" id="BE-WLX" data-name="Luxembourg"/>
<path d="M 799 386.59 796.64 391.83 783.69 391.21 774.14 408.1 760.92 412.66 752.06 421.95 755.85 432.35 747.16 437.85 745.98 452.22 741.76 442.25 726.39 442.41 723.18 420.42 724.33 390.27 717.35 384.06 692.23 378.54 694.24 387.77 689.62 399.09 682.36 405.15 663.77 406.06 663.75 392.75 653.32 375.37 636.21 361.41 624.59 363.2 619.83 353.16 602.66 361.41 595.75 367.96 586.95 364.94 575.59 372.6 572.96 362.6 562.68 359.8 563.37 349.23 555.05 336.02 548.03 338.85 533.17 318.98 525.51 315.4 520.2 299.73 510.12 290.15 510.84 282.28 514.82 274.83 512.79 255.47 518.41 246.76 529.93 261.5 535.4 260.57 549.2 264.66 549.55 256.05 578.13 257.75 583.26 250.35 592.81 247.12 603.74 256.93 614.07 255.12 622.59 244.11 640.52 238.74 650.66 228.5 659.58 232.47 657.07 243.85 666.27 244.5 675.22 247 683.99 258.66 698.21 259.4 699.11 246.99 720.58 247.42 726.77 261.29 738.42 259.35 755.01 282.67 758.93 291.38 773.24 291.74 769.9 300.64 754.93 314.86 762.92 332.19 774.59 330.82 787.67 335.03 794.39 350.69 791.61 371.98 799 386.59 Z" id="BE-WLG" data-name="Liege"/>
<path d="M 194.89 241.33 207.82 231.7 206.23 219.37 193.41 208.27 196.64 197.08 186.92 194.18 195.43 183.82 188.31 171.08 193.73 162.97 192.03 149.04 168.59 132.28 177.66 126.35 185.09 112.15 176.11 89.5 182.7 84.5 203.92 85.96 206.64 72.47 231.65 70.22 260.9 81.25 261.97 92.72 267.63 97.53 292.14 97.22 331.91 75.33 350.35 56.04 353.15 43.63 360.33 56.75 370.04 67.48 369.14 76.26 367.06 80.14 376.27 109.31 372.73 121.7 351.98 125.22 344.97 132.37 351.25 154.07 357.06 152.75 352.24 168.55 340.77 168.39 337.62 174.98 340.45 188.35 322.52 198.17 325.31 204.3 315.63 218.4 322.78 224.21 319.77 233.42 293 244.91 285.51 252.58 260.57 247.73 257.08 237.46 239.99 240.21 231.57 256.61 225.76 252.57 212.07 252.33 210.71 242.02 194.89 241.33 Z" id="BE-VOV" data-name="East Flanders"/>
<path d="M 361.35 43.17 365.51 43.31 388.53 49.47 393.49 41.64 385.98 29.84 385.4 18.75 407.35 8.29 416.08 7.76 419.28 26.33 442.74 24.29 458.76 4.53 465.59 1 477.97 7.85 476.21 22.68 484.05 30.96 495.87 35.69 505.57 29.35 516.96 8.29 526.94 12.4 531.01 20.19 528.57 41.46 535.7 49.38 539.92 61.75 555.34 63.42 564.06 80.45 559.31 95.16 567.73 103.1 568.41 116.46 556.51 119.12 551.82 125.99 541.44 126.53 533.07 137.21 516.48 140.53 510.5 153.43 507.63 149.98 476.86 161.65 470.67 152.09 453.59 160.16 448.02 157.11 432.92 161.18 430.21 167.89 409.67 162.09 388.71 166.13 387.7 161.25 364.16 150.9 357.06 152.75 351.25 154.07 344.97 132.37 351.98 125.22 372.73 121.7 376.27 109.31 367.06 80.14 369.14 76.26 375.81 67.48 366.4 60.21 361.35 43.17 Z" id="BE-VAN" data-name="Antwerp"/>
<path d="M 650.66 228.5 640.52 238.74 622.59 244.11 614.07 255.12 603.74 256.93 592.81 247.12 583.26 250.35 578.13 257.75 549.55 256.05 549.2 264.66 535.4 260.57 539.4 251.97 536.49 236.92 541.28 225.57 550.01 193.48 534.04 194.58 523.04 184.02 531.37 176.6 531.57 169.33 547.24 157.55 541.63 150.31 531.23 157.23 519.1 158.49 510.5 153.43 516.48 140.53 533.07 137.21 541.44 126.53 551.82 125.99 556.51 119.12 568.41 116.46 567.73 103.1 559.31 95.16 564.06 80.45 595.06 79.86 612.17 70.13 625.34 78.76 628.69 93.74 650.99 106.21 663.22 104.38 676.34 115.02 688.59 119.48 682.64 138.16 672.74 153.7 675.55 157.53 664.12 178.65 672.74 178.65 663.13 195.15 658.33 196.98 643.39 213.73 650.66 228.5 Z M 699.11 246.99 698.21 259.4 683.99 258.66 675.22 247 666.27 244.5 699.11 246.99 Z" fill-rule="evenodd" id="BE-VLI" data-name="Limburg"/>
<path d="M 406.66 232.51 389.81 241.57 375.14 237.9 365.86 218.01 368.99 200.99 385.44 198.65 402.62 213.55 406.66 232.51 Z" id="BE-BRU" data-name="Brussels"/>
<path d="M 327.93 261.43 322.33 259.54 304.95 267.45 287.98 265.51 285.51 252.58 293 244.91 319.77 233.42 322.78 224.21 315.63 218.4 325.31 204.3 322.52 198.17 340.45 188.35 337.62 174.98 340.77 168.39 352.24 168.55 357.06 152.75 364.16 150.9 387.7 161.25 388.71 166.13 409.67 162.09 430.21 167.89 432.92 161.18 448.02 157.11 453.59 160.16 470.67 152.09 476.86 161.65 507.63 149.98 510.5 153.43 519.1 158.49 531.23 157.23 541.63 150.31 547.24 157.55 531.57 169.33 531.37 176.6 523.04 184.02 534.04 194.58 550.01 193.48 541.28 225.57 536.49 236.92 539.4 251.97 535.4 260.57 529.93 261.5 518.41 246.76 510.61 240.53 500.43 248.61 495.4 240.98 479.77 242.6 471.26 231.18 462.58 228.17 450.78 233.96 439.96 231.15 438.87 249.34 425.97 247.93 409.84 250.32 402.16 245.9 384.68 253.35 371.24 262.6 356.99 266.37 344.61 260.91 340.12 254.65 327.93 261.43 Z M 406.66 232.51 402.62 213.55 385.44 198.65 368.99 200.99 365.86 218.01 375.14 237.9 389.81 241.57 406.66 232.51 Z" fill-rule="evenodd" id="BE-VBR" data-name="Flemish Brabant"/>
<path d="M 426.76 314.91 414.29 320.21 404.66 319.37 404.24 309.65 370.27 306.85 359.47 290.5 328.22 284.68 327.93 261.43 340.12 254.65 344.61 260.91 356.99 266.37 371.24 262.6 384.68 253.35 402.16 245.9 409.84 250.32 425.97 247.93 438.87 249.34 439.96 231.15 450.78 233.96 462.58 228.17 471.26 231.18 479.77 242.6 495.4 240.98 500.43 248.61 510.61 240.53 518.41 246.76 512.79 255.47 514.82 274.83 510.84 282.28 499.52 287.19 471.61 294.6 459.36 292.64 442.98 297.57 445.38 307.73 433.19 306.08 426.76 314.91 Z" id="BE-WBR" data-name="Walloon Brabant"/>
</g>
</svg>