<?xml version="1.0"?>
<svg xmlns="http://www.w3.org/2000/svg" version="1.2" baseProfile="tiny" width="800" height="521" viewBox="0 0 800 521" stroke-linecap="round" stroke-linejoin="round">
<g id="MLOC-BG">
<path d="M 600.65 376.04 601.54 367.9 597.07 358.59 599.63 350.04 599.21 343.08 605.17 337.65 605.96 332.25 599.66 325.03 591.95 323.65 589.51 317.65 577.97 309.09 569.03 296.16 563.62 280.92 558.77 271.39 551.29 270.23 542.66 273.75 532.42 268.79 530.66 264.29 540.76 257.26 542.56 247.18 539.25 238.04 540.01 230.62 549.3 228.29 550.5 234.77 554.97 236.69 564.23 233.3 569.16 226.59 578.93 226.12 582.96 228.84 592.19 227.76 597.56 229.75 609.73 225.42 617.08 223.79 624.7 219.36 630.86 221.4 639.85 232.77 651.38 237.59 657.68 238.99 668.9 236.16 673.67 233.12 680.39 236.19 686.2 242.6 696.78 248.32 707.25 243.74 708.93 254.93 708.31 267.69 689.3 266.73 687.06 268.04 685.42 276.86 674.67 281.83 675.38 293.13 663.5 292.82 659.76 294.98 654.81 310.75 660.1 315.37 663.96 311.06 670.48 313.11 674.79 311.3 677.7 318.24 682.73 316.55 685.63 330.2 688.95 332.77 694.05 331.97 695 336.79 690.32 342.64 693.19 349.73 703.71 359.13 709.8 369.7 720.34 377.9 724.48 388.83 724.19 394.98 717.7 393.34 711.47 394.07 703.21 391.06 697.56 391.39 695.25 400.11 686.85 395.84 682.15 395.66 672.23 398.25 662.52 406.04 657.57 400.08 648.2 394.79 642.34 388.78 636.93 380.42 629.39 374.53 620.53 375.15 616.7 380.48 609.34 379.66 600.65 376.04 Z" id="BG-02" data-name="Burgas"/>
<path d="M 551.29 270.23 558.77 271.39 563.62 280.92 569.03 296.16 577.97 309.09 589.51 317.65 591.95 323.65 599.66 325.03 605.96 332.25 605.17 337.65 599.21 343.08 599.63 350.04 597.07 358.59 601.54 367.9 600.65 376.04 594.59 382.93 590.35 385.39 586.75 390.93 573.87 394.53 566.56 393.12 558.53 397.6 546.54 395.59 542.19 397.35 536.79 402.81 537.53 410.56 534.7 412.17 525.69 405.45 525.89 398.98 522.79 394.71 518.41 393.72 513.8 400.44 511.71 392.41 507.85 389.49 496.17 387.96 485.25 382.43 483.56 373 483.62 363.3 488.25 359.29 490.09 352.96 489.19 344.59 495.72 328.75 489.4 326.86 488.53 320.51 496.89 317.55 498.3 310.55 504.76 312.92 510.69 310.94 513.34 304.1 517.91 300.8 515.25 295.69 522.28 292.39 529.63 293.08 537.01 290.73 543.98 283.42 550.37 281.09 551.29 270.23 Z" id="BG-28" data-name="Yambol"/>
<path d="M 485.25 382.43 496.17 387.96 507.85 389.49 511.71 392.41 513.8 400.44 518.41 393.72 522.79 394.71 525.89 398.98 525.69 405.45 534.7 412.17 537.53 410.56 534.12 420.39 528.03 422.26 514.92 421.69 509.64 426.32 507.36 434.15 509.54 439.4 501.96 439.08 496.93 433.8 480.85 436.86 473.17 443.49 474.62 451.22 468.28 452.59 462.47 456.54 456.44 465.05 450.85 462.41 445.05 456.17 443.72 449.34 439.27 447.66 434.77 449.87 430.66 455.1 426.26 453.5 421.01 455.22 416.74 452.95 420.37 441.47 417.02 434.63 407.31 426.81 399.56 429.67 391.6 424.92 389.16 416.56 377.78 422.88 371.04 421.62 366.4 411.11 367.91 406.79 374.43 402.42 379.11 392.36 375.52 375.32 375.73 367.39 381.55 368.89 396.89 373.34 399.96 361.67 408.44 361.53 414.61 357.16 418.96 359.31 420.18 368.88 424.15 366.96 436 379.72 441.98 376.83 448.69 369.59 460.63 371.72 474.31 386.91 485.25 382.43 Z" id="BG-26" data-name="Haskovo"/>
<path d="M 45.2 1 72.58 19.76 85.57 23.75 89.62 30.51 87.45 35.96 69.96 42.54 65.45 59.81 67.1 67.16 74.26 70.91 91.21 69.39 89.64 79.86 83.35 80.5 83.23 85.43 88.27 87.11 90.49 94.31 82.93 99.12 78.47 106.11 76.62 115.56 80.81 118.81 80.52 125.11 65.98 128.19 58.69 131.42 55.39 144.35 49.37 149.83 41.02 147.15 37.15 142.42 31.82 141.34 23.17 134.34 18.01 119.4 17.3 105.9 11.38 100.21 6.8 92.41 6.55 84.32 1.57 75.56 7.31 52.84 7.96 42.75 16.41 38.44 21.23 38.04 25.12 31.43 32.61 30.23 34.12 27.49 34.3 10.58 39.73 3.57 45.2 1 Z" id="BG-05" data-name="Vidin"/>
<path d="M 13.28 281.15 13.37 272.69 18.4 262.6 14.78 258.48 11.89 249.18 21.53 239.96 26.47 239.68 32.35 237.04 41.96 239.64 51.31 234.96 58.81 245.35 63.08 245.64 68.37 250.84 71.56 248.98 76.19 256.3 81.4 258.61 87.69 258.64 92.1 267.8 103.33 276.25 106.15 288.49 110.12 290.05 120.03 298.57 115.74 305.08 112.88 312.81 114.19 320.35 112.01 326.06 101.25 324.03 96.01 325.57 84.52 321.99 73.97 323.37 65.4 328.31 54.58 318.19 47.94 308.65 48.34 303.14 42.33 300.84 35.07 288.21 33.38 283.31 29.49 281.24 13.28 281.15 Z" id="BG-14" data-name="Pernik"/>
<path d="M 51.31 234.96 56.01 220.87 62.69 218.48 69.75 210.95 71.35 206.4 76.26 202.41 81.2 192.7 82.33 184.64 88.2 183.3 100.75 196.9 112.61 197.94 120.99 194.8 125.07 196.26 130.77 194.01 135.38 188.9 143.43 191.1 140 198.45 147.45 205.03 154.97 215.74 165.4 208.09 169.35 212.41 175.9 211.31 182.19 205.5 186.97 207.56 199.57 209.88 203.81 212.5 209.15 206.9 212.81 206.84 217.89 213.78 217.72 221.04 223.57 227.39 228.51 228.53 231.33 233.24 231.42 244.53 229.69 251.53 232.24 255.48 248.38 255.68 254.42 259.48 262.6 259.98 257.95 268.23 259.6 276.16 265.1 279.05 272.33 286.97 271.73 290.81 264.06 293.41 256.7 292.88 250.5 288.93 248.35 283.16 241.21 281.71 232.11 284.99 228.55 290.03 216.45 294.92 207.09 290.43 199.78 292.13 199.03 296.02 201.99 302.86 210.51 311.29 216.95 310.22 218.99 313.66 216.91 320.05 206.84 322.76 204.56 330.62 208.71 341.57 204.01 343.32 197.8 340.29 196.8 345.32 192.65 351.48 186.63 353.97 181.82 359.76 161.05 364.35 158.57 370.64 154.33 375.83 147.45 373.26 152.06 367.05 144.87 365.14 139.09 358.17 127.73 360.53 125.9 356.65 131.49 348.24 135.43 345.22 126.28 335.73 121.99 325.99 112.01 326.06 114.19 320.35 112.88 312.81 115.74 305.08 120.03 298.57 139.61 308.88 145.17 298.89 150.35 299.96 153.8 309.78 152.35 315.52 155.76 317.84 164.79 318.51 167.95 315.24 166.66 309.46 162.64 305.63 155.95 293.76 148.62 276.81 150.98 266.21 160.55 246.09 152.8 244.39 147.78 239.86 135.59 243.85 129.38 242.09 119.41 235.11 116.35 241.23 116.26 249.16 109.98 254.34 111.29 260.94 107.11 264.49 101.39 262.2 96.07 262.77 92.1 267.8 87.69 258.64 81.4 258.61 76.19 256.3 71.56 248.98 68.37 250.84 63.08 245.64 58.81 245.35 51.31 234.96 Z" id="BG-23" data-name="Sofia"/>
<path d="M 49.37 149.83 55.39 144.35 58.69 131.42 65.98 128.19 80.52 125.11 80.81 118.81 76.62 115.56 78.47 106.11 82.93 99.12 90.49 94.31 88.27 87.11 83.23 85.43 83.35 80.5 89.64 79.86 91.21 69.39 101.33 68.48 114.41 63.29 125.97 61.65 146.32 62.71 160.09 70.34 163.68 70.95 165.27 76.79 163.88 92.12 159.34 104.28 159.2 108.52 154.78 115.07 163.76 122.69 154.16 130.8 146 128.89 140.79 131.92 136.89 137.56 136.16 151.14 127.31 164.33 126.23 169.18 135.76 172.59 143.61 176.91 141.98 180.91 135.09 184.19 135.38 188.9 130.77 194.01 125.07 196.26 120.99 194.8 112.61 197.94 100.75 196.9 88.2 183.3 82.33 184.64 73.74 180.28 63.24 169.35 59.59 159.83 49.37 149.83 Z" id="BG-12" data-name="Montana"/>
<path d="M 1 336.37 11.07 334.22 16.91 322.87 21.89 320.58 25.42 307.89 23.93 302.83 11.79 291.8 13.28 281.15 29.49 281.24 33.38 283.31 35.07 288.21 42.33 300.84 48.34 303.14 47.94 308.65 54.58 318.19 65.4 328.31 73.97 323.37 84.52 321.99 96.01 325.57 101.25 324.03 112.01 326.06 121.99 325.99 126.28 335.73 135.43 345.22 131.49 348.24 125.9 356.65 127.73 360.53 139.09 358.17 144.87 365.14 152.06 367.05 147.45 373.26 141.16 378.32 133.89 379.58 117.73 374.33 110.09 374.53 100.15 380.39 92.26 381.92 85.17 378.28 76.05 375.51 72.35 381.61 64.83 389.01 58.88 386.63 55.27 382.73 49.46 382.99 36.98 376.69 24.72 368.1 21.65 364.7 18.4 357.06 13.57 353.43 1 336.37 Z" id="BG-10" data-name="Kyustendil"/>
<path d="M 164.19 496.63 158.33 497.49 149.93 493.12 137.37 492.75 126.09 497.95 121.2 493.04 111.26 498.07 107.43 506.1 99.2 507.57 73.93 503.65 76.97 501.26 76.52 490.91 78.41 488.03 77.32 471.78 77.97 465.34 76.06 461.32 76.97 452.27 82.66 445.52 85.74 438.83 83.39 431.21 76.83 428.52 71.94 414.2 69.48 412.28 64.83 389.01 72.35 381.61 76.05 375.51 85.17 378.28 92.26 381.92 100.15 380.39 110.09 374.53 117.73 374.33 133.89 379.58 141.16 378.32 147.45 373.26 154.33 375.83 158.57 370.64 161.05 364.35 181.82 359.76 187.75 367.46 186.68 379.51 189.13 382.5 185.48 386.73 182.27 394.32 181.74 400.59 185.19 406.4 185.97 414.11 189.29 420.46 195.22 425.33 199.98 425.13 202.86 429.84 217.37 439.85 221.27 443.96 227.72 449.37 221.96 454.59 237.23 467.6 234.1 473.12 226.87 470.04 218.06 471.34 218.72 480.58 212.11 481.83 205.63 486.35 199.63 481.93 195.15 485 183.6 487.8 180.71 492.62 167.76 493.14 164.19 496.63 Z" id="BG-01" data-name="Blagoevgrad"/>
<path d="M 626.76 20.01 630.92 28.72 638.11 32.16 643.48 38.89 667.8 38.68 678.22 37.33 681.57 43.83 675.71 45.75 676.33 49.68 668.24 58.62 662.23 56.89 661.03 67.76 655.9 71.5 649.39 69.11 642.2 72.52 643.77 81.19 638.18 81.31 632.33 76.52 622.02 87.07 620.06 100.09 611.6 99.9 601.44 90.79 594.64 94.68 587.85 87.05 582.21 85.25 582.18 81.28 576.66 75.87 573.78 69.24 565.87 73.55 560.81 69.02 545.73 64.7 541.75 55.91 536.61 51.33 529.72 54.85 526.29 50.99 517.56 50.5 515 38.11 511.61 37.62 509.41 31.83 520.05 30.25 545.34 26.52 557.4 22.39 567.69 20.99 579.77 13.79 594.74 12.26 598.04 10.14 607.32 15.93 626.76 20.01 Z" id="BG-19" data-name="Silistra"/>
<path d="M 509.41 31.83 511.61 37.62 515 38.11 517.56 50.5 508.03 61.02 505.22 67.64 499.41 71.28 499.11 78.35 512.66 83.5 510.38 86.65 510.71 93.83 504.68 101.94 498.09 100.96 493.34 104.56 489.98 101.37 487.74 118.89 490.52 123.5 479.02 124.38 472.03 128.54 469.54 138.02 460.17 144.47 463.13 151.97 469.43 153.8 469.64 161.61 460.58 159.61 458.8 151.73 448.19 153.64 436.16 151.2 428.75 144.72 424.03 147.96 416.76 145.17 409.67 138.03 408.15 129.2 399.47 121.75 404.33 109.68 401.04 99.95 410.49 99.83 418.14 96.77 425.13 91.54 432.98 91.29 439.13 88.96 442.33 83.37 450.37 76.8 458.62 64.53 473.96 53.2 477.15 47.05 486.25 39.37 496.55 36.69 509.41 31.83 Z" id="BG-18" data-name="Ruse"/>
<path d="M 620.06 100.09 622.02 87.07 632.33 76.52 638.18 81.31 643.77 81.19 642.2 72.52 649.39 69.11 655.9 71.5 661.03 67.76 662.23 56.89 668.24 58.62 676.33 49.68 675.71 45.75 681.57 43.83 686.56 50.65 694.93 48.58 703.75 43.58 710.84 42.75 713.87 47.87 719.63 68.24 723.93 71.65 750.26 83.67 777.46 88.39 795.79 87.32 795.12 111.14 799 123.11 793.49 137.93 780.63 150.77 772.26 144.87 763.06 142.41 753.05 146.01 742.1 146.01 737.2 148.86 733.14 155.23 723.77 155.61 717.64 148.64 713.61 148.38 705.18 153.45 697.65 149.54 685.72 134.51 680.99 133.53 671.53 122.44 668.22 126.56 660.83 129.97 653 118.79 647.96 117.29 643.71 110.58 633.54 113.13 620.06 100.09 Z" id="BG-08" data-name="Dobrich"/>
<path d="M 209.15 206.9 203.81 212.5 199.57 209.88 186.97 207.56 182.19 205.5 175.9 211.31 169.35 212.41 165.4 208.09 154.97 215.74 147.45 205.03 140 198.45 143.43 191.1 135.38 188.9 135.09 184.19 141.98 180.91 143.61 176.91 135.76 172.59 126.23 169.18 127.31 164.33 136.16 151.14 136.89 137.56 140.79 131.92 146 128.89 154.16 130.8 163.76 122.69 154.78 115.07 159.2 108.52 159.34 104.28 163.88 92.12 165.27 76.79 163.68 70.95 176.41 68.86 186.51 73.69 231.1 84.95 254.95 84.15 253.97 92.62 248.68 100.73 241.54 104.29 237.46 103.88 227.35 114.16 231.33 125.89 234.81 131.34 240.7 132.54 243.03 140.8 241.11 157.37 235.06 160.55 226.29 160.05 222.46 163.5 218.7 162.14 209.29 165.86 205.74 174.52 206.84 176.88 215.44 180.37 216.48 187.09 214.1 198.02 206.71 197.36 209.15 206.9 Z" id="BG-06" data-name="Vratsa"/>
<path d="M 296.4 84.79 307.99 87.76 334.9 85.85 349.93 91.27 366.47 92.51 375.92 96.3 369 102.35 367.23 109.46 363.43 114.14 367.5 121.62 364.61 127.79 356.86 136.55 358.34 140.3 363.8 140 367.62 151.92 368.3 158.51 358.6 167.17 353.75 168.44 349.11 163.87 345.89 157.27 336.99 163.03 326.3 165.87 323.54 162.58 308.01 163.38 296.63 170.09 291.74 177.62 287.23 181.47 268.52 176.99 262.07 168.77 257.14 169.5 252.44 174.43 242.02 177.82 228.96 173.26 215.44 180.37 206.84 176.88 205.74 174.52 209.29 165.86 218.7 162.14 222.46 163.5 226.29 160.05 235.06 160.55 241.11 157.37 243.03 140.8 240.7 132.54 234.81 131.34 231.33 125.89 227.35 114.16 237.46 103.88 241.54 104.29 248.68 100.73 253.97 92.62 254.95 84.15 259.9 83.34 267 77.98 275.79 77.04 296.4 84.79 Z" id="BG-15" data-name="Pleven"/>
<path d="M 401.04 99.95 404.33 109.68 399.47 121.75 408.15 129.2 409.67 138.03 416.76 145.17 424.03 147.96 428.75 144.72 436.16 151.2 448.19 153.64 458.8 151.73 460.58 159.61 469.64 161.61 478.04 167.47 475.12 174.27 479.3 179.81 474.33 200.16 478.05 210.44 481.33 212.67 479.09 221.27 488.96 226.22 486.1 233.05 477.52 237.18 474.28 249.16 468.35 249.81 462.87 254.89 454.49 253.68 442.92 255.14 432.82 254.09 423.83 259.55 418.59 257.89 415.68 250.79 418.39 245.36 419.55 236.76 410.08 227.95 413.03 218.34 410.85 211.55 399.15 209 390.24 209.36 378.65 206.86 375.12 198.5 357.85 198.21 354.5 195.57 348.77 185.73 354.39 179.75 353.75 168.44 358.6 167.17 368.3 158.51 367.62 151.92 363.8 140 358.34 140.3 356.86 136.55 364.61 127.79 367.5 121.62 363.43 114.14 367.23 109.46 369 102.35 375.92 96.3 385.38 102.66 390.93 103.41 401.04 99.95 Z" id="BG-04" data-name="Veliko Tarnovo"/>
<path d="M 367.91 406.79 366.4 411.11 371.04 421.62 377.78 422.88 389.16 416.56 391.6 424.92 399.56 429.67 407.31 426.81 417.02 434.63 420.37 441.47 416.74 452.95 421.01 455.22 426.26 453.5 430.66 455.1 434.77 449.87 439.27 447.66 443.72 449.34 445.05 456.17 450.85 462.41 456.44 465.05 462.47 456.54 468.28 452.59 474.62 451.22 480.64 454.55 483.54 465.61 488.01 472.71 485.63 479.46 489.26 484.91 482.44 499.91 469.82 502.65 461.89 507.17 451.99 509.03 442.94 502.75 436.87 506.49 427.66 509.99 421.1 507.84 409.85 507.06 403.93 513.01 397.35 513.04 375.96 520 367.54 518.25 359.14 508.44 356.72 491.34 359.02 479.56 357.64 471.73 345.53 475.64 338.69 458.74 347.82 457.37 351.03 454.98 347.95 437.29 344.41 431.24 348.09 425.4 358.58 410.54 364.51 405.95 367.91 406.79 Z" id="BG-09" data-name="Kardzhali"/>
<path d="M 237.23 467.6 221.96 454.59 227.72 449.37 221.27 443.96 225.07 440.02 224.73 434.44 220.48 430.02 220.06 425.9 231.09 426.05 239.34 434.67 246.61 434.46 252.14 429.49 252.22 421.56 257.63 414.02 266.08 409.22 269.54 398.95 283.75 409.95 296.06 403.08 308.95 400.37 315.14 402.11 319.79 408.14 328.61 414.6 331.09 419.16 338.73 417.87 343.51 424.38 348.09 425.4 344.41 431.24 347.95 437.29 351.03 454.98 347.82 457.37 338.69 458.74 345.53 475.64 357.64 471.73 359.02 479.56 356.72 491.34 359.14 508.44 328.94 495.05 325.04 492.63 314.44 493.98 314.39 499.21 310.77 501.56 303.66 493.46 294.17 488.03 287.99 487.67 282.08 478.21 279.72 467.63 277.07 465.23 270.57 467.29 267.98 471.01 248.59 472.73 248.54 468.85 243.99 464.92 237.23 467.6 Z" id="BG-21" data-name="Smolyan"/>
<path d="M 707.25 243.74 696.78 248.32 686.2 242.6 680.39 236.19 673.67 233.12 668.9 236.16 657.68 238.99 651.38 237.59 639.85 232.77 630.86 221.4 624.7 219.36 617.08 223.79 609.73 225.42 604.55 217.18 615.18 210.6 621.2 209.07 618.24 199.88 615.29 196.4 621.52 190.31 621.61 186.19 614.06 181.2 617.4 174.73 626.25 173.25 626.45 165.4 633.12 161.58 629.19 155.52 630.22 147.79 637.31 138.25 634.18 134.44 637.12 128.39 630.89 126.3 637.7 120.25 647.96 117.29 653 118.79 660.83 129.97 668.22 126.56 671.53 122.44 680.99 133.53 685.72 134.51 697.65 149.54 705.18 153.45 713.61 148.38 717.64 148.64 723.77 155.61 733.14 155.23 726.01 173.85 722.07 178.36 709.8 182.01 714.95 189.91 710.75 205.97 707.73 209.99 707.44 215.84 709.8 227.4 709.1 239.17 707.25 243.74 Z" id="BG-03" data-name="Varna"/>
<path d="M 381.55 368.89 375.73 367.39 375.52 375.32 379.11 392.36 374.43 402.42 367.91 406.79 364.51 405.95 358.58 410.54 348.09 425.4 343.51 424.38 338.73 417.87 331.09 419.16 328.61 414.6 319.79 408.14 315.14 402.11 308.95 400.37 296.06 403.08 283.75 409.95 269.54 398.95 271.01 390.97 268.31 378.11 269.44 367.11 277.78 361.28 273.62 357.22 274.34 348.87 271.13 338.62 273.01 334.11 267.75 328.06 266.65 315.32 262.31 310.36 264.06 293.41 271.73 290.81 272.33 286.97 265.1 279.05 259.6 276.16 257.95 268.23 262.6 259.98 267.82 260.54 275.78 253.54 286.65 254.14 292.44 256.44 301.78 266.62 310.85 266.2 324.06 267.74 329.93 267.08 340.96 259.35 341 261.14 340.34 267.25 342.45 279.65 338.81 283.91 342.84 297 349.93 303.71 359.87 302.48 361.95 305.97 359.46 312.1 364.69 318.52 356.92 318.69 353.34 321.24 354.29 331.57 358.54 341.07 350.47 345.03 348.85 350.92 350.75 357.97 359.02 362.71 369.57 359.9 378.36 364.24 381.55 368.89 Z" id="BG-16" data-name="Plovdiv"/>
<path d="M 483.62 363.3 483.56 373 485.25 382.43 474.31 386.91 460.63 371.72 448.69 369.59 441.98 376.83 436 379.72 424.15 366.96 420.18 368.88 418.96 359.31 414.61 357.16 408.44 361.53 399.96 361.67 396.89 373.34 381.55 368.89 378.36 364.24 369.57 359.9 359.02 362.71 350.75 357.97 348.85 350.92 350.47 345.03 358.54 341.07 354.29 331.57 353.34 321.24 356.92 318.69 364.69 318.52 359.46 312.1 361.95 305.97 359.87 302.48 349.93 303.71 342.84 297 338.81 283.91 342.45 279.65 340.34 267.25 341 261.14 354.14 260.4 360.71 257.24 367.1 256.9 371.04 262.09 376.21 259.02 389.77 263.3 396.96 260.57 401.22 261.63 410.85 256.89 417.65 262.93 418.59 257.89 423.83 259.55 432.82 254.09 442.92 255.14 444.33 266.93 447.98 279.19 451.56 286.15 452.12 292.34 445.49 297.47 451.97 305.23 450.8 312.83 454.36 319.4 455.9 327.62 461.79 335.89 464.38 343.71 463.76 356.33 470.17 364.04 483.62 363.3 Z" id="BG-24" data-name="Stara Zagora"/>
<path d="M 540.01 230.62 539.25 238.04 542.56 247.18 540.76 257.26 530.66 264.29 532.42 268.79 542.66 273.75 551.29 270.23 550.37 281.09 543.98 283.42 537.01 290.73 529.63 293.08 522.28 292.39 515.25 295.69 517.91 300.8 513.34 304.1 510.69 310.94 504.76 312.92 498.3 310.55 496.89 317.55 488.53 320.51 489.4 326.86 495.72 328.75 489.19 344.59 490.09 352.96 488.25 359.29 483.62 363.3 470.17 364.04 463.76 356.33 464.38 343.71 461.79 335.89 455.9 327.62 454.36 319.4 450.8 312.83 451.97 305.23 445.49 297.47 452.12 292.34 451.56 286.15 447.98 279.19 444.33 266.93 442.92 255.14 454.49 253.68 462.87 254.89 468.35 249.81 474.28 249.16 477.52 237.18 486.1 233.05 488.96 226.22 495.63 224.53 502.06 216.5 502.06 211.3 509.85 210.1 520.42 216.24 529.69 213.88 540.26 219.68 537.48 224.71 540.01 230.62 Z" id="BG-20" data-name="Sliven"/>
<path d="M 609.73 225.42 597.56 229.75 592.19 227.76 582.96 228.84 578.93 226.12 569.16 226.59 564.23 233.3 554.97 236.69 550.5 234.77 549.3 228.29 540.01 230.62 537.48 224.71 540.26 219.68 547.34 216.21 545.35 210.77 549.28 208.75 550.74 203.21 554.54 200.08 550.79 196.18 557.55 190.26 560.8 182.34 564.49 180.78 564.71 173.29 560.56 165.35 562.5 157.25 566.66 152.97 565.55 146.77 559.23 145.46 560.39 140.53 559.25 132.5 568.41 127.97 568.1 121.11 578.36 111.62 584.63 114.4 596.22 100.35 594.64 94.68 601.44 90.79 611.6 99.9 620.06 100.09 633.54 113.13 643.71 110.58 647.96 117.29 637.7 120.25 630.89 126.3 637.12 128.39 634.18 134.44 637.31 138.25 630.22 147.79 629.19 155.52 633.12 161.58 626.45 165.4 626.25 173.25 617.4 174.73 614.06 181.2 621.61 186.19 621.52 190.31 615.29 196.4 618.24 199.88 621.2 209.07 615.18 210.6 604.55 217.18 609.73 225.42 Z" id="BG-27" data-name="Shumen"/>
<path d="M 517.56 50.5 526.29 50.99 529.72 54.85 536.61 51.33 541.75 55.91 545.73 64.7 560.81 69.02 565.87 73.55 573.78 69.24 576.66 75.87 582.18 81.28 582.21 85.25 587.85 87.05 594.64 94.68 596.22 100.35 584.63 114.4 578.36 111.62 568.1 121.11 568.41 127.97 559.25 132.5 560.39 140.53 559.23 145.46 553.89 144.69 553.36 151.5 547.89 152.76 543.33 157.52 529.15 156.2 528.92 144.28 514.7 141.11 511.47 138.85 513.41 132.7 508.19 127.16 496.01 121.43 490.52 123.5 487.74 118.89 489.98 101.37 493.34 104.56 498.09 100.96 504.68 101.94 510.71 93.83 510.38 86.65 512.66 83.5 499.11 78.35 499.41 71.28 505.22 67.64 508.03 61.02 517.56 50.5 Z" id="BG-17" data-name="Razgrad"/>
<path d="M 469.64 161.61 469.43 153.8 463.13 151.97 460.17 144.47 469.54 138.02 472.03 128.54 479.02 124.38 490.52 123.5 496.01 121.43 508.19 127.16 513.41 132.7 511.47 138.85 514.7 141.11 528.92 144.28 529.15 156.2 543.33 157.52 547.89 152.76 553.36 151.5 553.89 144.69 559.23 145.46 565.55 146.77 566.66 152.97 562.5 157.25 560.56 165.35 564.71 173.29 564.49 180.78 560.8 182.34 557.55 190.26 550.79 196.18 554.54 200.08 550.74 203.21 549.28 208.75 545.35 210.77 547.34 216.21 540.26 219.68 529.69 213.88 520.42 216.24 509.85 210.1 502.06 211.3 502.06 216.5 495.63 224.53 488.96 226.22 479.09 221.27 481.33 212.67 478.05 210.44 474.33 200.16 479.3 179.81 475.12 174.27 478.04 167.47 469.64 161.61 Z" id="BG-25" data-name="Targovishte"/>
<path d="M 348.77 185.73 354.5 195.57 357.85 198.21 375.12 198.5 378.65 206.86 390.24 209.36 399.15 209 410.85 211.55 413.03 218.34 410.08 227.95 419.55 236.76 418.39 245.36 415.68 250.79 418.59 257.89 417.65 262.93 410.85 256.89 401.22 261.63 396.96 260.57 389.77 263.3 376.21 259.02 371.04 262.09 367.1 256.9 360.71 257.24 354.14 260.4 341 261.14 340.96 259.35 339.85 250.86 336.67 242.9 326.12 236.71 322.63 219.64 329.35 211.48 328.25 205.78 329.87 198.68 334.64 195.19 337.66 183.14 348.77 185.73 Z" id="BG-07" data-name="Gabrovo"/>
<path d="M 181.82 359.76 186.63 353.97 192.65 351.48 196.8 345.32 197.8 340.29 204.01 343.32 208.71 341.57 204.56 330.62 206.84 322.76 216.91 320.05 218.99 313.66 216.95 310.22 210.51 311.29 201.99 302.86 199.03 296.02 199.78 292.13 207.09 290.43 216.45 294.92 228.55 290.03 232.11 284.99 241.21 281.71 248.35 283.16 250.5 288.93 256.7 292.88 264.06 293.41 262.31 310.36 266.65 315.32 267.75 328.06 273.01 334.11 271.13 338.62 274.34 348.87 273.62 357.22 277.78 361.28 269.44 367.11 268.31 378.11 271.01 390.97 269.54 398.95 266.08 409.22 257.63 414.02 252.22 421.56 252.14 429.49 246.61 434.46 239.34 434.67 231.09 426.05 220.06 425.9 220.48 430.02 224.73 434.44 225.07 440.02 221.27 443.96 217.37 439.85 202.86 429.84 199.98 425.13 195.22 425.33 189.29 420.46 185.97 414.11 185.19 406.4 181.74 400.59 182.27 394.32 185.48 386.73 189.13 382.5 186.68 379.51 187.75 367.46 181.82 359.76 Z" id="BG-13" data-name="Pazardzhik"/>
<path d="M 262.6 259.98 254.42 259.48 248.38 255.68 232.24 255.48 229.69 251.53 231.42 244.53 231.33 233.24 228.51 228.53 223.57 227.39 217.72 221.04 217.89 213.78 212.81 206.84 209.15 206.9 206.71 197.36 214.1 198.02 216.48 187.09 215.44 180.37 228.96 173.26 242.02 177.82 252.44 174.43 257.14 169.5 262.07 168.77 268.52 176.99 287.23 181.47 291.74 177.62 296.63 170.09 308.01 163.38 323.54 162.58 326.3 165.87 336.99 163.03 345.89 157.27 349.11 163.87 353.75 168.44 354.39 179.75 348.77 185.73 337.66 183.14 334.64 195.19 329.87 198.68 328.25 205.78 329.35 211.48 322.63 219.64 326.12 236.71 336.67 242.9 339.85 250.86 340.96 259.35 329.93 267.08 324.06 267.74 310.85 266.2 301.78 266.62 292.44 256.44 286.65 254.14 275.78 253.54 267.82 260.54 262.6 259.98 Z" id="BG-11" data-name="Lovech"/>
<path d="M 120.03 298.57 110.12 290.05 106.15 288.49 103.33 276.25 92.1 267.8 96.07 262.77 101.39 262.2 107.11 264.49 111.29 260.94 109.98 254.34 116.26 249.16 116.35 241.23 119.41 235.11 129.38 242.09 135.59 243.85 147.78 239.86 152.8 244.39 160.55 246.09 150.98 266.21 148.62 276.81 155.95 293.76 162.64 305.63 166.66 309.46 167.95 315.24 164.79 318.51 155.76 317.84 152.35 315.52 153.8 309.78 150.35 299.96 145.17 298.89 139.61 308.88 120.03 298.57 Z" id="BG-22" data-name="Grad Sofiya"/>
</g>
</svg>