<?xml version="1.0"?>
<svg xmlns="http://www.w3.org/2000/svg" version="1.2" baseProfile="tiny" width="800" height="517" viewBox="0 0 800 517" stroke-linecap="round" stroke-linejoin="round">
<g id="MLOC-CONT">
<path d="M 523.69 415.79 522.71 415.64 522.61 414.75 523.38 414.77 523.69 415.79 Z M 475.81 294.16 477.38 298.9 477.01 299.43 476.26 302.6 475.87 303.24 474.83 302.53 473.69 301.21 473.32 299.93 472.53 298.79 472.18 299.14 472.34 300.14 472.92 301.22 474.35 302.89 474.38 303.62 475.12 305.02 475.28 306.02 476.61 308.37 478.01 311.35 478.97 312.34 478.73 313.86 479.13 315.06 480.32 315.83 481.65 317.1 481.86 318.32 482.36 319.46 482.52 320.76 482.57 323.06 483.05 324.86 484.06 325.47 484.67 326.19 485.52 326.6 486.26 328.1 486.76 329.73 487.11 331.59 487.58 332.48 488.35 332.63 489.12 333.67 491.27 334.57 492.33 336.04 493.66 336.94 494.88 338.58 495.51 338.68 496.23 340.12 495.91 340.61 494.88 341.14 496.31 342.03 497.21 343.3 498.4 344.09 499.62 344.09 501.56 343.18 503.23 343.38 505.08 342.41 506.43 342.49 507.89 342.08 508.4 342.23 511.07 341.62 512.59 340.58 513.62 340.93 513.25 342.05 513.35 343.58 512.82 344.5 512.66 346.35 511.79 347.66 511.07 349.11 510.52 349.63 510.31 350.32 509.38 351.82 508.71 353.64 507.84 355.15 506.35 357.37 503.92 360.06 502.09 361.87 499.57 363.34 498.27 364.26 496.36 365.97 493.05 369.51 491.75 371.49 490.87 371.67 490.66 372.38 490.1 372.98 489.15 373.32 488.91 374.56 487.53 377.28 486.95 377.71 486.05 380.4 486.18 381.42 487.5 382.64 487.61 383.19 487.08 384.07 487.43 385.16 487.13 386.14 488.19 389.45 488.62 389.99 489.52 390.43 490.02 391.12 489.57 392.64 489.94 395.59 489.86 397.48 490.08 399.59 490.53 400.51 490.02 401.26 489.92 402.08 488.91 403.24 488.33 404.3 486.63 405.55 484.56 406.17 482.55 407.33 481.01 409.14 479.02 410.64 477.46 412.19 477.03 412.2 476.93 413.58 477.54 414.53 478.17 416.54 478.28 418.31 478.86 419.68 478.41 421.7 478.54 422.6 477.93 423.51 476.71 424.18 473.93 425.27 472.68 426.2 472.23 427.1 473 427.71 472.82 429.75 472.13 432.56 471.57 433.62 470.43 434.42 469.45 435.54 467.14 439.62 463.96 443.07 461.76 445.06 460.01 446.32 458.58 446.94 457.6 446.82 456.83 447.62 455.42 447.52 455.03 448.05 452.27 447.54 451.58 447.8 449.99 447.62 449.3 447.78 448.29 448.58 446.68 448.56 445.51 448.83 444.37 449.7 443.52 449.62 441.69 447.87 440.68 447.43 440.87 446.84 439.62 444.83 440.44 444.01 440.58 442.63 440.37 441.62 439.17 439.75 438.11 437.39 437.58 435.6 436.52 433.68 434.85 431.97 434 430.51 433.18 427.87 432.92 426.4 432.89 424.7 432.15 422.68 432.09 420.45 432.2 419.05 431.75 417.83 430.98 416.82 429.81 414.79 429.18 413.06 427.61 410.1 426.82 409.19 426.1 407.94 426 406.68 426.21 404.92 426.05 402.91 426.53 402.45 427.22 400.16 427.82 397.41 428.78 395.91 429.73 395.33 430.56 393.72 430.69 392.01 429.28 388.97 428.81 387.5 429.6 386.68 429.65 385.98 428.51 383.42 428.43 382.8 427.75 381.99 426.95 379.86 427.06 379.49 426.1 377.48 424.46 375.84 422.95 374.03 421.62 372.93 420.53 371.4 420.69 370.75 420.08 370.23 419.55 368.93 420.61 368.13 420.98 366.55 420.69 366 421.33 365.61 421.04 364.16 421.73 363.08 421.78 361.72 422.05 360.52 421.89 360.01 420.91 358.65 419.95 358.28 419.42 357.19 415.87 357.34 414.97 357.71 413.48 357.82 412.39 357.03 411.6 355.18 410.78 353.96 409.82 353.25 409.13 353.1 406.14 353.18 404.04 353.44 402.45 353.91 402.11 354.45 400.57 354.56 399.22 355.13 398.24 355.75 396.38 356.3 395.56 356.79 394.68 356.41 391.05 355.73 387.66 356.06 384.82 356.98 383.55 357.64 383.02 357.66 381.69 357.16 379.76 356.12 377.21 353.85 376.1 353.33 373.55 351.38 372.33 350.92 372.28 350.3 371.46 349.88 370.77 348.26 370.58 346.92 369.63 345.4 368.01 344.5 367.24 342.97 366.66 342.94 365.89 342.31 365.63 341.18 364.22 340.73 362.95 339.74 362.71 337.5 363.24 336.71 361.94 334.52 361.99 333.89 363.35 331.78 363.35 330.74 363.77 329.27 364.35 327.83 364.35 325.56 364.06 324.42 363.4 323.58 363.9 322.58 364.06 321.54 363.59 320.54 363.16 320.59 362.6 319.52 362.47 317.57 363.4 316.53 364.06 314.69 365.44 312.33 366.66 311.17 367.06 310.39 367.22 309.09 368.04 306.99 369.9 305.8 370.8 303.51 371.3 302.86 373.42 302.33 374.67 301.68 375.44 300.84 376.76 299.95 378.56 297.3 378.59 296.42 378.11 295.72 378.25 293.9 379.28 292.17 379.49 290.91 381.59 288.77 383.23 288.07 384.72 287.2 385.91 285.03 386.86 282.28 388.03 281.9 388.69 283.15 390.39 283.98 391.82 283.66 393.7 284.08 395.53 284.2 396.3 283.92 397.97 282.61 399.06 282.08 400.12 281.98 401.15 280.98 402.8 280.28 405.74 280.05 406.59 279.53 408.36 279.23 410.54 279.23 411.52 279.83 413.46 279.31 414.38 278.7 415.36 279.17 416.88 278.95 417.54 279.33 419.55 278.95 421.46 277.99 422.6 278.36 423.42 279.27 424.67 279.29 423.34 280.82 423.48 282 424.4 282.69 424.64 283.76 423.34 285.65 422.6 286.18 422.52 287.51 423.77 288.4 427.22 290.14 428.28 290.29 429.44 290 431.56 290.62 432.17 291.06 433.63 291.36 434.35 293.29 434.82 293.9 435.75 294.31 438.46 294.78 440.31 295.57 441.98 296.83 442.75 296.83 443.71 296.32 444.66 294.8 444.18 292.87 444.61 291.82 445.72 290.87 447.95 289.93 449.19 289.98 451.18 290.77 451.61 291.84 453.49 292.38 454.71 292.36 455.48 292.7 455.93 293.61 457.39 293.38 460.41 294.03 462 294.75 463.22 294.88 464.44 295.44 465.61 294.97 467.38 293.82 468.04 293.95 469.16 293.48 471.15 294.76 471.65 294.33 472.26 294.82 473.43 294.56 474.62 294.67 475.81 294.16 Z M 509.8 395.13 510.7 396.58 511.21 398.79 511.37 400.38 511.9 401.88 511.29 403.21 510.6 402.05 510.07 402.3 510.46 403.88 510.31 405.18 509.59 406.41 509.67 407.7 507.73 413.7 507.18 415.81 506.2 418.49 505.43 421.88 504.58 424.1 503.57 424.99 502.33 425.18 500.87 426 500.02 425.95 499.33 425.45 498.3 425.18 497.61 424.61 496.84 423.07 496.92 421.05 496.2 419.5 495.91 417.49 496.44 415.83 497.1 415.41 498.06 413.51 498.43 412.44 498.53 411.28 498.06 410.44 498.06 409.65 497.63 408.6 497.5 406.51 498.45 404.92 498.59 403.8 499.54 403.7 500.12 403.26 501.08 403.27 501.29 402.87 502.7 402.64 503.01 402.17 505.98 399.94 506.38 398.61 508.16 397.03 508.42 396.27 508.4 395.19 509.09 394.33 509.8 395.13 Z M 419.37 359 419.82 359.3 419.29 360.2 418.78 360.1 419.37 359 Z" fill-rule="evenodd" id="AF" data-name="Africa"/>
<path d="M 769.62 400.59 769.76 401.35 770.47 401.3 770.63 402.1 769.81 402.45 769.36 401.93 769.15 400.64 769.62 400.59 Z M 771.11 403.51 772.04 404.33 771.19 404.57 771.11 403.51 Z M 754.11 387.99 754.59 388.37 755.44 388.33 756.05 388.71 756.1 389.48 754.35 389.17 753.82 388.58 754.11 387.99 Z M 754.41 386.34 752.34 385.23 751.57 384.61 751.86 384.25 752.68 384.94 754.33 385.88 754.41 386.34 Z M 756.31 385.85 756.87 386.52 757.45 388.1 756.61 387.74 755.97 385.98 756.31 385.85 Z M 758.46 390.51 759.34 390.66 759.36 391.5 758.06 390.91 758.46 390.51 Z M 739.08 377.9 738.45 377.33 738.26 376.22 739.43 376.78 739.08 377.9 Z M 736.75 376.88 737.84 376.98 737.81 377.85 736.96 378.45 737.25 379.25 736.64 379.7 735.85 379.68 735.24 380.49 733.46 381.29 731.74 381.32 731.13 380.85 730.57 380.97 728.95 380.15 728.82 379.67 730.28 379.52 730.84 379.73 733.17 379.63 734.6 379.39 735.45 378.35 736.19 378.19 735.95 376.99 736.75 376.88 Z M 712.49 387.65 712.49 382.69 712.25 382.33 712.49 381.45 712.49 376.73 712.49 373.14 712.97 373.17 715.25 374.19 716.78 374.71 718.11 374.97 719.22 375.75 720.26 375.84 721.61 377.01 722.17 377.07 723.12 378.06 723.31 379.5 724.53 379.83 725.93 380.49 726.67 380.56 727.63 381.37 727.73 382.15 726.12 382.28 725.77 382.75 726.28 383.75 727.44 384.87 728.34 385.38 728.61 386.39 729.35 387.5 730.84 387.55 730.73 388.3 731.98 389.2 732.22 389.66 733.99 390.22 733.57 391.07 732.53 390.94 731.95 390.43 728.93 390.05 727.55 389.79 725.19 387.45 723.7 385.31 721.37 384.71 720.34 384.17 718.35 385.59 717.18 385.83 717.85 386.94 717.79 387.3 716.2 388.12 715.27 387.76 712.83 387.88 712.49 387.65 Z M 745.71 382.2 745.18 382.61 744.36 382.28 744.04 381.36 743.11 380.61 743.01 379.67 743.59 379.65 744.62 381 745.42 381.52 745.71 382.2 Z M 783.73 468.01 785.11 467.15 786.38 467.23 785.9 468.67 786.33 469.36 784.68 471.69 783.97 473.08 782.85 473.92 783.3 475.86 782.11 475.68 780.04 476.62 779.3 479.44 778.37 481.46 776.15 484.25 773.26 484.42 772.83 483.64 771.69 483.08 769.6 483.11 769.6 481.02 770.61 479.18 771.93 478.05 773.2 476.44 774.18 476.17 776.09 474.94 777.5 473.48 778.48 472.93 779.62 471.54 780.12 469.52 781.29 468.48 781.58 467.02 782.69 465.76 783.46 466.74 783.73 468.01 Z M 784.07 450.11 785.35 450.35 786.41 450.94 786.91 451.87 786.57 452.39 787.47 453.84 787.31 455.31 788.58 455.74 788.93 454.31 789.85 455.64 790.38 457.56 791.84 458.24 793.09 458.52 794.6 457.3 795.77 457.69 795.16 460.11 794.52 460.6 794.49 461.79 793.25 461.62 792.24 462.43 792.58 463.31 792 464.72 790.09 467.81 788.61 468.98 788.29 468.41 787.1 468.03 788.29 466.06 788.47 465.11 787.94 464.11 785.56 462.85 785.35 461.79 787.02 460.77 787.28 459.18 787.76 458.01 787.31 457.01 787.44 455.6 786.75 455.6 786.7 454.25 785.58 453.48 783.73 450.84 784.07 450.11 Z M 763.98 413.2 764.51 413.29 766.18 414.44 767.21 415.62 768.64 416.5 770.05 417.58 769.68 418.26 768.19 417.27 766.28 416.24 764.53 414.58 763.9 413.75 763.98 413.2 Z M 799 403.68 798.44 404.32 798.84 405.01 796.8 405.38 796.35 404.76 798.02 403.86 799 403.64 799 403.68 Z M 795.18 406.46 795.87 407.12 796.06 408.12 794.23 408.53 793.06 408.11 792.93 407.61 793.72 406.68 795.18 406.46 Z M 717.37 394.05 717.24 394.85 717.87 395.61 718.3 397.43 718.19 398.11 718.67 399.49 719.12 399.76 720.26 399.23 720.63 399.83 722.06 400.86 722.01 402.08 722.43 403.43 722.35 404.23 723.41 405.77 723.92 407.09 723.7 408.56 724.37 409.23 724.29 409.89 724.71 410.46 726.17 411.19 726.78 411.16 727.87 412.31 729.75 413.3 729.59 413.99 730.73 415.29 731.84 418.42 732.67 417.76 733.7 418.72 734.2 418.75 734.36 420.87 735.82 422.22 736.72 422.68 737.23 423.63 737.94 424.15 738.39 425.11 738.95 425.68 738.98 426.31 739.51 426.99 739.35 427.84 739.4 430.04 740.43 432.67 740.49 434.21 739.93 435.32 739.74 436.85 739.21 438.58 739.03 440.83 738.18 442.42 737.97 443.45 737.31 444.29 736.51 444.66 735.79 445.86 735.24 447.66 734.63 448.38 734.02 450.76 732.93 452.55 732.4 455.33 732.35 457.24 730.94 457.99 728.64 458.07 726.73 459.18 725.53 460.44 723.49 461.1 723.17 460.44 720.68 459.14 718.19 460.87 716.12 459.82 714.16 459.33 713.5 459.57 712.57 458.77 711.72 458.63 709.86 456.45 710.02 454.83 709.33 453.26 708.19 452.15 706.31 451.95 707.03 450.35 706.98 449.64 706.1 448.05 705.23 450.66 703.42 450.94 703.71 450.05 704.56 450.05 704.77 448.01 705.76 446.47 705.57 445.47 704.67 445.45 704.22 446.59 702.41 447.66 700.69 450.11 699.66 447.35 698.78 445.8 697.7 445.37 697.25 444.28 697.56 443.74 696.05 442.78 695.28 442.78 694.28 442.19 693.08 442.33 691.97 441.51 690.7 441 689.9 441.26 688.44 441.2 685.82 441.53 683.88 442.48 682.21 442.99 679.11 443.09 676.54 444.62 675.13 445.28 674.1 447.15 673.12 447.56 672.16 447.29 670.76 447.56 670.57 447.25 669.12 447.14 666.91 447.49 665.67 447.52 664.79 448.58 663.55 448.87 661.88 450.25 660.63 450.54 658.27 450.25 657.11 449.72 656.52 449.01 654.93 448.27 655.33 446.63 656.07 446.34 656.44 445.45 656.47 441.51 655.3 439.2 654.9 437.68 654.83 435.67 653.9 433.42 653.08 432.27 652.76 430.42 651.78 428.47 652.39 427.91 651.78 427.33 651.67 426.17 653.18 427.8 653.18 426.72 651.96 424.58 651.4 423.24 651.7 421.54 652.17 420.79 652.25 419.82 651.99 418.89 652.6 417.22 653.08 418.14 653.53 418.19 654.03 417.23 654.61 416.75 655.94 416.16 657.16 415.06 658.7 414.17 660.26 414.32 662.01 413.51 663.23 413.24 664.02 412.62 665.09 412.72 666.44 412.41 667.95 411.83 669.3 410.53 670.07 409.04 670.97 407.85 670.79 406.33 672.03 405.11 672.59 404.3 672.96 405.3 673.81 406.73 674.36 405.3 673.73 404.42 676.14 403.56 675.72 402.74 676.72 401.36 677.63 400.86 677.47 400.34 678.58 399.59 679.35 399.83 679.53 398.96 680.57 399.08 681.31 398.11 683.01 399.14 684.17 400.43 686.96 400.85 687.62 400.51 686.8 399.59 687.51 398.66 687.81 397.73 688.73 397.12 688.55 396.32 689.66 395.08 691.36 394.78 693.43 394.7 693.9 394.4 694.12 393.03 694.86 392.92 695.23 393.49 696.82 393.77 697.56 394.17 698.65 394.12 699.74 394.65 701.01 393.94 701.65 395.11 702.65 394.05 703.56 394.95 702.65 395.94 702.79 396.44 701.3 397.12 701.43 398.26 701.2 399.06 700.16 400.44 700.43 401 701.91 401.92 703.21 403.06 703.69 403.01 705.25 403.83 706.44 404.96 708.14 405.38 708.67 406.36 710.42 407.24 711.46 407.05 712.17 406.56 713.05 404.79 713.47 403.46 713.55 402.39 713.95 401.13 713.71 399.78 713.87 399.04 713.6 398.24 713.97 397.02 714.05 395.26 714.66 393.92 715.14 391.76 715.78 391.22 716.63 392.59 716.71 393.74 717.37 394.05 Z M 703.05 398.26 703.45 399.38 702.28 399.23 702.41 398.39 703.05 398.26 Z M 689.53 392.73 690.99 392.32 691.57 392.88 690.27 393.99 689.61 393.57 689.53 392.73 Z M 705.01 452.29 704.67 453.2 703.13 453.08 702.89 452.31 704.43 451.89 705.01 452.29 Z M 721.5 466.55 722.03 466.51 724.34 467.66 725.83 467.15 726.86 467.19 728 466.53 728.72 467.02 728.74 470.25 727.89 471.85 728.03 473.61 726.75 472.82 725.56 475.01 723.73 474.81 722.48 472.93 722.01 471.76 721.95 470.19 720.92 468.41 720.63 467.13 721.5 466.55 Z" fill-rule="evenodd" id="OC" data-name="Oceania"/>
<path d="M 227.31 351.28 227.66 350.6 228.53 350.21 228.85 349.47 228.42 348.59 228.48 348.08 229.64 349.36 229.56 348.17 230.92 347.33 231.23 346.71 232.32 346.3 232.27 344.63 232.77 343.69 234.1 342.56 234.97 342.84 235.85 342.03 237.49 342.15 238.79 341.19 239.8 340.8 240.09 340.12 241.04 339.59 242.03 339.79 242.32 340.45 241.52 341.19 240.7 341.39 240.51 341.87 241.31 343.58 240.14 345.48 240.94 346.56 241.1 347.15 241.95 347.04 242.42 346.53 242.5 345.73 241.76 344.47 241.42 343.32 241.57 342.89 244.31 341.97 244.2 340.81 244.84 340.15 245.21 340.57 245.66 341.72 247.43 341.84 248.39 342.44 248.76 343.78 249.55 344.01 251.52 343.69 253.16 343.65 254.04 344.48 255.63 344.91 256.24 344.84 258.41 343.56 259.26 343.61 261.01 343.38 260.69 344.12 261.43 344.66 261.86 345.55 262.31 345.11 265.25 346.5 264.67 347.1 264.11 348.64 265.22 348.23 266.26 348.15 267.05 348.36 268.78 349.39 270.05 350.56 270.37 351.7 271.48 352.27 273.71 354.04 275.99 354.48 276.25 354.11 278.45 354.04 280.63 354.51 281.5 355 282.75 355.31 284.1 356.38 285.48 357.97 286.46 358.26 286.83 360.07 287.71 362.63 288.16 363.29 289.27 363.68 289.4 364.77 288.5 365.5 287.36 366.97 286.33 367.54 285.4 369.04 284.84 370.86 286.3 370.06 287.12 369.83 287.63 371.25 288.26 371.82 289.16 371.41 289.8 371.62 290.68 371.19 291.39 371.41 292.03 370.65 292.61 370.72 292.61 369.89 293.35 368.99 294.94 368.73 296.24 369.07 296.67 369.51 297.54 369.64 298.82 370.33 300.09 370.6 301.02 371.22 301.78 372.96 302.61 373.08 304.83 372.82 306.34 373.55 307.17 373.45 308.41 373.87 310.27 373.55 311.41 373.69 314.72 375.6 315.65 376.7 317.59 378.26 318.89 378.66 320.24 378.56 321.19 378.74 321.91 379.72 322.44 381.55 322.84 383.55 322.78 385.08 322.07 387.24 321.67 387.91 319.31 390.73 318.12 391.48 317.08 393.01 316.45 394.38 315.23 396.07 314.03 395.92 313.93 396.75 313.34 397.76 313.69 398.78 313.42 400.19 313.82 402.97 313.26 405.06 313.08 406.34 313.21 407.24 312.47 407.9 311.91 409.43 311.99 410.92 311.33 412.01 310.45 413.96 309.58 414.77 309.02 416.19 309.15 417.18 308.84 417.56 307.56 418.11 306.95 418.77 306.8 419.64 304.78 419.7 303.51 419.87 302.77 419.56 301.04 419.91 300.99 420.58 300.35 420.68 299.32 421.42 298.1 421.69 296.11 422.76 293.88 424.61 292.4 426.63 292.11 428.81 292.37 430.04 292.21 432.25 291.82 433.51 290.78 434.25 289.72 435.51 289.08 436.62 288.5 438.23 286.59 438.06 285.93 439.84 284.79 440.69 284.31 442 284.45 442.74 283.97 443.45 283.28 445.3 281.58 447 280.79 448.62 279.94 449.38 278.29 450.09 276.6 449.68 275.62 450.03 273.97 449.4 273.28 448.79 271.83 448.87 270.55 447.35 270.26 448.38 270.82 449.42 272.97 450.78 273.31 451.65 272.86 452.23 273.07 453.4 274.32 454.17 274.37 455.35 272.78 457.83 272.44 458.79 271.03 459.78 267.37 460.94 264.53 461.37 262.41 461.16 261.83 461.81 262.44 462.46 261.94 463.97 261.7 466.85 260.45 467.49 258.65 467.62 256.24 466.64 255.63 466.83 255.86 468.85 255.79 470.06 257.19 471.43 259.02 471.34 258.81 472.55 257.85 472.73 257.4 471.85 256.69 471.74 255.86 472.42 257.16 473.32 255.94 474.03 255.28 475.06 255.12 477.68 254.49 478.25 254.51 479.34 253.27 479.21 251.62 480.12 250.24 482.38 250.24 483.57 251.97 485.72 253.69 486 254.27 486.81 254.11 488.77 252.82 490.1 251.41 491.08 249.95 493.17 249.74 495.26 247.2 497.05 246.53 499.04 246.98 501.49 248.39 503.9 246.51 503.53 245.82 504.3 243.06 505.57 242.64 509.33 241.95 509.71 240.01 508.78 240.73 507.48 241.73 506.83 241.76 505.55 239.37 507.37 238.07 507.32 235.93 505.09 236.33 503.64 237.04 502.93 236.03 502.01 236.19 500.4 234.15 499.45 233.54 498.09 235.24 495.64 235.21 490.96 234.68 489.89 234.52 488 235.61 486.28 235.64 485.62 232.3 484.44 233.91 482.99 233.59 482.08 235.61 481.74 235.87 480.63 236.96 480.83 237.39 479.25 238.76 478.48 238.92 477.55 237.6 476.71 238.18 475.08 237.97 474.52 238.45 473.3 238.66 471.04 239.29 470.08 238.92 469.13 238.15 468.78 237.04 469.54 236.38 468.69 236.03 467.53 236.7 464.49 237.28 463.65 237.68 462.04 237.01 459.59 237.15 458.67 236.72 457.71 236.86 456.28 237.7 456.22 237.92 454.89 238.47 454.09 239.03 451.87 239.9 450.54 240.38 448.03 241.15 446.67 240.96 445.18 241.6 444.03 241.44 441.79 241.15 440.14 241.12 437.98 241.73 437.5 241.92 436.23 241.47 434.4 242.21 433 242.5 431.37 243.4 427.89 243.24 426.54 243.85 425.04 243.56 423.76 243.75 421.65 243.59 419.91 244.09 419.4 244.65 416.16 244.38 414.34 244.52 412.15 244.23 410.9 244.04 408.85 241.87 407.19 241.44 406.29 240.14 405.62 239.37 404.92 238.63 404.71 236.35 403.64 235.64 403.09 233.51 401.93 232.56 400.76 231.69 400.14 230.89 399.01 231.13 397.6 229.7 394.95 228.98 394.28 228.82 393.39 227.92 392.54 227.68 391.52 226.7 389.84 225.4 386.52 224.85 385.62 224.05 384.77 223.2 383.06 222.43 382.12 220.87 381.31 220.05 380.54 220.71 380.14 220.21 378.52 219.7 377.72 219.83 376.94 220.89 375.63 222.62 374.52 223.25 373.08 222.38 372.96 221.66 373.17 220.52 372.2 220.95 371.96 220.89 370.41 220.66 369.75 221.45 369.23 221.61 368.17 222.38 367.36 222.62 366.44 222.46 365.61 223.23 365.18 225.11 364.68 225.35 363.26 225.72 362.24 226.83 361.83 227.84 360.96 228.77 359.39 228.95 358.78 228.37 358.34 228.69 356.87 228.42 355.33 228.77 354.51 228.27 353.62 228.53 352.89 227.31 351.28 Z M 269.55 500.17 270.39 501.02 271.48 500.58 271.8 501.75 269.92 502.56 269.07 503.4 267.95 502.51 269.09 501.65 269.55 500.17 Z M 266.36 500.87 268.62 500.74 267.19 502.66 266.36 500.87 Z M 197.67 367.29 198.73 369.02 198.49 369.44 197.46 369.6 197.27 369.12 197.96 368.73 197.46 367.99 197.67 367.29 Z M 247.83 513.4 245.98 513.43 245.45 512.87 243.72 513.23 241.63 512.5 242.85 511.45 242.9 509.71 244.62 507.97 243.96 506.51 245.37 505.44 247.51 504.88 248.65 506.38 249.24 508.51 250.83 510.34 255.15 513.51 252.58 514.1 251.65 513.68 248.79 513.26 247.83 513.4 Z M 251.3 514.58 249.1 514.83 249.02 513.71 250.93 513.88 251.3 514.58 Z M 236.46 474.19 235.19 473.94 235.5 472.77 235.87 469.54 237.01 469.82 237.15 471.54 236.43 471.89 237.23 472.95 236.46 474.19 Z M 234.92 492.82 234.65 495.76 233.09 495.21 233.33 492.6 234.2 491.32 234.92 492.82 Z M 234.71 490.96 233.91 491.05 233.28 489.45 234.36 489.4 234.71 490.96 Z M 238.37 508.21 239.96 509.44 237.52 509.93 236.67 507.99 238.37 508.21 Z M 245.5 513.65 247.27 514.04 248.65 514.95 248.63 516 246.13 515.69 244.89 514.55 245.5 513.65 Z M 236.56 477.41 236.01 477.73 236.56 479.69 235.74 480.33 234.6 478.21 234.87 477.66 236.56 477.41 Z M 238.21 478.61 237.2 478.18 237.73 477.23 238.71 477.91 238.21 478.61 Z M 289.99 367.86 291.13 367.71 292.77 368.13 292.4 369.12 291.55 370.64 290.09 371.15 288.05 371.32 287.49 370.1 287.47 368.78 287.73 367.96 288.61 367.6 289.99 367.86 Z M 285.11 370.52 285.74 368.8 286.59 368.83 286.33 369.62 285.11 370.52 Z" fill-rule="evenodd" id="SA" data-name="South America"/>
<path d="M 253.43 325.73 254.51 325.88 253.77 326.83 251.04 326.78 251.12 325.61 253.43 325.73 Z M 19.93 182.94 22.21 182.64 23.67 185.64 19.93 182.94 Z M 31.73 198.34 32.63 198.66 32.95 200.44 31.62 201.06 29.5 200.02 30.99 198.34 31.73 198.34 Z M 61.08 209.41 62.59 210.44 61.55 211.37 59.09 212.83 57.87 213.13 57.07 211.43 58 210.17 59.04 210.35 61.08 209.41 Z M 228.48 348.08 228.42 348.59 228.85 349.47 228.53 350.21 227.66 350.6 227.31 351.28 226.73 350.58 226.17 349.42 226.86 348.7 224.69 347.32 223.92 347.3 223.23 348.21 221.85 348.9 221.66 349.39 222.51 350.3 221.69 351.18 220.79 351.3 220.36 350.21 219.33 350.17 218.83 349.24 216.73 348.84 215.75 348.77 215.65 348.23 214.4 348.18 214.61 347.23 214.03 346.69 212.33 345.86 211.32 346.01 210.21 345.29 209.73 344.17 210.1 343.38 209.92 342.61 208.33 341.14 207.69 340.19 205.68 338.5 206.23 337.98 205.57 337.45 205.09 337.87 203.79 337.85 202.1 337.19 200.93 337.01 199.15 336.16 197.96 336.17 196.48 335.47 195.47 334.69 194.28 333.39 191.81 331.28 190.8 330.75 190.17 330.94 189.64 330.43 188.39 331.46 186.72 332.11 186.06 332.22 184.57 331.61 183.3 331.48 182.45 330.92 181.6 330.7 181.07 330.16 179.03 329.74 178.29 329.27 176.46 328.63 174.79 327.58 174.23 326.95 172.35 326.63 170.71 326.02 169.67 324.83 167.39 323.7 166.17 322.14 165.78 321.17 166.68 320.71 166.15 320.24 166.73 319.43 166.78 318.55 165.8 317.36 165.48 315.83 164.13 314.46 162.96 312.8 160.71 311.02 159.78 309.59 158.33 308.89 157.53 308.28 157.45 307.53 157.93 306.87 157.32 305.85 156.71 305.87 156.28 304.95 155.12 304.33 154.98 302.98 153.69 302.73 152.44 301.46 151.38 300.06 151.25 299.43 150.11 297.61 149.28 295.54 149.42 294.54 148.14 294.1 147.43 293.36 146.98 293.69 145.44 292.93 145.33 294.59 145.89 296.27 145.86 296.96 146.47 298.01 147.85 299.19 148.41 300.3 149.07 300.64 149.81 301.57 150.11 303.07 151.01 303.84 151.72 305.22 152.68 305.87 153.31 308.14 153.87 308.79 154.67 310.59 154.96 311.99 156.12 312.08 157.45 313.77 157.37 314.41 156.34 315.2 155.97 314.92 155.36 313.47 153.02 311.71 151.56 310.46 151.62 308.88 150.9 307.1 149.47 306.18 149.07 305.49 148.2 305.84 147.64 305.22 146.32 304.6 146.1 304.06 145.1 303.31 146.63 302.97 147.19 301.57 146.98 301.11 145.1 299.14 143.58 298.19 143.27 296.79 142.74 295.5 141.41 293.54 140.11 290.66 139.61 288.98 138.26 287.86 137.51 287.8 137.3 287.06 135.9 286.81 134.86 285.99 132.93 285.85 132.58 285.56 132.61 284.22 132.1 283.43 129.85 280.8 130.04 279.67 128.68 278.36 128.53 276.61 127.41 275.87 127.39 275.36 125.79 273.58 125.4 270.84 124.42 269.7 124.31 269 124.84 267.62 124.97 266.39 123.94 262.13 124.81 259.45 125.29 253.57 124.97 249.84 124.31 246.84 123.75 246.05 123.73 244.48 125.18 245.16 129.03 245.69 127.81 242.4 127.25 242.4 126.62 240.81 125.45 240.74 124.81 239.67 123.41 238.89 122.8 237.5 119.8 237.12 119.83 236.15 118.34 235.95 116.91 234.95 117.05 233.78 116.04 232.67 115.48 231.36 116.04 228.81 115.27 228.73 114.82 227.38 113.41 226.82 112.8 227.36 111.08 225.59 111.74 224.03 110.87 222.95 111.35 221.75 109.94 221.47 109.52 220.12 109.81 217.84 108.99 216.78 107.74 216.17 105.59 212.62 104.16 212.09 103.95 209.93 102.83 207.8 101.24 206.75 100.08 207.58 98.83 206.22 97.24 207.64 95.12 206.22 93.32 204.04 89.18 201.28 87.8 201.15 85.97 200.19 83.14 199.64 81.23 199.99 78.81 198.56 76.59 197.91 74.44 195.53 71.18 196.23 71.5 199.31 70.97 200.09 68.77 200.06 65.37 203.38 63.65 203.6 63.65 200.12 64.29 199.15 64.58 196.73 66.51 195.43 66.14 194.16 63.65 195.96 63.62 196.66 60.63 200.61 58.43 202.84 58.35 203.91 60.1 205.04 58.59 206.6 58.08 208.01 56.41 208.59 53.15 211.46 53.15 212.35 50.71 214.28 48.86 215.07 49.15 216.03 46.39 217.56 45.41 217.62 42.89 219.16 41.48 219.22 40.74 220.18 38.99 220.91 38.78 220.01 40.56 217.93 42.65 216.72 43.45 217.7 44.67 215.56 46.92 214.07 49.07 211.58 50.63 210.32 50.82 206.9 48.64 205.07 47.37 206.69 46.07 204.79 44.53 204.2 41.43 206.1 41.27 201.85 40.37 199.28 38.2 200.73 36.69 200.93 34.99 198.69 33.48 197.65 34.67 196.06 33 195.1 31.86 191.82 33.82 188.64 35.57 185.07 37.88 185.89 40.95 183.88 42.89 183.37 43.61 182.06 43.26 178.16 42.7 176.38 41.43 176.95 39.1 179.21 37.11 178.13 34.49 178.8 31.73 178.16 28.92 173.77 27.41 172.48 34.96 167.58 36.98 167.7 37.14 170.19 41.3 170.35 41.88 169.27 44.83 168.35 43.42 166.93 41.22 166.76 40.98 164.79 38.67 164.91 37.08 163.96 36.18 161.61 31.2 156.73 31.57 153.93 35.78 153.62 38.33 150.81 38.78 148.45 41.17 144.75 43.13 144.9 46.84 141.06 49.78 141.3 52.46 138.07 56.04 139.57 58.19 141.6 60.34 140.71 62.56 141.55 63.2 143.94 69.11 143.6 72.58 145.47 76.75 145.85 78.15 146.85 82.53 146.14 86.56 149.14 91.49 150.02 93.82 152.31 96.95 153.93 98.8 153.76 99.23 151.31 100.45 150.3 104.82 150.53 110.74 145.95 114.1 148.77 116.78 145.47 118.19 145.33 119.35 148.63 120.57 150.3 122.14 149.28 123.43 146.94 126.01 150.9 127.31 148.12 129.4 148.07 131.87 149.1 133.35 150.62 136.51 151.63 138.23 152.94 142.71 154.11 143.69 153.4 146.39 155.32 147.38 156.91 145.6 157.69 144.14 159.73 147.53 161.01 150.77 161.14 153.98 160.5 156.07 159.43 156.97 160.84 159.28 161.69 160.63 163.62 159.6 164.71 162.46 165.74 160.02 158.39 159.92 155.63 164.66 153.71 166.31 156.55 169.04 159.08 170.63 158.61 172.38 160.41 174.9 161.1 177.33 160.24 180.22 160.93 181.84 160.33 183.96 161.52 184.52 160.16 181.79 158.91 182.29 157.39 184.39 156.55 185.02 157.78 187.12 158.35 186.38 161.9 187.67 163.96 188.84 163.58 187.97 160.84 188.39 159.17 189.98 158.87 192.39 156.03 192.34 153.93 191.04 150.39 186.93 147.74 185.98 144.75 186.3 138.37 188.97 133.97 190.96 134.96 193.96 138.47 193.88 141.26 197.03 145.76 194.41 148.73 198.68 151.45 199.47 154.07 202.6 151.58 204.85 154.38 205.36 156.86 204.17 157.56 204.51 160.67 206.55 164.04 208.17 162.11 209.47 158.87 209.95 155.49 211.88 152.76 210.71 151.81 210.45 147.88 213.26 147.98 216.86 148.91 216.81 150.35 219.73 152.49 219.83 155.32 217 156.6 218.3 160.11 219.86 162.45 219.41 164.67 216.81 167.41 212.73 169.67 210.61 167.66 207.96 167.7 209.28 170.51 206.5 174.12 204.99 174.16 201.06 170.99 202.79 174.16 207.08 174.93 206.53 176.88 204.7 180.22 203.48 181.11 200.19 181.22 200.48 182.13 197.56 183.63 198.84 184.38 198.57 186.39 197.3 187.06 195.26 186.99 192.92 192.3 191.49 194.09 190.19 198.2 189.9 200.25 190.06 204.86 190.99 205.63 193.24 205.48 195.52 212.77 198.04 211.82 199.18 211.88 200.96 212.86 202.84 213.39 204.78 214.95 205.92 216.58 210.08 218.39 211.46 219.61 214 219.5 216.94 220.15 217.74 221.45 217.32 223.2 217.93 225.24 217.66 228.41 219.12 230.35 218.99 230.85 221.21 232.8 221.85 234.3 223.04 234.87 223.78 233.45 224.92 232.87 226.01 231.01 225.51 229.64 224.34 224.17 223.41 221.89 225.08 221.19 227.34 219.81 228.58 218.56 230.09 216.37 230.39 213.98 230.25 212.06 228.98 208.59 225.96 205.79 226.14 204.86 227.63 202.78 227.71 201.5 228.64 199.86 227.39 196.53 227.68 193.55 226.81 190.41 226.94 189.23 228.5 188.18 234.44 190.03 236.78 188.74 240.22 192.19 241.68 194.83 244.23 195.23 245.63 196.96 245.37 198.34 245.55 202.94 246.66 204.86 247.73 204.82 250.22 207.77 252.37 206.35 254.57 203.95 254.96 201.06 256.08 198.92 257.03 198.86 259.15 203 259.95 205.04 261.25 206.69 261.88 208.77 262.78 209.26 262.89 211.25 264.03 212.74 263.63 215.27 264.59 217.36 265.14 216.98 267.16 219.73 269.23 220.15 269.7 221.36 271 221.25 272.75 222.37 271.11 223.23 272.73 223.92 273.31 225.13 274.85 225.43 276.31 227.49 276.23 230.8 276.54 231.41 273.71 233.86 270.31 234.43 268.86 236.26 266.81 238.08 264.14 238.26 260.98 237.91 256.21 238.01 255.33 237.86 252.6 238.24 251.62 238.99 250.67 241.19 248.65 241.71 247.2 242.96 245.34 245.4 245.05 246.29 243.27 248.56 243.67 248.89 247.09 244.82 250.24 242.86 253.29 241.66 254.75 241.48 256.29 241.73 257.56 242.64 257.56 243.89 255.33 245.66 253.85 245.11 254.43 246.72 255.41 246.34 256.58 246.63 256.1 247.8 255.2 248.68 256.13 249.37 256.93 251.46 259.71 253.01 261.49 253.43 262.68 252.64 263.69 253.22 264.16 254.65 261.43 255.88 258.68 257 257.51 256.79 257.3 257.56 256.21 258.91 254.27 259.85 253.43 259.07 253.48 257.36 254.46 256.13 257.14 254.58 256.13 253.41 253.96 254.69 251.76 255.18 250.67 256.34 249.48 257.09 248.65 256.93 246.9 258.19 245.29 259.09 244.44 259.22 243.01 262.08 242.5 263.58 243.19 263.88 243.93 265.66 243.38 265.94 241.68 265.66 241.47 266.39 238.53 266.74 236.88 267.47 235.48 268.66 236.06 269.49 235.58 271.22 235.03 272.2 233.97 272.89 232.88 273.04 233.67 274.72 232.3 276.28 231.08 275.13 231.16 273.72 230.39 273.6 230.41 274.63 230.94 276.44 230.94 277.95 231.76 279.89 230.47 281.62 232.03 281.98 232.03 282.65 231.16 283.47 230.39 283.68 229.88 284.57 227.66 286.34 227.07 287.35 225.83 287.45 225.06 288.01 224.26 289.41 222.62 290.77 222.17 290.89 220.79 292.09 220.02 293.17 220.07 293.61 219.3 295.33 219.89 298.1 220.68 299.99 221.5 301.43 221.21 302.18 222.17 304.62 222.57 306.22 222.38 308.03 221.85 309.27 221.03 309.7 220.23 309.29 219.65 308.03 218.85 307.66 218.54 306.54 217.26 304.99 216.76 303.35 216.36 303.02 216.76 301.43 216.79 300.4 215.38 298.97 214.48 297.76 213.71 297.3 212.94 297.8 210.87 298.4 210.79 297.89 208.81 296.31 205.41 296.83 202.92 296.51 201.41 297.15 200 296.61 199.58 297.2 201.41 297.78 200.27 299.66 199.66 299.36 198.84 299.79 197.64 299.38 197.54 298.82 196.29 297.99 195.5 298.71 193.45 298.14 192.31 298.15 189.66 299.18 188.81 300.21 187.52 301.02 186.22 301.15 185.95 301.72 184.63 302.27 184.6 302.95 183.75 305.22 184.1 306.63 184.68 307.55 184.49 308.64 183.86 310.04 183.51 311.57 183.09 315.83 183.57 318.27 184.71 320.62 186.19 322.39 186.56 323.63 187.6 325.01 189.03 325.13 189.88 325.58 190.43 326.36 191.23 326.31 192.63 325.76 194.12 325.68 194.49 325.34 196.13 325.1 196.5 325.68 197.67 325.3 197.51 324.67 198.86 323.61 198.97 322.72 199.37 322.29 199.42 320.76 199.71 319.69 200.9 319.07 202.97 318.72 204.64 318.25 207.53 318.7 207.45 319.98 206.13 321.84 206.21 323.06 205.46 325.73 204.72 326.49 204.32 327.68 204.24 329.95 203.4 330.84 202.95 331.66 204.64 332.1 205.78 331.61 207.35 331.95 208.57 331.91 209.84 331.39 210.5 331.64 211.64 331.43 213.23 331.81 214.32 333.2 215.19 333.15 215.67 333.72 215.35 334.29 215.59 335.22 215.12 336.01 214.77 337.55 214.88 339.61 214.32 340.7 214.58 341.36 214.08 342.13 215.04 344.02 216.52 345.81 217.42 346.35 217.69 347.23 219.68 347.81 220.82 347.56 222.38 346.84 223.6 345.97 225.99 346.4 226.91 346.78 228.48 348.08 Z M 37.64 220.8 37.88 221.75 36.31 222.17 35.44 222.92 34.51 222.23 35.28 221.19 36.77 220.57 37.64 220.8 Z M 109.67 218.82 109.44 219.7 107.82 219.87 108.24 217.47 109.01 216.98 109.67 218.82 Z M 104.37 212.77 105.27 213.27 104.72 214.95 103.84 214.95 103.26 212.5 104.37 212.77 Z M 100.82 211.37 101.59 213.95 99.02 211.49 99.97 210.62 100.82 211.37 Z M 101.46 207.98 103.1 210.41 103.13 211.43 102.01 212.56 101.51 210.17 101.46 207.98 Z M 99.12 207.64 100.74 208.47 100.55 210.71 98.35 210.02 97.4 208.26 99.12 207.64 Z M 103.92 215.47 104.74 215.53 107.45 219.92 107.45 221.47 105.67 220.55 104.19 217.62 104.64 217.13 103.92 215.47 Z M 30.67 224.91 31.04 225.87 29.53 226.33 29.87 224.69 30.67 224.91 Z M 55.14 324.4 54.48 324.26 54.1 322.67 54.61 322.05 54.58 321.43 55.99 322.09 56.86 323.2 55.14 324.4 Z M 50.21 318.63 49.52 318.96 49.17 318.32 49.86 318.04 50.21 318.63 Z M 239.27 267.55 237.76 268.54 236.91 267.77 239.27 267.55 Z M 264.75 344.76 263.47 344.93 263.77 343.86 264.72 343.56 264.75 344.76 Z M 228.74 325.69 230.76 326.41 230.36 327.09 229.64 326.83 228.5 327.16 227.6 327.05 226.62 325.73 227.39 325.56 228.74 325.69 Z M 240.91 326.68 240.28 326.24 238.45 326.41 237.33 326.19 236.22 326.66 235.03 325.97 235.45 325.22 236.88 325.54 238.66 325.76 239.64 325.2 238.61 324.26 238.84 323.39 238.07 323 237.92 322.31 238.98 322.31 240.78 322.79 241.39 322.33 242.71 322.27 244.54 322.94 245.42 323.73 246.35 323.95 247.75 324.65 248.47 325.51 247.8 326.26 247.2 325.81 245.34 325.73 244.44 326.19 243.4 325.98 242.56 326.14 241.73 327.6 240.91 326.68 Z M 333.6 1.72 342.48 7.08 345.77 14.59 352.29 19.58 344.26 29.34 352.69 28.29 353.11 34.13 361.81 38.2 365.52 31.98 372.97 34.91 374.46 38.31 367.85 47.7 362.84 50.29 362.6 55.32 356.93 54.56 355.37 60.34 357.25 61.89 357.73 68.3 353.54 75.15 353.75 82.12 355.15 87.71 359.34 89.32 358.97 93.63 353.59 92.57 351.5 95.59 352.18 98.21 355.45 98.89 356.74 103.15 356.93 107.8 354.6 107.1 357.38 114.16 357.06 115.78 353.17 117.21 354.86 119.31 354.54 122.13 350.83 123.82 351.15 126.49 350.59 132.4 346.64 129.64 345.32 130.07 351.2 135.47 351.79 136.95 352.29 143.45 348.29 143.94 347.25 143.26 345.95 139.27 343.12 136.6 342.93 139.02 340.78 140.61 338.61 140.32 336.73 143.79 338.19 143.79 338.58 140.96 340.2 141.21 342.77 139.97 343.62 140.81 343.7 142.58 338.77 143.79 340.7 143.79 348.63 146.14 348.82 147.65 341.61 155.05 335.16 157.52 333.79 157.43 331.32 158.91 328.77 156.99 328.46 159.73 326.49 161.48 324.4 166.64 323.23 168.27 319.36 171.54 316.31 172.83 311.41 173.03 312.26 174.2 309.87 176.42 310.93 178.69 309.61 180 310.11 182.54 306.56 188.18 306.19 190.17 306.66 191.58 305.97 193.08 305.31 196.63 304.33 198.56 303.98 200.38 302.31 200.38 299.4 199.15 298.95 197.75 297.94 197.29 298.02 195.1 296.08 196.39 294.04 196.33 291.55 194.29 290.76 192.84 290.15 189.79 288.45 188.64 288.42 186.95 285.9 182.94 285.96 181.62 284.52 179.03 284.15 175.16 281.1 168.35 282.43 166.07 280.55 164.29 281.58 161.77 281.24 160.24 282.43 155.63 286.41 154.83 288.05 147.32 284.18 146.52 280.26 144.13 279.94 141.5 283.84 142.38 285.8 144.03 286.67 140.47 282.24 138.12 281.45 135.83 278.77 137.71 276.76 136.44 277.39 132.46 276.76 129.96 278.67 126.87 276.6 125.83 277.42 123.88 275.64 121.62 276.01 118.91 274.29 116.32 274.08 112.59 270.1 106.46 270.29 103.74 264.38 99.49 259.36 97.8 251.86 101.24 248.95 100.3 246.21 97.86 246.48 94.47 243.09 92.71 242.93 89.69 247.09 89.47 248.97 87.63 252.68 87.49 252.18 84.57 246.27 86.74 238.58 79.08 239.53 75.72 247.06 71.69 250.4 68.65 253.77 68.48 256.37 57.86 251.83 56.92 251.49 52.44 260.37 41.41 263.82 42.57 264.32 33.34 269.84 27.94 278.69 23.64 283.01 24.13 287.18 31.07 289.85 29.81 291.68 22.79 299.61 32.1 301.94 23.4 296.99 13.28 304.25 7.63 326.89 1 333.6 1.72 Z M 283.12 147.27 284.63 148.17 284.47 150.16 281.24 151.63 280.79 150.07 278.51 149.28 278.45 145.85 279.49 144.85 281.69 145.47 283.12 147.27 Z M 360.11 106.27 361.01 109.87 358.6 109.75 358.2 107.03 360.11 106.27 Z M 218.59 314.53 220.05 314.79 221.21 314.69 223.39 315.55 224.26 316.35 225.59 316.46 227.39 317.57 228.21 317.64 230.09 319.03 232.14 319.45 232.32 320.35 234.02 320.54 235.4 321.9 233.49 322.31 231.18 322.1 227.74 322.41 228.85 321.36 228.8 320.55 227.1 320.38 226.01 319.59 225.69 318.49 224.26 318.37 222.14 317.64 221.56 317.17 220.52 317.21 218.64 316.86 218.46 315.7 216.6 315.67 215.17 316.79 213.07 317.15 212.99 316.42 213.71 315.74 215.43 315 218 314.48 218.59 314.53 Z M 217 318.35 216.33 318.65 215.83 317.83 216.65 317.59 217 318.35 Z M 105.94 224.06 108.06 224.61 107.37 227.3 105.75 227.11 105.06 225.38 105.94 224.06 Z M 107.95 227.55 108 229.16 107.02 229.08 106.63 227.76 107.95 227.55 Z M 118.05 236.74 121.84 237.86 123.7 240.91 125.13 241.61 126.25 243.79 126.03 244.62 123.59 243.72 121.08 242.08 121.08 241.43 119.48 240.96 119.19 239.39 118.24 239.37 115.67 236.84 116.44 235.97 118.05 236.74 Z M 156.58 74.01 157.53 77.57 149.18 76.77 155.25 72.86 156.58 74.01 Z M 155.14 80.1 156.68 81.66 155.73 86.15 151.83 88 149.15 86.07 149.05 82.2 155.14 80.1 Z M 143.85 87.78 142.39 95.17 135.39 98.89 134.2 102.23 129.77 100.64 127.86 98.82 130.43 96.84 136.03 88.37 143.85 87.78 Z M 159.94 100.44 162.51 102.03 164.16 100.37 166.17 103.22 165.35 108.11 162.49 110.43 158.75 109.25 154.08 112.83 150.58 114.71 148.38 114.59 146.29 109.06 143.48 110.06 139.32 107.42 141.52 100.23 143.8 96.84 146.87 96.7 150.19 99.09 153.84 104.98 158.19 105.37 156.63 102.17 157.29 99.56 155.57 97.04 159.2 95.45 159.94 100.44 Z M 146.16 128.94 148.41 128.18 150.05 125.99 153.34 128.07 155.7 128.45 156.15 125.99 159.04 129.64 160.13 135.06 162.14 134.02 161.27 132.19 160.08 125.11 161.22 123.37 163.97 124.38 166.33 127.47 166.73 130.28 168.69 137.26 168.21 139.57 171.45 143.55 175.8 145.95 176.25 148.73 173.49 147.88 172.54 149.79 173.94 150.71 174.21 153.08 170.65 154.43 167.21 152.72 164.71 152.22 163.57 150.48 161.85 153.22 158.51 154.69 153.26 156.03 149.23 156.33 148.14 154.25 147.99 152.04 144.72 151.58 141.73 150.58 140.43 148.17 140.35 146.23 146 144.85 150.32 145.42 151.49 143.98 147.83 142.33 142.89 143.07 139.34 142.77 137.86 141.01 138.84 139.17 136.51 135.52 136.35 133.4 137.96 131.35 137.59 129.37 141.6 125.49 145.89 123.03 147.19 125.33 146.16 128.94 Z M 134.6 117.15 138.52 115.9 140.22 116.68 143.96 121.1 144.09 122.53 136.29 128.29 135.31 130.66 133.59 131.72 132.63 136.75 126.88 139.42 125.11 135.57 121.23 132.3 122.96 128.99 123.28 125.33 125.58 119.95 123.59 115.25 131.1 113.74 134.6 117.15 Z M 245.98 12.09 256.42 14.59 263.92 22.18 262.17 28.76 256.87 33.57 254.83 40.35 244.52 52.73 241.76 60.89 233.17 65.09 230.97 70.01 235 73.19 231.82 81.04 227.07 81.74 226.94 86.22 224.13 89.83 226.46 91.64 226.46 95.59 221.13 99.29 220.07 96.15 214.05 96.7 211.27 98.14 201.46 96.35 201.62 93.13 204.06 90.41 207.43 89.47 204.72 84.11 207.11 82.35 205.92 79.32 207.59 72.61 213.1 70.35 211.38 62.69 208.43 59.8 208.7 53.7 214.43 54.94 222.57 50.98 215.12 48.4 210.9 50.98 202.89 47.2 200.61 41.94 202.76 36.56 199.42 31.3 208.09 26.41 211.8 22.06 217.95 19.45 222.91 13.55 228.27 14.46 232.11 11.56 244.89 10.22 245.98 12.09 Z M 188.34 83.35 193.19 83.89 192.69 86.67 187.22 86.6 188.34 83.35 Z M 192.66 109.56 192.63 112.4 190.09 112.83 186.61 110.49 185.95 108.93 187.94 105.17 190.7 104.59 192.66 109.56 Z M 178.34 118.5 180.2 120.24 183.7 118.97 184.97 120.76 183.22 123.71 184.86 128.62 185.85 134.44 181.29 138.17 180.17 137.71 177.02 132.19 174.52 130.98 172.32 127.53 174.07 125.44 175.35 127.8 177.26 127.58 177.71 124.99 175.11 122.58 176.3 119.66 178.34 118.5 Z M 211.77 174.62 215.12 175.43 218.11 177.82 218.85 181.03 220.84 180.66 222.01 182.32 220.34 183.84 217.4 182.61 217.21 181.51 214.93 180.63 214.4 182.06 212.38 184.6 210.48 185.42 210 182.86 206.74 182.79 208.81 180.44 208.54 178.24 209.44 172.25 211.06 171.74 211.77 174.62 Z M 183.43 96.56 184.07 104.98 183.22 108.81 177.81 109.75 176.75 106.27 172.7 105.3 175.16 100.97 173.6 98.27 177.47 95.17 183.43 96.56 Z M 170.73 66.32 179.19 74.83 180.17 82.66 177.04 82.35 175.96 79.08 172.27 77.17 168.74 78.29 170.55 72.69 166.07 69.67 166.39 66.23 170.73 66.32 Z M 196.32 42.57 199.08 50.09 205.65 53.02 206.84 62.16 210.48 63.77 210.95 67.62 207.11 71.19 203.18 79.08 199.13 79.55 194.57 76.93 189.19 66.66 188.76 62.25 185.47 56.17 188.05 52.73 186.91 48.7 188.81 44.44 196.32 42.57 Z M 190.99 92.28 194.49 95.31 197.62 94.54 198.6 96.84 202.1 98.14 199.95 100.44 204.48 105.3 206.58 104.4 209.2 105.43 213.95 102.56 217.9 102.5 223.41 105.88 223.76 110.8 222.06 113.32 218.67 114.23 214.85 113.32 212.86 113.92 204.01 114.04 200.85 113.62 196.16 111.54 195.12 106.78 195.65 102.3 193.64 97.66 188.81 98.48 185.79 94.33 187.99 90.77 190.99 92.28 Z M 186.75 75.4 189.66 77.41 189.21 81.27 185 83.2 182.21 76.53 182.29 72.28 186.75 75.4 Z M 193.48 116.79 195.58 118.32 199.71 119.14 195.81 127.75 193.08 127.36 191.55 133.08 189 133.08 188.2 127.53 188.02 120.53 189.32 117.91 193.48 116.79 Z M 184.02 149.19 186.53 151.08 187.89 154.87 186.32 156.47 183.94 156.03 179.99 154.07 179.3 153.04 181.76 151.13 181.55 149.84 184.02 149.19 Z M 264.56 252.41 265.22 253.06 265.97 252.39 265.89 251.57 267.29 251.71 266.15 253.31 264.16 253.59 263.69 252.41 265.06 249.67 266.26 249.77 265.73 251.67 264.56 252.41 Z M 277.07 233.58 276.15 235.79 274.32 238.76 276.39 239.09 276.09 240.42 278.03 241.34 279.01 240.71 280.39 240.89 281.24 241.9 280.63 243.01 281.34 244.96 280.97 245.98 282.62 245.61 282.14 246.87 283.28 247.2 282.35 250.05 281.16 250.05 281.24 249.15 279.91 249.39 280.6 247.75 280.34 246.53 279.33 247.49 278.4 247.75 277.39 249.32 276.33 249.44 277.66 247.54 275.38 246.82 273.76 247.13 270.69 246.79 268.96 247.13 268.41 246.17 269.86 244.65 269.84 243.72 271.4 240.54 272.99 236.54 274.21 234.51 275.8 233.47 277.07 233.58 Z M 208.06 140.17 210.16 139.22 212.04 139.62 212.33 136.19 209.57 133.35 210.82 130.23 210.16 127.58 211.54 123.32 216.76 120.24 219.54 120.99 222.06 127.8 220.58 131.77 224.87 131.29 227.1 128.24 229.56 128.02 233.33 130.12 235.26 134.39 241.6 137.05 243.59 142.04 246.66 141.85 250.67 146.66 248.12 149.61 251.99 151.13 249.82 152.99 249.18 155.98 251.41 157.34 253.21 159.51 256.95 160.37 258.12 163.08 262.63 164.95 264.11 167.05 262.57 170.43 261.11 172.6 259.55 173.11 259.47 175.35 256.66 175.08 255.02 171.93 255.23 170.59 252.63 169.11 251.07 170.47 248.71 170.99 250.8 173.42 251.78 175.51 255.31 177.9 255.89 181.11 256.63 180.99 257 184.81 255.76 184.81 255.33 187.48 253.74 186.1 249.98 185.64 253.08 189.48 253.13 191.55 250.51 190.2 246.88 188.99 245.84 187.34 244.31 187.27 242.05 185.89 237.2 178.99 234.84 177.71 233.59 178.8 229.94 179.92 227.58 179.25 226.7 177.98 226.89 176.31 228.32 175.12 228.58 173.57 231.92 174.77 236.93 173.11 235 169.87 237.57 166.93 239.9 163.62 237.47 157.69 234.52 155.05 233.94 153.35 230.65 155.14 232 151.26 229.03 149.14 225.3 145.76 223.52 147.6 220.23 146.33 217.93 147.93 215.8 146.9 214.11 147.13 208.65 145.95 207.98 144.27 205.15 145.28 203.05 143.45 201.91 139.82 205.28 140.61 205.23 138.82 202.55 138.27 200.85 136.85 200.45 133.66 202.12 125.38 205.54 120.3 207.67 119.43 211.64 120.53 209.18 123.88 207.98 126.87 209.28 134.9 211.54 137.81 208.06 140.17 Z M 263 242.05 262.07 242.1 259.1 241.01 257.85 239.17 260.66 239.97 262.97 241.41 263 242.05 Z M 258.54 250.73 260.05 250.87 262.2 250.66 260.61 252.22 258.94 251.48 258.54 250.73 Z M 218.24 186.31 217.98 187.8 215.99 189.93 214.48 190.13 214.03 188.64 215.19 186.56 218.24 186.31 Z M 223.68 188.95 224.16 190.79 223.31 192.74 222.06 191.58 222.14 190.17 223.68 188.95 Z M 232.24 157.34 233.41 157.91 233.46 161.99 232.03 163.46 229.3 163.54 228.64 161.01 229.88 157.91 232.24 157.34 Z M 223.71 120.81 226.46 120.76 228.85 122.07 230.89 125.27 230.65 127.26 227.47 126.65 223.78 127.75 222.27 124.16 220.84 122.98 220.79 120.3 223.71 120.81 Z M 221.05 229.21 218.59 228.43 218.56 227.57 220.15 227.52 221.05 229.21 Z M 225.03 215.77 224.5 217.27 222.67 217.07 223.57 215.85 225.03 215.77 Z M 166.6 126.49 162.99 122.18 166.12 119.95 168.03 121.16 168.19 123.2 166.6 126.49 Z M 173.38 100.77 171 103.09 168.69 99.22 172.62 98.34 173.38 100.77 Z M 227.66 310.78 227.66 311.39 226.99 311.81 226.44 310.68 227.02 309.73 227.66 310.78 Z" fill-rule="evenodd" id="NA" data-name="North America"/>
<path d="M 477.38 298.9 475.81 294.16 476.87 292.66 478.15 288.73 479.02 286.44 479.76 285.63 479.68 283.82 479.29 282.87 479.71 281.7 479.39 280.84 480.21 279.89 479.9 279.19 478.78 280.05 476.69 279.53 474.7 281.2 472.68 281.6 471.78 281.2 470.99 280.21 469.5 279.49 467.94 279.31 467.57 280.84 465.82 281.26 464.6 280.6 464.36 279.79 463.14 279.49 462.37 278.86 460.62 278.88 460.01 277.02 460.36 276.2 459.14 275.58 459.53 275.09 459.32 274.14 459.88 273.64 459.14 272.48 459.45 271.7 457.89 271.97 458.02 270.46 459.27 269.28 460.49 269.11 460.91 269.51 462.72 269.26 465.1 268.09 464.39 267.49 465 266.85 469.29 267.21 469.74 266.59 471.62 265.36 473.98 264.51 477.03 264.69 477.59 264.38 478.25 265.38 479.92 265.51 480.93 266.74 485.07 267.75 487.4 267.21 489.25 267.64 491.8 266.27 492.57 264.64 491.96 262.59 490.53 261.36 489.68 261.11 488.64 260.23 490.1 259.94 492.17 260.89 494.03 260.87 497.05 262.33 497.45 262.85 499.46 262.28 501.37 263.14 501.16 263.95 503.2 265.12 503.62 265.12 504.76 266.59 506.09 266.89 507.68 265.03 508.85 266.63 509.11 267.45 510.33 268.75 511.52 269.24 509.83 269.87 509.32 271.58 509.43 272.31 508.64 272.93 508.29 273.83 508.53 276.44 509.67 277.55 511.13 277.81 512 278.9 513.3 279.65 515.69 279.99 519.74 279.07 519.32 276.34 519.4 273.45 518.84 272.68 517.76 272.08 518.52 271.39 518.39 270.55 517.46 270.48 516.88 269.28 517.81 268.04 518.84 268.04 519.4 268.56 521.28 267.83 521.02 266.95 519.9 265.99 519.37 264.3 517.83 264.27 516.62 265.96 516.3 264.25 516.59 262.28 514.92 261.82 513.73 260.09 512.66 257.9 511.58 257.49 511.74 256.56 512.74 256.54 513.96 254.26 516.46 254.14 516.99 253.59 517.78 251.62 517.86 250.07 517.3 249.15 515.69 249.53 513.43 248.65 511.76 249.39 510.84 250.19 509.38 250.57 509.14 251.15 507.76 250.4 508.53 249.74 506.65 246.55 504.39 245.9 504.18 244.77 503.44 244.35 503.52 243.04 504.21 242.05 503.76 241.14 504.15 239.47 504.9 238.01 505.75 237.65 507.36 239.54 508.26 238.92 508.18 236.87 509.72 235.18 511.39 234.46 512.59 232.9 514.39 233.76 516.01 233.06 516.54 233.76 518.23 233.76 519.8 235.08 520.65 236.26 521.31 235.49 523.11 236.87 523.69 236.87 525.23 235.41 526.37 235.26 527.33 235.87 528.2 235.15 529.37 235.26 530.53 236.56 532.58 236.94 532.89 236.18 534.41 236.66 536.08 235.97 536.53 234.66 536.02 233.91 534.03 233.16 532.81 231.57 532.52 230.14 530.4 230.35 530.59 225.07 531.54 223.84 532.55 223.64 532.15 221.25 531.28 222.23 528.49 223.06 526.72 221.42 526.66 220.38 527.49 219.44 528.63 219.67 529.95 220.91 531.14 219.44 531.38 216.64 528.12 216.2 527.06 215.33 527.59 213.24 528.63 212.38 528.55 210.83 530.4 209.81 530.06 208.22 531.81 206.6 530.96 205.42 531.17 203.79 529.45 202.01 531.2 198.82 531.81 196.43 531.36 194.53 531.54 191.58 532.2 188.46 531.41 186.24 532.07 181.44 532.63 180.74 531.86 178.61 533.32 175.66 534.51 176.46 537.16 172.25 539.28 171.34 540.32 168.43 544.35 165.62 544.51 164.25 546.55 162.28 544.69 158 545.54 155.94 544.77 154.43 543.1 154.02 544.16 151.54 548.51 154.02 550.13 156.2 551.85 157.21 553.26 153.53 551.93 153.44 550.74 150.21 548.67 148.87 548.35 146.8 549.15 142.04 547.77 140.91 548.32 138.32 551.32 135.52 553.04 128.4 554.37 126.65 558.51 126.54 561.39 128.24 561 132.72 559.41 136.49 561.21 141.45 560.79 145.76 560.76 152.72 563.04 155.85 562.16 160.07 560.92 161.69 558.61 166.44 557.26 167.62 554.9 165.94 553.39 167.46 555.91 168.75 559.41 169.27 560.52 167.54 563.57 165.12 564.21 162.7 565.74 160.67 564.89 156.77 565.32 154.78 569.48 153.35 571.2 156.47 572.13 153.84 568.47 151.77 565.85 152.67 563.54 151.99 563.07 148.77 564.74 142.58 562 137.21 563.3 134.39 567.89 131.13 566.8 134.59 566.99 137.92 568.71 138.77 571.76 138.12 569.16 136.14 568.53 133.92 573.96 130.39 576.06 130.5 579.03 132.61 580.7 135.06 583.96 135.06 582.18 131.56 579.16 129.69 578.47 125.22 578.63 121.5 585.2 120.76 591.94 118.91 592.07 112.46 594.35 108.68 599.92 104.59 607.37 102.23 609.65 99.56 614.74 101.57 618.69 98.68 619.01 96.42 622.37 96.49 624.1 94.33 623.86 91.49 628.6 85.1 630.57 84.04 634.73 86.52 632.55 89.69 634.33 91.42 638.15 92.14 639.47 94.19 646.31 94.12 649.63 97.39 652.41 102.23 651.86 107.23 647.98 111.97 643.48 115.49 639.85 120.53 637.78 121.1 636.03 124.83 638.84 124.55 643.5 122.24 644.41 117.97 648.59 120.41 652.84 121.39 655.67 120.47 662.57 121.33 662.51 123.99 665.46 126.05 673.01 126.21 674.02 124.44 673.33 121.79 675.72 120.07 678.45 121.9 683.17 122.18 685.71 124.44 686.85 130.98 684.52 132.61 687.65 139.42 690.72 141.99 691.62 140.91 693.85 134.02 695.76 136.85 697.27 137.66 701.22 135.88 704.38 137.76 706.15 136.34 709.65 135.42 709.44 129.64 714.9 128.02 722.48 129.32 724.95 131.08 728.95 131.03 731.39 132.09 733.83 136.65 736.01 138.27 738.07 141.4 740.91 141.06 745.58 139.62 750.32 139.97 753.24 141.7 754.67 144.9 754.3 148.31 758.06 150.85 759.92 149.14 763.9 148.73 764.67 149.42 769.78 150.12 771.59 148.59 773.07 151.54 775.3 152.72 775.96 154.56 778.03 154.29 779.04 152.94 778.13 149.56 777.92 146.19 782.51 147.09 784.1 148.02 790.38 147.79 792.19 149.19 796.45 150.81 799 153.35 799 175.62 795.71 178.05 793.38 177.37 793.3 178.88 796 181.33 796.14 183.55 797.52 185.17 798.05 187.62 797.04 189.37 793.14 188.11 788.5 190.41 786.83 191.75 784.87 192.23 783.17 193.38 782.14 195.26 778.19 198.11 776.78 199.77 775.11 197.38 772.7 197.48 770.1 198.69 768.75 197.88 765.94 199.6 763.05 199.86 762.23 200.8 761.91 203.13 759.42 206.78 759.02 208.35 760.13 209.65 761.8 209.99 760.82 211.34 760.88 213.57 761.88 214.07 762.07 215.88 761.43 216.64 760.27 215.77 759.28 216.46 758.49 219.33 759.34 221.67 758.49 222.53 756.37 222.48 754.83 223.84 754.33 225.35 754.43 226.87 751.6 228.73 751.25 230.8 750.46 232.59 747.46 235.59 746.9 233.78 746.61 230.06 746.03 228.25 744.97 221.25 744.81 219.39 745.76 214.04 747.41 212.18 747.96 210.89 747.57 209.71 749.02 209.5 750.69 208.56 752.52 206.87 754.33 203.88 756.55 201.7 758.54 199.38 759.1 198.17 761.25 196.56 762.89 195.93 763.55 193.99 764.11 187.59 762.04 188.29 761.33 191.89 759.97 192.5 756.37 196.69 754.41 194.23 755.36 191.89 753.66 192.23 752.63 191.27 750.38 192.06 749.05 191.85 747.3 193.35 747.19 194.29 745.47 196.56 743.51 198.37 742.02 200.8 742.66 202.08 743.96 202.87 741.39 204.1 739.96 203.5 738.9 204.7 735.45 204.95 736.91 203.73 735.79 202.14 733.51 201.85 731.71 201.09 730.73 202.3 727.79 202.75 726.99 203.25 724.61 202.56 723.49 203.57 722.64 202.65 717.42 202.81 714.82 204.42 714.21 205.51 711.85 207.77 711.32 209.44 710.34 209.96 707.37 212.95 705.23 216.26 701.86 219.36 699.84 220.94 699.82 221.75 701.14 222.34 703.24 222.17 702.97 224.8 704.03 225.21 704.4 226.27 706.55 226.08 707.37 225.51 707.45 223.34 708.83 223.81 709.68 223.51 711.11 225.24 713.44 227.6 712.91 230.59 713.63 231.28 711.85 234.66 711.38 237.07 711.48 240.34 710.71 243.99 708.94 246.1 708.12 247.75 707.21 248.82 706.66 250.47 705.2 252.8 703.24 254.85 701.78 257 701.2 257.33 700.32 259 699.55 259.96 696.4 262.06 695.18 262.48 693.27 261.91 692 260.94 690.72 262.68 690.01 262.99 688.31 264.43 687.62 265.42 687.51 267.94 684.41 270.34 682.77 271.07 682.4 272.73 683.25 273.08 684.57 274.39 685.1 275.64 686.69 278.18 687.01 279.65 686.85 281.56 687.2 281.84 686.43 283.92 684.86 284.14 684.7 284.77 683.11 284.53 682.37 285.12 680.44 286.16 679.93 284 680.89 282.34 680.52 280.38 679.77 279.29 681.23 279.01 680.57 276.71 679.16 276.5 678.08 276.89 677.52 276.03 676.41 275.79 677.23 274.57 678 272.5 677.89 271.81 675.45 270.65 673.41 271.12 671.18 272.27 669.65 273.7 669.96 272.16 669.35 271.47 671.05 268.85 670.12 267.98 668.61 267.81 667.07 269.77 665.09 270.72 664.29 272.14 663.6 272.83 662.22 273.12 661.08 272.93 660.58 274.39 661.61 275.62 663.65 276.03 663.97 276.97 663.68 278.01 664.79 278.6 666.81 276.97 667.66 276.61 669.65 277.65 671.77 277.75 671.58 279.09 670.28 279.05 668.19 280.05 666.86 281.56 666.12 282.08 664.26 284.4 665.09 285.56 666.44 286.24 667.13 288.07 667.92 289.73 667.9 290.66 669.12 291.42 669.01 292.78 668.35 293.14 669.67 294.18 670.18 295.22 668.21 296.14 668.56 296.79 670.31 297.84 669.8 299.47 669.54 301.72 668.43 301.9 666.62 304.89 665.22 307.82 664.98 308.63 663.84 309.52 663.57 310.25 662.81 311.1 661.77 310.98 661.69 311.92 660.74 312.91 660.39 312.89 658.32 314.49 658.17 315.06 656.02 315.6 655.36 315.37 654.59 315.84 654.14 315.51 653.29 316.61 652.47 316.3 651.7 316.79 650.5 317.05 649.58 317.87 648.14 317.69 647.38 318.39 645.55 318.79 644.27 319.62 644.22 320.05 644.96 320.85 644.11 321.45 643.08 319.91 643.69 318.56 642.81 318.42 641.94 318.7 641.67 318.22 640.11 318.06 638.1 319.03 637.96 319.59 636.45 319.81 636.64 320.35 636.11 321.4 634.94 322.22 634.12 324.52 634.73 325.59 636.08 326.9 636.03 327.43 637.59 329.34 639.47 330.64 640.91 332.6 641.22 332.84 641.81 334.36 642.28 336.32 642.23 337.64 642.55 338.38 642.1 339.08 642.05 341.18 641.22 342.1 640 342.95 637.75 344.17 636.77 344.09 636.72 344.81 636.24 345.88 633.85 347.1 633.46 347.76 632.5 348.25 632.34 347.76 632.4 345.96 632.82 344.91 632 344.68 631.12 343.84 629.51 343.71 629.93 343.05 629.51 342.48 628.66 343 628.6 341.77 627.78 340.52 625.48 338.98 624.87 339.14 623.59 338.93 623.81 337.29 623.12 337.09 621.71 337.47 621.87 338.17 621.58 338.98 621.63 340.17 620.84 341.77 620.52 343.05 619.83 344.35 619.8 345.66 620.33 346.83 621.05 346.61 621.45 347.05 621.58 348.05 622.29 348.95 622.67 350.81 622.96 351.39 623.91 352.09 625 352.09 625.66 352.97 626.85 353.64 627.28 354.34 628.29 355.08 629.24 356.59 629.35 357.6 629.11 358.99 629.32 359.54 629.29 360.85 630.12 361.62 631.18 364.06 629.85 364.13 627.7 363.24 624.55 360.94 624.55 360.14 623.25 358.55 623.04 357.03 622.45 354.94 622.43 354.06 621.92 353.04 621 352.06 621.05 351.56 619.56 349.81 618.53 348.79 617.76 348.61 617.76 347.84 618.48 345.43 618.26 343.55 618.74 342.84 618.87 341.47 618.64 341.14 618.77 340.04 618.5 337.9 617.79 336.61 616.81 334.02 616.59 331.7 616.3 331.36 616.38 330.16 615.85 330.2 615.4 328.95 614.95 328.36 614.61 329.61 614.18 330.1 612.27 331.02 611.45 332.05 610.44 331.83 609.67 330.74 608.85 331.11 609.67 327.77 609.33 326.31 608.53 324.69 607.71 324.36 608.38 323.39 606.94 321.95 606.15 321.9 605.27 320.97 604.05 319.29 603.95 318.08 603.26 316.12 602.78 315.42 601.59 315.9 600.9 314.71 600.47 315.53 600.82 316.72 599.86 317.76 599.1 317.36 597.4 318.16 595.62 318.23 594.96 317.75 594.35 318.16 593.08 318.53 592.55 319.15 592.79 320.43 592.31 321.35 591.25 322.27 589.68 322.81 587.91 324.14 586.42 326.09 585.44 326.61 584.43 327.68 582.55 328.87 582.34 330.11 581.23 330.65 580.09 330.8 579.5 331.96 578.76 331.64 577.99 332.08 577.46 333.54 577.7 334.67 577.59 335.51 578.1 337.45 577.83 338.98 577.01 340.57 576.8 341.51 577.01 342.36 576.98 344.33 575.98 344.38 575.1 345.78 575.08 346.71 573.83 347.07 573.33 347.56 573.03 348.69 571.84 349.37 570.62 348.64 569.69 347.53 569.19 346.3 569.24 345.24 568.29 343.3 567.86 342 566.7 340.42 565.74 338.1 565.53 336.76 564.87 334.86 563.91 333.54 563.89 332.8 562.88 331.28 562.56 330.35 562.16 327.65 561.53 325.17 561.39 323.73 561.08 322.48 561.55 320.74 561.39 319.43 560.81 318.06 560.92 316.67 560.33 316.68 559.67 317.75 560.18 318.44 559.65 319.34 557.44 320.33 556.76 320.33 555.46 319.48 552.96 316.86 555.56 315.95 555.72 315 554.42 315.51 553.47 315.3 552.14 314.48 551.66 313.54 550.82 312.87 549.99 312.96 549.2 312.08 548.91 310.68 547.85 310.41 547.85 309.52 547.24 308.66 545.59 309.2 543.58 309.32 543.34 309.63 541.25 309.13 540.74 309.55 538.7 309.45 538.14 309.75 536.13 309.82 534.48 309.38 531.81 308.89 530.88 309.05 530.32 308.71 528.12 308.48 527.09 308.14 526.32 305.38 525.95 304.91 524.91 304.64 523.35 305.2 521.68 306.23 521.12 306.36 520.25 305.89 519.05 305.82 518.5 305.28 516.8 304.33 516.32 303.6 515.34 303.07 514.52 303.04 513.67 302.31 513.2 300.82 512.32 299.75 512.27 299.05 510.81 297.04 509.85 297.5 508.42 296.55 508.45 297.26 507.42 297.73 506.35 297.54 506.33 298.54 506.81 300.17 508.4 303.57 509.51 304.7 510.81 305.57 511.31 306.87 510.92 307.35 512.08 309.86 513.06 307.66 513.62 307.24 514.26 307.85 514.12 308.79 514.36 310.16 513.73 311.69 514.76 311.9 515.05 312.54 516.69 312.13 519.45 312.33 520.59 311.83 521.36 310.54 522.13 309.97 523.08 308.86 524.01 308.12 524.49 307.1 525.1 306.81 524.97 310.04 525.55 311.37 526.85 312.7 529.85 313.37 531.97 315.95 532.6 316.11 532.55 316.81 531.59 318.53 530.56 319.45 529.61 321.12 528.25 321.5 527.94 323.01 528.15 324.4 526.74 324.65 525.58 325.4 525.36 326.37 524.73 326.88 522.98 327.14 522.05 329 519.85 329.09 518.84 329.64 516.56 330.32 516.01 330.72 515.66 331.51 515.74 332.2 514.39 332.94 512 333.62 511.21 334.06 509.4 334.54 508.71 334.96 507.89 335.87 506.38 335.89 505.08 336.77 503.7 337.22 501.21 337.5 499.83 338.7 498.9 338.7 497.37 339.14 496.36 338.65 495.83 337.67 495.94 336.82 495.51 335.97 495.35 334.72 494.69 332.2 494.95 331.33 494.64 329.71 493.95 328.82 493.76 328.09 492.54 327.04 491.4 325.18 491.14 324.24 490.34 322.65 488.86 321.45 487.82 320.86 486.66 318.98 486.42 317.61 486.66 316.39 486.31 315.21 485.25 313.21 484.06 312.06 483.21 311.8 482.41 310.52 482.33 309.36 481.49 308.23 480.35 306.14 478.86 304.06 477.99 302.56 476.74 302.27 477.09 301.37 477.38 298.9 Z M 799 140.32 796.32 141.45 796.53 138.67 799 136.55 799 140.32 Z M 773.2 146.8 775.46 147.65 775.06 149.61 771.93 147.93 773.2 146.8 Z M 1 153.35 3.49 154.74 6.75 157.82 11.31 161.18 13.3 164.5 15 164.25 17.31 165.49 19.19 165.45 22.74 169.55 21.68 172.68 18.26 173.73 18.26 175.74 16.7 177.52 16.48 179.62 14.89 179.29 13.59 177.86 11.21 177.03 10.2 175.93 9.67 173.5 7.52 172.72 4.74 173.42 3.49 170.99 1.61 171.7 2.43 173.26 1 175.62 1 153.35 Z M 1 136.55 4.66 136.6 6.46 138.47 5.83 139.82 2.09 140.76 1 140.32 1 136.55 Z M 558.37 123.26 556.01 125.55 555.16 123.15 558.37 123.26 Z M 620.6 68.56 620.41 71.94 616.25 72.03 609.81 68.56 606.31 64.12 610.47 56.74 608.08 57.76 602.89 53.22 606.73 47.4 606.31 44.54 612.35 40.35 616.94 47.7 615.4 54.75 611.03 56.55 616.33 55.7 621.79 60.71 620.6 68.56 Z M 633.08 72.11 633.46 75.72 629.9 78.37 624.34 79.08 622.29 73.76 625.18 65.88 627.86 65.44 633.08 72.11 Z M 734.02 108.43 731.61 111.73 728.26 111.3 723.97 108.05 726.94 105.95 729.11 107.42 734.02 108.43 Z M 718.51 102.17 721.98 104.66 719.25 109.43 714.74 109.87 708.33 112.71 706.1 111.48 703.69 107.73 704.8 101.77 707.72 99.09 711.43 103.74 713.63 99.7 715.78 101.84 718.51 102.17 Z M 717.74 121.5 717.42 124.21 711.8 122.41 712.73 119.14 714.61 118.79 717.74 121.5 Z M 648.46 113.62 651.35 114.83 650 117.33 647.48 115.84 648.46 113.62 Z M 715.51 223.48 716.92 224 716.81 225.32 717.47 227.17 717.71 229.69 717.32 231.62 718 233.81 718.8 237.98 719.81 241.31 717.21 241.71 716.04 245.49 715.99 246.58 717 248.27 717.61 250.43 716.04 249.98 715.22 251.95 714.4 250.78 714.85 248.56 714.69 247.08 715.17 245.69 714.48 243.23 715.09 240.44 714.93 237.17 715.22 234.69 714.16 232.87 714.03 230.93 714.32 229.9 714.37 227.01 715.94 226.63 716.25 224.66 715.51 223.48 Z M 764.8 203.47 764.9 204.92 763.45 205.51 763 204.35 764.8 203.47 Z M 519.19 339.11 520.11 339.04 519.98 339.72 518.82 339.77 519.19 339.11 Z M 676.91 387.25 677.47 386.6 678.87 386.24 680.67 386.18 681.34 386.75 680.14 387.29 678 388.01 675.82 389.97 674.55 390.42 673.97 389.56 674.23 388.76 674.82 388.22 676.14 387.73 676.91 387.25 Z M 668.24 315.84 667.29 316.47 666.73 316.04 666.17 314.57 666.36 313.21 668.32 310 669.54 309.39 670.28 310.14 669.65 312.2 669.27 313.91 668.88 315 668.24 315.84 Z M 577.3 345.48 577.89 345.52 578.92 346.5 580.38 348.59 580.51 349.29 581.49 351.15 581.46 352.01 580.96 353.07 580.4 353.49 578.95 354.08 577.94 354 577.54 353.69 577.01 352.18 576.88 350.48 577.17 347.55 577.59 346.58 577.3 345.48 Z M 668.45 325.34 670.1 326.09 671.1 325.83 670.76 327.34 670.97 328.09 671.58 328.8 670.73 330.97 669.54 331.56 669.57 332.17 669.09 332.97 669.75 334.31 669.65 334.89 669.99 335.74 670.87 335.66 671.53 335.26 672.32 335.42 673.17 336.57 673.6 336.07 674.26 336.26 673.99 337.07 675.19 338.2 675 339.26 673.33 338.18 673.01 337.27 671.74 336.21 671.34 337.15 669.94 336.14 668.66 336.82 667.87 336.26 667.37 335.57 668.05 334.87 667.98 334.36 666.17 334.06 665.62 330.65 666.36 331.29 666.86 330.89 666.68 330.18 666.91 329.2 666.78 327.61 667.34 325.58 668.45 325.34 Z M 660.05 348.57 660.13 347.95 661.32 346.78 661.82 346.53 663.84 344.27 664.42 343.78 664.37 343.15 664.95 342.92 665.3 343.83 664.21 344.93 663.31 345.25 662.54 346.74 661.53 347.59 660.05 348.57 Z M 671.53 341.42 673.01 341.6 672.69 342.54 672.14 343.2 670.87 343.66 670.36 343.1 670.65 341.36 671.53 341.42 Z M 672.93 347.17 671.69 346.24 671.47 345.16 672.32 344.88 672.24 343.92 672.61 343.07 673.22 342.82 673.91 343.3 673.01 345.37 673.33 346.51 672.93 347.17 Z M 676.14 342.03 676.94 341.97 677.12 343.3 677.65 344.47 677.15 344.99 676.59 344.68 676.62 343.3 675.85 342.99 676.14 342.03 Z M 677.63 339.34 678.26 340.12 678.1 340.65 678.47 342.51 677.6 342.48 677.15 342.03 676.83 341.06 675.72 339.99 675.53 339.26 677.63 339.34 Z M 667.55 337.19 668.66 337.29 669.38 337.98 669.41 339.09 668.74 340.05 668.05 339.39 667.68 338.35 667.13 337.69 667.55 337.19 Z M 679.32 346.6 679.72 346.69 680.01 347.66 680.28 349.93 680.57 350.27 680.6 351.23 679.48 352.39 678.9 351.05 677.97 352.24 678.39 352.99 678.55 354.08 678.1 354.77 676.27 354.03 675.03 353.12 674.84 351.8 675.32 350.91 674.79 350.3 673.75 349.98 673.52 350.87 671.53 350.29 670.81 351.78 670.55 350.97 670.73 349.98 671.18 349.49 672.46 349.21 672.69 348.66 673.62 347.99 675.37 348.95 675.88 348.2 676.49 348.3 676.8 347.38 678.26 346.99 678 345.81 678.24 345.61 679.32 346.6 Z M 673.46 346.3 673.52 345.14 674.23 343.99 674.76 344.35 674.07 345.02 673.46 346.3 Z M 676.19 345.55 675.66 345.89 674.74 345.91 674.47 345.48 675.24 344.76 676.14 345.01 676.19 345.55 Z M 643 362.85 643.8 363.55 644.62 363.53 645.92 363.98 646.39 363.5 646.58 361.95 647.67 361.03 649.89 360.54 650.58 360.23 651.48 359.05 652.52 357.94 652.81 357.16 653.37 357.13 654.9 356.2 656.07 356.14 655.83 355.33 656.68 355.05 657.45 353.74 658.22 352.86 658.8 351.85 659.15 352.55 659.99 352.52 660.79 352.97 660.71 354.16 661.59 353.9 661.82 354.34 662.88 354.94 664.29 355.33 664.08 356.02 663.04 356.33 662.41 356.2 661.98 356.64 662.81 357.35 662.67 357.68 661.59 357.92 661 357.72 660.39 358.31 660.74 359.28 659.73 359.38 660.71 360.56 661.72 362.21 661.27 362.98 661.74 363.58 662.99 364.42 663.76 365.18 662.75 365.55 662.01 365.4 661 365.73 660.5 366.83 660.37 368.07 660.6 369.05 658.35 370.62 658.06 371.9 658.38 372.45 657.87 373.79 657.03 375.33 654.24 376.6 653.9 375.1 652.89 374.63 652.25 375.02 651.64 374.42 650.42 374.42 649.6 374.89 648.89 374.71 647.88 375.18 647.88 374.13 646.87 373.85 646.16 374.13 645.09 373.76 644.35 373.84 643.88 370.44 643.37 369.59 642.63 369.28 641.97 368.44 642.18 367.28 641.49 366.57 641.41 365.58 641.78 364.03 642.44 363.08 643 362.85 Z M 718.8 258.15 720.97 258.69 721.64 259.22 722.19 261.02 720.6 261.71 719.14 261.91 717.92 263.31 717.5 264.56 715.88 263.79 714.43 262.83 713.44 262.92 712.52 263.53 711.91 262.9 711.03 263.55 712.89 265.14 711.8 265.12 711.19 265.99 710.32 265.81 710.58 264.82 709.94 263.4 710.1 262.61 712.07 260.89 713.21 260.96 713.44 259.6 713.97 258.44 714.29 256.27 713.84 254.9 714.64 253.78 716.33 255.95 718.8 258.15 Z M 690.78 288.17 691.68 288.03 692.37 289.1 692.55 290.18 692 290.85 691.12 293.95 689.48 294.54 688.6 294.24 688.89 293.44 688.6 292.17 689.58 290.77 689 289.52 688.55 290.16 687.22 289.14 687.41 288.81 688.97 288.09 689.24 287.55 690.27 287.45 690.78 288.17 Z M 697.83 286.42 698.44 286.49 698.68 287.59 697.88 288.15 697.43 289.12 696.21 288.42 695.44 288.81 694.78 290.2 693.69 289.98 693.4 288.4 694.33 287.14 696.11 287.06 697.19 286.14 697.83 286.42 Z M 713.05 266.42 713.58 268.66 714.32 269.6 714.72 270.88 714.56 273 714 273.39 713.58 275.01 712.78 275.19 712.38 276.28 712.62 277.65 712.49 278.92 711.72 280.32 711.72 281.54 712.28 282.45 711.35 283.03 711.24 283.7 709.89 284.53 709.55 283.31 708.67 283.66 708.09 285.24 707.19 284.18 706.31 285.52 703.42 284.95 702.65 285.28 703.37 286.24 702.2 286.63 701.27 288.28 700.24 288.3 699.63 287.39 699.47 286.34 700.11 285.77 698.68 285.04 697.48 285.24 696.95 285.69 695.12 286.3 693.14 286.49 692.79 287.49 692.02 286.96 690.19 287.18 690.4 286.06 691.17 286.01 692.29 285.16 694.65 283.03 695.65 283.17 697.51 282.95 699.63 282.39 700.77 283.05 701.67 282.34 701.49 281.72 703.02 279.65 704.43 279.57 704.83 279.07 706.6 278.34 707.85 276.59 709.02 275.75 710.45 271.97 710.13 270.38 710.16 268.71 710.95 267.98 712.81 267.87 713.05 266.42 Z M 616.09 364.1 617.07 365.19 616.97 365.95 615.9 365.24 615.56 364.19 616.09 364.1 Z M 619.8 371.3 619.17 371.04 618.56 370.01 619.17 369.38 620.04 370.96 619.8 371.3 Z M 658.56 386.52 657.98 387.22 657.29 386.81 657.26 386.13 658.03 385.6 658.75 386.01 658.56 386.52 Z M 655.91 385.49 656.47 386.06 655.43 386.93 653.76 385.41 655.91 385.49 Z M 635.07 371.06 635.79 372.82 636.48 373.35 636.19 374.13 634.97 373.61 634.49 372.19 633.06 371.88 634.04 370.73 635.07 371.06 Z M 673.04 377.45 672.77 377.88 672.61 379.33 672.24 379.94 671.74 379.67 672.14 378.92 672.32 377.59 673.04 377.45 Z M 671.87 379.05 671.32 378.6 671.26 377.93 671.98 377.61 672.11 378.31 671.87 379.05 Z M 639.87 374 638.55 374.47 638.65 373.04 639.55 373.11 639.87 374 Z M 700.11 368.8 701.22 368.96 702.1 369.72 701.12 369.83 700.11 368.8 Z M 700.29 370.88 701.91 371.02 701.88 371.48 700.29 370.88 Z M 684.73 362.8 684.23 362.25 685.08 361.59 685.1 362.42 684.73 362.8 Z M 684.07 371.02 682.77 371.19 682.53 370.57 683.17 370.36 684.07 371.02 Z M 677.02 371.14 676.72 371.56 675.8 371.8 675.72 371.09 677.02 371.14 Z M 691.09 385.15 690.56 384.84 690.96 383.96 691.62 383.21 691.92 383.89 691.09 385.15 Z M 681.07 384.4 680.36 385.03 678.95 384.74 680.65 384.19 681.07 384.4 Z M 613.89 355.73 614.66 355.63 616.22 355.8 617.02 356.51 617.79 357.55 617.92 358.28 621.07 360.28 622.69 362.35 623.2 362.64 623.99 362.35 624.95 363.6 625.63 363.76 626.46 364.56 627.15 365.61 627.99 365.76 628.47 366.26 629.37 366.29 630.06 367.25 629.27 367.78 629.27 368.54 629.9 369.31 631.33 369.65 631.79 371.61 632.4 371.99 632.02 372.64 633.64 372.62 634.04 372.88 635.07 374.24 634.62 375.37 634.73 378.47 634.57 379.96 634.12 380.24 633.54 379.67 632.93 380.11 631.94 379.6 631.87 380.46 630.17 378.63 628.13 377.27 627.3 376.56 626.38 375.34 625.16 374.37 623.54 372.11 623.57 371.64 622.74 370.23 622.35 369.18 621.37 368.05 620.78 367.12 619.8 366.57 619.01 364.03 618.48 363.13 616.57 362.13 616.33 361.04 615.88 360.75 614.95 359.42 613.78 358.87 611.69 356.79 611.05 355.62 611.45 354.86 612.46 355.1 613.09 355.6 613.89 355.73 Z M 672.16 386.52 669.67 387.16 668.29 387.24 665.56 386.71 665.83 386.14 667.37 385.69 669.19 386.44 670.36 386.16 671.02 386.55 671.77 386.05 672.16 386.52 Z M 666.04 388.22 667.13 388.91 667.84 389.71 666.97 390.3 666.33 390.09 665.11 389.12 663.97 388.97 664.18 388.25 666.04 388.22 Z M 662.12 385.85 663.76 385.9 663.79 386.83 661.98 387.03 659.49 387.61 658.88 387.4 658.99 386.34 659.7 385.96 660.6 386.09 661.82 385.43 662.12 385.85 Z M 676.83 365.15 675.82 366.31 674.31 366.66 673.25 366.63 672.83 366.28 670.1 366.39 669.17 366.26 666.78 366.36 666.04 367.78 666.23 368.8 667.15 369.65 667.47 370.39 668.29 370.48 669.38 369.25 670.36 369.43 671.05 369.02 672.4 369.02 673.04 368.62 673.49 368.78 673.49 369.57 672.75 369.28 672.22 369.49 671.55 370.33 669.8 371.48 668.98 371.67 670.1 372.53 671.32 374.45 671 375.37 672.38 376.47 672.43 377.01 670.89 377.33 670.26 378.11 669.3 377.51 669.59 376.43 668.03 375.24 668.35 374.37 668.32 373.45 667.44 373.27 666.57 374.13 666.97 375.57 666.81 376.41 666.94 377.59 666.62 378.78 666.7 379.65 665.38 379.99 664.61 379.39 665.14 377.17 665.16 376.3 664.71 375.07 663.76 375.2 663.36 374.35 663.31 373.48 664 372.85 664.5 371.62 664.48 370.48 665.48 368.42 665.59 366.83 666.6 365.19 667.15 365.53 668.03 364.48 669.19 364.66 669.54 364.98 671.4 365.1 672.4 365.47 673.28 365.29 674.52 365.49 675.48 365.08 677.07 363.58 677.6 364.02 676.83 365.15 Z M 638.02 380.69 638.65 381.16 640.06 381.27 640.91 382.44 644.78 382.79 645.47 381.73 646.39 382.17 647.24 382.12 648.46 382.67 649.47 382.74 650.03 384.14 651.03 384.51 652.86 384.32 653.68 384.9 653.55 386.05 654 386.86 651.03 385.78 649.76 386.06 647.19 385.83 645.17 385.47 643.93 384.9 642.23 384.48 641.04 384.4 640.4 384.69 639.21 384.53 637.8 383.96 636.37 383.84 636.11 383.03 633.83 382.41 634.68 380.93 635.13 380.48 636.8 380.9 637.27 380.46 638.02 380.69 Z M 683.14 365.47 684.09 364.77 684.68 363.98 685.26 363.87 685.29 364.9 684.39 365.4 685.26 366.55 683.7 366.31 683.49 366.68 683.83 368.91 683.06 367.89 683.09 366.71 682.74 366.26 682.45 364.58 682.93 363.26 683.75 363.58 683.75 364.4 682.95 365.1 683.14 365.47 Z M 687.62 373.71 689 373.98 690.06 375.28 689.95 375.91 687.83 374.73 686.98 375.02 685.87 374.73 684.65 374.92 683.91 374.42 684.17 373.71 686.91 373.55 687.62 373.71 Z M 681.2 374.19 682.03 374.87 682.03 375.41 680.83 375.83 679.77 375.34 679.35 374.39 681.2 374.19 Z M 698.68 380.02 698.7 381.06 698.01 381.42 697.7 380.71 697.8 380.04 698.68 380.02 Z M 698.23 381.66 697.83 382.49 697.17 382.4 697.4 381.06 698.23 381.66 Z M 707.08 385.75 706.55 386.05 705.2 385.74 705.91 384.35 706.55 383.89 707.61 383.78 708.09 384.46 707.08 385.75 Z M 712.49 373.14 712.49 376.73 712.49 381.45 712.25 382.33 712.49 382.69 712.49 387.65 710.18 385.38 708.96 385.57 707.8 385.47 708.3 384.22 707.56 383.47 707.82 382.59 706.87 381.44 706.47 379.98 705.36 379.02 703.87 378.29 702.84 378.05 701.43 377.4 699.68 377.22 698.54 376.39 697.35 375.78 696.98 375.83 696.26 374.81 695.36 376.36 694.75 376.44 694.28 375.57 694.28 374.66 693.37 373.95 695.23 372.75 696.16 373 696.82 372.66 696.85 372.01 694.73 372.38 693.29 372.32 692.66 371.77 692.45 370.81 691.04 370.44 690.96 369.25 692.15 368.91 692.9 368.36 693.98 368.15 695.87 368.96 696.98 369.01 697.62 370.38 697.27 371.17 697.38 372.22 699.34 374.74 700.32 374.78 702.02 373.08 702.34 372.4 703.34 372.22 703.95 371.43 705.46 370.64 707.35 371.32 709.86 372.56 711.72 372.77 712.49 373.14 Z M 652.36 383.14 651.54 383.39 649.95 383.23 650.19 382.69 652.65 382.62 652.36 383.14 Z M 613.84 362.11 612.38 361.46 612.38 360.88 613.73 361.77 613.84 362.11 Z M 674.71 385.75 673.57 386.45 673.36 386.13 674.36 385.57 674.71 385.75 Z M 472.53 283.96 473.03 283.37 474.17 283.51 475.49 283.13 474.3 284.95 473.03 285.56 471.94 285.14 471.62 284.55 472.53 283.96 Z M 645.81 322.1 646.08 322.89 645.09 324.02 644.83 325.03 642.76 326.26 640.96 325.52 640.93 323.63 642.02 322.84 642.1 322.45 644.22 321.95 645.81 322.1 Z" fill-rule="evenodd" id="AS" data-name="Asia"/>
<path d="M 507.68 265.03 506.09 266.89 504.76 266.59 503.62 265.12 503.2 265.12 501.16 263.95 501.37 263.14 499.46 262.28 497.45 262.85 497.05 262.33 494.03 260.87 492.17 260.89 490.1 259.94 488.64 260.23 485.83 257.61 484.64 257.2 483.9 256.34 482.92 256.22 481.88 254.49 483.45 254.21 484.08 252.22 484.64 251.92 484.16 250.24 487.11 248.65 485.3 248.44 483.21 248.77 482.76 249.27 480.43 250.12 479.42 250.21 477.24 251.62 477.64 253.17 478.81 254.42 480.19 253.96 481.06 254.14 480.66 255.18 478.62 255.08 477.77 256 476.95 256 475.18 257.29 474.14 256.79 474.38 255.08 472.05 254.12 474.62 252.39 473.59 251.67 471.99 251.97 471.01 251.39 470.88 249.95 468.26 250.45 466.98 252.64 465.61 253.24 465.9 254.3 465.53 255.88 464.39 256.16 463.48 257.58 463.33 260.03 461.92 260.98 461.81 262.3 460.91 263.16 462.03 264.43 462.82 266.14 464.41 266.85 463.8 267.6 462.45 267.28 460.97 267.6 460.41 268.43 457.86 268.66 457.31 267.98 455.64 267.53 454.95 267.94 454.05 267.79 452.93 268.85 452.46 269.79 451.69 269.81 450.17 269 450.07 270.34 450.81 271.51 450.92 273.23 450.49 273.89 451.55 274.28 453.12 275.38 453.33 276.95 452.27 276.12 451.42 276.26 451.34 278.01 450.47 277.85 451.16 279.57 450.12 279.55 448.96 278.86 447.84 278.72 447.82 277.42 446.86 276.36 447.44 275.58 448.37 275.21 450.55 276.2 449.7 274.9 447.6 275.23 446.81 275.07 446.07 273.87 446.07 273.29 445.01 272.37 444 270.32 442.99 269.62 443.1 266.27 443.39 265.19 442.54 264.71 441.88 263.82 439.52 262.17 437.48 260.36 435.33 259.56 433.53 257.7 432.92 255.13 431.88 254.3 430.95 255.91 430.21 255.06 429.97 253.87 428.89 253.38 427.22 253.98 427.77 255.5 427.16 256.25 427.48 257.81 428.14 258.51 430.08 259.83 431.06 262.5 432.94 264.4 433.63 264.75 435.38 264.75 435.49 266.24 437.9 267.34 439.81 268.54 440.98 270.13 440.07 270.61 439.6 269.62 437.53 269.11 436.65 270.84 436.79 271.47 437.93 272.23 438.06 273.31 436.71 274.12 436.68 274.99 435.59 276.3 434.85 276.32 435.41 274.14 435.91 273.99 435.51 272.31 434.8 270.46 433.15 269.74 432.73 268.49 431.27 268.02 430.45 266.82 429.02 266.8 428.01 266.14 425.78 263.71 424.75 262.96 423.74 261.75 422.28 258.44 420.59 257.52 419.42 257.2 417.91 258.75 415.92 259.54 414.38 261.05 413.56 261.33 412 260.87 411.23 260.2 410.25 260.38 408.97 259.76 407.22 260.96 406.77 261.82 407.2 264.73 404.63 266.67 402.29 267.34 401.58 268.04 400.81 269.51 399.27 271.83 399.54 273.14 400.44 273.99 399.16 274.92 398.56 275.73 398.18 277.32 397.07 277.38 396.01 278.3 395.32 279.55 390.31 279.71 389.65 280.3 388.53 280.54 387.53 281.62 386.6 281.18 385.62 279.07 384.74 278.4 383.39 278.48 382.65 278.92 380.95 278.6 380.47 277.75 380.23 274.7 378.99 274.08 379.23 272.35 379.73 271.77 380.31 269.91 380.82 267.43 380.29 264.25 380.74 263.75 379.52 261.62 380.34 260.54 381.08 260.54 381.69 259.78 382.94 259.22 383.89 259.74 387.45 259.78 389.97 260.29 392.01 259.98 393.25 260.43 394.82 260.56 396.7 259.85 397.23 256.77 397.63 252.85 397.47 251.22 396.04 250.57 395.53 248.89 392.99 246.72 390.44 246.31 389.73 245.45 390.26 244.5 389.54 243.92 392.83 242.91 394.02 243.94 394.58 243.55 396.81 243.57 396.49 241.68 395.88 240.04 397.2 240.07 397.47 241.06 399.64 241.36 400.62 240.81 400.41 239.99 402.77 238.97 403.43 237.96 403.51 236.38 404.23 235.51 405.42 235.23 408.31 233.37 409.93 230.8 410.38 228.97 413.43 226.76 415.1 226.63 416.16 225.73 417.75 225.7 418.92 226.22 419.71 225.16 419.84 222.51 419.23 221.53 419.1 219.1 418.02 218.39 418.09 214.39 419.1 212.35 421.17 211.85 422.07 210.41 423.34 210.95 422.79 214.33 424.03 214.74 422.87 215.97 422.58 217.36 421.25 218.82 421.38 220.63 422.63 223.01 424.4 223.86 425.28 224.75 426.84 223.92 427.88 222.78 428.89 222.98 430.74 225.1 432.12 225.78 432.62 224.47 435.88 223.45 436.71 222.45 438.27 221.78 440.6 221.36 441.37 222.92 443.02 223.09 443.79 222.48 444.29 221.02 446.97 220.97 447.07 218.96 446.68 217.56 446.7 213.51 448.16 210.44 449.99 209.81 452.43 212.92 454.1 211.46 453.86 209.56 454.36 207.18 452.69 207.15 452.11 205.88 452.08 203.57 454.05 202.36 456.54 201.66 461.84 202.62 463.06 200.89 464.6 200.06 463.48 198.37 463.51 197.32 460.89 197.98 460.38 197.65 456.88 198.56 452.59 200.22 450.52 199.7 450.04 198.47 447.52 197.38 447.34 195.7 447.89 192.81 447.13 190.96 446.78 187.94 449.3 183.95 451.53 181.66 453.81 178.5 454.44 177.03 456.25 175.93 456.19 173.46 454.5 171.97 452.51 171.58 447.82 173.85 447.82 175.31 446.86 176.99 447.58 179.21 446.01 181.8 442.19 184.92 440.92 186.6 439.68 186.92 438.62 192.13 437.98 192.91 438.24 196.92 439.81 197.42 441.13 198.92 442.06 201.12 440.52 203.95 438.7 205.04 436.92 206.84 436.63 212.53 435.46 215.94 432.76 216.17 431.51 217.47 431.8 218.67 429.52 219.39 427.9 216.26 428.57 214.33 427.53 213.18 426.02 209.84 424.99 206.66 424.83 204.1 423.61 202.75 422.58 204.39 421.33 204.67 418.09 208.07 415.52 208.56 412.66 206.47 412.95 202.9 411.39 203.44 411.76 201.63 411.36 200.8 411.63 197.52 411.2 196.89 410.94 192.26 412.26 189.44 414.09 188.01 416.13 188.04 415.52 186.31 417.96 185.67 418.63 183.48 421.49 183.01 421.51 181.8 425.15 176.46 426.95 175.04 427.22 172.99 428.75 170.55 429.04 167.66 432.7 162.2 432.81 160.41 435.62 158.08 436.92 155.54 438.56 154.47 440.13 152.27 440.55 150.25 444.47 147.65 446.91 147.6 447.44 145.76 450.28 144.47 451.08 146.23 454.13 142.29 454.66 140.27 457.12 141.26 461.18 139.62 464.52 141.21 468.6 145.09 465.61 147.04 469.71 148.91 470.91 147.18 473.03 148.49 471.78 150.25 474.67 151.31 479.5 152.04 483.63 155.14 489.52 160.29 490.82 160.97 491.3 166.07 489.81 168.18 487.08 169.91 485.12 170.27 478.73 168.47 477.19 167.25 471.97 165.53 474.41 168.87 476.26 169.95 477.11 171.38 476.26 173.89 477.14 176.04 477.3 178.28 479.02 179.21 480.61 181.11 483 182.06 484.4 180.99 484.14 179.51 482.41 179.06 480.98 176.8 481.75 175.08 484.24 176.61 488.14 178.2 489.28 176 488.22 174.16 488.25 172.8 490.21 170.83 491.93 169.95 493.58 167.78 497.74 169.35 498.61 166.93 498.19 164.5 497.05 163.62 498.03 159.3 497.63 155.98 501.72 156.42 503.49 160.16 500.92 160.71 499.62 162.32 501.93 165.9 503.49 166.07 505.75 164.83 506.12 161.73 508.34 160.88 512.69 157.21 516.48 155.72 519.27 153.26 519.64 157.91 520.94 157.65 524.22 155.41 526.64 155.98 530.61 153.22 532.76 156.77 535.07 153.31 533.37 149.51 535.25 147.84 540.45 149 544.16 151.54 543.1 154.02 544.77 154.43 545.54 155.94 544.69 158 546.55 162.28 544.51 164.25 544.35 165.62 540.32 168.43 539.28 171.34 537.16 172.25 534.51 176.46 533.32 175.66 531.86 178.61 532.63 180.74 532.07 181.44 531.41 186.24 532.2 188.46 531.54 191.58 531.36 194.53 531.81 196.43 531.2 198.82 529.45 202.01 531.17 203.79 530.96 205.42 531.81 206.6 530.06 208.22 530.4 209.81 528.55 210.83 528.63 212.38 527.59 213.24 527.06 215.33 528.12 216.2 531.38 216.64 531.14 219.44 529.95 220.91 528.63 219.67 527.49 219.44 526.66 220.38 526.72 221.42 528.49 223.06 531.28 222.23 532.15 221.25 532.55 223.64 531.54 223.84 530.59 225.07 530.4 230.35 532.52 230.14 532.81 231.57 534.03 233.16 536.02 233.91 536.53 234.66 536.08 235.97 534.41 236.66 532.89 236.18 532.58 236.94 530.53 236.56 529.37 235.26 528.2 235.15 527.33 235.87 526.37 235.26 525.23 235.41 523.69 236.87 523.11 236.87 521.31 235.49 520.65 236.26 519.8 235.08 518.23 233.76 516.54 233.76 516.01 233.06 514.39 233.76 512.59 232.9 511.39 234.46 509.72 235.18 508.18 236.87 508.26 238.92 507.36 239.54 505.75 237.65 504.9 238.01 504.15 239.47 503.76 241.14 504.21 242.05 503.52 243.04 503.44 244.35 504.18 244.77 504.39 245.9 506.65 246.55 508.53 249.74 507.76 250.4 509.14 251.15 506.75 253.06 505.35 253.5 504.45 255.68 503.65 256.47 503.62 257.2 504.68 257.9 505.32 260 505.21 261.45 507.68 265.03 Z M 420.37 266.39 419.71 266.01 419 263.9 419.31 262.92 421.01 261.97 420.37 266.39 Z M 521.1 42.78 527.88 47.3 523.51 49.5 519.85 46.99 521.1 42.78 Z M 529.92 116.26 526.27 123.09 521.94 122.41 520.35 123.2 519.19 119.95 521.12 118.38 523.22 112.95 525.23 110.18 526.53 106.46 530.51 102.23 535.33 99.83 539.58 98.75 545.99 95.17 549.7 91.35 551.8 92.07 552.73 95.59 551.11 98.27 546.92 101.1 536 107.03 533.5 111.54 529.74 113.98 529.92 116.26 Z M 514.34 132.77 516.64 131.08 519.16 123.65 521.49 122.92 525.07 124.38 524.33 127.47 522.71 129.91 522.58 133.71 524.22 137.87 526.11 140.76 526.66 143.02 521.04 142.43 519.08 141.5 518.29 136.49 514.84 136.85 514.34 132.77 Z M 514.07 48 512.96 50.78 508.4 53.12 509.17 46.89 514.07 48 Z M 537.67 46.28 535.33 52.44 531.46 51.08 532.1 46.99 537.67 46.28 Z M 509.11 150.02 511.42 152.08 510.01 154.11 507.87 154.87 507.02 152.99 507.79 150.53 509.11 150.02 Z M 533.87 147.13 532.07 148.59 530.67 147.6 529.61 145.14 530.8 143.84 533.87 147.13 Z M 394.07 233.27 392.7 234.1 390.28 232.85 389.14 233.27 388.72 231.93 390.28 231.2 391.18 229.95 390.89 227.47 393.2 226.68 393.52 225.54 391.24 221.59 388.61 221.28 389.54 219.1 388.37 217.1 387.55 216.61 388.06 214.74 386.84 214.39 387.66 211.85 387.1 211.01 388.16 207.67 389.54 206.53 393.23 205.98 392.88 207.3 391.16 208.83 392.46 209.9 395.4 209.9 396.06 210.77 394.13 215.53 392.96 216.49 395.24 217.18 396.33 218.5 397.12 221.61 398.5 222.65 399.54 224.47 401.23 228.41 402.35 228.43 403.67 229.18 403.88 230.22 403.46 231.59 402.11 232.61 401.52 234.12 403.14 234.2 402.13 235.74 400.46 236.31 396.65 236.36 394.34 236.82 392.46 236.77 391.58 238.16 390.76 237.6 388.16 238.11 389.83 236.26 390.71 234.82 393.04 234.74 394.07 233.27 Z M 384 220.38 386.41 219.9 387.87 222.65 387.58 223.51 385.94 224.61 386.65 228.54 385.46 231.22 383.31 231.57 383.02 231.99 380.47 233.4 379.39 233.71 378.78 233.03 377 232.38 377.93 231.43 379.39 227.92 378.3 226.82 377.85 223.51 380.9 223.23 380.58 221.95 381.67 220.15 383.95 219.36 384 220.38 Z M 442.27 209.35 441.69 209.9 441.45 211.82 440.21 210.5 441.08 209.38 442.27 209.35 Z M 406.96 271.05 407.68 271.3 406.8 272.46 405.26 271.56 406.16 270.86 406.96 271.05 Z M 363.8 301.68 363.08 302.62 362.52 301.79 363.8 301.68 Z M 438.8 149.51 439.78 151.99 437.61 152.36 438.8 149.51 Z M 447.89 74.67 451.24 81.27 453.73 82.28 452.85 86.45 448.9 86.37 447.89 82.05 444.85 75.97 447.89 74.67 Z M 446.33 54.66 449.78 52.64 459.53 55.79 460.3 59.06 456.83 65.27 453.09 67.79 446.25 65.35 441.51 60.89 440.66 57.11 446.33 54.66 Z M 437.21 59.06 441.19 63.23 442.33 68.22 445.35 68.56 447.42 73.02 443.81 74.34 440.87 80.88 440.42 86.15 439.07 87.41 437.02 95.52 431.85 89.1 433.07 84.42 430.32 80.88 426.1 73.27 424.09 60.44 428.28 60.71 429.65 64.3 435.06 61.89 437.21 59.06 Z M 434.53 275.52 433.47 277.67 433.9 278.9 433.5 279.81 432.15 279.49 431.35 278.64 430.82 278.66 427.56 276.65 429.6 275.64 430.32 276.14 432.15 276.01 432.92 275.66 434.53 275.52 Z M 421.36 267.87 421.73 268.98 421.2 272.83 420.08 272.62 419.69 273.56 418.65 272.73 418.78 269.6 418.15 268.54 420.59 266.93 421.36 267.87 Z M 365.55 169.39 367.32 170.35 367.3 171.97 369.82 173.42 369.92 175.62 367.75 178.88 364.41 180.59 363.11 181.8 360.51 182.57 358.65 184.09 355.23 183.37 351.6 180.11 351.34 178.5 349.72 175.85 351.23 173.38 349.24 172.91 346.3 173.42 347.84 169.75 350.28 168.27 352.77 171.3 352.93 173.77 354.89 172.17 354.89 170.47 358.39 169.71 362.87 169.91 363.35 168.18 364.57 167.82 365.55 169.39 Z M 451.9 273.43 453.41 274.24 452.67 275.01 451.55 273.87 451.9 273.43 Z M 452.88 282.97 453.89 283.43 454.79 283.27 456.46 283.59 457.07 284.04 454.97 284.59 454.23 283.98 452.22 283.62 452.88 282.97 Z M 450.15 206.04 451.63 206.63 449.11 208.19 448.96 206.66 450.15 206.04 Z M 427.85 217.67 425.84 220.01 425.01 219.92 424.33 217.9 427.08 216.35 427.85 217.67 Z M 423.61 218.36 423.9 220.21 422.15 220.09 421.86 218.73 423.61 218.36 Z" fill-rule="evenodd" id="EU" data-name="Europe"/>
</g>
</svg>