<?xml version="1.0"?>
<svg xmlns="http://www.w3.org/2000/svg" version="1.2" baseProfile="tiny" width="800" height="1083" viewBox="0 0 800 1083" stroke-linecap="round" stroke-linejoin="round">
<g id="MLOC-DE">
<path d="M 763.21 605.88 765.5 598.11 763.97 596.52 758.16 597.74 760.25 588.97 753.21 583.27 744.88 583.77 741.29 581.11 735.28 580.48 733.2 582.62 732.02 588.68 734.96 589.07 737.96 594.22 743.5 596.52 740.42 602.14 730.46 602.25 726.86 606.59 713.29 612.84 706.74 612.91 700.9 615.89 700 621.08 695.85 623.7 688.41 623.77 683.42 625.33 675.6 625.29 668.09 628.19 668.75 632.16 666.57 636.69 662.2 641.06 658.63 640.51 656.37 637.19 651.22 640.36 647.98 644.95 643.43 643.16 640.53 650.92 637.14 654.8 624.04 655.4 622.91 663.47 619.77 666.81 616.1 667.33 608.03 662.41 601.81 663.24 595.24 668.93 590.59 668.08 580.57 669.6 576.98 675.5 570.81 679.65 565.44 687.36 560.82 700.47 556.39 687.29 551.65 685.97 550.82 681.31 544.97 679.81 534.93 674.68 534.51 670.07 530.97 666.08 527.91 666 531.58 659.56 529.69 655.98 535.23 648.08 540.38 650.07 543.21 646 548.81 645.83 549.97 640.18 552.42 637.07 558.17 637.08 564.16 630.53 560.42 629.75 557.84 621.1 561 617.42 558.61 614.23 564.95 612.32 569 609.44 573.09 609.84 576.44 605.39 582.07 602.64 588.53 602.66 592.49 599.41 588.57 592.16 583.66 589.56 578.93 581.64 578.25 577.51 564.79 573.42 559.18 573.98 555.53 573.26 551.78 566.62 552.18 562.84 550.16 552.76 547.67 545.09 551.96 540.49 549.82 523.16 552.75 520.2 553.16 512.01 556.64 507.33 562.78 508.71 567.17 506.54 573.63 505.88 574.75 501.82 583.6 502.59 593.79 501.82 598.42 496.67 604.19 498.24 613.72 492.19 615.78 495.03 623.96 496.88 628.57 499.91 638.13 506.76 641.53 517.3 640.45 525.42 645.16 532.06 658.96 527.01 663.04 529.02 668.62 534.61 676.69 536.23 689.92 537.26 704.89 535.39 707.67 535.69 714.08 526.08 716.09 519.68 719.49 515.2 724.07 512.27 733.66 511.5 739.73 514.64 743.09 513.86 754.59 508.07 762.08 507.28 768 510.14 771.78 510.31 773.99 513.81 789.55 520.36 792.52 523.13 793.01 530.48 794.15 539.98 799 547.88 793.84 571.1 793.41 576.72 785.14 597.08 780.81 602.57 780.8 605.14 777.75 611.41 771.23 611 763.21 605.88 Z" id="DE-SN" data-name="Sachsen"/>
<path d="M 527.91 666 530.97 666.08 534.51 670.07 534.93 674.68 544.97 679.81 545.65 686.65 543.08 689.52 548.28 693.83 552.05 699.31 551.75 706.48 556.39 711.57 557.64 716.39 576.9 726.51 576.43 731.78 581.77 735.34 580.8 740.04 575.55 752.26 569.54 757.22 572.68 762.96 579.36 767.03 579.41 771.89 584.34 778.49 585.1 783.05 587.84 787.85 590.38 788.54 592.17 799.31 599.64 804.44 602.49 810.85 605.6 812.9 612.35 813.44 616.49 812.26 623.18 817.3 624.18 820.92 628.06 824.87 636.21 835.98 638.74 840.83 649.28 844.12 655.62 851.45 656.64 857.49 660.4 861.87 665.18 864.83 668.68 860.63 674.6 863.88 680.17 872.17 686.29 874.15 692.51 885.72 694.21 887.49 691.61 892.99 692.79 895.91 693.05 907.9 689.88 914.21 687.09 914.73 685.39 919.54 677.55 914 668.53 911.47 661.51 914.57 662.93 921.72 661.35 930.34 658.51 938.79 650 946.25 647.07 947.89 635.08 949.99 626.05 953.59 617.37 960.69 612.55 961.63 607.72 967.03 601.01 972.26 600.31 974.95 602.33 979.53 608.46 985.96 609.99 990.27 611.19 992.85 617.2 997.74 622.44 1007.84 616.82 1016.88 613.8 1023.85 620.07 1026.21 623.58 1025.01 627.08 1027.34 629.72 1033.8 625.65 1047.36 626.45 1053.62 623.97 1056.58 618.2 1056.53 612.98 1052.91 609.01 1048.52 603.96 1045.66 604.56 1039.48 600.99 1031.38 593 1030.12 588.24 1031.7 585.19 1034.43 579.38 1036.09 575.56 1033.4 573.07 1027.99 566.75 1029.27 561.72 1028.19 553.76 1029.77 553.75 1035.97 550.57 1039.31 530.57 1038.44 523.26 1039.93 520.51 1043.02 515.61 1042 503.11 1041.16 500.38 1043.65 497.08 1050.96 491.11 1052.39 485.02 1051.94 480.91 1056.68 481.1 1060.44 475.71 1061.05 471.63 1065.51 467.83 1062.64 463.78 1062.48 456.39 1066.95 447.31 1066.82 445.6 1061.42 441.26 1056.72 436.18 1053.62 436.79 1048.77 430.85 1050.65 414.97 1044.7 412.86 1044.67 407.76 1049.06 399.56 1047.29 398.57 1053.62 400.54 1055.12 401.39 1060.61 397.88 1068.04 393.88 1070.6 388.68 1078.17 382.88 1081.31 377.28 1082 380.2 1071.46 378.66 1068.27 372.99 1070.4 368.42 1070.04 368.3 1060.57 364.02 1054.28 360.53 1055.17 357.58 1049.6 349.77 1047.4 345.78 1047.34 345.33 1042.88 340.52 1042.14 336.28 1048.68 328.33 1049.91 323.23 1048.5 328.29 1041.41 334.74 1038.36 341.16 1037.19 350.26 1030.16 357.98 1032.14 365 1029.48 373.49 1028.46 372.33 1019.3 369.03 1015.63 373.32 1011.81 370.59 1003.84 371.58 996.06 369.62 993.14 373.38 983.43 373.9 974 371.57 968.68 366.76 948.19 362.38 939.91 360.35 938.17 367.96 926.24 373.66 924.32 375.4 927.08 383.86 921.91 384.89 919.25 389.46 918.5 389.3 908.36 385.59 898.75 387.99 895.8 395.03 900.58 398.97 896 401.38 899.85 405.15 896.33 402.73 891.53 400.45 890.74 400.45 882.5 402.73 867.83 398.18 858.84 394.54 855.84 392.88 852.13 385.94 849.9 383.91 842.25 384.97 836.94 381.09 835.94 374.84 829.24 374.57 823.23 375.96 819.92 375.33 814.07 372.42 811.06 372.65 807.33 376.94 805.35 374.43 799.14 373.15 788.33 367.77 788.63 363.76 792.5 356.5 792.31 355.94 783.11 351.8 775.18 347.59 769.33 347.4 764.24 343.98 760.03 338.33 764.7 329.88 763.12 331.85 753.24 322.42 752.39 317.74 750.16 309.87 751.74 305.63 751.44 302.18 754.15 302.3 758.67 312.18 761.89 310.2 771.06 307.78 769.66 300.57 771.97 297.06 779.46 284.63 779.78 281.32 774.98 284.69 771.09 283.66 764.82 286.6 763.53 287.76 756.77 284.02 750.01 283.09 744.15 280.38 744.14 277.32 735.01 277.33 716.63 274.33 716.28 275.89 709.35 284.39 705.47 288.27 707.25 294.91 702.97 303.65 703.58 308.43 706.35 310.4 709.96 319.1 707.82 320.88 700.29 318.44 698.49 319.48 690.4 328.28 692.04 332.55 690.66 334.22 684.51 340.16 680.96 339.66 675.29 341.74 667.78 344.56 665.4 349.77 668.21 354.94 666.19 362.12 661.45 366.84 652.13 371.59 646.8 378.44 647.66 382.77 653.01 389.79 655.44 391.41 659.33 396.82 664.93 397.34 668.62 401.17 668.19 405.55 674.42 410.13 673.7 413.62 678.6 413.74 685.63 415.76 692.01 425.3 693.91 425.73 689.57 431.56 688.77 434.99 685.58 429 682.71 424.29 678.72 424.54 674.67 427.73 673.99 430.72 669.95 438.89 669.12 444.17 669.8 447.14 674.15 453.42 675.21 459.18 673.01 462.58 678.5 460.88 680.44 465.84 685.59 471.32 685.14 471.65 679.36 473.5 673.72 471.65 667.63 470.74 658.14 476.63 655.42 479.28 651.83 486.28 652.6 485.76 662.19 490.64 664.31 491.29 668.14 495.38 671.02 498.7 668.81 503.17 669.87 517.41 666.12 521.25 669.29 527.91 666 Z" id="DE-BY" data-name="Bayern"/>
<path d="M 24.07 706.14 24.56 700.11 28.22 697.79 26.62 693.42 30.35 689.52 35.9 687.6 39.91 680.51 45.36 680.77 46.35 678.57 55.71 675.41 60.17 672.24 64.82 671.16 69.16 674.85 71.58 673.25 76.36 676.04 83.05 674.13 80.01 658.41 85.28 656.31 87.51 659.47 91.13 657.59 90.9 651.41 95.61 646.89 100.8 645.27 105.41 642.01 110.05 642.18 117.06 638.08 125.49 638.11 133.23 634.85 134.57 626.46 139.95 626.11 153.08 622.36 154.29 620.16 161.73 615.73 159.71 611.82 167.96 605.63 166.84 597.84 170.67 594.89 175.73 596.3 174.42 601.89 182.94 608.78 185.36 608.09 186.3 616.84 190.88 623.38 192.84 628.21 199.65 629.15 198.53 634.41 202.21 642.64 200.01 648.45 197.27 650.76 191.56 648.31 187.97 653.19 187.98 662.56 186.21 668.64 189.88 669.56 197.29 680.2 198.62 684.72 196.31 686.89 191.93 686.71 191.6 690.73 187.36 691.47 181.17 695.32 178.96 701.45 178.92 706.11 175.28 706.78 174.26 710.52 168.04 715.23 174.87 721.03 177.34 726.14 180.86 726.02 188.79 722.57 192.17 719.99 203.07 716.28 207.8 717.31 217.14 727.95 218.86 732.55 217.55 737.23 221.06 743.77 224.84 753.93 229.19 755.25 226.17 759.42 220.95 761.59 219.33 767.78 224.23 779.2 223.49 782.46 228.3 794.44 230.94 797.55 231.27 806.4 228.15 813.49 229.72 817.02 221.08 827.98 219.03 842 212.63 855.24 207.99 861.13 205.34 862.1 195.82 859.32 182.02 851.93 175.48 852.28 168.24 850.17 164.17 851.83 157.03 851.74 153.87 848.33 146.23 845.45 143.12 840.79 142.34 836.42 133.24 834.47 126.54 829.27 125.87 825.86 128.47 823.04 131.95 814.92 134.61 811.7 134.42 807.31 127.11 805.28 122.32 797.08 127.75 791.82 124.18 779.33 119.97 781.34 112.46 776.17 107.16 775.97 100.79 772.48 95.36 772.79 88.68 777.18 75.85 783.11 72.15 783.24 66.52 785.81 56.49 785.33 44.21 786.47 44.37 780.93 50.22 771.18 50.25 767.05 56.65 762.89 56.17 757.24 57.38 750.26 49.93 748.78 39.57 742.96 33.23 737.75 30.37 730.83 27.24 729.09 22.23 715.89 24.07 706.14 Z" id="DE-RP" data-name="Rheinland-Pfalz"/>
<path d="M 44.21 786.47 56.49 785.33 66.52 785.81 72.15 783.24 75.85 783.11 88.68 777.18 95.36 772.79 100.79 772.48 107.16 775.97 112.46 776.17 119.97 781.34 124.18 779.33 127.75 791.82 122.32 797.08 127.11 805.28 134.42 807.31 134.61 811.7 131.95 814.92 128.47 823.04 125.87 825.86 126.54 829.27 133.24 834.47 129.31 839.04 124.23 842.53 114.39 841.36 108.32 837.75 107.27 840.57 102.68 840.75 101.72 832.4 94.4 829.22 87.27 828.49 86.88 834.92 84.27 837.18 77 835.88 75.54 830.26 72.85 828.49 69.53 820.47 61.73 811.54 63.84 808.37 59.61 803.86 56.89 798.5 48.9 794.49 43.9 795.85 44.21 786.47 Z" id="DE-SL" data-name="Saarland"/>
<path d="M 313.08 35.03 323.25 29.48 329.98 33.59 335.33 33.88 344.79 39.11 346.7 43.13 352.94 41.21 354.65 37.93 359.48 42.24 360.67 47.39 359.53 51.83 364.83 58.8 365.32 63.87 363.79 74.87 361.86 78.2 355.54 82.78 351.89 87.43 372.9 82.39 379.79 87.59 379.2 95.21 374.39 100.87 377.75 105.52 380.95 95.91 388.76 90.57 393.46 90.57 400.64 95.77 414.37 101.89 422.13 109.24 429.7 109.41 437.6 102.92 443.47 99.78 450.74 98.83 452.05 101.57 458.17 97.79 460.89 98.83 455.84 105.36 457.32 114.12 457.32 122.83 454.89 128.96 444.79 135.57 441.29 140.07 434.83 142.92 431.81 142.59 427.56 149.76 429.99 154.79 437.4 156.59 440.92 162.01 439.11 168.23 428.49 176.22 427.45 179.46 429.16 186.81 428.29 193.68 432.2 194.49 435.75 199.29 443.71 202.8 445.18 207.1 443.86 211.02 445.13 220.21 434.15 220.02 433.46 227.73 422.51 235.73 417.36 237.91 416.21 245.83 414.39 248.63 408.04 248.55 395.69 241.03 390.6 239.75 389.26 236.49 378 225.66 377.12 219.09 380.39 217.54 381.44 210.3 379.87 206.01 374.43 198.59 370.13 197.58 367.72 203.37 363.23 204.52 361.53 207.69 355.72 208.54 347.13 215.64 341.89 210.96 339.48 219.26 332.08 217.5 322.94 210.16 321.33 198.91 312.93 193.38 309.4 181.25 300.73 175.22 294.19 172.43 283.13 172.17 277.6 170.01 275.68 172.17 267.69 165.53 260.49 150.87 267.56 149.76 274.76 151.79 276.59 141.75 272.77 137.26 267.86 134.55 262.87 137.69 258.7 129.47 261.65 121.57 261.03 118.29 268.21 115.51 265.24 111.08 255.38 113.12 252.27 112.58 248.03 115.92 244.69 115.42 240.41 109.86 241.4 104.44 246.45 102.81 242.71 98.57 253.3 94.66 262.87 94.66 275.41 86.86 276 80.8 262.22 63.84 258.06 53.56 247.9 46.36 248.39 42.6 244.39 33.9 245.47 22.03 251.73 23.13 259.7 20.58 266.65 21.79 273.49 24.6 291.95 28.98 294.7 35.71 302.59 36.35 308.51 33.67 313.08 35.03 Z M 271.79 78.2 267.27 85.42 261.46 86.77 258.7 81.46 261.46 78.79 267.96 77.18 271.79 78.2 Z M 471.35 84.94 476.45 94.66 465.51 92.81 458.9 94.45 457.69 88.99 451.93 89.64 449.6 86.48 452.03 80.42 455.45 77.07 459.66 76.35 467.08 79.58 471.35 84.94 Z M 216.88 52.62 221.23 60.85 218.73 63.88 213.32 56.65 216.88 52.62 Z M 231.26 43.18 236.1 43.47 239.63 47.39 237.19 53.56 227.36 52.61 222.29 49.45 225.97 44.38 231.26 43.18 Z M 219.31 14.17 218.8 19.54 225.95 23.4 220.77 26.58 213.07 22.79 220.48 1 221.1 5.85 219.31 14.17 Z M 243.18 75.35 248.78 72.96 246.25 81.46 241.81 82.85 239.82 79.7 243.18 75.35 Z" fill-rule="evenodd" id="DE-SH" data-name="Schleswig-Holstein"/>
<path d="M 390.6 239.75 395.69 241.03 408.04 248.55 414.39 248.63 420.85 248.36 425.73 251.52 426.42 257.87 429.52 259.07 435.11 264.91 443.02 269.52 456.88 281.76 461.58 277.63 466.02 282.24 468.66 280.48 472.96 285.63 477.62 292.17 480.93 293.39 485.39 290.95 499.71 296.46 498.01 301.21 493.22 302.5 492.8 310.73 490.05 311.32 485 316.18 472.11 320.35 467.69 317.44 458.38 317.03 450.37 315.4 445.67 322.14 439.13 324.74 428.38 326 427.94 333.48 431.77 342.69 434.9 344.44 439.08 352.89 444.98 361.23 445.07 368.08 449.25 374.85 444.75 375.67 443.79 380 450.03 388.38 455.45 392.84 454.65 395.46 449.03 397.08 452.03 402.21 450.38 404.92 456.32 413.78 452.36 415.72 450.78 419.22 453.83 421.84 452.43 427.05 444.55 431.97 444.36 437.54 436.07 438.59 419.57 439.37 416.16 444.21 412.54 444.24 413.43 449.07 417.91 452.34 415.41 456.37 417.75 462.15 412.55 467.6 413 477.03 415.95 479.76 419.86 486.97 420.29 492.22 422.78 496.78 416.82 501.89 418.99 505.07 410.97 507.99 406.81 508.15 398.76 503.16 394.68 504.02 393.79 510.09 387.68 516.94 382.9 519.93 379 518.91 375.08 525.56 366.03 525.52 357.63 532.54 353.85 529.48 351.21 532.13 345.33 528.99 343.94 531.34 337.12 535.05 341.34 542.64 336.93 545.12 334.42 541.86 324.56 538.04 324.06 532.17 330.58 528.78 329.92 521.52 326.95 514.41 328.94 508.68 333.44 507.73 331.65 500.45 329.26 497.89 318.03 497.52 313.3 495.14 307.47 495.4 308.95 491.12 308.93 483.86 313.01 478.08 315.12 469.46 310.71 465.42 303.03 466 304.12 459.01 297.91 456.85 299.89 449.55 293.27 449.72 289.89 447.69 292.22 442.96 290.44 438.17 291.52 435.09 287.99 431.23 286.79 427.02 275.31 426.81 273.96 418.99 279.14 417.89 281.13 412.11 273.54 408.12 274.42 400.85 276.57 397.28 281.43 396.19 286.17 387.67 284.48 381.52 286.45 377.91 282.06 374.94 274.92 379.91 271.62 387.58 259.91 390.47 250.97 389.5 249.47 387.83 249.2 377.43 246.81 373.01 242.97 371.17 238.66 373.28 231.18 373.66 224.83 382.31 219.88 382.96 214.18 381.58 217.01 389.11 225.18 393.61 228 402.53 228.33 416.67 230.27 421.61 225.03 425.73 222.21 429.95 211.18 426.78 203.7 433.94 197.56 436.28 189.94 436.34 186.15 439.99 180.32 437.77 178.51 432.99 181.17 429.91 187.09 428.25 189.47 421.03 183.37 420.22 179.55 417.3 180.66 410.15 185.64 401.41 179.74 392.12 173.08 394.19 162.08 386.97 160.14 380.02 153.91 378.08 151.55 383.68 153.18 386.07 149.78 392.89 145.6 393.15 137.15 401.14 127.06 407.14 111.47 408.45 103.21 411.86 101.98 405.27 105.09 393.86 98.57 381.54 92.21 384.32 78.36 381.21 74.35 378.08 73.75 368.49 78.59 366.04 75.1 361.5 76.44 356.43 80.92 354.38 98.08 355.01 102.5 356.54 104.08 353.47 105.53 332.89 107.17 325.58 114.99 312.4 116.88 307.56 117.81 297.76 115.92 284.44 118.17 273.57 117.83 267.11 120.45 264.5 123.07 256.26 107.44 253.62 102.95 247.96 102.92 237.14 106.09 226.72 111.31 227.51 113.23 224.45 108.45 217.17 120.57 205.48 127.45 202.78 140.83 201.26 144.76 203.69 157.6 201 183.72 197.33 190.68 199.36 190.11 204.58 192.55 209.91 199.05 216.59 198.32 219.36 202.57 222.1 201.48 226.08 193.06 229.6 195.45 236.32 201.21 237.24 205.82 242.95 209.59 243.29 213.43 238.6 215.84 228.55 213.32 225.6 208.07 226.2 209.61 216.67 212.98 212.76 218.28 213.35 221.69 218.59 232.64 221.87 236.45 226.98 240.42 231.29 243.58 227.46 242.38 214.51 232.6 212.73 230.34 205.41 230.79 198.32 234.05 190.14 237.85 177.32 240.79 173.79 247.54 172.76 252.77 177.83 262.87 181.25 272.93 179.56 284.96 176.21 298.91 176.21 301.58 179.25 310.05 194.31 317.19 202.01 318.38 206.45 324.36 215.3 335.64 221.6 341.5 222.91 341.89 228.7 345.56 235.4 349.62 239.72 354.16 241.88 360.77 242.32 365.42 238.22 369.28 237.08 378.29 243.88 383.08 243.55 385.21 240.56 390.6 239.75 Z M 237.08 271.94 241.14 276.55 243.48 283.78 249.12 291.1 249.09 295.26 255.59 294.94 259.73 297.59 263.33 296.91 267.55 299.1 272.62 295.05 274.12 289.1 267.37 282.47 259.66 278.3 256.17 278.16 252.84 274.88 246.86 275.06 239.32 271.42 237.08 271.94 Z M 83.32 214.59 72.78 218.81 71.25 215.37 78.9 212.55 83.32 214.59 Z" fill-rule="evenodd" id="DE-NI" data-name="Niedersachsen"/>
<path d="M 199.65 629.15 192.84 628.21 190.88 623.38 186.3 616.84 185.36 608.09 182.94 608.78 174.42 601.89 175.73 596.3 170.67 594.89 166.84 597.84 167.96 605.63 159.71 611.82 161.73 615.73 154.29 620.16 153.08 622.36 139.95 626.11 134.57 626.46 133.23 634.85 125.49 638.11 117.06 638.08 110.05 642.18 105.41 642.01 100.8 645.27 95.61 646.89 90.9 651.41 91.13 657.59 87.51 659.47 85.28 656.31 80.01 658.41 83.05 674.13 76.36 676.04 71.58 673.25 69.16 674.85 64.82 671.16 60.17 672.24 55.71 675.41 46.35 678.57 43.24 672.43 44.41 663.48 41.59 656.9 36.09 655.13 31.19 655.71 27.83 648.43 34.12 642.45 35.52 638.71 29.51 638.56 27.87 634.9 20.89 625.1 16 625.92 13.4 620.09 11.49 615.7 13.88 609 17.81 607.11 19.39 598.36 13.83 595.34 14.16 589.22 7.55 588.67 2.93 590.37 1 579.67 3.44 578.38 6.84 581.47 12.35 575.24 20.41 568.91 25.36 566.21 18.52 559.33 19.52 553.45 26.7 541.41 29.83 538.97 31.93 531.72 30.62 530.14 31.72 521.84 30.67 514.72 21.37 502.65 22.48 495.79 16.58 493.19 14.59 490.63 15.76 486.65 9.15 481.48 10.72 477.23 7.58 472.98 17.61 467.32 26.26 466.15 21.94 461.9 24.9 460.29 33.44 465.11 47.14 470.04 46.79 465.46 52.36 467.11 59.86 463.16 68.52 460.18 76.23 459.93 82.6 452.61 83.83 447.91 81.58 445.52 72.6 440.78 73.03 437.14 81.01 430.3 86.15 429.72 90.87 422.99 96.34 419.79 103.21 411.86 111.47 408.45 127.06 407.14 137.15 401.14 145.6 393.15 149.78 392.89 153.18 386.07 151.55 383.68 153.91 378.08 160.14 380.02 162.08 386.97 173.08 394.19 179.74 392.12 185.64 401.41 180.66 410.15 179.55 417.3 183.37 420.22 189.47 421.03 187.09 428.25 181.17 429.91 178.51 432.99 180.32 437.77 186.15 439.99 189.94 436.34 197.56 436.28 203.7 433.94 211.18 426.78 222.21 429.95 225.03 425.73 230.27 421.61 228.33 416.67 228 402.53 225.18 393.61 217.01 389.11 214.18 381.58 219.88 382.96 224.83 382.31 231.18 373.66 238.66 373.28 242.97 371.17 246.81 373.01 249.2 377.43 249.47 387.83 250.97 389.5 259.91 390.47 271.62 387.58 274.92 379.91 282.06 374.94 286.45 377.91 284.48 381.52 286.17 387.67 281.43 396.19 276.57 397.28 274.42 400.85 273.54 408.12 281.13 412.11 279.14 417.89 273.96 418.99 275.31 426.81 286.79 427.02 287.99 431.23 291.52 435.09 290.44 438.17 292.22 442.96 289.89 447.69 293.27 449.72 299.89 449.55 297.91 456.85 304.12 459.01 303.03 466 310.71 465.42 315.12 469.46 313.01 478.08 308.93 483.86 308.95 491.12 307.47 495.4 313.3 495.14 311.36 498.22 305.11 500.3 304.24 508.47 300.79 513.57 294.52 517.84 293.29 522.16 288.75 524.57 284.46 524.01 282.36 518.4 276.34 514.75 266.83 518.7 267.68 526.49 269.35 531.22 262.64 533.43 258.85 532.55 247.62 535.1 239.65 544.5 238.27 547.29 240.49 551.93 250.98 548.7 253.25 561.63 248.51 567.5 249.26 571.08 245.26 573.35 233.62 572.66 235.38 582.72 230.65 589.32 226.6 597.19 219.64 604.7 211.31 603.76 200.07 615.27 203.19 621.17 202.47 625.88 199.65 629.15 Z" id="DE-NW" data-name="Nordrhein-Westfalen"/>
<path d="M 284.63 779.78 297.06 779.46 300.57 771.97 307.78 769.66 310.2 771.06 312.18 761.89 302.3 758.67 302.18 754.15 305.63 751.44 309.87 751.74 317.74 750.16 322.42 752.39 331.85 753.24 329.88 763.12 338.33 764.7 343.98 760.03 347.4 764.24 347.59 769.33 351.8 775.18 355.94 783.11 356.5 792.31 363.76 792.5 367.77 788.63 373.15 788.33 374.43 799.14 376.94 805.35 372.65 807.33 372.42 811.06 375.33 814.07 375.96 819.92 374.57 823.23 374.84 829.24 381.09 835.94 384.97 836.94 383.91 842.25 385.94 849.9 392.88 852.13 394.54 855.84 398.18 858.84 402.73 867.83 400.45 882.5 400.45 890.74 402.73 891.53 405.15 896.33 401.38 899.85 398.97 896 395.03 900.58 387.99 895.8 385.59 898.75 389.3 908.36 389.46 918.5 384.89 919.25 383.86 921.91 375.4 927.08 373.66 924.32 367.96 926.24 360.35 938.17 362.38 939.91 366.76 948.19 371.57 968.68 373.9 974 373.38 983.43 369.62 993.14 371.58 996.06 370.59 1003.84 373.32 1011.81 369.03 1015.63 372.33 1019.3 373.49 1028.46 365 1029.48 357.98 1032.14 350.26 1030.16 341.16 1037.19 334.74 1038.36 328.29 1041.41 323.23 1048.5 322.65 1048.27 298.78 1033.35 292.14 1032.57 290.96 1030.72 276.44 1029.63 273.41 1031.79 266.83 1033.13 262.11 1030.61 260.22 1025.97 255.04 1024.2 250.37 1027.6 248.92 1023.86 250.6 1020.77 243.22 1015.94 236.54 1013.8 234.65 1017.31 228.31 1018.63 226.07 1023.9 221.98 1027.92 223.81 1031.94 227.84 1034.67 233.18 1032.42 239.62 1032.31 238.11 1040.47 235.97 1040.23 233.42 1037 228.14 1039.03 224.6 1042.26 218.77 1042.27 214.61 1040.83 209.8 1036.98 203.53 1037.78 195.54 1044.04 191.62 1044.92 180.3 1044.92 179.08 1041.39 172.24 1040.43 169.28 1044.58 164.21 1046.22 157.21 1046.09 158.32 1040.27 151.91 1041.81 152.28 1038.8 146.32 1030.72 145.45 1025.95 147.71 1022.78 146.68 1016.13 151.81 995.72 154.96 991.69 154.77 987.63 151.01 980.98 151.55 972.16 154.29 964.61 159.79 956.88 162.04 947.36 165.05 945.33 166.35 941.57 165.16 934.85 168.48 922.83 171.71 920.03 170.68 916.34 171.43 907.46 175.1 901.71 183.46 894.69 185.34 888.7 196.89 880.23 200.84 869.32 205.34 862.1 207.99 861.13 212.63 855.24 219.03 842 221.08 827.98 229.72 817.02 228.15 813.49 231.27 806.4 230.94 797.55 228.3 794.44 223.49 782.46 224.23 779.2 227.09 778.01 231.31 780.02 237.23 786.2 241.69 783.55 240 775.66 246.4 773.41 250.46 784.26 260.06 789.49 265.46 789.04 264.28 793.15 260.13 794.49 259.04 802.96 261.61 803.75 270.26 795.88 268.93 791.98 271.32 789.37 278.05 789.69 280.93 787.39 284.63 779.78 Z" id="DE-BW" data-name="Baden-Württemberg"/>
<path d="M 771.78 510.31 768 510.14 762.08 507.28 754.59 508.07 743.09 513.86 739.73 514.64 733.66 511.5 724.07 512.27 719.49 515.2 716.09 519.68 714.08 526.08 707.67 535.69 704.89 535.39 689.92 537.26 676.69 536.23 668.62 534.61 663.04 529.02 658.96 527.01 645.16 532.06 640.45 525.42 641.53 517.3 638.13 506.76 628.57 499.91 630.36 496.64 636.3 491.8 639.01 486.79 636.89 481.17 637.43 475.47 643.82 466.11 639.27 465.18 628.96 466.51 618.95 458.85 612.05 458.01 609.63 453.94 605.33 453.3 594.19 446.49 589.05 450.59 585.03 449.7 576.76 442.66 572.78 444.06 567.93 440.03 567.61 437.54 562.19 430.17 558.83 427.53 553.48 418.22 557.74 409.9 554.34 406.12 554.14 402.15 556.52 396.54 557.65 382.83 561.11 376.85 561.24 373.7 556.17 369.3 549.17 371.73 550.25 355.09 553.97 354.36 556 347.33 552.78 340.31 553.3 334.09 556.45 329.18 553.84 322.03 545.83 321.93 544.24 318.32 533.15 319.25 521.51 313.03 515.51 303.37 509.53 304.98 508.35 300.9 499.71 296.46 485.39 290.95 480.93 293.39 477.62 292.17 472.96 285.63 483.42 286.98 483.83 283.37 488.03 282.69 492.77 285.4 497.43 281.49 495.73 272.93 501.3 268.23 510.05 266.62 513.89 271.39 522.15 269.81 526.08 263.7 532.58 262.34 537.18 259.16 538.13 254.86 541.7 250.92 552.42 249.05 555.86 252.85 565.68 256.73 573.59 263.69 580.74 263.08 591.63 266.06 593.98 268.46 600.54 270.09 600.88 273.85 606.62 273.85 611.57 275.78 615.02 275 621.06 278.74 623.29 278.36 636.61 265.03 643.27 268.83 645.38 262.54 647.78 260.88 658.53 262.79 665.03 257.85 670.12 245 676.05 242.85 684.93 233.5 693.59 232.14 691 226.2 698.87 228.72 699.01 231.91 703.34 240.55 714.62 240.48 718.64 241.69 722.57 238.73 731.37 240.55 731.1 247.14 726.63 255.31 719.32 260.27 719.24 263.11 731.92 265.05 738.42 257.8 744.31 254.15 745.89 263.12 748.7 266.12 743.15 277.06 744.16 283.58 740.14 295.62 732.34 302.53 722.83 308.46 724.25 320.47 721.04 324.23 723.55 327.45 729.06 328.94 743.52 340.43 747.85 347.91 752.92 353.01 758.13 355.08 763.18 360.78 766.39 363.58 763.27 372.04 765.3 375.05 761.75 381.76 757.24 385.75 757.73 391.42 763.06 406.58 770.92 409.75 772.24 415.16 770 428.56 776.53 434.85 774.27 438.06 771.11 446.76 770.8 455.39 767.12 462.85 762.13 467.95 761.25 473.38 765.46 478.29 766.7 485.57 772.89 491.41 775.01 501.09 771.78 510.31 Z M 677.72 376.44 679.65 370.06 672.74 365.51 667.01 358.81 666.7 353.78 663.99 351.18 656.26 356.5 651.63 356.65 649.29 352.91 642.42 356.54 641.27 362.17 636.91 360.23 635.47 371.11 636.85 374.44 633.35 378.02 633.38 382.95 631.22 386.92 636.82 389.32 641.84 386.44 644.8 388.15 648.82 386.72 653.3 387.82 655.91 390.79 663.08 386.48 665.37 389.07 669.17 388.17 678.68 392.3 679.14 396.75 684.6 392.55 684.53 389.18 688.57 381.69 681.05 376.05 677.72 376.44 Z" fill-rule="evenodd" id="DE-BB" data-name="Brandenburg"/>
<path d="M 414.39 248.63 416.21 245.83 417.36 237.91 422.51 235.73 433.46 227.73 434.15 220.02 445.13 220.21 443.86 211.02 445.18 207.1 443.71 202.8 435.75 199.29 432.2 194.49 428.29 193.68 429.16 186.81 427.45 179.46 428.49 176.22 439.11 168.23 440.92 162.01 446.02 158.43 453.75 155.01 464.34 153.6 466.89 157.86 470.46 159.46 470.25 164.38 480.28 165.02 489.05 168.6 492.44 158.96 491.9 155.92 499.02 150.48 503.02 144.81 503.53 139.98 506.37 135.16 512.54 132.74 519.81 134.03 540.56 129.56 545.63 129.1 552.42 120.11 561.34 115.38 565.93 111.08 574.31 97.35 579.85 85.71 587.64 88.98 612.72 89.42 611.95 94.21 602.63 93.41 596.62 91.69 590.49 93.3 582.81 99.16 575.74 97.91 570.69 103.94 567.71 110.14 569.24 115.08 577.28 110.14 577.82 106.91 595.11 97.91 599.16 99.53 604.91 99.07 607.69 103.28 612.41 101.89 614.83 96.78 623.97 91.03 626.72 97.91 631.52 100.87 629.88 103.82 633.21 114.65 648.34 121.46 651.21 127.38 658.33 130.49 663.69 141.66 664.92 137.69 675.67 135.57 682.7 131.32 693.55 140.74 689.2 151.67 697.22 161.6 702.07 164.7 700.69 169.15 694.46 174.31 694.33 178.01 698.31 179.74 708.88 189.66 719.49 194.17 726.49 194.69 729.98 191.91 733.28 192.95 733.23 200.55 732.97 206.99 736.11 215.57 736.73 228.65 741.58 238.08 744.31 254.15 738.42 257.8 731.92 265.05 719.24 263.11 719.32 260.27 726.63 255.31 731.1 247.14 731.37 240.55 722.57 238.73 718.64 241.69 714.62 240.48 703.34 240.55 699.01 231.91 698.87 228.72 691 226.2 693.59 232.14 684.93 233.5 676.05 242.85 670.12 245 665.03 257.85 658.53 262.79 647.78 260.88 645.38 262.54 643.27 268.83 636.61 265.03 623.29 278.36 621.06 278.74 615.02 275 611.57 275.78 606.62 273.85 600.88 273.85 600.54 270.09 593.98 268.46 591.63 266.06 580.74 263.08 573.59 263.69 565.68 256.73 555.86 252.85 552.42 249.05 541.7 250.92 538.13 254.86 537.18 259.16 532.58 262.34 526.08 263.7 522.15 269.81 513.89 271.39 510.05 266.62 501.3 268.23 495.73 272.93 497.43 281.49 492.77 285.4 488.03 282.69 483.83 283.37 483.42 286.98 472.96 285.63 468.66 280.48 466.02 282.24 461.58 277.63 456.88 281.76 443.02 269.52 435.11 264.91 429.52 259.07 426.42 257.87 425.73 251.52 420.85 248.36 414.39 248.63 Z M 728.54 165.38 727.73 174.29 717.86 175.43 714.46 174.11 709.89 177.89 699.39 179.32 694.74 176.21 704.3 171.16 704.94 166.89 701.71 160.74 701.94 156.94 707.87 157.86 709.16 161.98 713.76 163.1 714.72 155.52 711.5 153.89 708.66 147.91 705.56 146.39 701.29 154.45 699.49 150.87 694.85 150.65 693.38 138.96 688.75 133.54 694.14 130.49 697.71 138.71 700.02 141.07 711.7 147.37 728.54 165.38 Z M 481.8 158.96 483.08 155.59 489.84 151.68 492.44 152.89 489.86 160.61 484.54 160.97 481.8 158.96 Z M 683.99 97.91 687.79 104.13 685.18 106.91 680.65 107.22 675.37 103.94 666.7 104.96 660.54 110.03 658.55 113.87 660.03 121.69 653.41 120.99 641.49 115.27 638.65 110.14 633.26 105.98 636.17 100.12 641.03 100.87 645.06 98.68 639.03 88.79 645.79 86.48 639.34 80.51 637.68 74.34 644.35 73.35 648.29 75.76 652.25 70.78 655.83 77.91 662.86 83.62 666.7 82.39 668.53 78.2 666.7 73.17 661.63 73.17 655.34 64.91 646.99 72.6 644.94 70.27 648.49 59.73 645.28 56.95 657.22 53.47 661.95 55.62 657.23 59.13 657.55 66.07 663.8 70.21 675.08 68.03 678.96 68.89 682.16 75.68 673.3 85.97 676.26 94.66 683.99 97.91 Z" fill-rule="evenodd" id="DE-MV" data-name="Mecklenburg-Vorpommern"/>
<path d="M 232.6 212.73 242.38 214.51 243.58 227.46 240.42 231.29 236.45 226.98 237.19 223.06 232.6 212.73 Z M 237.08 271.94 239.32 271.42 246.86 275.06 252.84 274.88 256.17 278.16 259.66 278.3 267.37 282.47 274.12 289.1 272.62 295.05 267.55 299.1 263.33 296.91 259.73 297.59 255.59 294.94 249.09 295.26 249.12 291.1 243.48 283.78 241.14 276.55 237.08 271.94 Z" fill-rule="evenodd" id="DE-HB" data-name="Bremen"/>
<path d="M 339.48 219.26 341.89 210.96 347.13 215.64 355.72 208.54 361.53 207.69 363.23 204.52 367.72 203.37 370.13 197.58 374.43 198.59 379.87 206.01 381.44 210.3 380.39 217.54 377.12 219.09 378 225.66 389.26 236.49 390.6 239.75 385.21 240.56 383.08 243.55 378.29 243.88 369.28 237.08 365.42 238.22 360.77 242.32 354.16 241.88 349.62 239.72 345.56 235.4 341.89 228.7 341.5 222.91 339.48 219.26 Z" id="DE-HH" data-name="Hamburg"/>
<path d="M 366.84 652.13 362.12 661.45 354.94 666.19 349.77 668.21 344.56 665.4 341.74 667.78 339.66 675.29 340.16 680.96 334.22 684.51 332.55 690.66 328.28 692.04 319.48 690.4 318.44 698.49 320.88 700.29 319.1 707.82 310.4 709.96 308.43 706.35 303.65 703.58 294.91 702.97 288.27 707.25 284.39 705.47 275.89 709.35 274.33 716.28 277.33 716.63 277.32 735.01 280.38 744.14 283.09 744.15 284.02 750.01 287.76 756.77 286.6 763.53 283.66 764.82 284.69 771.09 281.32 774.98 284.63 779.78 280.93 787.39 278.05 789.69 271.32 789.37 268.93 791.98 270.26 795.88 261.61 803.75 259.04 802.96 260.13 794.49 264.28 793.15 265.46 789.04 260.06 789.49 250.46 784.26 246.4 773.41 240 775.66 241.69 783.55 237.23 786.2 231.31 780.02 227.09 778.01 224.23 779.2 219.33 767.78 220.95 761.59 226.17 759.42 229.19 755.25 224.84 753.93 221.06 743.77 217.55 737.23 218.86 732.55 217.14 727.95 207.8 717.31 203.07 716.28 192.17 719.99 188.79 722.57 180.86 726.02 177.34 726.14 174.87 721.03 168.04 715.23 174.26 710.52 175.28 706.78 178.92 706.11 178.96 701.45 181.17 695.32 187.36 691.47 191.6 690.73 191.93 686.71 196.31 686.89 198.62 684.72 197.29 680.2 189.88 669.56 186.21 668.64 187.98 662.56 187.97 653.19 191.56 648.31 197.27 650.76 200.01 648.45 202.21 642.64 198.53 634.41 199.65 629.15 202.47 625.88 203.19 621.17 200.07 615.27 211.31 603.76 219.64 604.7 226.6 597.19 230.65 589.32 235.38 582.72 233.62 572.66 245.26 573.35 249.26 571.08 248.51 567.5 253.25 561.63 250.98 548.7 240.49 551.93 238.27 547.29 239.65 544.5 247.62 535.1 258.85 532.55 262.64 533.43 269.35 531.22 267.68 526.49 266.83 518.7 276.34 514.75 282.36 518.4 284.46 524.01 288.75 524.57 293.29 522.16 294.52 517.84 300.79 513.57 304.24 508.47 305.11 500.3 311.36 498.22 313.3 495.14 318.03 497.52 329.26 497.89 331.65 500.45 333.44 507.73 328.94 508.68 326.95 514.41 329.92 521.52 330.58 528.78 324.06 532.17 324.56 538.04 334.42 541.86 336.93 545.12 341.34 542.64 337.12 535.05 343.94 531.34 345.33 528.99 351.21 532.13 353.85 529.48 357.63 532.54 355.38 535.54 357.44 543.39 360.65 545.92 366.32 547.2 369.12 554.62 377.09 557.01 382.09 560.03 380.2 564.64 373.74 566.04 376.47 569.34 374.44 577.94 378.86 579.38 380.21 582.7 378.4 586.18 372.77 584.47 366.5 584.61 364.1 588.06 365.65 593.75 362.59 596.51 366.92 601.8 363.68 608.83 357.64 611.1 357.37 616.42 354.49 627.97 351.4 634.71 357.11 636.97 357.78 632.08 361.84 630.22 366.58 631.14 368.66 637.67 366.04 639.94 366.84 652.13 Z" id="DE-HE" data-name="Hessen"/>
<path d="M 559.18 573.98 564.79 573.42 578.25 577.51 578.93 581.64 583.66 589.56 588.57 592.16 592.49 599.41 588.53 602.66 582.07 602.64 576.44 605.39 573.09 609.84 569 609.44 564.95 612.32 558.61 614.23 561 617.42 557.84 621.1 560.42 629.75 564.16 630.53 558.17 637.08 552.42 637.07 549.97 640.18 548.81 645.83 543.21 646 540.38 650.07 535.23 648.08 529.69 655.98 531.58 659.56 527.91 666 521.25 669.29 517.41 666.12 503.17 669.87 498.7 668.81 495.38 671.02 491.29 668.14 490.64 664.31 485.76 662.19 486.28 652.6 479.28 651.83 476.63 655.42 470.74 658.14 471.65 667.63 473.5 673.72 471.65 679.36 471.32 685.14 465.84 685.59 460.88 680.44 462.58 678.5 459.18 673.01 453.42 675.21 447.14 674.15 444.17 669.8 438.89 669.12 430.72 669.95 427.73 673.99 424.54 674.67 424.29 678.72 429 682.71 434.99 685.58 431.56 688.77 425.73 689.57 425.3 693.91 415.76 692.01 413.74 685.63 413.62 678.6 410.13 673.7 405.55 674.42 401.17 668.19 397.34 668.62 396.82 664.93 391.41 659.33 389.79 655.44 382.77 653.01 378.44 647.66 371.59 646.8 366.84 652.13 366.04 639.94 368.66 637.67 366.58 631.14 361.84 630.22 357.78 632.08 357.11 636.97 351.4 634.71 354.49 627.97 357.37 616.42 357.64 611.1 363.68 608.83 366.92 601.8 362.59 596.51 365.65 593.75 364.1 588.06 366.5 584.61 372.77 584.47 378.4 586.18 380.21 582.7 378.86 579.38 374.44 577.94 376.47 569.34 373.74 566.04 380.2 564.64 382.09 560.03 377.09 557.01 369.12 554.62 366.32 547.2 360.65 545.92 357.44 543.39 355.38 535.54 357.63 532.54 366.03 525.52 375.08 525.56 379 518.91 382.9 519.93 387.68 516.94 393.79 510.09 394.68 504.02 398.76 503.16 406.81 508.15 410.97 507.99 418.99 505.07 416.82 501.89 422.78 496.78 431.99 497.46 444.36 502.76 441.39 506.07 444.55 513.43 446.65 521.24 446.01 526.11 449.02 528.78 466.18 530.36 476.51 532.33 481.06 535.93 488.44 547.91 485.87 551.77 479.78 553.67 479.09 557.24 482.93 559.25 485.68 563.45 486.3 571.9 493.03 573.22 495.69 571.69 509.09 572.86 512.87 583.17 524.02 582.45 530.18 585.85 536.55 592.63 542.06 591.65 546.63 593.25 550.03 592.22 553.63 595.55 560.12 584.23 557.6 581.07 559.18 573.98 Z" id="DE-TH" data-name="Thüringen"/>
<path d="M 628.57 499.91 623.96 496.88 615.78 495.03 613.72 492.19 604.19 498.24 598.42 496.67 593.79 501.82 583.6 502.59 574.75 501.82 573.63 505.88 567.17 506.54 562.78 508.71 556.64 507.33 553.16 512.01 552.75 520.2 549.82 523.16 551.96 540.49 547.67 545.09 550.16 552.76 552.18 562.84 551.78 566.62 555.53 573.26 559.18 573.98 557.6 581.07 560.12 584.23 553.63 595.55 550.03 592.22 546.63 593.25 542.06 591.65 536.55 592.63 530.18 585.85 524.02 582.45 512.87 583.17 509.09 572.86 495.69 571.69 493.03 573.22 486.3 571.9 485.68 563.45 482.93 559.25 479.09 557.24 479.78 553.67 485.87 551.77 488.44 547.91 481.06 535.93 476.51 532.33 466.18 530.36 449.02 528.78 446.01 526.11 446.65 521.24 444.55 513.43 441.39 506.07 444.36 502.76 431.99 497.46 422.78 496.78 420.29 492.22 419.86 486.97 415.95 479.76 413 477.03 412.55 467.6 417.75 462.15 415.41 456.37 417.91 452.34 413.43 449.07 412.54 444.24 416.16 444.21 419.57 439.37 436.07 438.59 444.36 437.54 444.55 431.97 452.43 427.05 453.83 421.84 450.78 419.22 452.36 415.72 456.32 413.78 450.38 404.92 452.03 402.21 449.03 397.08 454.65 395.46 455.45 392.84 450.03 388.38 443.79 380 444.75 375.67 449.25 374.85 445.07 368.08 444.98 361.23 439.08 352.89 434.9 344.44 431.77 342.69 427.94 333.48 428.38 326 439.13 324.74 445.67 322.14 450.37 315.4 458.38 317.03 467.69 317.44 472.11 320.35 485 316.18 490.05 311.32 492.8 310.73 493.22 302.5 498.01 301.21 499.71 296.46 508.35 300.9 509.53 304.98 515.51 303.37 521.51 313.03 533.15 319.25 544.24 318.32 545.83 321.93 553.84 322.03 556.45 329.18 553.3 334.09 552.78 340.31 556 347.33 553.97 354.36 550.25 355.09 549.17 371.73 556.17 369.3 561.24 373.7 561.11 376.85 557.65 382.83 556.52 396.54 554.14 402.15 554.34 406.12 557.74 409.9 553.48 418.22 558.83 427.53 562.19 430.17 567.61 437.54 567.93 440.03 572.78 444.06 576.76 442.66 585.03 449.7 589.05 450.59 594.19 446.49 605.33 453.3 609.63 453.94 612.05 458.01 618.95 458.85 628.96 466.51 639.27 465.18 643.82 466.11 637.43 475.47 636.89 481.17 639.01 486.79 636.3 491.8 630.36 496.64 628.57 499.91 Z" id="DE-ST" data-name="Sachsen-Anhalt"/>
<path d="M 677.72 376.44 681.05 376.05 688.57 381.69 684.53 389.18 684.6 392.55 679.14 396.75 678.68 392.3 669.17 388.17 665.37 389.07 663.08 386.48 655.91 390.79 653.3 387.82 648.82 386.72 644.8 388.15 641.84 386.44 636.82 389.32 631.22 386.92 633.38 382.95 633.35 378.02 636.85 374.44 635.47 371.11 636.91 360.23 641.27 362.17 642.42 356.54 649.29 352.91 651.63 356.65 656.26 356.5 663.99 351.18 666.7 353.78 667.01 358.81 672.74 365.51 679.65 370.06 677.72 376.44 Z" id="DE-BE" data-name="Berlin"/>
</g>
</svg>