<?xml version="1.0"?>
<svg xmlns="http://www.w3.org/2000/svg" version="1.2" baseProfile="tiny" width="800" height="522" viewBox="0 0 800 522" stroke-linecap="round" stroke-linejoin="round">
<g id="MLOC-EE">
<path d="M 409.98 390.95 402.51 395.4 399.42 386.68 417.28 358.93 427.57 358.22 427.47 340.3 413.3 330.06 392.47 326.78 395.31 305.93 398.97 303.14 396.57 290.87 402.17 283.73 415.95 275.72 427.31 266.3 426.22 260.41 430.65 255.37 442.03 259.76 453.2 260.1 495.89 241.72 497.98 252.86 493.74 262.46 513.44 264.24 519.98 273.2 525.54 273.82 532.03 284.22 540.48 291.18 544.74 308.44 536.28 320.71 528.8 335.45 529.59 353.69 532.92 376.58 515.12 381.05 505.48 370.98 500.65 383.49 493.78 386.93 483.46 396.47 476.21 397.05 474.75 404.53 467.55 418.81 455.64 410.71 450.93 404.97 438.17 397.29 433.9 404.99 423.56 408.83 419.13 392.98 409.98 390.95 Z" id="EE-84" data-name="Viljandi"/>
<path d="M 430.65 255.37 426.22 260.41 427.31 266.3 415.95 275.72 402.17 283.73 396.57 290.87 398.97 303.14 395.31 305.93 392.47 326.78 413.3 330.06 427.47 340.3 427.57 358.22 417.28 358.93 399.42 386.68 402.51 395.4 391.75 405.4 382.09 406.82 376.42 411.22 364.6 408.78 358.48 419.35 345.6 419.72 339.48 419.94 326.31 430.53 322.84 438.54 310.84 438.13 320.27 410.76 322.43 401.41 330.71 389.79 331.82 370.14 329.58 362.87 331.57 347.2 341.33 338.03 342.82 332.52 338.85 323.34 328.2 314.84 317.84 312.17 309.53 322.31 308.42 331.03 298.84 342.31 291.95 341.01 286.37 349.56 269.84 331.06 254.04 325.97 251.38 322.55 239.74 325.16 236.96 311.62 231.74 303.05 232.61 287.57 230.03 278.78 220.22 276.86 228.43 273.96 240.58 275.72 250.26 273.23 255.37 266.73 255.27 259.25 263.88 256.04 267.86 245.78 275.11 246.24 289.09 238.88 292.66 241.98 318.06 246.42 324.49 244.8 330.39 235.79 338.37 230.41 345.09 236.42 354.66 233.43 359.2 226.83 371.27 229.21 377.63 227.34 385.24 230.58 387.58 245.93 394.59 238.97 406.03 232.42 414.47 234.34 423.27 233.01 433.77 235.95 430.65 255.37 Z M 265.2 380.04 266.71 370.84 274.01 370.44 275.11 376.07 268.64 383.27 265.2 380.04 Z" fill-rule="evenodd" id="EE-67" data-name="Pärnu"/>
<path d="M 467.55 418.81 474.75 404.53 476.21 397.05 483.46 396.47 493.78 386.93 500.65 383.49 505.48 370.98 515.12 381.05 532.92 376.58 554.01 378.28 571.56 365.23 576.63 371.43 589.28 367.08 598.79 377.61 593.66 388.81 591.89 417.44 573.29 421.08 569.84 435.59 574.6 439.03 573.37 452.09 580.23 456.15 577.82 466.07 582.37 479.26 577.47 485.7 582 491.6 577.43 498.34 578.11 510.24 568.13 505.92 557.04 496.39 545.13 476.83 527.05 460.28 524.28 443.38 497.84 441.02 490 425.14 486.67 425.57 473.8 427.72 467.55 418.81 Z" id="EE-82" data-name="Valga"/>
<path d="M 578.11 510.24 577.43 498.34 582 491.6 577.47 485.7 582.37 479.26 577.82 466.07 580.23 456.15 573.37 452.09 574.6 439.03 569.84 435.59 573.29 421.08 591.89 417.44 599.98 421.09 609.8 420.05 620.41 423.46 640.68 421.03 654.66 426.39 655.05 419.85 661.68 417.1 678.85 427.67 684.21 426.28 687.36 432.47 681.09 441.71 690.17 447.31 699.33 443.76 719.73 451.14 712.94 460.7 713.61 474.31 701.03 480.38 697.17 487.96 696.89 501.78 691 505.23 694.14 518.24 689.99 520.93 670.58 513.77 657.48 511.67 650.32 501.53 643.01 497.68 629.43 498.96 624.04 508 612.05 508.14 600.01 515.27 586.78 521 578.11 510.24 Z" id="EE-86" data-name="Võru"/>
<path d="M 737.28 171.91 709.84 196.69 705.88 210.43 644.59 199.14 630.45 192.49 617.76 193.9 615.52 180.57 612.37 177.1 620.77 172.03 625.9 161.43 624.48 156.47 625.67 137.7 640.78 131.48 642.03 118.7 632.21 112.55 630.04 103.85 621.4 106.74 618 96.68 624.44 82.84 615.27 80.41 617 68.32 623.87 67.01 620.26 48.4 622.17 42.8 627.96 49.13 641.9 55.78 664.36 57.77 701.19 55.33 720.58 60.23 739.94 61.45 759.6 66.27 769.69 61.2 777.94 47.94 788.73 58.47 791.69 65.82 799 74.34 789.83 81.62 779.61 82.47 785.18 91.51 770.47 91.22 763.45 95.18 755.72 126.91 748.41 147.49 737.28 171.91 Z" id="EE-44" data-name="Ida-Viru"/>
<path d="M 591.89 417.44 593.66 388.81 598.79 377.61 604.27 372.8 603.94 366.74 610.34 362.54 618.29 364.69 626.12 362.04 632.64 350.45 643.51 348.42 649.35 351.53 652.49 345.26 658.88 347.06 680.41 346.97 683.25 353.79 691.52 355.07 710 361.19 715.1 360.66 722.66 377.02 729.05 385.96 729.19 405.94 733.91 408.83 732.69 422.93 734.42 427.58 747.16 432.81 750.29 439.81 745.78 445.11 737.89 448.37 719.73 451.14 699.33 443.76 690.17 447.31 681.09 441.71 687.36 432.47 684.21 426.28 678.85 427.67 661.68 417.1 655.05 419.85 654.66 426.39 640.68 421.03 620.41 423.46 609.8 420.05 599.98 421.09 591.89 417.44 Z" id="EE-65" data-name="Põlva"/>
<path d="M 532.92 376.58 529.59 353.69 528.8 335.45 536.28 320.71 544.74 308.44 540.48 291.18 553.54 288.05 564.63 279.84 581.24 280.6 587.88 277.65 601.6 282.19 607.52 272.44 614.62 275.48 626.06 272.7 632.38 255.4 642.04 260.95 651.44 262.83 651.46 252.06 661.18 245.01 703.69 236.97 719.54 312.65 711.9 330.79 710.48 342.97 715.1 360.66 710 361.19 691.52 355.07 683.25 353.79 680.41 346.97 658.88 347.06 652.49 345.26 649.35 351.53 643.51 348.42 632.64 350.45 626.12 362.04 618.29 364.69 610.34 362.54 603.94 366.74 604.27 372.8 598.79 377.61 589.28 367.08 576.63 371.43 571.56 365.23 554.01 378.28 532.92 376.58 Z" id="EE-78" data-name="Tartu"/>
<path d="M 540.48 291.18 532.03 284.22 525.54 273.82 519.98 273.2 513.44 264.24 493.74 262.46 497.98 252.86 495.89 241.72 502.28 229.14 509.75 222.91 518.34 221.45 519.59 212.45 527.83 207.29 538.25 206.44 537.94 201.22 543.27 193.84 560.99 186.8 575.56 194.24 587.47 181.28 596.19 182.58 612.37 177.1 615.52 180.57 617.76 193.9 630.45 192.49 644.59 199.14 705.88 210.43 701.39 225.96 703.69 236.97 661.18 245.01 651.46 252.06 651.44 262.83 642.04 260.95 632.38 255.4 626.06 272.7 614.62 275.48 607.52 272.44 601.6 282.19 587.88 277.65 581.24 280.6 564.63 279.84 553.54 288.05 540.48 291.18 Z" id="EE-49" data-name="Jõgeva"/>
<path d="M 289.09 238.88 275.11 246.24 267.86 245.78 263.88 256.04 255.27 259.25 255.37 266.73 250.26 273.23 240.58 275.72 228.43 273.96 220.22 276.86 211.72 262.5 208.56 245.67 213.2 233.71 220.05 230.06 234.21 226.85 241.53 231.11 245.07 225.72 245.18 214.78 219.53 216.91 214.03 221.2 205.22 214.84 212.71 210.22 204.85 199.43 199.66 188.6 202.34 179.99 210.69 180.59 220.05 177.67 225.13 173.03 223.82 163.59 212.65 170.26 201.22 165.42 201.23 152.64 211.86 135.79 205.76 114.41 212.65 109.92 218.19 111.45 227.27 103.29 236.91 109.67 246.66 123.29 256.54 128.77 260.77 134.23 275.07 132.85 286.8 140.22 290.92 151.41 285.57 160.5 285.47 170.09 283.5 178.46 295.83 204.15 290.24 210.22 292.54 216.39 281.76 224.44 291.43 232.49 289.09 238.88 Z M 192.32 159.28 196.05 167.26 181.57 173.5 174.63 170.26 165.18 172.68 160.88 161.02 163.05 156.4 172.69 155.58 192.32 159.28 Z" fill-rule="evenodd" id="EE-57" data-name="Lääne"/>
<path d="M 285.47 170.09 285.57 160.5 290.92 151.41 286.8 140.22 275.07 132.85 260.77 134.23 256.54 128.77 246.66 123.29 236.91 109.67 237.56 101.4 241.74 96.84 264.22 97.59 277.18 94.46 283.91 89.72 275.87 78.61 275.12 73.56 282.46 69.28 293.07 79.49 299.17 75 292.84 67.59 310.84 63.44 314.32 50.7 322.6 48.67 335.01 57.32 341.29 52.59 350.93 58.54 360.08 45.65 365.97 56.49 371.72 53.59 374.95 46.07 370.9 38.51 369.53 28.56 373.41 25.95 386.7 40.57 399.67 38.87 407.84 43.17 416.44 33.73 422.55 37.82 449.42 45.65 453.5 35.47 465.21 35.49 460.66 25.86 458.33 5.82 470.47 14.43 476.42 23.47 483.27 27.05 488.52 21.71 484.28 11.51 485.52 1 496.32 9.76 497.98 20.81 503.41 24.47 500.67 38.12 504.87 54.25 509.95 60.36 511.49 72.93 516.96 92.95 514.61 98.64 498.6 94.76 481.92 99.53 459.7 101.72 463.15 114.54 455.81 134.07 459.74 145.39 449.84 148.02 448.12 162.46 438.44 168.25 425.3 159.35 421.34 146.61 405.74 139.54 403.93 135.6 392.66 130.51 386.22 121.33 386 111.07 369.9 115.19 355.85 113.26 347.45 120.56 342.14 133.44 342.32 142.99 333.07 142.08 319.42 145.28 308.84 162.62 293.49 160.79 285.47 170.09 Z" id="EE-37" data-name="Harju"/>
<path d="M 622.17 42.8 620.26 48.4 623.87 67.01 617 68.32 615.27 80.41 624.44 82.84 618 96.68 621.4 106.74 630.04 103.85 632.21 112.55 642.03 118.7 640.78 131.48 625.67 137.7 624.48 156.47 625.9 161.43 620.77 172.03 612.37 177.1 596.19 182.58 587.47 181.28 575.56 194.24 560.99 186.8 543.27 193.84 544.81 183.97 540.93 170.92 529.08 155.39 514.87 150.59 516.27 141.32 525.37 128.19 526.29 122.62 518.5 118.43 513.58 104.9 514.61 98.64 516.96 92.95 511.49 72.93 509.95 60.36 504.87 54.25 500.67 38.12 503.41 24.47 509.22 10.84 516.95 19.95 524.16 10.51 535.38 22.19 559.16 21.78 581.51 32.06 591.42 32.85 597.49 28.56 607.6 30.55 622.17 42.8 Z" id="EE-59" data-name="Lääne-Viru"/>
<path d="M 175.54 286.33 182.83 290.33 188.45 297.98 176.07 301.94 166.21 292.9 162.92 302.03 157.12 304.4 157.44 312.72 149.29 320.33 142.68 321.06 134.28 332.64 124.49 340.44 114.18 341.73 115.91 349.27 104.91 354.22 103.11 348.69 88.02 346.45 73.76 354.19 69.52 352.97 61.4 357.78 54.9 365.49 53.03 384.78 45.86 400.75 44.61 410.76 26.8 427.04 22.84 427.18 16.11 410.71 21.29 409.07 23.4 401.89 31.5 387.31 37.76 388.71 46.25 371.77 38.56 366.63 29.81 365.11 22.84 351.27 11.77 348.59 4.09 343.93 1 334.95 9.17 335.77 13.75 330.98 19.47 314.64 8.28 295.09 11.72 283.07 20.17 284.48 28.8 297.9 35.01 287.97 47.5 276.33 49.51 284.95 55.09 287.01 56.99 270.8 61.22 267.07 78.97 265.11 94.08 255.07 101.33 266.09 106.53 263.32 113.35 266.28 122.79 257.86 133.9 258.51 145.23 262.98 157.98 270.41 165.18 282.31 175.54 286.33 Z M 194.53 268.25 196.87 274.15 192.08 279.68 181.57 276.33 174.68 278.96 163.46 268.25 153.99 262.57 161.74 256.57 165.97 245.06 171.4 243.93 182.8 247.35 190.44 254.93 194.53 268.25 Z" fill-rule="evenodd" id="EE-74" data-name="Saare"/>
<path d="M 57.42 191.88 45.25 193.63 28.58 184.42 27.7 177.88 41.88 178.45 78.97 173.45 82.05 162.34 89.21 159 95.91 144.47 110.56 149.35 107.72 156.29 113.39 165.11 126.04 164.24 138.23 170.24 141.3 184.21 148.43 192.71 151.62 205.12 141.09 203.5 131.37 207.07 132.27 217.32 120.11 219.62 113.39 213.44 106.39 233.42 103.11 238.57 90.62 242.39 78.97 235.26 83.27 230.16 76.4 214.27 76.04 204.97 68.79 195.03 57.42 191.88 Z" id="EE-39" data-name="Hiiu"/>
<path d="M 423.27 233.01 414.47 234.34 406.03 232.42 394.59 238.97 387.58 245.93 385.24 230.58 377.63 227.34 371.27 229.21 359.2 226.83 354.66 233.43 345.09 236.42 338.37 230.41 330.39 235.79 324.49 244.8 318.06 246.42 292.66 241.98 289.09 238.88 291.43 232.49 281.76 224.44 292.54 216.39 290.24 210.22 295.83 204.15 283.5 178.46 285.47 170.09 293.49 160.79 308.84 162.62 319.42 145.28 333.07 142.08 342.32 142.99 342.14 133.44 347.45 120.56 355.85 113.26 369.9 115.19 386 111.07 386.22 121.33 392.66 130.51 403.93 135.6 405.74 139.54 421.34 146.61 425.3 159.35 438.44 168.25 434.18 172.92 436 184.61 428.07 195.72 433.01 201.92 428.37 212.49 423.8 214.54 425.87 226.43 423.27 233.01 Z" id="EE-70" data-name="Rapla"/>
<path d="M 495.89 241.72 453.2 260.1 442.03 259.76 430.65 255.37 433.77 235.95 423.27 233.01 425.87 226.43 423.8 214.54 428.37 212.49 433.01 201.92 428.07 195.72 436 184.61 434.18 172.92 438.44 168.25 448.12 162.46 449.84 148.02 459.74 145.39 455.81 134.07 463.15 114.54 459.7 101.72 481.92 99.53 498.6 94.76 514.61 98.64 513.58 104.9 518.5 118.43 526.29 122.62 525.37 128.19 516.27 141.32 514.87 150.59 529.08 155.39 540.93 170.92 544.81 183.97 543.27 193.84 537.94 201.22 538.25 206.44 527.83 207.29 519.59 212.45 518.34 221.45 509.75 222.91 502.28 229.14 495.89 241.72 Z" id="EE-51" data-name="Järva"/>
</g>
</svg>