<?xml version="1.0"?>
<svg xmlns="http://www.w3.org/2000/svg" version="1.2" baseProfile="tiny" width="800" height="1551" viewBox="0 0 800 1551" stroke-linecap="round" stroke-linejoin="round">
<g id="MLOC-GB">
<path d="M 61.43 893.39 62.27 885.11 66.31 879.88 71.43 879.09 74.97 875.9 82.78 878.8 80.83 881.19 84.28 887.95 86.96 890.56 88.12 896.18 90.55 898.01 91.64 908.13 93.98 911.37 89.23 912.73 86.02 911.61 77.99 901.88 72.62 901.39 73.76 897.66 64.79 897.08 61.43 893.39 Z" id="GB-DRY" data-name="Derry"/>
<path d="M 37.97 940.66 29.38 935.85 22.02 932.81 21.98 929.29 26.9 923.13 32.95 926.61 35.67 926.41 42.65 921.21 45.41 921.97 50.52 919.84 51.18 914.5 57.01 907.22 59.1 901.76 58.76 896.75 61.43 893.39 64.79 897.08 73.76 897.66 72.62 901.39 77.99 901.88 86.02 911.61 89.23 912.73 93.98 911.37 99.45 909.67 101.44 911.33 102.75 916.95 100.45 918.03 94.81 916.71 86 920.65 78.31 920.11 63.48 928.5 57.45 935.55 56.07 934.24 45.68 937.98 42.38 937.78 39.14 941.21 37.97 940.66 Z" id="GB-STB" data-name="Strabane"/>
<path d="M 1 960.2 10.04 955.5 14.35 949.15 23.59 950.72 26.66 949.5 34.66 941.85 37.97 940.66 39.14 941.21 41.02 944.29 46.84 946.67 50.74 946.13 48.35 954.4 49.91 964.95 54.02 968.28 61.04 963.99 65.55 964.8 68.34 968.51 69.43 973.68 72.51 974.02 74.49 978.85 79.6 977.83 78.03 983.64 83.1 989.32 82.5 993.15 76.38 995.44 73.85 999.1 73.65 1004.57 69.4 1008.23 63.48 1007.28 59.52 1003.75 54.48 1006.74 45.92 1004.72 44.02 1000.79 38.23 996.43 27.62 995.88 24.99 992.79 24.67 986.72 22.96 983.62 19.18 982.89 14.35 974.76 8.11 971.69 2 963.58 1 960.2 Z" id="GB-FER" data-name="Fermanagh"/>
<path d="M 79.6 977.83 74.49 978.85 72.51 974.02 69.43 973.68 68.34 968.51 65.55 964.8 69.88 963.91 81.16 959.23 84.75 959.47 87.54 956.05 91.77 954.74 96.99 949.9 97.91 944.56 103.15 946.25 108.95 944.67 117.71 948.06 123.89 946.06 132.72 949.66 128.24 954.01 130.56 960.22 125.87 962.15 122.26 960.12 118.98 962.84 117.51 968.44 111.2 967.17 108.46 977.05 105.25 979.16 101.07 972.73 96.09 968.54 90.86 967.38 84.61 975.89 79.6 977.83 Z" id="GB-DGN" data-name="Dungannon"/>
<path d="M 123.03 1000.09 118.37 996.63 115.3 998.65 108.94 992.04 105.25 979.16 108.46 977.05 111.2 967.17 117.51 968.44 118.98 962.84 122.26 960.12 125.87 962.15 130.56 960.22 137.98 971.96 142.56 969.81 145.01 977.13 144.76 983.66 146.19 985.91 139.37 987.1 126.5 993.97 123.03 1000.09 Z" id="GB-ARM" data-name="Armagh"/>
<path d="M 126.5 1017.78 121.1 1014.5 121.59 1008.16 124.15 1003.32 123.03 1000.09 126.5 993.97 139.37 987.1 146.19 985.91 159.66 990.15 171.45 990.08 170.05 992.26 172.51 1000.45 177.81 997.36 181.12 999.38 185.85 998.65 184.47 1007.34 182.16 1011.37 171.84 1018.88 168.27 1016.07 161.1 1013.7 160.17 1011.19 153.43 1010.47 145.54 1010.55 144.79 1015.21 140.26 1016.3 136.68 1014.6 126.5 1017.78 Z" id="GB-NYM" data-name="Newry and Mourne"/>
<path d="M 409.16 1124.22 414.36 1125.82 422.89 1134.3 419.42 1139.5 416.61 1140.26 406.09 1149.96 400.58 1139.05 395.72 1138.53 391.99 1135.25 388.58 1129.56 388.58 1122.3 385.27 1119.01 387.01 1111.79 389.43 1111.7 395.81 1116.97 406.14 1123.73 409.16 1124.22 Z" id="GB-FLN" data-name="Flintshire"/>
<path d="M 419.42 1139.5 422.89 1134.3 414.36 1125.82 409.16 1124.22 408.25 1120.39 410.6 1117.93 413.92 1119.53 421.86 1118.01 425.46 1120.22 429.71 1118.33 433.97 1118.68 437.2 1119.82 445.82 1119.44 450.52 1117.01 455.36 1114.52 458.07 1120.96 462.38 1124.37 463.29 1127.78 456.94 1139.14 443.78 1146.7 442.64 1152.36 446.5 1155.01 446.23 1160.72 437.81 1163.28 431.51 1160.82 427.95 1156.52 424.19 1145.16 419.42 1139.5 Z" id="GB-CHW" data-name="Cheshire West and Chester"/>
<path d="M 406.09 1149.96 416.61 1140.26 419.42 1139.5 424.19 1145.16 427.95 1156.52 431.51 1160.82 437.81 1163.28 438.31 1169.72 433.65 1172.06 428.15 1167.18 421.33 1167.58 415.63 1165.5 409.5 1169.79 405.64 1174.8 406.16 1178.14 403.73 1181.47 404.67 1185.92 396.5 1188.21 391.88 1181.86 386.08 1178.8 384.58 1176.48 390.96 1167.77 399.85 1167.08 408.34 1163.65 404.61 1159.19 406.09 1149.96 Z" id="GB-WRX" data-name="Wrexham"/>
<path d="M 437.81 1163.28 446.23 1160.72 449.84 1165.01 453.9 1165.86 461.64 1163.49 465.82 1160.21 466.1 1165.53 462.58 1167.3 460.15 1174.07 461.35 1176.4 466.86 1174.25 464.39 1182.57 448.98 1189.73 444.35 1190.93 444.81 1195.88 459.24 1209.65 462.15 1211 470.22 1192.37 472.7 1201.32 477.65 1202.78 477.21 1210.28 471.3 1213.07 476.07 1216.89 475.76 1222.71 472.26 1228.36 473.26 1232.43 468.09 1235.18 469.94 1239.66 464.87 1240.46 463.29 1243.13 454.06 1246.23 451.63 1250.32 448.24 1250.75 444.78 1247.21 440.43 1250.97 436.33 1248.23 431.73 1240.9 428.88 1239.44 421.34 1245.57 419.37 1246.03 410.28 1245.32 399.95 1236.65 398.68 1233.24 400.67 1229.23 407.3 1225.93 413.47 1225.54 417.85 1220.11 415.52 1216.24 409 1221.29 405.99 1216.35 412.72 1205.75 415.16 1197.26 419.04 1194.22 416.07 1191.26 411.33 1189.92 404.67 1185.92 403.73 1181.47 406.16 1178.14 405.64 1174.8 409.5 1169.79 415.63 1165.5 421.33 1167.58 428.15 1167.18 433.65 1172.06 438.31 1169.72 437.81 1163.28 Z" id="GB-SHR" data-name="Shropshire"/>
<path d="M 384.58 1176.48 386.08 1178.8 391.88 1181.86 396.5 1188.21 404.67 1185.92 411.33 1189.92 416.07 1191.26 419.04 1194.22 415.16 1197.26 412.72 1205.75 405.99 1216.35 409 1221.29 415.52 1216.24 417.85 1220.11 413.47 1225.54 407.3 1225.93 400.67 1229.23 398.68 1233.24 399.95 1236.65 410.28 1245.32 419.37 1246.03 415.99 1251.94 415.75 1257.08 411.6 1260.6 407.3 1268.12 408.96 1272.3 406.01 1280.81 408.92 1283.94 411.83 1292.84 410.82 1298.73 413.14 1305.53 408.83 1312.93 403.36 1315.31 393.94 1314.8 392.75 1317.58 389.15 1318.01 383.43 1313.11 381.01 1314.55 377.52 1317.97 372.04 1320.13 369.08 1323.03 363.9 1319.38 354.66 1322.19 351.72 1318.62 355.55 1310.58 358.84 1306.08 358.95 1299.5 360.82 1297.43 360.1 1292.14 364.27 1286.6 362.36 1280.87 358.9 1279.39 356.44 1274.81 355.53 1267.36 356.96 1256.95 359.66 1254.87 357.25 1248.97 362.78 1246.27 358.14 1235.64 354.86 1233.37 357.76 1225.28 350.67 1227.59 349.38 1220.81 346.28 1217.73 341.49 1218.11 348.68 1212.04 349.02 1206.53 351.96 1202.05 359.86 1201.86 367.66 1199.29 370.05 1194.65 368 1187.51 369.58 1182.9 376.54 1180.83 378.21 1177.2 384.58 1176.48 Z" id="GB-POW" data-name="Powys"/>
<path d="M 419.37 1246.03 421.34 1245.57 428.88 1239.44 431.73 1240.9 436.33 1248.23 440.43 1250.97 444.78 1247.21 447.5 1259.08 453.9 1258.91 457 1256.05 459.48 1260.6 463.61 1263.8 463.3 1270.2 468.15 1276.76 468.01 1288.87 461.75 1291.42 459.23 1288.12 457.58 1296.16 461.4 1301.7 461.35 1304.15 455.62 1306.32 444.17 1313.93 437.73 1311.72 433.96 1306.96 426.1 1299.91 419.76 1302.58 411.83 1292.84 408.92 1283.94 406.01 1280.81 408.96 1272.3 407.3 1268.12 411.6 1260.6 415.75 1257.08 415.99 1251.94 419.37 1246.03 Z" id="GB-HEF" data-name="Herefordshire"/>
<path d="M 403.36 1315.31 408.83 1312.93 413.14 1305.53 410.82 1298.73 411.83 1292.84 419.76 1302.58 426.1 1299.91 433.96 1306.96 437.73 1311.72 444.17 1313.93 441.98 1318.44 441.34 1326.29 443.11 1332.84 441.36 1334.98 442.82 1340.38 438.98 1344.34 432.16 1347.32 427.74 1344.63 432.1 1339.71 429.19 1336.19 424.25 1339.24 419.05 1339.06 417.85 1328.45 414.21 1326.11 412.03 1318.83 405.63 1317.41 403.36 1315.31 Z" id="GB-MON" data-name="Monmouthshire"/>
<path d="M 444.17 1313.93 455.62 1306.32 461.35 1304.15 461.4 1301.7 457.58 1296.16 459.23 1288.12 461.75 1291.42 468.01 1288.87 471.52 1294.13 477.43 1295.36 479.53 1291.89 484.73 1289.87 493.76 1290.7 498.57 1287.29 510.06 1286.2 511.17 1281.7 515.68 1276.88 519.04 1279.6 522.37 1286.63 527.36 1287.22 524.13 1292.78 523.78 1296.02 527.32 1299.6 524.64 1302.41 522.26 1309.53 520.92 1321.58 522.24 1329.07 521.66 1332.44 516.33 1335.01 509.65 1335.29 501.05 1334.46 500.35 1337.44 491.64 1334.32 488.11 1340 484.28 1343.98 480.84 1342.83 474.42 1345.56 472.12 1341.75 465.39 1342.22 465.79 1337.99 453.24 1333.17 449.53 1332.04 442.82 1340.38 441.36 1334.98 443.11 1332.84 441.34 1326.29 441.98 1318.44 444.17 1313.93 Z" id="GB-GLS" data-name="Gloucestershire"/>
<path d="M 494.4 771.73 489.93 773.89 488.84 778.63 483.16 783.53 476.74 793.91 471.61 794.6 469.95 797.43 473.85 802.56 475.62 808.18 481.55 820.52 479.26 824.65 470.13 829.62 467.37 834.65 459.08 834.95 451.95 841.45 445.99 848.75 445.55 854.26 441.24 858.84 438.51 862.16 430.2 866.66 427.97 870.02 424.82 863.85 425.24 857.29 426.88 854.94 426.18 848.84 420.36 845.16 416.15 847.94 413.18 847.27 407.56 836.11 402.77 836.46 399.29 833.28 393.07 837.68 391.59 831.48 396.57 826.69 390.54 823.94 388.25 827.67 380.33 828.73 375.78 827.98 373.02 823.98 374.82 816.31 377.01 813.08 376.83 806.66 373.64 800.98 377.57 799.28 377.45 794.11 384.28 785.68 380.96 784.18 379.19 776.85 384.21 770.04 387.03 770.85 397.48 775.9 401.16 772.29 406.24 785.09 410.03 779.46 420.54 770.35 421.37 774.51 425.09 774.23 430.33 769.42 433.56 767.05 437.16 768.52 443.69 765.62 448.46 768.56 453.44 764.47 462 763.39 461.24 758.9 467.3 750.67 471.52 753.2 484.44 755.74 485.89 759.68 489.8 762.6 494.4 771.73 Z" id="GB-SCB" data-name="Scottish Borders"/>
<path d="M 441.24 858.84 445.55 854.26 445.99 848.75 451.95 841.45 459.08 834.95 467.37 834.65 470.13 829.62 479.26 824.65 481.55 820.52 475.62 808.18 473.85 802.56 469.95 797.43 471.61 794.6 476.74 793.91 483.16 783.53 488.84 778.63 489.93 773.89 494.4 771.73 506.04 787.51 510.55 795.83 514.81 795.05 516.49 798.28 520.39 799.16 525.87 803.12 525.87 809.91 529.56 817.51 529.2 832.67 531.67 839.39 530.75 845.42 534.69 853.42 535.74 858.31 534.6 862.13 537.97 873.65 539.94 875.85 536.88 878.74 531.56 878.46 524.39 876.14 521.21 875.51 520.54 880.99 516.35 885.23 512.28 889.51 510.68 898.94 506.93 906.81 502.63 907.28 496.79 904.52 489.63 909.29 485.82 908.4 483.36 913.04 479.26 916.52 474.35 914.63 471.74 915.87 467.17 912.04 464.12 906.96 456.09 912.81 450.98 910.25 450.76 905.42 448.57 902 452.74 896.38 450.87 891.53 451.27 883.95 457.54 880.14 455.66 873.44 452.3 874.41 448.24 868.29 444.78 867.09 441.24 858.84 Z" id="GB-NBL" data-name="Northumberland"/>
<path d="M 427.97 870.02 430.2 866.66 438.51 862.16 441.24 858.84 444.78 867.09 448.24 868.29 452.3 874.41 455.66 873.44 457.54 880.14 451.27 883.95 450.87 891.53 452.74 896.38 448.57 902 450.76 905.42 450.98 910.25 456.09 912.81 464.12 906.96 467.17 912.04 471.74 915.87 467.82 928.73 472.88 932.2 471.7 937.47 473.33 942.98 483.14 951.29 483.77 961.29 476.58 962.34 472.5 966.52 473.48 971.35 468.35 975.82 471.66 979.92 471.36 990.53 467.93 989.54 464.07 992.6 460.3 992.33 459.48 991.22 449.93 997.02 445.81 996.6 442.35 1002.16 437.38 998.81 432.63 997.74 429.08 1000.92 427.65 997.29 423.6 998.17 422.34 1001.68 417.22 1002.9 412.36 995.33 411.05 1001.7 406.48 1008.97 400.71 1010.47 396.6 1008.52 397.23 1002.08 399.35 995.25 391.32 997.59 383.24 985.8 383.5 980.18 377.87 969.86 375.99 968.16 365.03 953.38 368.55 946.21 370.68 935.39 375.75 923.83 380.66 918.9 380.61 913.89 384.8 901.91 393.75 893.53 398.8 891.99 406.09 895.03 411.91 888.2 414.74 878.4 419.66 879.87 422.18 875.57 427.97 870.02 Z" id="GB-CMA" data-name="Cumbria"/>
<path d="M 375.78 827.98 380.33 828.73 388.25 827.67 390.54 823.94 396.57 826.69 391.59 831.48 393.07 837.68 399.29 833.28 402.77 836.46 407.56 836.11 413.18 847.27 416.15 847.94 420.36 845.16 426.18 848.84 426.88 854.94 425.24 857.29 424.82 863.85 427.97 870.02 422.18 875.57 419.66 879.87 414.74 878.4 411.91 888.2 405.08 890.08 379.51 888.17 375.72 886.66 369.09 890.08 370.14 899.62 367.91 902.66 358.33 902.26 356.6 905.2 348.16 904.3 349.81 910.09 338.54 917.44 332.22 917.78 331.65 910.3 329.35 910.17 325.79 917.29 321.7 914.61 316.42 907.54 313.93 908.04 307.94 905.15 304.61 898.93 301.42 903.85 303.32 910.09 307.75 912.52 306.91 917.57 307.71 927.17 303.13 929.93 295.07 926.8 287.76 916.97 278.3 911.05 272.96 908.93 271.47 905 266.69 904.3 262.94 906.6 259.1 912.14 263.73 926.81 266.04 928.81 264.96 936.3 259.87 934 258.6 930.84 259.02 923.48 256.33 922.54 255.12 917.53 252.71 915.98 245.08 906.71 241.29 897.55 241.67 884.4 246.93 881.95 250.2 889.04 250.49 895.24 254.33 898.25 256.33 894.77 252.77 886.49 256.42 884.54 261.44 885.9 265.77 880.49 271.39 879.43 279.35 879.75 285.04 878.07 283.68 868.84 292.42 862.99 298.13 863.48 303.28 864.16 307.65 848.72 311.82 842.38 320.52 841.52 324.8 845.71 328.79 836.82 328.1 829.91 335.42 824.41 337.01 820.72 349.64 822.8 354.17 828.06 356.29 833.44 359.08 834.62 359.64 840.54 364.39 844.93 370.03 839.29 370.38 831.63 375.78 827.98 Z" id="GB-DGY" data-name="Dumfries and Galloway"/>
<path d="M 93.98 911.37 91.64 908.13 90.55 898.01 88.12 896.18 86.96 890.56 84.28 887.95 80.83 881.19 82.78 878.8 89.59 879.47 93.43 875.65 96.82 866.63 97.33 860.27 99.09 858.2 104.14 861.19 107.78 861.01 105.87 868.03 109.15 871.34 110.31 875.74 110.17 889.97 112.38 898.05 112.72 904.44 109.95 907.04 103.64 906.35 101.44 911.33 99.45 909.67 93.98 911.37 Z" id="GB-LMV" data-name="Limavady"/>
<path d="M 112.38 898.05 110.17 889.97 110.31 875.74 109.15 871.34 105.87 868.03 107.78 861.01 114.52 860.67 123.68 856.38 129.23 855.97 131.25 854.01 133.72 864.71 129.1 867.24 128.64 871.88 125.81 874.88 128.32 879.94 128.37 886.28 133.31 893.29 128.1 896.57 123.67 894.79 119.32 897.35 115.93 895.56 112.38 898.05 Z" id="GB-CLR" data-name="Coleraine"/>
<path d="M 133.72 864.71 131.25 854.01 136.88 850.7 141.7 853.07 146.76 851.56 154.55 856.02 162.25 854.47 166.99 855.81 172.12 862.06 170.73 876.49 176.62 877.82 166.91 887.45 163.83 887.53 159.64 881.66 156.65 876.01 156.78 868.72 149.07 871.03 143.36 866.31 140.95 867.95 133.72 864.71 Z" id="GB-MYL" data-name="Moyle"/>
<path d="M 166.91 887.45 176.62 877.82 177.49 882 176.04 887.2 180.69 889.69 184.22 893.89 191.34 907.33 195.04 905.61 199.02 910.09 199.81 917.65 195.79 918.57 191.86 916.79 183.99 917.8 175.87 917.29 174.54 913.73 178.37 910.64 177.9 905.88 172.82 905.3 171.97 900.07 173.2 894.75 166.91 887.45 Z" id="GB-LRN" data-name="Larne"/>
<path d="M 183.99 917.8 191.86 916.79 195.79 918.57 199.81 917.65 196.83 923.48 189.67 926.11 184.9 929.9 182.65 925.75 183.99 917.8 Z" id="GB-CKF" data-name="Carrickfergus"/>
<path d="M 174.54 913.73 175.87 917.29 183.99 917.8 182.65 925.75 184.9 929.9 181.97 934.82 179.86 933.04 173.29 932.66 170.97 931.47 171.9 925.49 169.98 920.77 171.44 917.1 168.33 914.66 174.54 913.73 Z" id="GB-NTA" data-name="Newtownabbey"/>
<path d="M 173.29 932.66 179.86 933.04 181.97 934.82 185.49 938.16 190.52 939.32 189.86 942.29 183.54 943.79 178.73 947.63 172.55 943.98 169.81 938.17 170.14 934.47 173.29 932.66 Z" id="GB-BFS" data-name="Belfast"/>
<path d="M 190.52 939.32 185.49 938.16 188.02 934.42 195.33 930.16 199.61 931.79 209.24 930.21 210.02 931.29 209.03 933.89 203.19 938.71 196.86 937.32 194.61 939.13 190.52 939.32 Z" id="GB-NDN" data-name="North Down"/>
<path d="M 194.61 939.13 196.86 937.32 203.19 938.71 209.03 933.89 210.02 931.29 212.3 933.35 214.08 941.61 216.93 945.54 217.76 952.91 220.58 959.82 218.11 965.48 218.35 970.06 213.02 976.5 209.08 968.58 211.33 963.06 211.44 956.67 209.19 951.15 201.44 944.53 198.69 949.26 204 955.74 204.12 960.19 197.9 962.46 191.89 959.85 189.65 956.32 189.28 951.59 194.78 943.63 194.61 939.13 Z" id="GB-ARD" data-name="Ards"/>
<path d="M 185.85 998.65 181.12 999.38 177.81 997.36 172.51 1000.45 170.05 992.26 171.45 990.08 175.98 990.27 179.3 984.05 177.46 977.08 179.08 971.77 181.87 962.11 185.68 958.05 189.65 956.32 191.89 959.85 197.9 962.46 204.12 960.19 205.15 963.29 202.28 971.78 208.84 971.21 211.18 973.73 210.98 982.94 206.2 988.85 200.88 990.14 192.8 990.09 186.17 992.28 185.85 998.65 Z" id="GB-DOW" data-name="Down"/>
<path d="M 356.02 733.42 350.36 727.74 348.71 728.45 346.79 725.29 349.76 716.17 355.02 712.82 357.9 716.59 366.84 715.38 370.79 718.39 364.34 721.55 365.32 725.45 365.25 728.59 358.5 729.87 356.02 733.42 Z" id="GB-CLK" data-name="Clackmannanshire"/>
<path d="M 349.76 716.17 346.79 725.29 348.71 728.45 353.51 731.98 356.61 736.6 341.96 738.52 334.76 742.13 329.08 740.18 325.57 743.09 322.95 740.18 312.58 741.5 314.16 745.6 311.44 750.03 306.38 747.38 302.86 747.36 298.87 743.45 297.88 739.78 299.8 736.15 293.8 733.48 287.65 732.7 281.03 715.32 280.65 708.1 282.88 703.39 283.54 697.64 277.92 696.56 268.78 691.55 271.17 684.96 277.39 680.73 277.68 678.34 284.33 675.74 287.47 672.74 309.75 666.79 312.81 674.35 321.57 670.26 325.89 671.32 328.01 676.25 320.65 677.86 320.7 687.42 317.67 689.06 318.04 696.43 321.97 700.61 327.7 703.75 335.95 705.11 343.16 710.21 348.28 712.46 349.76 716.17 Z" id="GB-STG" data-name="Stirling"/>
<path d="M 334.76 742.13 341.96 738.52 356.61 736.6 363.26 742.42 369.59 741.44 375.38 743.08 372.64 745.8 367.89 745.17 362.38 752.18 358.21 753.65 351.01 758.9 344.18 753.45 340.7 746.12 334.76 742.13 Z" id="GB-FAL" data-name="Falkirk"/>
<path d="M 384.21 770.04 379.19 776.85 370.59 774.27 366.88 771.97 357.07 774.87 358.27 770.74 356.13 764.23 352.25 762.24 351.01 758.9 358.21 753.65 362.38 752.18 367.89 745.17 372.64 745.8 375.38 743.08 379.84 744.34 379.86 755.91 384.34 759.34 384.21 770.04 Z" id="GB-WLN" data-name="West Lothian"/>
<path d="M 387.03 770.85 384.21 770.04 384.34 759.34 379.86 755.91 379.84 744.34 389.37 744.73 391.59 747.09 406.17 748.29 409.67 751.51 408.93 759.56 400.73 760.7 387.03 770.85 Z" id="GB-EDH" data-name="Edinburgh"/>
<path d="M 430.33 769.42 425.09 774.23 421.37 774.51 420.54 770.35 410.03 779.46 406.24 785.09 401.16 772.29 397.48 775.9 387.03 770.85 400.73 760.7 408.93 759.56 409.67 751.51 411.04 751.36 413.66 756.6 430.33 769.42 Z" id="GB-MLN" data-name="Midlothian"/>
<path d="M 467.3 750.67 461.24 758.9 462 763.39 453.44 764.47 448.46 768.56 443.69 765.62 437.16 768.52 433.56 767.05 430.33 769.42 413.66 756.6 411.04 751.36 420.77 748.29 426.31 739.47 431.78 734.56 445.24 735.54 450.52 740.37 462.96 746.99 467.3 750.67 Z" id="GB-ELN" data-name="East Lothian"/>
<path d="M 524.39 876.14 531.56 878.46 536.88 878.74 539.94 875.85 543.37 885.57 537.18 887.97 526.22 879.33 524.39 876.14 Z" id="GB-NTY" data-name="North Tyneside"/>
<path d="M 537.18 887.97 543.37 885.57 547.4 890.54 547.59 897.21 539.79 898.27 534.31 896.6 533.79 892.06 537.18 887.97 Z" id="GB-STY" data-name="South Tyneside"/>
<path d="M 534.31 896.6 539.79 898.27 547.59 897.21 549.16 903.4 545.22 905.07 543.5 913.36 535.86 913.55 534.51 909.11 530.17 901.55 534.31 896.6 Z" id="GB-SND" data-name="Sunderland"/>
<path d="M 471.74 915.87 474.35 914.63 479.26 916.52 483.36 913.04 485.82 908.4 489.63 909.29 496.79 904.52 502.63 907.28 506.93 906.81 510.68 898.94 530.17 901.55 534.51 909.11 535.86 913.55 543.5 913.36 545.22 905.07 549.16 903.4 552.69 916.33 556.82 923.91 552.9 925.87 550.36 929.92 549.73 934.74 545.33 937.62 543.39 941.32 537.72 945.13 530.56 945.13 526.05 941.93 522.51 942.49 521.78 950.86 514.94 951.21 513.31 957.7 508.2 957.85 499.75 961.46 492.57 957.97 483.77 961.29 483.14 951.29 473.33 942.98 471.7 937.47 472.88 932.2 467.82 928.73 471.74 915.87 Z" id="GB-DUR" data-name="Durham"/>
<path d="M 545.33 937.62 549.73 934.74 550.36 929.92 552.9 925.87 556.82 923.91 561.05 928.31 563.29 934 561.06 938.55 559.52 940.4 550.93 939.71 545.33 937.62 Z" id="GB-HPL" data-name="Hartlepool"/>
<path d="M 559.52 940.4 561.06 938.55 568.2 937.9 577.04 941.58 594.27 947.22 586.08 955.74 581.94 957.01 578.43 955.17 574.17 956.2 570.54 954.47 562.1 954.63 558.96 944.73 559.52 940.4 Z" id="GB-RCC" data-name="Redcar and Cleveland"/>
<path d="M 460.3 992.33 464.07 992.6 467.93 989.54 471.36 990.53 471.66 979.92 468.35 975.82 473.48 971.35 472.5 966.52 476.58 962.34 483.77 961.29 492.57 957.97 499.75 961.46 508.2 957.85 513.31 957.7 514.94 951.21 521.78 950.86 528.32 953.44 533.76 959.97 541.84 957.77 546.83 956.7 550.29 960.39 556.38 957 562.1 954.63 570.54 954.47 574.17 956.2 578.43 955.17 581.94 957.01 586.08 955.74 594.27 947.22 611.6 958.29 614.82 962.47 615.02 966.2 619.65 970.48 622.23 975.95 624.88 986.97 627.68 990.64 634.56 994.04 635.9 999.63 640.75 1003 638.91 1005.66 633.16 1005.25 623.42 1001.59 620.94 1009.2 615.59 1012.47 610.97 1012.28 605.33 1015.82 603.14 1022.88 597.88 1020.83 585.4 1022.88 582.3 1027.7 577.52 1027.32 575.95 1020.06 569.11 1018.34 564.73 1020.06 562.27 1026.55 557.89 1028.08 559.01 1035.51 565.18 1042.93 574.49 1043.31 581.29 1041.86 582.92 1050.05 581.8 1055.41 579.43 1058.85 581.13 1061.98 574.86 1065.4 568.98 1062.84 567.71 1068 570.58 1071.77 560.5 1073.01 558.05 1075.43 556.82 1068.49 558.85 1062.69 551.88 1059.53 553.45 1056.74 550.33 1044.8 551.98 1042.84 552.9 1034.02 549.73 1031.37 545.47 1032.13 540.01 1036.67 535.8 1036.04 529.68 1037.39 525.02 1036.52 518.02 1037.13 512.46 1031.63 506.53 1031.99 500.76 1029.63 498.35 1035.16 498.01 1041.67 493.62 1044.63 488.4 1039.06 487.8 1035.5 482.25 1032.58 477.97 1026.22 474.22 1027.96 468.33 1023.56 467.75 1018.06 459.43 1017.41 458.67 1012.97 452.48 1008.33 452.27 1003.19 459.84 994.12 460.3 992.33 Z" id="GB-NYK" data-name="North Yorkshire"/>
<path d="M 582.3 1027.7 585.4 1022.88 597.88 1020.83 603.14 1022.88 605.33 1015.82 610.97 1012.28 615.59 1012.47 620.94 1009.2 623.42 1001.59 633.16 1005.25 638.91 1005.66 640.75 1003 647.86 1005.86 650.74 1008.52 643.64 1012.45 639.18 1020.75 640.95 1024.56 644.67 1037.59 653.18 1050.94 667.52 1072.45 657.99 1072.37 653.19 1074.77 646.36 1071.99 638.71 1061.98 633.07 1059.42 630.88 1054.18 625.78 1052.64 622.59 1054.64 620.7 1062.74 613.09 1063.4 610.3 1060.89 605.66 1060.34 600.66 1065.87 589.04 1076.35 587.7 1076.54 587.76 1073.83 581.22 1070.52 576.81 1070.11 570.58 1071.77 567.71 1068 568.98 1062.84 574.86 1065.4 581.13 1061.98 579.43 1058.85 581.8 1055.41 582.92 1050.05 581.29 1041.86 582.87 1031.52 582.3 1027.7 Z" id="GB-ERY" data-name="East Riding of Yorkshire"/>
<path d="M 620.7 1062.74 622.59 1054.64 625.78 1052.64 630.88 1054.18 633.07 1059.42 620.7 1062.74 Z" id="GB-KHL" data-name="Kingston upon Hull"/>
<path d="M 587.7 1076.54 589.04 1076.35 600.66 1065.87 604.63 1063.24 608.94 1063.58 614.26 1067.71 617.76 1065.43 632.14 1062.75 634.37 1063.72 640.87 1074.22 634.15 1077.37 630.51 1083.9 623.35 1082.81 618.51 1086.57 624.64 1087.5 624.75 1090.39 619.96 1091.22 619.31 1095.45 611.13 1098.34 606.91 1096.46 607.36 1091.03 597.41 1089.87 596.81 1093.54 592.8 1098.17 584.14 1097.44 582.99 1093.43 581.07 1089.3 586.73 1085.55 587.7 1076.54 Z" id="GB-NLN" data-name="North Lincolnshire"/>
<path d="M 634.15 1077.37 640.87 1074.22 649.1 1081.32 653.06 1082.23 658.55 1088.4 652.14 1090.35 647.68 1101.6 641.5 1094.78 642.01 1091.55 640.05 1082.81 634.15 1077.37 Z" id="GB-NEL" data-name="North East Lincolnshire"/>
<path d="M 592.8 1098.17 596.81 1093.54 597.41 1089.87 607.36 1091.03 606.91 1096.46 611.13 1098.34 619.31 1095.45 619.96 1091.22 624.75 1090.39 624.64 1087.5 618.51 1086.57 623.35 1082.81 630.51 1083.9 634.15 1077.37 640.05 1082.81 642.01 1091.55 641.5 1094.78 647.68 1101.6 652.14 1090.35 658.55 1088.4 664.51 1093.31 668.99 1095 670.92 1100.14 674.42 1102.59 677.71 1110.4 684.27 1128.55 685.43 1139.34 683.28 1147.27 679.48 1148.82 672.3 1156.14 669.71 1157.62 663.4 1166.99 658.58 1170.46 657.63 1173.94 664.23 1173.13 670.52 1177.18 676.61 1186 679.18 1184.77 678.99 1191.23 672.83 1195.83 670.64 1195.47 661.04 1198.63 661.39 1202.6 659.39 1205.58 652.83 1204.27 645.76 1206.83 640.79 1204.49 635.77 1205.65 631.51 1203.52 624.53 1207.05 617.41 1207.1 623.46 1200.47 615.41 1197.42 611.55 1193.33 604.53 1192.39 602.52 1184.51 598.71 1176.69 595.54 1172.85 597.03 1168.37 595.25 1163.99 594.06 1158.01 597.48 1153.97 601.52 1152.19 600.35 1145.92 600.11 1137.41 598.13 1133.2 603.46 1131.64 604.06 1127.88 594.46 1127.49 596.82 1114.55 594.22 1108.85 594.54 1105.04 592.8 1098.17 Z" id="GB-LIN" data-name="Lincolnshire"/>
<path d="M 670.64 1195.47 672.83 1195.83 678.99 1191.23 679.18 1184.77 687.25 1186.65 692.02 1180.02 695.8 1167.68 702.53 1162.91 710.74 1162.23 723.9 1162.23 734.55 1165.82 734.36 1162.23 759.14 1168.25 768.88 1173.28 788.81 1188.64 793.05 1194.58 797.08 1208.6 797.11 1220.8 792.55 1219.56 789.52 1223.71 793.31 1226.74 788.51 1231.25 785.1 1229.16 778.79 1231.58 772.59 1230.22 766.23 1235.35 763.06 1240.46 759.11 1240.68 753.34 1244.37 739.9 1241.7 734.94 1243.57 731.57 1240.64 724.06 1238.93 717.13 1241.01 710.59 1238.45 711.1 1232.13 708.07 1233.08 701.63 1232.2 692.71 1234.06 688.76 1231.03 683.18 1224.69 677.12 1226.78 674.71 1222.28 674.46 1213.99 676.54 1211.75 671.63 1207.96 672.65 1203.85 669.41 1202.64 670.64 1195.47 Z" id="GB-NFK" data-name="Norfolk"/>
<path d="M 692.71 1234.06 701.63 1232.2 708.07 1233.08 711.1 1232.13 710.59 1238.45 717.13 1241.01 724.06 1238.93 731.57 1240.64 734.94 1243.57 739.9 1241.7 753.34 1244.37 759.11 1240.68 763.06 1240.46 766.23 1235.35 772.59 1230.22 778.79 1231.58 785.1 1229.16 788.51 1231.25 793.31 1226.74 789.52 1223.71 792.55 1219.56 797.11 1220.8 799 1226.98 795.52 1238.78 791.97 1248.22 787.71 1255.32 787.74 1264.58 783.84 1280.05 777.52 1282.73 763.76 1298.49 759.18 1293.68 753.6 1296.75 750.36 1294.98 743.39 1297.11 738.64 1297.14 730.21 1294.82 720.05 1296.6 714.74 1289.14 713.09 1281.89 707.87 1280.9 698.95 1284.39 696.07 1281.67 689.63 1282.95 688.76 1277.06 693.86 1269.28 696.83 1269.68 698.33 1263.17 693.91 1259.36 688.31 1261.28 684.88 1256.99 687.53 1254.48 691.37 1257.5 696.58 1256.04 697.79 1253.85 694.73 1250.35 688.09 1239.59 688.33 1237.24 692.71 1234.06 Z" id="GB-SFK" data-name="Suffolk"/>
<path d="M 689.63 1282.95 696.07 1281.67 698.95 1284.39 707.87 1280.9 713.09 1281.89 714.74 1289.14 720.05 1296.6 730.21 1294.82 738.64 1297.14 743.39 1297.11 758.13 1298.61 759.45 1300.08 753.11 1306.61 760.23 1308.84 754.69 1315.17 747.96 1319.08 740.08 1319.02 736.19 1312.78 728.01 1319.02 726.95 1323.54 722.92 1325.29 718.39 1324.56 716.96 1328.57 725.29 1327.22 731.47 1324.02 733.22 1332.47 731.02 1344.12 723.3 1350.12 711.86 1345.55 708.87 1346.55 708.72 1350.96 706.85 1352.68 700.73 1353.23 695.43 1349.96 682.48 1348.04 675.38 1338.84 668.72 1340.35 663.54 1342.48 659.02 1339.19 656.59 1336.58 655.9 1332.62 656.8 1325.39 659.66 1320.82 669.49 1317.94 672.05 1304.98 668.17 1305.81 665.7 1294.13 663.27 1290.37 665.5 1287.11 672.34 1283.27 673.39 1280.03 679.81 1279.6 686.15 1284.93 689.63 1282.95 Z" id="GB-ESS" data-name="Essex"/>
<path d="M 708.72 1350.96 708.87 1346.55 711.86 1345.55 723.3 1350.12 718.72 1351.87 708.72 1350.96 Z" id="GB-SOS" data-name="Southend-on-Sea"/>
<path d="M 682.48 1348.04 695.43 1349.96 700.73 1353.23 693.42 1354.8 691.2 1359.76 687.67 1361.56 682.68 1359.78 678.85 1360.69 674.69 1359.14 674.84 1356.94 676.69 1352.94 683.79 1350.36 682.48 1348.04 Z" id="GB-THR" data-name="Thurrock"/>
<path d="M 674.69 1359.14 678.85 1360.69 682.68 1359.78 687.67 1361.56 692.8 1360.68 697.88 1357.11 695.55 1360.35 697.91 1364.95 697.29 1368.14 693.43 1373.12 692.68 1376.31 699.78 1375.71 704.38 1379.7 708.86 1376.51 710.74 1369.55 715.12 1365.95 718.17 1372.98 735.26 1374.93 745.19 1371.84 771.11 1369.42 773.07 1370.6 770.7 1377.44 767.65 1380.64 770.25 1391.29 769.59 1396.18 765.76 1402.91 758.2 1406.46 754.6 1406.75 750.91 1409.76 745.65 1409.89 739.3 1414.33 734.4 1421.84 735.47 1430.07 732.68 1431.19 726.63 1429.19 722.72 1426.77 719.96 1421.14 712.66 1420.22 709.64 1417.88 702.54 1419.65 695.31 1415.79 694.92 1413.55 683.74 1405.99 674.58 1404.07 668.08 1405.39 667.44 1401.23 661.84 1402.29 660.37 1392.8 661.93 1388.67 661.17 1382.54 669.27 1374.23 670.15 1368.59 669.71 1366.19 674.69 1359.14 Z M 729.98 1366.83 732.44 1370.59 729.98 1372.98 720.61 1372.19 715.72 1366.83 718.38 1362.23 729.98 1366.83 Z" fill-rule="evenodd" id="GB-KEN" data-name="Kent"/>
<path d="M 710.74 1369.55 708.86 1376.51 704.38 1379.7 699.78 1375.71 692.68 1376.31 693.43 1373.12 697.29 1368.14 697.91 1364.95 695.55 1360.35 697.88 1357.11 699.74 1356.59 712.59 1358.48 714.06 1363.09 708.26 1362.71 701.32 1366.83 703.84 1369.55 710.74 1369.55 Z" id="GB-MDW" data-name="Medway"/>
<path d="M 661.84 1402.29 667.44 1401.23 668.08 1405.39 674.58 1404.07 683.74 1405.99 694.92 1413.55 695.31 1415.79 702.54 1419.65 709.64 1417.88 712.66 1420.22 719.96 1421.14 722.72 1426.77 726.63 1429.19 721.21 1427.39 718.02 1428.45 710.14 1436.16 706.92 1437.64 689.52 1441.37 686.53 1442.71 678.56 1451.78 666.6 1450.07 664.47 1448.27 658.21 1447.02 655.9 1442.01 646.48 1434.6 648.33 1423.44 651.38 1420.5 655.53 1421.95 656.27 1416.78 658.34 1413.2 655.1 1408.09 659.74 1405.43 658.52 1402.29 661.84 1402.29 Z" id="GB-ESX" data-name="East Sussex"/>
<path d="M 646.48 1434.6 655.9 1442.01 658.21 1447.02 642.9 1441.41 640.03 1441.27 638.31 1437.87 644.53 1433.49 646.48 1434.6 Z" id="GB-BNH" data-name="Brighton and Hove"/>
<path d="M 658.52 1402.29 659.74 1405.43 655.1 1408.09 658.34 1413.2 656.27 1416.78 655.53 1421.95 651.38 1420.5 648.33 1423.44 646.48 1434.6 644.53 1433.49 638.31 1437.87 640.03 1441.27 635.15 1441.12 624.88 1444.84 611.12 1444.84 597.97 1449.25 591.55 1453.38 584.22 1448.67 587.47 1444.84 582.15 1440.02 582.67 1436.81 580.33 1433.42 582.8 1429.77 582.07 1426.8 587.55 1414.08 590.28 1411.53 593.53 1411.92 596.29 1408.32 601.56 1410.61 606.49 1408.87 613.34 1409.54 618.62 1407.48 623.04 1407.27 628.57 1404.96 632.52 1404.75 642.19 1399.03 647.23 1402.47 658.52 1402.29 Z" id="GB-WSX" data-name="West Sussex"/>
<path d="M 596.29 1408.32 593.53 1411.92 590.28 1411.53 587.55 1414.08 582.07 1426.8 582.8 1429.77 580.33 1433.42 582.67 1436.81 582.15 1440.02 576.93 1439.12 574.26 1437.93 569.44 1438.78 566.1 1441.91 564.39 1447.46 550.94 1437.86 551.74 1429.67 546.87 1426.62 541.09 1428.06 540.45 1430.85 550.58 1441.83 551.04 1445.07 544.09 1446.17 544.01 1448.31 537.02 1450.52 534.39 1450.04 531.46 1455.38 522.49 1452.71 513.37 1449.07 511.53 1444.82 512.6 1441.08 511.83 1436.5 509.14 1433.49 511.89 1428.64 505.89 1429.24 500.24 1421.14 502.14 1419.71 509.27 1418.48 511.42 1420.57 520.47 1422.84 523.93 1425.99 527.5 1424.78 525.82 1408.66 524.11 1403.51 523.93 1397.75 520.6 1389.38 526.09 1389.71 533.23 1384.4 537.42 1377.08 544.45 1372.19 556.82 1372.4 566.88 1374.23 571.68 1371.84 573.95 1374.23 583.01 1373.51 588.33 1374.82 595.36 1377.23 598.22 1382.33 598.1 1388.46 592.62 1389.06 589.36 1393.58 590.68 1400.27 596.83 1405.43 596.29 1408.32 Z" id="GB-HAM" data-name="Hampshire"/>
<path d="M 569.44 1438.78 574.26 1437.93 576.93 1439.12 574.85 1439.55 572 1447.25 568.25 1445.67 569.44 1438.78 Z" id="GB-POR" data-name="Portsmouth"/>
<path d="M 540.45 1430.85 541.09 1428.06 546.87 1426.62 551.74 1429.67 550.94 1437.86 549.31 1435.86 540.45 1430.85 Z" id="GB-STH" data-name="Southampton"/>
<path d="M 500.24 1421.14 505.89 1429.24 511.89 1428.64 509.14 1433.49 511.83 1436.5 512.6 1441.08 511.53 1444.82 513.37 1449.07 522.49 1452.71 516.02 1454.89 512.49 1454.85 506.65 1451.26 502.62 1451.45 496.66 1448.92 494.13 1454.6 496.03 1460.16 500.02 1460.75 501.65 1464.82 497.54 1470.87 489.64 1470.72 483.6 1467.85 468.72 1466.17 465.96 1464.43 461.24 1465.7 457.41 1471.66 440.6 1458.7 426.8 1453.5 420.32 1454.51 421.37 1449.94 425.4 1445.46 420.08 1442.24 422.35 1439.89 432.89 1438.15 443.8 1434.09 446.77 1430.94 448.46 1425.07 456.42 1420.25 458.45 1424.39 464.07 1424.08 470.21 1414.26 470.41 1409.01 477.08 1410.53 480.64 1414.05 484.66 1421.42 488.27 1425.28 500.24 1421.14 Z" id="GB-DOR" data-name="Dorset"/>
<path d="M 502.62 1451.45 506.65 1451.26 512.49 1454.85 507.68 1454.37 504.51 1455.75 502.62 1451.45 Z" id="GB-BMH" data-name="Bournemouth"/>
<path d="M 494.13 1454.6 496.66 1448.92 502.62 1451.45 504.51 1455.75 500.3 1456.1 494.13 1454.6 Z" id="GB-POL" data-name="Poole"/>
<path d="M 420.08 1442.24 425.4 1445.46 421.37 1449.94 420.32 1454.51 416.09 1456.74 410.22 1456.39 406.65 1459.31 402.58 1458.7 395.09 1461.01 392.22 1465.7 386.39 1468.28 383.23 1467.75 378.43 1472.27 375.38 1482.05 368.81 1481.94 364.37 1487.63 363.87 1491.5 366.18 1494.86 374.3 1498.68 373.64 1502 365.21 1506.72 363.5 1514.42 364.12 1517.56 358.3 1519.27 349.61 1516.53 344.96 1510.72 339.68 1505.88 333.02 1508.91 326.35 1502.25 332.56 1498.38 332.31 1495.77 325.66 1491.22 320.65 1492.41 319.31 1489.21 316.64 1487.8 318.24 1478.84 313.94 1477.72 311.46 1472 311.89 1467.22 308.77 1465.04 306.69 1458.74 305.4 1449.62 302.52 1450.11 299.53 1445.18 302.12 1438.12 298.87 1429.7 291.66 1429.46 293.7 1423.12 293.4 1417.73 300.55 1417.73 308.55 1420.07 311.39 1418.68 316.82 1412.58 318.46 1408.66 317.04 1403.46 318.82 1397.56 317.32 1395.04 323.43 1392.59 338.11 1391.21 342.63 1389.8 348.44 1389.8 354.2 1387.96 358.77 1389.16 357.81 1396.83 350.02 1397 349.64 1401.52 358.5 1409.05 361.49 1409.11 368.73 1412.67 367.8 1418.13 373.48 1418.73 375.16 1415.75 382.05 1415.89 385.93 1418.55 386.2 1422.1 390.14 1422.34 394.4 1426.34 403.32 1426.2 401.65 1430.52 404.1 1432.78 412.13 1431.65 412.07 1435.22 418.93 1438.68 420.08 1442.24 Z" id="GB-DEV" data-name="Devon"/>
<path d="M 374.3 1498.68 366.18 1494.86 363.87 1491.5 364.37 1487.63 368.81 1481.94 375.38 1482.05 376.81 1488.2 373.23 1488.78 371.29 1491.64 374.3 1498.68 Z" id="GB-TOB" data-name="Torbay"/>
<path d="M 320.65 1492.41 325.66 1491.22 332.31 1495.77 332.56 1498.38 326.35 1502.25 327.24 1499.38 322.38 1498.66 320.65 1492.41 Z" id="GB-PLY" data-name="Plymouth"/>
<path d="M 291.66 1429.46 298.87 1429.7 302.12 1438.12 299.53 1445.18 302.52 1450.11 305.4 1449.62 306.69 1458.74 308.77 1465.04 311.89 1467.22 311.46 1472 313.94 1477.72 318.24 1478.84 316.64 1487.8 319.31 1489.21 317.32 1499.38 315.4 1501.18 308.55 1499.38 304.86 1499.78 295.89 1504.69 282.69 1505.47 280.5 1502.9 275.28 1504.46 275.01 1508.05 271.42 1517.11 267.44 1516.48 259.61 1520.9 255.18 1527.82 253.74 1521.83 251.13 1521.35 250.69 1528 246.86 1533.96 250.84 1538.27 247.51 1544.05 243.62 1544.53 238.49 1550 235.35 1545.84 235.09 1542.38 229.37 1534.66 217.26 1529.54 211.95 1531.66 212.45 1535.56 208.94 1539.01 201.8 1540.49 198.77 1539.31 198.44 1529.26 200.41 1525.64 214.36 1518.38 220.22 1521.53 224.26 1515.76 230.1 1514.09 239.3 1504.4 243.62 1501.31 243.04 1495.75 251.34 1492.07 253.35 1480.02 255.73 1477 261.65 1476.15 263.76 1472.23 272.04 1471.05 277.21 1461.29 282.89 1456.38 284.46 1452.57 289.32 1448.31 291.5 1443.88 291.66 1429.46 Z" id="GB-CON" data-name="Cornwall"/>
<path d="M 470.41 1409.01 470.21 1414.26 464.07 1424.08 458.45 1424.39 456.42 1420.25 448.46 1425.07 446.77 1430.94 443.8 1434.09 432.89 1438.15 422.35 1439.89 420.08 1442.24 418.93 1438.68 412.07 1435.22 412.13 1431.65 404.1 1432.78 401.65 1430.52 403.32 1426.2 394.4 1426.34 390.14 1422.34 386.2 1422.1 385.93 1418.55 382.05 1415.89 375.16 1415.75 373.48 1418.73 367.8 1418.13 368.73 1412.67 361.49 1409.11 358.5 1409.05 349.64 1401.52 350.02 1397 357.81 1396.83 358.77 1389.16 364.59 1390.7 371.04 1390.48 381.09 1392.82 385.04 1395.84 394.21 1395.43 402.88 1393.21 411.33 1393.03 414.2 1395.04 415.98 1389.82 415.1 1379.84 416.58 1378.44 417.89 1382.11 425.63 1381.04 432.89 1381.61 431.04 1377.72 439.01 1378.71 442.57 1379.72 446.39 1383.43 452.92 1381.26 459.45 1384.72 463.72 1381.33 468.47 1381.26 472.94 1378.05 477.27 1385.86 474.86 1392.95 468.22 1404.61 470.41 1409.01 Z" id="GB-SOM" data-name="Somerset"/>
<path d="M 439.01 1378.71 431.04 1377.72 432.89 1381.61 425.63 1381.04 417.89 1382.11 416.58 1378.44 419.19 1371.71 425.25 1366.21 430.69 1358.92 437.67 1356.01 445.61 1362.86 445.37 1370.7 444.32 1374.92 438.84 1375.78 439.01 1378.71 Z" id="GB-NSM" data-name="North Somerset"/>
<path d="M 445.37 1370.7 445.61 1362.86 437.67 1356.01 441.74 1351.48 442.71 1352.86 454.63 1359.07 454.27 1365.98 451.09 1370.96 445.37 1370.7 Z" id="GB-BST" data-name="Bristol"/>
<path d="M 453.24 1333.17 465.79 1337.99 465.39 1342.22 472.12 1341.75 474.42 1345.56 476.54 1353.12 473.19 1357.93 473.7 1365.79 464.3 1368.03 455.82 1367.69 454.27 1365.98 454.63 1359.07 442.71 1352.86 441.74 1351.48 447.43 1341.66 449.63 1340.2 453.24 1333.17 Z" id="GB-SGC" data-name="South Gloucestershire"/>
<path d="M 419.05 1339.06 424.25 1339.24 429.19 1336.19 432.1 1339.71 427.74 1344.63 432.16 1347.32 427.29 1349.57 420.5 1350.03 417.98 1347.39 414.69 1351.44 409.81 1354.52 407.73 1349.96 409.23 1347.43 407.18 1344.26 413.39 1341.87 419.05 1339.06 Z" id="GB-NWP" data-name="Newport"/>
<path d="M 407.73 1349.96 409.81 1354.52 402.08 1361.56 399.83 1359.68 395.01 1359.47 392.56 1355.46 397.68 1349.7 403.39 1348.68 407.73 1349.96 Z" id="GB-CRF" data-name="Cardiff"/>
<path d="M 392.56 1355.46 395.01 1359.47 399.83 1359.68 402.08 1361.56 403.1 1364.3 401.11 1368.71 398.38 1368.04 392.71 1370.43 372.66 1368.59 369.76 1365.77 373.75 1363.79 373.95 1356.35 377.79 1354.18 380.42 1353.48 392.56 1355.46 Z" id="GB-VGL" data-name="Vale of Glamorgan"/>
<path d="M 377.79 1354.18 373.95 1356.35 373.75 1363.79 369.76 1365.77 362.7 1358.58 360.12 1359.19 355.89 1355.4 355.58 1351.25 360.46 1352.19 364.54 1350.04 361.15 1344.23 363.47 1337.44 371.86 1337.21 376.54 1340.41 378.87 1343.92 377.79 1354.18 Z" id="GB-BGE" data-name="Bridgend"/>
<path d="M 351.72 1318.62 354.66 1322.19 363.9 1319.38 369.08 1323.03 370.23 1333.24 371.86 1337.21 363.47 1337.44 361.15 1344.23 364.54 1350.04 360.46 1352.19 355.58 1351.25 353.15 1345.63 349.1 1340.6 344.75 1339.84 349.32 1331.27 341.03 1321.61 344 1321.43 346.32 1316.68 351.72 1318.62 Z" id="GB-NTL" data-name="Neath Port Talbot"/>
<path d="M 341.03 1321.61 349.32 1331.27 344.75 1339.84 338.68 1340.59 335.67 1343.79 337.7 1347.39 330.4 1348.09 325.9 1347 322.3 1350.03 318.53 1350.47 313.79 1348.45 312.39 1340.41 316.82 1338.56 328.33 1337.45 330 1332.78 333.81 1323.96 337.42 1321.04 341.03 1321.61 Z" id="GB-SWA" data-name="Swansea"/>
<path d="M 356.44 1274.81 358.9 1279.39 362.36 1280.87 364.27 1286.6 360.1 1292.14 360.82 1297.43 358.95 1299.5 358.84 1306.08 355.55 1310.58 351.72 1318.62 346.32 1316.68 344 1321.43 341.03 1321.61 337.42 1321.04 333.81 1323.96 330 1332.78 323.91 1333.94 319.56 1331.5 312.08 1333.26 308.18 1330.85 305.21 1326.19 305.81 1322.57 298.67 1325.03 289.56 1324.34 284.34 1325.37 284.28 1315.93 282.43 1313.4 277.52 1314.09 276.24 1307.75 280 1302.57 284.99 1302.33 294.1 1297.38 295.95 1294.72 290.81 1285.77 302.78 1287 316.74 1286.53 319.36 1285.35 326.05 1278.97 330.84 1276.83 336.52 1278.02 340.88 1274.71 346.41 1274.47 354.7 1276.83 356.44 1274.81 Z" id="GB-CMN" data-name="Carmarthenshire"/>
<path d="M 290.81 1285.77 295.95 1294.72 294.1 1297.38 284.99 1302.33 280 1302.57 276.24 1307.75 277.52 1314.09 282.43 1313.4 284.28 1315.93 284.34 1325.37 281.21 1327.41 278.48 1336.13 267.56 1336.62 260.11 1343.06 253.65 1340.54 251.27 1335.25 247.31 1334.24 267.84 1327.08 265.54 1324.78 266.22 1318.88 261.7 1319.3 264.04 1324.57 262.56 1327.31 254.58 1328.85 243.4 1327.33 240.88 1328.85 236.9 1325.78 241.18 1321.94 245.27 1320.79 246.78 1318.25 245.27 1309.43 236.45 1307.48 231.98 1308.39 232.18 1301.51 236.58 1300.71 238.99 1298.21 245.78 1296.04 248.31 1293.81 249.74 1287.25 254.17 1287.38 258.45 1289.71 263.28 1287.24 268.85 1288.21 269 1283.78 273.24 1282.22 277.84 1275.89 279.97 1276.68 279.72 1281.77 284.13 1282.35 290.81 1285.77 Z" id="GB-PEM" data-name="Pembrokeshire"/>
<path d="M 341.49 1218.11 346.28 1217.73 349.38 1220.81 350.67 1227.59 357.76 1225.28 354.86 1233.37 358.14 1235.64 362.78 1246.27 357.25 1248.97 359.66 1254.87 356.96 1256.95 355.53 1267.36 356.44 1274.81 354.7 1276.83 346.41 1274.47 340.88 1274.71 336.52 1278.02 330.84 1276.83 326.05 1278.97 319.36 1285.35 316.74 1286.53 302.78 1287 290.81 1285.77 284.13 1282.35 279.72 1281.77 279.97 1276.68 284.48 1272.6 294.41 1272.97 305.86 1263.33 310.31 1262.42 319.84 1254.16 324.5 1247.47 327.94 1239.89 329.32 1231.32 331.12 1226.73 330.64 1222.36 334.36 1222.23 339.89 1218.41 341.49 1218.11 Z" id="GB-CGN" data-name="Ceredigion"/>
<path d="M 378.21 1177.2 376.54 1180.83 369.58 1182.9 368 1187.51 370.05 1194.65 367.66 1199.29 359.86 1201.86 351.96 1202.05 349.02 1206.53 348.68 1212.04 341.49 1218.11 339.89 1218.41 337.71 1217.67 331.4 1219.53 326.5 1213.43 325.85 1208.13 330.56 1200.93 331.74 1195.83 325.62 1188.31 323.92 1182.75 326.24 1181.35 325.24 1173.57 327.6 1170.26 317.32 1169.59 308.58 1173.2 303.02 1173.13 299.84 1175.34 295.44 1181.87 294.2 1186.83 288.85 1183.49 283.59 1185.48 275.01 1184.2 276.66 1181.38 287.81 1168.36 293.59 1166.25 300.06 1161.2 301.65 1158.47 306.9 1155.02 308.3 1143.76 316.83 1136.9 319.56 1131.94 323.5 1128.31 330.29 1128.18 335.63 1125.54 341.52 1131.97 339.66 1137.84 335.31 1144.04 337.59 1150.76 337.27 1159.36 344.11 1157.64 346.9 1163.65 352.69 1167.25 362.21 1160.31 367.69 1157.9 370.41 1163.46 376.29 1163.53 378.89 1161.96 381.07 1164.34 377.68 1167.71 379.6 1171.74 378.21 1177.2 Z" id="GB-GWN" data-name="Gwynedd"/>
<path d="M 378.89 1161.96 376.29 1163.53 370.41 1163.46 367.69 1157.9 362.21 1160.31 352.69 1167.25 346.9 1163.65 344.11 1157.64 337.27 1159.36 337.59 1150.76 335.31 1144.04 339.66 1137.84 341.52 1131.97 335.63 1125.54 346.48 1120.12 348.4 1117.66 354.22 1116.09 358.44 1120.42 367.6 1120.15 374.73 1117.46 374.31 1125.4 377.62 1130.41 377.82 1136.11 375.96 1139.56 368.93 1147.15 374.41 1148.18 377.62 1151.27 378.89 1161.96 Z" id="GB-CWY" data-name="Conwy"/>
<path d="M 387.01 1111.79 385.27 1119.01 388.58 1122.3 388.58 1129.56 391.99 1135.25 395.72 1138.53 400.58 1139.05 406.09 1149.96 404.61 1159.19 408.34 1163.65 399.85 1167.08 390.96 1167.77 384.58 1176.48 378.21 1177.2 379.6 1171.74 377.68 1167.71 381.07 1164.34 378.89 1161.96 377.62 1151.27 374.41 1148.18 368.93 1147.15 375.96 1139.56 377.82 1136.11 377.62 1130.41 374.31 1125.4 374.73 1117.46 387.01 1111.79 Z" id="GB-DEN" data-name="Denbighshire"/>
<path d="M 421.86 1118.01 413.92 1119.53 410.6 1117.93 408.25 1120.39 401.08 1108.27 403.32 1104.03 411.27 1100.53 414.97 1102.97 419.73 1115.45 421.86 1118.01 Z" id="GB-WRL" data-name="Halton"/>
<path d="M 450.52 1117.01 445.82 1119.44 437.2 1119.82 433.97 1118.68 431.18 1115.74 435.64 1108.16 441.59 1108.07 443.02 1110.94 450.52 1117.01 Z" id="GB-HAL" data-name="Halton"/>
<path d="M 435.64 1108.16 431.18 1115.74 425.91 1114.47 426.09 1105.58 424.09 1096.37 421.34 1092.64 424.29 1088.71 430.75 1092.94 432.53 1104.87 435.64 1108.16 Z" id="GB-KWL" data-name="Knowsley"/>
<path d="M 421.34 1092.64 424.09 1096.37 426.09 1105.58 425.91 1114.47 421.97 1111.94 417.49 1106.19 412.08 1094.3 421.34 1092.64 Z" id="GB-LIV" data-name="Liverpool"/>
<path d="M 424.29 1088.71 421.34 1092.64 412.08 1094.3 408.19 1085.75 407.96 1082.01 414.2 1071.07 420.09 1063.4 421.34 1070.03 418.87 1074.7 414.43 1079.09 413.4 1086.08 419.27 1089.6 424.29 1088.71 Z" id="GB-SFT" data-name="Sefton"/>
<path d="M 429.08 1000.92 432.63 997.74 437.38 998.81 442.35 1002.16 445.81 996.6 449.93 997.02 459.48 991.22 460.3 992.33 459.84 994.12 452.27 1003.19 452.48 1008.33 458.67 1012.97 459.43 1017.41 467.75 1018.06 468.33 1023.56 474.22 1027.96 477.97 1026.22 482.25 1032.58 487.8 1035.5 488.4 1039.06 493.62 1044.63 492.44 1047.79 486.55 1052.28 486.49 1057.19 483.41 1061.22 484.08 1065.15 478.12 1068.45 475.76 1071.84 475.51 1076.31 473.75 1069.39 467.6 1069.48 462.66 1055.79 456.39 1056.28 454.04 1059.53 453.96 1070.98 455.73 1074.57 451.36 1078.34 448.86 1076.46 441.1 1078.27 438.99 1087.69 435.86 1090.24 431.87 1089.45 430.75 1092.94 424.29 1088.71 419.27 1089.6 413.4 1086.08 414.43 1079.09 418.87 1074.7 421.34 1070.03 420.09 1063.4 414.22 1058.47 419.63 1050.04 420.34 1044.63 418.57 1038.01 414.54 1033.14 425.42 1029.79 426.45 1026.75 422.52 1019.17 427.28 1012.78 429.86 1011.71 432.33 1006.73 429.08 1000.92 Z" id="GB-LAN" data-name="Lancashire"/>
<path d="M 414.54 1033.14 418.57 1038.01 420.34 1044.63 419.63 1050.04 414.22 1058.47 411.42 1050.69 412.34 1040.43 411.4 1036.66 414.54 1033.14 Z" id="GB-BPL" data-name="Blackpool"/>
<path d="M 298.13 863.48 292.42 862.99 283.68 868.84 285.04 878.07 279.35 879.75 271.39 879.43 265.77 880.49 261.44 885.9 256.42 884.54 252.77 886.49 251.39 878.76 254.75 865.82 259.61 862.06 264.82 854.94 268.07 846.98 268.83 839.08 273.6 833.68 275.51 827.41 283.44 822.5 285.38 819.67 285.34 812.4 282.17 806.38 288.93 802.24 300.09 808.84 300.94 817.57 297.2 821.2 298.28 831.39 289.96 829.9 289.36 832.03 292.85 837.97 297.56 842 299.97 846.02 299.97 857.45 298.13 863.48 Z" id="GB-SAY" data-name="South Ayrshire"/>
<path d="M 288.93 802.24 282.17 806.38 281.78 803.22 277.7 798.28 269.98 795.72 270.58 793.33 261.76 785.56 266.53 778.69 264.3 763.18 273.38 762.54 275.31 764.34 278.2 770.82 284.7 777.28 294.21 777.82 294.08 778.33 290.85 784.7 286.03 790.05 286.63 792.83 292.79 793.05 294.72 797.96 288.93 802.24 Z" id="GB-NAY" data-name="North Ayshire"/>
<path d="M 275.31 764.34 273.38 762.54 264.3 763.18 265.64 752.89 272.58 750.05 277.67 752.47 285.34 753.96 288.25 760.89 286.82 766.46 277.27 765.56 275.31 764.34 Z" id="GB-IVC" data-name="Inverclyde"/>
<path d="M 294.21 777.82 284.7 777.28 278.2 770.82 275.31 764.34 277.27 765.56 286.82 766.46 288.25 760.89 285.34 753.96 295.04 755.48 296.43 754.54 307.1 763.37 307.02 769.79 294.21 777.82 Z" id="GB-RFW" data-name="Renfrewshire"/>
<path d="M 287.65 732.7 293.8 733.48 299.8 736.15 297.88 739.78 298.87 743.45 302.86 747.36 306.38 747.38 307.43 757.47 307.1 763.37 296.43 754.54 288.25 752.27 287.67 749.58 287.65 732.7 Z" id="GB-WDU" data-name="West Dunbartonshire"/>
<path d="M 284.33 675.74 277.68 678.34 277.39 680.73 271.17 684.96 268.78 691.55 277.92 696.56 283.54 697.64 282.88 703.39 280.65 708.1 281.03 715.32 287.65 732.7 287.67 749.58 288.25 752.27 281.6 749.35 277.5 744.12 272.23 742.42 269.19 746.42 266.43 743.57 266.19 734.3 269.32 726.02 275.01 716.77 273.05 716.33 267.29 727.69 265.1 722.23 261.76 719.72 264.51 732.33 263.06 736.07 263.57 743.71 261.09 746.59 262.01 751.42 256.73 762.36 253.26 761.98 250.82 756.74 246.9 757.51 241.61 753.13 235.95 759.24 237.77 768.02 230.72 763.88 228.5 758.69 230.2 742.11 238.96 726.71 247.76 721.24 246.64 718.74 237.06 725.3 230.42 735.54 227.63 736.52 225.78 742.53 219.44 742.53 218.85 750.25 220.79 751.31 222.69 763.04 227.14 767.89 229.87 774.94 220.58 783.79 216.03 794.67 216.53 799.58 218.85 802.15 210.25 826.54 214.04 833.07 210.58 838.98 204 842.92 193.38 843.29 191.58 835.51 191.84 829.55 197.92 822.58 197.43 806.03 201.32 795.23 200.71 790.42 205.08 786.69 208.72 778.56 203.46 774.3 201.26 765.98 204.64 760.83 200.71 760.12 199.47 755.93 208.27 742.15 202.4 740.54 211.18 728.58 210.52 725.07 213.43 720.04 212.03 717.49 211.45 709.3 207.36 706.63 209.41 696.59 214.46 686.07 218.69 680.23 223.72 676.65 222.42 671.11 224.93 668.84 222.39 664.06 227.13 655.19 230.93 651.21 241.79 652.57 249.34 656.02 253.77 651.11 261.45 648.4 266.3 650.26 272.17 649.21 278.77 651.03 284.79 649.83 290.83 661.42 287.87 660.81 280.04 664.65 283.54 668.85 281.36 672.85 284.33 675.74 Z M 249.7 813.87 247.91 815.14 249.1 821.53 242.25 824.42 234.26 822.67 227.63 817.66 226.53 809.91 227.63 808.07 224.14 802.39 223.84 794.39 226.86 788.26 234.25 783.53 239.46 786.16 242.54 790.17 245.27 800.22 247.81 805.76 245.77 811.85 249.7 813.87 Z M 252.99 779.73 246.1 774.75 244.17 766.52 241.39 764.6 239.26 758.86 241.98 755.23 248.88 761.14 253.63 771.72 252.99 779.73 Z M 172.66 782.64 173.21 789.36 166.63 795.29 157.81 797.22 154.07 803.31 150.11 803.39 149.46 796.99 155.57 792.46 152.85 786.21 149.33 782.01 155.02 775.82 150.97 774.55 147.07 776.31 144.06 783.6 137.93 790.42 134.67 789.44 135.5 781.19 139.08 775.82 138.74 766.68 142.25 763.43 156.7 758.61 163.84 752.29 165.44 754 167.13 772.37 171.1 777.32 172.66 782.64 Z M 158.58 729.11 161.8 732.17 161.1 737.59 155.09 739.38 156.42 732.15 158.58 729.11 Z M 191.34 727.69 197.9 721.85 200.04 727.81 195.95 732.89 192.74 740.9 183.38 759.81 179.48 764.14 178.14 771.84 172.96 773.08 170.08 771.16 168.12 760.66 169.06 755.93 175.3 750.81 176.44 742.61 181.16 735.84 185.24 733.8 191.34 727.69 Z M 162.25 676.06 156.03 675.99 157.81 671.11 162.25 676.06 Z M 109.37 666.13 115.54 664.67 115.42 669.05 105.3 674.6 102.64 679.81 97.6 677.47 95.62 671.11 102.8 669.21 109.37 666.13 Z M 200.12 681.11 202.58 686.15 198.94 687.12 197.58 693.01 190.45 697.91 187.28 698.68 181.94 695.51 163.3 702.97 155.84 702.97 153.67 705.93 148.8 703.94 145.7 697.44 148.16 694.2 160.11 696.13 162.74 694.16 158.78 689.02 162.47 685.09 164.25 680.02 173.34 676.86 173.76 671.11 164.86 675.37 159.44 668.24 151.93 666.94 147.94 664.06 151.78 661.16 151.94 655.91 159.78 650.52 165.54 649.21 170.42 651.21 174.39 657.26 178.94 668.12 186.96 668.12 197.43 673.08 200.71 678.63 200.12 681.11 Z M 138.23 645.67 135.78 651.21 125.61 660.69 121.39 660.31 127.62 649.51 134.48 644.61 138.23 645.67 Z" fill-rule="evenodd" id="GB-AGB" data-name="Argyll and Bute"/>
<path d="M 278.77 651.03 272.17 649.21 266.3 650.26 261.45 648.4 253.77 651.11 249.34 656.02 241.79 652.57 230.93 651.21 229.87 648.12 237.8 644.13 236.25 640.04 228.07 643.49 224.22 649.02 220.5 650.82 207.24 667.41 201.8 671.86 193.54 666.13 186.79 664.29 174.82 654.34 174.44 650.9 185.87 648.12 178.66 644.13 173.1 644.56 167.18 642.92 162.11 645.66 157.21 643.14 157.81 638.14 160.6 634.48 172.93 633.14 179.25 630.39 182.03 633.14 190.99 629.03 187.07 625.19 196.33 614.02 186.96 612.02 186.13 608.19 188.61 598.85 192.27 595.4 191.86 589.69 197.92 580.71 203.53 579.32 201.28 572.58 205.15 566.47 205.59 561.14 215.08 557.36 214.74 554.31 207.25 557.12 196.83 554.31 199.02 549.23 202.84 546.02 206.15 547.79 215.13 543.48 218.72 540.12 218.04 535.6 210.14 544.65 206.33 543.42 204 537.96 198.6 545.15 190.53 545.87 189.12 534.85 186.41 531.3 185.56 524.11 188.01 512.38 192.25 512.99 200 520.07 202.36 517.57 198.04 511.87 194.14 504.19 190.68 502.89 191.89 494.88 200.37 492.56 197.53 489.26 190.84 487.69 190.56 472.61 191.99 469.88 197.19 468.15 201.26 470.11 203.15 481.97 205.77 482.21 208.39 474.49 204.19 469.23 202.91 464.95 206.2 459.8 211.18 461.87 210.72 466 216.28 470.81 219.33 468.81 225.98 457.64 231.51 462.9 239.54 461.45 238.96 455.05 231.89 451.96 222.15 441.09 221.01 434.16 231.23 438.39 233.16 435.92 232.06 430.73 233.3 425.56 228.77 421.38 223.84 411.83 225.2 408.85 230.43 412.03 247.64 406.93 242.52 399.32 241.47 395.14 243.62 388.86 249.26 385.87 246.91 382.49 251.36 379.84 246.91 374.69 247.06 370.56 253.13 365.97 254.98 354.63 256.33 352.99 266.66 355.32 272.58 360.89 277.22 360.83 282.67 364.16 282.13 372.3 286.52 368.96 288.7 361.34 297.49 362.65 304.96 368.96 310.21 365.72 315.01 368.45 322.77 363.12 329.12 363.24 331.74 358.96 335.36 361.88 344.03 362.65 350.91 361.51 362.97 354.15 370.55 353.26 373.23 357.03 380.06 355.2 386.72 357.23 387.78 354.15 382.8 348.79 387.19 345.72 391.07 349.94 399.56 347.94 403.75 351 411.7 349.94 414.41 351.14 412 359.4 405.57 370.8 406.42 375.14 410.77 375.36 409.02 385.91 405.53 392.79 398.24 402.53 387.86 407.03 380.78 413.15 377.94 419.64 374.58 423.45 356.94 438.08 349.51 442.65 346.86 449.18 333.24 456.11 336.61 462.9 333.65 468.97 330.03 468.05 324.5 472.17 332.46 476.49 336.99 472.85 342.51 478.08 345.48 476.71 351.85 469.2 352.52 474.6 336.61 494.88 334.36 490.77 329.41 489.72 319.45 498.03 327.89 500.57 333.69 496.2 335.3 497.88 326.15 510.33 318.96 516.45 315.68 524.62 320.02 525.49 332.86 515.74 331.17 511.5 338.53 510.33 346.24 511.09 355.36 505.33 359.03 512.65 358.81 519.39 360.77 520.89 360.98 532.29 362.44 534.57 375.96 530.59 380.73 535.27 384.01 535.98 385.08 541.94 377.19 554.21 380.2 556.15 379.42 563.36 382.2 565.47 379.62 572.13 373.33 574.23 366.64 581.1 361.4 584.35 356.78 587.04 356.07 599.67 352.01 608.71 345.45 609.53 340.43 606.18 337.58 613.81 333.01 612.79 327.7 613.85 322.48 611.89 319.52 617.65 306.23 623.93 300.61 631 294.38 627.31 289.23 634.43 288.58 643.57 279.24 646.82 278.77 651.03 Z M 148.99 589.79 153.18 592.5 155.57 596.93 154.48 602.3 150.72 606.68 146.21 606.19 144.9 602.68 138.53 597.85 145.85 590.22 148.99 589.79 Z M 169.92 547.11 168.9 543.36 170.15 531.3 176.16 526.89 173.68 536.45 175.94 547 169.92 547.11 Z M 129.8 547.11 121.11 545.72 117.71 542.64 116.35 536.63 113.02 534.08 117.1 530.74 115.11 526.04 118.38 522.61 125.32 532.37 126.97 528.8 124.41 525.19 126.98 518.63 122.53 516.45 125.34 508.2 129.15 511.9 129.8 515.44 137.77 522.37 145.15 519.52 143.82 516.39 145.23 510.5 141.72 502.41 149.86 494.4 162.74 510.84 164.17 530.01 162.85 536.54 165.63 539.49 163.84 543.04 166.54 550.55 171.45 552.8 176.97 558.44 181.26 558.95 183.07 562.51 191.49 558.23 203.41 559.29 202.46 565.54 199.91 570.43 192.59 573.88 191.12 580.17 187.73 582.5 181.61 591.04 174.55 594.25 172.66 591.81 174.85 583.74 178.16 577.44 173.21 569.51 169.17 578.98 166.95 578.47 166.03 570.61 149.54 574.65 144.6 565.45 138.53 557.36 136.38 552.28 141.66 548.9 136.65 541.85 129.96 539.84 129.8 547.11 Z" fill-rule="evenodd" id="GB-HLD" data-name="Highland"/>
<path d="M 361.4 584.35 366.64 581.1 373.33 574.23 379.62 572.13 382.2 565.47 379.42 563.36 380.2 556.15 377.19 554.21 385.08 541.94 384.01 535.98 380.73 535.27 375.96 530.59 362.44 534.57 360.98 532.29 360.77 520.89 358.81 519.39 359.03 512.65 355.36 505.33 360.97 501.12 372.94 499.99 376.46 492.3 383.1 490.77 393.09 491.2 399.08 495.18 409.63 498.87 416.39 497.95 422.69 493.85 430.3 493.85 430.15 504.22 433.57 511.48 439.58 519.82 437.46 523.33 431.21 521.13 424.62 521.13 416.61 527.71 415.08 531.88 415.55 539.09 418.37 544.56 418.61 550.01 413.54 558.95 406.12 557.43 400.7 560.48 393.4 570.49 389.27 572.45 388.21 576.57 389.98 581.78 388.21 585.25 381.62 586.33 366.18 586.33 361.4 584.35 Z" id="GB-MRY" data-name="Moray"/>
<path d="M 352.01 608.71 356.07 599.67 356.78 587.04 361.4 584.35 366.18 586.33 381.62 586.33 388.21 585.25 389.98 581.78 388.21 576.57 389.27 572.45 393.4 570.49 400.7 560.48 406.12 557.43 413.54 558.95 418.61 550.01 418.37 544.56 415.55 539.09 415.08 531.88 416.61 527.71 424.62 521.13 431.21 521.13 437.46 523.33 439.58 519.82 433.57 511.48 430.15 504.22 430.3 493.85 437.54 496 443.33 494.66 450.2 497.06 456.25 496.93 461.48 499.06 474.21 495.2 479.38 497.95 487.55 493.53 496.42 493.85 501.65 496.93 509.93 507.26 512.29 520.37 515.55 528.18 509.87 535.26 508.28 540 499.89 547.92 497.82 551.17 492.65 564.95 486.93 563.22 482.19 565.74 479.6 562.96 474.72 562.96 472.14 566 474.72 574.22 472.93 578.32 468.55 578.45 469.41 586.26 487.86 582.03 490.99 583.6 483.7 595.38 480.17 605.99 481.27 611.01 478.58 617.17 474.64 621.03 469.25 629.17 464.77 632.05 461.23 636.56 456.53 636.02 453.26 631.99 446.48 630.04 442.53 624.1 443.71 614.75 435.31 604.49 431.42 604.49 426.18 600.7 421.72 602.86 413.83 602.61 408.9 606.46 407.29 613.53 400.05 611.81 393.89 608.71 392.4 613.08 384.23 615.87 378.9 616.75 370.21 614.06 370.23 610.02 362.78 608.75 352.01 608.71 Z" id="GB-ABD" data-name="Aberdeenshire"/>
<path d="M 490.99 583.6 487.86 582.03 469.41 586.26 468.55 578.45 472.93 578.32 474.72 574.22 472.14 566 474.72 562.96 479.6 562.96 482.19 565.74 486.93 563.22 492.65 564.95 490.73 572.63 490.99 583.6 Z" id="GB-ABE" data-name="Aberdeen"/>
<path d="M 384.23 615.87 392.4 613.08 393.89 608.71 400.05 611.81 407.29 613.53 408.9 606.46 413.83 602.61 421.72 602.86 426.18 600.7 431.42 604.49 435.31 604.49 443.71 614.75 442.53 624.1 446.48 630.04 453.26 631.99 456.53 636.02 461.23 636.56 459.97 643.79 457.1 649.21 457.65 653.2 453.68 659.88 446.15 665.32 444.78 668.38 440.05 671.11 437.81 676.06 430.45 675.81 428.39 669.21 421.71 669.21 410.83 671.54 409.58 675.29 404.15 673.02 402.28 669.21 404.5 661.56 409.19 656.03 405.56 654.76 403.45 650.07 394.9 646.88 389.05 638.99 387.41 628.32 384.48 620.18 384.23 615.87 Z" id="GB-ANS" data-name="Angus"/>
<path d="M 409.58 675.29 410.83 671.54 421.71 669.21 428.39 669.21 430.45 675.81 411.48 678.59 409.58 675.29 Z" id="GB-DND" data-name="Dundee"/>
<path d="M 365.32 725.45 364.34 721.55 370.79 718.39 366.84 715.38 357.9 716.59 355.02 712.82 349.76 716.17 348.28 712.46 343.16 710.21 335.95 705.11 327.7 703.75 321.97 700.61 318.04 696.43 317.67 689.06 320.7 687.42 320.65 677.86 328.01 676.25 325.89 671.32 321.57 670.26 312.81 674.35 309.75 666.79 287.47 672.74 284.33 675.74 281.36 672.85 283.54 668.85 280.04 664.65 287.87 660.81 290.83 661.42 284.79 649.83 278.77 651.03 279.24 646.82 288.58 643.57 289.23 634.43 294.38 627.31 300.61 631 306.23 623.93 319.52 617.65 322.48 611.89 327.7 613.85 333.01 612.79 337.58 613.81 340.43 606.18 345.45 609.53 352.01 608.71 362.78 608.75 370.23 610.02 370.21 614.06 378.9 616.75 384.23 615.87 384.48 620.18 387.41 628.32 389.05 638.99 394.9 646.88 403.45 650.07 405.56 654.76 409.19 656.03 404.5 661.56 402.28 669.21 404.15 673.02 409.58 675.29 411.48 678.59 405.2 682.25 394.88 693 396.52 698.68 392.62 700.21 386.82 705.76 387.98 709.81 392.75 710.33 394.98 715.62 384.88 724.16 378.01 723.2 365.32 725.45 Z" id="GB-PKN" data-name="Perthshire and Kinross"/>
<path d="M 356.02 733.42 358.5 729.87 365.25 728.59 365.32 725.45 378.01 723.2 384.88 724.16 394.98 715.62 392.75 710.33 387.98 709.81 386.82 705.76 392.62 700.21 396.52 698.68 394.88 693 403.94 689.71 419.94 681.54 425.18 677.74 430.82 680.3 431.93 684.87 430.27 689.62 434.52 695.97 441.87 696.53 449.92 702.97 444.18 710.95 438.41 712.74 433.32 716.26 429.54 716.43 424.61 713.81 418.81 714.28 408.64 724.86 405.71 726.22 401.63 735.54 396 735.84 388.44 739.98 382.15 740.31 369.18 736.45 362.04 736.58 356.02 733.42 Z" id="GB-FIF" data-name="Fife"/>
<path d="M 569.87 1456.1 570.47 1460.51 566.19 1462.04 563.29 1465.27 562.99 1470.01 554.1 1472.66 551.18 1471.81 536.58 1461.29 535.9 1456.81 542.9 1453.5 544.33 1455 548.94 1450.04 552.77 1448.5 569.87 1456.1 Z" id="GB-IOW" data-name="Isle of Wight"/>
<path d="M 289.32 1122.42 281.34 1120.66 279.95 1117.37 285.38 1115.86 289.32 1122.42 Z M 327.79 1117.37 332.22 1118.29 327.79 1125.35 319.96 1129.36 317.25 1134.46 308.06 1141.17 295.84 1134.41 295.55 1130.57 289.82 1121.96 291.23 1105.14 301.51 1101.62 309.6 1102.59 313.45 1105.08 314.23 1109.39 316.9 1111.54 319.35 1118.86 327.79 1117.37 Z" fill-rule="evenodd" id="GB-AGY" data-name="Anglesey"/>
<path d="M 63.18 596.93 64.14 600.27 56.55 606.99 50.11 605.35 53.34 601.2 52.71 596.93 59.89 594.92 63.18 596.93 Z M 75.24 550.25 78.73 555.38 76.09 557.85 73.05 566.47 74.12 571.87 73.05 576.59 75.61 583.6 68.98 582.21 63.44 579.38 61.36 571.6 61.54 566.47 58.25 563.43 63.52 552.26 60.44 541.01 66.47 537.96 73.65 543.04 76.93 548.12 75.24 550.25 Z M 73.65 526.76 76.98 530.07 71.36 538.45 63.01 534.09 65.14 525.83 73.65 526.76 Z M 84.42 501.35 89.59 504.19 86.85 508.18 81.07 503.07 84.06 518.5 82.16 522.59 71.73 522.93 66.61 516.21 59.29 512.38 57.01 514.19 51.07 510.33 56.55 499.99 62.97 503.98 68.11 499.99 72.5 501.85 80.22 496 84.42 501.35 Z M 104.98 416.08 105.96 410.5 110.71 414.66 104.98 416.08 Z M 98.41 487.69 96.35 489.01 88.44 477.32 97.84 468.85 97.82 464.95 103.07 458.77 98.66 455.57 91.9 454.98 85.76 450.5 89.05 447.22 88.74 439.58 84.66 430.21 85.76 421.38 91.78 420.98 90.31 414.73 92.33 411.83 97.86 414.04 103.07 422.89 110.99 418.28 112.16 414 109.37 405.66 117.65 397.32 125.26 395.63 147.35 378.4 153.63 370.9 158.6 375.62 161.7 385.1 157.81 393.05 159.93 397.15 155.02 401.4 154.72 404.4 149.58 408.23 150.14 416.35 155.57 415.13 159.45 410.88 162.25 416.08 157.81 420.25 147.94 419.21 145.15 427.61 139.67 429.69 136.98 433.06 133.04 432.81 128.43 437.04 143.46 433.58 146.8 443.16 142.91 447.91 133.49 447.11 138.53 452.57 131.94 460.92 122.81 460.55 118.91 452.62 117.61 445.24 113.75 448.43 116.48 454.63 120.98 459.8 122.03 467.12 112.66 463.83 115.95 473.29 107.73 477.32 103.32 484.27 98.41 487.69 Z" fill-rule="evenodd" id="GB-ELS" data-name="Eilean Siar"/>
<path d="M 419.73 320.26 423.42 320.55 421.86 329.69 423.09 334.4 420.77 337.19 415.64 325.19 419.73 320.26 Z M 396.01 327.67 403.09 325.22 403.4 328.51 391.92 329.69 389.63 323.62 381.41 314.85 382.52 309.65 387.9 306.5 396.19 311.53 400.44 318.15 402.08 323.35 396.01 327.67 Z M 437.81 299.91 439.51 305.9 433.21 309.27 428.85 313.64 422.77 311.08 418.07 302.57 410.3 306.48 399.67 308.46 397.65 306.48 397.05 299.65 390 302.05 386.51 292.87 388.33 287.14 387.83 280.09 389.95 275.48 397.4 272.19 409.16 275.39 411.82 281.31 416.39 283.94 411.64 288 406.58 295.66 411.15 296.72 414.99 292.66 421.32 293.61 426.81 299.3 432.8 296.58 437.81 299.91 Z M 452.72 276.55 453.47 282.34 449.99 282.88 446.91 278.64 446.63 272.19 452.72 276.55 Z M 415.56 275.39 410.68 274.51 406.74 270.64 407.73 265.64 412 264.61 417.78 269.85 415.56 275.39 Z M 429.59 264.61 433.13 264.61 432.66 258.32 437.81 260.32 435.13 265.19 435.3 269.72 429.59 267.91 429.59 264.61 Z M 460.39 249.51 454.78 255.93 450.77 253.32 460.39 249.51 Z M 412 245.3 415.29 243.06 424.34 247.95 416.78 253.59 412 245.3 Z" fill-rule="evenodd" id="GB-ORK" data-name="Orkney"/>
<path d="M 593.81 37.51 593.76 43.86 584.12 42.14 581.43 35.29 590.8 35.29 593.81 37.51 Z M 568.73 69.91 571.04 73.19 570.47 85.42 565.44 90.32 566.1 96.45 561.48 106.41 564.96 107 564.34 113.13 561.94 116.4 560.28 123.85 562.86 129.82 559.25 133 561.05 137.6 557.01 140.91 554.47 156.1 546.33 151.85 550.59 144.16 550.13 137.92 552.2 132.7 555.43 118.7 555.02 114.33 551.44 108.12 547.8 97.83 544.6 106.17 539.95 112.07 534.19 106.14 532.5 100.19 527.13 102.45 522.75 98.6 521.11 91.22 523.74 87.81 544.7 85.28 553.69 78.52 544.8 74.22 541.27 67.58 541.35 62.75 536.36 58.73 530.59 60.1 532.49 49.89 543.51 43.19 542.9 38.63 553.12 36.21 552.32 45.73 549.53 50.9 552.83 57.58 552.67 66.42 559.05 56.64 563.84 65.47 563.24 70.63 568.73 69.91 Z M 577.55 23.99 578.15 30.71 572.46 30.89 575.4 37.51 575.63 43.63 573.16 47.66 574.85 53.78 568.73 57.58 563.05 51.35 562.06 35.95 566.58 30.2 569.12 17.81 577.04 18.5 577.55 23.99 Z M 584.17 26.23 579.23 25.22 582.44 9.71 581.43 7.16 587.73 1 594.84 1.68 595.73 7.16 591.9 10.7 592.44 16.25 588.56 20.63 590.82 26.07 584.17 26.23 Z M 571.47 110.8 570.59 119.88 566.71 117.4 566.94 112.16 571.47 110.8 Z M 583.04 74.84 578.45 82.28 576 77.63 583.04 74.84 Z" fill-rule="evenodd" id="GB-ZET" data-name="Shetland Islands"/>
<path d="M 389.15 1318.01 392.75 1317.58 397.3 1324.71 402.28 1326.34 406.74 1329.57 410.28 1332.21 409.85 1338.77 413.39 1341.87 407.18 1344.26 409.23 1347.43 407.73 1349.96 403.39 1348.68 397.68 1349.7 391.72 1336.33 393.85 1332.68 389.15 1318.01 Z" id="GB-CAY" data-name="Caerphilly"/>
<path d="M 369.08 1323.03 372.04 1320.13 377.52 1317.97 381.01 1314.55 382.8 1321.17 380.76 1322.59 385.56 1329.39 391.72 1336.33 397.68 1349.7 392.56 1355.46 380.42 1353.48 377.79 1354.18 378.87 1343.92 376.54 1340.41 371.86 1337.21 370.23 1333.24 369.08 1323.03 Z" id="GB-RCT" data-name="Rhondda, Cynon, Taff"/>
<path d="M 392.75 1317.58 393.94 1314.8 403.36 1315.31 405.63 1317.41 407.09 1321.17 406.74 1329.57 402.28 1326.34 397.3 1324.71 392.75 1317.58 Z" id="GB-BGW" data-name="Blaenau Gwent"/>
<path d="M 405.63 1317.41 412.03 1318.83 414.21 1326.11 417.85 1328.45 419.05 1339.06 413.39 1341.87 409.85 1338.77 410.28 1332.21 406.74 1329.57 407.09 1321.17 405.63 1317.41 Z" id="GB-TOF" data-name="Torfaen"/>
<path d="M 381.01 1314.55 383.43 1313.11 389.15 1318.01 393.85 1332.68 391.72 1336.33 385.56 1329.39 380.76 1322.59 382.8 1321.17 381.01 1314.55 Z" id="GB-MTY" data-name="Merthyr Tydfil"/>
<path d="M 325.57 743.09 329.08 740.18 334.76 742.13 340.7 746.12 344.18 753.45 351.01 758.9 352.25 762.24 356.13 764.23 358.27 770.74 357.07 774.87 353.23 777.8 343.88 781.89 330.44 770.74 328.9 768.63 330.05 764.58 322.67 759.41 323.65 756.82 330.05 757.05 331.84 749.97 325.95 749.28 325.57 743.09 Z" id="GB-NLK" data-name="North Lanarkshire"/>
<path d="M 306.38 747.38 311.44 750.03 314.16 745.6 312.58 741.5 322.95 740.18 325.57 743.09 325.95 749.28 331.84 749.97 330.05 757.05 323.65 756.82 322.67 759.41 318.51 759.68 314.03 755.92 312 758.48 307.43 757.47 306.38 747.38 Z" id="GB-EDU" data-name="East Dunbartonshire"/>
<path d="M 307.02 769.79 307.1 763.37 307.43 757.47 312 758.48 314.03 755.92 318.51 759.68 322.67 759.41 330.05 764.58 328.9 768.63 321.46 768.12 320.45 773.23 316.37 773.46 307.78 773.38 307.02 769.79 Z" id="GB-GLG" data-name="Glasgow"/>
<path d="M 294.08 778.33 294.21 777.82 307.02 769.79 307.78 773.38 316.37 773.46 315.47 779.69 317.58 781.79 317.58 788.09 315.51 788.78 295.01 779.54 294.08 778.33 Z" id="GB-ERW" data-name="East Renfrewshire"/>
<path d="M 337.01 820.72 335.42 824.41 328.1 829.91 328.79 836.82 324.8 845.71 320.52 841.52 311.82 842.38 307.65 848.72 303.28 864.16 298.13 863.48 299.97 857.45 299.97 846.02 297.56 842 292.85 837.97 289.36 832.03 289.96 829.9 298.28 831.39 297.2 821.2 300.94 817.57 300.09 808.84 288.93 802.24 294.72 797.96 292.79 793.05 286.63 792.83 286.03 790.05 290.85 784.7 294.08 778.33 295.01 779.54 315.51 788.78 321.8 801.17 319.03 805 319.87 807.78 330.49 807.56 336.28 805.22 338.81 809.48 337.01 820.72 Z" id="GB-EAY" data-name="East Ayrshire"/>
<path d="M 379.19 776.85 380.96 784.18 384.28 785.68 377.45 794.11 377.57 799.28 373.64 800.98 376.83 806.66 377.01 813.08 374.82 816.31 373.02 823.98 375.78 827.98 370.38 831.63 370.03 839.29 364.39 844.93 359.64 840.54 359.08 834.62 356.29 833.44 354.17 828.06 349.64 822.8 337.01 820.72 338.81 809.48 336.28 805.22 330.49 807.56 319.87 807.78 319.03 805 321.8 801.17 315.51 788.78 317.58 788.09 317.58 781.79 315.47 779.69 316.37 773.46 320.45 773.23 321.46 768.12 328.9 768.63 330.44 770.74 343.88 781.89 353.23 777.8 357.07 774.87 366.88 771.97 370.59 774.27 379.19 776.85 Z" id="GB-SLK" data-name="South Lanarkshire"/>
<path d="M 100.45 918.03 102.75 916.95 101.44 911.33 103.64 906.35 109.95 907.04 112.72 904.44 112.38 898.05 115.93 895.56 119.32 897.35 123.67 894.79 128.1 896.57 133.31 893.29 134.4 897.35 137.27 909.71 136.5 915.94 137.36 918.02 135.06 926.58 130.17 923.67 120.21 928.03 113.99 922.43 108.75 921.77 103.57 923.51 97.24 921.66 100.45 918.03 Z" id="GB-MFT" data-name="Magherafelt"/>
<path d="M 39.14 941.21 42.38 937.78 45.68 937.98 56.07 934.24 57.45 935.55 63.48 928.5 78.31 920.11 86 920.65 94.81 916.71 100.45 918.03 97.24 921.66 95.21 923.17 97.04 935.36 98.82 940.48 97.91 944.56 96.99 949.9 91.77 954.74 87.54 956.05 84.75 959.47 81.16 959.23 69.88 963.91 65.55 964.8 61.04 963.99 54.02 968.28 49.91 964.95 48.35 954.4 50.74 946.13 46.84 946.67 41.02 944.29 39.14 941.21 Z" id="GB-OMH" data-name="Omagh"/>
<path d="M 132.72 949.66 123.89 946.06 117.71 948.06 108.95 944.67 103.15 946.25 97.91 944.56 98.82 940.48 97.04 935.36 95.21 923.17 97.24 921.66 103.57 923.51 108.75 921.77 113.99 922.43 120.21 928.03 130.17 923.67 135.06 926.58 141.31 933.73 140.01 945.64 132.72 949.66 Z" id="GB-CKT" data-name="Mid Ulster"/>
<path d="M 130.56 960.22 128.24 954.01 132.72 949.66 140.01 945.64 148.36 941.54 153.89 942.36 152.28 946.29 153.13 952.1 158.2 964.39 156 969.32 142.56 969.81 137.98 971.96 130.56 960.22 Z" id="GB-CGV" data-name="Craigavon"/>
<path d="M 146.19 985.91 144.76 983.66 145.01 977.13 142.56 969.81 156 969.32 158.2 964.39 161.73 962.88 170.28 967.94 174.36 972.23 179.08 971.77 177.46 977.08 179.3 984.05 175.98 990.27 171.45 990.08 159.66 990.15 146.19 985.91 Z" id="GB-BNB" data-name="Banbridge"/>
<path d="M 168.33 914.66 171.44 917.1 169.98 920.77 171.9 925.49 170.97 931.47 173.29 932.66 170.14 934.47 169.81 938.17 164.01 938.75 156.65 942.48 153.89 942.36 148.36 941.54 140.01 945.64 141.31 933.73 135.06 926.58 137.36 918.02 136.5 915.94 143.89 916.79 153.57 914.32 158.01 916.06 162.85 912.54 168.33 914.66 Z" id="GB-ANT" data-name="Antrim"/>
<path d="M 169.81 938.17 172.55 943.98 178.73 947.63 181.2 949.67 185.68 958.05 181.87 962.11 179.08 971.77 174.36 972.23 170.28 967.94 161.73 962.88 158.2 964.39 153.13 952.1 152.28 946.29 153.89 942.36 156.65 942.48 164.01 938.75 169.81 938.17 Z" id="GB-LSB" data-name="Lisburn"/>
<path d="M 133.31 893.29 128.37 886.28 128.32 879.94 125.81 874.88 128.64 871.88 129.1 867.24 133.72 864.71 140.95 867.95 143.36 866.31 149.07 871.03 156.78 868.72 156.65 876.01 159.64 881.66 152.03 885.39 148.96 885.19 145.36 889.82 138.85 891.14 140.28 898.09 134.4 897.35 133.31 893.29 Z" id="GB-BLY" data-name="Ballymoney"/>
<path d="M 159.64 881.66 163.83 887.53 166.91 887.45 173.2 894.75 171.97 900.07 172.82 905.3 177.9 905.88 178.37 910.64 174.54 913.73 168.33 914.66 162.85 912.54 158.01 916.06 153.57 914.32 143.89 916.79 136.5 915.94 137.27 909.71 134.4 897.35 140.28 898.09 138.85 891.14 145.36 889.82 148.96 885.19 152.03 885.39 159.64 881.66 Z" id="GB-BLA" data-name="Ballymena"/>
<path d="M 178.73 947.63 183.54 943.79 189.86 942.29 190.52 939.32 194.61 939.13 194.78 943.63 189.28 951.59 189.65 956.32 185.68 958.05 181.2 949.67 178.73 947.63 Z" id="GB-CSR" data-name="Castlereagh"/>
<path d="M 646.23 1366.12 641.73 1363.72 637.19 1364.22 639.73 1359.01 643.06 1359.04 645.33 1357.62 646.53 1356.54 645.43 1360.58 646.23 1366.12 Z" id="GB-WND" data-name="Wandsworth"/>
<path d="M 637.19 1364.22 641.73 1363.72 646.23 1366.12 646.61 1367.37 646.26 1370.05 638.76 1370.28 637.19 1364.22 Z" id="GB-MRT" data-name="Merton"/>
<path d="M 646.53 1356.54 645.33 1357.62 639.85 1352.67 642.43 1351.87 644.73 1351.48 647.79 1355.2 646.53 1356.54 Z" id="GB-WSM" data-name="Westminster"/>
<path d="M 645.33 1357.62 643.06 1359.04 639.85 1352.67 645.33 1357.62 Z" id="GB-KEC" data-name="Kensington and Chelsea"/>
<path d="M 637.17 1356.24 637.8 1357.17 631.9 1359.05 627.58 1361.87 625.94 1366.64 622.14 1364.51 621.36 1361.46 625.28 1356.34 637.17 1356.24 Z" id="GB-HNS" data-name="Hounslow"/>
<path d="M 637.17 1356.24 625.28 1356.34 627.27 1349.28 630.67 1349.16 633.15 1351.71 637.81 1352.1 637.17 1356.24 Z" id="GB-EAL" data-name="Ealing"/>
<path d="M 643.06 1359.04 639.73 1359.01 637.8 1357.17 637.17 1356.24 637.81 1352.1 639.85 1352.67 643.06 1359.04 Z" id="GB-HMF" data-name="Hammersmith and Fulham"/>
<path d="M 543.39 941.32 545.33 937.62 550.93 939.71 559.52 940.4 558.96 944.73 555.69 944.44 552.99 948.99 553.05 954.87 556.38 957 550.29 960.39 546.83 956.7 541.84 957.77 543.44 953.44 541.64 950.32 544.31 946.25 543.39 941.32 Z" id="GB-STT" data-name="Stockton-on-Tees"/>
<path d="M 521.78 950.86 522.51 942.49 526.05 941.93 530.56 945.13 537.72 945.13 543.39 941.32 544.31 946.25 541.64 950.32 543.44 953.44 541.84 957.77 533.76 959.97 528.32 953.44 521.78 950.86 Z" id="GB-DAL" data-name="Darlington"/>
<path d="M 558.96 944.73 562.1 954.63 556.38 957 553.05 954.87 552.99 948.99 555.69 944.44 558.96 944.73 Z" id="GB-MDB" data-name="Middlesbrough"/>
<path d="M 639.73 1359.01 637.19 1364.22 632.81 1366.43 632.18 1370.41 625.94 1366.64 627.58 1361.87 631.9 1359.05 637.8 1357.17 639.73 1359.01 Z" id="GB-RIC" data-name="Richmond upon Thames"/>
<path d="M 651.02 1353.46 651.43 1354.5 648.99 1354.26 648.57 1352.49 649.79 1352.04 651.02 1353.46 Z" id="GB-LND" data-name="City"/>
<path d="M 651.43 1354.5 651.02 1353.46 655.92 1349.91 658.36 1355.18 654.94 1356.98 651.43 1354.5 Z" id="GB-TWH" data-name="Tower Hamlets"/>
<path d="M 510.68 898.94 512.28 889.51 516.35 885.23 523.79 888.88 533.79 892.06 534.31 896.6 530.17 901.55 510.68 898.94 Z" id="GB-GAT" data-name="Gateshead"/>
<path d="M 516.35 885.23 520.54 880.99 521.21 875.51 524.39 876.14 526.22 879.33 537.18 887.97 533.79 892.06 523.79 888.88 516.35 885.23 Z" id="GB-NET" data-name="Newcastle upon Tyne"/>
<path d="M 581.29 1041.86 574.49 1043.31 565.18 1042.93 559.01 1035.51 557.89 1028.08 562.27 1026.55 564.73 1020.06 569.11 1018.34 575.95 1020.06 577.52 1027.32 582.3 1027.7 582.87 1031.52 581.29 1041.86 Z" id="GB-YOR" data-name="York"/>
<path d="M 441.59 1108.07 435.64 1108.16 432.53 1104.87 430.75 1092.94 431.87 1089.45 435.86 1090.24 440.83 1095.56 447.75 1095.45 450.76 1100.42 442.37 1101.03 444.2 1106.38 441.59 1108.07 Z" id="GB-SHN" data-name="Merseyside"/>
<path d="M 655.9 1332.62 656.59 1336.58 654.4 1342.47 646.32 1341.6 647.17 1339.01 643.48 1335.97 643.52 1333.38 644.91 1331.08 655.9 1332.62 Z" id="GB-ENF" data-name="Enfield"/>
<path d="M 663.27 1290.37 665.7 1294.13 668.17 1305.81 672.05 1304.98 669.49 1317.94 659.66 1320.82 656.8 1325.39 655.9 1332.62 644.91 1331.08 643.52 1333.38 633.23 1337.65 624.71 1340.7 619.96 1341.22 617.19 1343.78 615.17 1341.61 612.78 1327.56 609.52 1323.31 606.11 1323.34 602.72 1320.68 602.34 1317.26 598.19 1313.11 602.65 1311.12 604.3 1315.23 610.28 1316.53 613.96 1314.19 620.46 1310.55 626.29 1313.54 629.88 1310.08 625.88 1300.97 625.78 1294.46 633.52 1291.52 636.35 1293.48 640.68 1289.39 640.37 1286.75 645.07 1281.6 648.04 1288.16 655.88 1283.95 660.93 1285.04 663.27 1290.37 Z" id="GB-HRT" data-name="Hertfordshire"/>
<path d="M 643.52 1333.38 643.48 1335.97 647.17 1339.01 646.32 1341.6 643.74 1346.95 640.37 1348.88 635.38 1342.48 633.23 1337.65 643.52 1333.38 Z" id="GB-BNE" data-name="Barnet"/>
<path d="M 656.59 1336.58 659.02 1339.19 658.72 1348.52 655.95 1348.76 652.57 1346.02 654.4 1342.47 656.59 1336.58 Z" id="GB-WFT" data-name="Waltham Forest"/>
<path d="M 659.02 1339.19 663.54 1342.48 668.72 1340.35 669.04 1342.75 667 1348.62 662.79 1350.09 658.72 1348.52 659.02 1339.19 Z" id="GB-RDB" data-name="Redbridge"/>
<path d="M 668.72 1340.35 675.38 1338.84 682.48 1348.04 683.79 1350.36 676.69 1352.94 674.84 1356.94 670.13 1355.5 672.29 1349.14 669.63 1347.35 669.04 1342.75 668.72 1340.35 Z" id="GB-HAV" data-name="Havering"/>
<path d="M 652.83 1204.27 659.39 1205.58 661.39 1202.6 661.04 1198.63 670.64 1195.47 669.41 1202.64 672.65 1203.85 671.63 1207.96 676.54 1211.75 674.46 1213.99 674.71 1222.28 677.12 1226.78 683.18 1224.69 688.76 1231.03 692.71 1234.06 688.33 1237.24 688.09 1239.59 694.73 1250.35 697.79 1253.85 696.58 1256.04 691.37 1257.5 687.53 1254.48 684.88 1256.99 688.31 1261.28 693.91 1259.36 698.33 1263.17 696.83 1269.68 693.86 1269.28 688.76 1277.06 689.63 1282.95 686.15 1284.93 679.81 1279.6 673.39 1280.03 672.34 1283.27 665.5 1287.11 663.27 1290.37 660.93 1285.04 655.88 1283.95 648.04 1288.16 645.07 1281.6 646.32 1274.85 639.41 1273.35 640.19 1271.03 636.48 1265.61 633.25 1261.39 628.28 1260.99 627.01 1255.68 623.17 1254.33 619.97 1250.29 617.91 1242.84 622.61 1240.61 629.86 1230.99 628.86 1226.45 624.11 1223.57 623.54 1217.26 630.59 1224.15 633.78 1224.58 639.51 1218.23 645.5 1214.94 651.76 1213.85 652.83 1204.27 Z" id="GB-CAM" data-name="Cambridgeshire"/>
<path d="M 674.84 1356.94 674.69 1359.14 669.71 1366.19 670.15 1368.59 663.25 1364.34 663.91 1359.79 666.48 1355.16 670.13 1355.5 674.84 1356.94 Z" id="GB-BEX" data-name="Bexley"/>
<path d="M 638.76 1370.28 646.26 1370.05 647.96 1375.05 643.66 1378.73 642.48 1376.23 637.28 1371.8 638.76 1370.28 Z" id="GB-STN" data-name="Sutton"/>
<path d="M 587.16 1286.27 590.34 1281.27 586.28 1275.54 590.5 1274.05 592.04 1270.81 598.28 1269.58 604.26 1265.54 606.93 1267.84 606.09 1271.56 610.75 1278.08 603.94 1285.62 606.22 1287 604.28 1292.25 604.04 1297.48 598.8 1297.24 589.53 1289.25 587.16 1286.27 Z" id="GB-MIK" data-name="Milton Keynes"/>
<path d="M 613.96 1314.19 610.28 1316.53 604.3 1315.23 602.65 1311.12 598.19 1313.11 602.34 1317.26 602.72 1320.68 606.11 1323.34 609.52 1323.31 612.78 1327.56 615.17 1341.61 617.19 1343.78 618.95 1349.07 616.88 1358.38 615.63 1358.64 614.76 1354.7 607.29 1351.62 605.73 1356.33 600.5 1354.6 601.76 1349.16 597.14 1347.52 588.86 1350.04 585.58 1349.31 581.98 1346.42 583.58 1343.94 580.97 1340.14 582.83 1333.92 586.42 1334.28 585.79 1327.56 583.58 1324.42 579.28 1322.41 571.23 1323.02 567.79 1319.34 567.19 1311.77 572.72 1312.42 569.96 1304.01 572.72 1298.55 569.89 1296.88 572.26 1291.64 567.83 1289.49 568.75 1284.97 581.29 1281.31 584.43 1288.26 587.16 1286.27 589.53 1289.25 598.8 1297.24 604.04 1297.48 601.56 1303.36 611.75 1309.61 613.96 1314.19 Z" id="GB-BKM" data-name="Buckinghamshire"/>
<path d="M 625.28 1356.34 621.36 1361.46 616.88 1358.38 618.95 1349.07 617.19 1343.78 619.96 1341.22 624.71 1340.7 627.27 1349.28 625.28 1356.34 Z" id="GB-HIL" data-name="Hillingdon"/>
<path d="M 642.43 1351.87 639.85 1352.67 637.81 1352.1 633.15 1351.71 630.67 1349.16 631.71 1345.76 635.38 1342.48 640.37 1348.88 642.43 1351.87 Z" id="GB-BEN" data-name="Brent"/>
<path d="M 625.88 1300.97 629.88 1310.08 626.29 1313.54 620.46 1310.55 618.49 1304.99 619.51 1301.94 625.88 1300.97 Z" id="GB-LUT" data-name="Luton"/>
<path d="M 630.67 1349.16 627.27 1349.28 624.71 1340.7 633.23 1337.65 635.38 1342.48 631.71 1345.76 630.67 1349.16 Z" id="GB-HRW" data-name="Harrow"/>
<path d="M 620.46 1310.55 613.96 1314.19 611.75 1309.61 601.56 1303.36 604.04 1297.48 604.28 1292.25 606.22 1287 603.94 1285.62 610.75 1278.08 616.38 1281.29 619.91 1280.57 625.21 1282.01 629.63 1276.98 629.19 1271.95 630.73 1267.27 636.48 1265.61 640.19 1271.03 639.41 1273.35 646.32 1274.85 645.07 1281.6 640.37 1286.75 640.68 1289.39 636.35 1293.48 633.52 1291.52 625.78 1294.46 625.88 1300.97 619.51 1301.94 618.49 1304.99 620.46 1310.55 Z" id="GB-CBF" data-name="Central Bedfordshire"/>
<path d="M 619.97 1250.29 623.17 1254.33 627.01 1255.68 628.28 1260.99 633.25 1261.39 636.48 1265.61 630.73 1267.27 629.19 1271.95 629.63 1276.98 625.21 1282.01 619.91 1280.57 616.38 1281.29 610.75 1278.08 606.09 1271.56 606.93 1267.84 604.26 1265.54 605.86 1262.45 605.31 1256.81 614.63 1256.62 616.41 1251.04 619.97 1250.29 Z" id="GB-BDF" data-name="Bedford"/>
<path d="M 604.53 1192.39 611.55 1193.33 615.41 1197.42 623.46 1200.47 617.41 1207.1 612.8 1213.18 602.07 1219.45 598.2 1224.25 595.39 1220.83 592.57 1212.52 592.16 1197.55 598.42 1196.55 604.53 1192.39 Z" id="GB-RUT" data-name="Rutland"/>
<path d="M 582.99 1093.43 584.14 1097.44 592.8 1098.17 594.54 1105.04 594.22 1108.85 596.82 1114.55 594.46 1127.49 604.06 1127.88 603.46 1131.64 598.13 1133.2 600.11 1137.41 600.35 1145.92 601.52 1152.19 597.48 1153.97 594.06 1158.01 595.25 1163.99 593.24 1164.49 588.58 1173.07 579.01 1182.04 578.16 1184.41 568.49 1184.37 561.41 1189.11 555.66 1185.55 555.42 1177.25 553.72 1160.72 550.71 1157.08 550.05 1152.12 553.08 1147.62 551.4 1141.31 554.33 1138.22 561.19 1136.4 560.79 1127.73 563.65 1123.74 562.39 1119.61 567.37 1111.12 567.04 1108.1 571.19 1103.46 575.47 1104.1 578.32 1100.59 578.94 1096.73 582.99 1093.43 Z M 562.79 1175.83 568.16 1169.62 565.64 1161.24 561.08 1159.89 559.04 1162.87 558.15 1170.02 560.43 1174.88 562.79 1175.83 Z" fill-rule="evenodd" id="GB-NTT" data-name="Nottinghamshire"/>
<path d="M 623.54 1217.26 624.11 1223.57 628.86 1226.45 629.86 1230.99 622.61 1240.61 617.91 1242.84 619.97 1250.29 616.41 1251.04 614.63 1256.62 605.31 1256.81 605.86 1262.45 604.26 1265.54 598.28 1269.58 592.04 1270.81 590.5 1274.05 586.28 1275.54 590.34 1281.27 587.16 1286.27 584.43 1288.26 581.29 1281.31 568.75 1284.97 567.83 1289.49 561.77 1293.52 555.24 1293.34 552.7 1285.62 552.92 1281.38 557.47 1278.15 550.73 1269.59 556.55 1265.18 555.17 1260.92 559.81 1258.01 558.52 1253.74 560.26 1251.26 557.78 1247.83 563.25 1245.14 561.54 1240.76 563.94 1241.16 568.44 1235.13 572.89 1237.98 573.82 1232.42 579.5 1229.93 584.74 1232.09 586.89 1224.47 598.2 1224.25 602.07 1219.45 612.8 1213.18 617.41 1207.1 619.38 1210.72 618.75 1216.15 623.54 1217.26 Z" id="GB-NTH" data-name="Northamptonshire"/>
<path d="M 647.79 1355.2 644.73 1351.48 642.43 1351.87 640.37 1348.88 643.74 1346.95 646.29 1347.24 648.57 1352.49 648.99 1354.26 648.14 1354.84 647.79 1355.2 Z" id="GB-CMD" data-name="Camden"/>
<path d="M 649.79 1352.04 648.57 1352.49 646.29 1347.24 649.24 1347.77 649.79 1352.04 Z" id="GB-ISL" data-name="Islington"/>
<path d="M 617.41 1207.1 624.53 1207.05 631.51 1203.52 635.77 1205.65 640.79 1204.49 645.76 1206.83 652.83 1204.27 651.76 1213.85 645.5 1214.94 639.51 1218.23 633.78 1224.58 630.59 1224.15 623.54 1217.26 618.75 1216.15 619.38 1210.72 617.41 1207.1 Z" id="GB-PTE" data-name="Peterborough"/>
<path d="M 646.23 1366.12 645.43 1360.58 646.53 1356.54 647.79 1355.2 648.14 1354.84 650.34 1360.49 650.82 1365.93 650.67 1366.55 646.61 1367.37 646.23 1366.12 Z" id="GB-LBH" data-name="Lambeth"/>
<path d="M 648.99 1354.26 651.43 1354.5 654.94 1356.98 654.04 1361.79 651.45 1365.69 650.82 1365.93 650.34 1360.49 648.14 1354.84 648.99 1354.26 Z" id="GB-SWK" data-name="Southwark"/>
<path d="M 558.05 1075.43 560.5 1073.01 570.58 1071.77 576.81 1070.11 581.22 1070.52 587.76 1073.83 587.7 1076.54 586.73 1085.55 581.07 1089.3 582.99 1093.43 578.94 1096.73 578.32 1100.59 575.47 1104.1 571.19 1103.46 567.04 1108.1 562.01 1105.23 557.1 1100.73 555.76 1095.86 550.4 1094.73 552.85 1089.85 548.86 1080.83 552.01 1081.46 556.98 1078.64 558.05 1075.43 Z" id="GB-DNC" data-name="Doncaster"/>
<path d="M 646.26 1370.05 646.61 1367.37 650.67 1366.55 655.29 1372.29 657.86 1378.59 654.66 1377.3 646.52 1382.65 643.66 1378.73 647.96 1375.05 646.26 1370.05 Z" id="GB-CRY" data-name="Croydon"/>
<path d="M 651.45 1365.69 654.04 1361.79 654.94 1356.98 658.85 1363.5 656.81 1366.96 651.45 1365.69 Z" id="GB-LEW" data-name="Lewisham"/>
<path d="M 646.32 1341.6 654.4 1342.47 652.57 1346.02 649.24 1347.77 646.29 1347.24 643.74 1346.95 646.32 1341.6 Z" id="GB-HRY" data-name="Haringey"/>
<path d="M 637.19 1364.22 638.76 1370.28 637.28 1371.8 631.51 1375.2 632.18 1370.41 632.81 1366.43 637.19 1364.22 Z" id="GB-KTT" data-name="Kingston upon Thames"/>
<path d="M 658.36 1355.18 655.92 1349.91 655.95 1348.76 658.72 1348.52 662.79 1350.09 664.58 1355.81 658.36 1355.18 Z" id="GB-NWM" data-name="Newham"/>
<path d="M 654.94 1356.98 658.36 1355.18 664.58 1355.81 666.48 1355.16 663.91 1359.79 663.25 1364.34 658.85 1363.5 654.94 1356.98 Z" id="GB-GRE" data-name="Greenwich"/>
<path d="M 651.02 1353.46 649.79 1352.04 649.24 1347.77 652.57 1346.02 655.95 1348.76 655.92 1349.91 651.02 1353.46 Z" id="GB-HCK" data-name="Hackney"/>
<path d="M 662.79 1350.09 667 1348.62 669.04 1342.75 669.63 1347.35 672.29 1349.14 670.13 1355.5 666.48 1355.16 664.58 1355.81 662.79 1350.09 Z" id="GB-BDG" data-name="Barking and Dagenham"/>
<path d="M 595.25 1163.99 597.03 1168.37 595.54 1172.85 598.71 1176.69 602.52 1184.51 604.53 1192.39 598.42 1196.55 592.16 1197.55 592.57 1212.52 595.39 1220.83 598.2 1224.25 586.89 1224.47 584.74 1232.09 579.5 1229.93 573.82 1232.42 572.89 1237.98 568.44 1235.13 563.94 1241.16 561.54 1240.76 552.96 1227.84 544.73 1223.48 543.02 1220.48 536.77 1217.69 532.69 1214.47 531.65 1209.07 533.65 1206.43 529.95 1201.75 529.71 1200.69 533.56 1197.89 533.74 1192.11 538.4 1192.26 542.22 1187.58 544.78 1186.77 546.77 1181.27 552.32 1177.13 555.42 1177.25 555.66 1185.55 561.41 1189.11 568.49 1184.37 578.16 1184.41 579.01 1182.04 588.58 1173.07 593.24 1164.49 595.25 1163.99 Z M 566.72 1216.51 571.36 1212.52 570.76 1205.54 563.69 1204.54 562.07 1206.87 563.08 1215.18 566.72 1216.51 Z" fill-rule="evenodd" id="GB-LEC" data-name="Leicestershire"/>
<path d="M 446.23 1160.72 446.5 1155.01 442.64 1152.36 443.78 1146.7 456.94 1139.14 463.29 1127.78 462.38 1124.37 458.07 1120.96 455.36 1114.52 460.34 1111.27 461.81 1107.86 470.81 1110.6 475.33 1112.62 482.09 1112.55 486.6 1110.68 492.26 1111.65 494.89 1109.19 496.39 1113.86 496.99 1126.5 498.09 1131.1 490.75 1136.67 484.99 1136.11 479.78 1143.64 476.67 1147.35 471.7 1148.25 466.21 1153.86 465.82 1160.21 461.64 1163.49 453.9 1165.86 449.84 1165.01 446.23 1160.72 Z" id="GB-CHE" data-name="Cheshire East"/>
<path d="M 562.39 1119.61 563.65 1123.74 560.79 1127.73 561.19 1136.4 554.33 1138.22 551.4 1141.31 553.08 1147.62 550.05 1152.12 550.71 1157.08 553.72 1160.72 555.42 1177.25 552.32 1177.13 546.77 1181.27 544.78 1186.77 542.22 1187.58 538.4 1192.26 533.74 1192.11 533.56 1197.89 529.71 1200.69 525.13 1200.69 524.66 1197.82 520.29 1195.23 522.52 1190.97 526 1189.12 529.08 1184 525.89 1179.98 518.64 1179.43 515.9 1176.66 510.37 1175.4 509.01 1171.52 511.31 1163.97 515.68 1161.16 514.56 1146.77 512.38 1139.9 507.74 1135.25 498.09 1131.1 496.99 1126.5 496.39 1113.86 494.89 1109.19 497.72 1105.44 495.29 1103.54 498.01 1095.94 499.15 1092.45 502.74 1091.63 504.48 1087.28 510.99 1089.57 513.31 1095.97 517.82 1099.69 517.57 1103.76 524.62 1108.36 524.31 1111.69 528.95 1113.59 530.71 1118 533.85 1120.05 544.91 1115.27 549.82 1118.82 551.52 1116.8 557.05 1119.9 562.39 1119.61 Z M 541.86 1179.87 543.94 1175.86 544.29 1170.84 537.45 1167.11 533.29 1172.42 532.68 1175.28 536.84 1179.16 541.86 1179.87 Z" fill-rule="evenodd" id="GB-DBY" data-name="Derbyshire"/>
<path d="M 567.04 1108.1 567.37 1111.12 562.39 1119.61 557.05 1119.9 551.52 1116.8 549.82 1118.82 544.91 1115.27 543.92 1103.73 543.92 1099.23 546.82 1095.86 550.4 1094.73 555.76 1095.86 557.1 1100.73 562.01 1105.23 567.04 1108.1 Z" id="GB-ROT" data-name="Rotherham"/>
<path d="M 544.91 1115.27 533.85 1120.05 530.71 1118 528.95 1113.59 524.31 1111.69 524.62 1108.36 517.57 1103.76 517.82 1099.69 513.31 1095.97 510.99 1089.57 529.17 1092.1 531.63 1095.86 539.23 1095.86 540.57 1101.11 543.92 1103.73 544.91 1115.27 Z" id="GB-SHF" data-name="Sheffield"/>
<path d="M 476.67 1147.35 479.78 1143.64 480.83 1147.64 484.28 1151.94 488.35 1160.27 487.25 1166.77 481.93 1166.12 480.05 1163.65 476.67 1147.35 Z" id="GB-STE" data-name="Stoke-on-Trent"/>
<path d="M 470.22 1192.37 462.15 1211 459.24 1209.65 444.81 1195.88 444.35 1190.93 448.98 1189.73 464.39 1182.57 466.61 1187.84 470.22 1192.37 Z" id="GB-TFW" data-name="Telford and Wrekin"/>
<path d="M 464.39 1182.57 466.86 1174.25 461.35 1176.4 460.15 1174.07 462.58 1167.3 466.1 1165.53 465.82 1160.21 466.21 1153.86 471.7 1148.25 476.67 1147.35 480.05 1163.65 481.93 1166.12 487.25 1166.77 488.35 1160.27 484.28 1151.94 480.83 1147.64 479.78 1143.64 484.99 1136.11 490.75 1136.67 498.09 1131.1 507.74 1135.25 512.38 1139.9 514.56 1146.77 515.68 1161.16 511.31 1163.97 509.01 1171.52 510.37 1175.4 515.9 1176.66 518.64 1179.43 525.89 1179.98 529.08 1184 526 1189.12 522.52 1190.97 520.29 1195.23 524.66 1197.82 525.13 1200.69 529.71 1200.69 529.95 1201.75 525.85 1206.28 525.55 1213.51 523.08 1215.13 514.08 1215.18 511.08 1213.14 507.83 1215.16 504.55 1209.62 504.48 1205.39 492.15 1209.62 485.71 1208.04 480.13 1214.65 483.59 1219.01 486.11 1219.27 485.44 1223.12 481.98 1224.99 483.47 1228.1 483.88 1235.28 473.26 1232.43 472.26 1228.36 475.76 1222.71 476.07 1216.89 471.3 1213.07 477.21 1210.28 477.65 1202.78 472.7 1201.32 470.22 1192.37 466.61 1187.84 464.39 1182.57 Z" id="GB-STS" data-name="Staffordshire"/>
<path d="M 670.15 1368.59 669.27 1374.23 661.17 1382.54 657.86 1378.59 655.29 1372.29 650.67 1366.55 650.82 1365.93 651.45 1365.69 656.81 1366.96 658.85 1363.5 663.25 1364.34 670.15 1368.59 Z" id="GB-BRY" data-name="Bromley"/>
<path d="M 444.78 1247.21 448.24 1250.75 451.63 1250.32 454.06 1246.23 463.29 1243.13 464.87 1240.46 469.94 1239.66 468.09 1235.18 473.26 1232.43 483.88 1235.28 493.78 1233.44 497.59 1235.96 497.59 1241.27 504.22 1239.26 508.72 1240.46 506.11 1245.57 508.47 1250.14 505.64 1254.84 502.65 1255.89 504.08 1263.17 500.69 1269.18 504.99 1273.24 513.31 1273.79 515.68 1276.88 511.17 1281.7 510.06 1286.2 498.57 1287.29 493.76 1290.7 484.73 1289.87 479.53 1291.89 477.43 1295.36 471.52 1294.13 468.01 1288.87 468.15 1276.76 463.3 1270.2 463.61 1263.8 459.48 1260.6 457 1256.05 453.9 1258.91 447.5 1259.08 444.78 1247.21 Z" id="GB-WOR" data-name="Worcestershire"/>
<path d="M 524.13 1292.78 527.36 1287.22 522.37 1286.63 519.04 1279.6 515.68 1276.88 513.31 1273.79 504.99 1273.24 500.69 1269.18 504.08 1263.17 502.65 1255.89 505.64 1254.84 508.47 1250.14 506.11 1245.57 508.72 1240.46 509.45 1240.85 512.53 1244.59 525.13 1244.77 531.33 1241.96 539.36 1242.8 541.86 1240.46 539.99 1233.3 526.78 1232.45 523.39 1235.05 517.02 1225.46 517.64 1223.59 514.08 1215.18 523.08 1215.13 525.55 1213.51 525.85 1206.28 529.95 1201.75 533.65 1206.43 531.65 1209.07 532.69 1214.47 536.77 1217.69 543.02 1220.48 544.73 1223.48 552.96 1227.84 561.54 1240.76 563.25 1245.14 557.78 1247.83 560.26 1251.26 558.52 1253.74 559.81 1258.01 555.17 1260.92 556.55 1265.18 550.73 1269.59 549.11 1273.14 536.75 1282.76 535.59 1290.91 532.38 1294.71 528.03 1296.56 524.13 1292.78 Z" id="GB-WAR" data-name="Warwickshire"/>
<path d="M 521.66 1332.44 522.24 1329.07 520.92 1321.58 522.26 1309.53 524.64 1302.41 527.32 1299.6 523.78 1296.02 524.13 1292.78 528.03 1296.56 532.38 1294.71 535.59 1290.91 536.75 1282.76 549.11 1273.14 550.73 1269.59 557.47 1278.15 552.92 1281.38 552.7 1285.62 555.24 1293.34 561.77 1293.52 567.83 1289.49 572.26 1291.64 569.89 1296.88 572.72 1298.55 569.96 1304.01 572.72 1312.42 567.19 1311.77 567.79 1319.34 571.23 1323.02 579.28 1322.41 583.58 1324.42 585.79 1327.56 586.42 1334.28 582.83 1333.92 580.97 1340.14 583.58 1343.94 581.98 1346.42 585.58 1349.31 586.69 1354.55 584 1358.55 579.37 1361.36 570.01 1356.92 566.63 1355.12 564.75 1351.58 561.73 1352.55 555.29 1351.34 550.67 1349.07 540.48 1351.3 537.44 1349.47 530.95 1349.61 529.59 1353.28 528.12 1352.91 522.1 1342.65 523.97 1338.49 521.61 1336.08 521.66 1332.44 Z" id="GB-OXF" data-name="Oxfordshire"/>
<path d="M 435.86 1090.24 438.99 1087.69 441.1 1078.27 448.86 1076.46 451.36 1078.34 455.18 1086.58 457.29 1096.84 454.3 1096.8 450.76 1100.42 447.75 1095.45 440.83 1095.56 435.86 1090.24 Z" id="GB-WGN" data-name="Wigan"/>
<path d="M 494.89 1109.19 492.26 1111.65 486.6 1110.68 482.09 1112.55 475.33 1112.62 474.84 1109.2 477.44 1105.14 478.13 1100.2 486.28 1103.97 495.29 1103.54 497.72 1105.44 494.89 1109.19 Z" id="GB-SKP" data-name="Stockport"/>
<path d="M 455.36 1114.52 450.52 1117.01 443.02 1110.94 441.59 1108.07 444.2 1106.38 442.37 1101.03 450.76 1100.42 454.3 1096.8 457.29 1096.84 460.37 1102.68 461.81 1107.86 460.34 1111.27 455.36 1114.52 Z" id="GB-WRT" data-name="Warrington"/>
<path d="M 573.95 1374.23 571.68 1371.84 566.88 1374.23 556.82 1372.4 544.45 1372.19 537.42 1377.08 536.53 1372.76 533.69 1371.3 531.29 1366.83 534.61 1365.08 529.92 1355.13 529.59 1353.28 530.95 1349.61 537.44 1349.47 540.48 1351.3 550.67 1349.07 555.29 1351.34 561.73 1352.55 564.75 1351.58 566.63 1355.12 570.01 1356.92 569.79 1364.03 572.22 1366.86 573.95 1374.23 Z" id="GB-WBK" data-name="West Berkshire"/>
<path d="M 588.33 1374.82 583.01 1373.51 573.95 1374.23 572.22 1366.86 577.74 1365.45 579.37 1361.36 584 1358.55 586.69 1354.55 585.58 1349.31 588.86 1350.04 590.33 1359.43 591.43 1368.63 588.33 1374.82 Z" id="GB-WOK" data-name="Wokingham"/>
<path d="M 595.36 1377.23 588.33 1374.82 591.43 1368.63 590.33 1359.43 599.6 1361.55 602.03 1364.39 600.71 1372.66 595.36 1377.23 Z" id="GB-BRC" data-name="Bracknell Forest"/>
<path d="M 588.86 1350.04 597.14 1347.52 601.76 1349.16 600.5 1354.6 605.73 1356.33 610.31 1358.67 610.58 1362.52 607.05 1369.98 600.71 1372.66 602.03 1364.39 599.6 1361.55 590.33 1359.43 588.86 1350.04 Z" id="GB-WNM" data-name="Royal Borough of Windsor and Maidenhead"/>
<path d="M 605.73 1356.33 607.29 1351.62 614.76 1354.7 615.63 1358.64 614.12 1364.07 610.58 1362.52 610.31 1358.67 605.73 1356.33 Z" id="GB-SLG" data-name="Slough"/>
<path d="M 570.01 1356.92 579.37 1361.36 577.74 1365.45 572.22 1366.86 569.79 1364.03 570.01 1356.92 Z" id="GB-RDG" data-name="Reading"/>
<path d="M 661.17 1382.54 661.93 1388.67 660.37 1392.8 661.84 1402.29 658.52 1402.29 647.23 1402.47 642.19 1399.03 632.52 1404.75 628.57 1404.96 623.04 1407.27 618.62 1407.48 613.34 1409.54 606.49 1408.87 601.56 1410.61 596.29 1408.32 596.83 1405.43 590.68 1400.27 589.36 1393.58 592.62 1389.06 598.1 1388.46 598.22 1382.33 595.36 1377.23 600.71 1372.66 607.05 1369.98 610.58 1362.52 614.12 1364.07 615.63 1358.64 616.88 1358.38 621.36 1361.46 622.14 1364.51 625.94 1366.64 632.18 1370.41 631.51 1375.2 637.28 1371.8 642.48 1376.23 643.66 1378.73 646.52 1382.65 654.66 1377.3 657.86 1378.59 661.17 1382.54 Z" id="GB-SRY" data-name="Surrey"/>
<path d="M 455.73 1074.57 453.96 1070.98 454.04 1059.53 456.39 1056.28 462.66 1055.79 467.6 1069.48 466.01 1073.5 461.35 1072.25 455.73 1074.57 Z" id="GB-BBD" data-name="Blackburn with Darwen"/>
<path d="M 516.33 1335.01 521.66 1332.44 521.61 1336.08 523.97 1338.49 522.1 1342.65 528.12 1352.91 529.59 1353.28 529.92 1355.13 520.51 1360.67 515.42 1360.33 511.45 1358.1 509.5 1354.51 509.78 1347.01 516.33 1335.01 Z" id="GB-SWD" data-name="Swindon"/>
<path d="M 472.94 1378.05 468.47 1381.26 463.72 1381.33 459.45 1384.72 452.92 1381.26 446.39 1383.43 442.57 1379.72 439.01 1378.71 438.84 1375.78 444.32 1374.92 445.37 1370.7 451.09 1370.96 454.27 1365.98 455.82 1367.69 464.3 1368.03 473.7 1365.79 473.75 1371.95 469.44 1375.23 472.94 1378.05 Z" id="GB-BAS" data-name="Bath and North East Somerset"/>
<path d="M 474.42 1345.56 480.84 1342.83 484.28 1343.98 488.11 1340 491.64 1334.32 500.35 1337.44 501.05 1334.46 509.65 1335.29 516.33 1335.01 509.78 1347.01 509.5 1354.51 511.45 1358.1 515.42 1360.33 520.51 1360.67 529.92 1355.13 534.61 1365.08 531.29 1366.83 533.69 1371.3 536.53 1372.76 537.42 1377.08 533.23 1384.4 526.09 1389.71 520.6 1389.38 523.93 1397.75 524.11 1403.51 525.82 1408.66 527.5 1424.78 523.93 1425.99 520.47 1422.84 511.42 1420.57 509.27 1418.48 502.14 1419.71 500.24 1421.14 488.27 1425.28 484.66 1421.42 480.64 1414.05 477.08 1410.53 470.41 1409.01 468.22 1404.61 474.86 1392.95 477.27 1385.86 472.94 1378.05 469.44 1375.23 473.75 1371.95 473.7 1365.79 473.19 1357.93 476.54 1353.12 474.42 1345.56 Z" id="GB-WIL" data-name="Wiltshire"/>
<path d="M 493.62 1044.63 498.01 1041.67 502.49 1048.03 505.93 1048.56 512.97 1054.92 515.79 1059.42 517.2 1064.18 510.47 1068.67 494.31 1072.9 492.51 1066.83 488.31 1068.49 484.08 1065.15 483.41 1061.22 486.49 1057.19 486.55 1052.28 492.44 1047.79 493.62 1044.63 Z" id="GB-CLD" data-name="Calderdale"/>
<path d="M 510.99 1089.57 504.48 1087.28 498.08 1079.06 497.19 1076.24 494.31 1072.9 510.47 1068.67 517.2 1064.18 515.79 1059.42 518.61 1057.3 524.55 1055.98 529.88 1064.44 529.25 1069.99 526.75 1071.57 528.32 1081.73 522.37 1084.99 519.13 1084.35 510.99 1089.57 Z" id="GB-KIR" data-name="Kirklees"/>
<path d="M 562.79 1175.83 560.43 1174.88 558.15 1170.02 559.04 1162.87 561.08 1159.89 565.64 1161.24 568.16 1169.62 562.79 1175.83 Z" id="GB-NGM" data-name="Nottingham"/>
<path d="M 566.72 1216.51 563.08 1215.18 562.07 1206.87 563.69 1204.54 570.76 1205.54 571.36 1212.52 566.72 1216.51 Z" id="GB-LCE" data-name="Leicester"/>
<path d="M 541.86 1179.87 536.84 1179.16 532.68 1175.28 533.29 1172.42 537.45 1167.11 544.29 1170.84 543.94 1175.86 541.86 1179.87 Z" id="GB-DER" data-name="Derby"/>
<path d="M 518.02 1037.13 525.02 1036.52 529.68 1037.39 535.8 1036.04 540.01 1036.67 545.47 1032.13 549.73 1031.37 552.9 1034.02 551.98 1042.84 550.33 1044.8 553.45 1056.74 551.88 1059.53 549.91 1062.33 543.18 1065.5 534.1 1063.12 529.88 1064.44 524.55 1055.98 522.21 1052 522.21 1043.78 518.02 1037.13 Z" id="GB-LDS" data-name="Leeds"/>
<path d="M 498.01 1041.67 498.35 1035.16 500.76 1029.63 506.53 1031.99 512.46 1031.63 518.02 1037.13 522.21 1043.78 522.21 1052 524.55 1055.98 518.61 1057.3 515.79 1059.42 512.97 1054.92 505.93 1048.56 502.49 1048.03 498.01 1041.67 Z" id="GB-BRD" data-name="Bradford"/>
<path d="M 551.88 1059.53 558.85 1062.69 556.82 1068.49 558.05 1075.43 556.98 1078.64 552.01 1081.46 548.86 1080.83 546.99 1078.38 537.58 1079.28 529.62 1078.53 528.32 1081.73 526.75 1071.57 529.25 1069.99 529.88 1064.44 534.1 1063.12 543.18 1065.5 549.91 1062.33 551.88 1059.53 Z" id="GB-WKF" data-name="Wakefield"/>
<path d="M 548.86 1080.83 552.85 1089.85 550.4 1094.73 546.82 1095.86 543.92 1099.23 543.92 1103.73 540.57 1101.11 539.23 1095.86 531.63 1095.86 529.17 1092.1 510.99 1089.57 519.13 1084.35 522.37 1084.99 528.32 1081.73 529.62 1078.53 537.58 1079.28 546.99 1078.38 548.86 1080.83 Z" id="GB-BNS" data-name="Barnsley"/>
<path d="M 457.29 1096.84 455.18 1086.58 460.81 1084.47 469.3 1087.1 471.73 1091.18 470.51 1098.16 463.41 1098.16 460.37 1102.68 457.29 1096.84 Z" id="GB-SLF" data-name="Salford"/>
<path d="M 451.36 1078.34 455.73 1074.57 461.35 1072.25 466.01 1073.5 469.3 1087.1 460.81 1084.47 455.18 1086.58 451.36 1078.34 Z" id="GB-BOL" data-name="Bolton"/>
<path d="M 470.81 1110.6 461.81 1107.86 460.37 1102.68 463.41 1098.16 470.51 1098.16 471.9 1101.65 469.65 1106.88 470.81 1110.6 Z" id="GB-TRF" data-name="Trafford"/>
<path d="M 475.33 1112.62 470.81 1110.6 469.65 1106.88 471.9 1101.65 470.51 1098.16 471.73 1091.18 476.06 1085.06 481.6 1088.26 479.87 1094.96 478.13 1100.2 477.44 1105.14 474.84 1109.2 475.33 1112.62 Z" id="GB-MAN" data-name="Manchester"/>
<path d="M 504.48 1087.28 502.74 1091.63 499.15 1092.45 498.01 1095.94 493.55 1092.63 487.83 1090.59 479.87 1094.96 481.6 1088.26 484.02 1082.73 497.19 1076.24 498.08 1079.06 504.48 1087.28 Z" id="GB-OLD" data-name="Oldham"/>
<path d="M 475.51 1076.31 475.76 1071.84 478.12 1068.45 484.08 1065.15 488.31 1068.49 492.51 1066.83 494.31 1072.9 497.19 1076.24 484.02 1082.73 481.6 1088.26 476.06 1085.06 475.51 1076.31 Z" id="GB-RCH" data-name="Rochdale"/>
<path d="M 498.01 1095.94 495.29 1103.54 486.28 1103.97 478.13 1100.2 479.87 1094.96 487.83 1090.59 493.55 1092.63 498.01 1095.94 Z" id="GB-TAM" data-name="Tameside"/>
<path d="M 467.6 1069.48 473.75 1069.39 475.51 1076.31 476.06 1085.06 471.73 1091.18 469.3 1087.1 466.01 1073.5 467.6 1069.48 Z" id="GB-BUR" data-name="Bury"/>
<path d="M 525.13 1244.77 512.53 1244.59 509.45 1240.85 511.65 1236.76 514.6 1235.98 514.98 1230.05 513.08 1225.99 517.02 1225.46 523.39 1235.05 526.78 1232.45 525.13 1244.77 Z" id="GB-SOL" data-name="Solihull"/>
<path d="M 526.78 1232.45 539.99 1233.3 541.86 1240.46 539.36 1242.8 531.33 1241.96 525.13 1244.77 526.78 1232.45 Z" id="GB-COV" data-name="Coventry"/>
<path d="M 507.83 1215.16 511.08 1213.14 514.08 1215.18 517.64 1223.59 517.02 1225.46 513.08 1225.99 514.98 1230.05 514.6 1235.98 511.65 1236.76 509.45 1240.85 508.72 1240.46 504.22 1239.26 497.59 1241.27 497.59 1235.96 493.78 1233.44 494.14 1229.9 499.18 1230.05 499.09 1225.84 504.04 1218.96 507.83 1215.16 Z" id="GB-BIR" data-name="Birmingham"/>
<path d="M 504.04 1218.96 499.09 1225.84 499.18 1230.05 494.14 1229.9 489 1226.62 490.91 1222.87 489.95 1217.55 491.76 1216.14 502.51 1217.24 504.04 1218.96 Z" id="GB-SAW" data-name="Sandwell"/>
<path d="M 483.88 1235.28 483.47 1228.1 481.98 1224.99 485.44 1223.12 486.11 1219.27 489.95 1217.55 490.91 1222.87 489 1226.62 494.14 1229.9 493.78 1233.44 483.88 1235.28 Z" id="GB-DUD" data-name="Dudley"/>
<path d="M 492.15 1209.62 504.48 1205.39 504.55 1209.62 507.83 1215.16 504.04 1218.96 502.51 1217.24 491.76 1216.14 493.47 1213.79 492.15 1209.62 Z" id="GB-WLL" data-name="Walsall"/>
<path d="M 486.11 1219.27 483.59 1219.01 480.13 1214.65 485.71 1208.04 492.15 1209.62 493.47 1213.79 491.76 1216.14 489.95 1217.55 486.11 1219.27 Z" id="GB-WLV" data-name="Wolverhampton"/>
</g>
</svg>