<?xml version="1.0"?>
<svg xmlns="http://www.w3.org/2000/svg" version="1.2" baseProfile="tiny" width="800" height="785" viewBox="0 0 800 785" stroke-linecap="round" stroke-linejoin="round">
<g id="MLOC-HR">
<path d="M 407.82 9.28 417.07 15.38 427.29 16.65 434.48 26.76 446.79 31.47 454.36 36.16 448.35 51.9 438.91 47.73 417.33 45.56 403.57 48.5 386.99 44.94 381.17 35.39 375.99 33.43 371.7 26.63 369.8 12.58 373.42 6.95 378.91 4.29 380.15 3.53 384.15 1 393.08 1.85 396.56 5.05 407.82 9.28 Z" id="HR-20" data-name="Medimurska"/>
<path d="M 514.84 111.33 520.07 116.04 526 114.61 542.6 116.39 553.31 119.83 560.7 128.47 561.91 136.18 582.8 143.5 589.4 150.98 595.93 147.82 601.58 161 606.16 162.18 609.95 170.56 619 176.21 619.86 179.17 616.44 180.43 603.66 196.06 600.45 203.54 592.26 210 580.74 209.35 577.45 205.62 561.33 201.36 554.01 195.54 543.3 189.6 541.58 193.47 531.6 189.92 530.78 186.51 539.91 170.49 539.61 167.03 530.53 162.17 525.47 165.19 511.07 149.69 510.86 145.66 492.36 132.65 491.64 123.79 502.7 111.13 514.84 111.33 Z" id="HR-10" data-name="Viroviticko-Podravska"/>
<path d="M 454.36 36.16 457.05 46.48 469.96 66.34 477.16 72.22 480.53 77.5 489.08 83.42 500.06 83.8 506.99 91.79 510.68 105.08 514.84 111.33 502.7 111.13 491.64 123.79 492.36 132.65 480.2 120.12 472.29 120.14 472.61 115.01 460.47 105.71 461.93 101.92 455.23 92.33 451.01 92.15 438.36 98.52 432.42 111.11 431.79 122.17 419.43 121.63 408.44 112.19 402.41 115.57 398.13 106.63 386.72 102.62 385.42 83.54 398.53 81.03 418.74 67.8 427.93 68.24 437.16 63.09 440.63 59.21 442.58 51.32 438.91 47.73 448.35 51.9 454.36 36.16 Z" id="HR-06" data-name="Koprivničko-Križevačka"/>
<path d="M 719.83 125.79 730.5 120.81 726.65 127.8 730.29 134.38 724.28 135.16 722.88 143.25 730.34 153.1 732.66 164.41 739.58 171.73 731.99 181.31 730.81 190.23 735.96 196.83 746.29 191.33 750.74 196.83 758.21 202.1 754.29 205.96 746.27 204.77 743.36 209.4 744.15 215.21 735.53 217.37 727.91 208.57 716.3 211.35 715.03 221.02 705.19 220.52 697.19 225.24 694.12 238.76 677.84 244.3 677.13 252.3 683.42 254.16 684.81 261.65 681.22 263.33 674.42 259.86 652.79 253.18 644.83 256.7 635.79 257.21 626.76 253.85 619.65 248.36 623.43 240.52 620.32 231.72 633.75 219.51 640.74 218.56 648.33 212.46 655.83 213.03 668.27 209.43 666.47 203.48 649.81 205.74 646.15 202.1 640.4 202.22 634.88 197.57 636.69 185.47 629.11 181.11 619.86 179.17 619 176.21 609.95 170.56 606.16 162.18 601.58 161 595.93 147.82 605.28 147.82 619.49 151.78 626.05 149.13 637.17 149.13 651.57 156.52 658.26 154.41 664.29 157.31 671.56 149.45 680.32 148.07 686.16 143.06 694.21 128.45 699.8 124.86 711.84 129.99 719.83 125.79 Z" id="HR-14" data-name="Osjecko-Baranjska"/>
<path d="M 12.15 206.5 16.82 211.53 21.67 212.07 35.11 211.45 45.42 218.02 52.65 219.07 57.25 214.19 63.58 211.49 62.45 205.67 65.97 202.05 76.68 208.15 83.45 209.56 83.53 209.56 86.44 217.02 95.19 222.87 96.13 237.53 93.97 247.68 95.06 267.55 99.4 270.81 88.49 286.64 89.8 301.23 86.58 305.9 77.9 303.53 72.9 310.09 70.43 319.32 63.96 333.53 53.73 336.12 48.73 333.71 45.18 324.62 41.27 322.32 37.11 307.34 24.56 291.54 19.49 286.92 13.02 272.56 11.17 262.74 12.99 254.3 10.24 241.63 5.62 234 7.47 231.13 1.85 216.65 1 202.05 12.15 206.5 Z" id="HR-18" data-name="Istarska"/>
<path d="M 667.75 757.79 668.69 772.71 675.26 779.23 675.74 784 672.77 779.41 664.47 775.65 664.31 773.06 640.92 757.82 638.43 754.12 638.03 746.6 631.06 745.35 618.89 740.86 615.08 733.63 609.05 731.78 603.36 726.49 595.3 722.35 590.36 715.34 582.46 711.29 578.01 713.75 571.93 713.34 551.82 705.88 544.4 704.52 532.93 699.95 529.8 692.97 520.83 691.01 510.07 683.33 500.68 679.45 486.27 679.43 477.09 675.9 476.5 667.55 483.28 672.09 494.83 670.82 505.86 672.34 526.18 680.67 534.78 687.22 535.15 690.05 543.54 693.53 548.96 692.67 560.14 697.9 561.73 696.71 568.25 691.43 585.11 697.13 585.23 703.69 589.47 710.36 595.69 712.65 607.97 724.46 638.92 745.14 650.74 750.07 654.41 749.83 658.62 755 667.75 757.79 Z M 534.35 649.12 554.25 663.06 558.36 667.94 562.49 677.73 563 682.9 551.9 687.26 543.1 684.16 532.97 670.58 522.78 661.89 528.32 657.95 528.32 650.31 534.35 649.12 Z M 454.19 716.43 462.7 717.69 464.77 721.68 460.58 726.06 447.65 722.73 447.71 718.03 454.19 716.43 Z M 562.48 723.99 572.16 729.43 574.65 732.91 525.56 718.84 521.21 719.63 517.15 715.17 523.92 713 529.15 716.43 539.1 716.77 553.25 723.99 562.48 723.99 Z M 491.2 682.19 496.95 690.97 487.9 692.4 475.44 689.75 469.71 690.1 453.28 694.91 424.47 688.62 433.72 683.56 435.57 678.39 449.58 683.56 456.96 683.56 461.95 681.27 477.71 679.77 488.4 683.16 491.2 682.19 Z" fill-rule="evenodd" id="HR-19" data-name="Dubrovacko-Neretvanska"/>
<path d="M 384.93 296.59 380.9 300.18 366.94 294.4 352.21 278.87 347.26 267.93 341.43 265.1 337.8 258.53 321.75 258.78 311.43 262.77 305.59 260.21 298.22 261.93 289.37 260.04 288.25 254.51 292.36 249.01 292.85 228.14 294.38 218.78 312.99 223.88 316.84 210.92 312.83 199.83 316.46 195.47 324.92 199 329.47 209.21 339.14 207.2 344.43 209 353.12 203.12 351.92 197.92 344.83 188.7 358.13 178.43 370.31 185.66 375.76 182.51 378.34 176.85 377.88 160.28 381.41 156.33 388.6 156.18 389.74 143.96 399.53 146.18 405.31 153.07 405.85 161.43 414.5 166.2 421.55 172.87 426.86 173.47 445.07 183.28 448.66 191.48 455.61 199.95 453.26 207.32 463.79 209 473.19 215.25 481.75 227.84 492.82 234.81 497.88 233.66 499.39 245.07 493.76 246.51 484.4 259 490.23 268.03 475.32 258.29 470.12 253.03 466.25 255.24 464.26 246.95 459.44 249 450.48 258.83 449.6 264.19 444.47 266.15 417.52 258.08 409.67 257.82 403.31 262.18 397.03 274.97 389.76 279.82 389.16 285.95 384.93 296.59 Z" id="HR-03" data-name="Sisacko-Moslavacka"/>
<path d="M 619.65 248.36 626.76 253.85 635.79 257.21 644.83 256.7 652.79 253.18 674.42 259.86 681.22 263.33 676.69 270.63 676.77 275.73 680.93 283.49 681.79 289.83 673.75 287.61 669.71 284.15 661.74 277.7 652.2 276.88 640.78 270.25 635.97 272.82 635.57 277.63 628.04 281.71 620.82 279.74 611.19 271.79 607.05 272.87 595.44 285.53 586.39 288.08 576.93 279.16 565.97 269.01 558.57 270.27 550.78 277.36 539.54 278.15 532.08 271.96 525.09 273.67 509.74 264.1 506.57 270.65 498.67 271.96 490.23 268.03 484.4 259 493.76 246.51 499.39 245.07 497.88 233.66 507.28 227.37 512.6 229.45 526.33 226.08 538.12 234.54 545.36 242.98 551.42 247.33 568.26 250.81 574.18 264.86 579.15 258.98 587.58 257.44 597.6 245.07 619.65 248.36 Z" id="HR-12" data-name="Brodsko-Posavska"/>
<path d="M 312.83 199.83 316.84 210.92 312.99 223.88 294.38 218.78 292.85 228.14 292.36 249.01 288.25 254.51 289.37 260.04 298.22 261.93 305.59 260.21 311.43 262.77 308.39 269.71 308.89 281.09 305.13 292.34 306.68 301.71 302.18 312.95 291.63 310.43 285.44 313.83 277.61 310.14 275.62 315.99 279.55 323.62 271.17 315.59 265.67 314.91 262.4 307.59 258.1 303.8 253.81 295.38 235.69 284.19 229.16 276.33 219.86 280.26 203.98 276.66 198.96 271.72 201.04 254.2 198.96 248.97 202.09 240.61 206.85 237.38 219.44 244.16 226.45 238.14 232.79 228.48 233.44 216.6 245.37 213.89 251.77 207.81 244.96 203.21 241.06 190.54 239.22 184.71 243.12 180.06 250.65 177.23 250.23 171.56 259.82 166.59 278.28 183.98 287.6 180.89 301.83 187.24 302.86 192.97 308.37 200 312.83 199.83 Z" id="HR-04" data-name="Karlovacka"/>
<path d="M 302.18 312.95 302.2 319.12 307.49 330.02 301.71 335.37 299.9 341.19 305.58 351.15 311.85 358.29 324.01 354.12 329.66 359.76 333.94 369.21 341.96 371.97 344.18 378.69 338.96 387.87 344.53 391.22 349.45 389.03 353.88 391.58 361.31 418.94 365.94 423.96 363.5 436.84 367.32 450.86 375.39 460.44 382.34 474.57 387.79 479.13 392.77 479.02 397.59 487.44 403.52 489.59 409.46 496.11 404.97 495.67 397.19 499.8 393.64 504.62 385.58 503.94 381.24 501.18 369.4 505.41 361.14 503.81 358.97 500.5 358.24 485.1 350.62 487.95 342.56 487.68 341.93 493.93 337.71 500.05 332.74 501.1 325.11 507.15 316.31 501.51 309.43 505.32 302.97 514.64 295.6 510.84 287.96 515.27 280.68 509.49 276.86 513.26 272.17 506.78 265.93 504.79 251.32 485.24 246.11 481.56 240.54 473.96 231.69 465.4 231.67 462.16 222.44 453.26 223.48 445.74 217.82 440.25 224.21 437.23 231 438.66 241 436.28 244.63 431.76 260.3 439.57 271 441.22 272.52 437.58 263.65 436.28 257.81 429.62 242.63 421.26 247.27 412.38 250.44 412.36 259.4 419.48 269.72 420.51 276.73 427.75 286.2 418.52 288.63 410.49 282.84 403.76 291.27 396.61 287.16 387.82 279 380.15 278.06 370.8 275.35 367.53 272.77 356.77 267.31 352.02 268.19 347.76 274.99 347.18 284.31 339.24 274.19 331.17 279.55 323.62 275.62 315.99 277.61 310.14 285.44 313.83 291.63 310.43 302.18 312.95 Z M 243.84 496.39 254.83 495.68 259.53 503.39 257.95 509.58 243.84 496.39 Z M 237.3 486.71 233.1 480.61 228.48 481.08 219.37 472.71 211.35 459.58 233.43 477.61 237.3 486.71 Z M 222.44 499.53 232.22 506.46 229.33 509.76 222.58 504.37 217.32 504.08 208.69 491.87 203.32 480.23 196.82 475.85 185.33 463.56 187.05 460.1 194.67 466.14 196.74 470.64 205.97 476.48 207.21 483.23 222.44 499.53 Z M 175.56 418.83 169.93 421.41 170.9 411.69 175.14 411.85 175.56 418.83 Z" fill-rule="evenodd" id="HR-13" data-name="Zadarska"/>
<path d="M 681.22 263.33 684.81 261.65 683.42 254.16 677.13 252.3 677.84 244.3 694.12 238.76 697.19 225.24 705.19 220.52 715.03 221.02 716.3 211.35 727.91 208.57 735.53 217.37 744.15 215.21 748.08 220.51 740.54 225.34 740.8 229.17 747.93 234.19 755.06 235.33 757.93 243.12 765.28 247.46 783.03 255.12 794.97 256.41 799 261.49 797.12 267.54 774.4 269.39 763.01 269.35 759.54 273.05 751.97 272.29 750.09 275.83 754.97 284.15 756.75 296.41 755.36 302.85 761.65 309.37 754.48 317.46 746.33 314.62 742.69 316.68 745.98 326.09 740.45 326.64 728.92 326.94 722.5 324.07 714.55 316.9 713.1 311.41 717.42 305.42 715.3 299.32 706.83 295.41 701.79 285.05 695.23 287.9 692.01 281.72 680.93 283.49 676.77 275.73 676.69 270.63 681.22 263.33 Z" id="HR-16" data-name="Vukovarsko-Srijemska"/>
<path d="M 534.35 649.12 528.32 650.31 528.32 657.95 522.78 661.89 516.14 652.99 496.68 642.88 483.31 632.27 464.44 607.24 457.23 601.22 439.89 598.7 431.97 595.2 422.77 593.2 410.46 584.23 401.23 581.68 396.81 574.42 383.68 574.15 370.54 578.75 358.52 581.58 351.45 587.42 339.86 582.96 345.06 581.63 348.67 575.65 344.26 565.61 350.54 561.62 359.85 549.54 369.06 551.82 384.34 544.47 386.4 531.69 395.68 525.32 395.84 521.7 390.43 515.28 384.51 511.71 385.58 503.94 393.64 504.62 397.19 499.8 404.97 495.67 409.46 496.11 424.33 514.79 429.91 519.99 434.5 532.95 449.54 544.97 481.8 578.52 492.68 585.69 505.76 587.73 512.11 595.37 509.56 611.02 512.58 620.3 517.82 628.3 527.49 636.53 531.09 645.86 534.35 649.12 Z M 370.76 663.24 366.57 670.4 349.92 674.44 349.91 668.89 344.74 664.5 350.65 661.24 361.15 660.32 370.76 663.24 Z M 431.87 652.99 413.84 650.08 398.34 644.92 394.3 639.79 410.49 634.36 427.32 636.54 430.95 642.88 439.73 646.57 452.84 646.49 467.79 648.33 475.88 650.47 494.37 650.57 499.52 652.99 431.87 652.99 Z M 405.85 623.86 395.19 617.67 397.86 611.41 395.78 603.43 404.93 605.62 431.13 606.61 447.65 611.05 458.81 618.67 452.57 625.88 448.1 626.92 423.1 627.67 405.85 623.86 Z M 391.07 612.31 385.28 613.74 376.24 608.03 366.13 604.7 365.94 599.93 375.6 600.11 382.74 604.25 391.07 612.31 Z" fill-rule="evenodd" id="HR-17" data-name="Splitsko-Dalmatinska"/>
<path d="M 375.99 33.43 381.17 35.39 386.99 44.94 403.57 48.5 417.33 45.56 438.91 47.73 442.58 51.32 440.63 59.21 437.16 63.09 427.93 68.24 418.74 67.8 398.53 81.03 385.42 83.54 386.72 102.62 377.86 104.93 372.74 95.52 371.59 70.83 363.55 66.49 359.52 70.84 343.49 71.41 332.72 69.64 329.74 64.88 323.93 62.93 321.81 56.81 322.03 56.8 327.17 54.16 337.28 50.68 344.89 45.57 346.2 42.52 345.97 33.65 350.12 34.53 355.92 30.61 364.07 35.17 375.99 33.43 Z" id="HR-05" data-name="Varaždinska"/>
<path d="M 321.81 56.81 323.93 62.93 329.74 64.88 332.72 69.64 343.49 71.41 359.52 70.84 363.55 66.49 371.59 70.83 372.74 95.52 366.32 100.34 356.56 113.19 333.48 124.73 329.95 120.3 326.22 115.16 314.13 110.92 306.17 113.59 294.23 112.78 296.6 99.31 287.23 92.53 282.67 85.29 282.68 80.38 287.63 69.34 294.58 65.58 304.29 66.3 311.02 58.9 321.81 56.81 Z" id="HR-02" data-name="Krapinsko-Zagorska"/>
<path d="M 386.72 102.62 398.13 106.63 402.41 115.57 408.44 112.19 419.43 121.63 431.79 122.17 431.23 138.69 427.11 142.39 419.35 142.94 419.51 148.86 410.05 148.54 405.31 153.07 399.53 146.18 389.74 143.96 388.6 156.18 381.41 156.33 377.88 160.28 378.34 176.85 375.76 182.51 370.31 185.66 358.13 178.43 344.83 188.7 351.92 197.92 353.12 203.12 344.43 209 339.14 207.2 329.47 209.21 324.92 199 316.46 195.47 312.83 199.83 308.37 200 302.86 192.97 301.83 187.24 287.6 180.89 278.28 183.98 259.82 166.59 250.23 171.56 244.14 171.07 236.69 163.02 238.53 159.79 247.66 155.51 261.02 151.01 263.93 143.36 268.54 144.32 277.24 141.7 287.56 142.38 292.97 140.15 292.08 129.05 294.26 121.99 294.23 112.78 306.17 113.59 314.13 110.92 326.22 115.16 329.95 120.3 313.35 124.9 313.01 131.16 307.22 133.18 317.43 144.47 312.88 151.01 315.64 154.97 312.88 160.92 307.45 165.61 312.81 170.15 321.18 173.95 327.52 180.7 329.82 176.76 330.85 166.86 333.62 162.4 350.21 151.5 356.81 144.68 363.44 148.19 368.81 136.67 362.77 127.08 356.56 113.19 366.32 100.34 372.74 95.52 377.86 104.93 386.72 102.62 Z" id="HR-01" data-name="Zagrebacka"/>
<path d="M 99.4 270.81 95.06 267.55 93.97 247.68 96.13 237.53 95.19 222.87 86.44 217.02 83.53 209.56 97.24 204.89 111.86 209.19 118.08 208.62 131.07 199.41 134.13 189.06 135.09 185.77 144.62 172.6 147.71 172.77 147.97 181.9 157.41 190.79 158.06 197.79 173.3 205.63 175.47 211.06 181.1 212.26 186.89 210.18 192.43 201.46 199.83 205.94 211.84 209.38 221.73 217.84 233.44 216.6 232.79 228.48 226.45 238.14 219.44 244.16 206.85 237.38 202.09 240.61 198.96 248.97 201.04 254.2 198.96 271.72 203.98 276.66 206.58 281.77 204.61 286.57 192.96 285.57 188.05 288.68 186.85 293.6 182.99 282.49 156.63 262.74 145.56 250.13 136.7 242.92 122.07 235.45 112.26 232.49 104.44 244.78 99.4 270.81 Z M 127.92 383.13 138.88 394.94 136.9 399.02 128.78 389.6 126.89 383.38 122.3 380.53 114.91 366.15 113.07 354.46 121.41 360.39 120.46 364.85 123.11 376.48 127.92 383.13 Z M 167.8 342.75 162.25 345.24 163.11 333.49 168.82 335.41 178.88 344.05 183.84 354.35 178.75 353.73 167.8 342.75 Z M 137.16 364.85 138.03 372.58 131.63 372.82 125.53 365.92 121.02 356.21 121.38 347.83 117.45 346.03 116.56 335.56 112.27 332.14 110.14 320.72 107.45 317.88 108.44 311.23 116.29 317.88 120.05 317.81 123.29 308.76 118.61 302.92 113.75 289.77 106.53 281.07 105.21 275.9 110.08 267.38 116.9 270.22 116.76 282.5 120.09 292.94 125.92 302.27 130.69 303.53 131.36 309.23 128.78 315.27 128.78 328.9 131.75 347.27 131.52 356.14 137.16 364.85 Z M 165.49 311.25 152.71 304.59 152.36 293.29 147.54 295.97 136.7 294.26 129.89 290.39 125.14 283.69 130.23 281.07 130.82 276.65 137.17 275.7 140.93 266.14 140.27 261.76 143.84 252.54 152.02 266.8 157.63 269.42 157.63 283.69 167.8 286.43 167.74 291.93 175.82 299.42 177.87 304.72 165.49 311.25 Z" fill-rule="evenodd" id="HR-08" data-name="Primorsko-Goranska"/>
<path d="M 276.86 513.26 280.68 509.49 287.96 515.27 295.6 510.84 302.97 514.64 309.43 505.32 316.31 501.51 325.11 507.15 332.74 501.1 337.71 500.05 341.93 493.93 342.56 487.68 350.62 487.95 358.24 485.1 358.97 500.5 361.14 503.81 369.4 505.41 381.24 501.18 385.58 503.94 384.51 511.71 390.43 515.28 395.84 521.7 395.68 525.32 386.4 531.69 384.34 544.47 369.06 551.82 359.85 549.54 350.54 561.62 344.26 565.61 348.67 575.65 345.06 581.63 339.86 582.96 335.74 576.74 330.28 572.5 327.04 566.28 328.6 558.64 333.58 557.34 328.82 550.74 320.66 545.74 317.04 540.74 307.17 535.12 298.42 534.47 294.71 525.4 276.86 513.26 Z M 238.23 515.04 249.21 525.4 247.25 528.3 234.46 515.95 238.23 515.04 Z" fill-rule="evenodd" id="HR-15" data-name="Šibensko-Kninska"/>
<path d="M 203.98 276.66 219.86 280.26 229.16 276.33 235.69 284.19 253.81 295.38 258.1 303.8 262.4 307.59 265.67 314.91 271.17 315.59 279.55 323.62 274.19 331.17 284.31 339.24 274.99 347.18 268.19 347.76 267.31 352.02 272.77 356.77 275.35 367.53 278.06 370.8 279 380.15 287.16 387.82 291.27 396.61 282.84 403.76 288.63 410.49 286.2 418.52 276.73 427.75 269.72 420.51 259.4 419.48 250.44 412.36 247.27 412.38 242.63 421.26 223.86 401.96 213.73 388.81 203.07 380.75 189.56 359.53 187.18 340.75 187.18 326.88 192.3 308.29 186.85 293.6 188.05 288.68 192.96 285.57 204.61 286.57 206.58 281.77 203.98 276.66 Z M 186.26 384.31 170.64 365.52 173.14 363.46 181.97 376.57 189.92 374.77 198.34 381.72 204.81 392.09 198.3 391.12 209.39 407.13 214.16 402.88 226.78 416.25 237.3 425.95 229.8 430.29 215.97 425.95 218.75 417.02 209.52 415.61 205.7 408.92 197.33 401.96 191.89 394.79 186.26 384.31 Z" fill-rule="evenodd" id="HR-09" data-name="Licko-Senjska"/>
<path d="M 492.36 132.65 510.86 145.66 511.07 149.69 525.47 165.19 530.53 162.17 539.61 167.03 539.91 170.49 530.78 186.51 531.6 189.92 533.19 193.12 529.96 201.77 518.69 200.96 504.96 203.23 498.39 198.89 493.22 201.61 475.58 203.48 469.19 200.41 463.96 200.85 463.79 209 453.26 207.32 455.61 199.95 448.66 191.48 445.07 183.28 426.86 173.47 421.55 172.87 414.5 166.2 405.85 161.43 405.31 153.07 410.05 148.54 419.51 148.86 419.35 142.94 427.11 142.39 431.23 138.69 431.79 122.17 432.42 111.11 438.36 98.52 451.01 92.15 455.23 92.33 461.93 101.92 460.47 105.71 472.61 115.01 472.29 120.14 480.2 120.12 492.36 132.65 Z" id="HR-07" data-name="Bjelovarsko-bilogorska"/>
<path d="M 329.95 120.3 333.48 124.73 356.56 113.19 362.77 127.08 368.81 136.67 363.44 148.19 356.81 144.68 350.21 151.5 333.62 162.4 330.85 166.86 329.82 176.76 327.52 180.7 321.18 173.95 312.81 170.15 307.45 165.61 312.88 160.92 315.64 154.97 312.88 151.01 317.43 144.47 307.22 133.18 313.01 131.16 313.35 124.9 329.95 120.3 Z" id="HR-21" data-name="Grad Zagreb"/>
<path d="M 531.6 189.92 541.58 193.47 543.3 189.6 554.01 195.54 561.33 201.36 577.45 205.62 580.74 209.35 592.26 210 600.45 203.54 603.66 196.06 616.44 180.43 619.86 179.17 629.11 181.11 636.69 185.47 634.88 197.57 640.4 202.22 646.15 202.1 649.81 205.74 666.47 203.48 668.27 209.43 655.83 213.03 648.33 212.46 640.74 218.56 633.75 219.51 620.32 231.72 623.43 240.52 619.65 248.36 597.6 245.07 587.58 257.44 579.15 258.98 574.18 264.86 568.26 250.81 551.42 247.33 545.36 242.98 538.12 234.54 526.33 226.08 512.6 229.45 507.28 227.37 497.88 233.66 492.82 234.81 481.75 227.84 473.19 215.25 463.79 209 463.96 200.85 469.19 200.41 475.58 203.48 493.22 201.61 498.39 198.89 504.96 203.23 518.69 200.96 529.96 201.77 533.19 193.12 531.6 189.92 Z" id="HR-12" data-name="Brodsko-Posavska"/>
</g>
</svg>