<?xml version="1.0"?>
<svg xmlns="http://www.w3.org/2000/svg" version="1.2" baseProfile="tiny" width="800" height="1176" viewBox="0 0 800 1176" stroke-linecap="round" stroke-linejoin="round">
<g id="MLOC-IE">
<path d="M 576.33 95.72 568.49 102.78 557.11 104.55 548.17 116.15 546.3 134.51 540.38 141.97 541.14 153.07 536.49 165.19 523.57 181.32 522.09 193.17 510.75 197.9 504.65 196.2 489.17 207.73 483.13 208.18 469.71 200.47 458.8 214.13 458.89 221.95 475.21 228.67 494.27 239.34 486.91 241.99 469.18 258.95 462.36 261.65 441.88 258.18 432.32 272.25 412.27 282.7 398.27 282.26 388.83 278.25 399.16 272.19 394.02 264.24 403.74 256.05 403.3 250.09 417.77 239.08 420.75 226.49 400.43 231.77 391.12 229.49 373.76 239.07 365.41 228.1 360.96 238.13 353.09 230.96 335.98 234.88 322.5 234.83 319.16 228.1 304.42 222.39 300.62 210.52 311.7 199.98 328.92 188.92 346.79 189.4 343.56 170.67 354.89 163.11 370.69 165.42 374.45 152.54 365.24 147.78 371.73 131.13 360.96 118.68 368.37 116.36 370.48 107.73 379.15 98.45 387.93 99.22 385.21 84.65 395.44 67.16 413.85 74.12 438.53 58.52 442.34 48.9 458.55 58.63 460.29 68.62 467.83 74.04 475.35 54.44 501.35 71.48 495.04 49.26 486.74 56.69 479.35 53.15 484.85 39.28 505.67 32.3 511.46 42.1 509.94 53.49 518.35 60.95 526.34 76.04 525.67 86.28 515.91 95.16 520.29 103.44 536.8 103.64 540.2 94.78 535.3 87.3 536.63 72.11 523.92 55.62 528.88 31.8 540.34 25.66 548.05 27.87 554.84 20.47 561.12 1 585.53 11.7 594.66 25.77 631.09 42.82 630.52 49.23 614.26 56.01 602.56 65.79 591.93 70.36 581.76 83.58 576.33 95.72 Z M 348.8 114.24 356.09 124.85 348.36 127.34 341.52 118.68 348.8 114.24 Z" fill-rule="evenodd" id="IE-DL" data-name="Donegal"/>
<path d="M 388.83 278.25 398.27 282.26 412.27 282.7 414.48 290.17 428.03 308.18 441.88 314.99 452.58 333.02 445.34 343.71 433.89 352.21 441.02 366.17 453.6 372.04 474.07 392.4 488.58 393.06 515.4 417.87 517.89 430.55 513.71 444.11 499.44 448.86 482.81 467.23 479.15 479.72 470.09 476.13 456.15 480.81 446 466.23 444.85 454.04 425.76 447.94 423.27 438.21 428.94 429.35 426.17 412.04 433.39 396.38 418.37 389.09 414.27 391.1 404.76 379.08 392.75 377.94 382.05 362.8 383.3 353.83 380.91 336.35 373.26 320.04 378.81 308.35 380.08 297.62 369.04 294.22 374.31 281.13 388.83 278.25 Z" id="IE-LM" data-name="Leitrim"/>
<path d="M 452.58 333.02 460.97 334.63 464.77 341.5 465.47 354.96 471.3 361.82 494.84 363.04 507.67 372.72 511.89 381.42 530.89 385.92 542.05 379.29 550.85 387.11 563.97 389.21 575.18 394.34 594.9 398.08 617.59 394.12 619.18 400.27 642.64 422.8 654.12 443.34 665.15 449.9 658.94 456.59 640.13 460.33 634.09 456.85 629.89 471.11 636.66 481.71 630.41 488.97 620.7 492.34 594.57 484.38 583.77 490.67 567.31 482.04 560.05 485.7 551.1 490.64 541.44 482.13 533.74 466.5 524.16 459.74 513.71 444.11 517.89 430.55 515.4 417.87 488.58 393.06 474.07 392.4 453.6 372.04 441.02 366.17 433.89 352.21 445.34 343.71 452.58 333.02 Z" id="IE-CN" data-name="Cavan"/>
<path d="M 563.97 389.21 573.41 381.09 573.83 368.96 579.46 360.85 593.03 355.77 594.35 347.28 583.11 334.68 586.59 321.78 597.71 317.48 611.56 298.6 623.16 301.18 634.21 310.47 643.47 324.74 651.68 353.3 665.77 367.96 672.58 363.48 682.93 371.16 685.4 378.31 679.72 389.06 678.64 403.13 690.62 410.39 697.63 413.24 700.36 427.48 691.3 429.44 684.95 436.27 685.76 446.83 676.53 452.57 665.15 449.9 654.12 443.34 642.64 422.8 619.18 400.27 617.59 394.12 594.9 398.08 575.18 394.34 563.97 389.21 Z" id="IE-MN" data-name="Monaghan"/>
<path d="M 676.53 452.57 685.76 446.83 684.95 436.27 691.3 429.44 700.36 427.48 697.63 413.24 690.62 410.39 713.18 403.35 721.13 407.11 731.17 404.69 732.84 394.36 750.33 394.19 769.22 412.83 775.86 414.72 778.63 423.48 772.83 430.41 765.35 430.01 743.72 420.28 736.46 422.78 731.98 434.64 730.91 449.02 735.92 459.74 755.08 464.66 752.98 477.61 754.62 505.5 743.34 509.67 717.51 508.28 719.03 494.95 709.7 493.64 698.9 482.8 693.83 464.87 676.53 452.57 Z" id="IE-LH" data-name="Louth"/>
<path d="M 771.72 608.34 760.05 616.84 766.24 629 749.83 631.27 738.96 626.08 736.52 616.42 748.05 600.05 770.46 598.56 771.72 608.34 Z" id="IE-D" data-name="Dublin"/>
<path d="M 749.83 631.27 766.24 629 781.12 638.45 779.71 655.15 782.55 662.69 776.19 666.29 765.95 661.09 757.99 663.71 747.54 658.81 749.83 631.27 Z" id="IE-D" data-name="Dún Laoghaire–Rathdown"/>
<path d="M 747.54 658.81 757.99 663.71 765.95 661.09 776.19 666.29 782.55 662.69 784.48 673.94 792.98 690.32 789.2 720.47 799 733.58 785.58 761.01 775.22 777.53 770.99 791.55 771.5 799.44 769.02 793.53 755.81 785.74 746.27 787.98 733.09 785.88 727.57 790.25 720.48 804.02 704.91 816.67 689.94 808.21 676.19 784.37 681.16 772.85 696.42 780.75 707.35 774.54 706.52 757.93 700.65 759.67 690.15 754.2 668.22 748.07 668.26 742.45 659.53 725.54 671.5 704.31 685.95 697.31 696.89 686.47 706.41 667.81 715.06 656.77 730.09 661 737.64 670.16 747.54 658.81 Z" id="IE-WW" data-name="Wicklow"/>
<path d="M 689.94 808.21 704.91 816.67 720.48 804.02 727.57 790.25 733.09 785.88 746.27 787.98 755.81 785.74 769.02 793.53 771.5 799.44 760.05 821.65 761.16 856.86 748.01 879.89 741.81 885.49 733.3 901.39 733.51 911.8 718.61 912.35 717.37 925.07 728.99 929.92 741.7 945.87 732.53 963.53 711.2 957.79 692.06 963.65 684.18 956.91 670.98 952.89 658.38 954.81 651.53 963.72 638.65 971.64 634.39 953.99 621.31 935.18 617.6 928.58 621.5 912.77 632.25 893.25 633.99 880.23 645.05 876.59 651.51 859.38 658.84 850.27 660.55 837.4 683.18 824.62 679.83 816.92 689.94 808.21 Z" id="IE-WX" data-name="Wexford"/>
<path d="M 633.99 880.23 632.25 893.25 621.5 912.77 617.6 928.58 621.31 935.18 621.78 938.3 614.26 941.12 606.16 943.25 593.08 936.94 583.52 943.96 573.96 937.27 564.65 925.28 555.4 918.27 550.91 904.71 550.61 890.35 538.69 877.64 545.6 870.57 540.72 865.15 540.52 848.12 519.84 808.65 508.22 802.41 501.34 788.18 510.16 786.47 516.98 777.81 539.6 786.47 548.6 782.91 568.79 765.22 574.96 767.5 586.03 756.68 595.75 761.85 600.83 774.36 611.89 784.25 606.48 791.93 603.84 804.29 616.34 808.73 624.26 819.69 625.07 837.99 633.44 847.29 631.1 863.04 633.99 880.23 Z" id="IE-KK" data-name="Kilkenny"/>
<path d="M 614.26 941.12 621.78 938.3 628.31 961.73 617.27 975.61 605.27 976.78 607.54 967.68 598.92 965.87 590.51 975.61 576.92 975.61 542.79 979.29 530.53 985.96 507.96 992.81 521.66 998.25 516.58 1007.44 515.29 1018.24 507.19 1022.41 494.03 1023.24 491.54 1031.71 472.66 1029.15 468.66 1022.31 457.91 1021.55 454.06 1012.33 442.01 1001.59 431 976.65 415.96 973.17 424.62 955.04 440.45 955.64 444.73 946.33 483.21 951.08 485.17 938.68 480.26 935.63 481.37 917.24 515.1 911.2 555.4 918.27 564.65 925.28 573.96 937.27 583.52 943.96 593.08 936.94 595.7 949.33 602.44 955.7 614.87 955.7 619.83 951.06 614.26 941.12 Z" id="IE-WD" data-name="Waterford"/>
<path d="M 424.62 955.04 415.96 973.17 431 976.65 442.01 1001.59 454.06 1012.33 457.91 1021.55 468.66 1022.31 467.79 1032.2 456.12 1041.17 461.59 1049.79 440.81 1057.33 438.6 1066.51 418.37 1072.03 398.43 1072.61 406.36 1061.3 404.84 1049.04 390.06 1043.62 373.09 1046.46 363.57 1039.4 354.35 1037.67 347.6 1044 345.47 1053.78 351.51 1057.8 368.54 1058.37 371.74 1051.27 383.64 1055.73 387.09 1064.15 388.54 1085.42 375.93 1097.69 353.67 1104.25 346.26 1116.97 328.63 1120.11 317.1 1125.97 318.31 1137.54 306.03 1133.64 290.23 1132.01 284.15 1143.58 276.86 1146.33 267.79 1142.11 245.02 1145.35 241.39 1151.1 229.92 1152.44 224.36 1163.12 215.75 1157.09 202.02 1166.91 190.51 1156.3 192.65 1146.33 188.52 1143.01 179.35 1149.45 166.72 1152.24 165.15 1157.16 152.31 1161.17 146.21 1156.2 138.94 1167.02 120.58 1175 122.86 1159.58 132.43 1150.96 145.73 1144.72 158.79 1126.92 124.42 1144.46 127.04 1133.08 155.95 1118.69 158.34 1114.93 182.55 1106.75 176.99 1097.98 165.22 1088.16 163.41 1097.36 148.81 1107.67 108.56 1114.73 96.49 1124.74 81.02 1131.85 73.67 1129.72 61.46 1132.6 60.63 1126.95 72.78 1123.57 74.99 1116.55 70.45 1110.31 85.47 1108.46 93.83 1100.33 89.58 1092.99 101.3 1085.61 110.91 1086.42 119.27 1106.01 127.28 1103.88 135.98 1092.86 145.03 1090.6 156.62 1079.88 184.66 1076.3 190.71 1067.76 206.93 1061.15 215 1050.36 210.43 1037.67 222.52 1025.73 240.96 1021.58 241.62 1015.63 227.56 1009.57 232.34 993.2 224.97 977.17 221.92 961.21 217.1 951.06 219.07 940.67 225.64 930.4 242.64 919.44 259.61 924.08 265.78 929.16 282.75 922.33 286.76 915.54 299.23 905.76 323.35 907.27 336.73 924.39 347.29 932.8 356.74 935.39 374.36 931.16 380.35 924.11 387.98 924.78 396.43 934.02 409.39 934.11 416.41 947.53 424.62 955.04 Z M 118.74 1119.71 105.35 1127.62 103.77 1120.34 118.74 1119.71 Z" fill-rule="evenodd" id="IE-CO" data-name="Cork"/>
<path d="M 371.74 1051.27 368.54 1058.37 351.51 1057.8 345.47 1053.78 347.6 1044 354.35 1037.67 363.57 1039.4 373.09 1046.46 371.74 1051.27 Z" id="IE-CO" data-name="Cork"/>
<path d="M 225.64 930.4 219.07 940.67 217.1 951.06 221.92 961.21 224.97 977.17 232.34 993.2 227.56 1009.57 241.62 1015.63 240.96 1021.58 222.52 1025.73 210.43 1037.67 215 1050.36 206.93 1061.15 190.71 1067.76 184.66 1076.3 156.62 1079.88 145.03 1090.6 135.98 1092.86 127.28 1103.88 119.27 1106.01 110.91 1086.42 132.86 1062.82 144.72 1061.01 147.91 1052.72 129.23 1059.86 123.23 1065.68 108.43 1072.66 95.06 1072.66 83.16 1080.69 79.13 1078.54 66.35 1088.92 53 1076.38 51.57 1062.14 44.37 1058.7 37.85 1067.15 25.42 1076.77 25.42 1060.85 16.9 1060.09 21.57 1048.27 41.47 1040.1 33.56 1026.02 38.74 1019.02 63.32 1007.44 80.22 1003.8 98.68 994.87 102.45 977.77 107.96 981.07 126.77 979.58 129.21 971.64 81.15 975.24 57.22 981.31 38.47 976.35 24.74 979.59 12.2 986.83 4.1 985.86 1 971.64 6.07 960.94 20.4 962.47 20.87 949.52 29.07 947.68 37.04 937.91 55.54 932.48 56.54 947.68 68.19 945.87 78.15 937.58 95.49 946.79 108.9 948.23 115.13 941.94 117.04 925.83 115.62 906.72 103.29 901.96 101.12 892.02 113.14 891.2 130.85 882.93 142.57 871.85 144.56 854.79 154.18 847.68 161.47 849.68 199.65 848.2 210.89 870.45 205.69 882.7 206.08 896.32 209.91 906.17 205.66 914.37 222 925.13 225.64 930.4 Z M 30.47 1037.21 21.77 1046.87 12.78 1043.39 23.53 1035.59 30.47 1037.21 Z" fill-rule="evenodd" id="IE-KY" data-name="Kerry"/>
<path d="M 409.39 934.11 396.43 934.02 387.98 924.78 380.35 924.11 374.36 931.16 356.74 935.39 347.29 932.8 336.73 924.39 323.35 907.27 299.23 905.76 286.76 915.54 282.75 922.33 265.78 929.16 259.61 924.08 242.64 919.44 225.64 930.4 222 925.13 205.66 914.37 209.91 906.17 206.08 896.32 205.69 882.7 210.89 870.45 199.65 848.2 215.75 847.68 229.95 840.86 251.63 833.91 265.79 833.67 271.34 825.66 302.49 821.65 308.51 819.59 323.71 825.5 327.37 832.34 337.66 834.09 341.92 828.83 341.12 818.56 351.93 808.57 351.62 798.62 357.34 795.46 362.2 815.21 382.91 816.65 388.56 814.36 399.44 822.48 408.89 821.82 401.56 848.92 402.12 862.75 374.86 873.88 372.34 883.3 376.42 888.52 387.17 890.62 398.94 897.35 406.64 909.29 412.42 912.69 414.63 925.02 409.39 934.11 Z" id="IE-LK" data-name="Limerick"/>
<path d="M 323.71 825.5 308.51 819.59 287.8 813.62 276.19 815.45 269.74 790.83 260.01 797.8 253.84 812.6 238.07 834.03 218.84 837.66 213.32 843.69 195.89 837.16 179.55 835.26 165.77 829.47 140.56 839.35 138.34 846.79 97.48 853.68 108.29 844.86 117.47 842.42 153.51 807.61 160.8 798.91 175.42 796.22 188.09 759.32 199.16 748.59 197.81 741.78 183.83 742.53 186.29 733.04 203.38 700.42 215.74 679.74 219.5 678.18 235.97 690.32 251.73 683.36 251.82 673.94 263.48 679.67 260.28 685.64 263.76 694.87 283.03 705.99 286.09 730.92 303.69 730.14 314.3 718.02 323.37 714.16 340.02 714.22 352.07 722.54 354.28 728.61 363.5 731.62 387.17 729.09 391.76 737.64 383.18 749.55 371.58 751.62 362.32 777.27 362.75 784.15 357.34 795.46 351.62 798.62 351.93 808.57 341.12 818.56 329.68 818.76 323.71 825.5 Z" id="IE-CE" data-name="Clare"/>
<path d="M 387.17 729.09 363.5 731.62 354.28 728.61 352.07 722.54 340.02 714.22 323.37 714.16 314.3 718.02 303.69 730.14 286.09 730.92 283.03 705.99 263.76 694.87 260.28 685.64 263.48 679.67 270.71 678.22 276.19 659.54 267.29 653.66 274.42 645.52 278.12 634.46 257.04 624.63 243.37 638.1 242.86 645.5 192.73 649.63 184.46 654.42 173.09 655.48 155.75 641.2 154.29 627.74 142.28 611.71 131.89 629.85 120.56 633.67 114.11 627.2 104.33 625.84 111.04 606.04 101.91 596.56 99.97 607.53 93.02 610.41 81.56 608.68 77.37 601.39 63.43 601.37 58.19 592.48 74.04 591.22 70.63 579.95 58.96 561.36 65.65 553.36 81.56 555.58 84.6 543.12 98.48 544.52 112.07 539.02 126.2 544.06 140.14 543.67 159.72 543.48 183.65 555.99 200.62 554.86 204.31 561.83 213.55 563.44 216.48 571.49 230.84 581.83 241.09 579.13 256.8 560.33 272 529.47 283.82 529.46 296.77 523.99 306.32 526.37 325.21 521.68 340.51 509.6 357.71 510.23 362.9 519.04 376.53 527.32 371.75 534.47 375.96 542.21 391 553.4 392.89 581.4 399.26 591.54 402.01 605.99 400.38 615.47 409.12 622.52 409.44 629.4 417.58 640.15 434.13 641.22 446.3 653 446.44 661.67 428.64 672.7 417.78 677.91 405.51 702.33 396.36 711.18 387.17 729.09 Z M 146.21 641.45 150.54 648.72 140.92 656.06 135.99 644.25 146.21 641.45 Z M 148.76 693.08 146.59 696.36 125.55 686.62 136.77 682.24 144.72 684.54 148.76 693.08 Z" fill-rule="evenodd" id="IE-G" data-name="Galway"/>
<path d="M 242.86 645.5 243.37 638.1 257.04 624.63 278.12 634.46 274.42 645.52 260.27 641.45 242.86 645.5 Z" id="IE-G" data-name="Galway"/>
<path d="M 296.77 523.99 283.82 529.46 272 529.47 256.8 560.33 241.09 579.13 230.84 581.83 216.48 571.49 213.55 563.44 204.31 561.83 200.62 554.86 183.65 555.99 159.72 543.48 140.14 543.67 124.65 542.57 102.45 530.63 99.91 517.2 104.04 501.22 102.45 495.72 121.85 490.26 130.3 491.43 163.35 485.43 153.51 479.08 164.45 464.66 154.62 454.48 129.21 454.33 111.68 464.31 102.04 466.6 98.36 458.61 102.45 439.89 114.9 434.9 112.07 423.16 104.14 416.2 104.36 407.16 91.36 400.05 91.21 392.26 97.03 383.93 88.25 359.15 80.13 367.8 73.83 380.1 73.84 392.43 65.24 394.79 63.32 385.89 69.9 364.68 67.66 355.16 73.06 342.07 87.58 332.46 94.25 341.22 107.32 343.95 96.04 358.26 102.19 361.8 109.64 354.55 108.38 345.94 116.56 333.63 113.93 323.89 124.34 321.05 138.33 327.3 168.87 329.56 195.74 333.53 204.7 327.09 217.74 332.76 226.91 342.56 226.75 357.71 240.37 373.78 247.43 380.78 259.18 376.35 270.93 378.94 277.79 388.49 263.65 408.3 262.38 414.97 275.74 419.84 284.65 418.03 291.64 432.21 304.35 432.07 327.4 414.11 337.21 419.52 338.42 436.54 321.25 434.26 321.08 447.08 328.99 454.53 327.23 463.99 319.46 462.35 312.94 481.34 320.27 487.8 316.7 507.85 301.54 517.52 296.77 523.99 Z M 92.62 437.84 99.91 437.84 97.48 456.4 93.62 459.99 82.89 450.22 76.26 449.98 76.21 436.34 70.61 432.54 52.28 434.91 47.24 428.1 53.76 420.79 62.21 423.78 74.89 416.97 90.44 417.47 97.48 427.13 92.62 437.84 Z" fill-rule="evenodd" id="IE-MO" data-name="Mayo"/>
<path d="M 374.31 281.13 369.04 294.22 380.08 297.62 378.81 308.35 373.26 320.04 380.91 336.35 383.3 353.83 382.05 362.8 392.75 377.94 404.76 379.08 414.27 391.1 398.12 410.46 388.68 415.66 383.34 423.95 373.09 425.2 370.92 435.31 380.19 440.04 381.43 447.01 367.07 446.17 361.9 450.59 350.49 444.75 346.88 437.35 338.42 436.54 337.21 419.52 327.4 414.11 304.35 432.07 291.64 432.21 284.65 418.03 275.74 419.84 262.38 414.97 263.65 408.3 277.79 388.49 270.93 378.94 259.18 376.35 247.43 380.78 240.37 373.78 240.17 360.79 248.15 355.04 255.08 335.88 275.06 335.73 287.03 343.31 310.96 343.62 321.82 341.42 331.69 346.22 336.55 337.7 355.74 336.14 342.18 321.05 324.5 321.06 324.05 314.57 333.14 309.62 363.38 287.64 374.31 281.13 Z" id="IE-SO" data-name="Sligo"/>
<path d="M 560.05 485.7 567.31 482.04 583.77 490.67 594.57 484.38 620.7 492.34 630.41 488.97 636.66 481.71 629.89 471.11 634.09 456.85 640.13 460.33 658.94 456.59 665.15 449.9 676.53 452.57 693.83 464.87 698.9 482.8 709.7 493.64 719.03 494.95 717.51 508.28 743.34 509.67 754.62 505.5 758.72 530.63 763.13 534.11 755.1 535.67 751.5 544.17 742.99 552.22 730 548.89 724.3 558.48 740.2 576.71 735.25 590.41 729.32 592.68 717.14 607.78 703.87 604.12 696.76 606.88 677.55 598.66 662.05 596.97 653.56 603.89 644.28 601.34 637.62 590.25 626.17 590.25 611.48 603.24 607.19 611.59 587.99 596.08 607.5 586.21 610.8 574.61 616.23 572.51 629.66 529.74 618.29 523.96 610.79 529.89 603.08 523.54 582.27 512.46 580.76 505.36 569.19 491.29 560.05 485.7 Z" id="IE-MH" data-name="Meath"/>
<path d="M 771.72 608.34 770.46 598.56 748.05 600.05 736.52 616.42 734.08 612.33 714.44 613.36 717.14 607.78 729.32 592.68 735.25 590.41 740.2 576.71 724.3 558.48 730 548.89 742.99 552.22 751.5 544.17 755.1 535.67 763.13 534.11 768.16 542.76 781.94 551.31 785.05 562.52 776.24 583.83 775.13 591.59 778.76 606.1 771.72 608.34 Z" id="IE-D" data-name="Fingal"/>
<path d="M 715.06 656.77 706.41 667.81 696.89 686.47 685.95 697.31 671.5 704.31 659.53 725.54 668.26 742.45 668.22 748.07 662.46 759.95 641.76 763.77 632.61 757.32 632.01 749.15 625.55 735.62 610.49 729.97 606.27 721.93 611.94 710.43 610.46 697.61 604.12 682.82 603.92 673.69 614.32 668.05 617.87 660.78 610.31 654.85 617.12 649.07 622.51 632 607.71 615.66 607.19 611.59 611.48 603.24 626.17 590.25 637.62 590.25 644.28 601.34 653.56 603.89 662.05 596.97 677.55 598.66 696.76 606.88 703.87 604.12 717.14 607.78 714.44 613.36 704.16 639.1 715.06 656.77 Z" id="IE-KE" data-name="Kildare"/>
<path d="M 668.22 748.07 690.15 754.2 700.65 759.67 706.52 757.93 707.35 774.54 696.42 780.75 681.16 772.85 676.19 784.37 689.94 808.21 679.83 816.92 683.18 824.62 660.55 837.4 658.84 850.27 651.51 859.38 645.05 876.59 633.99 880.23 631.1 863.04 633.44 847.29 625.07 837.99 624.26 819.69 616.34 808.73 603.84 804.29 606.48 791.93 611.89 784.25 631.42 774.85 632.61 757.32 641.76 763.77 662.46 759.95 668.22 748.07 Z" id="IE-CW" data-name="Carlow"/>
<path d="M 611.89 784.25 600.83 774.36 595.75 761.85 586.03 756.68 574.96 767.5 568.79 765.22 548.6 782.91 539.6 786.47 516.98 777.81 510.16 786.47 501.34 788.18 493.96 769.52 495.23 756.5 502.17 748.36 490.61 736.23 497.5 719.38 514.91 694.83 506.29 679.71 509.02 674.78 532.68 667.34 543.72 669.21 548.36 662.24 555.87 662.02 564.23 672.36 566.54 681.99 577.31 682.72 587.82 677.84 600.28 677.96 603.92 673.69 604.12 682.82 610.46 697.61 611.94 710.43 606.27 721.93 610.49 729.97 625.55 735.62 632.01 749.15 632.61 757.32 631.42 774.85 611.89 784.25 Z" id="IE-LS" data-name="Laoighis"/>
<path d="M 736.52 616.42 738.96 626.08 749.83 631.27 747.54 658.81 737.64 670.16 730.09 661 715.06 656.77 704.16 639.1 714.44 613.36 734.08 612.33 736.52 616.42 Z" id="IE-D" data-name="South Dublin"/>
<path d="M 428.64 672.7 446.44 661.67 446.3 653 434.13 641.22 441.57 625.15 452.21 614.25 468.4 620.64 494.74 614.48 500.97 605.75 510.03 601.54 518.5 606.19 526.72 626.04 532.74 622.28 539.93 626.58 554.58 621.99 571.7 606.45 581.12 603.76 587.99 596.08 607.19 611.59 607.71 615.66 622.51 632 617.12 649.07 610.31 654.85 617.87 660.78 614.32 668.05 603.92 673.69 600.28 677.96 587.82 677.84 577.31 682.72 566.54 681.99 564.23 672.36 555.87 662.02 548.36 662.24 543.72 669.21 532.68 667.34 509.02 674.78 506.29 679.71 514.91 694.83 497.5 719.38 490.61 736.23 475.54 732.32 468 739.81 467.74 746.34 446.1 766.1 436.93 753.76 447.81 736.75 443.92 731.27 454.49 711.41 457.17 698.61 452.74 688.34 441.36 682.95 428.64 672.7 Z" id="IE-OY" data-name="Offaly"/>
<path d="M 551.1 490.64 560.05 485.7 569.19 491.29 580.76 505.36 582.27 512.46 603.08 523.54 610.79 529.89 618.29 523.96 629.66 529.74 616.23 572.51 610.8 574.61 607.5 586.21 587.99 596.08 581.12 603.76 571.7 606.45 554.58 621.99 539.93 626.58 532.74 622.28 526.72 626.04 518.5 606.19 510.03 601.54 500.97 605.75 494.74 614.48 468.4 620.64 452.21 614.25 454.3 604.91 449.8 588.01 448.86 567.15 459.14 561.52 472.63 559.57 492.7 564.65 504.21 561.07 508.94 549.42 520.65 538.05 518.78 528.62 529.49 514.83 543.6 505.03 553.59 501.86 551.1 490.64 Z" id="IE-WH" data-name="Westmeath"/>
<path d="M 456.15 480.81 470.09 476.13 479.15 479.72 482.81 467.23 499.44 448.86 513.71 444.11 524.16 459.74 533.74 466.5 541.44 482.13 551.1 490.64 553.59 501.86 543.6 505.03 529.49 514.83 518.78 528.62 520.65 538.05 508.94 549.42 504.21 561.07 492.7 564.65 472.63 559.57 459.14 561.52 448.86 567.15 436.51 538.71 444.46 515.88 454.94 497.75 462.35 493.46 456.15 480.81 Z" id="IE-LD" data-name="Longford"/>
<path d="M 414.27 391.1 418.37 389.09 433.39 396.38 426.17 412.04 428.94 429.35 423.27 438.21 425.76 447.94 444.85 454.04 446 466.23 456.15 480.81 462.35 493.46 454.94 497.75 444.46 515.88 436.51 538.71 448.86 567.15 449.8 588.01 454.3 604.91 452.21 614.25 441.57 625.15 434.13 641.22 417.58 640.15 409.44 629.4 409.12 622.52 400.38 615.47 402.01 605.99 399.26 591.54 392.89 581.4 391 553.4 375.96 542.21 371.75 534.47 376.53 527.32 362.9 519.04 357.71 510.23 340.51 509.6 325.21 521.68 306.32 526.37 296.77 523.99 301.54 517.52 316.7 507.85 320.27 487.8 312.94 481.34 319.46 462.35 327.23 463.99 328.99 454.53 321.08 447.08 321.25 434.26 338.42 436.54 346.88 437.35 350.49 444.75 361.9 450.59 367.07 446.17 381.43 447.01 380.19 440.04 370.92 435.31 373.09 425.2 383.34 423.95 388.68 415.66 398.12 410.46 414.27 391.1 Z" id="IE-RN" data-name="Roscommon"/>
<path d="M 501.34 788.18 508.22 802.41 504.99 806.97 505.98 825.3 496.01 841.12 470.57 853.83 455.64 852.04 450.02 848.43 424.54 818.64 408.89 821.82 399.44 822.48 388.56 814.36 382.91 816.65 362.2 815.21 357.34 795.46 362.75 784.15 362.32 777.27 371.58 751.62 383.18 749.55 391.76 737.64 387.17 729.09 396.36 711.18 405.51 702.33 417.78 677.91 428.64 672.7 441.36 682.95 452.74 688.34 457.17 698.61 454.49 711.41 443.92 731.27 447.81 736.75 436.93 753.76 446.1 766.1 467.74 746.34 468 739.81 475.54 732.32 490.61 736.23 502.17 748.36 495.23 756.5 493.96 769.52 501.34 788.18 Z" id="IE-TA" data-name="North Tipperary"/>
<path d="M 508.22 802.41 519.84 808.65 540.52 848.12 540.72 865.15 545.6 870.57 538.69 877.64 550.61 890.35 550.91 904.71 555.4 918.27 515.1 911.2 481.37 917.24 480.26 935.63 485.17 938.68 483.21 951.08 444.73 946.33 440.45 955.64 424.62 955.04 416.41 947.53 409.39 934.11 414.63 925.02 412.42 912.69 406.64 909.29 398.94 897.35 387.17 890.62 376.42 888.52 372.34 883.3 374.86 873.88 402.12 862.75 401.56 848.92 408.89 821.82 424.54 818.64 450.02 848.43 455.64 852.04 470.57 853.83 496.01 841.12 505.98 825.3 504.99 806.97 508.22 802.41 Z" id="IE-TA" data-name="South Tipperary"/>
<path d="M 593.08 936.94 606.16 943.25 614.26 941.12 619.83 951.06 614.87 955.7 602.44 955.7 595.7 949.33 593.08 936.94 Z" id="IE-WD" data-name="Waterford"/>
<path d="M 341.12 818.56 341.92 828.83 337.66 834.09 327.37 832.34 323.71 825.5 329.68 818.76 341.12 818.56 Z" id="IE-LK" data-name="Limerick"/>
</g>
</svg>