<?xml version="1.0"?>
<svg xmlns="http://www.w3.org/2000/svg" version="1.2" baseProfile="tiny" width="800" height="540" viewBox="0 0 800 540" stroke-linecap="round" stroke-linejoin="round">
<g id="MLOC-IS">
<path d="M 719.75 100 720.34 106.64 716.31 118.17 704.66 130.22 701.87 139.72 705.69 145.77 713.97 141.7 729.51 137.45 738.07 133.59 740.39 136.13 735.46 145.36 736.81 149.39 746.32 156.8 762.23 166.38 772.22 164.67 776.97 172.52 777.2 178.46 787.04 176.06 792.52 183.22 789.51 192.75 790.53 197.08 788.08 207.02 779.86 218.8 786.87 219.39 794.5 224.49 795.54 227.25 789.29 234.35 792.02 238.35 789.51 248.58 792.02 253.82 799 242.59 798.51 262.67 792.52 266.18 794.47 270.13 789.79 274.48 778.59 273.2 776.54 267.11 771.83 264.12 764.7 262.67 762.1 265.61 747.35 267.46 770.19 269.69 777.2 279.05 784.66 282.53 783.09 287.38 773.2 283.72 774.95 289.24 781.13 297.17 774.53 303.46 773.83 307.22 760.74 308.26 765.24 316.48 760.74 319.96 744.66 323.43 739.67 320.54 733.8 308.09 730.5 312.91 736.47 316.48 739.67 325.74 732.25 327.42 728.52 330.37 734 334.98 732.47 340.75 722.82 340.75 722.82 344.1 727.32 348.82 732 346.85 727.29 366.76 724.79 373 721.23 369.56 713.18 368.27 712.66 371.49 699.65 384.79 699.08 393.65 692.17 396.83 684.11 390.35 681.41 393.68 675.44 395.94 672.59 387.15 665.5 384.43 663.03 394.9 658.24 398.71 649.44 400.8 640.16 404.49 638.76 410.7 620 416.48 620.78 419.89 613.92 424.86 606.44 433.47 597.05 437.59 594.04 446.09 575.16 461.93 564.56 465.07 561.27 469.16 554.57 463.02 554.55 472.05 550.22 471.66 549.4 461.93 544.91 465.19 546.56 473.68 538.69 474.16 532.01 470.8 519.08 477.75 519.2 447.24 522.26 433.89 555.94 361.78 569.68 333.68 573.39 318.59 573.41 314.14 570.44 304 574.07 294.4 574.39 286.18 581.16 282.4 586.63 281.7 595.67 271.22 600.52 269.67 604.26 264.81 603.23 259.46 604.71 251.23 604.6 238.49 610.16 226.08 615.46 221.48 617.43 214.76 613.28 206.06 607.72 202.18 606.94 196.64 612.92 188.47 616.4 174.63 618.42 172.44 640.9 177.05 644.08 165.45 642.39 145.07 643.75 142.21 658.79 138.04 660.39 133.84 666.47 129.24 669.01 122.89 675.49 121.89 682.69 115.28 684.5 111.42 713.99 107.55 716.24 100.92 719.75 100 Z" id="IS-7" data-name="Austurland"/>
<path d="M 555.94 361.78 522.26 433.89 519.2 447.24 519.08 477.75 504.23 482.09 496.97 478.36 493.39 482.17 484.71 483.65 479.23 493.66 487.34 495.02 484.31 502.13 479.92 500.04 478.43 505.61 483.83 505.3 483.06 509.9 477.13 518.61 464.97 525.62 445.79 530.5 436.82 534.83 421.58 539 417.89 538.85 404 534.52 398.15 536.14 381.37 532.21 376.67 528.9 370.74 527.7 362.28 521.94 346.42 516.71 316.31 515.05 305.3 505.73 301.77 498.56 297.74 494.37 293.47 494.41 287.94 487.38 273.97 477.52 280.39 472.13 267.58 473.25 261.05 468.86 251.79 465.37 245.15 460.92 243.23 451.61 240.22 448.11 235.71 453.87 241.27 457.08 232.02 459.5 230.77 465.19 209.56 468.1 199.9 461.74 189.85 465.42 192.59 460.2 210.1 440.4 213.47 440.07 227.12 413.43 227.14 402.81 229.26 397.65 246.54 379.88 251.66 373.21 262.41 363.13 272.57 351.78 284.26 347.53 307.02 332.81 326.5 323.6 329.67 319.93 331.39 306.05 350.03 314.43 353.89 314.69 372.86 308.86 390.96 308.93 411.48 299.76 443.7 292.6 450.47 298.97 514.94 337.08 555.94 361.78 Z" id="IS-8" data-name="Suðurland"/>
<path d="M 210.1 440.4 192.59 460.2 189.85 465.42 180.16 467.44 160.57 462.95 146.12 469.85 132.97 468.66 134.22 461.14 132.02 458.36 135.26 449.36 131.57 441.48 132.88 428.75 134.99 425.56 140.76 430.22 144.49 437.2 145.62 443.26 154.45 444.17 159.87 437.55 165.95 434.89 170.5 436.97 175.94 433.15 182.35 440.17 189.98 439.74 199.4 439.2 210.1 440.4 Z" id="IS-2" data-name="Suðurnes"/>
<path d="M 189.98 439.74 182.35 440.17 175.94 433.15 181.98 431.96 187.58 426.8 191.08 419.89 183.83 412.53 194.72 414.51 202.49 412.06 198.12 400.93 192.93 398.41 193.93 394.97 204.03 394.64 212.74 397.72 213.46 409.58 209.9 426.92 196.73 432.61 189.98 439.74 Z" id="IS-0" data-name="Reykjavík"/>
<path d="M 246.54 379.88 229.26 397.65 227.14 402.81 227.12 413.43 213.47 440.07 210.1 440.4 199.4 439.2 189.98 439.74 196.73 432.61 209.9 426.92 213.46 409.58 212.74 397.72 204.03 394.64 193.93 394.97 199.18 390.29 202.02 384.02 213.67 377.58 223.64 380.25 226.56 377.86 244.82 374.6 246.54 379.88 Z" id="IS-1" data-name="Höfuðborgarsvæði"/>
<path d="M 331.39 306.05 329.67 319.93 326.5 323.6 307.02 332.81 284.26 347.53 272.57 351.78 262.41 363.13 251.66 373.21 246.54 379.88 244.82 374.6 226.56 377.86 224.8 374.25 211.64 373.41 205.46 374.88 187.63 391.03 177.69 388.08 186.03 378.84 181.65 373 183.37 364.46 186.73 356.44 196.71 350.5 202.14 341.55 191.36 346.42 185.42 352.15 181.19 352.93 178.19 361.65 170.51 361.8 168.49 351.96 166.27 347.66 159.04 345.61 159.8 338.44 156.61 333.82 161.78 326.9 159.64 319.39 161.78 314.17 153.33 311.85 150.41 305.94 146.41 304.77 141.96 309.53 136.23 305.94 128.16 307.57 117.5 306.36 98.89 305.62 94.68 301.14 83.66 302.46 79.41 307.41 69.53 304.46 65.69 314.67 52.15 318.91 44 312.98 43.29 308.59 37.75 298.07 35.75 290.82 43.11 286.34 50.98 284.07 58.34 288.11 66.31 289.55 72 286.32 75.38 281.37 96.29 280.85 95.09 274.44 97.29 269.29 110.96 269.96 116.65 274.48 123.76 270.49 124.69 265.48 130.11 259.85 134.54 261.5 136.09 270.89 143.94 266.18 145.43 263.24 157.41 262.11 167.21 264.08 173.69 267.46 181.65 265 186.19 267.47 197.51 266.18 196.76 258.04 199.98 255.62 203.94 244.84 204.18 238.86 198.73 236.74 197.02 241.52 186.1 250.93 182.48 252.45 161.83 248.41 156.63 244.13 147.86 245.69 144.54 243.15 149.42 231.98 157.55 226.08 162.27 219.74 170.35 217.43 179.8 208.81 193.11 199.53 206.99 193.84 210.93 186.75 213.66 187.76 213.29 199.42 209.77 205.07 212.57 209.77 221.5 208 228.34 222.09 236.84 232.19 239.43 242.98 236.58 254.55 238.18 260.1 243.48 269.65 249.14 274.67 258.49 276.92 265.37 282.9 272.39 283.68 277.1 286.95 300.38 279.9 304.86 281.82 343.52 283.22 343.59 290.2 335.29 299.38 331.39 306.05 Z" id="IS-3" data-name="Vesturland"/>
<path d="M 258.49 276.92 249.14 274.67 243.48 269.65 238.18 260.1 236.58 254.55 239.43 242.98 236.84 232.19 228.34 222.09 221.5 208 212.57 209.77 209.77 205.07 213.29 199.42 213.66 187.76 210.93 186.75 206.99 193.84 200.04 196.15 192.35 195.04 184.7 185.03 176.22 188.31 170.5 197.51 164.6 194.2 156.89 187.16 159.89 183.14 155.69 179.79 150.27 184.31 148.62 173.53 142.26 179.49 136.48 180.73 133.69 173.08 133.89 167.28 129.6 163.99 132.97 184.31 128.07 184.31 117.89 172.91 113.58 176.75 107.19 179 99.26 172.35 99.3 183.22 94.6 188.25 85.5 186.02 83.84 183.18 77 189.56 67.22 191.56 60.8 198.59 47.52 202.33 41.23 199.89 42.43 191.83 25.85 185.5 5.21 187.72 1 184.31 12.91 173.57 13.61 165.07 19.97 161.82 30.29 167.13 34.26 172.26 42.18 175.45 39.37 168.31 33.81 159.2 44.74 161.48 38.44 154.84 31.29 143.47 30.31 134.94 36.49 132.39 67.03 149.59 76.47 160.28 84.38 161.48 83.25 155.01 76.47 151.88 74.19 145.77 86.72 144.27 89.39 140.6 69.88 140.12 63.52 136.13 59.71 137.55 53.63 130.22 49.76 119.65 50.01 114.29 53.09 110.76 64.02 114.39 65.07 107.76 57.24 101.12 53.63 95.53 55.12 85.01 61.85 84.77 74.98 92.8 72.9 86.94 64.02 76.59 69 70.36 79.1 61.06 90.47 64.36 101.46 71.52 104.53 77.47 110.51 78.16 113.52 83.37 114.19 91.55 118.51 89.33 122.97 92.47 126.33 101.54 130.58 87.14 135.49 87.6 137.24 92.95 143.12 102.34 147.47 101.86 150.41 108.33 157.32 110.21 155.35 99.73 149.87 92.31 152.39 84.02 143.49 80.84 139.44 76.59 122.22 69.07 117.16 63.64 114.13 55.67 128.27 50.53 141 53.41 149.84 52.62 141.79 45.32 133.51 44.61 135.53 39.57 125.32 40.8 124.55 33.22 116.88 43.56 105.41 40.53 99.27 35.03 99.75 32.18 109.13 32.88 110.72 27.25 102.71 19.84 118.11 17.15 123.35 13.64 136.39 21.98 143.32 13.84 147.94 18.46 157.65 19.88 159.58 26.83 167.3 33.52 169.42 45.68 175.64 49.53 186.43 48.33 190.67 58.27 196.25 63.05 203.04 64.36 204.99 82.89 206.45 85.01 217.6 80.14 219.6 86.05 216.9 89.26 220.46 94.51 228.3 92.31 232.09 93.87 234.28 99.73 224.08 100.7 228.91 106.08 235.49 108.94 236.77 115.56 233.74 119.23 237.2 122.96 233.61 131.42 227.08 139.46 233.29 143.47 225.23 152.32 215.4 151.88 210.48 144.91 207.44 151.88 213.18 160.92 225.27 160.6 230.31 168.75 234.11 167.88 235.71 175.41 230.56 187.95 237.18 190.37 241.98 196.49 243.21 201.72 243.38 218.74 246.64 230.68 249.55 235.11 251.29 243.24 251.88 254.79 258.49 276.92 Z" id="IS-4" data-name="Vestfirðir"/>
<path d="M 443.7 292.6 411.48 299.76 390.96 308.93 372.86 308.86 353.89 314.69 350.03 314.43 331.39 306.05 335.29 299.38 343.59 290.2 343.52 283.22 304.86 281.82 300.38 279.9 277.1 286.95 272.39 283.68 265.37 282.9 258.49 276.92 251.88 254.79 251.29 243.24 252.61 240.25 248.66 226.08 251.98 213.9 250.18 195.22 253.34 194.02 260.03 211.24 262.15 207.65 259.15 196.6 258.26 184.52 261.07 172.26 263.28 167.97 271.45 161.48 275.9 155.48 281.55 152.26 283.86 156.8 283.29 167.37 287.99 172.3 288.11 179.47 293.49 186.59 296.92 185.45 298.78 177.15 296.84 174.06 305.97 163.33 307.47 151.85 310.69 142.81 308.71 134.14 305.2 127.69 306.4 120.73 301.27 107.06 299.56 95.7 297.25 92.31 298.78 82.67 311.23 79.02 316.38 74.14 321.55 75.62 327.54 82.67 333.03 97.29 334.02 104.58 338.62 111.14 338.46 114.39 350.88 120.45 355.08 139.2 360.34 142.48 362.76 139.58 369.02 142.67 371.9 141.16 373.22 130.99 372.79 122.38 369.48 110.76 365.21 105.91 366.12 101.55 372.22 96.19 369.45 87.58 375.91 81.79 390.61 80.14 394.56 77.69 396.47 69.34 400.22 72.67 405.85 84.66 412.81 95.52 408.81 104.3 412.13 108.66 409.6 118.43 403.72 121.86 403.76 128.11 413.53 137.11 416.68 149.03 412.41 157.05 408.43 170.65 421.72 182.08 418.54 198.12 423.1 203.12 424.09 207.95 432.04 211.42 433.33 219.09 438.69 227.79 446.89 234.61 448.89 247.04 449.13 260.42 446.89 278.7 443.7 292.6 Z" id="IS-5" data-name="Norðurland vestra"/>
<path d="M 719.75 100 716.24 100.92 713.99 107.55 684.5 111.42 682.69 115.28 675.49 121.89 669.01 122.89 666.47 129.24 660.39 133.84 658.79 138.04 643.75 142.21 642.39 145.07 644.08 165.45 640.9 177.05 618.42 172.44 616.4 174.63 612.92 188.47 606.94 196.64 607.72 202.18 613.28 206.06 617.43 214.76 615.46 221.48 610.16 226.08 604.6 238.49 604.71 251.23 603.23 259.46 604.26 264.81 600.52 269.67 595.67 271.22 586.63 281.7 581.16 282.4 574.39 286.18 574.07 294.4 570.44 304 573.41 314.14 573.39 318.59 569.68 333.68 555.94 361.78 514.94 337.08 450.47 298.97 443.7 292.6 446.89 278.7 449.13 260.42 448.89 247.04 446.89 234.61 438.69 227.79 433.33 219.09 432.04 211.42 424.09 207.95 423.1 203.12 418.54 198.12 421.72 182.08 408.43 170.65 412.41 157.05 416.68 149.03 413.53 137.11 403.76 128.11 403.72 121.86 409.6 118.43 412.13 108.66 408.81 104.3 412.81 95.52 405.85 84.66 400.22 72.67 396.47 69.34 406.18 63.48 418.34 63.01 416.55 69.58 424.46 67.19 435.16 82.8 437.22 92.31 435.48 102.14 449.39 106.41 453.78 112.64 455.74 120.22 459.52 123.24 461.57 143.53 466.66 145.09 469.69 127.62 467.51 119.23 463.62 110.92 458.07 108.33 457.56 101.65 453.08 94.87 450.75 79.01 453.08 65.46 460.55 65.46 470.68 70.85 480.91 70.36 492.52 82.32 496.28 88.77 498.27 96.29 504.51 100.08 516.64 98.61 520.6 88.77 520.6 82.67 528.07 74.4 527.46 68.7 531.27 62.84 538.37 59.81 547.56 61.89 552.82 75.36 555.4 73.4 562.75 74.14 565.49 77.13 571.07 69.24 584.15 63.69 587.56 55.67 588.87 46.15 582.1 31.68 582.62 25.9 579.98 13.53 580.08 6.38 588.31 4.05 593.01 4.86 596.77 11.05 602.36 4.4 609.44 1.13 617.76 1 623.86 7.17 623.3 17.36 624.92 21.73 631.26 24.78 640.66 26.52 642.63 35.88 635.71 45.73 641.83 49.99 641.19 55.67 650.17 55.71 661.45 66.77 667.18 65 667.37 52.51 669.96 49.52 678.87 49.52 683.96 47.72 684.83 43.26 689.96 39.89 692.48 32.77 697.24 28.43 703.44 27.25 709.64 30.94 720.03 32.42 707.18 38.35 701.46 42.77 694.8 44.47 693.41 51.12 696.53 57.87 694.71 64.36 687.78 71.1 682.09 71.98 678.85 77.69 686.47 80.23 686.33 88.71 702.5 90.93 708.46 85.46 715.2 87.53 717.08 96.35 719.75 100 Z" id="IS-6" data-name="Norðurland eystra"/>
</g>
</svg>