<?xml version="1.0"?>
<svg xmlns="http://www.w3.org/2000/svg" version="1.2" baseProfile="tiny" width="800" height="943" viewBox="0 0 800 943" stroke-linecap="round" stroke-linejoin="round">
<g id="MLOC-IT">
<path d="M 29.09 113.86 32.09 117.23 35.7 118.59 39.91 118.17 46.81 115 51.84 115.54 57.95 111.87 61.34 110.83 63.85 108.19 70.68 109.9 74.09 113.53 76.64 113.37 83.28 114.9 84.51 112.47 84.93 114.43 84.38 115.55 85.44 125.33 86.7 130.42 88.98 132.66 89.2 140.38 86.56 144.82 80.11 146.86 77.79 148.51 72.68 148.56 64.17 146.06 58.72 147.55 53.43 152.32 41.83 156.19 37.4 155.39 36.42 153.69 32.66 157.86 26.46 153.58 24.59 146.4 25.15 141.18 19.74 137.85 17.1 137.16 13.94 133.76 13.13 129.27 14.27 123.36 21.25 121.54 25.54 119.2 29.09 113.86 Z" id="IT-AO" data-name="Aoste"/>
<path d="M 84.93 114.43 84.51 112.47 87.77 108.4 93.64 106.73 95.3 103.8 95.8 98.86 101.99 94.41 103.44 91.28 103.26 87.73 99.76 81.34 101.74 79.06 107.48 76.77 110.78 72.41 114.1 70.06 113.78 67.44 115.77 64.69 120.43 63.08 124.16 64.56 124.47 69.69 123.16 77.51 123.19 82.37 125.16 84.94 128.76 86.58 134.89 94.81 139.96 97.42 143.41 96.22 143.76 102.16 142.86 105.5 134.31 114.61 134.66 123.41 131.71 121.64 128.48 122.33 125.44 119.28 122.43 122.24 120.08 121.85 119.55 127.09 118.02 128.55 115.81 128.85 116.6 123.22 116.17 120.72 112.69 115.82 108.67 113.64 107.12 111.7 100.65 114.04 97.3 113.26 91.71 116.06 87.88 113.9 84.93 114.43 Z" id="IT-VB" data-name="Verbano-Cusio-Ossola"/>
<path d="M 134.66 123.41 134.31 114.61 142.86 105.5 143.76 102.16 143.41 96.22 144.62 97.55 148.76 98 150.47 100.26 146.02 108.29 148.19 108.73 152.92 111.76 155.67 117.89 155.46 123.19 155.17 127.95 158.07 132.15 157.51 135.02 155.32 137.21 157 140.18 160.37 138.18 161.16 140.48 165.49 139.2 165.11 142.86 165.82 145.7 161.98 147.26 159.95 146.27 159.76 143.59 156.66 143.56 150.65 148.1 147.84 144.86 144.6 148.51 141.81 149.21 141.15 144.42 139.35 142.28 139.92 138.1 137.86 136.58 137.83 133.52 135.93 132.84 132.45 126.04 134.66 123.41 Z" id="IT-VA" data-name="Varese"/>
<path d="M 155.46 123.19 157.51 122.56 161.72 123.91 165.53 118.03 165.02 114.79 161.67 112.82 160.4 109.36 162.6 107.32 161.7 102.87 165.52 100.7 166.39 95.19 167.63 93.32 172.53 89.96 173.7 86.95 176.62 84.33 183.58 83.95 186.58 86.18 191.09 85.94 190 91.21 186.24 91.22 181.92 93.83 179.78 104.52 180.62 109.84 179.2 110.39 180.64 116.22 183.21 116.7 183.56 120.14 178 128.45 178.12 131.41 175.1 134.84 174.44 137.79 168.97 135.94 166.41 136.69 165.49 139.2 161.16 140.48 160.37 138.18 157 140.18 155.32 137.21 157.51 135.02 158.07 132.15 155.17 127.95 155.46 123.19 Z" id="IT-CO" data-name="Como"/>
<path d="M 190 91.21 191.09 85.94 186.58 86.18 183.58 83.95 176.62 84.33 179.57 76.75 179.9 73.37 179.03 66.34 177.5 64.41 179.19 59.69 183.73 58.09 186.82 61.29 190.89 59.01 191.81 70.84 193.88 72.15 196.07 76.83 199.05 78.37 206.72 78.46 209.01 76.52 209.06 73.55 213 73.92 218.85 71.17 221.77 70.66 226.13 72.22 227.03 77.84 230.66 81.53 231.39 85.36 233.61 85.41 238.3 83.15 239.18 81.3 234.68 74.85 237.46 69.79 237.47 66.6 231.35 64.78 230.3 63.47 230.73 55.03 233.3 51.97 235.06 47.72 241.4 45.89 244.19 46.75 244.26 50.91 248.32 53.27 257.06 54.8 258.8 53.69 261.61 58.78 264.79 59.26 270.38 62.67 271.31 66.88 269.99 70.35 266.27 71.13 263.89 73.53 258.4 73 253.12 78.33 249.83 79.85 248.03 85.28 240.49 89.95 238.84 93.65 240.46 99.29 239.89 101.16 235.89 101.49 235.03 97.89 223.66 100.62 219.95 102.41 211.77 100.63 203.48 101.69 200.35 104.53 196.85 105.56 194.59 99.85 190.7 98.5 189.33 96.58 190 91.21 Z" id="IT-SO" data-name="Sondrio"/>
<path d="M 258.8 53.69 259.74 50.6 259.28 46.21 255.03 44.72 253.26 41.44 254.95 38.67 255.3 35.28 257.25 33.31 256.48 29.09 258.58 25.82 258.93 22.67 263.88 24.75 270.69 22.87 272.91 23.01 278.03 26.08 279.09 29.88 287.5 32.44 290.88 31.52 295.31 32 299.17 27.02 301.67 17.96 306 13.64 311.84 11.41 316.53 10.62 323.05 12.27 325.85 9.29 330.03 10.41 335.46 9.33 341.31 10.17 345.51 12.08 350.6 10.04 352.91 8.19 358.71 5.63 363.49 5.4 371.41 1.63 374.59 1 376.14 2.79 374.7 6.07 370.64 8.34 369.93 10.06 371.98 16.44 375.56 21.13 380.35 22.3 380.51 30.09 385.44 32.38 387.3 37.66 389.61 39.71 393.94 41.11 389.23 44.63 376.82 48.89 374.41 45.11 369.13 41.89 363.96 54.4 352.57 56.86 351.25 57.85 347.65 57.26 341.33 57.49 338.46 60.89 335.38 69.3 331.54 72.46 327.43 71.88 325.98 74.28 322.87 75.29 321.47 79.49 316.82 78.78 311.72 84.33 308.31 84.72 306.33 82.55 305.97 79.21 309.02 73.86 309.88 61.22 308.42 57.69 305.25 59.49 301.26 55.95 299.21 56.72 299.82 62.32 298.06 62.98 295.34 60.26 284.79 64.98 281.95 63.4 278.45 59.7 272.57 63.15 270.38 62.67 264.79 59.26 261.61 58.78 258.8 53.69 Z" id="IT-BZ" data-name="Bozen"/>
<path d="M 61.25 315.4 59.61 308.6 64.91 301.29 69.87 296.69 71.37 292.4 73.82 289.82 73.68 287.63 77.04 286.83 77.17 283.63 79.45 282.81 81.68 284.07 93.75 285.57 94.73 285.05 97.17 289.83 94.06 294.1 96.65 297.27 100.82 298.05 103.31 301.64 99.12 305.7 91.89 309.77 80.24 312.64 74.16 315.49 61.25 315.4 Z" id="IT-IM" data-name="Imperia"/>
<path d="M 94.73 285.05 93.75 285.57 81.68 284.07 79.45 282.81 77.17 283.63 77.04 286.83 73.68 287.63 70.6 282.71 69.45 279.3 64.76 281.26 53.11 284.63 50.42 284.57 48.32 282.34 44.44 281.17 37.32 276.77 29.85 273.43 27.35 273.91 22.33 267.89 19.47 262.98 18.64 261.34 19.38 257.38 22.1 255.32 18.32 251.7 16.81 249.07 17.32 244.89 20.73 242.26 23.96 237.56 23.48 234.5 26.46 231.28 31.3 231.96 30.21 229.4 32.73 229.17 37.95 225.86 49.43 222.48 50.97 224.83 60.77 224.49 68.15 217.89 71.47 219.86 78.07 219.69 81.17 217.02 88.46 218.5 90.79 216.74 92.85 216.33 96.19 220.56 100.66 219.31 103.35 220.88 100.77 225.32 103.15 226.23 104.83 229.36 107.39 225.93 112.37 230.27 110.11 232.18 107.81 236.87 110.77 242.09 111.31 246.1 109.38 247.65 107.6 252.21 108.37 256.63 105.91 258.39 103.65 263.39 99.38 267.02 99.24 275.04 99.78 278.76 97.28 281.38 95.03 280.75 93.36 282.87 94.73 285.05 Z" id="IT-CN" data-name="Cuneo"/>
<path d="M 32.66 157.86 36.42 153.69 37.4 155.39 41.83 156.19 53.43 152.32 58.72 147.55 64.17 146.06 72.68 148.56 77.79 148.51 80.11 146.86 86.56 144.82 87.6 148.13 86.7 151.38 93.6 157.75 96.43 159.5 96.39 163.9 95.32 165.7 96.22 168.74 92.76 169.67 93.8 177.2 98.58 184.89 101.62 184.51 104.76 186.21 103.23 190.54 101.05 190.28 98.79 192.84 96.52 189.62 93.85 190.29 87.45 193.64 87.87 196.47 90.49 197.51 89.86 203.48 88.03 205.43 87.27 211.68 90.79 216.74 88.46 218.5 81.17 217.02 78.07 219.69 71.47 219.86 68.15 217.89 60.77 224.49 50.97 224.83 49.43 222.48 37.95 225.86 32.73 229.17 30.21 229.4 27.5 221.7 28.08 219.03 26.46 216.67 23.1 215.29 18.63 215.85 12.75 212.83 9.39 208.95 9.09 200.93 4.98 199.43 3.27 195.15 1 192.4 2.79 190.49 9.95 187.28 17.17 189.87 19.35 188.81 24.84 182.3 29.6 180.55 31.77 181.47 34.87 177.6 33.81 171.44 36.32 168.28 38.37 163.15 34.09 160.81 32.66 157.86 Z" id="IT-TO" data-name="Turin"/>
<path d="M 395.36 299.34 394.78 297.71 391.1 298.94 390.39 299.47 388.32 303.11 388.61 303.73 390.69 305.84 386.03 308.18 384.03 313.4 381.58 315.17 381.63 317.57 377.46 317.98 374.23 319.82 372.6 318.43 369.34 318.48 372.11 311.67 373.48 302.77 378.89 303.34 384.33 299.95 388.93 293.34 386.96 290.14 393.06 287.31 391.2 282.36 393.16 280.58 394.55 283.1 399.15 287.38 400.95 288.12 404.77 293.29 410.06 297.68 412.98 298.66 411.44 307.07 408.03 310.5 404.89 310.73 402.09 306.01 399.16 306.78 398.48 304.75 394.84 302.68 395.41 300.83 395.36 299.34 Z" id="IT-RN" data-name="Rimini"/>
<path d="M 381.63 317.57 381.58 315.17 384.03 313.4 386.03 308.18 390.69 305.84 392.04 306.02 393.59 305.39 394.5 303.23 394.84 302.68 398.48 304.75 399.16 306.78 402.09 306.01 404.89 310.73 408.03 310.5 411.44 307.07 412.98 298.66 416.33 299.17 420.23 302.1 424.7 303.92 425.93 305.61 441.33 319.17 437.27 321.29 434.66 321.43 433.08 325.39 429.63 327.88 427.39 332.63 424.76 333.94 423.31 336.6 413.27 346.02 410.22 346.69 408.77 348.5 405.67 347.62 402.99 348.87 396.68 341.29 391.4 338.89 388.06 340.17 383.92 338.18 385.79 336.13 386.63 332.24 383.3 332.34 381.64 333.98 376.21 331.65 375.6 328.27 381.09 324.9 384.86 324.96 386.44 321.85 381.63 317.57 Z" id="IT-PU" data-name="Pesaro e Urbino"/>
<path d="M 351.25 57.85 352.57 56.86 363.96 54.4 369.13 41.89 374.41 45.11 376.82 48.89 389.23 44.63 393.94 41.11 400.13 43.51 407.45 43.39 412.62 44.51 413.49 51.18 413.2 54.89 406.94 56.63 405.4 61.75 399.4 62.38 397.33 63.85 395.98 67.55 391.73 74.55 387.3 77.05 384.99 80.62 388.13 84.45 393.06 86.73 395.4 91.08 396.11 95.95 392.06 98.95 390.78 102.5 384.65 98.73 382.87 99.55 378.25 104.53 375.32 106.26 369.85 106.4 366.71 110.16 361.65 109.73 359.91 111.07 357.48 117.74 353.2 117.95 350.52 116.33 349.07 118.16 347.35 113.7 344.28 112.55 341.38 108.17 341.36 103.74 342.71 101.51 343.21 96.91 349.08 96.46 355.55 93.86 360.44 87.7 357.16 85.14 357.62 82.45 354.96 80.31 352.67 80.21 352.44 77.22 349.35 73.27 349.29 71.24 352.47 69.46 355 61.41 351.39 59.81 351.25 57.85 Z" id="IT-BL" data-name="Belluno"/>
<path d="M 395.98 67.55 397.33 63.85 399.4 62.38 405.4 61.75 406.94 56.63 413.2 54.89 413.49 51.18 412.62 44.51 418.11 47.56 433.78 48.69 439.27 49.97 444.94 53.16 447.64 53.3 454.47 51.84 461.48 52.05 474.36 56.42 476.41 56.32 475.4 61.74 473.59 63.58 469.66 63.82 464.96 69.09 457.81 73.31 455.96 77.01 453.93 78.6 456.93 86.57 458.82 84.94 463.63 85.99 466.91 88.88 471.48 89.11 472.4 90.11 470.75 94.59 464.47 99.4 461.76 102.33 460.39 106.04 456.78 114.6 456.5 117.31 458.43 127.94 457.77 133.19 446.54 130.12 444.32 128.2 438.26 128.89 434.13 134.19 436.37 138.47 435.87 140.07 434.46 137.97 431.19 129.79 429.59 127.64 429.42 123.46 427.65 121.81 427.65 119.26 423.94 115.16 423.15 110.32 425.78 91.39 425.81 87.6 427.99 81.92 427.17 74.86 421.32 74.16 416.15 72.13 412.74 73.68 405.49 73.85 402.21 71.55 398.55 71.51 395.98 67.55 Z" id="IT-UD" data-name="Udine"/>
<path d="M 457.77 133.19 458.43 127.94 456.5 117.31 456.78 114.6 460.39 106.04 463.58 109.8 469.7 108.15 470.68 111.87 469.6 115.1 467.59 119.7 467.92 124.08 468.88 125.28 468.53 127.17 466.39 126.63 464.57 129.74 463.48 134.12 460.89 134.84 458.13 137.31 457.77 133.19 Z" id="IT-GO" data-name="Gorizia"/>
<path d="M 468.53 127.17 468.88 125.28 473.69 126.67 476.34 128.73 481.62 131.34 486.96 140.35 489.32 141.85 487.59 144.87 486.24 146.55 483.08 146.87 480.44 145.44 477.14 145.73 478.37 143.83 482.75 143.45 480.21 139.82 478.11 135.14 472.82 129.55 468.53 127.17 Z" id="IT-TS" data-name="Trieste"/>
<path d="M 427.65 121.81 429.42 123.46 429.59 127.64 431.19 129.79 434.46 137.97 435.87 140.07 433.52 141.57 425.7 142.35 414.78 149.53 403.46 155.01 396.83 157.47 395.16 158.77 390.5 159.31 393.18 154.81 396.99 155.34 398.47 151.22 396.42 147.63 392.09 151.74 383.22 155.7 380.75 158.12 378.97 163.11 379.83 164.64 376.47 172.85 372.83 172.43 372.47 174.46 368.07 171.17 364.96 172.28 364.73 167.98 360.88 164.4 364.09 161.08 361.25 157.44 364.19 151.67 365.14 147.81 368.68 145.24 375.12 146.58 377.96 151.13 380.71 150.77 381.62 148.33 386.11 146.62 389.01 147.78 391.65 146.42 391.53 142.04 394.09 141.12 397.49 136.87 402.97 136.85 406.9 135.32 407.55 125.71 409.3 125.56 415.53 120.51 417.86 123.56 420.76 121.4 422.4 123.42 426.24 123.91 427.65 121.81 Z M 375.84 176.13 377.55 178.36 377.31 181.68 379.05 183.52 382.32 180.7 384 186.57 381.3 190.04 377.79 191.89 375.15 191.36 372.44 196.68 370.31 195.82 365.18 190.56 364.41 188.4 359.94 188.62 361.65 184.12 369 182.69 372.7 183.78 373.25 181.43 376.01 178.72 375.84 176.13 Z" fill-rule="evenodd" id="IT-VE" data-name="Venezia"/>
<path d="M 368.68 145.24 365.14 147.81 364.19 151.67 361.25 157.44 364.09 161.08 360.88 164.4 364.73 167.98 364.96 172.28 368.07 171.17 372.47 174.46 375.84 176.13 376.01 178.72 373.25 181.43 372.7 183.78 369 182.69 361.65 184.12 359.94 188.62 351.77 189.04 349.16 190.03 346 192.85 343.65 191.75 339.92 191.98 335.87 190.28 331.65 190.03 328.77 191.65 323.55 189.71 322.35 180.37 322.71 178.26 328.14 176.97 331.87 178.83 335.86 179.06 336.92 177.5 334.65 175.1 335.1 172.45 337.45 170.55 336.82 165.43 341.71 160.53 342.74 157.91 345.47 155.77 345.27 151.31 340.38 147.36 338.78 144.48 339.01 141.69 343.15 137.78 350.55 136.74 353.82 138.31 356.16 142.71 359.46 144.07 363.13 141.12 367.11 141.24 368.68 145.24 Z" id="IT-PD" data-name="Padova"/>
<path d="M 359.94 188.62 364.41 188.4 365.18 190.56 370.31 195.82 372.44 196.68 375.15 191.36 377.79 191.89 381.3 190.04 384 186.57 384.49 192.63 387.69 198.51 389.97 199.15 393.61 202.96 397.1 203.37 397.79 207.56 395.63 210.67 395.5 213.73 392.27 219.17 388.84 221.73 385.61 218.87 384.4 216.11 382.14 214.99 380.71 208.22 377.44 209.19 371.54 208.18 368.33 205 361.86 203.73 357.83 204.24 353.76 203.59 348.92 204.32 344.79 208.02 340.89 209.55 338.4 211.82 336.12 211.78 332.58 208.9 323.74 206.95 321.56 204.7 313.78 199 313.79 196.56 308.62 196.19 309.6 192.32 317.78 193.72 321.36 197.18 324.03 195.92 325.33 193.41 323.55 189.71 328.77 191.65 331.65 190.03 335.87 190.28 339.92 191.98 343.65 191.75 346 192.85 349.16 190.03 351.77 189.04 359.94 188.62 Z" id="IT-RO" data-name="Rovigo"/>
<path d="M 323.74 206.95 332.58 208.9 336.12 211.78 338.4 211.82 340.89 209.55 344.79 208.02 348.92 204.32 353.76 203.59 357.83 204.24 361.86 203.73 368.33 205 371.54 208.18 377.44 209.19 380.71 208.22 382.14 214.99 384.4 216.11 385.61 218.87 388.84 221.73 387.65 221.84 382.07 217.03 379.47 225.7 379 229.44 380.54 237.15 377.48 241.48 374.39 243.32 367.01 244.55 364.07 243.33 362.86 240.26 354.43 241.86 352.61 244.09 348.38 244.24 346.52 242.59 348.82 238.02 345.72 235.17 342.82 236.9 340.6 236.57 336.12 230.88 326.84 225.61 320.63 223.24 319.29 223.91 314.71 229.41 313.29 222.82 315.16 220.85 317.18 218.04 320.2 217.08 318.03 214.57 311.24 211.1 312.73 207.19 315.8 205.98 323.74 206.95 Z" id="IT-FE" data-name="Ferrara"/>
<path d="M 348.38 244.24 352.61 244.09 354.43 241.86 362.86 240.26 364.07 243.33 367.01 244.55 374.39 243.32 377.48 241.48 380.54 237.15 381.63 239.7 381.49 250.51 383.8 262.37 385.4 265.33 385.95 269.2 388.32 274.78 385.76 278.2 381.74 274.75 377.14 276.05 370.45 271.31 369.07 268.56 364.61 265.26 360.73 272.33 358.44 274.22 355.4 279.24 350.78 277.88 346.27 278.02 344.36 280.48 343.73 283.82 339.3 285.02 335.92 284.61 336.42 281.9 333.81 279.9 330.76 280.97 331.83 277.31 333.93 274.71 337.11 273.3 341.28 266.39 343.52 267.45 346.16 266.33 350.45 259.13 348.58 255.88 348.39 253.13 345.24 248.74 348.01 246.49 348.38 244.24 Z" id="IT-RA" data-name="Ravenna"/>
<path d="M 393.16 280.58 391.2 282.36 393.06 287.31 386.96 290.14 388.93 293.34 384.33 299.95 378.89 303.34 373.48 302.77 372.11 311.67 369.34 318.48 367.03 318.91 360.39 317.17 357.05 314.35 349.71 312.23 348.08 310.27 343.49 307.33 342.97 303.57 341.27 299.29 339.09 296.94 343.75 289.55 345.56 284.76 343.73 283.82 344.36 280.48 346.27 278.02 350.78 277.88 355.4 279.24 358.44 274.22 360.73 272.33 364.61 265.26 369.07 268.56 370.45 271.31 377.14 276.05 381.74 274.75 385.76 278.2 388.32 274.78 393.16 280.58 Z" id="IT-FC" data-name="Forlì-Cesena"/>
<path d="M 413.27 346.02 423.31 336.6 424.76 333.94 427.39 332.63 429.63 327.88 433.08 325.39 434.66 321.43 437.27 321.29 441.33 319.17 446.43 323.65 456.23 329.91 461.17 332.09 463.25 330.17 465.85 331.98 467.59 335.02 470.69 336.85 470.79 339.55 472.8 344.72 470.94 346.1 470.68 349.58 468.76 350 465.05 347.23 455.97 349.69 452.23 351.64 449.23 350.87 448.04 347.08 445.53 346.76 442.66 350.48 436.04 348.81 434.57 349.93 433.43 355.43 430.19 360.07 425.72 363.49 423.02 362.57 421.66 364.82 422.15 367.56 419.53 369.51 415.78 362.86 415.32 358.66 412.49 353.62 413.27 346.02 Z" id="IT-AN" data-name="Ancona"/>
<path d="M 419.53 369.51 422.15 367.56 421.66 364.82 423.02 362.57 425.72 363.49 430.19 360.07 433.43 355.43 434.57 349.93 436.04 348.81 442.66 350.48 445.53 346.76 448.04 347.08 449.23 350.87 452.23 351.64 455.97 349.69 465.05 347.23 468.76 350 470.68 349.58 470.94 346.1 472.8 344.72 479.36 361.59 469.72 363.83 469.76 368.17 464.6 369.61 464.04 371.95 459.77 374.22 458.55 379.24 460.23 381.5 460.19 385.66 457.54 387.33 454.39 384.2 452.47 384.93 444.04 394.01 445.66 398.29 444.49 402.34 440.63 404.46 432.73 395.93 429.13 395.99 423.65 391.76 422.48 387.75 422.45 380.4 421.1 377.8 418.58 376.27 419.87 372.31 419.53 369.51 Z" id="IT-MC" data-name="Macerata"/>
<path d="M 445.66 398.29 444.04 394.01 452.47 384.93 454.39 384.2 457.54 387.33 460.19 385.66 460.23 381.5 458.55 379.24 459.77 374.22 464.04 371.95 464.6 369.61 469.76 368.17 469.72 363.83 479.36 361.59 481.72 366.71 482.15 370.01 485.38 376.75 486.63 382.24 483.23 382.83 481.7 381.41 471.32 385.67 466.33 389.1 460.44 391.3 456.72 391.22 456.02 397.42 449.2 395.32 445.66 398.29 Z" id="IT-FM" data-name="Fermo"/>
<path d="M 444.49 402.34 445.66 398.29 449.2 395.32 456.02 397.42 456.72 391.22 460.44 391.3 466.33 389.1 471.32 385.67 481.7 381.41 483.23 382.83 486.63 382.24 487.43 387.74 490.11 397.42 484.19 398.73 477.2 401.21 475.12 405.14 467.32 406.49 464.99 406.01 462.29 411.79 459.18 413.19 458.25 415.66 452.07 416.94 450.34 414.06 447.41 411.75 442.49 412.66 443.09 410.36 446.14 409.63 446.63 406.47 444.49 402.34 Z" id="IT-AP" data-name="Ascoli Piceno"/>
<path d="M 452.07 416.94 458.25 415.66 459.18 413.19 462.29 411.79 464.99 406.01 467.32 406.49 475.12 405.14 477.2 401.21 484.19 398.73 490.11 397.42 492.73 406.85 496.52 415.96 500.68 422.66 501.49 425.02 506.57 431.14 501.73 429.86 500.07 431.08 496.08 430.33 493.57 431.37 492.36 433.93 489.65 433.14 487.87 435.16 484.72 434.44 480.73 441.26 478.93 439.65 468.62 438.39 465.07 439.09 463.72 436.66 460.21 434.62 457.43 431.31 454.64 424.57 455.34 420.87 453.03 419.76 452.07 416.94 Z" id="IT-TE" data-name="Teramo"/>
<path d="M 480.73 441.26 484.72 434.44 487.87 435.16 489.65 433.14 492.36 433.93 493.57 431.37 496.08 430.33 500.07 431.08 501.73 429.86 506.57 431.14 513.66 438.9 511.74 441.56 507.66 440.71 504.99 445.72 504.24 448.68 501.37 450.87 504.85 458.32 502.58 462.08 504.02 465.05 503.92 469.92 502.16 471.42 497.7 472.47 495.68 471.71 493.77 468.57 489.03 464.53 484.22 466.57 482.74 465.6 483.81 456.94 485.96 454.93 484.32 450.36 483.51 445.39 480.73 441.26 Z" id="IT-PE" data-name="Pescara"/>
<path d="M 502.16 471.42 503.92 469.92 504.02 465.05 502.58 462.08 504.85 458.32 501.37 450.87 504.24 448.68 504.99 445.72 507.66 440.71 511.74 441.56 513.66 438.9 522.39 445.53 525.18 450.18 533.96 458.87 540.21 462 542.9 462.51 544.47 464.8 546.05 471.61 547.57 472.21 546.29 478.07 541.55 482.9 539.87 486 535.06 492.23 530.9 498.48 529.28 499.38 527.09 500.3 525.44 493.91 521.38 490.62 518.79 491.02 515.39 487.68 511.81 490.28 509.46 488.59 504.29 489.19 501.93 484.71 502.98 483.76 501.9 478.77 503.29 472.95 502.16 471.42 Z" id="IT-CH" data-name="Chieti"/>
<path d="M 529.28 499.38 530.9 498.48 535.06 492.23 539.87 486 541.55 482.9 546.29 478.07 547.57 472.21 554.78 476.37 562.99 478.28 565.73 481.53 573.03 485.44 572.26 490.98 570.52 494.56 570.61 503.75 573.61 505.4 564.6 513.4 560.95 512.13 558.99 513.37 559.07 521.79 563.1 525.72 559.18 528.15 551.83 530.76 548.4 529.25 545.53 532.56 541.06 532.69 536.78 535.45 533.66 534 530.86 534.03 527.38 531 522.07 529.31 522.71 524.17 527.14 521.6 529.71 516.76 529.95 514.77 524.78 511.19 525.81 509.14 530.5 507.06 531.01 503.81 528.67 502.11 529.28 499.38 Z" id="IT-CB" data-name="Campobasso"/>
<path d="M 563.1 525.72 559.07 521.79 558.99 513.37 560.95 512.13 564.6 513.4 573.61 505.4 570.61 503.75 570.52 494.56 572.26 490.98 573.03 485.44 582.29 485.72 590.24 487.54 593.29 487.62 604.36 485.72 615.28 486.34 632.21 484.28 639.8 486.45 642.18 490.28 643.31 498.05 640.16 501.83 637.57 502.84 632.24 508.01 625.39 511.58 623.7 513.86 623.12 517.24 624.49 523.86 628.5 528.24 627.79 531.18 632.62 535.98 629.19 537.66 629.52 541.37 631.74 547.75 626.93 552.51 620.9 556.5 615.06 559.37 603.36 558.94 601.03 561 600.83 563.76 593.92 561.61 590.99 559.42 589.04 560 582.68 559.55 577.41 555.38 577.01 553.93 580 550.75 580.3 545.64 575.38 542.95 573.02 544.24 572.01 541.29 568.23 538.82 567.88 536.76 570.24 533.89 569.69 530.35 566.81 527.63 563.1 525.72 Z" id="IT-FG" data-name="Foggia"/>
<path d="M 620.9 556.5 626.93 552.51 631.74 547.75 629.52 541.37 629.19 537.66 632.62 535.98 627.79 531.18 628.5 528.24 631.84 530.57 636.09 531.92 638.04 533.69 650.58 539.49 661.22 545.3 666.84 547.75 663.91 555.16 661.64 554.48 659.37 552.05 656.78 551.93 652.85 555.02 652.1 559.37 648.31 565.57 647.36 571.11 643.56 576.51 641.44 575.5 638.37 577.15 629.56 573.1 632.49 567.15 627.27 561.07 623.72 559.67 620.9 556.5 Z" id="IT-BT" data-name="Barletta-Andria Trani"/>
<path d="M 643.56 576.51 647.36 571.11 648.31 565.57 652.1 559.37 652.85 555.02 656.78 551.93 659.37 552.05 661.64 554.48 663.91 555.16 666.84 547.75 670.17 550.26 686.02 555.66 689.68 557.64 701.2 561.39 710.97 566.79 715.88 570.41 720.67 576.45 723.64 578.08 720.52 580.49 718.66 583.47 719.1 585.65 723.96 587.58 723.65 590.31 721.06 590.92 719.14 591.45 714.62 589.47 711.33 589.61 708.42 591.06 707.43 594.01 701.63 593.37 699.02 593.79 698.28 590.31 694.46 590.68 692.22 595.13 688.13 593.32 684.37 595.51 683.05 592.36 678.32 593.85 676.91 592.24 671.99 590.04 668.53 590.86 663.73 590.1 659.53 594.36 656.94 594.07 653.19 590.6 646.83 583.05 643.56 576.51 Z" id="IT-BA" data-name="Bari"/>
<path d="M 721.06 590.92 723.65 590.31 723.96 587.58 719.1 585.65 718.66 583.47 720.52 580.49 723.64 578.08 729.26 583.7 734.1 586.2 739.87 587.7 747.49 591 753.89 595.73 761.39 597.82 761.33 599.9 764.81 599.56 767.24 603.86 766.85 607.83 770.97 611.27 768.91 613.61 766.34 614.63 760.56 618.82 753.94 620.79 750.85 623.45 749.67 622.2 745.21 621.1 741.39 617.3 738.41 616.01 735.4 618.58 729.87 613.95 727.63 608.99 728.51 604.65 726.27 601.27 724.92 596.48 721.58 592.63 721.06 590.92 Z" id="IT-BR" data-name="Brindisi"/>
<path d="M 750.85 623.45 753.94 620.79 760.56 618.82 766.34 614.63 768.91 613.61 770.97 611.27 778.52 615.95 784.65 621.66 787.37 625.9 789.16 627.04 793.63 633.26 799 646.73 796.73 651.9 793.42 654.75 791.9 658.57 790.64 664.05 791.14 667.33 790.06 672.96 786.47 673.88 783.24 671.28 778.5 670.75 769.14 664.45 764.84 657.94 765.4 653.55 762.17 651.71 764.54 650.21 764.16 646.18 759.39 641.29 758.5 634.36 754.14 631.31 748.54 631.01 750.85 623.45 Z" id="IT-LE" data-name="Lecce"/>
<path d="M 678.32 593.85 683.05 592.36 684.37 595.51 688.13 593.32 692.22 595.13 694.46 590.68 698.28 590.31 699.02 593.79 701.63 593.37 707.43 594.01 708.42 591.06 711.33 589.61 714.62 589.47 719.14 591.45 721.06 590.92 721.58 592.63 724.92 596.48 726.27 601.27 728.51 604.65 727.63 608.99 729.87 613.95 735.4 618.58 738.41 616.01 741.39 617.3 745.21 621.1 749.67 622.2 750.85 623.45 748.54 631.01 731.66 630.11 726.87 627.71 724.12 627.71 722.46 626.17 711.63 621.11 713.64 618.01 713.94 614.59 717.18 615.21 719.02 612.98 713.94 612.6 709.55 614.15 708.5 612.04 700.69 611.17 695.77 613.5 691.48 617.67 688.21 622.45 684.83 618.45 683.06 615.19 680.03 615.69 678.03 608.31 677.99 600.8 678.63 598.36 677.08 595.71 678.32 593.85 Z" id="IT-TA" data-name="Taranto"/>
<path d="M 646.83 583.05 653.19 590.6 656.94 594.07 659.53 594.36 663.73 590.1 668.53 590.86 671.99 590.04 676.91 592.24 678.32 593.85 677.08 595.71 678.63 598.36 677.99 600.8 678.03 608.31 680.03 615.69 683.06 615.19 684.83 618.45 688.21 622.45 682.82 630.3 679.79 638.25 675.9 643.94 673.26 646.33 667.83 645.63 665.71 646.1 658.36 645.41 657.1 651.86 655.95 651.03 654.21 646.4 656.79 642.92 653.9 638.6 655.49 629.57 652.56 629.86 651.78 632.18 646.05 633.5 643.67 632.86 642.16 630.54 640.63 623.96 637.6 620.22 639.53 617.68 636.81 610.27 638.37 605.57 633.93 601.19 634.16 599.06 640.16 595.59 640.39 593.23 638.24 589.03 638.53 586.72 646.83 583.05 Z" id="IT-MT" data-name="Matera"/>
<path d="M 657.1 651.86 658.36 645.41 665.71 646.1 667.83 645.63 673.26 646.33 670.9 649.33 670.37 652.63 672.69 659.67 669.86 663.72 666.71 666.73 663.33 673.7 664.02 678.79 665.79 681.02 664.93 683.79 666.96 686.29 672.24 689.38 680.61 689.84 685.05 692.36 687.07 695.7 691.07 697.69 694.22 700.34 698.65 702.07 695.97 704.7 694.99 708.6 690.76 708.88 690.22 711.7 687.81 713.39 679.5 712.48 677.85 714.5 680.31 717.46 681.67 724.89 680.38 727.1 673.46 725.97 671.46 726.74 669.55 728.94 666.52 730.2 663.78 730.09 662.96 732.19 662.6 737.93 659.2 738.64 656.08 735.24 651.28 733.98 647.91 734.53 641.21 738.12 636.88 739.16 635.95 737.02 632.67 713.68 630.08 705.58 625.91 699.08 621.52 694.72 619.45 687.01 617.43 683.28 616.24 674.47 614.97 671.55 615.79 668.2 613.37 663.31 615.43 659.75 620.9 656 623.93 657.99 627.17 656.34 628.84 658.41 631.89 658.32 631.42 661.23 635.01 664.87 643.61 664.19 647.99 661.77 653.52 662.61 656.09 657.3 657.1 651.86 Z" id="IT-CS" data-name="Cosenza"/>
<path d="M 671.46 726.74 673.46 725.97 680.38 727.1 681.67 724.89 680.31 717.46 677.85 714.5 679.5 712.48 687.81 713.39 690.22 711.7 690.76 708.88 694.99 708.6 695.97 704.7 698.65 702.07 701.2 705.33 705.69 708.16 708 708.4 705.56 714.28 705.25 721.41 707.13 725.32 705.56 733.07 705.71 735.67 708.91 743.06 708.91 746.91 705.92 749.64 702.1 750.15 698.84 751.6 696.12 748.91 690.15 749.57 690.76 746.95 688.96 742.2 684.83 738.8 679.5 738.16 675.75 735.33 674.66 730.65 671.46 726.74 Z" id="IT-KR" data-name="Crotene"/>
<path d="M 636.88 739.16 641.21 738.12 647.91 734.53 651.28 733.98 656.08 735.24 659.2 738.64 662.6 737.93 662.96 732.19 663.78 730.09 666.52 730.2 669.55 728.94 671.46 726.74 674.66 730.65 675.75 735.33 679.5 738.16 684.83 738.8 688.96 742.2 690.76 746.95 690.15 749.57 686.56 750.55 679.14 753.94 675.32 757.22 671.29 759.29 668.86 762 666.48 767.3 667.82 778.22 669.04 783.99 668.8 789.23 666.35 789.42 658.96 784.97 658.52 781.82 658.79 779.21 656.37 777.98 652.64 772.66 653.55 767.53 655.34 763.51 654.22 761.79 650 758.85 647.76 760.88 644.7 759.82 645.13 752.2 644.1 749.18 640.73 747.38 636.88 739.16 Z" id="IT-CZ" data-name="Catanzaro"/>
<path d="M 658.52 781.82 658.96 784.97 666.35 789.42 668.8 789.23 667.99 793.59 661.67 799.37 653.15 803.45 650.91 805.48 641.74 816.89 640.56 819.65 638.8 828.66 636.42 833.39 634.62 834.79 630.46 835.95 626.52 834.76 614.42 835.42 610.85 834.09 608.01 831.89 605.95 828.3 607.52 825.46 605.79 822.76 605.44 819.94 606.8 816.9 605.8 810.33 606.99 808.56 616.09 805.4 618.08 803.01 618.99 799.17 624.02 788.67 624.66 785.96 628.04 784.58 632.48 783.97 635.95 781.76 642.75 786.19 645.99 786.71 647.9 788.46 648.89 791.47 654.84 792.28 656.54 790.63 653.86 785.22 655.27 781.28 658.52 781.82 Z" id="IT-RC" data-name="Reggio Calabria"/>
<path d="M 644.7 759.82 647.76 760.88 650 758.85 654.22 761.79 655.34 763.51 653.55 767.53 652.64 772.66 656.37 777.98 658.79 779.21 658.52 781.82 655.27 781.28 653.86 785.22 656.54 790.63 654.84 792.28 648.89 791.47 647.9 788.46 645.99 786.71 642.75 786.19 635.95 781.76 632.48 783.97 628.04 784.58 624.66 785.96 624.77 782.13 623.7 779.74 619.37 775.46 619.98 772.7 624.02 771.07 630.57 767.12 638.49 767.5 642.4 765.16 644.7 759.82 Z" id="IT-VV" data-name="Vibo Valentia"/>
<path d="M 600.83 563.76 601.03 561 603.36 558.94 615.06 559.37 620.9 556.5 623.72 559.67 627.27 561.07 632.49 567.15 629.56 573.1 638.37 577.15 641.44 575.5 643.56 576.51 646.83 583.05 638.53 586.72 638.24 589.03 640.39 593.23 640.16 595.59 634.16 599.06 633.93 601.19 638.37 605.57 636.81 610.27 639.53 617.68 637.6 620.22 640.63 623.96 642.16 630.54 643.67 632.86 646.05 633.5 651.78 632.18 652.56 629.86 655.49 629.57 653.9 638.6 656.79 642.92 654.21 646.4 655.95 651.03 657.1 651.86 656.09 657.3 653.52 662.61 647.99 661.77 643.61 664.19 635.01 664.87 631.42 661.23 631.89 658.32 628.84 658.41 627.17 656.34 623.93 657.99 620.9 656 615.43 659.75 613.37 663.31 612.18 659.85 606.73 652.62 606.94 649.65 609.84 645.3 609.9 642.54 611.9 640.01 615.35 637.47 616.02 633.17 611.44 628.82 610.72 623.91 607.36 622.16 603.08 618.72 599.24 613.38 599.56 611.09 598.08 607.15 593.26 603.54 596.2 599.3 592.56 597.03 588.77 592.61 587.85 587.05 586.47 584.54 587.92 582.49 588.15 577.61 594.95 577.36 599.85 573.63 602.12 567.67 600.83 563.76 Z" id="IT-PZ" data-name="Potenza"/>
<path d="M 586.47 584.54 587.85 587.05 588.77 592.61 592.56 597.03 596.2 599.3 593.26 603.54 598.08 607.15 599.56 611.09 599.24 613.38 603.08 618.72 607.36 622.16 610.72 623.91 611.44 628.82 616.02 633.17 615.35 637.47 611.9 640.01 609.9 642.54 609.84 645.3 606.94 649.65 606.73 652.62 604.29 650.32 599.24 649.92 590.88 657.25 586.4 656.36 584.47 653.77 582.37 654.11 581.06 650.27 576.14 646.3 571.94 641.87 567.82 642.14 565.76 641.37 563.63 638.31 557.47 635.56 558.86 631.71 558.89 627.48 563.05 625.3 563.3 621.87 555.97 606.41 550.67 599.36 546.82 597.27 541.85 599.92 537.52 599.99 532.89 602.84 529.03 601.16 528.01 601.86 530.23 599.51 532.86 600.02 535.43 596.37 534.22 592.79 531.19 591.99 531.63 588.36 535.24 586.82 534.49 583.62 537 582.16 540.14 584.02 543.4 582.04 545.87 583.32 547.5 585.86 554.64 586.45 557.24 585.75 562.45 588.13 572.23 589.99 574.96 594.21 579.32 593.14 580.33 587.44 582.13 586.43 583.4 583.21 586.47 584.54 Z" id="IT-SA" data-name="Salerno"/>
<path d="M 537 582.16 534.49 583.62 535.24 586.82 531.63 588.36 531.19 591.99 534.22 592.79 535.43 596.37 532.86 600.02 530.23 599.51 528.01 601.86 524.71 602.67 520.27 605.48 519.06 601.88 521.87 601.05 526.19 596.45 528.35 595.64 528.2 592.59 520.99 588.13 516.14 582.94 511.42 583.6 510.07 586.26 502.87 583.38 499.94 583.05 499.42 579.8 497.12 574.26 505.84 570.51 507.24 572.93 514.72 573.35 516.1 569.34 517.53 568.22 528.16 570.29 530.9 569.94 532.03 567.47 534.75 567.81 535.46 573.72 540.3 575.63 540.23 578.06 536.25 577.22 535.17 579.75 537 582.16 Z M 492.73 595.07 489.08 595.73 486.34 593.86 487.25 589.7 494.15 592.11 492.73 595.07 Z" fill-rule="evenodd" id="IT-NA" data-name="Napoli"/>
<path d="M 522.07 529.31 527.38 531 530.86 534.03 526.8 536.28 526.27 537.9 529.13 541.35 526.61 543.04 524.6 547.04 527.26 552.88 524.66 555.27 521.79 554.08 520.85 556.41 524.78 558.72 524.7 563.27 526.39 564.57 530.99 564.69 532.03 567.47 530.9 569.94 528.16 570.29 517.53 568.22 516.1 569.34 514.72 573.35 507.24 572.93 505.84 570.51 497.12 574.26 494.12 568.97 490.95 566.55 490.46 562.91 486.51 555.57 482.41 550.36 479.27 547.53 483.37 546.1 484.55 543.7 487.53 541.48 487.91 538.82 488.09 533.62 487.04 531.34 493.88 526.74 495.41 527.6 499.07 533.54 503.75 533.71 502 528.17 504.54 524.51 511.34 524.58 522.07 529.31 Z" id="IT-CE" data-name="Caserta"/>
<path d="M 487.91 538.82 487.53 541.48 484.55 543.7 483.37 546.1 479.27 547.53 476.92 545.86 469.28 546.15 465.26 550.16 463.92 548.24 451.19 542.43 443.18 543.42 437.13 546.35 435.53 548.52 432.45 548.43 431.71 545.81 428.09 539.21 422.34 533.11 418.85 531.41 414.35 531.18 413.15 527.39 410.84 524.61 406.85 521.38 402.86 519.14 400 513.71 401.31 510.79 403.96 509.34 406.01 510.14 406.68 514.85 409.32 514.64 412.52 517.52 415.41 513.61 419.26 511.53 419.65 506.09 425.08 505.35 426.63 509.62 429.71 512.75 430.81 517.16 434.52 517.99 436.41 520.06 441.2 516.64 444.28 520.4 447.27 521.64 449.49 526.77 446.8 529.87 450.77 532.91 457.58 533.05 460.79 528.17 466.28 531.68 468.01 535.91 470.23 539.17 472.53 540.18 476.84 537.76 480.21 540.85 482.17 541.21 484.82 539.19 487.91 538.82 Z" id="IT-LT" data-name="Latina"/>
<path d="M 441.2 516.64 436.41 520.06 434.52 517.99 430.81 517.16 429.71 512.75 426.63 509.62 425.08 505.35 419.65 506.09 419.26 511.53 415.41 513.61 412.52 517.52 409.32 514.64 406.68 514.85 406.01 510.14 403.96 509.34 401.31 510.79 400 513.71 402.86 519.14 406.85 521.38 410.84 524.61 413.15 527.39 414.35 531.18 412.62 530.93 406.29 527.19 403.97 527.77 399.03 520.17 392.49 512.42 385.45 506 381.58 503.77 378.5 502.96 376.9 500.1 376.3 494.78 372.37 487.93 356.92 475.82 350.93 476.16 349.72 473.26 345.76 467.7 345.06 464.81 351.96 464.56 353.74 460.06 356.74 458.17 360.85 461.1 363.33 464.86 367.6 464.77 370.3 465.63 374.08 463.38 380.67 463.05 382.79 465.44 385.98 465.12 387.25 463.64 387.46 459.72 389.3 457.71 391.61 462.46 394.8 459.29 394.66 455.9 397.34 452.53 400.03 454.8 402.82 454.18 404.67 457.45 403.06 458.83 404.33 463.48 409.06 466.03 413.72 462.34 418.25 465.92 420.46 469.63 424.14 469.01 426.28 470.38 429.3 467.97 431.45 468.81 430.27 470.31 431.37 476.36 435.96 477.11 448.23 484.03 449.41 484.01 441.82 492.9 438.72 493.15 435 492.02 433.58 494.24 429.96 495.9 429.31 498.61 430.71 501.46 434.76 504.34 435.81 507.59 439.32 510.4 439.97 516.19 441.2 516.64 Z" id="IT-RM" data-name="Roma"/>
<path d="M 397.34 452.53 394.66 455.9 394.8 459.29 391.61 462.46 389.3 457.71 387.46 459.72 387.25 463.64 385.98 465.12 382.79 465.44 380.67 463.05 374.08 463.38 370.3 465.63 367.6 464.77 363.33 464.86 360.85 461.1 356.74 458.17 353.74 460.06 351.96 464.56 345.06 464.81 341.2 456.47 339.6 454.01 331.62 447.72 325.75 445.41 327.12 441.4 328.88 439.99 335.04 439.28 336.22 435.16 333.77 433.01 334.91 428 337.07 428.54 340.46 427.01 344.75 423.45 346.15 420.87 348.22 420.25 348.21 415.78 349.62 412.32 345.56 406.83 346.73 404.98 349.63 405.47 351.28 403.72 355.05 402.09 358.01 407.51 360.74 410.71 357.82 414.98 359.78 417.21 364.74 420.73 372.97 418.05 378.28 420.59 378.93 426.23 380.67 428 381.26 433.06 382.63 434.92 385.45 434.74 388.85 437.41 390.4 440.29 392.73 441.18 393.64 444.27 392.94 447.36 395.37 452.3 397.34 452.53 Z" id="IT-VT" data-name="Viterbo"/>
<path d="M 345.56 406.83 349.62 412.32 348.21 415.78 348.22 420.25 346.15 420.87 344.75 423.45 340.46 427.01 337.07 428.54 334.91 428 333.77 433.01 336.22 435.16 335.04 439.28 328.88 439.99 327.12 441.4 325.75 445.41 320.74 442.46 317.82 443.03 312.86 441.19 309.66 441.37 307.21 445.86 305.96 446.14 301.84 442.83 301.34 440.41 303.08 438.88 306.51 439.47 308.13 435.8 308.03 432.12 306.13 428.19 304.13 428.73 300.72 421.98 295.89 418.74 294.84 414.88 291.74 411.89 288.2 409.99 277.52 406.29 279.77 403.47 280.62 398.04 278.82 395.25 275.76 393.82 277.79 390.43 278.62 386.89 281.15 388.68 281.3 383.31 277.05 381.49 276.58 378.47 277.92 375.06 280.57 375.45 282.17 373.76 284.92 374.43 289.59 373.51 295.67 372.01 299.5 372.22 299.54 377.21 300.93 380.35 306.07 381.05 310.01 379.93 315.37 381.15 319.69 380.78 319.55 388.45 322.09 391.45 325.61 392.62 329.53 390.23 333.56 391.19 336.49 393.18 337.03 399.26 338.29 403.85 338.04 406.72 345.56 406.83 Z M 288.54 444.29 291.48 449.37 290.38 450.45 286.26 446.14 288.54 444.29 Z" fill-rule="evenodd" id="IT-GR" data-name="Grosseto"/>
<path d="M 276.58 378.47 277.05 381.49 281.3 383.31 281.15 388.68 278.62 386.89 277.79 390.43 275.76 393.82 270.9 392.21 267.6 392.1 261.99 393.86 260.52 389.32 263.17 386.22 264.64 381.14 265.14 374.92 264.23 367.66 263.16 363.93 257.81 352.72 252.59 345.65 249.78 343.12 248.19 335.13 259.85 329.84 261.83 332.43 260.09 337.83 261.75 345.92 261.54 351.63 262.16 353.85 264.56 355.45 264.79 359.19 268.69 361.88 273.97 359.99 275.15 362.55 273.34 365.15 274.48 368.79 271.74 370.76 271.79 373.91 276.15 376.85 276.58 378.47 Z M 258.23 402.54 257.78 406.29 255.86 410.59 257.38 413.8 254.08 413.76 251.17 409.9 243.92 412.58 238.4 412.41 235.69 410.58 236.01 406.58 239.13 405.12 246.34 406.29 246.76 404.2 250.43 404.3 252.29 405.95 255.32 400.41 258.23 402.54 Z M 217.83 382.44 218.81 384.36 216.68 387.64 214.11 385.81 215.61 382.33 217.83 382.44 Z" fill-rule="evenodd" id="IT-LI" data-name="Livorno"/>
<path d="M 289.59 373.51 284.92 374.43 282.17 373.76 280.57 375.45 277.92 375.06 276.58 378.47 276.15 376.85 271.79 373.91 271.74 370.76 274.48 368.79 273.34 365.15 275.15 362.55 273.97 359.99 268.69 361.88 264.79 359.19 264.56 355.45 262.16 353.85 261.54 351.63 261.75 345.92 260.09 337.83 261.83 332.43 259.85 329.84 248.19 335.13 246.07 313.18 248.93 312.56 253.44 313.31 256.71 312.38 258.17 313.82 258.35 317.07 260.65 318.8 268.97 318.62 272.3 314.42 276.16 315.94 277.29 318.09 281.67 322.15 286.53 321.13 289.3 325.79 289.52 328.46 288.1 330.62 284.05 331.1 284.48 339.56 286.17 345.03 292.31 346.85 295.83 353.21 295.39 356.53 292.52 358.54 292.94 361.08 295.14 363.69 294.77 366.4 290.78 367.12 291.1 369.83 289.59 373.51 Z" id="IT-PI" data-name="Pisa"/>
<path d="M 276.16 315.94 272.3 314.42 268.97 318.62 260.65 318.8 258.35 317.07 258.17 313.82 256.71 312.38 253.44 313.31 248.93 312.56 246.07 313.18 242.61 303.51 240.64 300.25 238.13 298.41 242.99 292.37 244.08 288.32 242.85 285.03 240.96 283.42 241.79 280.39 241.43 276.37 244.04 274.75 245.54 270.84 247.81 269.74 252.04 270.44 255.34 274.09 260.1 275.14 260.95 278.67 266.74 284.38 269.43 284.38 275.56 287.34 277.82 293.1 273.32 298.43 272.26 308.22 275.95 310.08 277.28 313.37 276.16 315.94 Z" id="IT-LU" data-name="Lucca"/>
<path d="M 245.54 270.84 244.04 274.75 241.43 276.37 241.79 280.39 240.96 283.42 242.85 285.03 244.08 288.32 242.99 292.37 238.13 298.41 235.62 294.53 230.44 291.5 232.35 287.29 228.17 285.35 227.3 282.1 225.46 280.77 221.63 280.35 221.99 277.45 219.12 276.52 218.63 272.53 211.92 267.57 207.76 262.7 211.37 260.07 217.53 251.58 219.58 250.95 224.22 252.13 227.86 254.22 227.95 258.11 233.4 263.21 237.63 264.18 241.89 266.38 245.54 270.84 Z" id="IT-MS" data-name="Massa-Carrara"/>
<path d="M 207.76 262.7 211.92 267.57 218.63 272.53 219.12 276.52 221.99 277.45 221.63 280.35 225.46 280.77 227.3 282.1 228.17 285.35 232.35 287.29 230.44 291.5 227.77 290.53 226.04 291.93 218.14 285.97 213.25 288.69 206.6 282.97 203.16 282.27 199.94 278.23 195.8 276.02 199.22 269.64 195.28 265.48 196.26 262.93 194.03 260.67 193.47 257.56 195.43 256.12 201.65 256.18 205.19 258.15 207.76 262.7 Z" id="IT-SP" data-name="La Spezia"/>
<path d="M 193.47 257.56 194.03 260.67 196.26 262.93 195.28 265.48 199.22 269.64 195.8 276.02 194 273.34 190.81 273.75 186.64 270.73 186.19 268.61 177.01 263.07 175.67 267.59 172.61 266.38 170.27 262.16 168.4 261.17 161.64 259.92 156.45 257.64 151.2 257.46 149.97 256.06 145.65 255.72 143.13 256.48 140.03 259.23 136.82 260.42 133.94 256.42 139.34 253.54 138.17 250.41 134.75 250.18 132.37 247.82 134.86 244.72 135.64 241.13 143.12 241.96 146.57 249.05 150.39 243.62 154.21 243.77 155.48 242.39 155 238.28 153.39 236.19 156.41 232.16 158.83 232.18 164.31 236.93 167.53 238.14 169.32 240.95 171.51 241.73 175.17 238.66 181.78 239.39 185.12 241.54 189.3 240.51 194.47 244.55 194.62 248.25 191.76 252.28 190.77 256.86 193.47 257.56 Z" id="IT-GE" data-name="Genova"/>
<path d="M 103.31 301.64 100.82 298.05 96.65 297.27 94.06 294.1 97.17 289.83 94.73 285.05 93.36 282.87 95.03 280.75 97.28 281.38 99.78 278.76 99.24 275.04 99.38 267.02 103.65 263.39 105.91 258.39 108.37 256.63 107.6 252.21 109.38 247.65 111.31 246.1 112.36 247.31 118.67 251.14 120.7 248.71 126.49 247.65 132.37 247.82 134.75 250.18 138.17 250.41 139.34 253.54 133.94 256.42 136.82 260.42 125.8 267.69 124.7 271.43 122.17 274.92 121.92 278.05 115.58 281.13 111.76 284.13 110.2 286.44 109.07 291.88 104.81 297.65 105.83 300.14 103.31 301.64 Z" id="IT-SV" data-name="Savona"/>
<path d="M 362.46 927.22 365.94 931.04 364.54 935.13 362.23 934.83 358.29 931.17 357.28 927.86 358.88 926.74 362.46 927.22 Z M 422.36 865.23 414.79 865.15 409.22 866.12 405.1 864.48 402.32 859.77 400.23 858.09 397.56 858.04 395.24 855.98 393.63 852.84 393.05 849.46 391.09 846.3 393.33 844.43 394.55 839.16 393.57 836.47 395.34 832.98 396.26 828.12 401.09 822.98 403.24 823.77 406.13 821.29 406.86 819.18 409.68 819.65 411.07 818.36 410.7 814.14 413.45 813.68 415.45 819.12 417.3 822.45 422.84 826.69 427.86 825.32 429.58 829.28 432.69 832.98 432.26 835.16 428.89 837.62 425.34 837.22 425.87 842.37 427.32 844.01 431.55 844.89 434.95 844.3 435.39 848.56 431.3 851.07 428.35 851.47 423.18 855.45 423.66 859.09 422.36 865.23 Z" fill-rule="evenodd" id="IT-TP" data-name="Trapani"/>
<path d="M 508.47 826.89 514.74 827.79 522.2 826.56 525.37 824.88 527.53 825.91 530.71 825.3 538.94 822.14 541.16 820.64 545.58 815.66 549.89 815.43 557.19 813.1 560.94 815.17 566.7 816.16 569.3 818.17 575.3 815.78 579.85 810.59 582.96 811.46 590.18 809.28 595.09 806.27 597.77 803.73 600.87 803.52 607.06 805.64 602.51 808.61 601.99 812.04 598.71 817.44 596.93 821.85 589.71 831.1 580.83 845.39 575.94 839.81 573.06 837.73 569.91 837.22 564.8 838.34 562.04 838.19 558.66 832.76 554.93 834.76 552.09 832.2 547.41 835.03 547.44 837.16 545.39 840.14 549.07 841.32 549.97 843.05 548.66 845.2 546.15 844.5 541.43 846.09 536.82 845.34 534.26 843.17 534.54 839.66 532.31 840.17 529.84 842.46 529.18 845.59 527.37 845.67 526.42 842.35 523.82 840.87 516.84 842.94 515.19 842.64 514.47 839.23 514.95 835.8 512.44 833.51 508.47 826.89 Z M 561.16 792.17 563.91 796.9 562.53 798.06 559.95 795.29 561.16 792.17 Z M 557.24 788.67 557.37 785.13 560.59 784.55 559.98 790.64 557.24 788.67 Z M 554.26 782.24 551.63 782 551.02 779.26 553.46 779.17 554.26 782.24 Z" fill-rule="evenodd" id="IT-ME" data-name="Messina"/>
<path d="M 431.3 851.07 435.39 848.56 434.95 844.3 431.55 844.89 427.32 844.01 425.87 842.37 425.34 837.22 428.89 837.62 432.26 835.16 432.69 832.98 429.58 829.28 427.86 825.32 431.3 823.77 434.13 821.32 433.13 817.01 436.22 812.9 443.34 814.09 446.5 811.84 450.24 810.39 454.37 814.37 455.68 820.3 463.86 819.67 465.72 821.08 466.13 824.29 473.07 828.99 478.14 830.7 482.43 831.31 489.63 828.69 492.32 826.62 496.92 825.82 497.81 824.88 503.56 827.25 508.47 826.89 512.44 833.51 514.95 835.8 514.47 839.23 515.19 842.64 513.94 847.04 516 849.65 514.18 854.26 508.08 856.93 505.48 861.56 502.11 859.35 498.93 860.52 497.54 862.82 494.75 864.39 490.18 862.39 488.51 856.58 485.48 854.97 483.8 852.23 481.26 852.36 478.52 855.95 475.68 854.7 472.6 858.32 469.62 859.25 459.26 858.94 455.35 861.97 456.22 866.62 453.33 868.1 451.3 863.29 452.76 859.46 449.52 859.41 444.71 860.53 442.97 856.67 438.44 854.61 434.5 854.86 431.3 851.07 Z M 497.76 856.56 499.85 856.51 502.33 854.37 499.13 852.87 497.76 856.56 Z" fill-rule="evenodd" id="IT-PA" data-name="Palermo"/>
<path d="M 422.36 865.23 423.66 859.09 423.18 855.45 428.35 851.47 431.3 851.07 434.5 854.86 438.44 854.61 442.97 856.67 444.71 860.53 449.52 859.41 452.76 859.46 451.3 863.29 453.33 868.1 456.22 866.62 455.35 861.97 459.26 858.94 469.62 859.25 472.6 858.32 475.68 854.7 478.52 855.95 481.8 856.62 484.4 860.43 483.35 861.98 478.56 864.22 475.1 863.49 474.29 865.25 475.78 868.27 475.37 871.52 472.56 873.48 478.92 877.11 485.64 876.8 487.15 879.53 490.25 881.04 488.54 883.2 491.57 885.72 493.41 885.55 497.75 890.15 495.81 897.67 498.17 900.75 499.07 903.88 494.86 904.23 492.32 905.43 489.37 905.02 485.23 901.77 479.81 900.14 475.24 897.59 469.57 891.92 467.59 890.51 459.78 888.38 454.4 884.39 448.08 880.38 446.43 877.17 441.12 872.52 432.92 871.36 431.23 871.99 427.73 866.57 422.36 865.23 Z" id="IT-AG" data-name="Agrigento"/>
<path d="M 478.52 855.95 481.26 852.36 483.8 852.23 485.48 854.97 488.51 856.58 490.18 862.39 494.75 864.39 497.54 862.82 498.93 860.52 502.11 859.35 505.48 861.56 506.93 863.81 505.59 865.18 505.04 868.97 505.98 872.81 501.6 877.4 501.45 881.98 502.47 884.4 507.82 886.15 512.69 884.57 514.35 884.85 517.83 887.94 520.05 887.77 522.09 893.47 522.48 898.04 525.73 899.06 528.08 902.22 525.39 906.19 526.18 909.05 520 913.27 518.85 913.43 515.11 909.79 510.41 906.68 504.9 904.06 499.07 903.88 498.17 900.75 495.81 897.67 497.75 890.15 493.41 885.55 491.57 885.72 488.54 883.2 490.25 881.04 487.15 879.53 485.64 876.8 478.92 877.11 472.56 873.48 475.37 871.52 475.78 868.27 474.29 865.25 475.1 863.49 478.56 864.22 483.35 861.98 484.4 860.43 481.8 856.62 478.52 855.95 Z M 497.76 856.56 499.13 852.87 502.33 854.37 499.85 856.51 497.76 856.56 Z" fill-rule="evenodd" id="IT-CL" data-name="Caltanissetta"/>
<path d="M 518.85 913.43 520 913.27 526.18 909.05 531.21 907.55 534.67 908.79 543.62 903.14 545.72 904.77 549.6 902.41 552.38 910 556.84 914.27 558.33 918.6 557.18 919.28 553.24 915.71 552.82 918.23 554 920.41 558.64 923.4 557.94 925.98 553.52 925.06 554.21 928.22 561.42 930.66 563.12 933.1 563.44 938.39 562.24 939.52 555.52 936.03 553.16 936.39 548.73 938.64 546.29 936.99 542.29 936.41 540.57 934.09 536.63 932.56 529.08 930.78 528.3 929.82 522.87 918.09 518.85 913.43 Z" id="IT-RG" data-name="Ragusa"/>
<path d="M 563.44 938.39 563.12 933.1 561.42 930.66 554.21 928.22 553.52 925.06 557.94 925.98 558.64 923.4 554 920.41 552.82 918.23 553.24 915.71 557.18 919.28 558.33 918.6 556.84 914.27 552.38 910 549.6 902.41 552.62 902.66 554.37 898.82 549.04 896 550.18 892.57 553.86 890.71 554.53 887.02 550.52 886.85 549.21 885.46 552.03 883.39 553.45 881.04 556.79 878.99 559.8 879.66 562.17 882.08 565.53 881.75 569.61 883.33 570.83 886.44 575.47 889.06 577.98 889.54 580.29 891.84 577.87 892.93 575.7 896.06 576.45 898.68 578.77 900.92 579.93 903.56 583.73 904.99 583.69 908.24 585.48 911.16 581.37 913.45 579.79 915.82 575.11 918.17 574.02 919.83 569.71 930.27 572.45 939.62 571.09 941.94 568.34 942 566.14 939.62 563.44 938.39 Z" id="IT-SR" data-name="Siracusa"/>
<path d="M 546.15 844.5 548.66 845.2 549.97 843.05 549.07 841.32 545.39 840.14 547.44 837.16 547.41 835.03 552.09 832.2 554.93 834.76 558.66 832.76 562.04 838.19 564.8 838.34 569.91 837.22 573.06 837.73 575.94 839.81 580.83 845.39 577.25 850.47 578.06 852.98 574.39 865.7 569.89 871.89 569.41 874.84 569.61 883.33 565.53 881.75 562.17 882.08 559.8 879.66 556.79 878.99 553.45 881.04 552.03 883.39 549.21 885.46 550.52 886.85 554.53 887.02 553.86 890.71 550.18 892.57 549.04 896 554.37 898.82 552.62 902.66 549.6 902.41 545.72 904.77 543.62 903.14 534.67 908.79 531.21 907.55 526.18 909.05 525.39 906.19 528.08 902.22 525.73 899.06 522.48 898.04 522.09 893.47 520.05 887.77 523.56 888.83 527.06 884.83 529.4 887.2 531.71 883.15 534.67 883.08 535.44 879.84 538.55 878.07 535.21 875.53 531.47 875.24 530.69 871.18 532.8 867.83 538.39 868.03 542.67 866.7 548.15 871.22 549.95 868.29 550.21 865.01 552.41 863.26 551.22 859.76 549.48 857.92 549.87 853.44 546.4 855.62 544.32 854.73 545.38 850.39 544.38 848.15 546.15 844.5 Z" id="IT-CT" data-name="Catania"/>
<path d="M 125.12 737.16 125.35 739.21 123.85 746.33 122.03 746.79 117.98 738.15 118.72 733.32 120.43 734.45 124.36 734.65 125.12 737.16 Z M 115.07 726.83 115.48 733.13 114.01 734.98 109.63 729.96 111.01 727.89 115.07 726.83 Z M 135.46 747.39 133.44 746.91 132.06 738.62 128.37 738.08 125.73 733.2 123.92 732.42 123.74 729.19 121.71 728.46 119.48 723.6 123.15 719.05 122.53 714.22 119.64 710.77 121.47 707.86 121.24 704.91 122.29 703.39 127.31 701.95 130.12 702.05 131.64 704.22 135.1 706.72 138.53 710.81 141.42 711.12 142.62 718.24 144.36 720.46 145.19 725.73 146.64 728.32 148.83 729.16 149.59 732.75 151.45 735.97 149.12 739.46 144.45 739.23 141.84 740.91 138.63 740.44 137.86 743.59 135.46 747.39 Z" fill-rule="evenodd" id="IT-CI" data-name="Carbonia-Iglesias"/>
<path d="M 112.99 563.57 111.4 564.77 111.09 569.22 108.63 569.03 109.53 565.67 113.05 562.46 113.19 559.27 116.41 558.14 117.49 559.97 116.84 562.91 112.99 563.57 Z M 120.85 620.57 120.03 615.61 116.8 611.91 115.48 605.97 112.49 604.56 109.07 606.63 105.71 605.24 104 601.82 107 599.05 107.45 595.73 103.55 592.66 108.63 580.58 108.63 576.24 106.56 575.02 108.12 570.85 110.4 572.66 110.2 576.62 113.19 580.58 115.36 581.89 129.45 583.99 134.66 581.68 137.51 577.83 142.08 575.69 145.78 576.3 148.92 573.9 154.44 574.33 157.24 572.46 159.32 572.84 160.55 575.81 158.26 578.58 155.07 578.66 155.99 581.76 159.81 581.64 161.12 582.67 163.29 587.88 162.83 597.14 169.45 599.91 172.26 598.55 173.77 599.86 174.66 604.19 174.25 609.61 175.75 612.62 178.87 612.39 180.35 614.1 178.3 616.01 176.48 620.81 173.84 624.19 165.52 627.58 163.43 629.97 161.58 628.95 157.63 624.05 149.24 621.14 148.54 624.93 142.16 626.81 139.49 629.54 136.13 628.79 130.06 620.6 127.61 619.74 123.43 621.99 120.85 620.57 Z" fill-rule="evenodd" id="IT-SS" data-name="Sassari"/>
<path d="M 136.13 628.79 139.49 629.54 142.16 626.81 148.54 624.93 149.24 621.14 157.63 624.05 161.58 628.95 163.43 629.97 165.52 627.58 173.84 624.19 176.48 620.81 178.3 616.01 180.35 614.1 178.87 612.39 175.75 612.62 174.25 609.61 182.93 608.43 187.74 604.45 189.96 599.31 195.3 599.76 200.03 596.11 204.28 595.6 205.95 597.65 210.35 597.57 211.71 598.71 212.01 603.57 216.93 611.12 215.73 615.42 211.75 623.65 209.27 624.6 207.31 628.31 204.79 630.78 203.5 633.68 203.57 637.06 200.22 639.44 197.25 637.79 193.81 641.83 190.17 647.73 184.18 650.81 181.67 652.99 182.86 657.97 180.57 660.39 180.34 663.94 175.79 664.57 174.69 666.18 174.89 671.66 172.23 671.6 172.16 668.67 161.77 663.93 160.77 662.65 162.32 658.41 158.74 656.91 158.64 654.17 160.58 652.13 163.35 653.44 164.48 650.62 162.91 646.54 161.62 639.24 159.2 637.87 146.01 639.39 139.57 637.23 138.92 634.39 136.62 633.27 136.13 628.79 Z" id="IT-NU" data-name="Nuoro"/>
<path d="M 174.25 609.61 174.66 604.19 173.77 599.86 172.26 598.55 169.45 599.91 162.83 597.14 163.29 587.88 161.12 582.67 159.81 581.64 155.99 581.76 155.07 578.66 158.26 578.58 160.55 575.81 159.32 572.84 157.24 572.46 154.44 574.33 148.92 573.9 150.82 572.06 153.6 566.55 155.74 565.75 163.22 557.21 167.79 556.64 172.11 553.65 173.02 547.06 177.01 545.3 179.51 547.62 180.67 551.32 184.01 549.84 187.56 552.6 192.4 557.95 192.98 555.67 198.14 557.91 196.47 565.84 197.94 565.38 200.91 569.03 198.9 574.75 199.95 576.95 207.31 580.58 208.4 581.94 205.88 585.57 208.71 589.96 211.71 598.71 210.35 597.57 205.95 597.65 204.28 595.6 200.03 596.11 195.3 599.76 189.96 599.31 187.74 604.45 182.93 608.43 174.25 609.61 Z M 190.42 548.67 188.03 549.94 186.55 548.22 189.82 545.46 190.42 548.67 Z" fill-rule="evenodd" id="IT-OT" data-name="Olbia-Tempio"/>
<path d="M 120.85 620.57 123.43 621.99 127.61 619.74 130.06 620.6 136.13 628.79 136.62 633.27 138.92 634.39 139.57 637.23 146.01 639.39 159.2 637.87 161.62 639.24 162.91 646.54 164.48 650.62 163.35 653.44 160.58 652.13 158.64 654.17 158.74 656.91 162.32 658.41 160.77 662.65 161.77 663.93 172.16 668.67 172.23 671.6 168.34 671.41 165.77 672.74 161.78 677.62 160.28 676.18 157.07 676.01 154.37 682.13 151.1 685.72 144.93 688.77 139.93 688.63 136.59 686.38 135.29 684.09 131.32 683.07 128.37 681.02 130.45 676.72 131.77 669.58 131.1 667.33 127.68 664.37 123.74 665.54 121.26 664.99 120.94 658.74 121.85 654.78 121.47 652.36 125.37 651.71 127.4 647.58 125.88 644.06 125.37 637.81 126.49 633.76 125.59 629.16 120.44 625.89 120.85 620.57 Z" id="IT-OR" data-name="Oristrano"/>
<path d="M 141.42 711.12 138.53 710.81 135.1 706.72 131.64 704.22 130.12 702.05 127.31 701.95 122.29 703.39 121.24 704.91 120.5 702.89 123.74 698.08 125.62 693.6 124.7 686.47 124.32 677.92 125.97 678.1 129.21 682.7 131.32 683.07 135.29 684.09 136.59 686.38 139.93 688.63 144.93 688.77 151.1 685.72 154.37 682.13 157.07 676.01 160.28 676.18 161.78 677.62 165.43 678.28 165.58 680.82 164.39 688.15 161.27 696.25 162.21 698.56 161.86 702.23 159.42 704.02 160.11 707.03 156.87 708.98 146.97 708.62 141.42 711.12 Z" id="IT-VS" data-name="Medio Campidano"/>
<path d="M 135.46 747.39 137.86 743.59 138.63 740.44 141.84 740.91 144.45 739.23 149.12 739.46 151.45 735.97 149.59 732.75 148.83 729.16 146.64 728.32 145.19 725.73 144.36 720.46 142.62 718.24 141.42 711.12 146.97 708.62 156.87 708.98 160.11 707.03 159.42 704.02 161.86 702.23 162.21 698.56 161.27 696.25 164.39 688.15 165.58 680.82 165.43 678.28 161.78 677.62 165.77 672.74 168.34 671.41 172.23 671.6 174.89 671.66 174.69 666.18 175.79 664.57 180.34 663.94 179.84 669.75 182.22 674.34 185.3 676.31 186.95 680.71 184.94 682.36 185.57 684.43 188.48 684.68 188.31 687.25 194.62 689.65 198.47 693.71 201.48 693.94 204.85 696.01 203.65 700.11 204.75 701.66 202.69 709 201.98 715.33 204.06 717.33 200.53 720.52 199.57 722.95 200.4 727.36 198.92 731.45 196.57 732.73 193.76 731.81 191.72 732.78 188.93 730.9 184.67 726.56 178.47 724.07 174.78 724.42 172.68 727.36 170.73 726.74 166.45 722.05 164.16 720.87 162.97 722.75 166.85 725.18 164.14 728.06 162.79 730.9 162.81 734.54 164.57 739.09 162.79 743.91 154.51 751.92 150.94 753.79 148.53 751.6 142.58 749.31 137.64 752.98 134.76 752.2 135.46 747.39 Z" id="IT-CA" data-name="Cagliari"/>
<path d="M 180.34 663.94 180.57 660.39 182.86 657.97 181.67 652.99 184.18 650.81 190.17 647.73 193.81 641.83 197.25 637.79 200.22 639.44 203.57 637.06 205.4 644.07 210.6 649.38 208 657.34 208.22 663.75 207.39 665.96 208.22 669.65 206.81 672.53 206.35 676.85 206.85 681.31 205.02 688.2 205.48 692.06 204.85 696.01 201.48 693.94 198.47 693.71 194.62 689.65 188.31 687.25 188.48 684.68 185.57 684.43 184.94 682.36 186.95 680.71 185.3 676.31 182.22 674.34 179.84 669.75 180.34 663.94 Z" id="IT-OG" data-name="Ogliastra"/>
<path d="M 515.19 842.64 516.84 842.94 523.82 840.87 526.42 842.35 527.37 845.67 529.18 845.59 529.84 842.46 532.31 840.17 534.54 839.66 534.26 843.17 536.82 845.34 541.43 846.09 546.15 844.5 544.38 848.15 545.38 850.39 544.32 854.73 546.4 855.62 549.87 853.44 549.48 857.92 551.22 859.76 552.41 863.26 550.21 865.01 549.95 868.29 548.15 871.22 542.67 866.7 538.39 868.03 532.8 867.83 530.69 871.18 531.47 875.24 535.21 875.53 538.55 878.07 535.44 879.84 534.67 883.08 531.71 883.15 529.4 887.2 527.06 884.83 523.56 888.83 520.05 887.77 517.83 887.94 514.35 884.85 512.69 884.57 507.82 886.15 502.47 884.4 501.45 881.98 501.6 877.4 505.98 872.81 505.04 868.97 505.59 865.18 506.93 863.81 505.48 861.56 508.08 856.93 514.18 854.26 516 849.65 513.94 847.04 515.19 842.64 Z" id="IT-EN" data-name="Enna"/>
<path d="M 530.86 534.03 533.66 534 536.78 535.45 541.06 532.69 545.53 532.56 548.4 529.25 551.83 530.76 559.18 528.15 563.1 525.72 566.81 527.63 569.69 530.35 570.24 533.89 567.88 536.76 568.23 538.82 572.01 541.29 573.02 544.24 570.39 546.6 567.9 545.21 562.85 544.47 562.28 547.32 563.29 550.35 561.12 553.05 563.06 556.1 562.99 559.2 552.36 565.24 548.43 563.93 548.21 566.12 545.34 566.45 543.78 563.46 539.72 564.37 536.6 564.12 534.75 567.81 532.03 567.47 530.99 564.69 526.39 564.57 524.7 563.27 524.78 558.72 520.85 556.41 521.79 554.08 524.66 555.27 527.26 552.88 524.6 547.04 526.61 543.04 529.13 541.35 526.27 537.9 526.8 536.28 530.86 534.03 Z" id="IT-BN" data-name="Benevento"/>
<path d="M 111.31 246.1 110.77 242.09 107.81 236.87 110.11 232.18 112.37 230.27 107.39 225.93 104.83 229.36 103.15 226.23 100.77 225.32 103.35 220.88 100.66 219.31 96.19 220.56 92.85 216.33 90.79 216.74 87.27 211.68 88.03 205.43 89.86 203.48 90.49 197.51 87.87 196.47 87.45 193.64 93.85 190.29 96.52 189.62 98.79 192.84 101.05 190.28 103.23 190.54 101.98 192.84 104.13 197.52 107.46 198.54 114.89 195.36 117.26 198.07 118.14 202.4 120.6 205.67 118.84 210.55 119.52 215.07 122.88 219.29 127.93 221.61 128 224.18 122.85 227.38 121.95 231.27 117.78 231.5 117.99 236.95 115.98 238.66 116.64 243.78 114.33 243.65 112.36 247.31 111.31 246.1 Z" id="IT-AT" data-name="Asti"/>
<path d="M 196.85 105.56 200.35 104.53 203.48 101.69 211.77 100.63 219.95 102.41 223.66 100.62 235.03 97.89 235.89 101.49 239.89 101.16 243.55 101.9 246.04 105.01 242.24 106.28 240.06 109.11 236.47 111.17 235.01 116.15 237.43 119.84 234.28 124.02 232.71 127.43 233.39 133.98 230.96 136.97 223.77 138.81 218.94 147.02 219.15 150.89 221.1 158.21 221.27 161.64 216.4 158.9 215.63 161.8 209.39 156.33 206.73 160.67 203.31 158.05 199.39 158.64 195.73 153.49 197.32 149.02 196.86 144.66 194.81 140.75 193.89 138.21 192.09 135.51 191.55 130.71 195.56 126.9 192.9 121.92 195.94 117.97 197.73 111.9 195.23 109.54 194.48 105.54 196.85 105.56 Z" id="IT-BG" data-name="Bergamo"/>
<path d="M 239.89 101.16 240.46 99.29 238.84 93.65 240.49 89.95 248.03 85.28 249.83 79.85 253.12 78.33 258.4 73 263.89 73.53 267.23 76.43 268.07 84.11 266.53 87.97 265.95 95.27 263.04 98.75 259.37 108.43 261.73 109.62 263.33 114.68 262.51 118.46 263.56 121.93 265.98 123.56 267.33 126.41 273.1 124.8 273.89 122.14 277.34 121.21 282.95 121.58 285.12 122.63 280.97 130.1 271.68 144.16 271.44 148.62 272.1 154.83 271.6 159.61 272.86 162.37 269.8 165.91 266.21 165.89 262.42 163.33 258.99 165.23 259.56 171 257.68 172.21 255.12 178.11 249.82 182.78 246.5 178.54 243.36 180.19 235.92 177.58 233.73 175.78 229.09 174.15 221.94 168.89 220.87 167 221.27 161.64 221.1 158.21 219.15 150.89 218.94 147.02 223.77 138.81 230.96 136.97 233.39 133.98 232.71 127.43 234.28 124.02 237.43 119.84 235.01 116.15 236.47 111.17 240.06 109.11 242.24 106.28 246.04 105.01 243.55 101.9 239.89 101.16 Z" id="IT-BS" data-name="Brescia"/>
<path d="M 195.73 153.49 199.39 158.64 203.31 158.05 206.73 160.67 209.39 156.33 215.63 161.8 216.4 158.9 221.27 161.64 220.87 167 221.94 168.89 229.09 174.15 233.73 175.78 235.92 177.58 243.36 180.19 246.5 178.54 249.82 182.78 250.11 184.82 254.81 187.8 260.7 188.39 261.34 191.85 256.31 194.45 256.22 198.2 264.36 195.61 264.01 198.45 259.91 201.18 260.26 203.79 264.25 201.9 264.62 205.31 261.1 206.64 262.13 209.83 258.25 208.19 256.26 203.64 252 203.71 243.52 198.59 240.83 197.79 233.35 198.65 229.98 191.76 227.64 190 220.69 189.48 219.64 186.99 216 186.4 213.22 181.69 208.9 177.08 206.88 176.49 202.44 172.95 200.71 168.03 196.64 169.35 192.92 166.1 193.27 159.31 195.73 153.49 Z" id="IT-CR" data-name="Cremona"/>
<path d="M 309.6 192.32 308.62 196.19 313.79 196.56 313.78 199 321.56 204.7 323.74 206.95 315.8 205.98 312.73 207.19 306.46 208.68 301.08 205.81 295.47 206.61 293.82 208.27 288 210.34 286.11 209.11 279.74 207.54 277.91 203.53 274.1 203.43 270.91 207.93 266.41 210.18 262.13 209.83 261.1 206.64 264.62 205.31 264.25 201.9 260.26 203.79 259.91 201.18 264.01 198.45 264.36 195.61 256.22 198.2 256.31 194.45 261.34 191.85 260.7 188.39 254.81 187.8 250.11 184.82 249.82 182.78 255.12 178.11 257.68 172.21 259.56 171 258.99 165.23 262.42 163.33 266.21 165.89 269.8 165.91 272.86 162.37 275.58 162.01 275.85 170.91 279.23 174.24 281.23 172.86 285.37 177.23 291.89 182.31 295.05 183.8 296.37 187.79 299.13 188.24 299.03 191.15 300.69 192.77 305.89 190.89 309.6 192.32 Z" id="IT-MN" data-name="Mantova"/>
<path d="M 141.81 149.21 144.6 148.51 147.84 144.86 150.65 148.1 156.66 143.56 159.76 143.59 159.95 146.27 161.98 147.26 165.82 145.7 165.11 142.86 168.78 142.91 168.51 145.89 173.21 145.93 174.53 147.34 182.09 150.89 183.7 149.06 186.52 149.14 192.44 145.15 194.81 140.75 196.86 144.66 197.32 149.02 195.73 153.49 193.27 159.31 190.87 157.54 189.49 159.75 189.34 163.48 185.77 168.02 186.87 173.11 184.25 172.49 182.26 171.06 176.32 171.09 173.03 173.8 164.44 173.38 160.42 177.05 152.5 168.07 150.31 163.41 146.32 155.25 142.61 152.44 141.81 149.21 Z" id="IT-MI" data-name="Milano"/>
<path d="M 178.12 131.41 178 128.45 183.56 120.14 183.21 116.7 180.64 116.22 179.2 110.39 180.62 109.84 179.78 104.52 181.92 93.83 186.24 91.22 190 91.21 189.33 96.58 190.7 98.5 194.59 99.85 196.85 105.56 194.48 105.54 195.23 109.54 197.73 111.9 195.94 117.97 192.9 121.92 195.56 126.9 191.55 130.71 192.09 135.51 193.89 138.21 190.55 140.18 189.11 138.12 186.49 139.8 182.67 138.76 181 132.96 178.12 131.41 Z" id="IT-LC" data-name="Lecco"/>
<path d="M 165.11 142.86 165.49 139.2 166.41 136.69 168.97 135.94 174.44 137.79 175.1 134.84 178.12 131.41 181 132.96 182.67 138.76 186.49 139.8 189.11 138.12 190.55 140.18 193.89 138.21 194.81 140.75 192.44 145.15 186.52 149.14 183.7 149.06 182.09 150.89 174.53 147.34 173.21 145.93 168.51 145.89 168.78 142.91 165.11 142.86 Z" id="IT-MB" data-name="Monza e Brianza"/>
<path d="M 193.27 159.31 192.92 166.1 196.64 169.35 200.71 168.03 202.44 172.95 206.88 176.49 208.9 177.08 213.22 181.69 216 186.4 219.64 186.99 220.69 189.48 221.81 192.8 217.74 192.86 217.83 195.21 211.94 191.96 211.96 194.43 207.2 195.06 204.21 193.3 204.45 190.25 201.1 191.53 198.13 189.62 197.16 186.52 190.94 184.4 186.42 179.65 182.69 177.86 184.25 172.49 186.87 173.11 185.77 168.02 189.34 163.48 189.49 159.75 190.87 157.54 193.27 159.31 Z" id="IT-LO" data-name="Lodi"/>
<path d="M 355.05 402.09 351.28 403.72 349.63 405.47 346.73 404.98 345.56 406.83 338.04 406.72 338.29 403.85 337.03 399.26 336.49 393.18 333.56 391.19 329.53 390.23 325.61 392.62 322.09 391.45 319.55 388.45 319.69 380.78 315.37 381.15 310.01 379.93 306.07 381.05 300.93 380.35 299.54 377.21 299.5 372.22 295.67 372.01 289.59 373.51 291.1 369.83 290.78 367.12 294.77 366.4 295.14 363.69 292.94 361.08 292.52 358.54 295.39 356.53 295.83 353.21 292.31 346.85 292.73 342.42 293.9 340.5 298.9 338.96 302.95 342.8 303.84 344.74 307.27 340.86 308.51 343.67 312.11 342.38 313.68 339.39 315.5 340.67 319.8 340.07 322.14 337.99 325.84 340.98 327.32 344.01 331.45 346.88 331.38 352.32 333.64 355.13 339.65 358.96 341.77 363.32 345.88 366.76 350.93 368.12 354.71 373.72 359.32 372.48 356.98 377.19 357.63 381.41 360.41 382.08 361 384.16 357.95 395.07 359.23 398.17 357.91 400.15 355.05 402.09 Z" id="IT-SI" data-name="Siena"/>
<path d="M 369.34 318.48 372.6 318.43 374.23 319.82 377.46 317.98 381.63 317.57 386.44 321.85 384.86 324.96 381.09 324.9 375.6 328.27 376.21 331.65 371.7 339.52 369.05 341.44 371.47 343.47 364.97 350.14 367.42 350.63 367.9 354.26 371.37 355.6 371.78 360.88 376.77 361.7 373.1 364.31 368.66 365.96 365.81 364.96 364.03 366.22 363.31 370.03 359.32 372.48 354.71 373.72 350.93 368.12 345.88 366.76 341.77 363.32 339.65 358.96 333.64 355.13 331.38 352.32 331.45 346.88 327.32 344.01 325.84 340.98 322.14 337.99 323.83 335.99 329.5 334.38 328.93 330.31 331.68 329.79 333.52 326.64 336.26 324.16 334.01 321.12 334.3 318.73 337.37 313.08 337.85 310.47 340.51 307.82 343.49 307.33 348.08 310.27 349.71 312.23 357.05 314.35 360.39 317.17 367.03 318.91 369.34 318.48 Z" id="IT-AR" data-name="Arezzo"/>
<path d="M 330.76 280.97 333.81 279.9 336.42 281.9 335.92 284.61 339.3 285.02 343.73 283.82 345.56 284.76 343.75 289.55 339.09 296.94 341.27 299.29 342.97 303.57 343.49 307.33 340.51 307.82 337.85 310.47 337.37 313.08 334.3 318.73 334.01 321.12 336.26 324.16 333.52 326.64 331.68 329.79 328.93 330.31 329.5 334.38 323.83 335.99 322.14 337.99 319.8 340.07 315.5 340.67 313.68 339.39 312.11 342.38 308.51 343.67 307.27 340.86 303.84 344.74 302.95 342.8 298.9 338.96 293.9 340.5 292.73 342.42 292.31 346.85 286.17 345.03 284.48 339.56 284.05 331.1 288.1 330.62 289.52 328.46 289.3 325.79 286.53 321.13 281.67 322.15 277.29 318.09 276.16 315.94 277.28 313.37 279.64 314.53 283.01 313.02 285.82 315.05 293.11 313.52 294.03 316.03 299.33 318.48 299.56 313.61 304.82 309.67 304.66 305.55 306.13 302.74 308.32 293.18 308.91 286.34 309.15 281.29 315.01 280.17 318.42 276.63 321.77 274.41 324.44 274.91 328.73 280.57 330.76 280.97 Z" id="IT-FI" data-name="Firenze"/>
<path d="M 88.98 132.66 86.7 130.42 85.44 125.33 84.38 115.55 84.93 114.43 87.88 113.9 91.71 116.06 97.3 113.26 100.65 114.04 107.12 111.7 108.67 113.64 112.69 115.82 116.17 120.72 116.6 123.22 115.81 128.85 118.02 128.55 120.35 133.11 119.32 135.56 115.38 135.78 120.8 144.48 121.83 161.88 124.71 165.65 126.97 166.16 128.92 172.44 130.35 181.56 132.03 183.88 131.86 186.57 128.21 185.07 127.88 183.42 121.69 182.8 116.99 185.97 112.59 185.29 109.37 186.56 104.76 186.21 101.62 184.51 98.58 184.89 93.8 177.2 92.76 169.67 96.22 168.74 95.32 165.7 96.39 163.9 102.1 166.26 104.31 164.53 105.87 160.76 108.26 159.49 112.2 154.23 113.97 149.24 112.32 144.61 114.06 142.09 113.36 139.16 106.79 131.48 103.26 130.04 99.83 133.5 96.31 132.09 90.72 133.21 88.98 132.66 Z" id="IT-VC" data-name="Vercelli"/>
<path d="M 150.31 163.41 152.5 168.07 160.42 177.05 164.44 173.38 173.03 173.8 176.32 171.09 182.26 171.06 184.25 172.49 182.69 177.86 186.42 179.65 190.94 184.4 197.16 186.52 198.13 189.62 198.13 192.96 190.03 192.61 187.22 197.94 182.98 207.71 181.83 212.03 185.07 214.55 185.35 218.6 182.05 224.99 183.17 229.01 182.26 230.94 175.05 232.22 175.35 228.58 173.04 222.47 170.98 219.64 167.84 219.4 164.79 216.5 164.93 213.24 159.56 207.46 158.68 203.97 153.69 202.15 153.38 197.1 151.54 196.66 146.43 199.58 139.39 199.85 137.82 198.3 135.28 191.96 131.86 186.57 132.03 183.88 130.35 181.56 128.92 172.44 131.19 167.6 136.97 168.69 138.7 172.15 141.65 173.26 142.26 170.84 144.93 168.79 143.81 166.52 150.31 163.41 Z" id="IT-PV" data-name="Pavia"/>
<path d="M 442.49 412.66 447.41 411.75 450.34 414.06 452.07 416.94 453.03 419.76 455.34 420.87 454.64 424.57 452.1 427.23 448.62 427.44 441.93 426.11 441.14 428.79 438.53 430.53 440.41 432.89 440.5 435.81 438.29 438.11 438.33 440.69 441.41 443.09 440.14 446.05 440.4 448.65 442.84 450.02 444.4 454.11 450.69 461.47 449.7 466.83 445.13 467.6 436.08 463.57 434.37 466.5 431.45 468.81 429.3 467.97 426.28 470.38 424.14 469.01 420.46 469.63 418.25 465.92 413.72 462.34 409.06 466.03 404.33 463.48 403.06 458.83 404.67 457.45 402.82 454.18 400.03 454.8 397.34 452.53 395.37 452.3 392.94 447.36 393.64 444.27 396.24 443.94 397.88 445.85 402.18 442.99 403.49 437.36 407.07 439.14 410.86 438.18 410.45 434.95 413.07 433.98 414.73 431.55 421.43 428.13 422.9 424.04 428.66 424.19 430.64 422.05 433.44 422.76 436.99 420.89 439.77 420.81 442.13 416.36 442.49 412.66 Z" id="IT-RI" data-name="Rieti"/>
<path d="M 118.02 128.55 119.55 127.09 120.08 121.85 122.43 122.24 125.44 119.28 128.48 122.33 131.71 121.64 134.66 123.41 132.45 126.04 135.93 132.84 137.83 133.52 137.86 136.58 139.92 138.1 139.35 142.28 141.15 144.42 141.81 149.21 142.61 152.44 146.32 155.25 150.31 163.41 143.81 166.52 144.93 168.79 142.26 170.84 141.65 173.26 138.7 172.15 136.97 168.69 131.19 167.6 128.92 172.44 126.97 166.16 124.71 165.65 121.83 161.88 120.8 144.48 115.38 135.78 119.32 135.56 120.35 133.11 118.02 128.55 Z" id="IT-NO" data-name="Novara"/>
<path d="M 103.23 190.54 104.76 186.21 109.37 186.56 112.59 185.29 116.99 185.97 121.69 182.8 127.88 183.42 128.21 185.07 131.86 186.57 135.28 191.96 137.82 198.3 139.39 199.85 146.43 199.58 151.54 196.66 153.38 197.1 153.69 202.15 158.68 203.97 159.56 207.46 164.93 213.24 164.79 216.5 167.84 219.4 170.98 219.64 173.04 222.47 175.35 228.58 175.05 232.22 175.17 238.66 171.51 241.73 169.32 240.95 167.53 238.14 164.31 236.93 158.83 232.18 156.41 232.16 153.39 236.19 155 238.28 155.48 242.39 154.21 243.77 150.39 243.62 146.57 249.05 143.12 241.96 135.64 241.13 134.86 244.72 132.37 247.82 126.49 247.65 120.7 248.71 118.67 251.14 112.36 247.31 114.33 243.65 116.64 243.78 115.98 238.66 117.99 236.95 117.78 231.5 121.95 231.27 122.85 227.38 128 224.18 127.93 221.61 122.88 219.29 119.52 215.07 118.84 210.55 120.6 205.67 118.14 202.4 117.26 198.07 114.89 195.36 107.46 198.54 104.13 197.52 101.98 192.84 103.23 190.54 Z" id="IT-AL" data-name="Alessandria"/>
<path d="M 263.89 73.53 266.27 71.13 269.99 70.35 271.31 66.88 270.38 62.67 272.57 63.15 278.45 59.7 281.95 63.4 284.79 64.98 295.34 60.26 298.06 62.98 299.82 62.32 299.21 56.72 301.26 55.95 305.25 59.49 308.42 57.69 309.88 61.22 309.02 73.86 305.97 79.21 306.33 82.55 308.31 84.72 311.72 84.33 316.82 78.78 321.47 79.49 322.87 75.29 325.98 74.28 327.43 71.88 331.54 72.46 335.38 69.3 338.46 60.89 341.33 57.49 347.65 57.26 351.25 57.85 351.39 59.81 355 61.41 352.47 69.46 349.29 71.24 349.35 73.27 352.44 77.22 352.67 80.21 354.96 80.31 357.62 82.45 357.16 85.14 360.44 87.7 355.55 93.86 349.08 96.46 343.21 96.91 342.71 101.51 341.36 103.74 341.38 108.17 335.65 108.64 334.28 106.06 328.67 105.46 325.02 107.85 321.81 108.48 319.55 114.08 316.59 112.5 314.18 114.47 308.94 124.86 307.89 130.25 304.27 135.54 299.77 134.3 295.96 134.27 294.11 136.28 290.94 137.24 287.25 133.98 287.39 129.61 288.83 127.43 287.78 124.28 285.12 122.63 282.95 121.58 277.34 121.21 273.89 122.14 273.1 124.8 267.33 126.41 265.98 123.56 263.56 121.93 262.51 118.46 263.33 114.68 261.73 109.62 259.37 108.43 263.04 98.75 265.95 95.27 266.53 87.97 268.07 84.11 267.23 76.43 263.89 73.53 Z" id="IT-TN" data-name="Trento"/>
<path d="M 341.38 108.17 344.28 112.55 347.35 113.7 349.07 118.16 345.25 121.9 345.76 124.77 349.38 126.3 351.16 129.69 350 134.11 350.55 136.74 343.15 137.78 339.01 141.69 338.78 144.48 340.38 147.36 345.27 151.31 345.47 155.77 342.74 157.91 341.71 160.53 336.82 165.43 337.45 170.55 335.1 172.45 334.65 175.1 336.92 177.5 335.86 179.06 331.87 178.83 328.14 176.97 323.68 169.93 319.57 168.3 317.45 160.21 317.62 156.23 314.32 153.59 312.21 150.11 310.8 144.08 307.82 143.15 305.77 140.77 304.27 135.54 307.89 130.25 308.94 124.86 314.18 114.47 316.59 112.5 319.55 114.08 321.81 108.48 325.02 107.85 328.67 105.46 334.28 106.06 335.65 108.64 341.38 108.17 Z" id="IT-VI" data-name="Vicenza"/>
<path d="M 328.14 176.97 322.71 178.26 322.35 180.37 323.55 189.71 325.33 193.41 324.03 195.92 321.36 197.18 317.78 193.72 309.6 192.32 305.89 190.89 300.69 192.77 299.03 191.15 299.13 188.24 296.37 187.79 295.05 183.8 291.89 182.31 285.37 177.23 281.23 172.86 279.23 174.24 275.85 170.91 275.58 162.01 272.86 162.37 271.6 159.61 272.1 154.83 271.44 148.62 271.68 144.16 280.97 130.1 285.12 122.63 287.78 124.28 288.83 127.43 287.39 129.61 287.25 133.98 290.94 137.24 294.11 136.28 295.96 134.27 299.77 134.3 304.27 135.54 305.77 140.77 307.82 143.15 310.8 144.08 312.21 150.11 314.32 153.59 317.62 156.23 317.45 160.21 319.57 168.3 323.68 169.93 328.14 176.97 Z" id="IT-VR" data-name="Verona"/>
<path d="M 349.07 118.16 350.52 116.33 353.2 117.95 357.48 117.74 359.91 111.07 361.65 109.73 366.71 110.16 369.85 106.4 375.32 106.26 378.25 104.53 382.87 99.55 384.65 98.73 390.78 102.5 392.27 109.91 397.47 113.96 400.52 122.17 404.96 122.72 407.55 125.71 406.9 135.32 402.97 136.85 397.49 136.87 394.09 141.12 391.53 142.04 391.65 146.42 389.01 147.78 386.11 146.62 381.62 148.33 380.71 150.77 377.96 151.13 375.12 146.58 368.68 145.24 367.11 141.24 363.13 141.12 359.46 144.07 356.16 142.71 353.82 138.31 350.55 136.74 350 134.11 351.16 129.69 349.38 126.3 345.76 124.77 345.25 121.9 349.07 118.16 Z" id="IT-TV" data-name="Treviso"/>
<path d="M 194.47 244.55 189.3 240.51 185.12 241.54 181.78 239.39 175.17 238.66 175.05 232.22 182.26 230.94 183.17 229.01 182.05 224.99 185.35 218.6 185.07 214.55 181.83 212.03 182.98 207.71 187.22 197.94 190.03 192.61 198.13 192.96 198.13 189.62 201.1 191.53 204.45 190.25 204.21 193.3 207.2 195.06 211.96 194.43 211.94 191.96 217.83 195.21 217.74 192.86 221.81 192.8 220.69 189.48 227.64 190 229.98 191.76 233.35 198.65 228.51 205.95 227.9 209.17 229 214.33 221.52 220.12 220.31 223.52 217.14 224.91 212.88 229.93 212.81 232.3 208.58 233.24 206.9 232.03 204.37 233.61 202.1 237.25 194.47 244.55 Z" id="IT-PC" data-name="Piacenza"/>
<path d="M 237.63 264.18 233.4 263.21 227.95 258.11 227.86 254.22 224.22 252.13 219.58 250.95 217.53 251.58 211.37 260.07 207.76 262.7 205.19 258.15 201.65 256.18 195.43 256.12 193.47 257.56 190.77 256.86 191.76 252.28 194.62 248.25 194.47 244.55 202.1 237.25 204.37 233.61 206.9 232.03 208.58 233.24 212.81 232.3 212.88 229.93 217.14 224.91 220.31 223.52 221.52 220.12 229 214.33 227.9 209.17 228.51 205.95 233.35 198.65 240.83 197.79 243.52 198.59 252 203.71 256.26 203.64 258.25 208.19 262.13 209.83 259.55 212.24 259.64 216.11 257.62 221.56 257.71 229.68 256.57 233.08 255.36 242.9 243.25 258.14 238.58 261.74 237.63 264.18 Z" id="IT-PR" data-name="Parma"/>
<path d="M 260.1 275.14 255.34 274.09 252.04 270.44 247.81 269.74 245.54 270.84 241.89 266.38 237.63 264.18 238.58 261.74 243.25 258.14 255.36 242.9 256.57 233.08 257.71 229.68 257.62 221.56 259.64 216.11 259.55 212.24 262.13 209.83 266.41 210.18 270.91 207.93 274.1 203.43 277.91 203.53 279.74 207.54 286.11 209.11 288 210.34 287.22 214.34 285.03 215.56 283.13 220.43 284.78 222.04 282.86 228.03 283.29 234.26 280.92 237.34 280.32 243.85 277.33 249.14 273.66 252.08 268.45 261.83 264.31 263.12 262.83 270.13 260.1 275.14 Z" id="IT-RE" data-name="Reggio Emilia"/>
<path d="M 312.73 207.19 311.24 211.1 318.03 214.57 320.2 217.08 317.18 218.04 315.16 220.85 305.53 221.87 304.19 222.92 302.74 229.86 300.74 235.53 304.33 239.82 304.64 242.94 303.41 246.12 300.39 246.62 298.81 251.78 295 254.57 298.51 257.86 297.3 260.75 298.12 264.35 296.89 267.38 292.89 267.94 292.87 274.4 290.07 276.12 286.52 274.55 283.65 278.92 282.66 282.09 283.18 285.51 275.91 280.99 272.06 281.38 269.43 284.38 266.74 284.38 260.95 278.67 260.1 275.14 262.83 270.13 264.31 263.12 268.45 261.83 273.66 252.08 277.33 249.14 280.32 243.85 280.92 237.34 283.29 234.26 282.86 228.03 284.78 222.04 283.13 220.43 285.03 215.56 287.22 214.34 288 210.34 293.82 208.27 295.47 206.61 301.08 205.81 306.46 208.68 312.73 207.19 Z" id="IT-MO" data-name="Modena"/>
<path d="M 315.16 220.85 313.29 222.82 314.71 229.41 319.29 223.91 320.63 223.24 326.84 225.61 336.12 230.88 340.6 236.57 342.82 236.9 345.72 235.17 348.82 238.02 346.52 242.59 348.38 244.24 348.01 246.49 345.24 248.74 348.39 253.13 348.58 255.88 350.45 259.13 346.16 266.33 343.52 267.45 341.28 266.39 337.11 273.3 333.93 274.71 331.83 277.31 330.76 280.97 328.73 280.57 324.44 274.91 321.77 274.41 318.42 276.63 315.01 280.17 309.15 281.29 308.91 286.34 298.74 287.48 294.53 284.36 290.37 289.76 283.18 285.51 282.66 282.09 283.65 278.92 286.52 274.55 290.07 276.12 292.87 274.4 292.89 267.94 296.89 267.38 298.12 264.35 297.3 260.75 298.51 257.86 295 254.57 298.81 251.78 300.39 246.62 303.41 246.12 304.64 242.94 304.33 239.82 300.74 235.53 302.74 229.86 304.19 222.92 305.53 221.87 315.16 220.85 Z" id="IT-BO" data-name="Bologna"/>
<path d="M 277.28 313.37 275.95 310.08 272.26 308.22 273.32 298.43 277.82 293.1 275.56 287.34 269.43 284.38 272.06 281.38 275.91 280.99 283.18 285.51 290.37 289.76 294.53 284.36 298.74 287.48 298.97 289.75 296.57 296.52 299.71 298.52 297.06 303.49 295.84 312.03 293.11 313.52 285.82 315.05 283.01 313.02 279.64 314.53 277.28 313.37 Z" id="IT-PT" data-name="Pistoia"/>
<path d="M 393.64 444.27 392.73 441.18 390.4 440.29 388.85 437.41 385.45 434.74 382.63 434.92 381.26 433.06 380.67 428 378.93 426.23 378.28 420.59 372.97 418.05 364.74 420.73 359.78 417.21 357.82 414.98 360.74 410.71 358.01 407.51 355.05 402.09 357.91 400.15 362.39 399.64 363.54 396.76 367.06 394.04 382.64 396.21 384.48 398.58 384.4 401.41 382.5 406.9 382.45 411.44 385.84 413.39 385.94 417.69 389.33 415.22 392.45 416.58 395.86 412.83 398.83 414.93 403.07 412.57 404.21 417.33 411.62 424.72 412.3 422.53 415.72 419.83 419.55 418.44 422.9 424.04 421.43 428.13 414.73 431.55 413.07 433.98 410.45 434.95 410.86 438.18 407.07 439.14 403.49 437.36 402.18 442.99 397.88 445.85 396.24 443.94 393.64 444.27 Z" id="IT-TR" data-name="Terni"/>
<path d="M 376.21 331.65 381.64 333.98 383.3 332.34 386.63 332.24 385.79 336.13 383.92 338.18 388.06 340.17 391.4 338.89 396.68 341.29 402.99 348.87 405.67 347.62 408.77 348.5 410.22 346.69 413.27 346.02 412.49 353.62 415.32 358.66 415.78 362.86 419.53 369.51 419.87 372.31 418.58 376.27 421.1 377.8 422.45 380.4 422.48 387.75 423.65 391.76 429.13 395.99 432.73 395.93 440.63 404.46 444.49 402.34 446.63 406.47 446.14 409.63 443.09 410.36 442.49 412.66 442.13 416.36 439.77 420.81 436.99 420.89 433.44 422.76 430.64 422.05 428.66 424.19 422.9 424.04 419.55 418.44 415.72 419.83 412.3 422.53 411.62 424.72 404.21 417.33 403.07 412.57 398.83 414.93 395.86 412.83 392.45 416.58 389.33 415.22 385.94 417.69 385.84 413.39 382.45 411.44 382.5 406.9 384.4 401.41 384.48 398.58 382.64 396.21 367.06 394.04 363.54 396.76 362.39 399.64 357.91 400.15 359.23 398.17 357.95 395.07 361 384.16 360.41 382.08 357.63 381.41 356.98 377.19 359.32 372.48 363.31 370.03 364.03 366.22 365.81 364.96 368.66 365.96 373.1 364.31 376.77 361.7 371.78 360.88 371.37 355.6 367.9 354.26 367.42 350.63 364.97 350.14 371.47 343.47 369.05 341.44 371.7 339.52 376.21 331.65 Z" id="IT-PG" data-name="Perugia"/>
<path d="M 493.88 526.74 487.04 531.34 488.09 533.62 487.91 538.82 484.82 539.19 482.17 541.21 480.21 540.85 476.84 537.76 472.53 540.18 470.23 539.17 468.01 535.91 466.28 531.68 460.79 528.17 457.58 533.05 450.77 532.91 446.8 529.87 449.49 526.77 447.27 521.64 444.28 520.4 441.2 516.64 439.97 516.19 439.32 510.4 435.81 507.59 434.76 504.34 430.71 501.46 429.31 498.61 429.96 495.9 433.58 494.24 435 492.02 438.72 493.15 441.82 492.9 449.41 484.01 454.26 487.97 453.27 494.19 456.6 494.39 463.05 497.6 464.92 499.86 468.23 499.94 472.77 496.29 477.34 497.7 479.31 501.31 482.64 501.41 489.2 504.09 492.8 507.27 495.94 512.64 496.06 516.69 497.12 521.53 493.88 526.74 Z" id="IT-FR" data-name="Frosinone"/>
<path d="M 573.02 544.24 575.38 542.95 580.3 545.64 580 550.75 577.01 553.93 577.41 555.38 582.68 559.55 589.04 560 590.99 559.42 593.92 561.61 600.83 563.76 602.12 567.67 599.85 573.63 594.95 577.36 588.15 577.61 587.92 582.49 586.47 584.54 583.4 583.21 582.13 586.43 580.33 587.44 579.32 593.14 574.96 594.21 572.23 589.99 562.45 588.13 557.24 585.75 554.64 586.45 547.5 585.86 545.87 583.32 543.4 582.04 540.14 584.02 537 582.16 535.17 579.75 536.25 577.22 540.23 578.06 540.3 575.63 535.46 573.72 534.75 567.81 536.6 564.12 539.72 564.37 543.78 563.46 545.34 566.45 548.21 566.12 548.43 563.93 552.36 565.24 562.99 559.2 563.06 556.1 561.12 553.05 563.29 550.35 562.28 547.32 562.85 544.47 567.9 545.21 570.39 546.6 573.02 544.24 Z" id="IT-AV" data-name="Avellino"/>
<path d="M 454.64 424.57 457.43 431.31 460.21 434.62 463.72 436.66 465.07 439.09 468.62 438.39 478.93 439.65 480.73 441.26 483.51 445.39 484.32 450.36 485.96 454.93 483.81 456.94 482.74 465.6 484.22 466.57 489.03 464.53 493.77 468.57 495.68 471.71 497.7 472.47 502.16 471.42 503.29 472.95 501.9 478.77 502.98 483.76 501.93 484.71 504.29 489.19 509.46 488.59 511.81 490.28 509.27 493.68 507.2 493.47 506.03 495.91 508.17 500.82 503.06 503.96 500.66 503.63 496.08 507.38 492.8 507.27 489.2 504.09 482.64 501.41 479.31 501.31 477.34 497.7 472.77 496.29 468.23 499.94 464.92 499.86 463.05 497.6 456.6 494.39 453.27 494.19 454.26 487.97 449.41 484.01 448.23 484.03 435.96 477.11 431.37 476.36 430.27 470.31 431.45 468.81 434.37 466.5 436.08 463.57 445.13 467.6 449.7 466.83 450.69 461.47 444.4 454.11 442.84 450.02 440.4 448.65 440.14 446.05 441.41 443.09 438.33 440.69 438.29 438.11 440.5 435.81 440.41 432.89 438.53 430.53 441.14 428.79 441.93 426.11 448.62 427.44 452.1 427.23 454.64 424.57 Z" id="IT-AQ" data-name="L&apos;Aquila"/>
<path d="M 390.78 102.5 392.06 98.95 396.11 95.95 395.4 91.08 393.06 86.73 388.13 84.45 384.99 80.62 387.3 77.05 391.73 74.55 395.98 67.55 398.55 71.51 402.21 71.55 405.49 73.85 412.74 73.68 416.15 72.13 421.32 74.16 427.17 74.86 427.99 81.92 425.81 87.6 425.78 91.39 423.15 110.32 423.94 115.16 427.65 119.26 427.65 121.81 426.24 123.91 422.4 123.42 420.76 121.4 417.86 123.56 415.53 120.51 409.3 125.56 407.55 125.71 404.96 122.72 400.52 122.17 397.47 113.96 392.27 109.91 390.78 102.5 Z" id="IT-PN" data-name="Pordenone"/>
<path d="M 511.81 490.28 515.39 487.68 518.79 491.02 521.38 490.62 525.44 493.91 527.09 500.3 529.28 499.38 528.67 502.11 531.01 503.81 530.5 507.06 525.81 509.14 524.78 511.19 529.95 514.77 529.71 516.76 527.14 521.6 522.71 524.17 522.07 529.31 511.34 524.58 504.54 524.51 502 528.17 503.75 533.71 499.07 533.54 495.41 527.6 493.88 526.74 497.12 521.53 496.06 516.69 495.94 512.64 492.8 507.27 496.08 507.38 500.66 503.63 503.06 503.96 508.17 500.82 506.03 495.91 507.2 493.47 509.27 493.68 511.81 490.28 Z" id="IT-IS" data-name="Isernia"/>
<path d="M 86.56 144.82 89.2 140.38 88.98 132.66 90.72 133.21 96.31 132.09 99.83 133.5 103.26 130.04 106.79 131.48 113.36 139.16 114.06 142.09 112.32 144.61 113.97 149.24 112.2 154.23 108.26 159.49 105.87 160.76 104.31 164.53 102.1 166.26 96.39 163.9 96.43 159.5 93.6 157.75 86.7 151.38 87.6 148.13 86.56 144.82 Z" id="IT-BI" data-name="Biella"/>
<path d="M 308.91 286.34 308.32 293.18 306.13 302.74 304.66 305.55 304.82 309.67 299.56 313.61 299.33 318.48 294.03 316.03 293.11 313.52 295.84 312.03 297.06 303.49 299.71 298.52 296.57 296.52 298.97 289.75 298.74 287.48 308.91 286.34 Z" id="IT-PO" data-name="Prato"/>
</g>
</svg>