<?xml version="1.0"?>
<svg xmlns="http://www.w3.org/2000/svg" version="1.2" baseProfile="tiny" width="800" height="850" viewBox="0 0 800 850" stroke-linecap="round" stroke-linejoin="round">
<g id="MLOC-KR">
<path d="M 475.73 1 485.41 20.18 489.59 33.06 500.76 55.19 509.47 78.38 515.44 86.53 517.18 91.25 546.46 133.38 564.22 153.13 565.38 163.65 569.86 166.15 574.85 180.87 580.13 186.57 585.89 197.91 589.35 202.26 591.88 209.66 597.99 216.38 599.94 221.89 601.67 233.92 604.05 240.54 610.54 249.59 608.37 256.77 611.52 283.94 615.73 297.26 614.75 309.8 609.58 321.75 604.08 320.73 600.03 322.52 591.27 319.29 592.67 315.53 590.82 303.69 593.87 295.52 592.3 289.72 583.03 289.03 577.4 286.23 575.28 279.96 568.51 274.04 568.86 264.98 573.39 262.45 577.08 263.92 578.84 258.02 570.56 254.63 563.81 257.28 559.14 255.14 551.13 254.81 548.51 252.73 541.12 257.03 541.15 251.5 531.27 246.44 525.53 250.87 525.22 261.8 518.21 260.68 511.84 257.64 506.74 254.88 500.22 253.86 493.88 249.42 482.79 251.07 478.33 242.72 467.3 245.24 463 242.66 470.28 233.34 453.73 229 448.3 232.57 445.28 231.94 434.35 237.25 432.79 231.64 427.97 226.54 421.52 228.72 419.13 231.66 419.82 239.38 415.43 243.03 405.55 242.49 406.64 234.83 393.18 236.67 379.81 240.34 386.68 227.62 392.31 213.78 400.1 197.13 400.34 189.97 408.17 180.34 404.85 176.27 394.49 174.19 380.99 166.84 374.11 167.38 371.3 165 373.42 153.31 370.62 142.34 371.06 135.09 381.54 127.26 382.19 120.75 379.2 116.16 374.4 114.57 372.63 109.83 366.84 109.89 362.01 103.25 360.16 91.89 354.65 90.56 349.37 92.43 340.55 88.24 342.7 80.22 339.77 79.48 332.45 84.74 327.37 80.31 325.37 89.82 313.41 82.4 307.55 72.69 298.7 67.42 306.38 60.75 314.44 55.69 322.93 52.24 350.72 50.42 362.72 54.07 373.97 51.46 398.38 49.32 404.33 54.39 412.7 52.63 425.97 53.4 434.59 52.72 443.27 49.62 451.36 44.38 458.09 37.31 463.47 28.63 465.67 17.91 464.32 9.55 468.57 4.72 475.73 1 Z" id="KR-42" data-name="Gangwon"/>
<path d="M 298.7 67.42 307.55 72.69 313.41 82.4 325.37 89.82 327.37 80.31 332.45 84.74 339.77 79.48 342.7 80.22 340.55 88.24 349.37 92.43 354.65 90.56 360.16 91.89 362.01 103.25 366.84 109.89 372.63 109.83 374.4 114.57 379.2 116.16 382.19 120.75 381.54 127.26 371.06 135.09 370.62 142.34 373.42 153.31 371.3 165 374.11 167.38 380.99 166.84 394.49 174.19 404.85 176.27 408.17 180.34 400.34 189.97 400.1 197.13 392.31 213.78 386.68 227.62 379.81 240.34 375.9 245.07 368.51 258.91 362.14 259.65 357.61 266.36 352.3 270 351.16 274.66 335.89 280.33 329.92 279.52 319.56 272.92 309.04 277.42 298.15 276.19 282.48 264.99 280.77 260.75 288.35 259.92 291.19 255.92 286.6 246.78 285.11 254.62 277.85 255.19 272.02 253.43 271.72 245.21 274.94 240.11 279.1 238.31 277.98 231.76 265.4 241.4 261.32 231.73 262.52 226.63 259.77 220.81 266.29 219.63 276.74 225.71 280.54 214.24 269.25 212.56 263.45 206.54 267.57 201.28 274.16 198.19 277.16 190.77 273.91 187.46 272.56 180.56 265.11 173.39 252.86 173.83 247.38 164.56 243.65 141 245.82 138.52 252.79 141.02 263.37 137.97 264.08 127.81 260.91 129.29 260.03 115.51 260.7 111.69 267.83 109.07 272.87 105.05 283.68 88.5 292.85 80.05 295.42 73.68 298.7 67.42 Z M 317.66 173.62 318.75 165.2 314.42 152.82 305.92 153.39 298.7 163.59 293.02 164.13 292.08 169.41 286.39 172.07 278.79 169.37 276.89 173.45 282.4 180.7 283.07 185.28 289.25 188.05 292.97 192.93 298.4 193.12 309.24 189.75 310.69 193.09 321.3 188.42 324.67 183.37 323.61 179.34 327.3 177.17 326.67 172.47 317.66 173.62 Z M 213.81 133.35 218.62 133.68 216.72 139.79 204.35 138.34 206.08 133.38 209.41 131.38 213.81 133.35 Z M 221.59 150.53 220.72 156.56 212.13 149.86 214.49 144.57 221.59 150.53 Z M 240.71 166.23 236.69 163.96 228.35 165.41 223.29 160.77 229.18 157.45 223.16 146.7 223.22 136.09 230.27 129.83 240.18 137.36 242.44 141.57 243.4 161.75 240.71 166.23 Z M 16.07 104.82 4.85 113.79 1 110.5 5.53 105.97 12.56 103.5 16.07 104.82 Z M 189.08 224.99 189.7 218.71 196.59 224.37 191.83 227.7 189.08 224.99 Z M 237.7 216.88 239.51 219.68 234.43 224.47 231.53 219.27 237.7 216.88 Z M 254.14 220.67 254.09 224.23 247.63 229.38 247.24 216.94 254.14 220.67 Z" fill-rule="evenodd" id="KR-41" data-name="Gyeonggi"/>
<path d="M 227.75 346.6 229.93 354.04 222.48 354.07 219.8 349.82 217.59 331.64 216.29 327.24 222.03 322.9 224.46 337.23 227.67 341.18 227.75 346.6 Z M 298.15 276.19 309.04 277.42 319.56 272.92 329.92 279.52 335.89 280.33 343.91 290.78 345.94 298.37 344.45 304.9 341.43 306.25 334.19 317.12 316.19 309.93 313.24 318.1 313.63 341.97 310.56 347.11 322.08 349.37 330.71 347.01 339.78 362.13 340.44 373.51 343.06 382.05 349.29 380.42 359.92 373.01 364.03 359.86 367.82 356.07 371.2 357.4 363.33 371.82 361.82 377.89 361.94 386.69 366.02 385.84 373.65 389.44 375.88 404.89 381.33 413.96 375.26 419.67 365.05 421.56 357.72 420.59 357.33 415.99 351.51 413.46 345.82 403.2 341.78 399.61 337.96 404.43 317.43 409.86 314.73 405.66 315.86 398.75 311.19 397.81 298.08 401.95 284.91 404.14 279.22 411.17 271.92 415.8 264.08 418.59 251.04 398.1 243.41 394.54 247.48 390.14 244.14 384.18 248.77 370.68 241.46 368.01 249 364.88 249.36 361.15 243.19 360.6 239.57 352.69 237.62 340.59 238.66 335.61 235.97 333.8 236.11 324.96 241.28 323.87 242.24 320.25 237.67 316.55 240.74 313.27 236.5 310.52 237.14 301.16 232.28 304.89 232.62 318.37 230.13 323.34 222.91 319.79 223.25 303.5 219.86 302.23 217.49 308.66 218.93 317.42 217.92 323.18 210.99 312.84 205.46 311.02 197.41 311.93 196.93 307.62 202.15 307.68 202.09 301.91 195.82 300.89 193.02 297.86 204.38 292.54 201.6 289.14 205.55 281.27 210.43 281.58 215.25 272.02 217.38 279.65 214.6 283.8 218.97 288.92 225.11 284.45 229.03 277.02 228.51 270.84 224.09 270.42 222.48 260.94 230.58 259.84 233.76 262.72 237.14 272.41 235.41 275.16 235.41 282.23 238.61 281.58 241.46 270.3 247.2 270.3 248.1 262.63 241.27 258.56 242.13 252.39 255.68 261.79 266.85 262.27 272.34 263.98 277.21 268.18 277.39 271.56 282.03 277.71 281.71 287.89 283.9 294.7 290.95 289.3 285.3 281.81 298.15 276.19 Z" fill-rule="evenodd" id="KR-44" data-name="South Chungcheong"/>
<path d="M 252.86 173.83 265.11 173.39 272.56 180.56 273.91 187.46 277.16 190.77 274.16 198.19 267.57 201.28 260.57 199.35 257.48 203.3 254.29 200.85 257.26 195.43 251.87 191.31 252.98 183.97 252.86 173.83 Z M 247.73 179.39 250.23 183.22 240.55 187.18 232.56 194.34 224.94 191.66 221.44 187.08 229.46 182.19 236.35 181.81 239.8 176.88 247.73 179.39 Z" fill-rule="evenodd" id="KR-28" data-name="Incheon"/>
<path d="M 279.22 411.17 284.91 404.14 298.08 401.95 311.19 397.81 315.86 398.75 314.73 405.66 317.43 409.86 337.96 404.43 341.78 399.61 345.82 403.2 351.51 413.46 357.33 415.99 357.72 420.59 365.05 421.56 375.26 419.67 381.33 413.96 398.37 422.45 407.11 417.85 410.81 420.61 414.06 417.42 419.24 426.27 418.65 436.22 412.79 444.48 400.41 449.4 398.03 454.55 392.41 459.98 390.63 468.85 387.07 476.02 382.61 493.08 385.86 494.45 387.74 505.77 390.85 509.92 390.09 514.17 384.81 520.5 383.79 528.48 381.14 531.19 373.92 525.37 365.82 522.44 357.54 528.97 340.13 530.09 336.05 527.34 327.38 528.51 323.74 530.68 319.04 529.98 315.99 526.74 316.16 521.61 312.81 515.81 313.93 511.34 311.38 507.45 307.66 507.65 304.39 514.71 300.48 514.76 294.54 506.71 286.15 502.43 279.76 504.51 276.58 507.37 276.68 511.57 271.53 521.4 263.76 525.41 251.74 528.44 248.59 527.38 250.32 513.32 246.67 512.34 231.74 516.63 229.37 512.99 235.9 496.76 238.79 492.59 251.65 489.92 259.34 481.63 241.39 484.57 235.13 480.67 235.62 474.81 243.56 468.03 252.02 463.24 255.56 458.29 256.1 453.64 260.24 450.91 269.22 451 274.06 453.68 276.55 451.15 265.12 443.6 267.56 439.94 278.47 439.41 281.77 434.11 278.53 432.7 269.23 436.46 253.93 435.73 253.49 429.34 248.55 427.02 242.98 427.9 242.43 423.18 270.66 420.2 277.98 415.3 279.22 411.17 Z M 209.1 485.55 211.39 478.97 215.13 480.47 209.1 485.55 Z" fill-rule="evenodd" id="KR-45" data-name="North Jeolla"/>
<path d="M 231.74 516.63 246.67 512.34 250.32 513.32 248.59 527.38 251.74 528.44 263.76 525.41 271.53 521.4 276.68 511.57 276.58 507.37 279.76 504.51 286.15 502.43 294.54 506.71 300.48 514.76 304.39 514.71 307.66 507.65 311.38 507.45 313.93 511.34 312.81 515.81 316.16 521.61 315.99 526.74 319.04 529.98 323.74 530.68 327.38 528.51 336.05 527.34 340.13 530.09 357.54 528.97 365.82 522.44 373.92 525.37 381.14 531.19 380.46 534.57 384.33 541.61 384.86 549.84 392.51 558.15 394.97 564.27 402.86 572.87 404.87 580.61 397.2 580.14 384.13 589.57 379.84 583.06 376.48 584.24 375.94 589.91 381.32 599.24 386.08 603.01 391.58 598.34 398.77 598.56 401.01 600.33 397.89 614.53 392.39 617.8 386.05 615.44 383.73 620.52 384.66 631.59 375.42 628.34 373.35 622.63 376.96 613.13 371.28 601.3 367.66 591.79 364.67 598.45 359.27 600.36 351.29 600.53 356.85 605.71 351.75 610.98 354.38 620.25 361.99 626.07 366.37 633.76 364.26 639.23 360.23 639.51 352.62 635.32 346.48 638.98 351.14 643.76 355.95 642.5 358.58 644.75 352.58 650.26 344.48 654.99 342.98 659.45 336.02 648.95 331.28 643.8 324.81 646.76 319.93 646.95 319.4 641.18 334.21 638.13 336.02 631.03 334.12 623.5 337.77 619.46 341.34 627.17 345.57 625.84 348.29 620.52 344.95 613.91 339.79 616.96 334.39 610 330.04 619.4 326.45 622.3 321.73 621.56 315.54 627.25 304.29 633.71 302.26 644.75 295.27 651.62 295.5 657.96 290.95 657.33 288.45 663.1 278.93 658.48 277.94 655.54 278.68 642.83 277.69 638.39 272.02 642.13 273.38 647.4 269.48 648.71 272.81 654.19 267.96 657 267.25 661.45 256.13 667.99 253.05 678.34 243.87 682.85 243.19 675.32 237.14 674.18 241.46 662.66 236.66 661.24 238.49 649.67 245.01 648.95 237.99 641.63 235.41 644.75 225.91 645.8 224.59 641.95 217.57 640.3 213.38 635.77 216.77 632.69 210.75 629.1 210.54 624.67 213.18 612.52 216.89 612.9 221.59 620.52 220.01 623.65 223.25 634.27 231.1 636.26 228.66 631.05 225.31 630.12 224.36 618.53 233.13 619.34 233.76 624.72 239.76 628.59 246.74 625.86 240.78 617.4 222.51 612.68 226.1 609.69 234.68 608.12 242.41 612.02 245.35 605.51 254.24 606.48 255.88 600.91 249.31 601.5 250.02 589.74 246.4 590.1 245.65 597.49 242.72 605.79 238.1 606.84 234.16 604.74 225.05 606.96 223.29 604.64 228.24 598 228.66 589.63 226.78 581.49 220.13 585.36 216.33 583.59 216.06 577.48 223.79 571.4 222.85 568.16 217.02 561.12 214.73 565.75 209.07 557.48 213.03 552.45 217.94 555.04 222.21 562.05 228.51 564.52 233.43 563.7 233.7 558.5 228.86 555.49 222.45 544.93 222.2 532.37 228.51 516.74 231.74 516.63 Z M 301.17 537.06 294.64 534.61 287.85 536.41 283.32 535.2 280.58 537.79 284.05 545.41 290.94 549.55 298.75 550.79 303.73 544.14 301.17 537.06 Z M 324.89 653.49 332.64 654.02 331.94 661.7 324.38 663.62 317.85 660.57 320.75 654.26 324.89 653.49 Z M 224.54 651.23 223.72 657.99 220.22 664.96 215.07 666.08 203.02 672.65 196.24 673.6 196.5 669.05 192.17 665.8 191.09 660.79 194.7 656.64 198.23 656.38 201.29 650.57 208.61 648.79 211.17 645.27 220.78 645.13 224.54 651.23 Z M 401.97 622.63 406.42 630.9 406.15 635.33 401.12 638.09 396.64 633.53 396.88 628.92 401.97 622.63 Z M 175.06 618.2 177.13 621.39 173.52 626.96 167.52 624.51 166.68 620.96 175.06 618.2 Z M 177.35 607.79 177.41 611.06 169.63 611.53 167.59 616.77 162.64 612.58 164.03 609.31 175.09 606.39 177.35 607.79 Z M 183.53 587.33 188.02 589.91 183.37 595.73 175.98 593.13 179.99 587.91 183.53 587.33 Z M 190.44 566.09 183.53 564.52 185.19 558.17 192.62 555.36 194.77 561.25 190.44 566.09 Z M 370.31 658.58 365.59 664.15 360.22 658.2 360.99 655.15 370.31 658.58 Z M 402.08 649.92 399.91 651.92 392.53 645.79 397.66 643.15 402.08 649.92 Z M 106.31 622.03 101.6 631.23 99.68 626.46 102.14 621.49 106.31 622.03 Z M 198.48 615.2 189.64 616.86 185.78 610.8 189.76 609.23 197.15 611.79 198.48 615.2 Z M 197.8 606.04 194.95 610.72 189.4 605.72 195.36 603.6 197.8 606.04 Z M 186.5 601.36 184.94 597.06 194.45 592.65 194.43 599.78 186.5 601.36 Z M 252.25 701.76 244.39 708.22 240.62 706.32 241.64 701.73 245.81 700.17 252.25 701.76 Z M 291.52 697.32 292.06 703.44 288.69 704.41 283.9 700.89 288.08 694.94 291.52 697.32 Z M 253.91 694.19 253.21 698.76 248.4 700.18 245.9 697.8 249.26 692.54 253.91 694.19 Z M 187.67 680.45 182.69 684.69 180.65 679.38 187.67 680.45 Z M 284.5 680.35 278.05 675.73 282.45 673.43 289.5 675.34 284.5 680.35 Z M 273.12 680.25 269.04 683.29 263.64 681.49 258.05 675.98 259.17 667.07 263.48 666.02 267.8 669.2 270.8 677.95 273.12 680.25 Z M 272.94 668.95 275.47 662.23 282.17 660.5 281.9 666.8 276.84 669.57 272.94 668.95 Z M 219.56 594.97 207.92 597.96 213.48 592.41 214.08 586.72 220.13 590.01 219.56 594.97 Z M 206.09 566.72 199.84 564.31 196.53 559.43 203.86 557.97 206.09 566.72 Z" fill-rule="evenodd" id="KR-46" data-name="South Jeolla"/>
<path d="M 381.14 531.19 383.79 528.48 384.81 520.5 390.09 514.17 390.85 509.92 387.74 505.77 385.86 494.45 382.61 493.08 387.07 476.02 390.63 468.85 392.41 459.98 398.03 454.55 400.41 449.4 412.79 444.48 418.65 436.22 419.67 439.69 425.19 445.56 431.07 446.67 434.79 449.45 445.28 450.81 453.31 461.42 456.94 464.61 455.35 471.8 457.34 478.99 472.61 479.39 482.88 484.2 489.65 480.72 493.12 481.42 499.16 474.7 500.21 483.31 507.36 489.72 516.69 488.35 524.77 491.7 529.49 491.83 545.03 482.38 553.62 485.35 557.17 484.16 557.71 490.35 554.54 496.73 556.44 500.57 564.23 501.77 572.98 510.52 582.4 516.38 583.25 520.69 590.12 525.13 587.7 532.81 588.45 535.79 581.31 548.69 571.07 537.09 567.88 532.1 561.69 533.18 557.48 537.16 556.16 546.31 551.38 553.38 545.77 561.34 527.24 561.12 518.19 559.14 518.19 552.37 513.58 554.5 508.3 549.66 506.48 541.34 502.68 546.37 505.18 553.82 508.9 559.97 505.93 565.25 502.99 560.41 496.16 558 490.05 558.68 488.1 562.87 478.79 566.42 476.55 572.95 489.18 566.23 492.77 572.57 485.28 579.38 484.34 590.87 489.59 590.87 484.63 598.2 472.68 593.64 470.61 589.85 474.82 587.91 471.95 582.13 467.8 588.19 457.91 583.59 455.75 590.87 447.19 590.68 444.57 586.29 437.64 585.12 436.59 579.9 436.34 563.62 432.71 568.47 431.99 574.2 418.42 579.85 415.78 582.23 408.07 582.53 404.87 580.61 402.86 572.87 394.97 564.27 392.51 558.15 384.86 549.84 384.33 541.61 380.46 534.57 381.14 531.19 Z M 438.35 602.54 437.15 618.96 426.42 620.26 423.74 611.06 420 611.08 417.68 618.24 412.84 616.88 408.07 599.68 407.95 594.22 412.12 590.04 412.72 586.63 417.16 583.26 421.73 587.28 417.6 594.22 418.7 597.98 424.73 603.78 433.22 601.5 438.35 602.54 Z M 524.27 594.22 520.73 598.34 523.07 603.89 516.41 603.6 512.72 611.48 515.38 616.43 507.78 616.31 502.12 612.02 500.46 607.65 504.41 606.21 506.05 599.39 496.47 603.6 491.36 594.22 497.41 588.86 503.45 587.91 508.89 590.7 508.49 581.17 517.35 576.12 520.5 578.3 522.48 583.96 519.95 593.07 524.27 594.22 Z M 438.75 597.9 429.77 599.2 426.06 597.83 425.81 593.26 429.79 587.42 437 592.46 438.75 597.9 Z M 478.37 601.75 484.97 601.83 484.89 607.96 480.99 610.54 478.37 601.75 Z" fill-rule="evenodd" id="KR-48" data-name="South Gyeongsang"/>
<path d="M 551.38 553.38 556.16 546.31 557.48 537.16 561.69 533.18 567.88 532.1 571.07 537.09 581.31 548.69 571.31 550.86 571.72 558.41 568.89 559.73 564.17 555.32 555.72 562.29 549.81 562.73 551.38 553.38 Z" id="KR-26" data-name="Busan"/>
<path d="M 590.12 525.13 583.25 520.69 582.4 516.38 572.98 510.52 564.23 501.77 556.44 500.57 554.54 496.73 557.71 490.35 557.17 484.16 566.22 478.22 564.31 474.03 568.57 470.71 578.31 468.18 587.06 471 588.6 477.32 592.29 479 604.06 476.87 614.19 479.3 615.23 481.03 613.62 494.47 610.26 499.83 601.37 504.01 602.23 510.99 599.98 514.81 601.71 519.26 593.14 525.08 590.12 525.13 Z" id="KR-31" data-name="Ulsan"/>
<path d="M 511.84 257.64 518.21 260.68 525.22 261.8 525.53 250.87 531.27 246.44 541.15 251.5 541.12 257.03 548.51 252.73 551.13 254.81 559.14 255.14 563.81 257.28 570.56 254.63 578.84 258.02 577.08 263.92 573.39 262.45 568.86 264.98 568.51 274.04 575.28 279.96 577.4 286.23 583.03 289.03 592.3 289.72 593.87 295.52 590.82 303.69 592.67 315.53 591.27 319.29 600.03 322.52 604.08 320.73 609.58 321.75 612.68 341.18 611.89 354.61 605.01 368 604.48 386.96 607.21 392.33 609.08 407.15 604.29 412.08 610.9 419.18 616.71 417.07 624.76 408.26 628.39 407.33 630.41 415.93 623.87 428.1 622.17 442.86 618.89 452.14 619.07 457.94 615.72 468.02 612.16 475.36 614.19 479.3 604.06 476.87 592.29 479 588.6 477.32 587.06 471 578.31 468.18 568.57 470.71 564.31 474.03 566.22 478.22 557.17 484.16 553.62 485.35 545.03 482.38 529.49 491.83 524.77 491.7 516.69 488.35 507.36 489.72 500.21 483.31 499.16 474.7 493.12 481.42 489.65 480.72 482.88 484.2 472.61 479.39 457.34 478.99 455.35 471.8 456.94 464.61 453.31 461.42 445.28 450.81 434.79 449.45 431.07 446.67 425.19 445.56 419.67 439.69 418.65 436.22 419.24 426.27 414.06 417.42 420.31 414.85 425.53 403.77 425.07 394.84 428.13 392.22 433.86 392.94 432.42 384.77 429.55 382.65 423.09 384.21 413.99 379.04 408.9 380.24 408.14 372.78 412.76 366.74 410.56 361.56 411.83 349.21 415.39 343.37 409.19 334.36 404.23 333.52 411.22 322.91 412.17 317.96 420.53 313.18 423.28 309.08 428.1 311.18 437.08 312.6 432.81 305.93 436.77 296.65 441.33 297.77 445.56 293.58 455.16 296.56 459.65 287.77 466.39 293.71 468.27 297.53 472.78 299.01 483.38 294.56 485.25 288.35 482.68 285.26 488.4 275.35 497.61 268.43 507.08 259.81 511.84 257.64 Z M 523.36 442.2 526.01 437.69 523.31 429.87 523.95 423.64 517.26 417.11 502.52 418.63 496.57 423.58 497.37 430.7 491.45 440.15 490.45 445.49 500.72 454.76 505.3 449.35 516.7 451.67 519.53 449.95 523.36 442.2 Z M 796.99 174.38 799 180.06 796.13 187.57 790.49 188.15 785.28 183.76 787.97 176.56 796.99 174.38 Z" fill-rule="evenodd" id="KR-47" data-name="North Gyeongsang"/>
<path d="M 296.17 806.95 295.3 814.1 286.99 822.87 282.82 832.38 275.17 833.09 270.32 836.92 257.53 839.28 253.25 842.92 236 844.72 230.67 843.11 218.64 843.29 212.66 849 208.58 848.45 205.7 843.78 198.14 838.57 196.84 833.81 202.54 822.49 206.94 819.88 210.7 813.34 215.75 809.01 234.58 803.26 237.81 800.47 250.15 799.17 258.55 795.51 260.56 796.08 276.72 793.93 280.64 794.59 284.01 798.31 290.11 800.74 293.21 807.16 296.17 806.95 Z" id="KR-49" data-name="Jeju"/>
<path d="M 317.66 173.62 326.67 172.47 327.3 177.17 323.61 179.34 324.67 183.37 321.3 188.42 310.69 193.09 309.24 189.75 298.4 193.12 292.97 192.93 289.25 188.05 283.07 185.28 282.4 180.7 276.89 173.45 278.79 169.37 286.39 172.07 292.08 169.41 293.02 164.13 298.7 163.59 305.92 153.39 314.42 152.82 318.75 165.2 317.66 173.62 Z" id="KR-11" data-name="Seoul"/>
<path d="M 364.03 359.86 359.92 373.01 349.29 380.42 343.06 382.05 340.44 373.51 339.78 362.13 330.71 347.01 344.72 343.18 347.61 343.42 353.84 352.9 362.5 352.87 364.03 359.86 Z" id="KR-30" data-name="Daejeon"/>
<path d="M 330.71 347.01 322.08 349.37 310.56 347.11 313.63 341.97 313.24 318.1 316.19 309.93 334.19 317.12 329.79 334.51 339.1 332.64 348.72 333.25 347.61 343.42 344.72 343.18 330.71 347.01 Z" id="KR-50" data-name="Sejong"/>
<path d="M 379.81 240.34 393.18 236.67 406.64 234.83 405.55 242.49 415.43 243.03 419.82 239.38 419.13 231.66 421.52 228.72 427.97 226.54 432.79 231.64 434.35 237.25 445.28 231.94 448.3 232.57 453.73 229 470.28 233.34 463 242.66 467.3 245.24 478.33 242.72 482.79 251.07 493.88 249.42 500.22 253.86 506.74 254.88 511.84 257.64 507.08 259.81 497.61 268.43 488.4 275.35 482.68 285.26 485.25 288.35 483.38 294.56 472.78 299.01 468.27 297.53 466.39 293.71 459.65 287.77 455.16 296.56 445.56 293.58 441.33 297.77 436.77 296.65 432.81 305.93 437.08 312.6 428.1 311.18 423.28 309.08 420.53 313.18 412.17 317.96 411.22 322.91 404.23 333.52 409.19 334.36 415.39 343.37 411.83 349.21 410.56 361.56 412.76 366.74 408.14 372.78 408.9 380.24 413.99 379.04 423.09 384.21 429.55 382.65 432.42 384.77 433.86 392.94 428.13 392.22 425.07 394.84 425.53 403.77 420.31 414.85 414.06 417.42 410.81 420.61 407.11 417.85 398.37 422.45 381.33 413.96 375.88 404.89 373.65 389.44 366.02 385.84 361.94 386.69 361.82 377.89 363.33 371.82 371.2 357.4 367.82 356.07 364.03 359.86 362.5 352.87 353.84 352.9 347.61 343.42 348.72 333.25 339.1 332.64 329.79 334.51 334.19 317.12 341.43 306.25 344.45 304.9 345.94 298.37 343.91 290.78 335.89 280.33 351.16 274.66 352.3 270 357.61 266.36 362.14 259.65 368.51 258.91 375.9 245.07 379.81 240.34 Z" id="KR-43" data-name="North Chungcheong"/>
<path d="M 301.17 537.06 303.73 544.14 298.75 550.79 290.94 549.55 284.05 545.41 280.58 537.79 283.32 535.2 287.85 536.41 294.64 534.61 301.17 537.06 Z" id="KR-29" data-name="Gwangju"/>
<path d="M 523.36 442.2 519.53 449.95 516.7 451.67 505.3 449.35 500.72 454.76 490.45 445.49 491.45 440.15 497.37 430.7 496.57 423.58 502.52 418.63 517.26 417.11 523.95 423.64 523.31 429.87 526.01 437.69 523.36 442.2 Z" id="KR-27" data-name="Daegu"/>
</g>
</svg>