<?xml version="1.0"?>
<svg xmlns="http://www.w3.org/2000/svg" version="1.2" baseProfile="tiny" width="800" height="486" viewBox="0 0 800 486" stroke-linecap="round" stroke-linejoin="round">
<g id="MLOC-LV">
<path d="M 455.25 1 463.26 2.79 467.13 16.68 476.2 13.31 479.93 6.56 491.11 13.29 489.34 21.04 482.96 22.02 480.89 16.81 473.65 27.87 474.68 33.07 481.92 35.01 486.93 39.23 490.89 53.17 495.03 58.67 474.68 60.94 471.92 56.41 472.09 45.72 466.4 34.69 459.68 29.49 459.5 19.74 455.36 14.21 456.92 5.74 455.25 1 Z" id="LV-084" data-name="Rujienas"/>
<path d="M 448.71 4.9 455.25 1 456.92 5.74 455.36 14.21 459.5 19.74 459.68 29.49 466.4 34.69 472.09 45.72 471.92 56.41 460.54 47.34 459.5 54.79 448.64 53.49 446.79 57.2 433.38 50.02 432.2 38.03 427.5 35.57 425.86 18.77 430.83 14.92 439.29 13.67 448.71 4.9 Z" id="LV-060" data-name="Mazsalacas"/>
<path d="M 425.86 18.77 427.5 35.57 432.2 38.03 433.38 50.02 446.79 57.2 453.38 63.25 455.74 69.69 453.21 75.89 455.2 86.77 454.2 91.58 443.93 90.2 437.66 95.23 431.81 92.63 433.03 86.9 426.29 84.04 425.99 73.15 417.1 70.57 406.23 62.53 400.56 41.81 398.87 26.22 410.15 25.9 415.51 16.63 425.86 18.77 Z" id="LV-005" data-name="Alojas"/>
<path d="M 491.11 13.29 495.23 18.32 505.66 25.42 511.13 33.24 522.4 31.34 518.24 32.79 516.84 43.3 509.07 39.26 496.24 44.1 506.58 54.9 505.77 58.04 495.03 58.67 490.89 53.17 486.93 39.23 481.92 35.01 474.68 33.07 473.65 27.87 480.89 16.81 482.96 22.02 489.34 21.04 491.11 13.29 Z" id="LV-064" data-name="Nauksenu"/>
<path d="M 368.44 42.36 378.95 42.72 381.99 35.7 393.52 26.42 398.87 26.22 400.56 41.81 406.23 62.53 400.71 66.26 396.73 73.43 396.88 82.61 391.52 81.46 380.8 83.18 382.48 104.35 387.38 104.35 398.41 125.46 391.06 128.88 388.3 135.42 378.21 138.71 376.04 112.38 374.21 107.9 376 94.93 374.11 80.11 367.71 68.07 366.53 47.1 368.44 42.36 Z" id="LV-085" data-name="Salacgrivas"/>
<path d="M 593.73 101.77 602.47 105.56 610.05 114.99 621.64 109.97 632.19 103.71 642.68 103.6 644.06 117.47 634.53 120.28 632.52 133.81 622.73 134.74 620.48 140.49 607.44 137.67 607.32 143.81 598.76 148.05 594.62 154.53 585.45 152.8 585.6 145.92 590.33 133.85 587.36 129.98 589.34 118.37 594.88 115.61 592.61 110.49 593.73 101.77 Z" id="LV-009" data-name="Apes"/>
<path d="M 522.4 31.34 525.32 30.97 532.18 44.89 555.33 46.96 557.75 61.77 573.59 76.28 584.02 93.42 593.73 101.77 592.61 110.49 594.88 115.61 589.34 118.37 588.25 112.55 581.53 109.55 572.11 108.54 568.61 104.03 552.47 108.04 548.98 112.05 543.6 112.05 544.14 100.02 550.59 93.49 553.82 82.93 539.56 80.42 536.07 75.89 538.22 66.31 525.84 70.85 520.73 69.34 512.8 65.14 505.77 58.04 506.58 54.9 496.24 44.1 509.07 39.26 516.84 43.3 518.24 32.79 522.4 31.34 Z" id="LV-101" data-name="Valkas"/>
<path d="M 642.68 103.6 647.4 95.67 659.29 94.55 665.69 97.93 671.96 106.81 683.43 108.66 700.43 114.93 704.06 112.57 723.36 112.39 721.51 132.49 724.26 135.5 735.77 140.96 741.68 147.63 739.25 155.01 731.3 159.58 726.38 167.51 718.84 164.46 709.94 166.66 704.28 162.24 695.57 170 682.43 174.13 671.37 169.58 672.55 165.51 663.92 158.23 650.31 159.23 648.59 156.02 638.82 154.71 633.76 157.81 624.78 148.87 620.48 140.49 622.73 134.74 632.52 133.81 634.53 120.28 644.06 117.47 642.68 103.6 Z" id="LV-007" data-name="Aluksne"/>
<path d="M 718.84 164.46 726.38 167.51 731.3 159.58 739.25 155.01 741.68 147.63 754.31 156.29 757.75 161.04 757.84 177.22 755.99 187.81 742.4 195.99 741.86 202.75 747.3 206.29 747.33 213.69 735.42 216.33 734.67 212.18 726.13 212.18 724.88 204.34 715.34 196.94 709.57 187.69 714.34 170.55 718.84 164.46 Z" id="LV-108" data-name="Vilakas"/>
<path d="M 747.33 213.69 743.96 228.67 736.64 244.44 736.17 252 727.05 246.16 714.39 249.8 711.08 239.81 719.61 237.51 724.38 233.37 722.37 229.23 732.66 223.25 735.42 216.33 747.33 213.69 Z" id="LV-014" data-name="Baltinavas"/>
<path d="M 736.17 252 751.81 246.06 756.7 247.46 765.81 256.35 766.4 259.22 760.52 271.93 755.57 274.91 755.57 282.71 736.18 283.23 730.47 289.46 729.1 296.65 724.84 291.51 717.18 287.87 718.75 281.83 715.36 266.07 709.66 263.47 702.62 263.89 703.53 257.36 714.39 249.8 727.05 246.16 736.17 252 Z" id="LV-044" data-name="Karsavas"/>
<path d="M 760.52 271.93 762.41 275.38 773.25 283.11 775.06 299.77 778.5 305.19 789.23 310.99 785.61 320.21 774.1 315.87 766.4 324.14 760.42 314.84 754.71 310.18 745.02 313.8 741.31 307.08 727 305.35 729.1 296.65 730.47 289.46 736.18 283.23 755.57 282.71 755.57 274.91 760.52 271.93 Z" id="LV-023" data-name="Ciblas"/>
<path d="M 785.61 320.21 793.83 335.06 782.94 336.01 777.81 332.91 772.96 333.95 776.67 343.74 770.4 344.77 761.84 354.03 757.85 356.09 760.42 363.29 766.12 363.29 767.83 358.66 775.81 354.03 785.8 360.72 788.65 365.34 783.1 378.48 778.8 377.3 765.76 383.4 759.13 383.74 744.77 378.85 738.72 372.2 744 360.64 741.18 348.3 733.75 341.96 726.84 329.08 721.22 328.47 718.84 320.63 721.01 314.92 725.9 313.52 727 305.35 741.31 307.08 745.02 313.8 754.71 310.18 760.42 314.84 766.4 324.14 774.1 315.87 785.61 320.21 Z" id="LV-058" data-name="Ludzas"/>
<path d="M 791.74 391.57 787.56 388.72 780.97 391.91 783.1 378.48 788.65 365.34 785.8 360.72 775.81 354.03 767.83 358.66 766.12 363.29 760.42 363.29 757.85 356.09 761.84 354.03 770.4 344.77 776.67 343.74 772.96 333.95 777.81 332.91 782.94 336.01 793.83 335.06 794.55 350.48 799 364.04 793.97 387.74 791.74 391.57 Z" id="LV-110" data-name="Zilupes"/>
<path d="M 483.32 388.11 456.9 383.52 452.93 380.6 447.76 368.24 440.7 356.51 434.97 336.09 430.66 331.97 436.12 323.17 446.36 321.39 450.49 327.81 453.05 339.92 459.55 337.79 477.21 338.89 479.07 362.85 489.31 373.92 489.35 385.02 483.32 388.11 Z" id="LV-065" data-name="Neretas"/>
<path d="M 516.44 391.29 509.87 391.82 502.46 388.77 494.97 390.13 483.32 388.11 489.35 385.02 489.31 373.92 479.07 362.85 477.21 338.89 481.36 336.22 495.06 337.8 510.37 327.08 512.23 334.25 519.34 347.11 525.72 350.21 525.72 360.38 519.83 361.7 521.3 374.51 521.3 378.48 516.44 391.29 Z" id="LV-107" data-name="Viesites"/>
<path d="M 430.66 331.97 426.99 339.67 423.45 338.76 409.47 344.98 397.81 358.39 386.29 354.15 390.43 348.1 383.93 344.19 393.18 338.5 391.21 329.59 386.88 323.89 381.76 321.75 376.64 314.61 377.43 309.96 370.14 307.82 368.76 298.16 375.26 296.73 373.86 288.21 380.43 285.66 392.2 277.76 400.91 279.09 404.56 285.14 399.68 288.31 400.77 296.4 411.52 305.29 407.09 311.82 415.4 311.69 439.36 304.83 444.39 310.32 446.36 321.39 436.12 323.17 430.66 331.97 Z" id="LV-105" data-name="Vecumnieku"/>
<path d="M 178.1 343.05 170.77 341.26 138.07 342.37 129.73 337.33 124.76 336.99 112.55 342.78 108.4 337.13 113.05 333.98 109.4 326.38 110.73 319.2 120.57 318.72 115.66 309.53 128.29 304.1 125.81 285.94 131.58 280.44 135.24 272.12 132.32 261.41 136.97 261.37 142.06 255.76 152 250.85 149.69 244.21 144.11 242.67 147.93 236.28 152.82 240.98 160.42 242.41 164.51 236.81 172.7 238.49 168.47 250.03 163.12 266.21 168.15 275.86 169.66 292.83 173.44 296.49 174.95 304.72 186.54 299.69 192.84 307.47 191.67 321.86 196.06 325.43 194.43 335.57 209.09 341.04 189.47 350.34 185.9 349.79 178.1 343.05 Z" id="LV-088" data-name="Saldus"/>
<path d="M 57.72 367.13 50.43 372.76 40.33 375.34 29.54 387.46 25.21 403.02 10.13 405.35 7.42 390.58 2.49 378.1 1.05 368.34 8.04 367.01 10.39 386.44 13.44 386.86 16.26 376.31 24.01 362.78 24.01 349.23 29.18 350.07 33.17 355.16 46.09 354.73 54.07 359.82 57.72 367.13 Z" id="LV-081" data-name="Rucavas"/>
<path d="M 85.38 355.63 79.65 358.33 69.9 358.78 57.72 367.13 54.07 359.82 46.09 354.73 50.08 349.65 52.43 339.04 43.27 319.92 49.14 316.51 51.96 311.4 57.36 318.21 62.53 317.79 59.24 310.12 67.22 308.42 77.09 308.42 82.72 310.55 82.25 319.49 85.07 325.87 79.2 327.57 77.56 336.92 86.95 346.68 85.38 355.63 Z" id="LV-074" data-name="Priekules"/>
<path d="M 112.55 342.78 110.58 343.71 85.38 355.63 86.95 346.68 77.56 336.92 79.2 327.57 85.07 325.87 82.25 319.49 82.72 310.55 91.86 305.87 96.01 315.74 103.84 316.23 110.73 319.2 109.4 326.38 113.05 333.98 108.4 337.13 112.55 342.78 Z" id="LV-100" data-name="Vainodes"/>
<path d="M 209.09 341.04 194.43 335.57 196.06 325.43 191.67 321.86 192.84 307.47 202.32 306.87 206.29 312.46 220.27 300.31 226.96 302.45 234.25 311.39 234.45 324.6 237.99 326.38 240.95 333.87 237.6 338.5 243.57 348.82 236.97 358.18 231.42 359.51 226.4 355.6 219.82 340.06 216.24 338.05 209.09 341.04 Z" id="LV-010" data-name="Auces"/>
<path d="M 397.81 358.39 394.09 362.8 383.98 368.18 373.36 362.02 366.4 361.23 350.18 368.75 342.99 366.06 332.65 357.88 338.63 354.15 344.74 343.84 338.83 335.29 336.67 320.12 343.4 313.44 360.49 320.32 367.78 313.54 376.64 314.61 381.76 321.75 386.88 323.89 391.21 329.59 393.18 338.5 383.93 344.19 390.43 348.1 386.29 354.15 397.81 358.39 Z" id="LV-016" data-name="Bauska"/>
<path d="M 266.2 349.49 256.33 345.82 243.57 348.82 237.6 338.5 240.95 333.87 243.51 330.3 254.93 329.59 254.73 322.46 263.79 311.39 266.75 311.39 270.28 321.86 270.06 328.61 275.46 339.04 273.29 344.03 266.2 349.49 Z" id="LV-098" data-name="Tervetes"/>
<path d="M 320.51 353.97 304.42 354.62 302.4 349.52 291.74 349.65 281.57 354.65 266.2 349.49 273.29 344.03 275.46 339.04 270.06 328.61 270.28 321.86 273.85 319.4 275.08 311.57 269.27 299.25 278.02 288.46 277.24 283.55 270.54 279.13 282.42 267.71 278.16 257.2 275.44 243.44 280.38 241.35 293.54 242.43 302.47 249.91 309.34 260.4 307.87 271.64 301.8 273.07 305.1 282.41 299.88 285.69 292.63 286.61 299.13 294.55 302.5 302.16 310.35 297.02 311.79 291.15 319.92 297.45 325.04 298.88 330.75 309.61 333.87 320.02 320.94 327.93 317.16 333.65 316.67 342.88 320.83 342.55 320.51 353.97 Z" id="LV-JEL" data-name="Jelgava"/>
<path d="M 332.65 357.88 320.51 353.97 320.83 342.55 316.67 342.88 317.16 333.65 320.94 327.93 333.87 320.02 336.67 320.12 338.83 335.29 344.74 343.84 338.63 354.15 332.65 357.88 Z" id="LV-083" data-name="Rundales"/>
<path d="M 532.5 411.76 522.95 403.69 516.44 391.29 521.3 378.48 521.3 374.51 533.07 373.19 541.41 375.83 544.6 385.97 552.45 390.38 553.43 397.86 557.84 404.01 550.01 407.28 539.58 403.53 532.5 411.76 Z" id="LV-004" data-name="Aknistes"/>
<path d="M 580.02 459.58 574.7 449.25 563.77 439.72 556.97 432 550.76 427.85 540.85 421.22 532.5 411.76 539.58 403.53 550.01 407.28 557.84 404.01 561.52 406.32 570.33 393.8 577.7 387.37 589.51 389.99 593.07 401.24 595.29 415.4 598.31 424.06 587.14 431.37 590.24 437.88 585.5 443.08 592.06 451.2 593.52 457.04 580.02 459.58 Z" id="LV-036" data-name="Ilukstes"/>
<path d="M 662.92 453.82 654.18 463.15 645.67 477.35 636.88 481.9 628.49 479.73 622.84 480.9 620.52 485 608.02 482.79 592.74 475.35 585.84 470.09 580.02 459.58 593.52 457.04 592.06 451.2 585.5 443.08 590.24 437.88 587.14 431.37 598.31 424.06 595.29 415.4 593.07 401.24 591.19 387.56 588.16 383.47 591.98 382.2 596.98 380.78 608.4 386.55 610.93 393.56 616.33 388.77 623.85 395.77 626.4 392.98 634.17 397.72 643.95 394.55 652.9 394.24 653.15 398.95 659.89 411.59 661.63 418.13 657.76 419.02 660.3 429.46 657.93 444.48 662.76 446.38 662.92 453.82 Z M 612.13 453.77 619.1 451.01 624.64 439.86 622.2 427.81 614.63 434.03 607.01 432.82 603.27 436.48 608.54 440.75 609.04 448.53 612.13 453.77 Z" fill-rule="evenodd" id="LV-DGV" data-name="Daugavpils"/>
<path d="M 780.97 391.91 765.59 399.9 762.19 407.08 751.24 416.45 748.91 424.52 745.02 420.62 735.89 416.54 736.18 422.15 728.19 420.11 715.93 412.46 705.66 415.01 705.95 403.77 694.26 405.31 691.69 397.64 702.53 392.01 697.78 379.57 714.52 378.31 714.45 374.25 722.86 370.61 738.72 372.2 744.77 378.85 759.13 383.74 765.76 383.4 778.8 377.3 783.1 378.48 780.97 391.91 Z" id="LV-024" data-name="Dagdas"/>
<path d="M 748.91 424.52 747.19 427.6 736.23 434.86 733.17 443.56 730.47 460.1 713.52 459.22 703.7 452.85 696.3 460.57 691.13 459.79 684.26 453.93 677.39 451.86 662.92 453.82 662.76 446.38 657.93 444.48 660.3 429.46 657.76 419.02 661.63 418.13 669.73 423.17 681.42 422.66 686.56 417.56 685.99 408.88 694.26 405.31 705.95 403.77 705.66 415.01 715.93 412.46 728.19 420.11 736.18 422.15 735.89 416.54 745.02 420.62 748.91 424.52 Z" id="LV-047" data-name="Kraslavas"/>
<path d="M 29.18 350.07 24.01 349.23 24.01 362.78 16.26 376.31 13.44 386.86 10.39 386.44 8.04 367.01 1.05 368.34 2.34 362.18 1 342.65 4.84 331.32 8.19 325.72 11.21 321.73 18.37 320.77 20.49 334.37 27.53 333.95 29.18 350.07 Z" id="LV-066" data-name="Nicas"/>
<path d="M 10.07 318.32 4.59 314.53 6.52 297.53 11.65 299.39 15.61 313.98 10.07 318.32 Z" id="LV-LPX" data-name="Liepāja"/>
<path d="M 46.09 354.73 33.17 355.16 29.18 350.07 27.53 333.95 20.49 334.37 18.37 320.77 11.21 321.73 10.07 318.32 15.61 313.98 11.65 299.39 6.52 297.53 9.33 289.28 17.67 293.48 21.19 284.08 27.53 291.35 32.7 289.21 35.28 298.18 32.23 302.87 32.47 314.38 42.56 311.83 43.27 319.92 52.43 339.04 50.08 349.65 46.09 354.73 Z" id="LV-032" data-name="Grobinas"/>
<path d="M 32.7 289.21 27.53 291.35 21.19 284.08 17.67 293.48 9.33 289.28 11.43 265.57 10.05 254.58 11.43 251.08 28.8 238.71 40.4 225.39 47.85 231.7 48.97 235.53 58.59 239.49 52.32 246.8 52.66 252.37 39.51 258.81 39.04 272.53 32.94 272.53 35.99 284.08 32.7 289.21 Z" id="LV-071" data-name="Pavilostas"/>
<path d="M 47.85 231.7 40.4 225.39 46.38 218.25 49.8 205.24 48.42 189.39 49.94 182.57 50.66 161.43 57.15 152.27 60.59 143.07 63.95 150.77 72.7 140.87 78.58 138.53 72.72 123.72 81.27 106.88 89.25 100.56 109.54 99.15 114.32 97.64 135.83 85.85 140.36 93.64 144.37 108.16 144.35 116.75 133.62 124 129.59 131.03 131.11 137.77 142.99 139.13 145.48 142.52 145.91 152.14 148.42 161.4 135.77 176.98 137.14 184 135.6 194.82 124.88 199.47 116.08 197.02 107.41 200.37 97.86 200.12 82.63 196.39 74.9 196.92 67.45 202.72 60 204.75 56.41 217.44 56.24 225.85 47.85 231.7 Z" id="LV-VEN" data-name="Ventspils"/>
<path d="M 72.72 123.72 78.58 138.53 72.7 140.87 63.95 150.77 60.59 143.07 72.72 123.72 Z" id="LV-VEN" data-name="Ventspils"/>
<path d="M 142.99 139.13 131.11 137.77 129.59 131.03 133.62 124 144.35 116.75 144.37 108.16 140.36 93.64 135.83 85.85 167.69 68.35 178.93 64.79 180.52 68.07 179.08 84.33 177.22 94.2 181.5 102.19 183.26 117.68 174.7 118.61 169.92 126.11 166.89 135.94 161.1 134.53 152.79 136.4 145.49 133.13 142.99 139.13 Z" id="LV-027" data-name="Dundagas"/>
<path d="M 183.26 117.68 181.5 102.19 177.22 94.2 179.08 84.33 180.58 91.51 186.67 100.63 211.22 122.08 223.96 136.28 217.26 143.42 207.69 141.08 196.11 126.58 183.26 117.68 Z" id="LV-079" data-name="Rojas"/>
<path d="M 137.14 184 135.77 176.98 148.42 161.4 145.91 152.14 145.48 142.52 142.99 139.13 145.49 133.13 152.79 136.4 161.1 134.53 166.89 135.94 169.92 126.11 174.7 118.61 183.26 117.68 196.11 126.58 207.69 141.08 217.26 143.42 223.96 136.28 228.02 139.84 225.32 145.28 215.75 152.29 219.53 159.75 230.61 162.55 233.41 171.67 228.95 177.42 220.95 182.84 216.95 190.76 203.41 192.38 198.21 197.3 185.07 200.87 185.94 211.63 184.44 216.85 170.38 217.26 156.52 216.08 154.35 211.48 152.83 197.76 143.34 190.67 137.14 184 Z" id="LV-097" data-name="Talsi"/>
<path d="M 233.41 171.67 230.61 162.55 219.53 159.75 215.75 152.29 225.32 145.28 228.02 139.84 238.9 144.68 242.2 155.34 238.66 156.62 236.98 166.21 233.41 171.67 Z" id="LV-063" data-name="Mersraga"/>
<path d="M 236.98 166.21 238.66 156.62 242.2 155.34 246.45 174.57 249.06 178.07 252.15 196.87 262.02 208.2 280.58 213.74 288.29 223.68 279.61 227.87 277.12 232.9 265.57 238.15 255.13 237.07 240.16 233.1 246.27 226.6 244.1 217.56 250.01 206.7 247.05 198.73 237.01 192.19 239.18 177.66 236.98 166.21 Z" id="LV-029" data-name="Engures"/>
<path d="M 277.12 232.9 279.61 227.87 288.29 223.68 301.13 226.68 319.96 222.05 326.66 218.78 329.7 221.8 327.8 225.51 319.72 229.13 298.65 234.54 289.59 235.63 278.76 233.27 277.12 232.9 Z" id="LV-JUR" data-name="Jurmala"/>
<path d="M 329.7 221.8 326.66 218.78 333.75 213.74 338.64 206.09 347.16 202.09 352.6 209.37 368.04 221.88 369.99 226.32 360.56 234.12 363.21 245.71 356.41 243.88 351.83 239.78 344.42 245.07 342.01 243.06 337.64 236.3 328.4 232.46 334.82 224.25 329.7 221.8 Z" id="LV-RIX" data-name="Riga"/>
<path d="M 352.6 209.37 347.16 202.09 357.93 194.99 361 189.75 371.16 179.55 373.14 182.78 371.91 194.08 363.95 200.01 361.95 207.9 352.6 209.37 Z" id="LV-020" data-name="Carnikavas"/>
<path d="M 373.14 182.78 371.16 179.55 378.85 167.67 379.31 149.32 385.53 160.2 388.46 171.75 383.71 172.32 375.74 183.07 373.14 182.78 Z" id="LV-089" data-name="Saulkrastu"/>
<path d="M 406.23 62.53 417.1 70.57 425.99 73.15 426.29 84.04 433.03 86.9 431.81 92.63 431.66 101.21 435.64 106.79 447.33 106.89 453.64 118.19 442.7 127.89 427.98 136.21 426.32 139.63 410.52 140.83 412.05 149.07 404.85 155.03 410.21 161.84 413.27 173.99 409.79 174.8 395.3 155.8 385.53 160.2 379.31 149.32 378.21 138.71 388.3 135.42 391.06 128.88 398.41 125.46 387.38 104.35 382.48 104.35 380.8 83.18 391.52 81.46 396.88 82.61 396.73 73.43 400.71 66.26 406.23 62.53 Z" id="LV-054" data-name="Limbaži"/>
<path d="M 589.34 118.37 587.36 129.98 590.33 133.85 585.6 145.92 585.45 152.8 583.89 162.82 566.18 163.58 561.48 166.21 554.11 161.17 529.68 163.47 526.95 164.21 525.62 159.82 527.67 151.44 522.52 142.03 523.52 138.51 517.35 125.49 524.01 118.94 530.39 118.3 547.9 123.07 550.59 119.06 548.98 112.05 552.47 108.04 568.61 104.03 572.11 108.54 581.53 109.55 588.25 112.55 589.34 118.37 Z" id="LV-094" data-name="Smiltenes"/>
<path d="M 682.43 174.13 695.57 170 704.28 162.24 709.94 166.66 718.84 164.46 714.34 170.55 709.57 187.69 715.34 196.94 724.88 204.34 726.13 212.18 734.67 212.18 735.42 216.33 732.66 223.25 722.37 229.23 724.38 233.37 719.61 237.51 711.08 239.81 714.39 249.8 703.53 257.36 702.62 263.89 685.68 261.65 682.89 258.12 671.56 260.33 661.46 258.48 657.3 254.15 660.04 251.01 663.54 244.65 669.16 243.49 687.23 248.08 689.99 241.19 701.79 232.91 699.78 224.17 701.04 207.57 695.01 207.11 681.46 202.03 675.94 196.94 666.08 196.86 679.53 179.57 682.43 174.13 Z" id="LV-015" data-name="Balvu"/>
<path d="M 520.73 69.34 525.84 70.85 538.22 66.31 536.07 75.89 539.56 80.42 553.82 82.93 550.59 93.49 544.14 100.02 543.6 112.05 548.98 112.05 550.59 119.06 547.9 123.07 530.39 118.3 535.39 113.16 521.42 94.51 510 94.8 503.62 91.65 503.28 85.55 511.07 83.55 513.31 73.22 520.73 69.34 Z" id="LV-096" data-name="Strencu"/>
<path d="M 530.39 118.3 524.01 118.94 517.35 125.49 511.23 124.66 502.9 130.9 488.8 130.27 486.41 116.37 492.44 117.02 495.2 110.59 510 94.8 521.42 94.51 535.39 113.16 530.39 118.3 Z" id="LV-017" data-name="Beverinas"/>
<path d="M 471.92 56.41 474.68 60.94 495.03 58.67 505.77 58.04 512.8 65.14 520.73 69.34 513.31 73.22 511.07 83.55 503.28 85.55 503.62 91.65 510 94.8 495.2 110.59 493.31 106.73 486.58 108.02 466.75 86.45 465.71 82.58 455.2 86.77 453.21 75.89 455.74 69.69 453.38 63.25 446.79 57.2 448.64 53.49 459.5 54.79 460.54 47.34 471.92 56.41 Z" id="LV-019" data-name="Burtnieku"/>
<path d="M 431.81 92.63 437.66 95.23 443.93 90.2 454.2 91.58 455.2 86.77 465.71 82.58 466.75 86.45 486.58 108.02 486.41 116.37 488.8 130.27 487.48 141.56 480.43 137.59 474.92 137.71 466.56 134.24 460.35 126.07 458.42 119.27 453.64 118.19 447.33 106.89 435.64 106.79 431.66 101.21 431.81 92.63 Z" id="LV-045" data-name="Kocenu"/>
<path d="M 702.62 263.89 709.66 263.47 715.36 266.07 718.75 281.83 717.18 287.87 724.84 291.51 729.1 296.65 727 305.35 725.9 313.52 721.01 314.92 718.84 320.63 721.22 328.47 726.84 329.08 733.75 341.96 741.18 348.3 744 360.64 738.72 372.2 722.86 370.61 714.45 374.25 714.52 378.31 697.78 379.57 681.8 378.5 669.37 384.11 659.05 357.77 664.21 354.08 653.9 338.21 656.96 330.97 668.88 330.85 669.73 327.24 666.02 315.87 663.17 301.9 655.76 300.34 648.91 288.94 640.13 284.31 641.27 279.02 657.3 254.15 661.46 258.48 671.56 260.33 682.89 258.12 685.68 261.65 702.62 263.89 Z M 702.53 325.53 705.25 309.49 699.34 309.87 695.4 317.42 696.54 322.59 702.53 325.53 Z" fill-rule="evenodd" id="LV-REZ" data-name="Rezeknes"/>
<path d="M 526.95 164.21 529.68 163.47 526.94 176.82 529.87 179.68 530.22 188.91 541.94 200.35 546.56 200.32 543.53 214.75 546.61 221.48 542.51 227.29 534.5 222.74 524.97 220.32 515.27 223.2 507.12 223.68 500.39 221.11 512.8 206.7 510.38 197.81 504.52 195.27 506.93 190.18 508.31 178.73 506.59 174.91 511.07 166.3 526.95 164.21 Z" id="LV-104" data-name="Vecpiebalgas"/>
<path d="M 517.35 125.49 523.52 138.51 522.52 142.03 527.67 151.44 525.62 159.82 526.95 164.21 511.07 166.3 501.24 146.82 505.03 143.3 511.24 143.3 517.35 125.49 Z M 529.68 163.47 554.11 161.17 561.48 166.21 555.48 170.57 556.51 175.21 549.01 181.28 540.56 182.55 535.04 178.09 529.87 179.68 526.94 176.82 529.68 163.47 Z" fill-rule="evenodd" id="LV-076" data-name="Raunas"/>
<path d="M 488.8 130.27 502.9 130.9 511.23 124.66 517.35 125.49 511.24 143.3 505.03 143.3 501.24 146.82 511.07 166.3 506.59 174.91 500.03 176.18 500.03 169.49 496.24 163.75 488.31 158.64 480.54 157.36 470.37 152.89 476.41 146.82 484.17 147.46 487.48 141.56 488.8 130.27 Z" id="LV-075" data-name="Priekulu"/>
<path d="M 426.32 139.63 427.98 136.21 442.7 127.89 453.64 118.19 458.42 119.27 460.35 126.07 466.56 134.24 474.92 137.71 480.43 137.59 487.48 141.56 484.17 147.46 476.41 146.82 470.37 152.89 470.37 159.92 467.61 166.3 459.33 165.98 454.85 169.81 442.77 171.72 437.5 170.09 437.79 163.56 432.61 157.25 431.76 151.54 426.32 139.63 Z" id="LV-070" data-name="Pargaujas"/>
<path d="M 409.79 174.8 413.27 173.99 410.21 161.84 404.85 155.03 412.05 149.07 410.52 140.83 426.32 139.63 431.76 151.54 432.61 157.25 437.79 163.56 437.5 170.09 433.9 175.7 432.12 179.67 425.38 183.07 420.63 192.67 415.88 190.13 408.06 194.65 408.98 185.61 403.01 184.2 402.55 178.83 409.79 174.8 Z" id="LV-048" data-name="Krimuldas"/>
<path d="M 585.45 152.8 594.62 154.53 598.76 148.05 607.32 143.81 607.44 137.67 620.48 140.49 624.78 148.87 633.76 157.81 638.82 154.71 648.59 156.02 650.31 159.23 663.92 158.23 672.55 165.51 671.37 169.58 682.43 174.13 679.53 179.57 666.08 196.86 660.02 206.93 649.82 216.41 649.77 223.5 638.48 221.48 617.61 230.49 613.73 214.95 605.92 207.66 595.72 211.03 591.26 205.51 584.95 202.42 575.21 203.33 567.89 204.25 573.55 190.99 566.32 179.24 556.51 175.21 555.48 170.57 561.48 166.21 566.18 163.58 583.89 162.82 585.45 152.8 Z" id="LV-033" data-name="Gulbene"/>
<path d="M 666.08 196.86 675.94 196.94 681.46 202.03 695.01 207.11 701.04 207.57 699.78 224.17 701.79 232.91 689.99 241.19 687.23 248.08 669.16 243.49 663.54 244.65 660.11 236.08 655.42 232.32 656.06 226.26 649.77 223.5 649.82 216.41 660.02 206.93 666.08 196.86 Z" id="LV-082" data-name="Rugaju"/>
<path d="M 546.56 200.32 541.94 200.35 530.22 188.91 529.87 179.68 535.04 178.09 540.56 182.55 549.01 181.28 556.51 175.21 566.32 179.24 573.55 190.99 567.89 204.25 557.51 203.96 546.56 200.32 Z" id="LV-039" data-name="Jaunpiebalgas"/>
<path d="M 661.63 418.13 659.89 411.59 653.15 398.95 652.9 394.24 661.68 386.32 669.37 384.11 681.8 378.5 697.78 379.57 702.53 392.01 691.69 397.64 694.26 405.31 685.99 408.88 686.56 417.56 681.42 422.66 669.73 423.17 661.63 418.13 Z" id="LV-001" data-name="Aglonas"/>
<path d="M 656.96 330.97 653.9 338.21 664.21 354.08 659.05 357.77 669.37 384.11 661.68 386.32 652.9 394.24 652.23 389.66 643.35 383.11 647.45 377.38 641.3 363.85 636.74 362.21 626.72 353.17 628.77 346.59 635.83 341.25 630.59 334.66 623.76 330.54 618.52 333.83 614.19 331.36 614.57 322.58 620.59 319.22 624.18 311.79 632.84 311.32 636.95 308.77 644.88 312.53 643.99 320.83 654.42 324.68 656.96 330.97 Z" id="LV-078" data-name="Riebinu"/>
<path d="M 640.13 284.31 648.91 288.94 655.76 300.34 663.17 301.9 666.02 315.87 669.73 327.24 668.88 330.85 656.96 330.97 654.42 324.68 643.99 320.83 644.88 312.53 636.95 308.77 635.36 304.88 641.92 299.13 640.13 284.31 Z" id="LV-109" data-name="Vilanu"/>
<path d="M 309.34 260.4 302.47 249.91 293.54 242.43 280.38 241.35 278.76 233.27 289.59 235.63 298.65 234.54 319.72 229.13 327.8 225.51 329.7 221.8 334.82 224.25 328.4 232.46 315.19 243.56 318.74 255.09 315.39 259.77 309.34 260.4 Z" id="LV-012" data-name="Babites"/>
<path d="M 369.99 226.32 368.04 221.88 352.6 209.37 361.95 207.9 370.07 214.38 374.67 208.47 385.24 205.37 390.75 198.6 397.01 207.91 392.11 209.52 393.29 219.65 378.92 221.1 375.66 231.29 369.99 226.32 Z" id="LV-031" data-name="Garkalnes"/>
<path d="M 344.42 245.07 351.83 239.78 356.41 243.88 354.19 246.81 358.72 254.73 368.96 255.45 372.39 250.11 383.62 252.82 391.19 256.97 393.87 264.93 392.6 269.98 372.9 263 362.66 263.36 364.43 271.27 356.16 272.35 355.44 276.9 350.75 274.84 338.63 276.3 335.61 278.5 334.31 274.38 335.28 268.04 344.15 268.04 348.28 256.17 344.74 251.13 344.42 245.07 Z" id="LV-052" data-name="Kekavas"/>
<path d="M 328.4 232.46 337.64 236.3 342.01 243.06 336.07 250.05 322.09 251.85 318.74 255.09 315.19 243.56 328.4 232.46 Z" id="LV-062" data-name="Marupes"/>
<path d="M 307.87 271.64 309.34 260.4 315.39 259.77 318.74 255.09 322.09 251.85 336.07 250.05 342.01 243.06 344.42 245.07 344.74 251.13 348.28 256.17 344.15 268.04 335.28 268.04 334.31 274.38 328.26 274.76 323.8 271.3 312.82 274.57 307.87 271.64 Z M 335.61 278.5 338.63 276.3 350.75 274.84 355.44 276.9 360.1 280.62 352.36 286.5 338.45 282.86 335.61 278.5 Z" fill-rule="evenodd" id="LV-068" data-name="Olaines"/>
<path d="M 356.41 243.88 363.21 245.71 360.56 234.12 373.69 238.15 379.4 234.9 385.09 242.92 383.62 252.82 372.39 250.11 368.96 255.45 358.72 254.73 354.19 246.81 356.41 243.88 Z" id="LV-087" data-name="Salaspils"/>
<path d="M 360.56 234.12 369.99 226.32 375.66 231.29 379.4 234.9 373.69 238.15 360.56 234.12 Z" id="LV-095" data-name="Stopinu"/>
<path d="M 375.74 183.07 383.71 172.32 388.46 171.75 385.53 160.2 395.3 155.8 409.79 174.8 402.55 178.83 403.01 184.2 408.98 185.61 408.06 194.65 397.34 192.11 390.75 198.6 386.16 183.07 375.74 183.07 Z" id="LV-090" data-name="Sejas"/>
<path d="M 461.12 222.21 460.58 230.01 448.87 233.4 439.9 232.06 432.8 235.68 423.65 233.42 424.8 222.18 432.73 217.76 432.58 208.75 430.12 201.14 443.11 203.88 443.69 207.79 461.12 222.21 Z" id="LV-061" data-name="Malpils"/>
<path d="M 420.63 192.67 425.38 183.07 432.12 179.67 433.9 175.7 441.91 184.02 443.49 194.8 457.26 197.81 463.47 206.38 459.5 209.55 463.47 217.16 461.12 222.21 443.69 207.79 443.11 203.88 430.12 201.14 432.58 208.75 432.73 217.76 424.8 222.18 414.76 222.18 408.46 217.48 404.13 207.71 409.44 207.9 418.33 204.24 417.26 200.01 420.63 192.67 Z" id="LV-091" data-name="Siguldas"/>
<path d="M 660.04 251.01 657.3 254.15 641.27 279.02 640.13 284.31 633.35 279 626.45 277.12 621.97 282.46 614.04 284.97 597.82 284.97 596.4 293.35 592.78 299.77 579.77 298.56 576.08 292.06 569.46 289.74 557.55 294.67 553.22 287.39 547.55 292.96 544.76 281.05 536.78 278.04 535.96 270.59 537.7 262.57 529.19 254.73 527.28 246.88 530.22 242.15 539.53 238.99 549.19 238.99 549.88 235.2 542.51 227.29 546.61 221.48 543.53 214.75 546.56 200.32 557.51 203.96 567.89 204.25 575.21 203.33 574.37 213.04 577.13 229.82 579.54 234.57 586.61 232.04 590.92 233.93 598.34 226.03 595.72 211.03 605.92 207.66 613.73 214.95 617.61 230.49 607.14 249.41 614.04 260.13 618.69 259.5 629.21 246.88 629.9 243.41 649.91 240.25 652.5 245.62 660.04 251.01 Z" id="LV-059" data-name="Madona"/>
<path d="M 663.54 244.65 660.04 251.01 652.5 245.62 649.91 240.25 629.9 243.41 629.21 246.88 618.69 259.5 614.04 260.13 607.14 249.41 617.61 230.49 638.48 221.48 649.77 223.5 656.06 226.26 655.42 232.32 660.11 236.08 663.54 244.65 Z" id="LV-057" data-name="Lubanas"/>
<path d="M 636.95 308.77 632.84 311.32 624.18 311.79 619.29 307.83 620.43 301.51 608.4 299.31 596.4 293.35 597.82 284.97 614.04 284.97 621.97 282.46 626.45 277.12 633.35 279 640.13 284.31 641.92 299.13 635.36 304.88 636.95 308.77 Z" id="LV-102" data-name="Varaklanu"/>
<path d="M 506.93 190.18 504.52 195.27 510.38 197.81 512.8 206.7 500.39 221.11 498.65 221.18 491.87 230.44 485.87 231.9 483.93 225.39 476.17 227.17 470.65 233.34 460.58 230.01 461.12 222.21 463.47 217.16 459.5 209.55 463.47 206.38 457.26 197.81 463.99 196.22 468.3 190.5 465.71 187 462.44 173.95 454.85 169.81 459.33 165.98 467.61 166.3 470.37 159.92 476.58 163.11 484.51 172.99 486.75 181.91 495.38 188.28 506.93 190.18 Z" id="LV-008" data-name="Amatas"/>
<path d="M 500.39 221.11 507.12 223.68 515.27 223.2 524.97 220.32 534.5 222.74 542.51 227.29 549.88 235.2 549.19 238.99 539.53 238.99 530.22 242.15 527.28 246.88 529.19 254.73 525.31 263.96 521.12 266.34 518.54 262.62 500.54 257.77 498.15 246.88 503.43 233.67 498.65 221.18 500.39 221.11 Z" id="LV-030" data-name="Erglu"/>
<path d="M 575.21 203.33 584.95 202.42 591.26 205.51 595.72 211.03 598.34 226.03 590.92 233.93 586.61 232.04 579.54 234.57 577.13 229.82 574.37 213.04 575.21 203.33 Z" id="LV-021" data-name="Cesvaines"/>
<path d="M 423.65 233.42 432.8 235.68 439.9 232.06 448.87 233.4 460.58 230.01 470.65 233.34 476.17 227.17 483.93 225.39 485.87 231.9 491.87 230.44 498.65 221.18 503.43 233.67 498.15 246.88 500.54 257.77 487.96 268.2 477.4 269.55 475.54 281.13 464.29 279.83 455.61 273.04 449.45 262.51 436.45 260.27 424.68 253.54 421 264.3 414.56 273.18 411.55 269.07 402.84 263.45 399.45 257.95 408.15 249.69 415.83 247.17 411.08 241.17 423.65 233.42 Z" id="LV-067" data-name="Ogre"/>
<path d="M 375.66 231.29 378.92 221.1 393.29 219.65 392.11 209.52 397.01 207.91 404.13 207.71 408.46 217.48 414.76 222.18 424.8 222.18 423.65 233.42 411.08 241.17 397.98 242.95 392.02 240.25 385.09 242.92 379.4 234.9 375.66 231.29 Z" id="LV-080" data-name="Ropazu"/>
<path d="M 391.19 256.97 383.62 252.82 385.09 242.92 392.02 240.25 397.98 242.95 411.08 241.17 415.83 247.17 408.15 249.69 399.45 257.95 391.19 256.97 Z" id="LV-035" data-name="Ikskiles"/>
<path d="M 392.2 277.76 380.43 285.66 373.86 288.21 360.1 280.62 355.44 276.9 356.16 272.35 364.43 271.27 362.66 263.36 372.9 263 392.6 269.98 392.2 277.76 Z" id="LV-013" data-name="Baldones"/>
<path d="M 439.36 304.83 415.4 311.69 407.09 311.82 411.52 305.29 400.77 296.4 399.68 288.31 404.56 285.14 400.91 279.09 392.2 277.76 392.6 269.98 393.87 264.93 391.19 256.97 399.45 257.95 402.84 263.45 411.55 269.07 414.56 273.18 421 264.3 424.68 253.54 436.45 260.27 427.87 272.8 422.81 277.45 430.35 281.42 434.43 291 443.96 296.46 447.55 295.62 450.32 298.14 449.52 302.53 439.36 304.83 Z" id="LV-051" data-name="Keguma"/>
<path d="M 373.86 288.21 375.26 296.73 368.76 298.16 370.14 307.82 377.43 309.96 376.64 314.61 367.78 313.54 360.49 320.32 343.4 313.44 346.46 304.47 340.84 303.39 341.04 296.72 338.45 282.86 352.36 286.5 360.1 280.62 373.86 288.21 Z" id="LV-034" data-name="Iecavas"/>
<path d="M 529.19 254.73 537.7 262.57 535.96 270.59 536.78 278.04 544.76 281.05 547.55 292.96 531.7 298.68 528.25 298.09 516.11 301.26 507.64 305.2 500.94 304.78 499.46 298.17 509.04 285.31 507.57 278.16 512.72 277.27 511 267.43 517.13 269.67 521.12 266.34 525.31 263.96 529.19 254.73 Z" id="LV-072" data-name="Plavinu"/>
<path d="M 500.54 257.77 518.54 262.62 521.12 266.34 517.13 269.67 511 267.43 512.72 277.27 507.57 278.16 509.04 285.31 499.46 298.17 488.76 294.39 477.19 302.32 477.16 285.31 475.54 281.13 477.4 269.55 487.96 268.2 500.54 257.77 Z" id="LV-046" data-name="Kokneses"/>
<path d="M 464.29 279.83 475.54 281.13 477.16 285.31 477.19 302.32 468.59 302.76 460.14 296.71 464.65 292.45 464.29 279.83 Z" id="LV-002" data-name="Aizkraukles"/>
<path d="M 455.61 273.04 464.29 279.83 464.65 292.45 460.14 296.71 450.32 298.14 447.55 295.62 446.73 284.21 450.96 280.22 448.03 275.05 455.61 273.04 Z" id="LV-092" data-name="Skriveru"/>
<path d="M 436.45 260.27 449.45 262.51 455.61 273.04 448.03 275.05 450.96 280.22 446.73 284.21 447.55 295.62 443.96 296.46 434.43 291 430.35 281.42 422.81 277.45 427.87 272.8 436.45 260.27 Z" id="LV-053" data-name="Lielvardes"/>
<path d="M 477.21 338.89 459.55 337.79 453.05 339.92 450.49 327.81 446.36 321.39 444.39 310.32 439.36 304.83 449.52 302.53 450.32 298.14 460.14 296.71 468.59 302.76 477.19 302.32 488.76 294.39 499.46 298.17 500.94 304.78 507.64 305.2 511.76 307 506.41 318.4 510.37 327.08 495.06 337.8 481.36 336.22 477.21 338.89 Z" id="LV-038" data-name="Jaunjelgavas"/>
<path d="M 652.9 394.24 643.95 394.55 634.17 397.72 626.4 392.98 623.08 390.07 629 384.75 627.63 368.36 621.25 363.85 620.11 356.46 611.69 353.58 605.76 348.65 607.81 342.07 614.65 345.36 618.52 333.83 623.76 330.54 630.59 334.66 635.83 341.25 628.77 346.59 626.72 353.17 636.74 362.21 641.3 363.85 647.45 377.38 643.35 383.11 652.23 389.66 652.9 394.24 Z" id="LV-073" data-name="Preilu"/>
<path d="M 591.98 382.2 588.16 383.47 584.14 378.03 576.34 375 576.81 365.13 573.07 351.91 572.32 344.37 564.78 339.18 571.92 334.63 583.36 318.13 589.08 317.41 594.96 330.33 605.48 322.74 614.57 322.58 614.19 331.36 618.52 333.83 614.65 345.36 607.81 342.07 605.76 348.65 611.69 353.58 620.11 356.46 621.25 363.85 616.93 366.72 603.71 367.13 594.15 358.1 593.92 365.49 587.31 363.44 591.98 382.2 Z" id="LV-056" data-name="Livanu"/>
<path d="M 626.4 392.98 623.85 395.77 616.33 388.77 610.93 393.56 608.4 386.55 596.98 380.78 591.98 382.2 587.31 363.44 593.92 365.49 594.15 358.1 603.71 367.13 616.93 366.72 621.25 363.85 627.63 368.36 629 384.75 623.08 390.07 626.4 392.98 Z" id="LV-103" data-name="Varkavas"/>
<path d="M 521.3 374.51 519.83 361.7 525.72 360.38 525.72 350.21 532.34 348.43 537.73 337.8 534.05 331.59 535.28 323.16 541.43 321.46 561.11 330.23 564.78 339.18 572.32 344.37 573.07 351.91 576.81 365.13 576.34 375 584.14 378.03 588.16 383.47 591.19 387.56 593.07 401.24 589.51 389.99 577.7 387.37 570.33 393.8 561.52 406.32 557.84 404.01 553.43 397.86 552.45 390.38 544.6 385.97 541.41 375.83 533.07 373.19 521.3 374.51 Z" id="LV-JKB" data-name="Jekabpils"/>
<path d="M 624.18 311.79 620.59 319.22 614.57 322.58 605.48 322.74 594.96 330.33 589.08 317.41 583.36 318.13 571.92 334.63 564.78 339.18 561.11 330.23 541.43 321.46 546.8 317.83 541.66 313.38 535.91 315.1 531.55 314.47 527.27 307.27 528.25 298.09 531.7 298.68 547.55 292.96 553.22 287.39 557.55 294.67 569.46 289.74 576.08 292.06 579.77 298.56 592.78 299.77 596.4 293.35 608.4 299.31 620.43 301.51 619.29 307.83 624.18 311.79 Z" id="LV-049" data-name="Krustpils"/>
<path d="M 525.72 350.21 519.34 347.11 512.23 334.25 510.37 327.08 506.41 318.4 511.76 307 507.64 305.2 516.11 301.26 528.25 298.09 527.27 307.27 531.55 314.47 535.91 315.1 535.28 323.16 534.05 331.59 537.73 337.8 532.34 348.43 525.72 350.21 Z" id="LV-086" data-name="Salas"/>
<path d="M 82.72 310.55 77.09 308.42 67.22 308.42 72.39 302.87 71.22 291.78 67.22 288.79 54.07 291.35 51.72 285.79 41.39 276.81 39.04 272.53 39.51 258.81 52.66 252.37 52.32 246.8 58.56 247.38 61.06 251.55 69.57 251.32 73.61 260.43 79.16 262.1 85.59 267.62 88.8 279.54 94.9 282.94 95.06 291.1 89.81 297.8 91.86 305.87 82.72 310.55 Z" id="LV-003" data-name="Aizputes"/>
<path d="M 164.51 236.81 160.42 242.41 152.82 240.98 147.93 236.28 144.11 242.67 149.69 244.21 152 250.85 142.06 255.76 136.97 261.37 132.32 261.41 124.58 255.63 112.49 256.09 107.21 260.7 109.98 274.02 101.92 276.32 94.9 282.94 88.8 279.54 85.59 267.62 79.16 262.1 73.61 260.43 69.57 251.32 61.06 251.55 58.56 247.38 52.32 246.8 58.59 239.49 66.41 238.12 68.67 233.97 74.72 233.51 82.02 228.89 80.51 220.57 76.48 218.26 74.72 210.39 67.45 202.72 74.9 196.92 82.63 196.39 97.86 200.12 107.41 200.37 116.08 197.02 124.88 199.47 135.6 194.82 137.14 184 143.34 190.67 152.83 197.76 154.35 211.48 156.52 216.08 170.38 217.26 166.44 223.61 164.51 236.81 Z" id="LV-050" data-name="Kuldigas"/>
<path d="M 58.59 239.49 48.97 235.53 47.85 231.7 56.24 225.85 56.41 217.44 60 204.75 67.45 202.72 74.72 210.39 76.48 218.26 80.51 220.57 82.02 228.89 74.72 233.51 68.67 233.97 66.41 238.12 58.59 239.49 Z" id="LV-006" data-name="Alsungas"/>
<path d="M 132.32 261.41 135.24 272.12 131.58 280.44 125.81 285.94 128.29 304.1 115.66 309.53 120.57 318.72 110.73 319.2 103.84 316.23 96.01 315.74 91.86 305.87 89.81 297.8 95.06 291.1 94.9 282.94 101.92 276.32 109.98 274.02 107.21 260.7 112.49 256.09 124.58 255.63 132.32 261.41 Z" id="LV-093" data-name="Skrundas"/>
<path d="M 168.47 250.03 172.7 238.49 164.51 236.81 166.44 223.61 170.38 217.26 184.44 216.85 185.94 211.63 185.07 200.87 198.21 197.3 203.41 192.38 216.95 190.76 219.68 194.37 213.18 201.99 207.07 204.16 211.21 216.11 205.89 218.65 205.89 230.21 215.35 237.07 218.3 249.33 210.82 248.61 207.66 254.73 201.31 259.63 185.12 258.75 184.27 255.55 168.47 250.03 Z" id="LV-043" data-name="Kandavas"/>
<path d="M 280.38 241.35 275.44 243.44 278.16 257.2 269.59 261.94 265.87 260.25 260.02 264 260.38 270.57 257.56 277.42 248.33 278.28 243.48 282.02 238.14 280.74 234.84 276.3 230.71 261.57 217.12 258.33 218.3 249.33 215.35 237.07 205.89 230.21 205.89 218.65 211.21 216.11 207.07 204.16 213.18 201.99 219.68 194.37 216.95 190.76 220.95 182.84 228.95 177.42 233.41 171.67 236.98 166.21 239.18 177.66 237.01 192.19 247.05 198.73 250.01 206.7 244.1 217.56 246.27 226.6 240.16 233.1 255.13 237.07 265.57 238.15 277.12 232.9 278.76 233.27 280.38 241.35 Z" id="LV-099" data-name="Tukums"/>
<path d="M 240.95 333.87 237.99 326.38 234.45 324.6 234.25 311.39 226.96 302.45 220.27 300.31 206.29 312.46 202.32 306.87 200.42 299.32 207.02 297.1 209.05 291.68 205.39 280.88 213.92 278.17 223.03 278.34 227.72 281.52 238.14 280.74 243.48 282.02 248.33 278.28 257.56 277.42 260.38 270.57 260.02 264 265.87 260.25 269.59 261.94 278.16 257.2 282.42 267.71 270.54 279.13 277.24 283.55 278.02 288.46 269.27 299.25 275.08 311.57 273.85 319.4 270.28 321.86 266.75 311.39 263.79 311.39 254.73 322.46 254.93 329.59 243.51 330.3 240.95 333.87 Z" id="LV-026" data-name="Dobele"/>
<path d="M 201.31 259.63 207.66 254.73 210.82 248.61 218.3 249.33 217.12 258.33 230.71 261.57 234.84 276.3 238.14 280.74 227.72 281.52 223.03 278.34 213.92 278.17 205.39 280.88 204.8 266.13 201.31 259.63 Z" id="LV-040" data-name="Jaunpils"/>
<path d="M 192.84 307.47 186.54 299.69 174.95 304.72 173.44 296.49 169.66 292.83 168.15 275.86 163.12 266.21 168.47 250.03 184.27 255.55 185.12 258.75 201.31 259.63 204.8 266.13 205.39 280.88 209.05 291.68 207.02 297.1 200.42 299.32 202.32 306.87 192.84 307.47 Z" id="LV-018" data-name="Brocenu"/>
<path d="M 343.4 313.44 336.67 320.12 333.87 320.02 330.75 309.61 325.04 298.88 319.92 297.45 311.79 291.15 311.98 284.21 305.1 282.41 301.8 273.07 307.87 271.64 312.82 274.57 323.8 271.3 328.26 274.76 334.31 274.38 335.61 278.5 338.45 282.86 341.04 296.72 340.84 303.39 346.46 304.47 343.4 313.44 Z" id="LV-069" data-name="Ozolnieku"/>
<path d="M 311.79 291.15 310.35 297.02 302.5 302.16 299.13 294.55 292.63 286.61 299.88 285.69 305.1 282.41 311.98 284.21 311.79 291.15 Z" id="LV-JEL" data-name="Jelgava"/>
<path d="M 612.13 453.77 609.04 448.53 608.54 440.75 603.27 436.48 607.01 432.82 614.63 434.03 622.2 427.81 624.64 439.86 619.1 451.01 612.13 453.77 Z" id="LV-DGV" data-name="Daugavpils"/>
<path d="M 702.53 325.53 696.54 322.59 695.4 317.42 699.34 309.87 705.25 309.49 702.53 325.53 Z" id="LV-REZ" data-name="Rezekne"/>
<path d="M 67.22 308.42 59.24 310.12 62.53 317.79 57.36 318.21 51.96 311.4 49.14 316.51 43.27 319.92 42.56 311.83 32.47 314.38 32.23 302.87 35.28 298.18 32.7 289.21 35.99 284.08 32.94 272.53 39.04 272.53 41.39 276.81 51.72 285.79 54.07 291.35 67.22 288.79 71.22 291.78 72.39 302.87 67.22 308.42 Z" id="LV-028" data-name="Durbes"/>
<path d="M 408.06 194.65 415.88 190.13 420.63 192.67 417.26 200.01 418.33 204.24 409.44 207.9 404.13 207.71 397.01 207.91 390.75 198.6 397.34 192.11 408.06 194.65 Z" id="LV-037" data-name="Incukalna"/>
<path d="M 361.95 207.9 363.95 200.01 371.91 194.08 373.14 182.78 375.74 183.07 386.16 183.07 390.75 198.6 385.24 205.37 374.67 208.47 370.07 214.38 361.95 207.9 Z" id="LV-011" data-name="Ādaži"/>
<path d="M 495.2 110.59 492.44 117.02 486.41 116.37 486.58 108.02 493.31 106.73 495.2 110.59 Z" id="LV-VMR" data-name="Valmiera"/>
<path d="M 506.59 174.91 508.31 178.73 506.93 190.18 495.38 188.28 486.75 181.91 484.51 172.99 476.58 163.11 470.37 159.92 470.37 152.89 480.54 157.36 488.31 158.64 496.24 163.75 500.03 169.49 500.03 176.18 506.59 174.91 Z" id="LV-022" data-name="Cesu"/>
<path d="M 437.5 170.09 442.77 171.72 454.85 169.81 462.44 173.95 465.71 187 468.3 190.5 463.99 196.22 457.26 197.81 443.49 194.8 441.91 184.02 433.9 175.7 437.5 170.09 Z" id="LV-055" data-name="Ligatnes"/>
<path d="M 541.43 321.46 535.28 323.16 535.91 315.1 541.66 313.38 546.8 317.83 541.43 321.46 Z" id="LV-JKB" data-name="Jekabpils"/>
</g>
</svg>