<?xml version="1.0"?>
<svg xmlns="http://www.w3.org/2000/svg" version="1.2" baseProfile="tiny" width="800" height="505" viewBox="0 0 800 505" stroke-linecap="round" stroke-linejoin="round">
<g id="MLOC-MX">
<path d="M 90.54 7.39 101.85 11.53 112.18 15.31 122.5 19.08 132.82 22.84 143.15 26.6 153.47 30.36 163.79 34.11 174.12 37.85 185.2 42.03 186.73 42.22 200.04 42.22 212.97 42.22 225.9 42.21 236.15 42.21 238.14 42.21 237.25 49.6 236.25 56.9 236.65 57.72 242.39 62.54 245.04 63.6 247.45 65.45 247.85 66.34 249.03 80 248.56 81.17 248.16 85.35 247.1 98.33 244.71 98.53 245.55 105.85 246.83 116.7 247.17 117.51 246.29 120.64 246.28 121.4 247.37 124.81 248.72 128.5 248.94 129.65 246.78 131.8 245.99 131.94 241.65 130.78 240.37 130.54 237.99 130.47 235.6 130.9 233.72 132.6 233.67 133.73 236.82 141.46 237.3 142.09 239.71 143.48 240.59 145.74 243.33 148.07 242.93 149.58 244 150.79 245.67 151.97 246.08 152.79 246.11 153.89 245.78 156.09 246.49 158.34 245.37 160.1 245.19 160.81 245.48 162.04 248.09 166.01 248.7 166.55 249.89 166.41 250.8 167.81 249.99 170.63 249.77 172.85 242.26 179.15 237.26 183.17 234.06 185.62 233.83 186.09 233.39 185.18 232 185.16 230.96 185.61 231.31 183.62 230.89 181.41 229.42 179.42 228.31 178.61 227.58 177.46 226.53 176.51 226.21 175.3 224.57 174.89 224 174.26 223.47 174.93 223.96 176.16 222.09 175.81 221 175.9 220.59 176.45 219.82 176.33 217.96 175.53 216.37 173.86 215.74 172.86 215.36 170.89 214.35 168.59 214.43 167.33 214.21 165.53 213.32 164.44 212.57 163.97 211.32 164.02 210.54 164.92 209.83 164.33 204.86 163.03 203.62 162.36 201.93 160.28 200.39 159.21 201.38 158.68 200.03 157.07 199.51 156.08 198.48 156.68 198.12 156.33 198.03 154.92 197.3 154.49 197.26 152.71 196.31 149.96 196.55 148.57 197.51 148.26 197.09 147.54 197.26 146.72 196.9 144.71 197.32 143.45 198.97 143.24 198.66 142.63 197.19 142.01 196.38 142.43 195.19 141.7 191.73 140.86 191.25 139.29 190.52 139.39 190.23 141.7 190.35 142.33 189.76 143.4 188.96 142.25 187.94 141.59 188.44 141.08 186.91 139.83 185.87 140.06 185.4 140.6 183.29 139.26 182.55 139.09 181.33 137.54 180.57 137.32 179.31 135.11 178.5 134.22 178.3 132.93 177.48 132.58 176.95 130.97 175.82 129.98 174.94 127.9 172.1 126.91 170.5 126.08 169.02 125.63 167.7 122.08 163.67 118.17 162.94 117.12 164.33 116.42 162.49 114.68 160.9 114.1 160.48 113.11 159.54 112.31 159 111.33 157.86 111.17 157.82 110.47 157.02 107.68 157.5 106.93 156.84 105.29 155.93 104.67 156.33 102.81 155.62 101 155.02 100.58 153.74 100.56 152.66 100.9 151.29 100.15 151.07 99.25 152.13 96.73 152.13 96.07 150.8 95.07 150.76 93.88 148.9 92.26 148.14 90.19 147.03 89.33 146.63 87.78 145.57 86.2 145.06 84.52 144.35 83.81 143.26 83.95 142.71 83.33 143.24 80.74 142.52 79.41 142.66 75.71 142.38 74.96 140.26 72.72 140.28 70.59 139.7 68.62 138.57 67.26 136.78 65.59 134.42 61.54 133.56 58.29 133.19 57.37 133.64 56.47 133.91 54.6 133.92 52.47 133.14 50.37 133.5 50.18 134.17 52.06 135.03 50.96 135.21 47.25 133.49 45.45 132.94 46.1 131.47 45.23 130.56 43.37 129.47 43.66 129.41 44.48 122.59 43.15 122.35 42.56 120.74 42.26 121.07 41.46 120.4 39.04 120.43 38.13 119.8 37.18 116.9 35.24 116.15 35.21 114.34 34.25 114.11 33.72 112.74 34.14 111.7 32.66 111.72 34.27 112.15 35.25 111.08 36.36 110.48 37.36 107.2 37.27 103.95 35.56 102.95 34.31 98.74 31.86 96.46 29.39 94.13 29.29 92.37 27.93 91.19 27.73 89.95 26.4 87.66 24.99 87.67 22.13 87.2 20.62 86.5 20.08 87.09 18.07 86.39 15.95 84.98 14.03 85.05 13.59 86.45 12.11 86.77 9.88 87.36 8.48 88.36 7.62 89.67 7.73 90.54 7.39 Z M 154.73 116.78 153.85 117.41 153.43 116.94 152.03 116.62 151.25 115.86 150.18 115.85 149.88 115.31 146.95 113.7 148.39 112.73 149.4 110.92 149.05 110.38 149.04 107.92 149.55 105.64 150.6 104.27 151.54 104.64 152.51 103.82 154.56 103.6 155.01 104.54 154.78 106.13 155.73 107.34 156.73 109.49 156.28 110.49 156.24 111.43 155.67 113.67 154.69 115.71 154.73 116.78 Z M 91.38 28.13 92.16 28.29 93.3 29.3 94.32 30.57 93.16 31.33 91.97 30.72 91.07 29.51 91.38 28.13 Z M 231.51 188.02 231.66 186.02 232.37 185.75 233.21 186.11 233.4 186.76 231.51 188.02 Z" fill-rule="evenodd" id="MX-SON" data-name="Sonora"/>
<path d="M 92.94 1 92.26 2.82 90.96 4.54 91.14 5.81 90.54 7.39 89.67 7.73 88.36 7.62 87.36 8.48 86.77 9.88 86.45 12.11 85.05 13.59 84.98 14.03 86.39 15.95 87.09 18.07 86.5 20.08 87.2 20.62 87.67 22.13 87.66 24.99 87.59 25.71 89.26 27.04 90.32 28.53 90.62 30.62 91.52 32.5 90.42 34.14 89.69 36.32 89.71 40.38 89.13 42.17 89.2 43.83 88.79 47.06 88.91 48.31 89.42 49.22 90.69 50.39 90.21 51.66 90.94 52.55 93.04 53.59 93.29 54.26 93.63 57.15 93.54 58.48 93.87 59.35 93.41 60.33 93.76 61.52 93.59 62.51 94.82 64.93 95.3 66.68 95.11 67.61 95.33 68.73 94.79 73.05 95.06 73.44 94.55 75.79 96.57 79.01 96.54 79.64 97.76 82.06 99.07 82.66 99.28 83.49 100.42 83.83 100.9 84.59 100.74 85.36 101.31 87.44 102.3 87.88 102.64 88.55 103.72 88.62 104.37 87.76 105.95 88.55 106.16 89.06 108.37 91.13 109.63 91.9 110.04 92.86 111.68 93.69 112.64 94.94 115.43 97.53 116.99 98.33 119.26 100.98 120.38 101.96 120.72 102.81 119.87 103.8 120.26 104.8 121.09 105.39 122.03 106.78 122.92 108.62 122.27 109.42 122.64 111.29 122.36 111.6 123.2 113.23 124.29 113.18 124.36 111.66 125.62 111.99 126.87 112.98 127.2 113.89 127.09 114.8 127.49 115.86 128.62 115.81 129.87 114.71 130.53 114.84 131.49 116.1 131.54 117.48 132.5 119.96 133.1 120.43 133.12 121.49 133.84 124.36 134.84 125.07 136.39 125.76 137.16 125.74 138.9 125.2 139.77 126.43 140.23 127.86 139.71 129.34 139.66 130.69 141.35 132.78 141.64 133.36 141.18 135.36 141.74 136.88 141.5 138.31 142.4 138.82 133.53 138.8 119.92 138.77 109.62 138.79 110.21 138.01 109.44 137.23 108.7 137.23 108.36 135.36 109.76 132.91 109.45 131.96 108.06 131.49 109.16 128.99 110.14 125.68 109.41 124.86 109.49 123.97 108.42 122.71 107.17 122.59 107.3 121.59 107.03 120.27 106.57 119.84 104.35 119.93 104.26 118.85 103.29 117.99 102.46 117.86 102.43 116.91 101.85 115.49 101.33 115.67 101.06 114.13 99.19 112.15 97.84 112.25 97.05 110.67 96.28 111.1 96.01 109.23 95.28 107.38 93 106.72 92.45 104.69 91.4 104.5 90.29 103.42 89.02 101.8 86.69 99.19 83.35 98 81.26 97.72 80.12 95.94 78.78 94.79 76.61 94 74.58 92.17 73.41 92.42 72.46 91.73 71.01 90.08 70.29 89.99 68.39 88.23 68.68 86.06 68.33 84.1 67.6 83.02 65.52 82.06 66.04 80.02 66.22 78.43 65.75 76.96 65.84 74.12 65.62 72.84 64.86 71.02 64.14 70.37 62.45 69.45 61.38 69.42 61.27 70.65 60.64 70.65 60.03 68.25 59.51 67.13 59.97 62.81 59.83 59.79 59.04 57.35 58.09 57.19 56.92 56.04 56.32 55.97 54.46 53.13 53.99 52.92 52.29 53.14 52.17 52.18 52.53 51.05 52.95 47.49 52.14 45.39 49.3 41.88 48.2 39.87 47.38 38.87 45.72 37.77 45.39 37.07 43.71 35.55 44.41 32.4 43.89 31.28 42.71 30.86 42.88 29.88 44.07 30.5 45.13 29.06 45.37 27.55 45.12 26.51 43.69 26.18 43.23 25.55 41.72 24.97 41.64 23.32 41.34 22.94 39.51 22.68 38.68 21.26 38.38 18.35 37.48 15.75 36.83 14.93 34.9 14.03 32.54 8.73 32.37 6.42 47.4 5.09 58.53 4.09 65.95 3.42 78.94 2.26 92.94 1 Z M 81.06 129.04 81.88 131.33 81.64 132.72 82.06 133.92 81.88 135.1 81.3 135.77 81.39 136.8 80.78 137.72 79.58 137.65 79.38 136.8 78.33 136.1 76.95 136.44 77.56 135.23 79.93 132.12 79.36 130.26 79.71 128.52 80.56 127.98 81.06 129.04 Z M 139.12 119.39 139.95 119.55 141.36 120.57 142.68 121.87 142.14 122.31 141.53 121.33 139.84 120.18 139.12 119.39 Z M 146.19 118 147.84 117.92 147.69 119.54 146.5 119.41 146.19 118 Z M 132.95 108.23 133.86 108.57 133.49 109.35 133.54 110.55 132.42 109.59 131.62 109.28 130.65 108.39 128.85 105.92 127.51 105.18 125.56 103.1 125.08 102.03 123.92 101.87 123.71 100.96 122.72 99.52 121.57 98.27 121.59 96.9 122.58 94.69 124.41 94.72 126.47 96.83 127.61 99.01 127.02 99.67 127.09 101.15 127.72 101.56 129.99 101.87 131.83 101.74 132.11 103.58 132.04 106.38 132.95 108.23 Z M 105.99 138.8 107.82 136.41 108.25 137.57 107.52 138.18 107.49 138.8 105.99 138.8 Z M 3.96 107.53 4.51 108.33 4.74 109.67 4.61 112.55 3.96 113.43 3.15 113.2 2.8 112.1 2.63 110.16 2.14 108.95 1.34 108.17 1 106.81 1.3 105.79 2.83 104.73 3.85 104.88 3.08 106.17 3.96 107.53 Z" fill-rule="evenodd" id="MX-BCN" data-name="Baja California"/>
<path d="M 250.8 167.81 249.89 166.41 248.7 166.55 248.09 166.01 245.48 162.04 245.19 160.81 245.37 160.1 246.49 158.34 245.78 156.09 246.11 153.89 246.08 152.79 245.67 151.97 244 150.79 242.93 149.58 243.33 148.07 240.59 145.74 239.71 143.48 237.3 142.09 236.82 141.46 233.67 133.73 233.72 132.6 235.6 130.9 237.99 130.47 240.37 130.54 241.65 130.78 245.99 131.94 246.78 131.8 248.94 129.65 248.72 128.5 247.37 124.81 246.28 121.4 246.29 120.64 247.17 117.51 246.83 116.7 245.55 105.85 244.71 98.53 247.1 98.33 248.16 85.35 248.56 81.17 249.03 80 247.85 66.34 247.45 65.45 245.04 63.6 242.39 62.54 236.65 57.72 236.25 56.9 237.25 49.6 238.14 42.21 247.45 42.21 257.15 42.21 257.14 28.88 272.81 28.93 283.91 28.96 299.97 29 300.26 29.1 301.09 29.56 302.2 29.45 303.14 29.83 303.98 30.67 305.14 32.71 305.8 34.74 307.15 36.52 307.74 37.78 308.88 38.65 311.37 39.74 312.9 40.16 314 40.92 314.84 42.24 316.5 43.36 318.45 45.64 318.87 46.56 321.4 48.1 323.34 49.76 324.22 51.78 325.72 53.14 327.76 54.73 329.07 56.26 331.26 57.17 332.46 57.44 334.88 58.97 336.05 60.38 338.03 61.35 338.68 63 339.73 63.19 341.11 65.01 341.28 66.21 341.97 68.32 341.95 69.1 342.83 70.03 342.97 70.9 343.58 71.33 344.57 73.42 345.43 74.02 346.28 75.51 346.2 77.89 345.85 78.94 345.84 80.21 346.31 81.81 346.31 82.81 347.39 84.39 347.84 85.99 349.09 87.31 349.31 88.53 349.92 89.79 350.08 90.78 351.99 92.37 352.27 93.07 354.67 94.56 356.73 94.88 358.12 96.1 358.57 97.13 359.95 98.53 360.81 98.96 362.03 100.31 362.99 100.86 365.29 101.64 366.9 101.98 368.67 102.09 369.29 102.67 369.08 103.31 371.72 105.1 375.03 105.81 375.34 106.45 376.63 107.74 378.24 108.59 379.31 109.42 380.06 108.92 380.84 109.35 378.8 113.46 372.56 125.49 369.49 131.55 366.31 137.66 364.4 141.12 366.19 149.07 370.11 165.48 372.88 177.3 364.95 174.01 363.21 173.54 360.56 173.65 358.65 174.17 357.56 175.06 356.62 176.23 354.93 178.77 350.36 184.97 349.42 185.85 348.39 185.55 346.52 183.85 343.88 182.22 342.45 181.73 339.73 181.25 338.55 181.26 337.58 182.5 337.15 182.25 335.3 179.88 330.47 182.42 329.99 182.5 324.22 179.3 323.17 178.45 321.08 175.75 319.84 175.94 317.85 175.91 316.82 175.3 312.33 171.8 310.7 174.73 310.13 173.99 309.04 174.53 308.96 176.89 308.74 178.18 307.44 179.27 307.35 179.67 308.11 181.96 308.08 182.9 307.29 183.35 302.89 184.71 302.12 185.25 302.24 186.95 303.4 189.71 303.48 191.72 302.95 193.5 302.26 194.32 300.92 194.36 300.1 194.81 299.78 195.62 299.59 200.76 299.29 201.59 296.24 204.31 294.84 205.69 293.87 206.05 289.39 205.46 285.88 203 284.6 201.22 283.36 200.18 281.25 199.08 280.72 196.84 279.88 196.38 279.12 193.06 278.68 192.43 277.35 191.77 268.65 189.94 267.98 189.36 267.2 183.45 266.73 178.55 266.27 177.23 264.73 175.58 262.58 172.48 262.19 171.58 262.22 170.11 261.43 169.19 258.82 168.64 257.59 168.06 256.16 166.07 255.27 165.69 254.02 165.79 253.13 165.04 252.04 166.52 250.8 167.81 Z" id="MX-CHH" data-name="Chihuahua"/>
<path d="M 372.88 177.3 370.11 165.48 366.19 149.07 364.4 141.12 366.31 137.66 369.49 131.55 372.56 125.49 378.8 113.46 380.84 109.35 381.09 110.04 382.6 110.01 384.97 110.54 385.6 110.21 386.06 108.44 386.66 107.65 388.3 106.45 388.99 104.99 390.16 104.62 391.3 103.75 391.24 102.13 391.65 100.18 392.8 99.52 392.71 97.44 394.26 92.98 394.72 92.66 396.32 89.58 396.69 88.58 398.26 88.48 399.63 87.79 400.14 88.17 400.93 87.39 403.68 87.61 404.34 86.62 404.48 85.55 406.3 84.35 407.53 85.34 408.79 85.61 411.17 86.89 414.63 86.42 415.7 87.01 416.77 86.59 417.52 86.8 418.82 86.6 419.11 87.07 423.2 87.66 424.51 87.48 425.18 87.04 425.99 87.94 427.27 87.19 427.9 87.79 428.83 87.94 429.96 90.53 430.67 91.18 431.56 91.32 431.28 92.82 432.63 92.17 433.63 92.46 433.44 94.08 435.03 95.62 435.75 96.01 438.2 96.81 438.74 98.84 439.47 99.52 441.3 100.37 442.59 101.71 443.79 102.29 444.62 103.09 445.16 104.08 445.14 105.09 446.48 106.19 447.5 106.75 447.93 108.81 448.51 110.56 448.29 111.18 448.63 112.28 450.1 113.86 451.29 115.72 451.92 118.5 453.16 120.36 453.12 120.86 454.36 121.83 454.69 123.42 456.24 124.19 455.51 124.58 455.9 125.68 456.24 127.73 457.35 129.33 457.21 130.32 458.31 131.66 459.18 131.86 459.39 132.88 462.49 134.39 462.95 134.86 463.24 136.08 463.94 136.78 464.37 138.22 467.44 141.61 467.12 142.34 467.86 143.48 467.83 144.38 468.59 145.17 469.25 145.33 465.21 149.06 464.38 148.61 459.79 144.69 456.03 147.34 455.34 148.1 454.67 150.14 453.75 155.06 453.4 156.47 452.9 157.21 452.12 157.46 451.47 156.87 448.55 157.94 447.27 159.25 444.15 161.23 443.81 162.13 444.21 165.54 446.34 166.68 447.44 164.46 448.39 165.23 449.77 165.45 450.42 166.31 450.47 169.86 450.36 170.98 449.57 173.89 449.01 175.25 448.16 176.41 446.43 178.05 445.39 174.82 440.98 178.61 433.71 184.93 436.41 187.45 437 188.44 437.3 189.85 438.17 191.01 439.4 191.21 440.51 192.39 440.8 193.12 441.09 195.41 442.99 196.63 443.13 197.34 442.86 199.4 443.03 201.43 444.02 203.48 445.3 205.34 446.19 206.14 447.82 206.35 448.35 206.96 448.33 207.83 449.7 208.13 449.98 209.46 447.61 208.58 446.81 209.25 448.54 210.08 449.94 211.82 451.79 212.28 452.98 213.85 453.99 213.54 456.72 213.75 459.04 215.23 457.74 216.4 457.83 217.53 455.96 217.63 454.79 217.99 453.61 217.83 451.04 216.97 449.34 216.97 447.8 217.46 444.94 219.26 443.63 221.15 443.3 222.21 444.8 223.04 445.92 224.4 445.84 224.8 444.42 225.9 444.29 226.32 444.87 228.36 444.9 230.3 443.48 235.44 441.04 234.15 439.66 234.47 438.72 234.4 436.72 233.33 436.09 232.56 435.44 230.74 434.19 229.01 433.32 228.43 432.48 228.28 430.54 228.59 430.47 227.86 428.45 229.97 427.51 230.33 423.58 230.11 423.01 229.31 422.65 228.2 424.66 228.73 424.25 226.63 422.69 225.84 421.7 225.88 419.79 225.08 419.13 224.33 417.9 221.72 417.44 221.25 409.55 218.82 408.88 218.75 406.69 219.11 399.24 219.87 397.93 220.12 397.07 221.16 393.35 226.02 392.77 226.18 392.66 230.91 390.98 229.59 389.41 228.73 385.18 227.59 382.99 226.49 382.36 225.5 382.15 222.22 381.76 221.35 378.91 219.44 377.3 216.87 376.14 215.88 375.85 215.06 376.23 213.54 377.06 212.19 377.98 211.44 376.5 209.83 376.4 208.27 378.15 206.96 379.24 205.71 379.86 204.53 380.62 203.86 380.7 203.06 380.5 200.1 379.94 194.81 379.99 191.94 380.4 190.58 381.6 188.05 381.9 186.62 381.51 185.2 380.48 183.93 378.13 181.93 372.88 177.3 Z" id="MX-COA" data-name="Coahuila"/>
<path d="M 471.68 148.21 472.84 148.52 473.34 149.28 474.47 148.89 475.02 149.56 476.11 150.07 476.81 150.95 476.75 153.05 477.59 153.55 477.68 155.14 477.05 157.63 476.45 158.41 477.33 158.8 478.48 160.3 478.71 161.35 478.19 163.7 478.46 164.7 477.96 165.62 478.89 166.73 479.53 166.88 480.1 168.54 481.11 169.36 483.34 172.13 484.02 174.71 485.04 177.69 485.45 180.22 486.7 180.63 487.35 182.17 486.86 183.21 487.45 183.96 488.9 184 489.19 184.33 490.54 184.19 491.37 184.39 492.3 185.08 494.76 185.07 496 186.08 496.17 186.9 498.67 188.62 500.16 188.05 502.4 188.94 503.32 189.07 505.52 189.97 505.32 190.82 506.27 190.93 507.25 192.29 509.22 193.3 511.04 193.63 512.73 193.43 513.18 194.23 514.5 193.63 516.3 193.82 517.91 193.63 519.83 193.63 520.71 194.3 522.91 194.44 524.35 195.16 525.07 196.36 525.8 196.69 526.93 197.86 527.79 198.34 528.75 198.44 529.33 199.49 530.39 199.33 531.34 199.56 531.1 197.86 531.77 197.29 532.8 197.42 533.68 196.44 536.55 196.38 535.83 200.22 536.09 201.32 535.89 203.17 533.46 209.43 532 212.49 528.48 218.36 526.05 227.6 523.63 236.8 522.2 248.76 521.98 250.85 521.76 256.43 520.92 257.44 521.04 258.14 521.84 258.26 521.35 263.85 520.93 266.49 520.67 271.44 521.33 279.34 520.01 283.82 518.98 285.11 518.43 286.28 518.49 286.82 517.62 288.82 518.11 289.85 519.12 289.07 518.62 291.3 519.37 294.07 519.32 294.86 519.65 296.6 520.34 298.43 518.29 299.89 517.03 298.59 517.48 297.5 515.77 296.35 513.49 295.8 512.49 295.72 510.75 294.22 510.33 292.98 509.85 292.78 508.38 293.38 507.52 293.15 507.32 294.79 505.66 294.95 503.75 294.08 501.88 294.01 499.29 294.47 498.28 293.8 497.83 294.41 495.53 294.82 494.34 296 493.19 296.06 491.14 295.73 488.77 294.92 486.33 294.24 484.4 293.94 483.34 293.37 482.58 292.19 481.65 290.07 480.04 287.24 479.09 288.44 478.28 288.26 477.02 286.64 475.79 286.01 476.3 288.11 475.62 288.94 473.07 288.05 464.7 284.67 463.38 282.18 463.78 281.49 465.52 280.75 466.5 279.74 466.53 278.09 464.66 276.05 464.22 274.04 463.82 273.9 462.13 275.26 462.94 271.96 463.21 270.42 462.99 269.97 461.21 268.8 462.57 267.52 463.3 267.18 466.75 268.28 465.59 264.09 466.93 260.81 468.41 258.22 469.46 257.93 470.91 257.94 474.48 257.5 474.92 257.06 476.94 254.1 478.21 254.06 477.91 252.25 474.65 249.28 474.23 248.54 474.05 247.27 474.19 244.98 475.1 241.54 475.07 240.57 474.31 236.9 471.7 238.01 471.01 235.88 471.02 235.31 473.19 233.39 474.8 232.85 475.8 233.2 476.99 232.41 477.11 231.23 477.53 230.59 478.46 230.29 479.14 229.5 480.56 229.38 481.39 229.03 482.19 228.18 483.5 228.95 485.47 229.59 484.76 227.37 484.74 226.75 485.88 225.17 485.88 224.56 484.94 223.48 486.01 223 485.94 221.91 486.92 222 488.75 220.03 489.54 221.13 490.73 221.42 491.95 221.18 492.92 220.61 502.44 212.58 503.59 211.52 503.49 210.29 501.22 210.18 500.68 209.34 500.84 206 500.79 200.28 500.81 196.22 500.48 195.49 494.4 193.73 493.49 194.17 492.41 196.23 489.11 192.81 488.13 192.66 487.03 193.14 486.25 193.82 485.77 193.06 485.53 189.69 485.24 187.57 484.7 187.23 483.19 187.13 481.6 185.05 480.86 184.36 479.72 185.14 479.02 184.19 478.94 182.36 479.72 181 479.92 179.41 479.18 177.86 478.36 177.35 475.2 176.1 473.14 176.17 474.23 174.81 474.36 173.44 475.41 171.9 473.71 170.52 471.94 170.17 471.14 169.15 471.24 167.43 472.45 163.41 472.39 162.46 471.65 161.58 470.93 156.37 470.53 154.46 469.98 153.57 466.81 153.06 466.65 151 469.06 149.47 471.68 148.21 Z" id="MX-TAM" data-name="Tamaulipas"/>
<path d="M 469.25 145.33 470.07 146.34 470.93 146.73 471.68 148.21 469.06 149.47 466.65 151 466.81 153.06 469.98 153.57 470.53 154.46 470.93 156.37 471.65 161.58 472.39 162.46 472.45 163.41 471.24 167.43 471.14 169.15 471.94 170.17 473.71 170.52 475.41 171.9 474.36 173.44 474.23 174.81 473.14 176.17 475.2 176.1 478.36 177.35 479.18 177.86 479.92 179.41 479.72 181 478.94 182.36 479.02 184.19 479.72 185.14 480.86 184.36 481.6 185.05 483.19 187.13 484.7 187.23 485.24 187.57 485.53 189.69 485.77 193.06 486.25 193.82 487.03 193.14 488.13 192.66 489.11 192.81 492.41 196.23 493.49 194.17 494.4 193.73 500.48 195.49 500.81 196.22 500.79 200.28 500.84 206 500.68 209.34 501.22 210.18 503.49 210.29 503.59 211.52 502.44 212.58 492.92 220.61 491.95 221.18 490.73 221.42 489.54 221.13 488.75 220.03 486.92 222 485.94 221.91 486.01 223 484.94 223.48 485.88 224.56 485.88 225.17 484.74 226.75 484.76 227.37 485.47 229.59 483.5 228.95 482.19 228.18 481.39 229.03 480.56 229.38 479.14 229.5 478.46 230.29 477.53 230.59 477.11 231.23 476.99 232.41 475.8 233.2 474.8 232.85 473.19 233.39 471.02 235.31 471.01 235.88 471.7 238.01 474.31 236.9 475.07 240.57 475.1 241.54 474.19 244.98 474.05 247.27 474.23 248.54 474.65 249.28 477.91 252.25 478.21 254.06 476.94 254.1 474.92 257.06 474.48 257.5 470.91 257.94 469.46 257.93 468.41 258.22 466.93 260.81 465.59 264.09 466.75 268.28 463.3 267.18 462.57 267.52 461.21 268.8 462.99 269.97 463.21 270.42 462.94 271.96 461.27 271.73 456.14 271.6 456.18 273.03 455.8 273.38 454.32 273.08 453.3 272.29 452.86 270.23 452.91 268.8 452.5 267.11 452.91 264.48 452.04 261.4 451.91 260.4 452.32 257.75 452.08 256 449.75 252.99 449.31 251.78 449.15 250.35 449.1 245.91 448.98 243.24 448.46 241.94 447.08 240.38 444.43 236.62 443.48 235.44 444.9 230.3 444.87 228.36 444.29 226.32 444.42 225.9 445.84 224.8 445.92 224.4 444.8 223.04 443.3 222.21 443.63 221.15 444.94 219.26 447.8 217.46 449.34 216.97 451.04 216.97 453.61 217.83 454.79 217.99 455.96 217.63 457.83 217.53 457.74 216.4 459.04 215.23 456.72 213.75 453.99 213.54 452.98 213.85 451.79 212.28 449.94 211.82 448.54 210.08 446.81 209.25 447.61 208.58 449.98 209.46 449.7 208.13 448.33 207.83 448.35 206.96 447.82 206.35 446.19 206.14 445.3 205.34 444.02 203.48 443.03 201.43 442.86 199.4 443.13 197.34 442.99 196.63 441.09 195.41 440.8 193.12 440.51 192.39 439.4 191.21 438.17 191.01 437.3 189.85 437 188.44 436.41 187.45 433.71 184.93 440.98 178.61 445.39 174.82 446.43 178.05 448.16 176.41 449.01 175.25 449.57 173.89 450.36 170.98 450.47 169.86 450.42 166.31 449.77 165.45 448.39 165.23 447.44 164.46 446.34 166.68 444.21 165.54 443.81 162.13 444.15 161.23 447.27 159.25 448.55 157.94 451.47 156.87 452.12 157.46 452.9 157.21 453.4 156.47 453.75 155.06 454.67 150.14 455.34 148.1 456.03 147.34 459.79 144.69 464.38 148.61 465.21 149.06 469.25 145.33 Z" id="MX-NLE" data-name="Nuevo León"/>
<path d="M 751.61 406.69 751.28 407.4 749.52 408.52 749.62 409.27 748.99 410.33 748.52 411.87 747.5 412.62 747.02 413.9 745.49 415.15 744.89 416.21 743.55 415.36 743.21 414.62 742.38 414.59 741.16 413.46 740.62 413.27 738.53 414.04 738.18 414.54 737.98 412.42 740.4 409.42 740.97 407.87 740.82 404.33 740.33 401.96 740.75 400.18 739.96 399.82 740.38 398.98 740.18 397.59 739.32 396.46 739.12 394.9 739.94 389.66 739.79 387.68 741.35 385.76 741.32 382.49 741.53 380.84 740.93 378.94 738.48 375.83 735.46 373.11 733.83 372.01 732.44 370.78 731.39 369.26 731.9 368.32 732.53 366.47 732.57 364.73 736.77 364.15 738.06 362.77 739.66 362.25 740.46 361.73 743.26 361.62 744.11 361.28 745.92 359.53 747.13 360.41 747.17 359.39 747.76 358.72 749.25 357.73 751.62 356.53 753.04 356.21 754.39 355.33 755.86 354.97 757 353.62 757.67 351.83 758.36 351.34 759.19 351.4 759.95 352.78 760.55 351.83 760.22 350.67 761.59 348.28 762.2 347.73 763.04 347.56 764.41 348.39 765.22 348.14 766.75 348.22 769.51 346.83 771.6 345.04 773.76 343.41 775.3 342.48 776.97 339.03 777.28 337.27 778.85 334.17 778.73 332.49 777.57 329.98 777.97 327.28 778.97 325.8 779.08 324.9 778.71 319.46 779.66 319.46 780.36 320.34 782.02 320.25 783.47 320.74 785.03 320.68 786.31 320.99 788.13 320.19 789.04 318.92 788.46 317.6 787.28 317.76 785.85 318.69 784.14 318.34 783.81 317.97 782.75 318.71 781.9 318.52 783.11 317.44 785.46 317.8 786.17 317.59 788.94 316.21 789.51 316.1 791.23 316.68 792.38 317.66 793.72 319.63 794.22 320.91 796.66 321.25 797.05 322.62 796.78 324.37 796.99 327.44 797.6 328.7 798.84 328.54 797.62 331.22 797.59 332 796.78 332.43 796.53 333.76 795.47 336.89 793.76 339.39 791.41 342.06 790.62 343.25 787.77 345.19 786.4 346.66 783.4 351.12 782.76 352.74 781.98 353.29 781.12 354.77 780.57 356.9 780.43 358.05 780.52 360.31 781.28 362.01 780.35 361.76 780.43 362.99 779.79 364.47 779.07 365.19 778.46 364.79 777.18 366.03 776.46 367.72 775.82 368.73 775.41 368.43 773.79 368.38 773.55 369.24 773.87 370.61 775.51 371.89 775.82 373.1 776.72 372.05 778.08 371.49 779.32 372.01 779.82 371.49 780.52 372.05 781.65 371.75 781.4 373.51 780.76 374.5 779.75 375.07 779.05 375.8 777.9 375.23 776.74 375.83 775.78 376.69 775.44 378.03 775.67 378.46 774.97 380.19 776.2 380.76 777.38 379.49 778.02 378.19 779.82 377.91 780.19 378.53 779.13 379.92 778.58 382 778.48 383.11 777.6 385.24 777.03 386.11 776.53 389.61 775.62 392.87 774.08 395.15 773.6 397.28 773.68 399.02 773.2 399.99 773.09 401.85 772.87 402.46 771.65 404.26 771.02 406.29 770.27 406.28 770.49 404.91 769.71 403.74 769.63 402.92 768.73 402.63 768.73 401.48 767.32 401.12 765.13 400.01 765.15 399.02 765.99 398.02 765.82 397.42 766.48 396.35 767.04 394.91 766.87 394 766.98 392.34 766.33 391.05 766.18 389.99 764.97 391.15 764.48 391.91 764.08 393.46 762.28 393.46 762.23 394.77 763.05 394.55 762.11 396.37 761.52 397.16 759.95 400.2 759.43 400.47 757.73 400.46 756.67 400.22 755.5 400.62 754.76 400.38 753.65 401.48 753.1 403.9 751.77 405.73 751.61 406.69 Z M 798.66 343.98 799 344.16 797.76 346.2 797.44 347.07 796.26 348.15 795.33 349.8 794.18 351.47 792.44 352.9 791.85 350.97 791.83 349.22 792.12 348.18 793.13 346.29 793.92 345.19 794.92 344.63 796.2 345.14 797.64 344.85 798.66 343.98 Z" fill-rule="evenodd" id="MX-ROO" data-name="Quintana Roo"/>
<path d="M 737.82 418.17 726.73 418.16 715.64 418.15 710.09 418.14 699 418.13 692.37 418.13 691.65 418.5 691.63 414.09 688.66 413.97 687.63 413.25 685.68 413.08 684.74 412.68 683.45 411.7 679.4 410.54 677.07 410.5 676.2 411.47 676.29 412.55 675.45 414.55 670.54 414.53 668.94 414.13 667.06 412.96 666.82 412.14 665.63 411.57 662.63 409.37 662.27 408.77 662.43 400.99 657.17 401.11 655.68 399.88 655.16 397.94 653.93 396.02 655.97 395.42 658.81 395.27 664.67 394.61 666.71 394.69 667.5 394.88 668.19 395.66 669.55 396.56 669.71 397.05 668.59 397.46 667.64 397.35 667.29 396.58 666.33 396.9 665.03 398.2 666.43 398.93 667.32 398.7 666.94 397.47 669.26 398.96 669.3 399.59 670.3 399.89 670.5 400.58 669.87 401.35 669.92 402.09 670.88 402.93 671.43 402.59 671.08 401.8 671.95 401.65 671.11 400.61 671.92 400.54 674.21 401.29 674.68 401.14 676.46 401.49 677.68 401.32 677.95 400.48 678.7 399.65 681.46 398.37 682.29 398.43 683.02 398.02 683.81 396.73 685.08 396.79 686.45 396.08 686.39 395.63 684.23 396.33 684.7 394.54 684.72 393.7 683.79 392.49 682.16 392.75 681.44 391.81 681.3 390.99 682.39 389.97 683.57 389.57 685.03 388.33 684.84 387.92 683.19 389.24 681.55 390.09 680.01 391.68 678.67 391.55 680.54 389.85 684.31 387.57 687.34 386.22 689.41 384.32 691.07 383.63 693.04 382.3 695.04 379.76 696.39 379.1 697.92 377.5 698.23 376.62 698.62 371.43 698.92 369.75 698.75 368.28 699.4 366.53 699.88 365.75 703.61 363.08 704.59 361.99 704.94 360.5 704.86 359.54 704.1 358.09 704.12 354.94 704.35 353.6 704.33 351.52 704.67 348.92 704.29 346.72 704.29 345.54 704.87 343.26 705.06 340.65 705.31 339.94 707.03 337.73 707.06 338.5 706.76 345.19 707.21 345.96 710.68 346.19 711.38 346.95 711.72 347.92 712.38 348.49 713.37 348.1 714.27 348.95 715.03 348.82 715.48 347.79 716.18 347.33 717.59 349.5 718.06 351.22 719.93 352.69 720.82 354.3 721.42 356.21 722.74 357.54 724.48 358.24 725.98 359.39 727.8 362.85 729.22 364.26 730.4 365.88 730.72 367.78 731.39 369.26 732.44 370.78 733.83 372.01 735.46 373.11 738.48 375.83 740.93 378.94 741.53 380.84 741.32 382.49 741.35 385.76 739.79 387.68 739.94 389.66 739.12 394.9 739.32 396.46 740.18 397.59 740.38 398.98 739.96 399.82 740.75 400.18 740.33 401.96 740.82 404.33 740.97 407.87 740.4 409.42 737.98 412.42 738.18 414.54 737.8 415.86 737.82 418.17 Z M 676.27 392.73 677.82 392.17 678.19 392.88 677.44 393.45 677 393.13 675.76 393.46 674.77 394.85 674.04 395.46 673.69 394.72 671.59 395.86 670.93 395.19 672.74 394.55 675.11 393.16 676.27 392.73 Z" fill-rule="evenodd" id="MX-CAM" data-name="Campeche"/>
<path d="M 691.65 418.5 691.62 433.04 680.49 432.98 680.6 431.44 681.55 430.81 680.53 429.41 679.3 429.29 678.87 428.81 678.99 427.62 678.39 427.18 675.58 426.13 674.98 425.38 675.03 424.61 674.6 422.49 673.81 420.84 671.7 420.64 671.38 420.43 671.85 419.23 671.61 417.32 670.76 416.29 669.71 416.58 669.06 416.27 668.05 416.37 667.36 415.84 666.3 415.77 665.55 416.26 664.23 417.68 664.66 418.48 664.15 418.89 662.45 418.87 660.09 420.16 657.53 420.85 656.91 421.28 656.53 423.23 655.1 423.65 648.65 429.57 647.95 430.04 647.14 430.08 645.62 429.4 644.95 428.69 643.23 425.81 641.75 425.66 641.22 424.87 641.17 423.11 640.69 420.98 640.68 419.9 641.22 417.82 641.1 415.65 640.15 415.49 639.59 416.04 638.76 415.89 637.38 414.59 636.02 413.81 634.13 413.42 633.06 414.21 633 414.78 631.93 417.87 630.51 422.85 629.43 423.64 629.04 424.56 628.2 425.09 626.09 429.78 625.21 429.42 624.73 428.58 625.46 425.26 625.26 424.82 624.16 424.2 623.09 423.01 622.45 421.95 620.43 421 619.62 420.93 619.22 420.02 617.33 419.65 617.01 418.26 616.48 417.69 615.15 417.3 614.75 416.75 613.8 416.38 613.99 414.15 614.46 413.42 613.47 411.32 613.32 409.05 612.57 408.81 612.28 407.75 613.6 407.09 615.54 406.66 616.43 406.03 619.23 405.11 618.63 405.92 618.81 406.43 620.83 406.15 621.61 405.79 621.73 404.65 622.33 404.21 623.71 403.83 624.39 404.4 626.01 404.09 626.67 402.92 626.33 402.2 625 402.88 623.21 403.46 622.68 404.03 621.24 403.88 625.91 402.1 629.75 401.52 633.26 401.62 637.04 401.49 636.47 402.62 636.68 403.46 637.87 403.32 638.54 402.39 638.41 401.49 642.48 401.41 644.6 400.87 645.84 400.13 647.04 399 647.87 397.64 649.01 396.7 650.78 396.73 653.93 396.02 655.16 397.94 655.68 399.88 657.17 401.11 662.43 400.99 662.27 408.77 662.63 409.37 665.63 411.57 666.82 412.14 667.06 412.96 668.94 414.13 670.54 414.53 675.45 414.55 676.29 412.55 676.2 411.47 677.07 410.5 679.4 410.54 683.45 411.7 684.74 412.68 685.68 413.08 687.63 413.25 688.66 413.97 691.63 414.09 691.65 418.5 Z" id="MX-TAB" data-name="Tabasco"/>
<path d="M 680.49 432.98 680.26 433.41 682.01 434.06 682.21 434.69 684.09 434.7 684.59 435.36 684.88 436.41 685.73 436.87 686.2 437.97 687.1 438.95 688.36 439.21 688.59 439.94 689.48 441.02 689.73 441.85 691 442.47 692.55 442.36 692.2 443 693.92 444.28 695.66 444.82 698.1 446.37 699.8 448.85 700.66 450.44 700.29 452.08 701.89 453.38 702.93 453.12 704.48 454.02 704.64 454.68 706.03 455.09 706.68 454.99 706.58 456.87 706.06 457.65 705.42 457.9 705.61 458.64 705.05 459.19 704.99 461.03 705.73 461.45 705.66 462.42 705.05 462.93 705.35 463.9 705.34 463.92 704.39 464.14 691.55 464.16 684.74 464.17 673.16 464.19 672.45 464.78 666.45 475.2 663.52 480.29 661.03 484.6 661.06 485.97 664.33 490.24 663.57 491.7 662.3 492.27 662.29 494.76 661.48 496.15 661.38 497.01 661.67 498.65 662.11 499.93 662.04 500.82 660.94 503.37 659.98 504 658.47 502.21 656.55 500.39 653.38 497.2 648.54 492.19 645.38 488.62 645.4 487.65 646.71 488.24 646.81 487.69 645.94 487.25 644.41 487.17 642.91 485.97 641.39 485.23 641.01 484.49 638.99 483.06 636.68 480.43 635.93 479.33 635.2 479.05 629.09 473.84 628.65 473.63 624.42 470.21 621.81 468.46 617.17 465.72 619.42 465.34 618.31 463.66 617.68 463.37 614.66 462.71 613.63 462.09 614.42 460.78 614.81 458.82 614.43 457.16 613.08 454.13 612.58 452.63 613.09 451.54 614.52 449.61 614.85 448.58 614.61 445.48 615.01 444.62 617.98 442.84 618.13 439.68 619.07 439.37 619.15 437.15 618.93 435.73 619.26 435.62 624.91 431.78 625.36 431.35 626.09 429.78 628.2 425.09 629.04 424.56 629.43 423.64 630.51 422.85 631.93 417.87 633 414.78 633.06 414.21 634.13 413.42 636.02 413.81 637.38 414.59 638.76 415.89 639.59 416.04 640.15 415.49 641.1 415.65 641.22 417.82 640.68 419.9 640.69 420.98 641.17 423.11 641.22 424.87 641.75 425.66 643.23 425.81 644.95 428.69 645.62 429.4 647.14 430.08 647.95 430.04 648.65 429.57 655.1 423.65 656.53 423.23 656.91 421.28 657.53 420.85 660.09 420.16 662.45 418.87 664.15 418.89 664.66 418.48 664.23 417.68 665.55 416.26 666.3 415.77 667.36 415.84 668.05 416.37 669.06 416.27 669.71 416.58 670.76 416.29 671.61 417.32 671.85 419.23 671.38 420.43 671.7 420.64 673.81 420.84 674.6 422.49 675.03 424.61 674.98 425.38 675.58 426.13 678.39 427.18 678.99 427.62 678.87 428.81 679.3 429.29 680.53 429.41 681.55 430.81 680.6 431.44 680.49 432.98 Z M 613.37 463.4 614.31 464.01 615.26 465.18 612.84 464.49 613.37 463.4 Z" fill-rule="evenodd" id="MX-CHP" data-name="Chiapas"/>
<path d="M 91.65 403.83 92.94 403.83 92.69 404.51 91.49 404.64 91.65 403.83 Z M 188.25 391.99 189.13 392.98 188.8 393.92 187.41 394.2 186.68 393.52 185.19 392.82 185.55 391.56 186.87 390.17 187.99 390.82 188.25 391.99 Z M 191.57 377.36 192.25 378.27 191.12 378.59 191.57 377.36 Z M 369.98 394.91 368.66 393.55 364.66 390.67 363.98 389.99 358.92 387.42 355.11 386.06 355.17 385.23 355.8 384.48 354.54 383.67 353.73 383.58 352.08 383.87 350.76 383.2 348.53 382.66 348.53 382.05 349.58 380.98 349.94 380.01 350.88 379.99 351.48 380.53 351.95 379.52 352.86 378.97 353.77 379.44 355.74 378.87 356.6 378.25 358.06 378.1 358.67 376.78 359.63 376.02 359.85 374.88 360.39 374.03 362.07 372.3 362.85 373.64 365.22 375.03 367.67 376.04 368.48 375.38 369.93 375.25 370.62 374.87 371.7 373.61 372.67 373.64 373.55 375.77 374.45 376.28 374.96 377.35 376.18 378.22 375.91 379.5 376.22 381.45 375.45 384.19 375.56 384.88 376.3 386.14 376.65 387.55 375.46 388.92 373.92 389.8 373.4 389.54 372.88 391.92 371.57 392.55 370.84 394.2 369.98 394.91 Z" fill-rule="evenodd" id="MX-COL" data-name="Colima"/>
<path d="M 307.37 324.09 307.28 325.1 305.97 324.47 306.46 323.94 307.37 324.09 Z M 302.82 319.88 303.62 319.93 303.87 320.66 303.26 321.6 301.44 320.85 300.59 320.29 301.43 319.59 302.82 319.88 Z M 300.1 316.82 300.11 317.5 299.27 317.77 297.1 316.71 296.47 315.15 296.82 314.11 297.88 314.25 299.54 315.17 299.41 315.75 300.1 316.82 Z M 330.91 341.47 330.42 340.34 329.13 339.38 327.88 340.16 326.18 339.68 325.28 339.18 325.97 338.48 326.76 336.57 327.53 335.96 328.06 334.9 329.21 334.12 330.44 332.15 331.42 332.29 332.34 331.33 332.21 329.43 332.37 328.03 332.8 327.45 332.55 325.3 332.11 323.73 332.43 322.46 333.13 321.22 333.58 320.99 333.2 319.64 332.1 318.71 331.6 319.08 327.8 316.71 326.94 315.89 326.57 314.8 324.39 310.49 322.3 307.07 321.88 306.08 321.67 304.59 321.91 300.68 321.72 298.89 319.76 292.14 319.98 291.99 321.13 293.64 321.55 292.79 321.16 291.29 322.77 290.92 323.74 291.3 324.81 292.25 326.49 292.39 327.08 291.84 327.1 290.88 325.97 287.22 325.2 286.84 324.75 285.96 323.9 285.31 323.83 284.3 325.12 282.74 326.84 281.28 327.01 280.67 326.34 279.3 326.54 278.45 327.28 277.68 328.44 277.66 332.46 277.55 334.93 278.11 339.01 280.26 339.62 280.88 341.06 284.31 338.81 286.63 338.39 287.47 338.19 289.7 338.33 291.06 338.99 291.11 343.94 287.43 344.46 287.49 346.62 288.82 346.99 289.39 347.61 291.96 348.66 293.35 350.76 294.55 351.44 294.52 355.03 292.93 355.62 297.18 355.16 298.67 353.42 303.55 353.56 303.97 358.03 308.15 359.56 309.88 360.99 311.73 360.08 314.19 359.48 316.82 358.17 318.93 361.49 320.95 364.87 322.83 364.42 323.59 364.42 324.75 363.91 325.66 362.47 327.03 361.4 327.43 358.39 327.61 357.82 328.4 358.34 331.57 358.1 333.72 356.64 336.72 356.34 338.38 356.27 340.86 354.57 339.88 353.94 338.93 351.42 337.18 350.28 335.5 349.75 335.2 347.81 335.05 345.11 332.71 343.36 332.5 340.16 334.84 337.41 335.21 336.8 334.68 335.86 335.19 334.39 336.82 333.28 338.61 331.51 341.1 330.91 341.47 Z" fill-rule="evenodd" id="MX-NAY" data-name="Nayarit"/>
<path d="M 216.26 244.87 217.2 246.79 217.09 247.29 215.58 247.01 214.63 245.57 214.04 243.7 214.22 243.2 213.69 242.09 213.8 240.72 214.84 242.33 215.38 243.55 216.26 244.87 Z M 167.88 238.71 168.62 240.12 169.42 240.73 168.97 242.27 164.9 238.93 163.16 237.7 162.38 236.73 165.08 236.68 166.25 238.14 167.88 238.71 Z M 203.92 236.8 204.85 238.08 203.88 239.99 203.34 239.95 203.07 238.57 202.41 237.97 201.63 235.31 202.37 234.83 203.02 235.95 203.92 236.8 Z M 194.18 220.71 194.58 220.74 195.25 221.89 197.15 222.4 197.61 222.92 197.72 224.6 198.87 226.7 197.64 226.49 196.72 225.96 195.6 224.86 195.07 223.05 194.12 222.54 194.18 220.71 Z M 159.05 233.99 160.03 235.35 159.36 235.81 158.79 234.49 157.97 233.95 157.47 232.5 158.23 231.75 157.97 230.8 156.88 229.64 156 229.25 154.79 229.67 153.98 229.14 154.72 227.82 156.46 222.87 158.02 217.01 158.63 217.22 157.73 219.44 157.14 222.11 157.58 224.07 156.9 224.69 156.84 226.42 156.27 227.6 157.57 230.04 158.35 230.9 158.75 231.99 158.05 233.09 159.05 233.99 Z M 192.81 206.79 192.29 206.5 191.79 205.38 191.84 204.52 192.77 204.5 193.12 206.67 192.81 206.79 Z M 184.84 195.45 183.85 196.08 182.33 198.15 182.32 199.15 181.08 200.36 181.56 197.41 182.62 195.76 182.45 194.2 183.51 193.93 185.09 193.91 184.84 195.45 Z M 109.62 138.79 119.92 138.77 133.53 138.8 142.4 138.82 142.44 141.84 142.16 142.69 143.51 143.96 143.91 145.79 144.75 146.86 145.43 147.06 146.58 148.66 149.42 149.64 150.16 150.27 151.11 150.49 152.25 151.23 153.26 152.58 153.58 154.65 154.42 156.86 155.56 157.98 155.85 158.99 156.73 160.15 156.3 161.27 157.75 162.65 159.42 163.51 161.38 163.93 162.42 165.31 161.58 166.22 161.23 167.84 162.32 169.02 162.88 170.29 163.79 170.68 163.93 171.23 164.92 172.1 165.16 173.35 164.05 174.75 165.37 176.36 165.62 177.26 166.75 178.18 167.1 179.33 168.33 180.24 169.82 179.05 168.86 177.7 166.86 175.99 166.28 174.61 166.29 173.84 165.41 170.62 166.25 170.17 168.09 171.65 168.7 172.71 170.55 174.4 172.76 175.84 172.53 179.21 173.04 179.99 175.73 180.86 175.08 182.3 175.25 184.17 176.08 184.66 175.98 185.27 176.96 186.14 177.25 187.63 176.86 188.33 177.41 189.45 177.41 190.26 178.86 193.35 178.19 194.61 178.38 195.76 177.8 196.42 178.5 198.64 178.54 199.98 179.14 201.61 179.87 202.4 181.21 203.14 181.53 203.78 182.05 206.21 184.02 208.7 186.4 208.99 186.23 210.57 187.4 213.82 188 214.21 188.55 215.25 188.22 216.06 189.03 218.01 189.3 219.38 189.91 219.83 190.38 221.15 191.19 221.56 191.58 222.43 193 223.02 193.27 224.37 194.32 225.55 194.86 226.61 194.85 227.33 195.54 228.73 195.35 229.9 194.61 231.7 193.86 232.22 193.47 233.88 193.48 235.73 193.91 237.11 194.78 238.18 194.62 239.8 194.91 241.1 195.59 241.98 196.73 244.06 197.46 244.43 197.93 245.2 199.21 245.66 201.97 246.22 201.28 247.06 201.6 248.07 203.28 247.91 203.36 247.22 204.39 246.19 204.53 245.08 203.63 244 203.73 241.98 204.62 241.34 206.25 241.59 206.15 242.22 207.07 242.87 207.76 244.08 209.91 245.11 211.66 246.4 212.2 247.52 212.43 249.79 213.85 250.26 214.88 250.04 216.45 249.34 217.07 250.46 216.18 252.4 216.56 253.55 217.85 254.45 219.72 256.63 219.4 258 220.19 260.77 223.05 262.18 224.12 262.42 224.36 262.91 225.32 263.19 225.53 264.74 226.59 265.99 226.6 270.42 226.3 271.98 225.66 273.23 223.93 275.61 222.78 276.33 222.01 276.35 220.39 277.04 219.35 277.72 218.89 278.91 218.21 279 217.08 279.77 217.01 280.32 215.87 281.31 215.02 281.39 214.75 282.02 213.26 282.07 212.12 281.46 210.6 279.92 209.63 278.09 209.4 276.51 208.29 272.37 207.9 269.77 206.33 267.4 206.2 266.88 204.36 263.72 203.19 262.63 201.91 261.86 197.55 259.85 195.78 258.41 193.11 255.51 191.54 253.59 188.61 250.66 186.64 249.1 185.89 248.2 184.17 247 182.5 246.07 181.15 245.06 175.68 242.11 174.62 240.73 173.71 239.88 172.63 239.48 171.26 237.99 170.51 236.09 170.57 235.51 169.76 234.85 169.26 236.26 168.29 235.95 167.58 236.18 166.38 237.08 166.33 235.31 165.47 232.98 163.45 230.85 163.36 230.14 162.5 229.52 161.37 230.6 160.46 229.89 159.44 229.66 159.25 227.92 158.53 226.86 159.39 226.11 159.05 225.02 159.55 224.28 159.03 223.14 158.2 224.86 157.48 224.64 158.36 223.1 158.58 221.31 158.07 220.96 158.37 218.57 159.7 216.15 159.79 210.63 160.08 209.56 159.84 207.42 160.07 205.91 159.75 203.45 159.4 203.39 159.47 206.81 159.15 206.76 159.09 203.04 158.92 201.47 158.36 200.56 158.14 199.41 157.63 198.49 156.66 195.55 155.65 194.27 154.27 194.02 153.87 193.46 153.56 191.74 153 190.41 151.5 188.67 150.49 188.09 149.09 188.82 146.77 187.33 146.2 186.53 144.28 186.35 143.29 185.01 140.72 183.18 138.88 181.55 137.61 180.84 137.48 180.22 136.34 179.95 134.9 178.56 135 177.12 132.83 174.09 132.14 173.88 130.99 174.46 130.64 173.83 131.07 173.11 132.97 171.26 133.29 170.45 133.25 168.99 132.76 168.08 131.91 168.17 131.58 168.79 131.28 171.38 129.78 172.57 129.74 174.02 129.23 174.32 127.25 173.03 125.85 172.73 124.55 172.76 123.72 173.08 122.74 175.17 121.95 175.57 120.36 174.99 119.64 173.75 118.14 172.89 117.41 171.18 115.84 168.68 114.27 167.7 112.22 167.29 111.08 167.87 109.96 166.73 109.6 165.8 108.32 164.25 106.62 163.28 105.24 162.89 103.89 163.09 103.79 163.68 102.36 162.54 101.24 162.05 100.23 162.24 100.37 161.32 98.91 160.49 98.99 158.04 98.43 155.72 97.64 154.93 96.55 154.45 96.16 153.7 93.15 152.43 92.69 152.45 91.49 150.13 89.8 149.05 89.68 147.88 88.84 147.51 88.51 148.38 87.69 148.04 87.22 146.9 85.94 146.91 85.13 145.67 84.65 143.88 85.62 143.65 86.83 143.76 87.92 143.48 89.82 143.79 90.54 144.25 91.38 144.07 93.75 144.86 95.96 145.24 97.82 144.86 98.62 145.25 100.29 144.5 103 142.38 103.69 142.57 103.88 143.56 103.33 145.09 104.09 146.34 105.57 147.45 107.4 148.22 108.61 149.61 109.13 149.8 109.78 149.02 110.14 147.94 111.34 148.53 112.39 148.62 113.28 147.45 113.26 146.81 111.37 145.94 110.57 145.94 109.9 146.79 108.57 147.14 107.65 146.48 106.86 144.83 106.84 143.75 107.82 142.31 107.76 141.48 106.61 140.77 104.24 141.63 104.61 140.4 105.99 138.8 107.49 138.8 108.53 140.86 108.9 139.49 108.73 138.8 109.41 138.79 109.62 138.79 Z M 130.26 175.02 131.51 175.32 132.04 175.14 132.93 176.49 129.93 175.58 130.26 175.02 Z M 185.4 203.8 186.1 203.72 186.56 204.42 186.17 205.17 185.4 203.8 Z M 159.22 160.87 159.39 159.87 160.52 161.1 159.99 162.17 159.46 162.05 159.22 160.87 Z" fill-rule="evenodd" id="MX-BCS" data-name="Baja California Sur"/>
<path d="M 241.59 211.47 242.4 212.37 242.29 212.92 240.56 211.96 239.04 211.45 237.49 211.46 237.01 210.9 239.84 210.91 241.59 211.47 Z M 233.83 186.09 234.06 185.62 237.26 183.17 242.26 179.15 249.77 172.85 249.99 170.63 250.8 167.81 252.04 166.52 253.13 165.04 254.02 165.79 255.27 165.69 256.16 166.07 257.59 168.06 258.82 168.64 261.43 169.19 262.22 170.11 262.19 171.58 262.58 172.48 264.73 175.58 266.27 177.23 266.73 178.55 267.2 183.45 267.98 189.36 268.65 189.94 277.35 191.77 278.68 192.43 279.12 193.06 279.88 196.38 280.72 196.84 281.25 199.08 283.36 200.18 284.6 201.22 285.88 203 289.39 205.46 288.16 206.82 287.56 207.96 286.23 209.37 285.37 211.64 284.62 216.75 284.61 218.07 285.92 222.89 286.88 225.59 287.5 226.23 288.95 227.06 289.02 228.2 289.5 228.93 291.46 229.22 292.58 230.81 293.94 231.6 295.37 234.47 296.26 235.41 297.33 237.74 297.64 240.12 297.99 240.9 300.25 242.95 301.01 243.18 302.81 243.07 303.54 242.59 304.38 241.42 306.11 240.26 308.09 240.3 309.17 240.98 311.68 243.24 312.49 244.67 313.62 247.69 314.32 249.05 315.31 249.65 316.51 249.29 316.26 250.22 315.14 252.72 315.05 254.9 315.61 258.97 316.45 260.81 316.72 262.06 317.41 263.02 318.93 263.44 319.08 264.07 320.2 265.83 320.41 266.96 320.25 268.21 320.8 269.15 320.9 270.42 322.26 271.63 322.55 272.33 324.37 274.11 325.24 274.57 326.26 274.66 328.35 274.47 328.44 277.66 327.28 277.68 326.54 278.45 326.34 279.3 327.01 280.67 326.84 281.28 325.12 282.74 323.83 284.3 323.9 285.31 324.75 285.96 325.2 286.84 325.97 287.22 327.1 290.88 327.08 291.84 326.49 292.39 324.81 292.25 323.74 291.3 322.77 290.92 321.16 291.29 321.55 292.79 321.13 293.64 319.98 291.99 319.14 291.3 318.9 289.78 318.06 288.47 316.02 286.43 314.47 284.55 313.41 283.89 312.92 283.22 312.21 283.22 307.46 277.15 306.02 276.28 303.67 273.53 302.13 273.28 302.18 272.26 301.15 270.48 300.99 269.73 299.83 267.39 298.61 266.63 297.59 265.7 296.87 264.39 296.21 264.06 295.27 262.74 294.09 261.58 293.01 261.21 292.5 259.35 291.3 257.83 290.99 256.64 290.27 255.3 286.89 251.6 284.84 250.27 283.51 248.96 278.27 245.36 277.6 244.1 275.66 242.96 274.09 241.49 268.24 237.87 268.39 237.54 270.64 238.71 274.13 240.98 275.04 240.83 275.73 240.01 275.64 239.1 274.7 236.93 273.73 237.26 272.8 238.14 272.05 238.39 270.72 237.2 270.03 237.58 269.15 237.04 268.67 235.92 267.1 234.6 266.4 234.74 265.37 233.81 264.27 233.69 264.87 235.08 262.69 233.13 261.65 229.33 262.7 230.08 263.28 229.51 262.55 227.59 262.42 226.17 262.94 224.65 261.66 223.4 261.33 223.84 261.75 226 261.53 227.85 260.36 228.28 259.43 227.68 258.64 226.61 256.66 222.57 255.17 221.02 255.41 220.38 257.59 222.94 257.87 223.73 259.35 223.8 259.23 222.82 258.47 222.56 259.12 221.69 259.91 222.61 262.24 223.3 262.48 222.48 259.87 220.1 258.81 220.45 258.21 220.2 257.07 218.54 256.2 218.89 254.15 218.88 254.56 216.99 253.45 215.85 252.57 217.39 252 216.42 251.2 215.85 248.59 214.78 247.08 213.79 246.97 213.27 245.99 212.43 244.16 212.04 243.21 210.01 243.17 208.29 242.55 208.4 240.13 207.65 240.17 209.7 239.46 210.32 238.82 210.16 238.56 209.31 237.29 209.42 236.47 210.39 235.67 209.83 234.41 208.4 235.12 208.04 235.56 207.17 236.74 207.37 238.04 207.18 239.7 205.53 240.36 204.25 240.54 202.8 241.55 201.9 241.13 201.23 239.84 203.8 239.44 204.18 237.61 204.86 236.29 206.49 234.47 207.06 233.7 206.77 233.02 205.26 231.68 204.69 231.14 204.97 233.07 206.68 232.8 207.28 231.6 205.82 230.71 205.52 227.91 205.58 227.57 204.92 229.03 204.71 229.76 204.97 230.08 203.35 229.22 202.47 228.27 202.06 227.37 202.6 226.23 201.21 226.77 198.33 226.3 197.02 226.41 194.81 227.33 193.26 228.7 191.63 229.02 190.5 229.95 188.76 230.19 188.66 229.89 190.57 230.58 190.36 230.74 189.51 231.51 188.02 233.4 186.76 232.88 188.04 234.58 189.34 234.98 189.09 234.41 187.3 233.83 186.09 Z" fill-rule="evenodd" id="MX-SIN" data-name="Sinaloa"/>
<path d="M 778.71 319.46 779.08 324.9 778.97 325.8 777.97 327.28 777.57 329.98 778.73 332.49 778.85 334.17 777.28 337.27 776.97 339.03 775.3 342.48 773.76 343.41 771.6 345.04 769.51 346.83 766.75 348.22 765.22 348.14 764.41 348.39 763.04 347.56 762.2 347.73 761.59 348.28 760.22 350.67 760.55 351.83 759.95 352.78 759.19 351.4 758.36 351.34 757.67 351.83 757 353.62 755.86 354.97 754.39 355.33 753.04 356.21 751.62 356.53 749.25 357.73 747.76 358.72 747.17 359.39 747.13 360.41 745.92 359.53 744.11 361.28 743.26 361.62 740.46 361.73 739.66 362.25 738.06 362.77 736.77 364.15 732.57 364.73 732.53 366.47 731.9 368.32 731.39 369.26 730.72 367.78 730.4 365.88 729.22 364.26 727.8 362.85 725.98 359.39 724.48 358.24 722.74 357.54 721.42 356.21 720.82 354.3 719.93 352.69 718.06 351.22 717.59 349.5 716.18 347.33 715.48 347.79 715.03 348.82 714.27 348.95 713.37 348.1 712.38 348.49 711.72 347.92 711.38 346.95 710.68 346.19 707.21 345.96 706.76 345.19 707.06 338.5 707.03 337.73 705.99 337.85 707.56 332.97 708.26 332.1 711.61 329.89 713.27 329.28 714.13 328.54 717.09 327.6 718.62 326.47 722.04 325.28 724.78 324.81 726.78 324.81 730.29 324.18 735.08 323.7 737.15 323.09 738.76 323.15 742.15 322.43 743.81 321.92 744.93 321.8 746.31 321.3 749.37 320.57 750.26 319.99 751.82 318.52 753.89 318.13 755.8 317.41 757.78 317.41 759.07 317.88 759.97 317.91 762.17 317.51 761.79 316.92 763.83 316.3 765.3 316.65 768.05 316.73 770.68 317.7 772.9 318.02 772.7 319.16 775.25 319.26 775.03 318.67 776.72 318.89 778.71 319.46 Z" id="MX-YUC" data-name="Yucatán"/>
<path d="M 499.29 294.47 501.88 294.01 503.75 294.08 505.66 294.95 507.32 294.79 507.52 293.15 508.38 293.38 509.85 292.78 510.33 292.98 510.75 294.22 512.49 295.72 513.49 295.8 515.77 296.35 517.48 297.5 517.03 298.59 518.29 299.89 520.34 298.43 520.53 298.97 520.6 302.29 520.87 303.26 524.66 310.34 527.24 313.4 529.62 315.47 531.42 316.65 532.08 317.79 532.01 318.91 531.28 321.67 530.01 323.74 529.5 325.58 529.17 323.72 528.15 321.13 529.48 320.08 530.2 320.19 530.62 319.33 530.5 317.97 527.78 315.75 527.41 315.09 526.04 313.67 524.87 311.93 524.29 311.46 523.72 309.02 521.9 307.18 522.19 310.56 522.7 312.37 523.09 314.69 523.47 315.74 525.49 319.42 526.67 320.09 527.71 319.97 527.53 322.14 529.22 325.63 529.85 326.44 530.03 327.43 531.53 331.49 533.29 334.92 535.09 338.1 535.57 339.47 535.06 340.02 536.26 342.5 539.19 346.07 541.56 347.83 541.93 348.87 544.73 352.1 546.76 353.97 547.08 354.73 548.23 355.66 549.11 357.21 550.78 359.19 552.42 361.79 553.78 363.42 555.07 366.82 555.35 369.17 556.2 372.31 557.33 373.77 557.2 374.94 557.76 377.2 558.26 378.26 558.87 378.61 561.32 380.65 561.96 380.36 563.05 383.58 564.25 384.9 565.86 385.1 566.75 388.28 567.72 389.8 569.21 391.1 570.68 391.48 571.52 391.99 571.52 392.9 569.71 391.63 568.33 391.23 567.44 390.32 566.89 390.96 568.25 391.53 568.49 392.02 570.15 393.26 568.66 393.08 569.02 394.2 569.72 394.11 570.97 393.48 574.19 394.37 572.14 393.13 572.03 391.99 573.76 393.29 575.79 394.07 578.02 394.45 581.31 394.56 583.57 394.39 585.26 394.42 586.15 394.74 587.03 395.53 589.21 396.99 589.9 398.27 590.45 398.5 595.36 399.34 596.33 400.41 597.11 402.45 597.63 403.3 599.89 405.68 601.08 408.21 602.35 408.99 603.96 409.42 605.94 409.12 606.8 408.78 610.51 408.22 612.28 407.75 612.57 408.81 613.32 409.05 613.47 411.32 614.46 413.42 613.99 414.15 613.8 416.38 614.75 416.75 615.15 417.3 616.48 417.69 617.01 418.26 617.33 419.65 619.22 420.02 619.62 420.93 620.43 421 622.45 421.95 623.09 423.01 624.16 424.2 625.26 424.82 625.46 425.26 624.73 428.58 625.21 429.42 626.09 429.78 625.36 431.35 624.91 431.78 619.26 435.62 618.93 435.73 603.2 434.78 596.74 434.26 593.7 434.2 592.06 433.98 591.22 433.44 590.73 431.76 591.03 431.25 590.54 430.18 588.61 429.37 586.38 427 584.09 424.3 584.23 423.37 585.32 422.56 585.54 421.29 585.26 420.34 583.54 420.78 582.74 421.92 581.53 422.26 581.32 422.75 580.18 422.77 579.12 423.2 578.46 424.08 576.51 424.98 576.36 425.57 575.07 426.08 573.82 425.79 572.26 426.43 570.71 425.89 570.41 425.5 567.87 420.43 567.55 418.98 568.11 417.67 569.8 415.71 570.47 414.65 570.95 413.37 569.85 410.8 569.38 410.06 566.39 408.89 565.42 409 563.49 408.68 562.53 409.46 561.87 409.51 560.99 408.99 560.74 408.25 559.51 407.92 558.97 405.71 558.11 404.57 556.97 403.81 555.76 401.89 554.92 398.93 553.95 398.27 552.05 397.85 550.23 396.98 548.53 395.48 549.23 398.11 549.3 399.02 548.52 400.6 546.92 402.36 545.47 400.55 545.1 398.63 542.36 399.09 540.38 399.61 539.38 400.41 537.87 400.47 537.3 399.97 537.75 398.61 537.03 397.48 536.82 396.33 536.16 395.78 534.49 395.3 533.27 395.75 532.23 395.06 531.51 393.26 531.71 391.72 532.52 391.03 532.94 390.16 534.14 389.73 534.34 388.96 533.84 387.1 533.79 386.23 533.26 383.84 533.4 382.37 534.55 382.13 535.85 381.48 537.31 381.89 538 381.08 539.11 380.86 540.37 379.47 540.51 378.97 538.55 378.13 537.22 378.56 534.36 377.61 533.26 375.98 532.07 376.3 531.45 375.5 530.3 375.36 530 374.57 531.3 374.49 531.97 373.81 531 372.64 531.07 371.96 530.16 371.27 530.24 370 530.65 368.89 531.87 368.09 532.3 366.65 532.44 365.07 532.23 362.85 533.28 360.93 536.17 357.74 536.64 356.63 536.2 355.99 534.29 355.3 532.46 354.37 530.98 353.3 529.88 352.93 528.19 353.52 527.71 354.54 526.36 356.23 525.62 356.71 525.05 356.29 524.78 354.88 523.41 355.1 522.65 354.85 521.84 353.3 520.53 352.56 520.42 352.1 520.9 350.87 520.64 350.11 520.64 348.11 521.72 348.07 522.57 347.38 523.92 348.73 524.69 348.23 525.97 346.35 525.94 345.68 525.2 344.25 523.35 343.58 522.26 343.7 521.86 343.21 522.38 342.57 521.37 340.72 521.32 338.97 520.4 338 518.79 338 518.24 337.71 517.45 338.2 517.45 339.51 516.45 340.25 516.08 342.27 516.24 344 516.07 345.12 515.47 346.37 514.83 346.88 514.2 345.36 514.8 344.29 514.28 343.28 514.29 342.13 513.27 341.76 512.83 341.15 512.04 341.38 511.15 342.3 509.72 344.27 506.36 348.21 505.32 347.41 503.88 349.93 503.02 350.4 502.2 350.16 501.35 348.44 500.49 347.21 500.43 346.6 501.52 345.17 501.71 343.66 502.02 343.11 503.8 341.7 504.27 340.82 504.03 339.76 503.1 340.27 502.35 339.54 502.62 339.13 504.26 338.69 504.37 337.59 504.13 336.51 504.91 336.3 506.57 336.73 507.67 337.41 508.89 337.59 508.97 334.64 510.62 332.38 511.05 332.35 511.56 331.03 509.47 328.91 508.56 329.64 507.56 329.1 508.12 327.65 507.39 327.34 505.77 328.78 504.49 328.18 502.39 325.86 502.46 325.09 503.66 323.41 501.84 322.19 501.78 320.17 501.46 318.77 499.69 317.77 498.63 316.49 499.07 315.97 499.09 314.43 500.45 314.24 500.72 313.28 502.5 312.59 503.07 312.01 503.25 311.04 502.61 310.77 502.45 309.87 501.42 309.97 500.67 309.07 501.17 308.3 501.02 307.03 500.01 307.18 499.95 306.42 501.25 306.63 503.42 306.4 504.07 304.74 505.72 301.72 506.06 299.84 505.41 298.66 504.08 297.7 501.89 296.37 499.29 294.47 Z M 523.63 311.64 524.88 312.61 523.92 312.8 523.63 311.64 Z" fill-rule="evenodd" id="MX-VER" data-name="Veracruz"/>
<path d="M 376.65 387.55 376.3 386.14 375.56 384.88 375.45 384.19 376.22 381.45 375.91 379.5 376.18 378.22 374.96 377.35 374.45 376.28 373.55 375.77 372.67 373.64 371.7 373.61 370.62 374.87 369.93 375.25 368.48 375.38 367.67 376.04 365.22 375.03 362.85 373.64 362.07 372.3 360.39 374.03 359.85 374.88 359.63 376.02 358.67 376.78 358.06 378.1 356.6 378.25 355.74 378.87 353.77 379.44 352.86 378.97 351.95 379.52 351.48 380.53 350.88 379.99 349.94 380.01 349.58 380.98 348.53 382.05 348.53 382.66 347.43 382.4 346.22 381.76 346.02 381.11 344.97 380.56 343.12 380.54 343.32 379.1 342.9 378.66 341.26 379.2 339.31 378.16 337.82 376.82 337.26 375.02 336.48 374.7 336.53 373.69 336.08 373.15 336.03 371.66 335.3 371.01 334.42 371.05 331.92 368.85 330.72 367.45 329.38 365.15 328.45 363.86 327.43 362.87 326.48 361.23 324.99 359.04 324.49 357.44 324.29 354.49 323.28 353.31 322.39 351.84 321.71 351.49 320.62 348.97 321.02 348.52 323.73 346.79 326.63 346.66 327.42 346.3 329.95 346.09 331.52 344.91 332.1 344.21 332.34 342.79 330.91 341.47 331.51 341.1 333.28 338.61 334.39 336.82 335.86 335.19 336.8 334.68 337.41 335.21 340.16 334.84 343.36 332.5 345.11 332.71 347.81 335.05 349.75 335.2 350.28 335.5 351.42 337.18 353.94 338.93 354.57 339.88 356.27 340.86 356.34 338.38 356.64 336.72 358.1 333.72 358.34 331.57 357.82 328.4 358.39 327.61 361.4 327.43 362.47 327.03 363.91 325.66 364.42 324.75 364.42 323.59 364.87 322.83 361.49 320.95 358.17 318.93 359.48 316.82 360.08 314.19 360.99 311.73 359.56 309.88 358.03 308.15 353.56 303.97 353.42 303.55 355.16 298.67 358.93 296.92 360.15 296.52 362.73 296.31 364.51 295.94 364.78 295.55 365.34 292.52 365.05 291.69 363.88 290.72 363.68 290.22 363.9 284.83 369.06 285.83 368.65 288.86 367.22 290.38 367.17 292.48 366.31 293.14 366.85 294.74 366.27 296.49 366.25 298.08 366.49 299.61 367.3 300.5 368.69 294.57 369.5 290.62 370.06 289.55 372.13 289.75 372.58 290.12 372.6 291.19 373.36 291.58 373.33 292.39 372.78 292.79 372.29 294.03 371.47 297.1 371.97 299.35 371.59 302.15 372.5 302.8 373.49 302.52 374.34 301.74 376.37 302.2 377.41 299.29 378.45 298.82 378.84 296.92 379.65 296.37 377.93 294.5 379.3 291.79 382.5 294.48 384.03 295.51 383.93 297.1 385.38 296.66 386.12 296.87 386.37 297.75 387.31 297.54 387.75 298.04 387.55 299.02 386.41 300.92 385.49 301.13 385.44 302.05 386.53 302.48 386.44 303.84 385.44 304.33 384.76 305.91 383.53 306.48 381.41 306.27 380.68 307.24 378.59 307.81 375.41 310.84 375.02 311.59 375.54 313.05 375.6 316.73 373.77 317.86 372.91 319.49 371.89 319.77 370.19 318.77 370.68 320.65 370.93 322.58 370.69 324.07 369.87 324.94 369.78 326.46 370.13 326.83 371.69 325.94 372.63 326.09 372.92 327.33 373.78 327.76 375.88 327.68 376.97 328.59 378.58 328.59 379.52 328.91 382.86 330.84 383.8 331.14 385.26 330.98 386.61 331.85 387.2 331.77 387.5 330.98 387.53 329.72 387.29 325.79 388.09 325.1 389.3 325.46 390.85 325.34 391.57 325 392.94 323.84 393.68 324.06 394.54 323.82 395.42 322.81 396.63 322.13 397.6 319.79 397.93 318.52 397.77 317.59 396 317.35 394.35 316.52 394.19 315.28 394.74 312.7 397.24 311.91 398.03 312.04 400.96 313.86 402.12 314.17 406.7 314.83 408.09 314.63 410.25 312.82 411.91 312.18 412.24 311.57 412.69 309.52 413.98 308.92 414.74 308.02 416.66 307.08 417.83 305.4 419.88 306.88 421.66 306.87 423.43 307.76 424.58 309.11 425.81 309.23 426.02 310.19 424.53 311.89 424.55 313.18 425.7 314.88 425.57 315.74 423.64 317.15 423.01 318 423.09 318.99 424.66 321.5 424.86 322.53 424.71 323.58 423.73 325.02 421.81 326.59 419.68 326.76 418.64 328.21 417.58 328.97 416.87 330.32 415.23 332.4 412.78 336.42 411.71 338.63 411.78 340.28 413.75 342.03 414.51 343 414.75 344.11 414.42 344.97 412.4 347.32 411.41 349.51 409.31 350.37 407.8 350.76 406.43 350.17 403.3 350.7 401.36 351.45 400.61 352.27 398.99 352.74 398.09 353.58 396.83 354.04 394.92 354.21 394.22 354.87 389.28 356.13 387.48 356.67 386.75 357.09 386.54 357.71 386.84 359.97 387.78 360.7 390.37 360.16 391.53 360.93 394.44 361.05 394.79 361.45 394.83 362.82 396.1 363.62 395.55 364.22 393.5 364.71 393.33 365.52 393.48 367.11 393.83 368.25 394.59 369.05 395.32 371.1 395.05 372.79 395.12 373.95 396.08 374.15 398.43 373.54 398.85 373.81 399.42 375.63 400.09 376.32 398.85 377.57 398.88 378.3 397.34 380.49 395.56 379.78 394.47 379.91 394.08 380.5 391.62 381.25 390.3 382.57 389.85 384.06 388.99 385.1 386.95 385.8 385.62 386.49 385.38 387.51 384.49 387.63 383.37 386.25 382.59 386.31 381.94 385.41 381.23 385.38 379.92 387.25 377.33 387.31 376.65 387.55 Z" id="MX-JAL" data-name="Jalisco"/>
<path d="M 369.98 394.91 370.84 394.2 371.57 392.55 372.88 391.92 373.4 389.54 373.92 389.8 375.46 388.92 376.65 387.55 377.33 387.31 379.92 387.25 381.23 385.38 381.94 385.41 382.59 386.31 383.37 386.25 384.49 387.63 385.38 387.51 385.62 386.49 386.95 385.8 388.99 385.1 389.85 384.06 390.3 382.57 391.62 381.25 394.08 380.5 394.47 379.91 395.56 379.78 397.34 380.49 398.88 378.3 398.85 377.57 400.09 376.32 399.42 375.63 398.85 373.81 398.43 373.54 396.08 374.15 395.12 373.95 395.05 372.79 395.32 371.1 394.59 369.05 393.83 368.25 393.48 367.11 393.33 365.52 393.5 364.71 395.55 364.22 396.1 363.62 394.83 362.82 394.79 361.45 394.44 361.05 391.53 360.93 390.37 360.16 387.78 360.7 386.84 359.97 386.54 357.71 386.75 357.09 387.48 356.67 389.28 356.13 394.22 354.87 394.92 354.21 396.83 354.04 398.09 353.58 398.99 352.74 400.61 352.27 401.36 351.45 403.3 350.7 406.43 350.17 407.8 350.76 409.31 350.37 411.41 349.51 414.04 349.07 414.38 349.97 415.21 350.07 415.63 353.13 416.32 354.44 417.47 354.52 418.25 354.26 421.76 354.5 422.16 354.78 423.05 353.6 423.82 351.3 425.62 350.9 427.04 351.01 427.69 351.65 429.5 352.19 429.4 353.03 428.2 353.86 428.77 354.72 428.43 355.49 428.84 356.25 428.57 358.46 429.24 358.84 430.24 358.43 430.76 358.75 431.93 358.64 433.23 359.09 434.26 358.97 435.03 357.17 435.63 357.01 436.49 357.59 438.01 357.22 439.18 357.49 439.5 359.27 438.02 360.11 438.72 361.21 440.47 361.87 441.31 361.91 442.72 361.39 443.45 360.56 444.84 362.3 445.88 362.38 446.05 361.59 450.23 361.32 450.68 362.29 451.32 362.34 451.67 361.47 452.59 360.99 454.39 360.86 454.82 359.75 454.32 357.91 454.77 356.66 455.57 356.61 456.54 354.86 457.17 354.17 458.43 354.78 459.39 356.04 459.93 357.59 459.92 360.48 460.2 360.98 461.28 361.56 461.04 362.93 460.06 366.44 460.2 367.66 458.97 371.56 459.97 374.26 460.69 375.02 460.38 375.44 456.05 378.03 456.84 379.75 453.28 384.45 451.19 386.9 451.08 388.01 450.13 388.56 448.65 390.1 447.87 391.36 447.11 392.14 446.38 390.51 445.45 390.72 444.48 391.96 444.48 392.46 445.58 393.73 444.91 395.07 445.56 397.44 445.58 398.78 445.92 399.77 449 402.16 449.1 403.19 448.43 404.3 447.86 403.77 446.99 404.6 446.21 403.22 446.87 402.44 446.73 401.54 445.69 401.68 443.74 400.03 441.04 399.95 441.16 400.59 440.34 400.88 440.06 399.92 439.35 399.89 438.54 398.94 436.72 399.21 432.67 398.98 432.08 399.28 428.12 400.35 426.75 400.58 425.61 400.38 424.19 399.49 423.57 398.32 422.88 397.85 419.98 397.59 417.99 397.94 416.94 399.36 416.62 401.07 416.76 402.91 417.09 404.75 416.74 406.01 415.41 407.82 412.96 407.97 410.82 408.27 409.91 408.94 409.41 411.17 409.41 412.7 410.11 414.34 409.67 415.34 409.12 415.48 406.65 414.27 403.31 413.3 401.94 412.78 400.96 412.7 398.86 411.95 396.49 411.75 395.2 411.47 391.74 410.01 388.08 408.32 385.84 408.15 383.12 407.04 382.67 407.09 380.03 406.06 379.58 406.17 378 405.2 376.13 404.4 375.5 403.26 374.19 400.18 372.83 398.7 370.79 397.28 371.39 396.55 371.04 395.87 369.98 394.91 Z" id="MX-MIC" data-name="Michoacán"/>
<path d="M 409.67 415.34 410.11 414.34 409.41 412.7 409.41 411.17 409.91 408.94 410.82 408.27 412.96 407.97 415.41 407.82 416.74 406.01 417.09 404.75 416.76 402.91 416.62 401.07 416.94 399.36 417.99 397.94 419.98 397.59 422.88 397.85 423.57 398.32 424.19 399.49 425.61 400.38 426.75 400.58 428.12 400.35 432.08 399.28 432.67 398.98 436.72 399.21 438.54 398.94 439.35 399.89 440.06 399.92 440.34 400.88 441.16 400.59 441.04 399.95 443.74 400.03 445.69 401.68 446.73 401.54 446.87 402.44 446.21 403.22 446.99 404.6 447.86 403.77 448.43 404.3 449.1 403.19 449 402.16 445.92 399.77 445.58 398.78 445.56 397.44 444.91 395.07 445.58 393.73 444.48 392.46 444.48 391.96 445.45 390.72 446.38 390.51 447.11 392.14 447.87 391.36 448.65 390.1 450.57 390.66 452.9 390.82 453.61 392.65 453.08 394.17 453.49 395.09 453.46 396.05 453.9 396.85 455.02 397.98 455.56 399.1 455.14 401.16 456.13 402.56 457.45 402.84 460.65 400.2 461.64 398.93 462.58 397.06 463.6 396.89 466.93 395.84 468.17 395.63 469.81 396.73 470.49 396.04 470.76 394.87 472.95 392.95 473.47 393.16 475.12 395.01 476.06 395.44 477.11 395.34 476.81 396.67 477.81 396.92 478.06 397.82 478.6 397.99 479.26 399.22 480.08 399.99 480.91 400.02 481.25 401.22 483.43 401.2 483.85 399.28 484.64 398.43 485.81 398.83 486.04 400.06 486.55 400.67 487.02 401.87 488.12 403.04 488.35 403.96 488.41 405.58 488.83 406.54 489.56 406.8 489.59 407.5 490.38 408.33 491.37 408.07 491.46 409.11 491.99 409.78 493.91 410.17 494.26 411.4 494.95 412.34 495.9 413.02 497.05 413.5 500.83 414.52 502.51 414.52 504.31 414.3 506.06 416.11 506.56 417.01 505.82 419.04 505.03 422.77 505.69 424.12 505.24 425.02 505.4 425.75 506.57 427.05 506.44 428.49 506.82 429.22 506.49 430.79 506.98 431.59 507.97 431.92 509.09 433.81 511.06 434.02 512.24 435.38 514.5 438.49 514.76 439.01 514.37 440.69 513.34 442.32 512.99 445.52 511.76 446.98 510.78 447.46 508.77 447.53 509.29 449.75 508.89 450.8 508.38 450.99 507.08 450.82 506.43 451.12 506.12 452.22 506.88 453.72 506.71 454.51 505.54 455.88 504.91 456.22 502.88 456.39 501.73 456.79 500.84 457.64 500.14 456.52 497.22 453.86 496.28 452.49 495.23 451.41 493.49 451.64 493.22 452.12 491.95 451.95 490.96 451.54 485.98 449.94 480.16 448.44 477.13 447.97 474.33 448.05 472.22 447.42 470.91 446.79 468.4 444.73 467.68 444.74 467.96 443.61 466.7 443.74 464.59 442.07 461.47 441.06 456.31 439.1 450.14 436.92 446.39 435.68 444.7 434.93 438.95 433.02 438.07 432.56 437.76 431.71 436.5 430.45 434.82 429.4 434.56 428.8 432.52 427.65 427.66 425.79 428.04 424.98 426.63 423.46 424.14 422.91 424.03 422.43 422.9 422.04 422.82 421.06 422.2 420.13 420.35 418.76 419.65 417.27 418.69 416.16 417.18 415.49 415.64 414.57 413 413.5 411.39 413.72 411.16 414.17 409.67 415.34 Z" id="MX-GRO" data-name="Guerrero"/>
<path d="M 618.93 435.73 619.15 437.15 619.07 439.37 618.13 439.68 617.98 442.84 615.01 444.62 614.61 445.48 614.85 448.58 614.52 449.61 613.09 451.54 612.58 452.63 613.08 454.13 614.43 457.16 614.81 458.82 614.42 460.78 613.63 462.09 612.8 461.29 612.51 460.2 610.08 460.65 607.99 459.76 606.57 458.46 605.21 458.32 605.29 459.85 604.72 460.15 607.02 461.71 608.36 462.29 608.81 461.65 609.94 461.71 611.45 462.46 611.11 462.83 613.37 463.4 612.84 464.49 607.07 462.12 605.84 461.33 604.65 461.09 601.12 461.01 600.04 460.68 598.06 460.86 597.78 459.95 599.96 459.26 600.93 458.58 601.09 457.42 599.23 456.45 597.55 457.8 596.48 458.29 595.73 459.23 595.37 458.16 596.25 457.4 595.62 456.59 595.37 455.63 594.24 454.73 593.57 454.84 592.5 455.61 591.14 457.42 589.67 457.42 588.9 458.95 590.53 459.4 593.01 459.52 593.13 459.84 595.42 459.77 595.07 460.39 593.14 460.44 588.86 461.18 586.75 461.09 586.45 461.71 584.63 461.84 584.24 462.47 582.81 463.54 581.6 463.91 580.97 464.75 581.11 465.27 579.78 466.01 579.55 466.64 576.07 467.12 575.01 467.86 573.8 468.31 571.46 468.64 570.31 469.39 566.3 470.51 562.06 472.48 562.12 472.87 559.32 474.3 556.16 474.28 554.41 473.97 553.02 474.89 551.26 474.93 548.11 473.61 545.01 473.03 543.97 473.01 541.81 471.69 539.5 471.05 538.49 469.68 538.14 469.75 536.01 468.52 533.35 467.68 531.34 467.42 530.76 467.71 528.47 467.44 526.7 466.83 526 466.99 524.52 466.64 523.41 466.61 522.86 466.99 520.57 466.53 518.98 465.72 516.24 463.7 512.68 461.66 511.71 460.5 510.34 459.85 509.39 460.1 506.87 459.28 503.6 458.69 500.84 457.64 501.73 456.79 502.88 456.39 504.91 456.22 505.54 455.88 506.71 454.51 506.88 453.72 506.12 452.22 506.43 451.12 507.08 450.82 508.38 450.99 508.89 450.8 509.29 449.75 508.77 447.53 510.78 447.46 511.76 446.98 512.99 445.52 513.34 442.32 514.37 440.69 514.76 439.01 514.5 438.49 512.24 435.38 511.06 434.02 509.09 433.81 507.97 431.92 506.98 431.59 506.49 430.79 506.82 429.22 506.44 428.49 506.57 427.05 505.4 425.75 505.24 425.02 505.69 424.12 505.03 422.77 505.82 419.04 506.56 417.01 506.06 416.11 507.02 415.29 507.84 415.61 508.71 415.53 509.39 414.88 510.47 412.79 511.07 412.55 514.93 412.63 516.72 412.3 517.24 413.03 517.59 414.91 518.43 415.49 519.67 414.97 521.23 413.63 521.58 413.12 520.98 411.46 519.81 410.44 519.43 409.61 521.77 405.23 523.09 404.8 524.77 403.68 524.78 404.75 523.85 407.88 523.91 408.73 526.53 410.73 526.64 411.9 527.62 413.42 528.63 413.82 529.29 413.51 530.27 411.45 531.09 410.31 532.15 409.41 533.73 408.75 535.32 408.57 536.66 409.21 539.41 410.01 540.19 409.97 540.89 409.42 541.9 407.86 543.06 406.77 544.41 406.31 545.37 405.72 546.82 402.89 546.92 402.36 548.52 400.6 549.3 399.02 549.23 398.11 548.53 395.48 550.23 396.98 552.05 397.85 553.95 398.27 554.92 398.93 555.76 401.89 556.97 403.81 558.11 404.57 558.97 405.71 559.51 407.92 560.74 408.25 560.99 408.99 561.87 409.51 562.53 409.46 563.49 408.68 565.42 409 566.39 408.89 569.38 410.06 569.85 410.8 570.95 413.37 570.47 414.65 569.8 415.71 568.11 417.67 567.55 418.98 567.87 420.43 570.41 425.5 570.71 425.89 572.26 426.43 573.82 425.79 575.07 426.08 576.36 425.57 576.51 424.98 578.46 424.08 579.12 423.2 580.18 422.77 581.32 422.75 581.53 422.26 582.74 421.92 583.54 420.78 585.26 420.34 585.54 421.29 585.32 422.56 584.23 423.37 584.09 424.3 586.38 427 588.61 429.37 590.54 430.18 591.03 431.25 590.73 431.76 591.22 433.44 592.06 433.98 593.7 434.2 596.74 434.26 603.2 434.78 618.93 435.73 Z" id="MX-OAX" data-name="Oaxaca"/>
<path d="M 725.12 295.76 724.42 295.31 724.26 294.5 725.29 293.7 725.34 293.01 724.52 292.05 724.44 291.46 723.23 290.9 723.46 289.98 725.27 291.14 726.11 292.3 726.48 293.31 725.87 295.55 725.12 295.76 Z" id="MX-X01~" data-name="null"/>
<path d="M 448.65 390.1 450.13 388.56 451.08 388.01 451.19 386.9 453.28 384.45 456.84 379.75 456.05 378.03 460.38 375.44 460.69 375.02 459.97 374.26 458.97 371.56 460.2 367.66 460.06 366.44 461.04 362.93 461.28 361.56 464.03 357.3 465.62 355.31 467.19 354.79 465.95 353.13 468.31 351.6 469.63 352.32 470.23 353.51 471.53 354.96 473.42 356.44 473.82 355.62 475.77 355.67 477.35 358.26 476.52 361.16 477.11 361.92 478.32 362.31 478.9 363.16 479 364.27 479.53 364.7 479.85 366.44 481.5 364.58 482.37 364.68 482.76 363.1 484.14 362.46 484.51 360.46 486.15 360.08 488.34 358.96 489.16 358.77 490.5 359.28 491.06 360.16 490.93 361.69 491.38 361.75 490.77 363.22 490.46 364.69 491.73 365.15 493.77 362.95 494.65 363.25 495.07 363.87 496.03 364.18 497.23 363.91 498.39 365.11 499.57 366.85 499.66 368.01 498.2 371.01 496.94 371.08 497.33 372.43 498.5 372.94 498.67 374.32 497.89 376.24 498.41 378.53 498.87 381.6 498.41 382.12 498.31 384.48 498.68 385.17 498.53 386.03 497.45 386.57 496.93 387.46 495.63 387.69 494.28 387.34 493.64 385.46 493.14 385.52 492.3 384.72 490.52 384.28 491.06 383.42 491.01 382.51 490.45 381.29 490.65 379.68 490.4 378.43 489.86 377.67 488.47 376.96 488.16 375.85 488.63 375.24 487.82 373.6 487.21 372.94 487.05 371.94 486.48 371.4 485.7 372.24 485.75 373.52 485.18 373.79 483.61 375.86 483.05 377.02 481.8 376.97 481.21 378.71 481.67 380.51 481.87 382.16 482.41 382.85 481.47 383.86 481.31 384.68 481.88 385.39 481.19 385.86 481.29 386.67 481.88 387.23 481.85 388.39 479.75 389.44 478.58 391.35 477.69 391.97 477.64 392.9 477.11 395.34 476.06 395.44 475.12 395.01 473.47 393.16 472.95 392.95 470.76 394.87 470.49 396.04 469.81 396.73 468.17 395.63 466.93 395.84 463.6 396.89 462.58 397.06 461.64 398.93 460.65 400.2 457.45 402.84 456.13 402.56 455.14 401.16 455.56 399.1 455.02 397.98 453.9 396.85 453.46 396.05 453.49 395.09 453.08 394.17 453.61 392.65 452.9 390.82 450.57 390.66 448.65 390.1 Z" id="MX-MEX" data-name="México"/>
<path d="M 514.83 346.88 515.47 346.37 516.07 345.12 516.24 344 516.08 342.27 516.45 340.25 517.45 339.51 517.45 338.2 518.24 337.71 518.79 338 520.4 338 521.32 338.97 521.37 340.72 522.38 342.57 521.86 343.21 522.26 343.7 523.35 343.58 525.2 344.25 525.94 345.68 525.97 346.35 524.69 348.23 523.92 348.73 522.57 347.38 521.72 348.07 520.64 348.11 520.64 350.11 520.9 350.87 520.42 352.1 520.53 352.56 521.84 353.3 522.65 354.85 523.41 355.1 524.78 354.88 525.05 356.29 525.62 356.71 526.36 356.23 527.71 354.54 528.19 353.52 529.88 352.93 530.98 353.3 532.46 354.37 534.29 355.3 536.2 355.99 536.64 356.63 536.17 357.74 533.28 360.93 532.23 362.85 532.44 365.07 532.3 366.65 531.87 368.09 530.65 368.89 530.24 370 530.16 371.27 531.07 371.96 531 372.64 531.97 373.81 531.3 374.49 530 374.57 530.3 375.36 531.45 375.5 532.07 376.3 533.26 375.98 534.36 377.61 537.22 378.56 538.55 378.13 540.51 378.97 540.37 379.47 539.11 380.86 538 381.08 537.31 381.89 535.85 381.48 534.55 382.13 533.4 382.37 533.26 383.84 533.79 386.23 533.84 387.1 534.34 388.96 534.14 389.73 532.94 390.16 532.52 391.03 531.71 391.72 531.51 393.26 532.23 395.06 533.27 395.75 534.49 395.3 536.16 395.78 536.82 396.33 537.03 397.48 537.75 398.61 537.3 399.97 537.87 400.47 539.38 400.41 540.38 399.61 542.36 399.09 545.1 398.63 545.47 400.55 546.92 402.36 546.82 402.89 545.37 405.72 544.41 406.31 543.06 406.77 541.9 407.86 540.89 409.42 540.19 409.97 539.41 410.01 536.66 409.21 535.32 408.57 533.73 408.75 532.15 409.41 531.09 410.31 530.27 411.45 529.29 413.51 528.63 413.82 527.62 413.42 526.64 411.9 526.53 410.73 523.91 408.73 523.85 407.88 524.78 404.75 524.77 403.68 523.09 404.8 521.77 405.23 519.43 409.61 519.81 410.44 520.98 411.46 521.58 413.12 521.23 413.63 519.67 414.97 518.43 415.49 517.59 414.91 517.24 413.03 516.72 412.3 514.93 412.63 511.07 412.55 510.47 412.79 509.39 414.88 508.71 415.53 507.84 415.61 507.02 415.29 506.06 416.11 504.31 414.3 502.51 414.52 500.83 414.52 497.05 413.5 495.9 413.02 494.95 412.34 494.26 411.4 493.91 410.17 491.99 409.78 491.46 409.11 491.37 408.07 490.38 408.33 489.59 407.5 489.56 406.8 488.83 406.54 488.41 405.58 488.35 403.96 489.42 403.21 491.11 402.53 491.39 401.64 492.69 400.49 494.47 400.11 495.39 400.49 496.72 401.71 497.76 401.9 497.1 398.88 496.42 397.53 495.91 394.86 497.39 395.1 498.04 394.59 496.89 392.78 496.92 392 496.33 391.67 497.34 390.31 498.23 389.55 497.77 388.75 498.31 388.09 498.53 386.03 498.68 385.17 498.31 384.48 498.41 382.12 498.87 381.6 498.41 378.53 497.89 376.24 498.67 374.32 501 374.96 502.4 374.52 503.08 374.95 503.91 377.47 505.36 378.81 505.96 380.21 506.68 380.99 508.46 382.34 509.39 383.65 509.95 383.81 512.1 383.06 513.57 381.07 516.62 382.43 517.75 382.22 518.7 381 517.98 380.13 517.91 379.23 519.18 378.34 520.5 378.74 521.66 378.51 522.45 379.1 523.2 379.08 524.41 378.13 524.6 377.41 523.88 376.7 523.19 376.78 522.29 376.24 520.91 374.69 520.01 374.45 518.76 375 517.9 372.99 518.6 372.84 518.8 372.14 516.33 371.16 515.3 370.07 513.96 369.66 514.12 368.17 513.73 367.45 512.99 367.51 513.09 368.32 512.6 368.7 511.22 368.67 510.54 367.79 508.69 364.56 508.65 363.35 510.48 360.65 510.86 359.16 512.29 357.59 511.79 356.21 511.42 354.25 510.78 353.92 508.63 354.46 507.88 353.4 508.5 351.77 508.89 351.45 510.81 351.04 511.9 349.33 513.51 348.41 514.83 346.88 Z" id="MX-PUE" data-name="Puebla"/>
<path d="M 488.35 403.96 488.12 403.04 487.02 401.87 486.55 400.67 486.04 400.06 485.81 398.83 484.64 398.43 483.85 399.28 483.43 401.2 481.25 401.22 480.91 400.02 480.08 399.99 479.26 399.22 478.6 397.99 478.06 397.82 477.81 396.92 476.81 396.67 477.11 395.34 477.64 392.9 477.69 391.97 478.58 391.35 479.75 389.44 481.85 388.39 481.88 387.23 481.29 386.67 481.19 385.86 481.88 385.39 481.31 384.68 481.47 383.86 482.41 382.85 483.83 383.74 486.3 384.11 487.32 384.4 488.53 385.11 489.16 384.35 490.52 384.28 492.3 384.72 493.14 385.52 493.64 385.46 494.28 387.34 495.63 387.69 496.93 387.46 497.45 386.57 498.53 386.03 498.31 388.09 497.77 388.75 498.23 389.55 497.34 390.31 496.33 391.67 496.92 392 496.89 392.78 498.04 394.59 497.39 395.1 495.91 394.86 496.42 397.53 497.1 398.88 497.76 401.9 496.72 401.71 495.39 400.49 494.47 400.11 492.69 400.49 491.39 401.64 491.11 402.53 489.42 403.21 488.35 403.96 Z" id="MX-MOR" data-name="Morelos"/>
<path d="M 461.28 361.56 460.2 360.98 459.92 360.48 459.93 357.59 459.39 356.04 458.43 354.78 457.17 354.17 456.12 353.69 455.86 353.12 454.95 352.58 454.42 351.26 452.55 349.1 452.15 348.19 451.99 345.29 450.29 342.2 450.03 341.11 450.12 340 451.09 338.04 451.37 336.19 452.42 334.31 453.3 333.79 454 335.35 456.25 335.78 457.98 334.8 458.74 335 459.76 336.24 460.54 336.09 461.03 335.42 461.71 335.23 462.18 334.46 462.41 333.18 462.55 330.58 463.06 328.7 464.06 327.77 465.39 327.54 466.55 327.89 467.31 328.67 468.75 328.7 469.73 328.27 470.14 327.52 471.31 326.91 471.76 326.3 471.45 325.67 470.05 325.48 469.61 325.1 469.71 323.44 469.48 322.69 469.66 321.64 470.73 319.31 471.44 319.05 473.39 320.49 473.8 321.43 475.22 322.36 475.71 322.04 477.6 321.97 477.94 321.5 479.99 321.27 481.15 319.56 481.22 318.83 482.42 318.64 483.13 318.16 483.15 317.29 484.6 316.11 485.98 320.06 487.11 322.66 486.77 325.13 487.71 325.18 488.51 325.72 488.54 328.23 486.53 328.35 485.77 328.62 484.63 329.62 483.86 329.77 482.48 329.01 480.42 329.97 480.04 330.79 480.67 332.22 479.94 333.37 479.73 334.84 479.13 335.78 477.71 336.69 477.19 337.45 476.45 340.12 476.51 340.94 477.24 342.12 474.54 343.46 473.34 344.79 471.6 345 468.93 346.12 468.82 347.92 468.31 351.6 465.95 353.13 467.19 354.79 465.62 355.31 464.03 357.3 461.28 361.56 Z" id="MX-QUE" data-name="Querétaro"/>
<path d="M 501.84 322.19 503.66 323.41 502.46 325.09 502.39 325.86 504.49 328.18 505.77 328.78 507.39 327.34 508.12 327.65 507.56 329.1 508.56 329.64 509.47 328.91 511.56 331.03 511.05 332.35 510.62 332.38 508.97 334.64 508.89 337.59 507.67 337.41 506.57 336.73 504.91 336.3 504.13 336.51 504.37 337.59 504.26 338.69 502.62 339.13 502.35 339.54 503.1 340.27 504.03 339.76 504.27 340.82 503.8 341.7 502.02 343.11 501.71 343.66 501.52 345.17 500.43 346.6 500.49 347.21 501.35 348.44 502.2 350.16 503.02 350.4 503.88 349.93 505.32 347.41 506.36 348.21 509.72 344.27 511.15 342.3 512.04 341.38 512.83 341.15 513.27 341.76 514.29 342.13 514.28 343.28 514.8 344.29 514.2 345.36 514.83 346.88 513.51 348.41 511.9 349.33 510.81 351.04 508.89 351.45 508.5 351.77 507.88 353.4 508.63 354.46 510.78 353.92 511.42 354.25 511.79 356.21 512.29 357.59 510.86 359.16 510.48 360.65 508.65 363.35 508.69 364.56 510.54 367.79 511.22 368.67 509.97 368.5 508.09 367.56 507.23 368.85 506.49 370.44 506.1 370.77 505.25 370.29 503.17 370.01 502.55 369.44 501.47 370.25 500.39 369.72 498.88 370.32 498.2 371.01 499.66 368.01 499.57 366.85 498.39 365.11 497.23 363.91 496.03 364.18 495.07 363.87 494.65 363.25 493.77 362.95 491.73 365.15 490.46 364.69 490.77 363.22 491.38 361.75 490.93 361.69 491.06 360.16 490.5 359.28 489.16 358.77 488.34 358.96 486.15 360.08 484.51 360.46 484.14 362.46 482.76 363.1 482.37 364.68 481.5 364.58 479.85 366.44 479.53 364.7 479 364.27 478.9 363.16 478.32 362.31 477.11 361.92 476.52 361.16 477.35 358.26 475.77 355.67 473.82 355.62 473.42 356.44 471.53 354.96 470.23 353.51 469.63 352.32 468.31 351.6 468.82 347.92 468.93 346.12 471.6 345 473.34 344.79 474.54 343.46 477.24 342.12 476.51 340.94 476.45 340.12 477.19 337.45 477.71 336.69 479.13 335.78 479.73 334.84 479.94 333.37 480.67 332.22 480.04 330.79 480.42 329.97 482.48 329.01 483.86 329.77 484.63 329.62 485.77 328.62 486.53 328.35 488.54 328.23 488.51 325.72 489.71 324.96 491.14 325.1 491.84 326.84 492.23 327.34 494.06 328.19 494.95 328.15 496.16 327.57 497.43 327.25 498.59 327.53 499.89 327.24 500.06 325.39 500.07 322.78 501.84 322.19 Z" id="MX-HID" data-name="Hidalgo"/>
<path d="M 411.41 349.51 412.4 347.32 414.42 344.97 414.75 344.11 414.51 343 413.75 342.03 411.78 340.28 411.71 338.63 412.78 336.42 415.23 332.4 416.87 330.32 417.58 328.97 418.64 328.21 419.68 326.76 421.81 326.59 423.73 325.02 424.71 323.58 424.86 322.53 424.66 321.5 423.09 318.99 423.01 318 423.64 317.15 425.57 315.74 425.7 314.88 424.55 313.18 424.53 311.89 426.02 310.19 427.03 310.68 427.82 310.71 429.72 309.65 430.93 309.33 431.88 310.02 431.95 311.2 432.6 312.07 434.07 312.57 436.85 312.05 438.52 312.18 440.13 312.65 441.73 314.17 448.55 319.67 451.2 319.53 451.79 319.08 452.31 316.8 452.88 315.43 454.19 314.63 458.26 316.6 462.46 317.97 465.42 320.56 467.45 320.64 469.66 321.64 469.48 322.69 469.71 323.44 469.61 325.1 470.05 325.48 471.45 325.67 471.76 326.3 471.31 326.91 470.14 327.52 469.73 328.27 468.75 328.7 467.31 328.67 466.55 327.89 465.39 327.54 464.06 327.77 463.06 328.7 462.55 330.58 462.41 333.18 462.18 334.46 461.71 335.23 461.03 335.42 460.54 336.09 459.76 336.24 458.74 335 457.98 334.8 456.25 335.78 454 335.35 453.3 333.79 452.42 334.31 451.37 336.19 451.09 338.04 450.12 340 450.03 341.11 450.29 342.2 451.99 345.29 452.15 348.19 452.55 349.1 454.42 351.26 454.95 352.58 455.86 353.12 456.12 353.69 457.17 354.17 456.54 354.86 455.57 356.61 454.77 356.66 454.32 357.91 454.82 359.75 454.39 360.86 452.59 360.99 451.67 361.47 451.32 362.34 450.68 362.29 450.23 361.32 446.05 361.59 445.88 362.38 444.84 362.3 443.45 360.56 442.72 361.39 441.31 361.91 440.47 361.87 438.72 361.21 438.02 360.11 439.5 359.27 439.18 357.49 438.01 357.22 436.49 357.59 435.63 357.01 435.03 357.17 434.26 358.97 433.23 359.09 431.93 358.64 430.76 358.75 430.24 358.43 429.24 358.84 428.57 358.46 428.84 356.25 428.43 355.49 428.77 354.72 428.2 353.86 429.4 353.03 429.5 352.19 427.69 351.65 427.04 351.01 425.62 350.9 423.82 351.3 423.05 353.6 422.16 354.78 421.76 354.5 418.25 354.26 417.47 354.52 416.32 354.44 415.63 353.13 415.21 350.07 414.38 349.97 414.04 349.07 411.41 349.51 Z" id="MX-GUA" data-name="Guanajuato"/>
<path d="M 462.94 271.96 462.13 275.26 463.82 273.9 464.22 274.04 464.66 276.05 466.53 278.09 466.5 279.74 465.52 280.75 463.78 281.49 463.38 282.18 464.7 284.67 473.07 288.05 475.62 288.94 476.3 288.11 475.79 286.01 477.02 286.64 478.28 288.26 479.09 288.44 480.04 287.24 481.65 290.07 482.58 292.19 483.34 293.37 484.4 293.94 486.33 294.24 488.77 294.92 491.14 295.73 493.19 296.06 494.34 296 495.53 294.82 497.83 294.41 498.28 293.8 499.29 294.47 501.89 296.37 504.08 297.7 505.41 298.66 506.06 299.84 505.72 301.72 504.07 304.74 503.42 306.4 501.25 306.63 499.95 306.42 500.01 307.18 501.02 307.03 501.17 308.3 500.67 309.07 501.42 309.97 502.45 309.87 502.61 310.77 503.25 311.04 503.07 312.01 502.5 312.59 500.72 313.28 500.45 314.24 499.09 314.43 499.07 315.97 498.63 316.49 499.69 317.77 501.46 318.77 501.78 320.17 501.84 322.19 500.07 322.78 500.06 325.39 499.89 327.24 498.59 327.53 497.43 327.25 496.16 327.57 494.95 328.15 494.06 328.19 492.23 327.34 491.84 326.84 491.14 325.1 489.71 324.96 488.51 325.72 487.71 325.18 486.77 325.13 487.11 322.66 485.98 320.06 484.6 316.11 483.15 317.29 483.13 318.16 482.42 318.64 481.22 318.83 481.15 319.56 479.99 321.27 477.94 321.5 477.6 321.97 475.71 322.04 475.22 322.36 473.8 321.43 473.39 320.49 471.44 319.05 470.73 319.31 469.66 321.64 467.45 320.64 465.42 320.56 462.46 317.97 458.26 316.6 454.19 314.63 452.88 315.43 452.31 316.8 451.79 319.08 451.2 319.53 448.55 319.67 441.73 314.17 440.13 312.65 438.52 312.18 436.85 312.05 434.07 312.57 432.6 312.07 431.95 311.2 431.88 310.02 430.93 309.33 429.72 309.65 427.82 310.71 427.03 310.68 426.02 310.19 430.2 304.55 431.02 303.1 430.68 299.74 429.58 296.04 429.75 294.96 430.44 294.18 431.36 293.68 431.55 292.77 430.28 289.8 429.36 289.27 426.24 289.28 425.17 289.43 424.42 289.9 423.26 292.3 421.67 292.56 419.94 293.62 419.22 293.54 418.15 292.74 417.16 291.44 415.91 289.25 415.11 288.22 413.6 287.58 410.98 285.22 410.03 284.16 409.31 282.85 407.59 279.02 407.51 278.39 408.11 277.03 408.17 275.81 407.55 273.39 406.37 272.24 406.64 271.2 407.79 271.29 408.29 270.4 408.75 268.29 409.12 267.48 410.02 267.37 410.74 267.73 410.61 268.89 412.1 268.85 413.93 267.63 415.48 266.1 416.73 264.26 418.26 262.62 419.16 262.01 420.41 261.77 421.09 261.25 421.61 259.96 422.41 259.15 425.47 257.41 427.79 255.66 428.83 254.68 430.68 252.41 431.76 251.58 432.96 251.27 433.84 250.38 434.96 248.17 439.3 240.8 440.61 239.22 442.44 238.16 442.9 237.49 443.48 235.44 444.43 236.62 447.08 240.38 448.46 241.94 448.98 243.24 449.1 245.91 449.15 250.35 449.31 251.78 449.75 252.99 452.08 256 452.32 257.75 451.91 260.4 452.04 261.4 452.91 264.48 452.5 267.11 452.91 268.8 452.86 270.23 453.3 272.29 454.32 273.08 455.8 273.38 456.18 273.03 456.14 271.6 461.27 271.73 462.94 271.96 Z" id="MX-SLP" data-name="San Luis Potosí"/>
<path d="M 397.07 221.16 397.93 220.12 399.24 219.87 406.69 219.11 408.88 218.75 409.55 218.82 417.44 221.25 417.9 221.72 419.13 224.33 419.79 225.08 421.7 225.88 422.69 225.84 424.25 226.63 424.66 228.73 422.65 228.2 423.01 229.31 423.58 230.11 427.51 230.33 428.45 229.97 430.47 227.86 430.54 228.59 432.48 228.28 433.32 228.43 434.19 229.01 435.44 230.74 436.09 232.56 436.72 233.33 438.72 234.4 439.66 234.47 441.04 234.15 443.48 235.44 442.9 237.49 442.44 238.16 440.61 239.22 439.3 240.8 434.96 248.17 433.84 250.38 432.96 251.27 431.76 251.58 430.68 252.41 428.83 254.68 427.79 255.66 425.47 257.41 422.41 259.15 421.61 259.96 421.09 261.25 420.41 261.77 419.16 262.01 418.26 262.62 416.73 264.26 415.48 266.1 413.93 267.63 412.1 268.85 410.61 268.89 410.74 267.73 410.02 267.37 409.12 267.48 408.75 268.29 408.29 270.4 407.79 271.29 406.64 271.2 406.37 272.24 407.55 273.39 408.17 275.81 408.11 277.03 407.51 278.39 407.59 279.02 409.31 282.85 410.03 284.16 410.98 285.22 413.6 287.58 415.11 288.22 415.91 289.25 417.16 291.44 418.15 292.74 419.22 293.54 419.94 293.62 421.67 292.56 423.26 292.3 424.42 289.9 425.17 289.43 426.24 289.28 429.36 289.27 430.28 289.8 431.55 292.77 431.36 293.68 430.44 294.18 429.75 294.96 429.58 296.04 430.68 299.74 431.02 303.1 430.2 304.55 426.02 310.19 425.81 309.23 424.58 309.11 423.43 307.76 421.66 306.87 419.88 306.88 417.83 305.4 416.38 303.56 414.44 302.52 414.14 301.85 414.24 299.06 413.5 298.15 411.94 297.92 411.08 297.07 410.29 296.81 409.73 295.69 408.59 296.22 408.15 295.82 406.99 293.44 406.57 293.21 405.22 295.06 404.41 295.19 403.49 296.03 402.23 296.33 401.86 297.29 401.04 297.55 398.26 297.52 397.42 297.91 396.87 298.77 397.58 300.08 397.47 300.78 396.67 302.07 395.16 303.75 394 305.76 392.69 307.69 392.32 309.94 392.56 310.99 393.12 311.66 394.74 312.7 394.19 315.28 394.35 316.52 396 317.35 397.77 317.59 397.93 318.52 397.6 319.79 396.63 322.13 395.42 322.81 394.54 323.82 393.68 324.06 392.94 323.84 391.57 325 390.85 325.34 389.3 325.46 388.09 325.1 387.29 325.79 387.53 329.72 387.5 330.98 387.2 331.77 386.61 331.85 385.26 330.98 383.8 331.14 382.86 330.84 379.52 328.91 378.58 328.59 376.97 328.59 375.88 327.68 373.78 327.76 372.92 327.33 372.63 326.09 371.69 325.94 370.13 326.83 369.78 326.46 369.87 324.94 370.69 324.07 370.93 322.58 370.68 320.65 370.19 318.77 371.89 319.77 372.91 319.49 373.77 317.86 375.6 316.73 375.54 313.05 375.02 311.59 375.41 310.84 378.59 307.81 380.68 307.24 381.41 306.27 383.53 306.48 384.76 305.91 385.44 304.33 386.44 303.84 386.53 302.48 385.44 302.05 385.49 301.13 386.41 300.92 387.55 299.02 387.75 298.04 387.31 297.54 386.37 297.75 386.12 296.87 385.38 296.66 383.93 297.1 384.03 295.51 382.5 294.48 379.3 291.79 377.93 294.5 379.65 296.37 378.84 296.92 378.45 298.82 377.41 299.29 376.37 302.2 374.34 301.74 373.49 302.52 372.5 302.8 371.59 302.15 371.97 299.35 371.47 297.1 372.29 294.03 372.78 292.79 373.33 292.39 373.36 291.58 372.6 291.19 372.58 290.12 372.13 289.75 370.06 289.55 369.5 290.62 368.69 294.57 367.3 300.5 366.49 299.61 366.25 298.08 366.27 296.49 366.85 294.74 366.31 293.14 367.17 292.48 367.22 290.38 368.65 288.86 369.06 285.83 363.9 284.83 363.68 290.22 363.88 290.72 365.05 291.69 365.34 292.52 364.78 295.55 364.51 295.94 362.73 296.31 360.15 296.52 358.93 296.92 355.16 298.67 355.62 297.18 357.2 291.6 358.21 288.32 358.34 287.22 358.48 281.29 358.7 275.35 359 274.32 360.09 273.45 360.72 266.63 361.15 265.91 363.97 264.02 364.96 263 365.19 261.42 365.54 260.64 366.65 260.49 367.2 261.12 368.03 260.82 368.34 259.57 368.05 258.88 366.8 257.99 366.53 257.33 367.15 256.23 367.22 255.19 366.08 253.8 365.88 253.15 367.52 252.59 367.4 250.98 367.61 248.72 370.96 247.13 371.79 246.6 374.14 243.1 375.42 242.84 375.68 241.66 376.39 241.36 377.88 241.33 378.48 240.71 378.67 239.31 380.43 238.1 382.48 237.49 391.43 239.37 393.72 239.74 395.98 239.55 399.4 238.68 401.2 238.5 401.56 237.96 401.52 228.25 401.24 227.21 398 222.83 397.07 221.16 Z" id="MX-ZAC" data-name="Zacatecas"/>
<path d="M 417.83 305.4 416.66 307.08 414.74 308.02 413.98 308.92 412.69 309.52 412.24 311.57 411.91 312.18 410.25 312.82 408.09 314.63 406.7 314.83 402.12 314.17 400.96 313.86 398.03 312.04 397.24 311.91 394.74 312.7 393.12 311.66 392.56 310.99 392.32 309.94 392.69 307.69 394 305.76 395.16 303.75 396.67 302.07 397.47 300.78 397.58 300.08 396.87 298.77 397.42 297.91 398.26 297.52 401.04 297.55 401.86 297.29 402.23 296.33 403.49 296.03 404.41 295.19 405.22 295.06 406.57 293.21 406.99 293.44 408.15 295.82 408.59 296.22 409.73 295.69 410.29 296.81 411.08 297.07 411.94 297.92 413.5 298.15 414.24 299.06 414.14 301.85 414.44 302.52 416.38 303.56 417.83 305.4 Z" id="MX-AGU" data-name="Aguascalientes"/>
<path d="M 289.39 205.46 293.87 206.05 294.84 205.69 296.24 204.31 299.29 201.59 299.59 200.76 299.78 195.62 300.1 194.81 300.92 194.36 302.26 194.32 302.95 193.5 303.48 191.72 303.4 189.71 302.24 186.95 302.12 185.25 302.89 184.71 307.29 183.35 308.08 182.9 308.11 181.96 307.35 179.67 307.44 179.27 308.74 178.18 308.96 176.89 309.04 174.53 310.13 173.99 310.7 174.73 312.33 171.8 316.82 175.3 317.85 175.91 319.84 175.94 321.08 175.75 323.17 178.45 324.22 179.3 329.99 182.5 330.47 182.42 335.3 179.88 337.15 182.25 337.58 182.5 338.55 181.26 339.73 181.25 342.45 181.73 343.88 182.22 346.52 183.85 348.39 185.55 349.42 185.85 350.36 184.97 354.93 178.77 356.62 176.23 357.56 175.06 358.65 174.17 360.56 173.65 363.21 173.54 364.95 174.01 372.88 177.3 378.13 181.93 380.48 183.93 381.51 185.2 381.9 186.62 381.6 188.05 380.4 190.58 379.99 191.94 379.94 194.81 380.5 200.1 380.7 203.06 380.62 203.86 379.86 204.53 379.24 205.71 378.15 206.96 376.4 208.27 376.5 209.83 377.98 211.44 377.06 212.19 376.23 213.54 375.85 215.06 376.14 215.88 377.3 216.87 378.91 219.44 381.76 221.35 382.15 222.22 382.36 225.5 382.99 226.49 385.18 227.59 389.41 228.73 390.98 229.59 392.66 230.91 392.77 226.18 393.35 226.02 397.07 221.16 398 222.83 401.24 227.21 401.52 228.25 401.56 237.96 401.2 238.5 399.4 238.68 395.98 239.55 393.72 239.74 391.43 239.37 382.48 237.49 380.43 238.1 378.67 239.31 378.48 240.71 377.88 241.33 376.39 241.36 375.68 241.66 375.42 242.84 374.14 243.1 371.79 246.6 370.96 247.13 367.61 248.72 367.4 250.98 367.52 252.59 365.88 253.15 366.08 253.8 367.22 255.19 367.15 256.23 366.53 257.33 366.8 257.99 368.05 258.88 368.34 259.57 368.03 260.82 367.2 261.12 366.65 260.49 365.54 260.64 365.19 261.42 364.96 263 363.97 264.02 361.15 265.91 360.72 266.63 360.09 273.45 359 274.32 358.7 275.35 358.48 281.29 358.34 287.22 358.21 288.32 357.2 291.6 355.62 297.18 355.03 292.93 351.44 294.52 350.76 294.55 348.66 293.35 347.61 291.96 346.99 289.39 346.62 288.82 344.46 287.49 343.94 287.43 338.99 291.11 338.33 291.06 338.19 289.7 338.39 287.47 338.81 286.63 341.06 284.31 339.62 280.88 339.01 280.26 334.93 278.11 332.46 277.55 328.44 277.66 328.35 274.47 326.26 274.66 325.24 274.57 324.37 274.11 322.55 272.33 322.26 271.63 320.9 270.42 320.8 269.15 320.25 268.21 320.41 266.96 320.2 265.83 319.08 264.07 318.93 263.44 317.41 263.02 316.72 262.06 316.45 260.81 315.61 258.97 315.05 254.9 315.14 252.72 316.26 250.22 316.51 249.29 315.31 249.65 314.32 249.05 313.62 247.69 312.49 244.67 311.68 243.24 309.17 240.98 308.09 240.3 306.11 240.26 304.38 241.42 303.54 242.59 302.81 243.07 301.01 243.18 300.25 242.95 297.99 240.9 297.64 240.12 297.33 237.74 296.26 235.41 295.37 234.47 293.94 231.6 292.58 230.81 291.46 229.22 289.5 228.93 289.02 228.2 288.95 227.06 287.5 226.23 286.88 225.59 285.92 222.89 284.61 218.07 284.62 216.75 285.37 211.64 286.23 209.37 287.56 207.96 288.16 206.82 289.39 205.46 Z" id="MX-DUR" data-name="Durango"/>
<path d="M 498.67 374.32 498.5 372.94 497.33 372.43 496.94 371.08 498.2 371.01 498.88 370.32 500.39 369.72 501.47 370.25 502.55 369.44 503.17 370.01 505.25 370.29 506.1 370.77 506.49 370.44 507.23 368.85 508.09 367.56 509.97 368.5 511.22 368.67 512.6 368.7 513.09 368.32 512.99 367.51 513.73 367.45 514.12 368.17 513.96 369.66 515.3 370.07 516.33 371.16 518.8 372.14 518.6 372.84 517.9 372.99 518.76 375 520.01 374.45 520.91 374.69 522.29 376.24 523.19 376.78 523.88 376.7 524.6 377.41 524.41 378.13 523.2 379.08 522.45 379.1 521.66 378.51 520.5 378.74 519.18 378.34 517.91 379.23 517.98 380.13 518.7 381 517.75 382.22 516.62 382.43 513.57 381.07 512.1 383.06 509.95 383.81 509.39 383.65 508.46 382.34 506.68 380.99 505.96 380.21 505.36 378.81 503.91 377.47 503.08 374.95 502.4 374.52 501 374.96 498.67 374.32 Z" id="MX-TLA" data-name="Tlaxcala"/>
<path d="M 482.41 382.85 481.87 382.16 481.67 380.51 481.21 378.71 481.8 376.97 483.05 377.02 483.61 375.86 485.18 373.79 485.75 373.52 485.7 372.24 486.48 371.4 487.05 371.94 487.21 372.94 487.82 373.6 488.63 375.24 488.16 375.85 488.47 376.96 489.86 377.67 490.4 378.43 490.65 379.68 490.45 381.29 491.01 382.51 491.06 383.42 490.52 384.28 489.16 384.35 488.53 385.11 487.32 384.4 486.3 384.11 483.83 383.74 482.41 382.85 Z" id="MX-DIF" data-name="Distrito Federal"/>
</g>
</svg>