<?xml version="1.0"?>
<svg xmlns="http://www.w3.org/2000/svg" version="1.2" baseProfile="tiny" width="800" height="267" viewBox="0 0 800 267" stroke-linecap="round" stroke-linejoin="round">
<g id="MLOC-MY">
<path d="M 743.35 131.61 736.48 131.58 735.08 131.33 732.66 129.22 732.81 128.19 735 127.09 738.41 127.94 740.07 129.87 742.91 130.6 743.35 131.61 Z M 729.54 131.49 728.52 130.91 726.74 130.96 724.22 130.43 723.27 129.84 720.98 127.42 717.68 125.73 715.31 123.59 714.22 123.61 713.17 124.42 705.69 124.57 703.4 123.94 701.72 123.94 698.53 124.55 696.97 124.2 694.76 123.05 693.47 124.14 691.92 124.39 690.85 123.98 689.28 124.47 687.51 121.89 685.92 123.2 685.91 124.76 683.97 125.07 682.97 126.1 681.73 125.99 680.11 123.41 678.46 122.37 675.13 123.48 670.94 122.56 670.3 123.93 666.67 126.96 665.57 126.22 665.15 124.9 663.43 123.96 660.9 123.65 660.34 122.41 659.49 122.14 658.56 123.96 658.41 126.53 655.94 128.94 654.96 128.24 652.65 130.49 651.84 130.71 651.16 132.04 650.66 130.54 650.88 128.52 652.1 126.92 652.63 125.26 652.32 124.31 651.03 123.01 649.43 122.5 648.99 121.72 648.78 119.35 647.95 117.75 647.93 114.08 649.26 111.77 650.08 108.05 650.91 107.25 651.94 104.39 651.04 99.67 650.48 98.97 646.07 99.18 642.31 98.78 644.68 96.18 646.79 95.43 647.82 94.51 648.4 90.72 649.51 88.05 647.97 88.77 646.47 88.73 645.09 88.15 641.46 85.01 641 83.92 639.79 84.21 640.43 81.67 641.61 79.96 643.73 78.72 644.67 77.27 647.54 75.21 648.97 72.11 650.33 72.25 648.93 74.87 649.76 76.05 650.35 74.08 652.58 75.65 656.17 75.91 658.42 75.49 659.67 74.4 661.53 71.01 662.57 66.78 663.6 65.64 667.26 63.59 667.89 62.88 668.53 59.27 671.02 55.23 671.59 53.46 670.14 51.28 672.09 50.43 674.01 47.54 676.08 46.4 677.68 46.94 677.34 43.89 678.84 43.64 679.96 40.93 686.28 36.21 686.99 33.2 688.25 32.4 692.05 27.14 692.13 24.3 692.96 22.88 693.03 20.62 694.52 19.44 695.05 16.57 696.17 15.14 697.43 14.47 697.98 15.56 699.65 16.65 700.46 20.06 699.07 19.65 698.79 21.17 700.48 22.17 700.73 23.02 700.14 25.7 698.79 27.65 697.48 30.84 697.7 32.27 699.34 32.67 700.2 32.25 701.32 30.77 702.28 30.2 705.42 27.51 705.84 25.59 708.61 22.49 708.58 21.04 707.67 19.25 708.05 17.91 709.25 18.1 709.67 15.87 711.35 16.15 712.33 15.41 714.41 16.31 716.51 17.59 716.94 18.8 716.68 20.77 715.76 22.19 716.07 23.71 717.54 25.64 717.87 28.92 719.04 30.75 721.31 30.9 724.46 33.84 726.23 33.46 727.2 31.83 728.33 32.81 729.17 34.37 731.53 35.49 732.53 35.13 733.91 36.46 734.75 38 736.04 38.01 736.72 40.51 736.1 41.64 736.51 42.73 735.87 46.04 733.91 45.86 731.25 47.67 731.1 49.02 731.97 50.05 733.54 53.18 732.34 54.32 732.49 55.49 733.65 55.89 733.91 56.89 733.09 58.13 731.67 59 726.52 60.74 726.26 61.68 729.63 60.41 732.5 60.39 735.22 60.05 737.24 60.27 738.2 59.73 738.28 58.46 739.77 58.72 742.42 58.29 744.74 56.21 746.06 54.49 747.82 53.95 749.2 55.37 750.02 56.96 750.27 59.24 752.22 62 751.03 63.62 749.52 64.24 744.61 64.02 743.41 65.23 743.96 65.76 745.18 68.93 745.7 69.25 749.36 67.94 750.34 68.5 751.47 68.18 752.28 68.95 753.93 66.06 754.3 64.4 756.11 64.22 757.79 63.47 760.98 64.84 761.98 64.05 763.83 64.77 767.99 67.19 771.28 69.42 770.65 70.88 769.85 74.94 770.4 75.79 771.55 73.54 771.65 72.01 772.71 71.28 774.38 71.83 777.08 74.9 778.85 75.41 780.18 76.76 780.97 76.63 782.89 78.08 784.48 78.69 785.17 79.55 785.68 81.4 786.83 81.11 786.6 79.78 788.12 79.47 790.05 80.49 791.27 80.53 794.44 79.02 796.11 79.16 798.93 82.52 799 84.08 798.53 86.13 798.64 89.05 795.73 92 794.12 92.92 786.69 95.62 779.11 97.82 777.65 98.71 774.84 99.52 770.91 98.39 769.91 98.57 767.83 100.06 766.9 99.67 764.55 96.48 762.43 95.57 761.65 95.66 759.53 97.29 758.97 98.15 757.4 97.77 755.95 98.64 752.68 102.04 752.62 102.97 754.1 103.91 756.04 107.18 758.42 109.67 760.69 111.45 762.29 111.68 763.3 113.09 764.55 113.78 765.21 112.94 766.51 113.5 767.03 114.56 766.21 116.11 767.66 117.53 769.57 116.29 771.51 116.84 771.75 118.16 773.36 119.9 772.59 120.91 771.2 120.51 771.23 121.8 769.2 123.33 766.91 123.35 764.83 123.85 763.07 123.88 761.49 123.26 760.65 124.18 756.97 125.21 752.7 125.83 747.32 128.56 746.43 128.57 742.75 127.52 741.18 126.07 739.77 125.34 739.34 124.4 736.14 123.54 735.24 122.92 733.76 120.64 732.26 121.29 731.11 122.43 732.23 123.69 732.23 125.38 732.99 126.39 732.52 127.75 730.83 129.56 731.21 130.81 729.54 131.49 Z M 756.06 62.34 756.51 63.3 755.08 63.78 754.04 62.82 756.06 62.34 Z M 776.66 117.95 777.57 118.21 777.87 119.37 775.42 119.63 774.29 119.09 773.46 117.7 776.66 117.95 Z M 767.88 111.56 769.47 110.89 771.51 111.81 768.89 113.5 765.38 111.81 761.22 110.7 764.42 110.44 765.68 109.59 766.49 109.73 767.88 111.56 Z M 725.54 25.11 727.24 27.66 727.07 28.92 725.54 30.16 724.49 30.46 722 30.32 720.58 29.68 721.34 28.53 723.4 28.44 724.52 27.89 724.34 26.86 723.21 25.73 725.54 25.11 Z M 706.59 1 707.17 1.54 707.31 3.51 706.14 3.4 705.32 4.45 705.76 5.19 701.87 6.17 701.47 7.68 700.46 7.46 702.42 3.8 704.92 2.96 706.59 1 Z M 713.44 1.54 716.49 1 717.46 1.28 717.99 2.92 717.6 6.07 716.52 8.07 715.82 7.71 712.69 8.48 709.09 10.38 708.77 7.26 709.09 4.48 712.39 1.83 713.44 1.54 Z" fill-rule="evenodd" id="MY-12" data-name="Sabah"/>
<path d="M 23.49 27.86 25.25 27.82 26.81 28.29 28.31 32.88 29.57 34.35 30.74 34.92 30.25 37.82 28.59 39.14 24.1 44.23 23.47 45.8 22.49 44.56 20.98 40.9 20.57 38.37 21.26 36.85 21.31 34.4 22.19 33.31 21.74 31.08 22.17 28.04 23.49 27.86 Z" id="MY-09" data-name="Perlis"/>
<path d="M 23.47 45.8 24.1 44.23 28.59 39.14 30.25 37.82 30.74 34.92 32.04 35.39 34.38 35.47 36.42 36.75 40.3 38.09 41.75 38.17 44.37 36.3 45.07 36.29 45.57 38.05 46.83 38.17 48.14 39.5 48.26 41.44 49.09 43.52 48.88 44.24 48.81 45.83 52.39 46.81 55 45.31 56.98 46.6 59.36 46.37 59.67 48.73 58.22 50 58.18 50.95 59.88 52.94 59.6 56.86 58.93 59.72 56.67 60.59 54.63 64.92 54.92 65.72 54.36 66.66 55.4 67.79 54.82 70.36 53.27 71.93 53.99 73.38 53.88 74.79 52.71 76.84 51.59 77.04 50.9 78.3 50.43 82.07 49.53 83.4 46.4 84.16 45.6 85.71 43.99 87.12 43.29 88.79 40.4 91.36 40.04 92.3 38.04 93.95 36.43 93.21 35.87 91.77 37.12 91.99 38.12 91.26 37.44 86.49 36.73 78.11 37.07 74.82 35.72 74.39 29.79 74.04 29.38 69.95 30.21 68.93 30.67 64.16 29.58 55.92 28.15 53.56 27.43 51.72 25.96 49.05 25.47 47.42 23.47 45.8 Z M 6.7 46.56 7.28 45.3 8.23 44.92 8.49 48.04 7.49 49.43 5.93 47.3 6.7 46.56 Z M 11.35 41.56 11.99 42.9 10.13 43.99 9.07 43.18 7.56 43.47 6.37 44.88 4.36 45.76 3.82 43.78 3.97 42.01 1.52 41.63 1 40.34 1.95 39 4.06 38.7 6.69 39.17 7.84 37.89 9.34 37.42 9.96 38.89 11.87 40.5 11.35 41.56 Z" fill-rule="evenodd" id="MY-02" data-name="Kedah"/>
<path d="M 99.67 45.92 103.35 48.38 104.3 48.13 104.81 46.93 109.53 48.67 112.14 51.01 117.02 60.63 118.73 62.37 117.15 64.31 114.03 67.22 112.4 69.26 113.19 72.43 113.14 75.31 112.65 76.18 112.95 78.58 112.8 80.05 114.59 82.18 113.87 84.38 113.56 89.91 115.31 90.53 118.18 92.92 117.15 94.38 117.64 96.36 117.09 97 117.61 99.59 117.48 100.71 120.09 101.45 122.79 103.39 123.78 106.09 123.55 106.69 121.7 106.16 121 107.76 121.03 109.73 119 109.18 117.68 110.47 116.6 110.3 115.01 108.98 113.07 108.73 111.82 109.31 111.82 110.12 110.65 111.72 108.18 111.02 104.81 111.76 103.49 109.83 102.02 108.71 101.42 107.07 98.85 108.07 96.75 106.91 94.92 107.36 94.44 110.55 92.7 112.61 92.12 110.49 90.54 109.56 89.4 108.41 89.29 107.26 88.09 107.02 87.62 107.97 87.36 111.87 85.62 112.65 82.88 114.88 81.22 115.35 80.13 115.15 78.05 113.72 75.87 113.95 74.8 114.67 73.55 113.63 71.45 113.03 70 110.22 71.87 108.83 71.69 107.56 73.04 105.83 72.73 104.15 74.42 102.97 74.88 101.3 74.6 99.67 73.73 98.28 74.61 97.44 75.12 94.71 76.01 92.14 76.26 89.69 76.99 88.51 77.67 86.06 78.45 86.02 79.69 83.86 81.27 82.56 83.42 83.61 86.41 82.46 86.67 77.45 86.18 76.46 83.3 76.12 83.97 73.99 83.18 72.25 83.18 69.95 84.27 68.9 84.4 65.95 86.13 65.33 87.06 66.67 88.58 67.06 89.6 65.43 90.79 64.7 91.38 63.63 93.16 62.19 93.43 58.88 94.04 57.19 95.04 55.97 99.13 52.57 99.59 51.27 99.41 48.08 99.67 45.92 Z" id="MY-03" data-name="Kelantan"/>
<path d="M 35.87 91.77 36.43 93.21 38.04 93.95 40.04 92.3 40.4 91.36 43.29 88.79 43.99 87.12 45.6 85.71 46.4 84.16 49.53 83.4 50.43 82.07 50.9 78.3 51.59 77.04 52.71 76.84 53.88 74.79 53.99 73.38 53.27 71.93 54.82 70.36 55.4 67.79 54.36 66.66 54.92 65.72 55.71 67.16 57.56 67.69 59.25 69.19 60.33 71.24 62.14 71.19 64.05 70.05 65.19 68.72 66.17 65.14 69.01 64.2 72.01 62.52 76.38 60.82 78.72 60.06 79.59 60.27 80.64 61.91 81.82 62.34 81.69 63.45 83.11 66.01 84.4 65.95 84.27 68.9 83.18 69.95 83.18 72.25 83.97 73.99 83.3 76.12 86.18 76.46 86.67 77.45 86.41 82.46 83.42 83.61 81.27 82.56 79.69 83.86 78.45 86.02 77.67 86.06 76.99 88.51 76.26 89.69 76.01 92.14 75.12 94.71 74.61 97.44 73.73 98.28 74.6 99.67 74.88 101.3 74.42 102.97 72.73 104.15 73.04 105.83 71.69 107.56 71.87 108.83 70 110.22 71.45 113.03 70.86 114.6 71.04 116.39 71.56 117.01 70.67 119.5 69.94 120.42 70.91 121.44 73.9 122.22 73.65 123.97 74.44 125.02 74.51 126.71 75.07 127.54 75.05 129.14 76.84 129.81 76.72 131.01 77.26 132.8 77.97 132.63 79.82 134.65 78.84 137.82 79.39 138.81 79.64 141.79 80.49 143.4 80.35 145.87 81.53 147.28 80.78 147.5 78.97 149.82 77.38 151.14 74.9 149.63 73.91 148.23 71.99 147.38 71.5 146.58 70.19 146.41 69.26 147.5 70.15 150.06 68.89 151.14 66.46 151.31 65.82 149.52 63.04 149.51 59.8 147.09 55.95 146.36 53.81 144.88 53.42 143.62 49.56 144.39 47.3 144.53 44.69 143.36 43.88 141.36 43.9 139.32 44.61 138.36 47.97 138.35 47 137.12 46.94 134.47 46.53 133.92 42.94 131.26 41.11 131.66 40.31 129.5 39.42 125.77 38.38 124.99 39.32 121.2 40.09 120.63 41.11 116.28 41.01 115.43 39.67 114.69 39.94 112.35 41.11 112.37 41.5 110.52 39.95 110.87 39.56 107.72 40.49 105.69 38.81 105.43 38.86 103.18 35.94 102.63 36.31 101.22 34.97 100.32 33.84 100.96 32.73 98.71 31.73 97.56 30.21 93.81 31.82 92.35 34.94 91.63 35.87 91.77 Z" id="MY-08" data-name="Perak"/>
<path d="M 651.16 132.04 650.47 136.35 649.95 138.11 648.79 140.15 647.08 141.22 647.06 142.15 649.1 143.78 649.13 145.13 647.55 149.86 647.31 151.46 647.47 154.05 648.48 156.51 648.46 158.17 649.59 160.73 648.96 161.72 647.83 161.37 646.96 162.26 646.22 164.15 644.8 170.28 644.83 170.99 646.19 172.28 644.78 174.17 644.04 177.43 641.71 177.89 639.06 179.04 637.78 179.25 636.61 178.7 635.02 176.99 633.16 180 630.83 181.59 629.63 183.07 629.2 184.39 627.9 185.67 629.43 188.38 628.98 189.37 627.74 189.92 628.1 192.02 627.47 194.59 628.53 195.17 629.85 194.62 631.76 195.34 633 196.93 633.55 198.61 633.01 199.39 630.32 199.85 627.92 202.14 626.59 202.81 624.08 204.8 622.51 204.67 621.73 205.84 621.91 207.32 620.56 208.15 617.41 208.58 616.18 209.29 615.56 210.88 615.14 213.85 615.84 215.27 616.26 217.87 618.32 217.51 618.89 218.32 618.24 220.97 618.35 223.3 615.54 224.67 613.35 224.94 611.82 226.61 612.17 228.95 611.72 231.77 610.96 233.9 609.91 235.64 607.42 238.17 607.61 240.89 606.7 242.29 604.88 242.25 600.71 239.51 598.98 239.57 592.95 242.11 591.04 242.71 589.85 241.51 588.35 241.05 586.72 241.07 580.85 241.99 579.17 243.08 576.72 246.16 570.28 250.49 569.27 250.72 568.12 250.15 566.07 247.71 564.33 247.19 561.88 248.09 560.03 248.02 557.03 245.69 555.09 244.98 550.32 244.19 547.49 242.44 545.93 242.3 542.78 243.1 542.29 242.32 543.53 241.4 544.62 239.96 544.82 238.15 542.78 236.81 540.12 236.79 537.97 236.29 535.8 237.87 534.47 237.53 522.34 236.9 521.34 237.13 519.42 238.7 515.22 239.5 510.54 241.72 509.48 243.33 510.61 243.71 510.7 244.97 509.42 247.52 507.29 253.67 505.42 254.54 502.14 254.52 499.56 255.33 496.03 259.62 493.58 260.25 489.2 258.71 487.88 258.73 484.47 260.06 483.02 261.65 482.18 259.44 481.04 259.04 478.64 259.71 476.87 259.4 471.41 256.99 470.6 256.91 461.49 259.24 458.93 259.33 456.58 260.08 454.31 262.01 453.78 263.69 452.74 263.44 450.54 263.97 449.33 264.96 448.25 265.09 446.85 264.27 446.15 265.2 444.43 266 442.5 265.76 440.62 264.85 439.1 263.64 437.39 261.32 436.21 260.51 434.14 260.06 432.62 260.19 432.34 258.38 430.32 255.43 428.84 252.88 425.71 252.18 424.02 251.21 423.16 249.66 420.95 248.28 419.95 246.98 419.17 244.59 417.93 243.56 415.52 243.58 414.82 243 413.81 241 412.79 241.36 412.42 239.79 408.79 236.69 407.35 234.08 407.57 229.01 406.63 227.96 404.84 227.95 403.48 226.88 402.74 223.8 403.13 222.68 404.61 221.42 406.74 218.13 407.49 215.95 408.24 220.02 407.87 221.89 409.44 224.49 411.01 225.85 413.52 226.91 417.31 229.08 418.98 231.84 421.56 231.92 423.54 231.41 428.73 231.45 430.52 232.25 432.25 231.27 433.46 232.5 434.33 231.39 434.15 228.65 434.65 227.76 435.86 227.56 436.81 230.88 439.03 231.7 439.95 230.77 442.56 229.86 443.08 230.59 442.23 231.79 441.8 233.54 444.17 235.89 446.41 235.53 448.08 236.44 451.46 237.72 451.73 239.7 449.47 241.44 451.39 241.56 453.36 239.71 453.08 237.55 454.16 236.71 456.05 236.97 459.51 238.38 461.26 239.52 464.35 242.62 465.91 243.66 468.85 245.04 472.02 243.93 473.34 244.45 474.81 245.66 476.41 246.42 475.24 243.66 473.18 242.9 469.75 243.69 467.01 241.88 464.53 240.6 463.8 238.66 462.84 237.41 462.84 235.89 464.1 232.46 466.45 232.01 468.14 232.25 466.75 229.65 466.47 228.5 467.58 228.04 467.03 226.83 467.51 225.27 469.69 221.24 471.15 216.33 472.46 216.67 472.33 214.73 472.89 214.21 475.9 214.85 476.33 214.02 473.56 213.08 470.08 213.44 469.83 212.06 471.9 209.77 470.08 209.02 471.04 203.53 471.55 202.42 472.92 202.29 474.82 203.05 477.42 205.48 479.04 204.53 480.79 204.2 479.01 199.66 482.38 200.07 482.87 199.06 481.33 198.68 479.76 197.4 479.54 195.78 480.46 191.69 481.18 190.65 484.1 188.41 489.79 185.06 497.55 183.53 503.77 183.32 526.58 177.3 532.79 175.99 542.83 172.81 544.19 172.1 546.36 169.79 547.22 168.23 546.69 167.33 550.63 163.92 551.98 161.78 555.16 158.98 555.9 157.86 556.4 155.93 557.35 155.18 559.78 152.3 560.74 150.66 561.52 148.04 563.97 146.44 573.82 137.93 582.36 126.84 583.21 124.87 582.92 123.26 583.79 121.91 584.21 120.19 584.19 118.26 583.28 114.42 584.47 113.5 587.13 114.77 589.36 115.11 593.02 117.29 594.51 118.38 595.44 120.16 595.75 122.44 596.59 125.09 595.75 126.22 596.01 127.2 599.18 127.65 601.59 127.39 602.11 127.93 602.95 130.51 603.93 132.08 607.67 135.37 608.37 137.11 610.04 137.31 611.96 136.19 615.7 132.62 616.52 129.55 617.74 127.41 616.34 127.22 616.81 125.76 618.53 123.44 618.99 120.73 617.29 120.34 616.56 119.2 616.32 117.71 616.12 112.95 615.75 111.21 614.66 108.95 614.74 108.23 617.27 106.84 618.58 105.59 620.22 104.88 622.43 105.03 623.08 104.63 623.5 102.7 624.43 101.77 626.1 101.49 626.39 104.56 626.1 107.79 626.27 111.1 626.62 112.68 628.42 117.46 628.91 121.48 629.77 122.42 632.93 123.46 634.15 123.34 638.36 125.18 639.84 124.57 639.15 122.85 636.79 120.26 636.25 118.66 636.05 115.33 636.44 113.02 636.26 112.05 633.61 104.36 632.58 102.9 631.14 101.91 631.12 100.98 632.88 100.61 633.26 99.25 634.3 98.95 635.09 99.88 637.1 100.27 638.25 101.32 639.75 101.21 642.31 98.78 646.07 99.18 650.48 98.97 651.04 99.67 651.94 104.39 650.91 107.25 650.08 108.05 649.26 111.77 647.93 114.08 647.95 117.75 648.78 119.35 648.99 121.72 649.43 122.5 651.03 123.01 652.32 124.31 652.63 125.26 652.1 126.92 650.88 128.52 650.66 130.54 651.16 132.04 Z M 479.29 203.44 477.6 204.71 476.49 202.51 475.28 201.8 475.09 200.96 475.48 197.52 474.72 190.77 474.8 188.74 475.39 187.44 476.79 187.98 477.62 189.26 478.06 190.96 478.09 198.06 478.44 201.08 479.29 203.44 Z" fill-rule="evenodd" id="MY-13" data-name="Sarawak"/>
<path d="M 29.79 74.04 35.72 74.39 37.07 74.82 36.73 78.11 37.44 86.49 38.12 91.26 37.12 91.99 35.87 91.77 34.94 91.63 31.82 92.35 32.91 89.47 32.42 87.11 32.87 84.89 31.05 81.87 30.78 80.39 31.04 76.88 29.79 74.04 Z M 27.99 78.86 29.35 80.21 28.61 81.61 28.26 83.92 27.13 86.53 23.32 86.14 23.24 80.96 22.69 79.83 24.93 78.3 26.53 78.14 27.99 78.86 Z" fill-rule="evenodd" id="MY-07" data-name="Pulau Pinang"/>
<path d="M 49.56 144.39 53.42 143.62 53.81 144.88 55.95 146.36 59.8 147.09 63.04 149.51 65.82 149.52 66.46 151.31 68.89 151.14 70.15 150.06 69.26 147.5 70.19 146.41 71.5 146.58 71.99 147.38 73.91 148.23 74.9 149.63 77.38 151.14 78.97 149.82 80.78 147.5 81.53 147.28 82.68 149.09 84.13 150.05 87.17 151.25 89.11 154.37 88.86 155.98 88 156.66 87.11 158.64 87.95 161.75 87.14 163.5 89.8 166.92 91.98 167.89 93.28 168.08 94.53 169.98 94.41 171.05 95.16 173.2 94.91 175.04 95.25 177.17 94.45 177.8 93.9 180.06 92.63 181.35 92.16 183.53 91.04 184.43 86.92 184.26 87.45 189.33 86.06 192.25 85.36 195.11 83.42 193.84 81.18 193.44 78.09 192.45 76.48 191.31 73.53 187.12 72.27 186.04 68.67 185.45 67.69 184.79 68.38 182.96 67.55 182.29 69.57 179.8 71.2 178.58 70.88 175.57 69.19 173.62 68.14 167.51 66.16 165.66 65.62 164.68 64.08 164.06 61.72 160.66 60.45 159.4 59.06 156.94 58.37 154.25 57.69 153.38 53.12 150.34 51.43 147.91 48.41 146.68 48.88 145.03 49.56 144.39 Z M 85.17 170.29 83.08 169.25 82.16 169.86 81.34 171.27 81.44 172.82 82.5 173.91 83.11 175.33 82.96 177.02 85.76 177.47 86.62 176.33 86.23 173.27 87.07 171.52 86.62 170.24 85.17 170.29 Z M 83.75 183.79 84.62 183.21 85.73 181.57 85.03 179.44 83.44 180.06 83.75 183.79 Z M 69.77 176.57 69.67 178.31 67.25 179.99 66.94 179.41 67.93 176.93 69.19 175.79 69.77 176.57 Z" fill-rule="evenodd" id="MY-10" data-name="Selangor"/>
<path d="M 85.36 195.11 86.06 192.25 87.45 189.33 86.92 184.26 91.04 184.43 92.16 183.53 92.63 181.35 93.9 180.06 94.45 177.8 95.25 177.17 94.91 175.04 95.16 173.2 94.41 171.05 94.53 169.98 93.28 168.08 94 167.15 97.07 169.49 99.01 170 99.37 171.62 101.75 170.76 104.01 171.67 109.07 173.31 112.49 173.88 115.65 177.49 123.85 183.08 124.91 183.31 125.34 185.23 125.12 186.45 122.47 193.57 122.79 194.58 121.97 196.15 121.93 199.63 121.06 202.19 115.26 200.84 112.29 199.5 110.64 199.55 107.89 200.46 105.89 200.15 104.17 199.34 102.78 200.33 101.06 200.79 100.04 200.58 98.92 202.01 96.23 203.43 93.72 202.16 91.71 202.72 90.93 202.29 90.64 199.87 88.7 198.28 87.88 195.93 86.98 195.27 85.36 195.11 Z" id="MY-05" data-name="Negeri Sembilan"/>
<path d="M 96.23 203.43 98.92 202.01 100.04 200.58 101.06 200.79 102.78 200.33 104.17 199.34 105.89 200.15 107.89 200.46 110.64 199.55 112.29 199.5 115.26 200.84 121.06 202.19 119.26 203.19 117.82 205.12 117.9 206.15 117.12 208.29 117.1 209.83 116.28 210.71 116.54 211.63 118.46 212.38 118.26 214.31 117.27 214.45 116.57 215.56 104.34 210.54 101.86 208.88 98.78 205.48 97.46 205.09 96.23 203.43 Z" id="MY-04" data-name="Melaka"/>
<path d="M 121.06 202.19 121.93 199.63 121.97 196.15 122.79 194.58 122.47 193.57 125.12 186.45 125.34 185.23 129.8 187.03 135.58 193.96 137.03 195.14 143.8 197.8 149.87 195.54 152.16 195.19 155.48 196.69 156.34 197.63 162.14 201.08 163.12 199.97 163.15 198.97 161.91 197.94 162.16 195.86 162.69 194.76 161.74 193.8 163.38 192.05 165.2 192.42 166.85 193.19 168.45 192.96 168.53 193.98 170.44 195.7 171.48 198 171.4 200.48 174.4 204.27 175.93 205.52 176.2 207.21 177.34 209.02 176.76 210.69 177.04 211.52 178.95 213.87 179.99 216.42 182.91 221.2 182.86 223.76 183.51 225.47 184.81 225.55 185.94 227.51 186.3 229.38 187.27 231.03 187.33 232.41 188.38 234.05 188.72 236.72 189.55 238.94 189.98 241.82 189.36 242.64 189.28 245.04 187.74 245.04 186.91 245.9 184.28 245.65 182.32 244.72 182.09 242.95 180.64 241.74 180.42 240.25 183.01 238.94 182.52 237.82 180.17 239.4 178.5 235.72 177.53 234.27 176.8 235.24 178.34 237.67 178.14 239.37 178.4 241.74 176.96 242.91 175.01 242.43 171.48 240.6 170.45 240.69 167.96 241.74 166.32 241.6 165.05 242.02 162.96 244.63 161.74 245.6 160.3 245.34 158.91 247.56 157.84 248.18 156.41 246.97 155.49 245.37 154.17 240.96 153.42 239.39 152.28 238.09 150.56 237 145.72 235.16 138.86 230.89 137.2 230.11 134.69 229.59 131.8 226.33 129.4 225.02 126.04 225.55 125.13 225.05 123.15 221.74 119.82 219.07 119.35 217.5 116.57 215.56 117.27 214.45 118.26 214.31 118.46 212.38 116.54 211.63 116.28 210.71 117.1 209.83 117.12 208.29 117.9 206.15 117.82 205.12 119.26 203.19 121.06 202.19 Z M 187.05 187.4 187.15 189.42 186.57 190.27 184.4 190.34 183.31 189.02 183.35 187.18 184.52 186.09 184.25 184.21 185.57 183.34 187.05 187.4 Z" fill-rule="evenodd" id="MY-01" data-name="Johor"/>
<path d="M 71.45 113.03 73.55 113.63 74.8 114.67 75.87 113.95 78.05 113.72 80.13 115.15 81.22 115.35 82.88 114.88 85.62 112.65 87.36 111.87 87.62 107.97 88.09 107.02 89.29 107.26 89.4 108.41 90.54 109.56 92.12 110.49 92.7 112.61 94.44 110.55 94.92 107.36 96.75 106.91 98.85 108.07 101.42 107.07 102.02 108.71 103.49 109.83 104.81 111.76 108.18 111.02 110.65 111.72 111.82 110.12 111.82 109.31 113.07 108.73 115.01 108.98 116.6 110.3 117.68 110.47 119 109.18 121.03 109.73 121 107.76 121.7 106.16 123.55 106.69 124.76 108.77 126.55 109.91 127.82 110.28 131 110.45 132.13 111.57 132.51 113.02 131.92 114.81 130.98 115.7 131.28 117.17 132.77 118.85 134.66 118.96 136.34 118.63 137.73 119.94 138.37 121.71 137.83 124.31 136.75 124.24 135.75 124.94 134.66 126.86 133.97 131.41 133.42 132.41 134.85 133.54 137.06 132.6 140.02 133.37 142.03 134.38 144.54 136.53 147.35 138.3 148.67 139.91 148.69 140.83 149.66 142.41 151.11 140.92 151.28 139.73 150.49 137.44 150.53 135.91 149.67 134.76 149.84 133.5 151.38 130.66 154.35 130.77 155.35 131.11 154.61 131.51 153.41 133.25 153.64 135.25 155.15 139 154.08 139.46 152.96 142.45 152.73 146.03 152.02 146.05 151.12 147.83 151.37 149.32 153.79 154.27 155.18 155.58 156.95 157.86 154.96 162.07 154.75 163.74 155.42 168.77 155.89 170.39 155.01 180.23 155.28 181.85 156.6 184.74 158.49 187.26 163.38 192.05 161.74 193.8 162.69 194.76 162.16 195.86 161.91 197.94 163.15 198.97 163.12 199.97 162.14 201.08 156.34 197.63 155.48 196.69 152.16 195.19 149.87 195.54 143.8 197.8 137.03 195.14 135.58 193.96 129.8 187.03 125.34 185.23 124.91 183.31 123.85 183.08 115.65 177.49 112.49 173.88 109.07 173.31 104.01 171.67 101.75 170.76 99.37 171.62 99.01 170 97.07 169.49 94 167.15 93.28 168.08 91.98 167.89 89.8 166.92 87.14 163.5 87.95 161.75 87.11 158.64 88 156.66 88.86 155.98 89.11 154.37 87.17 151.25 84.13 150.05 82.68 149.09 81.53 147.28 80.35 145.87 80.49 143.4 79.64 141.79 79.39 138.81 78.84 137.82 79.82 134.65 77.97 132.63 77.26 132.8 76.72 131.01 76.84 129.81 75.05 129.14 75.07 127.54 74.51 126.71 74.44 125.02 73.65 123.97 73.9 122.22 70.91 121.44 69.94 120.42 70.67 119.5 71.56 117.01 71.04 116.39 70.86 114.6 71.45 113.03 Z" id="MY-06" data-name="Pahang"/>
<path d="M 123.55 106.69 123.78 106.09 122.79 103.39 120.09 101.45 117.48 100.71 117.61 99.59 117.09 97 117.64 96.36 117.15 94.38 118.18 92.92 115.31 90.53 113.56 89.91 113.87 84.38 114.59 82.18 112.8 80.05 112.95 78.58 112.65 76.18 113.14 75.31 113.19 72.43 112.4 69.26 114.03 67.22 117.15 64.31 118.73 62.37 121.22 63.98 122.96 65.71 123.9 67.67 125.01 68.16 132.29 73.94 134.02 74.79 135.7 75.14 138.47 77.44 142.24 81.69 146.39 88.23 147.81 91.69 151.84 98.45 155.58 105.6 155.28 106.8 155.74 109.43 156.43 115.59 155.7 118.09 156.12 120.51 157.44 124.28 157.53 125.52 156.87 127.39 155.71 128.82 155.84 130.55 155.35 131.11 154.35 130.77 151.38 130.66 149.84 133.5 149.67 134.76 150.53 135.91 150.49 137.44 151.28 139.73 151.11 140.92 149.66 142.41 148.69 140.83 148.67 139.91 147.35 138.3 144.54 136.53 142.03 134.38 140.02 133.37 137.06 132.6 134.85 133.54 133.42 132.41 133.97 131.41 134.66 126.86 135.75 124.94 136.75 124.24 137.83 124.31 138.37 121.71 137.73 119.94 136.34 118.63 134.66 118.96 132.77 118.85 131.28 117.17 130.98 115.7 131.92 114.81 132.51 113.02 132.13 111.57 131 110.45 127.82 110.28 126.55 109.91 124.76 108.77 123.55 106.69 Z" id="MY-11" data-name="Terengganu"/>
<path d="M 635.28 82.34 635.72 85.37 635 86.13 633.8 85.62 631.72 86.36 632.86 83.18 634.37 81.71 635.28 82.34 Z" id="MY-15" data-name="Labuan"/>
<path d="M 85.17 170.29 86.62 170.24 87.07 171.52 86.23 173.27 86.62 176.33 85.76 177.47 82.96 177.02 83.11 175.33 82.5 173.91 81.44 172.82 81.34 171.27 82.16 169.86 83.08 169.25 85.17 170.29 Z" id="MY-14" data-name="Kuala Lumpur"/>
<path d="M 83.75 183.79 83.44 180.06 85.03 179.44 85.73 181.57 84.62 183.21 83.75 183.79 Z" id="MY-16" data-name="Putrajaya"/>
</g>
</svg>