<?xml version="1.0"?>
<svg xmlns="http://www.w3.org/2000/svg" version="1.2" baseProfile="tiny" width="800" height="952" viewBox="0 0 800 952" stroke-linecap="round" stroke-linejoin="round">
<g id="MLOC-NL">
<path d="M 772.8 249.06 772.73 248.93 771.58 246.96 767.82 242.28 765.67 240.52 761.55 239.08 765.93 227.56 766.02 226.19 765.77 224.72 764.31 224.38 754.15 211.66 744.47 198.49 736.45 189.98 729.24 182.38 725.32 178.64 720.4 173.77 711.33 163.73 704.06 155.9 702.87 155.04 700.91 153.97 695.38 153.46 682.56 157.7 681.44 158.08 681.05 157.4 680.67 156.86 678.45 151.55 671.38 142.05 669.22 140.26 668.09 139.85 667.45 139.29 664.07 133.33 660.54 128.48 658.28 128.77 654.48 127.14 647.63 123.89 640.11 130.7 636.3 133.11 633.54 135.93 630.42 139.9 629.04 143.3 628.88 144.12 628.27 145.9 625.66 151.42 624.83 153.65 623.95 157.11 620.61 163.16 618.97 164.13 614.69 162.75 612.88 161.74 605.43 156.83 601.86 155.54 593.01 154.69 591.21 154.1 588.47 151.62 586.54 149.14 585.57 141.72 587.02 134.29 589.14 130.02 596.83 119.72 597.38 118.32 597.32 117.37 597.09 116.39 596.74 115.33 596.32 114.47 596.13 113.02 595.71 111.4 598.28 106.24 601.37 100.94 602.4 96.46 603.18 94.9 606 91.66 609.48 88.41 610.05 87.71 610.05 87.35 608.67 86.82 608.13 86.49 607.77 86.08 607.87 82.69 608.35 78.35 608 76.43 607.26 75.28 603.43 73.99 602.76 74.04 602.18 74.3 601.01 75.09 600.27 75.37 599.63 75.41 599.05 75.23 598.34 74.82 597.48 73.85 596.29 72.11 595.48 71.35 594.74 70.9 590.82 69.77 587.86 68.46 585.83 60.9 586.86 56.72 589.09 52.25 607.32 51.66 609.48 52.4 613.12 55.68 615.11 56.42 616.88 55.82 622.16 51.66 653.02 42.61 701.92 34.97 722.42 38.47 726.7 40.45 730.25 44.15 737.23 72.82 738.31 73.27 743.34 76.89 743.73 77.75 744.72 78.51 745.75 80.14 747.18 81.75 753.73 83.94 762 88.67 765.68 87.45 767.43 89.46 769.93 90.12 772.37 89.43 774.15 87.45 775.56 87.45 775.56 89.83 773.91 91.26 773.08 92.31 773.13 93.81 774.15 96.71 774.58 102.31 780.88 105.94 795.86 109.83 798.19 109.86 798.79 119.69 799 125.24 798.36 130.63 796.94 136.59 794.01 144.2 793.49 146.98 793.64 151.12 794.44 153.31 795.44 155.12 796.21 158.13 798.14 182.83 797.82 195.18 795.91 206.16 791.41 217.68 774.4 244.56 772.8 249.06 Z M 641.99 1.51 644.87 1 656.28 6.05 655.35 6 654.59 6.42 653.95 7.32 653.44 8.64 646.04 6.14 642.38 3.83 641.99 1.51 Z" fill-rule="evenodd" id="NL-GR" data-name="Groningen"/>
<path d="M 614.69 162.75 618.97 164.13 620.61 163.16 623.95 157.11 624.83 153.65 625.66 151.42 628.27 145.9 628.88 144.12 629.04 143.3 630.42 139.9 633.54 135.93 636.3 133.11 640.11 130.7 647.63 123.89 654.48 127.14 658.28 128.77 660.54 128.48 664.07 133.33 667.45 139.29 668.09 139.85 669.22 140.26 671.38 142.05 678.45 151.55 680.67 156.86 681.05 157.4 681.44 158.08 682.56 157.7 695.38 153.46 700.91 153.97 702.87 155.04 704.06 155.9 711.33 163.73 720.4 173.77 725.32 178.64 729.24 182.38 736.45 189.98 744.47 198.49 754.15 211.66 764.31 224.38 765.77 224.72 766.02 226.19 765.93 227.56 761.55 239.08 765.67 240.52 767.82 242.28 771.58 246.96 772.73 248.93 772.8 249.06 770.69 254.99 768.89 266.46 766.97 303.42 765.44 315.47 761.67 322.77 754.28 320.45 751.15 319.13 740.93 320.66 729.94 317.32 710.27 317.64 703.33 319.8 699.61 322.51 699.46 322.42 697.27 321.08 696.76 318.24 696.86 315.73 696.08 314.8 694.9 313.82 679.93 306.94 677.23 306.85 671.18 307.94 661.08 313.22 658.5 315.98 658.05 317.57 658.66 327.73 650.08 323.57 648.83 323.34 647.27 323.34 646.37 324.33 644.67 325.4 643.48 325.54 642.39 325.02 641.58 324.15 640.59 322.6 639.95 322.17 639.46 322.09 638.37 323.06 636.89 323.85 632.06 325.35 630.68 325.33 629.84 324.96 629.62 324.43 627.95 319.9 626.27 317.39 622.66 313.72 619.51 311.12 617.91 308.49 617.14 308.33 607.13 308.46 605.39 307.85 598.99 303.42 595.71 302.18 594.26 302.55 593.07 303.63 591.4 304.71 590.18 304.78 588.53 304.32 587.66 303.61 587.12 303.01 585.7 300.54 584.71 299.73 577.53 280.87 579.53 277.39 585 274.71 592.49 267.27 593.43 264.35 591.53 261.39 589.37 258.91 587.79 257.48 577.37 244.9 594.94 231.33 601.86 223.33 603.3 221.86 605.55 220.08 611.08 220.06 615.72 221.27 622.66 226.02 632.57 219.34 633.86 217.93 639.56 208.49 640.11 206.59 640.46 205.06 637.95 199.81 626.72 184.68 625.95 180.81 624.83 177.37 625.02 175.48 624.53 173.56 624.05 172.56 618.2 170.05 614.95 168.1 614.31 167.46 614.69 162.75 Z" id="NL-DR" data-name="Drenthe"/>
<path d="M 577.37 244.9 587.79 257.48 589.37 258.91 591.53 261.39 593.43 264.35 592.49 267.27 585 274.71 579.53 277.39 577.53 280.87 584.71 299.73 585.7 300.54 587.12 303.01 587.66 303.61 588.53 304.32 590.18 304.78 591.4 304.71 593.07 303.63 594.26 302.55 595.71 302.18 598.99 303.42 605.39 307.85 607.13 308.46 617.14 308.33 617.91 308.49 619.51 311.12 622.66 313.72 626.27 317.39 627.95 319.9 629.62 324.43 629.84 324.96 630.68 325.33 632.06 325.35 636.89 323.85 638.37 323.06 639.46 322.09 639.95 322.17 640.59 322.6 641.58 324.15 642.39 325.02 643.48 325.54 644.67 325.4 646.37 324.33 647.27 323.34 648.83 323.34 650.08 323.57 658.66 327.73 658.05 317.57 658.5 315.98 661.08 313.22 671.18 307.94 677.23 306.85 679.93 306.94 694.9 313.82 696.08 314.8 696.86 315.73 696.76 318.24 697.27 321.08 699.46 322.42 699.61 322.51 696.02 325.12 697.76 328.69 697.35 331.75 696.41 334.58 696.47 337.42 697.93 339.62 704.72 345.39 693.21 351.23 689.79 351.54 692.34 356.88 693.06 362.97 693.36 368.97 694.63 374.04 698.72 378.82 704.18 381.51 720.6 383.83 731.31 387.95 737.16 388.9 742.6 388.54 747.79 387.02 749.72 385.19 751 382.9 752.31 382.29 764.93 402.88 767.84 411.61 766.09 423.99 761.93 433.68 760.43 438.79 760.3 445 762.15 452.23 763.36 454.48 763.88 455.44 763.3 457.18 754.09 462.82 751.86 465.43 747 473.36 742.86 477.05 733.97 480.96 729.94 485.2 725.35 494.58 722.74 496.98 710.49 498.37 710.34 498.26 707.99 496.44 687.75 492.12 689.81 487.04 689.87 485.26 689.65 481.89 689.29 480.53 688.75 479.56 688.04 479.09 686.01 478.2 684.37 477.75 677 479.55 676.17 479.41 675.27 479.08 675.27 477.99 675.08 476.56 674.37 474.97 673.21 474.53 671.96 474.46 666.13 475.69 658.15 474.71 653.2 475.27 647.11 469.43 637.28 455.02 637.05 454.55 635.82 452.47 629.65 451.72 622.54 454.62 619.45 456.97 617.39 457.58 604.27 457.79 589.75 454.88 587.76 454.8 587.12 455.06 585.16 456.7 583.68 458.98 583.23 459.05 582.52 458.89 580.82 457.3 580.24 456.44 579.95 455.67 579.95 455.2 580.01 454.87 580.78 452.68 580.4 451.04 579.37 450.2 577.05 449.11 576.24 448.52 575.89 447.41 576.24 446.38 576.34 443.54 572.61 433.79 568.37 431.81 567.31 430.53 565.17 427.47 564.63 426.31 564.89 423.86 566.7 416.4 568.62 413.53 568.46 412.07 567.44 409.74 567.85 409.26 568.5 408.75 575.41 406.42 578.47 398.24 578.76 394.45 578.47 393.39 578.04 392.52 573.74 386.23 572.13 382.06 570.3 376.66 568.98 374.66 567.44 373.32 563.76 369.35 562.22 366.18 560.8 363.93 559.39 363.06 556.88 361.99 550.86 365.19 544.24 370.86 537.96 372.78 536.29 372.34 534.97 371.17 530.59 362.73 528.02 358.8 525.85 358.54 522.94 358.32 518.7 339.26 515.8 336.68 515.8 332.63 518.03 330.06 518.23 329.83 528.76 325 531.49 324.82 532.66 325.51 536.03 326.07 537.99 325.95 548 322.51 554.62 318.8 550.06 313.26 546.01 311.03 537.64 308.56 535.87 307.71 535.29 307.17 535.68 306.58 537.19 305.15 538.03 303.15 539.18 301.32 537.61 292.53 534.65 283.83 533.21 281.37 530.78 278.15 521.17 270.29 505.98 261.96 513.71 258.08 516.15 260.22 516.92 260.6 522.78 261.57 523.94 261.5 525.51 261.2 531.65 257.51 532.66 256.5 533.59 255.1 534.33 253.77 534.84 252.62 535.58 251.78 536.61 251.15 540.79 250.14 541.56 249.6 542.08 248.97 542.62 249.07 543.73 249.59 546.17 253.2 548.07 254.91 549.09 255.4 557.24 256 560.19 252.58 560.39 252.03 560.58 250.54 560.8 250.15 561.29 249.75 564.66 248.79 568.66 248.36 577.37 244.9 Z" id="NL-OV" data-name="Overijssel"/>
<path d="M 522.94 358.32 525.85 358.54 528.02 358.8 530.59 362.73 534.97 371.17 536.29 372.34 537.96 372.78 544.24 370.86 550.86 365.19 556.88 361.99 559.39 363.06 560.8 363.93 562.22 366.18 563.76 369.35 567.44 373.32 568.98 374.66 570.3 376.66 572.13 382.06 573.74 386.23 578.04 392.52 578.47 393.39 578.76 394.45 578.47 398.24 575.41 406.42 568.5 408.75 567.85 409.26 567.44 409.74 568.46 412.07 568.62 413.53 566.7 416.4 564.89 423.86 564.63 426.31 565.17 427.47 567.31 430.53 568.37 431.81 572.61 433.79 576.34 443.54 576.24 446.38 575.89 447.41 576.24 448.52 577.05 449.11 579.37 450.2 580.4 451.04 580.78 452.68 580.01 454.87 579.95 455.2 579.95 455.67 580.24 456.44 580.82 457.3 582.52 458.89 583.23 459.05 583.68 458.98 585.16 456.7 587.12 455.06 587.76 454.8 589.75 454.88 604.27 457.79 617.39 457.58 619.45 456.97 622.54 454.62 629.65 451.72 635.82 452.47 637.05 454.55 637.28 455.02 647.11 469.43 653.2 475.27 658.15 474.71 666.13 475.69 671.96 474.46 673.21 474.53 674.37 474.97 675.08 476.56 675.27 477.99 675.27 479.08 676.17 479.41 677 479.55 684.37 477.75 686.01 478.2 688.04 479.09 688.75 479.56 689.29 480.53 689.65 481.89 689.87 485.26 689.81 487.04 687.75 492.12 707.99 496.44 710.34 498.26 710.49 498.37 709.31 498.5 705.98 500.37 702.47 504.04 701.38 505.96 699.68 510.25 698.01 512.37 695.53 513.62 693.34 513.78 691.48 514.67 690.04 518.18 690.47 523.32 693.77 525.66 698.31 527.01 711.86 534.62 717.21 540.3 718.28 541.93 718.8 544.2 718.6 548.31 717.55 549.34 715.97 549.62 714.28 551.48 709.54 560.1 704.72 565.88 699.11 568.93 680.75 569.52 660.12 576.6 649.92 584.46 646.49 586.02 642.27 586.02 628.99 582.07 630.68 589.64 629.82 592.99 622.04 595.16 621.42 589.94 618.06 587.97 610.11 586.75 609.16 585.6 606.87 581.47 605.39 580.03 603.68 579.82 597.21 581.26 590.2 578.37 583.54 572.94 576.85 569.78 569.8 573.61 572.37 575.57 580.11 583.73 582.9 588.13 579.55 587.3 574.67 586.04 567.94 584.24 559.5 586.52 556.52 588.11 552.23 591.31 548.23 593.03 539.76 594.54 536.31 596.99 535.61 599.98 540.32 603.61 543.08 610.09 542.72 616.86 539.34 620.23 539.04 620.33 538.38 620.56 533.08 616.96 532.34 616.26 528.63 611.14 527.7 609.84 527.09 609.65 526.09 609.63 524.03 610.07 522.17 611.35 522.07 615.85 500.75 614.78 486.28 604.68 482.27 603.63 480.3 602.17 477.74 595.71 476.55 594.25 467.28 592.17 454.03 594.22 451.01 593.21 447.04 590.49 443.04 592.1 438.98 595.17 434.73 596.75 426.35 596.12 422.21 598.34 420.44 604.87 419.39 610.48 416.73 614.78 413.07 617.86 409.12 619.85 371.17 624.07 369.33 623.43 371.64 617.94 371.68 612.54 364.02 607.33 361.7 608.08 356.68 607.9 348.96 601.96 345.71 598.39 345.29 595.69 345.13 593.78 344.87 590.54 345.42 587.84 345.45 587.18 344.13 585.15 350.12 584.79 366.04 578.04 368.19 576.67 368.39 575.94 368.39 574.91 368 573.4 367.65 571.53 374.92 558.47 375.89 556.84 381.05 546.2 384.13 546.62 389.11 545.66 392.85 542.76 395.93 542.1 407.58 548.6 411.87 547.49 417.97 542.77 422.57 541.71 428.01 543.7 430.35 543.8 432.28 542.88 436.39 539.92 438.98 539.21 447.91 541.11 463.89 550.76 470.85 552.46 471.59 550.88 471.69 545.59 471.4 543.85 471.01 542.51 470.14 540.98 468.73 537.96 464.46 533.33 461.84 528.63 460.01 518.41 460.3 510.34 459.88 508.37 459.69 506.54 457.92 499.7 454.51 500.51 455.41 503 455.29 504.34 455 505.67 454.13 507.31 453.32 508.25 452.49 508.81 451.65 508.88 450.95 509.14 448.78 510.85 446.89 511.53 441.1 508.63 440.68 508.04 440.36 507.31 441.94 505.95 442.93 504.78 443.54 503.66 444.76 500.04 446.37 496.62 448.62 496.79 448.69 496.41 448.69 495.76 448.49 494.58 448.46 492.31 449.49 490.28 449.52 489.1 448.97 488.33 447.37 486.51 445.7 485.45 444.86 484.65 443.03 481.9 441.58 480.77 437.3 479.79 432.38 478.17 431.13 475.86 431.29 475.2 431.67 474.74 433.02 473.64 433.73 472.25 434.15 468.93 426.65 462.81 425.49 460.83 425.97 457.14 426.72 451.35 427.94 444.82 427.98 444.63 431.52 445.91 446.28 444.09 453.65 441.53 457.68 434.22 459.91 426.91 463.27 418.5 467.74 414.11 473.32 409.35 478.91 406.05 486.07 403.12 495.23 398.73 503.06 395.06 508.2 390.66 512.22 385.9 516.92 378.56 520.49 372.32 522.73 363.88 522.95 358.37 522.94 358.32 Z" id="NL-GE" data-name="Gelderland"/>
<path d="M 522.07 615.85 522.17 611.35 524.03 610.07 526.09 609.63 527.09 609.65 527.7 609.84 528.63 611.14 532.34 616.26 533.08 616.96 538.38 620.56 539.04 620.33 539.34 620.23 538.11 621.46 537.94 625.05 540 625.89 546.02 625.75 548.4 626.9 553.03 630.41 555.08 632.54 552.3 642.01 557.05 648.09 571.09 654.28 568.67 661.76 567.55 666.53 568.45 670.62 582.25 689.67 590.61 699.36 592.09 710.27 593.09 716.3 592.34 722.89 590.76 729.96 590.48 736.08 593.61 739.83 592.41 742.75 591.77 750.02 590.65 754.16 588.59 757.08 583.32 760.77 581.16 762.9 570.53 782.57 566.16 787.92 564.04 791.58 562.26 798.17 561.66 805.56 563.14 811.66 568 814.38 578.33 807.26 583.09 808.91 581.44 809.87 576.7 813.76 581.05 817.83 577.97 821.94 566.16 828.37 546.98 843.44 544.2 846.67 540.21 855.06 537.66 857.87 533.85 858.28 531.08 855.74 528.62 852.53 525.75 850.91 519.94 853.98 521.12 861.69 524.31 871.17 524.53 879.47 527.36 878.89 532.73 876.22 535.54 875.42 538.41 875.81 543.85 877.62 551.29 876.72 551.72 878.43 550.45 881.21 549.66 883.94 549.96 888.69 550.5 891.31 552.08 893.06 556.97 896.13 563.74 898.49 563.33 899.82 562.24 901.6 561.85 903.78 563.61 910.53 563.55 913.15 562.28 916.52 559.97 919.31 555.3 918.9 552.45 920.53 550.63 923.82 550.82 926.65 551.27 929.67 550.18 933.57 547.2 936.37 544.05 935.57 544.93 939.77 546.51 942.52 548.57 943.96 549.92 945.95 549.47 950.22 545.29 951 530.25 950.51 527.99 949.79 525.62 949.04 507.64 949.49 505.52 948 501.28 943.31 499.2 942.52 497.36 943.94 495.12 947.3 494.1 948.83 491.94 949.27 489.69 948.82 485.92 946.65 488.06 939.13 488.42 935.26 485.19 934.3 480.71 932.14 479.5 931.3 476.04 928.87 472.67 923.87 472.22 916.52 487.18 899.77 489.58 898.8 491.98 897.93 492.96 897.13 495.64 893.09 499.22 885.44 501.6 881.43 499.59 880.22 497.59 880.17 492.96 881.43 501.13 868.34 504.41 860.31 501.6 856.47 502.09 852.1 503.14 848.91 504.84 847.86 507.26 849.94 508.82 847.8 509.96 845.46 511.5 840.93 510.92 839.6 510.6 838.59 510.09 836.21 512.36 836.45 514.58 836.11 516.68 835.26 518.59 833.97 513.88 828.9 514.54 825.13 517.46 822.24 516.94 820.65 515.1 816.44 511.56 816.16 505.2 817.78 502.44 815.45 498.11 809.45 494.72 807.42 492.06 807.14 483.39 808.93 479.83 808.97 477.58 807.35 475.59 805.05 472.78 803.07 461.04 799.51 457.52 796.5 457.57 796.48 461.04 795.11 466 793.6 467.8 793.77 469.34 793.09 470.79 791.47 471.94 789.12 473.82 777.98 477.48 771.47 478.9 769.21 483.3 763.5 503.48 757.33 518.21 752.63 524.61 750.99 529.4 746.99 536.93 740.76 531.89 729.97 524.81 720.16 520.1 701.11 516.89 680.13 524.32 680.87 532.24 683.56 534.68 683.59 540.28 682.66 550.44 679.15 552.47 679.68 557.53 683.18 560.74 680.32 560.78 677.63 559.55 674.82 557.01 664.89 556.14 663.42 555.92 662.23 551.83 655.34 549.96 653.46 547.87 652.19 546.84 650.48 548.23 647.25 544.99 643.64 542.23 631.57 539.02 628.98 530.66 628.12 527.35 626.02 525.58 621.92 526.21 617.89 522.07 615.85 Z" id="NL-LI" data-name="Limburg"/>
<path d="M 22.66 790.25 16.04 789.47 11.24 787.25 9.76 786.56 4.72 781.03 1.79 772.7 1.94 764.98 2.79 756.75 1 743.96 34.48 733.09 37.55 730.55 40.79 730.17 53.92 738.7 74.13 744.5 80.78 750.42 85.2 752.31 93.57 752.31 101.46 754.58 106.47 753.85 126.72 745.11 129.51 741.83 130.62 735.2 132.59 732.25 137.06 732.47 141.91 734.34 144.89 736.23 146.26 738.31 148.59 743.49 150.43 745.52 152.74 746.31 157.75 746.99 159.82 748.69 161.16 749.23 168.33 749.82 171.89 744.46 173.2 743.23 177.25 743.69 181.8 746.36 181.69 747.75 180.15 755.48 178.99 758.78 170.83 769.96 160.54 778.07 134.85 791.05 125.4 798.48 120.75 799.97 96.22 800.28 93.65 799.14 90.56 795.47 90.22 792.01 90.56 788.33 89.49 784 85.57 781.41 60.22 772.96 54.93 772.09 49.81 772.39 41.56 774.25 38.23 774.45 35.19 775.21 32.92 777.56 32.54 781.39 33.07 785.58 32.47 788.71 22.66 790.25 Z M 194.16 746.05 190.01 745.9 189.18 744.87 187.51 740.97 186.95 736.92 187.06 733.5 186.65 730.92 184.54 729.41 182.11 732.58 177.56 733.96 158.91 733.42 154.61 731.98 150.43 729.41 139.02 719.47 135.63 718.08 126.97 717.18 124.09 718.98 117.93 730.66 115.59 734.09 112.4 735.8 104.94 736.61 102.27 738.31 100.05 738.7 97.82 737.69 92.15 731.69 79.65 725.49 71.55 717.68 68.29 717.32 59.71 720.54 55.03 720.76 43.29 718.08 39.56 716.04 36.41 711.33 33.64 706.02 31.14 702.16 24.33 696.14 22.06 692.57 21.24 687.15 23.41 684.12 44.74 670.92 100.4 664.88 105.01 665.53 108.11 667.32 111.45 670.43 114.42 674.53 116.35 679.39 114.17 680.28 110.64 682.68 109.26 683.95 109.26 686.01 129.1 688.1 139.17 692.2 147.73 699.68 150.46 704.89 154.54 716.37 157.61 720.54 162.57 721.99 173.37 720.48 177.44 722.6 181.54 721.26 188.29 721.59 190.57 720.95 190.58 720.97 190.65 721.11 191.58 725.99 190.84 727.33 190.62 728.45 190.23 729.46 190.36 733.26 191.16 739.68 193.12 741.34 193.89 743.45 194.15 745.92 194.16 746.05 Z M 183.66 695.95 176.24 694.61 167.67 690.79 164.48 690.52 157.92 691.3 154.81 690.79 149.82 687.81 133.42 672.38 144.42 667.12 149.92 665.57 168.48 666.5 173.9 668.15 178.76 672.28 178.91 672.61 184.35 678.84 185.02 679.82 186.47 684.04 186.44 688.02 186.18 689.36 183.66 695.95 Z M 174.47 663.52 166.29 663.17 164.08 662.31 162 660.89 160.35 658.89 159.3 655.98 158.88 653.44 158.91 653.39 159.47 652.66 162.97 649.66 167.61 651.47 172.04 654.69 176.71 656.54 176.89 656.48 176.8 656.73 174.47 663.52 Z M 143.48 640.45 152.13 642.87 156.06 645.67 156.48 651.06 154.34 654.43 150.93 656.81 147.25 658.24 131.33 661.36 127.65 661.17 119.94 658.29 115.47 655.11 113.48 650.6 112.16 646.3 108.89 643.72 100.76 640.45 99.37 639.1 98.07 637.31 96.33 635.88 93.57 635.67 88.46 641.8 87.24 642.94 77.94 643.47 73.69 642.21 70.93 638.16 71.5 627.34 79.04 622.43 96.5 619.89 97.36 619.58 100.76 619.89 103.49 621.39 123.36 621.95 127.95 622.97 131.33 625.59 139.07 635.14 140.08 636.9 141.4 638.7 143.48 640.45 Z" fill-rule="evenodd" id="NL-ZE" data-name="Zeeland"/>
<path d="M 345.13 593.78 345.29 595.69 345.71 598.39 348.96 601.96 356.68 607.9 361.7 608.08 364.02 607.33 371.68 612.54 371.64 617.94 369.33 623.43 371.17 624.07 409.12 619.85 413.07 617.86 416.73 614.78 419.39 610.48 420.44 604.87 422.21 598.34 426.35 596.12 434.73 596.75 438.98 595.17 443.04 592.1 447.04 590.49 451.01 593.21 454.03 594.22 467.28 592.17 476.55 594.25 477.74 595.71 480.3 602.17 482.27 603.63 486.28 604.68 500.75 614.78 522.07 615.85 526.21 617.89 525.58 621.92 527.35 626.02 530.66 628.12 539.02 628.98 542.23 631.57 544.99 643.64 548.23 647.25 546.84 650.48 547.87 652.19 549.96 653.46 551.83 655.34 555.92 662.23 556.14 663.42 557.01 664.89 559.55 674.82 560.78 677.63 560.74 680.32 557.53 683.18 552.47 679.68 550.44 679.15 540.28 682.66 534.68 683.59 532.24 683.56 524.32 680.87 516.89 680.13 520.1 701.11 524.81 720.16 531.89 729.97 536.93 740.76 529.4 746.99 524.61 750.99 518.21 752.63 503.48 757.33 483.3 763.5 478.9 769.21 477.48 771.47 473.82 777.98 471.94 789.12 470.79 791.47 469.34 793.09 467.8 793.77 466 793.6 461.04 795.11 457.57 796.48 457.52 796.5 456.3 795.45 455.64 787.92 454.16 781.5 450.32 776.47 445.46 773.39 440.98 772.87 436.89 774.85 428.19 781.01 423.86 782.61 399.33 781.57 392.85 783.2 391.51 783.53 387.86 782.6 387.76 770.8 384.11 766.16 380.28 765.77 372.26 766.48 368.69 764.49 367.68 762.32 365.56 755 364.47 752.12 357.33 744.19 356 740.96 356.73 733.77 359.04 728.45 359.77 722.92 355.7 715.13 349.49 710.98 348.91 710.19 345.72 711.02 344.47 713.02 343.77 716.11 342.33 720.21 339.1 725.58 334.32 732.08 329.09 737.19 324.61 738.42 316.6 734.72 312.78 733.69 298.28 733.19 293.88 731.29 295.06 727.29 297.4 726.95 306.44 731.19 304.94 725.4 305.86 720.37 307.15 715.6 306.7 710.58 304.55 707.76 301.08 705.46 297.31 704.01 294.31 703.72 287.48 707.26 271.45 727.02 269.31 728.62 266.52 729.68 263.31 729.9 256.69 728.22 250.71 729.32 247.97 729.06 244 726.21 244.39 722.96 246.14 718.82 246.42 713.26 244.77 710.48 242.16 710 236.03 711.02 224.91 715.13 214.07 721.48 216.57 724.24 216.15 726.61 214.8 729.2 214.65 732.57 216.25 735.56 220.9 741.12 222.17 744.38 221.14 750.1 217.2 752.2 207.53 751.58 203.53 750.2 196.03 746.11 194.16 746.05 194.15 745.92 193.89 743.45 193.12 741.34 191.16 739.68 190.36 733.26 190.23 729.46 190.62 728.45 190.84 727.33 191.58 725.99 190.65 721.11 190.58 720.97 190.57 720.95 194.6 719.88 197.4 712.28 195.71 705.09 191.39 699.71 185.59 696.31 183.66 695.95 186.18 689.36 186.44 688.02 186.47 684.04 185.02 679.82 184.35 678.84 178.91 672.61 178.76 672.28 178.77 672.29 178.86 672.38 177.89 666.09 175.26 663.56 174.47 663.52 176.8 656.73 176.89 656.48 185.42 653.75 193.96 653.03 205.06 650.13 213.16 644.57 219.45 632.96 240.9 637.31 248.85 637.07 256.04 634.89 264.59 630.78 269.39 629.33 275.94 629.24 286.32 616.68 289.29 610.81 293.81 605.91 299.74 601.34 311.17 601.17 316.32 599.52 324.33 592.21 329.68 592.12 340.21 594.25 345.13 593.78 Z" id="NL-NB" data-name="Noord-Brabant"/>
<path d="M 381.05 546.2 375.89 556.84 374.92 558.47 367.65 571.53 368 573.4 368.39 574.91 368.39 575.94 368.19 576.67 366.04 578.04 350.12 584.79 344.13 585.15 345.45 587.18 345.42 587.84 344.87 590.54 345.13 593.78 340.21 594.25 329.68 592.12 324.33 592.21 316.32 599.52 311.17 601.17 299.74 601.34 293.81 605.91 289.29 610.81 286.32 616.68 275.94 629.24 269.39 629.33 264.59 630.78 256.04 634.89 248.85 637.07 240.9 637.31 219.45 632.96 213.16 644.57 205.06 650.13 193.96 653.03 185.42 653.75 176.89 656.48 176.71 656.54 172.04 654.69 167.61 651.47 162.97 649.66 159.47 652.66 158.91 653.39 158.88 653.44 158.66 652.15 158.61 648.33 159.23 645.48 161.93 642.53 165.51 641.02 172.56 640.45 170.37 638.16 165.14 634.41 150.71 629.97 147.73 625.59 146.41 614.47 142.92 607.52 137.91 602.93 132.04 598.88 128.12 601.83 122.86 603.47 117.51 603.45 113.46 604.6 112.7 605.96 111.23 606.23 109.26 606.17 107.34 596.85 113.36 592.76 126.37 588.77 128.14 586.35 132.19 586.04 139.12 587.62 144.89 590.76 145.75 590.94 147.29 590.76 149.45 589.79 151.98 587.62 150.41 584.55 145.13 577.24 143.73 576.1 142.53 574.72 142.06 572.62 142.51 570 143.48 568.15 144.44 566.83 144.89 565.76 144.22 560.59 140.27 547.39 137.96 541.73 139.12 539.19 140.54 536.94 150.19 539.1 158.2 537.77 165.29 533.16 194.9 496.97 220.24 459.61 241.23 421.36 239.34 424.85 248.43 428.97 249.62 429.45 253.32 430.27 257.63 428.01 262.29 429.13 253.58 443.68 253.29 444.51 253.03 445.98 252.84 449.15 251.83 453.71 249.23 458.16 249.52 460.66 251.87 460.48 253.9 462.46 254.9 462.95 256.31 463.21 261.42 463.09 270.27 460.71 274.67 458.59 283.14 455.85 284.2 456.56 284.71 457.07 285.61 462.06 286.32 463.66 288.52 464.75 295.07 460.38 297.77 465.13 298.8 466.6 300.07 467.86 304.63 469.68 314.73 478.38 312.87 479.91 313.7 483.65 315.02 487.37 315.34 488.5 315.31 489.32 314.86 489.9 313.99 490.14 310.58 488.5 309.55 488.26 308.84 487.93 308.17 487.42 307.04 487.67 306.04 488 301.09 493.27 299.84 494.68 302.7 497.19 305.85 498.35 308.48 510.92 317.85 510.98 316.36 513.27 308.2 517.34 301.61 527.4 302.54 529.54 312.01 528.25 312.94 532.32 310.32 533.95 308.81 534.67 307.46 535.1 306.78 536.11 308.65 539.31 315.28 547.82 319.84 554.84 321.23 552.7 325.93 552.98 328.02 552.11 333.84 546.1 340.49 542.24 340.92 541.71 349.51 543.68 351.6 542.76 354.61 538.9 356.45 537.47 361.19 536.16 363.02 534.74 364.95 533.76 367.81 534.39 370.34 536.37 373.2 541.37 375.15 543.8 379.06 545.89 381.05 546.2 Z" id="NL-ZH" data-name="Zuid-Holland"/>
<path d="M 295.07 460.38 288.52 464.75 286.32 463.66 285.61 462.06 284.71 457.07 284.2 456.56 283.14 455.85 274.67 458.59 270.27 460.71 261.42 463.09 256.31 463.21 254.9 462.95 253.9 462.46 251.87 460.48 249.52 460.66 249.23 458.16 251.83 453.71 252.84 449.15 253.03 445.98 253.29 444.51 253.58 443.68 262.29 429.13 257.63 428.01 253.32 430.27 249.62 429.45 248.43 428.97 239.34 424.85 241.23 421.36 253.77 384.37 255.57 374.73 255.57 372.23 259.64 363.5 268.43 297.25 272.11 280.3 272.68 275.13 274.67 264.4 283.43 241.58 285.44 230.3 285.65 223.92 286.48 215.73 288.03 208.65 290.43 205.65 303.18 207.64 305.24 205.65 306.79 208.22 303.69 218.73 308.53 225.01 317.04 227.54 325.19 226.98 329.89 224.3 338.7 216.63 343 215.03 351.27 213.94 359.4 210.33 380.47 191.4 380.54 191.75 380.96 192.81 381.77 196.18 382.06 197.41 382.08 197.48 397.14 240.8 419.98 266.54 419.95 266.89 417.61 301.24 407.21 297.92 400.83 302.34 397.48 315.06 362.93 337.71 367.96 360.33 378.03 375.2 383.39 390.06 376.35 390.06 364.61 401.06 364.94 412.05 376.35 424.12 382.72 425.77 390.44 425.22 394.8 425.22 401.84 427.42 419.41 439.34 419.11 439.4 412.07 440.68 400.46 440.69 398.82 441.32 397.89 441.86 394.13 448.2 389.91 458.7 389.2 462.67 388.05 465.18 386.6 468.73 385.09 471.81 381.01 474.64 369.49 474.01 361.66 475.47 357.98 477.19 352.54 478.33 351.48 471.18 350.26 466.02 351.82 459.15 355.26 454.9 354.27 452.82 353.72 452.07 353.3 451.42 352.82 450.81 352.11 450.16 351.53 449.85 351.08 449.36 350.76 448.62 350.54 447.36 350.22 446.33 349.51 444.82 350.51 443.23 356.84 440.73 348.45 439.94 345.1 441.43 344.13 439.94 343.13 439.13 341.88 438.62 340.37 438.61 335.23 441.46 331.26 442.16 329.34 442 328.37 442.58 327.7 443.18 324.8 448.73 316.56 449.88 312.03 452.12 308.9 455.37 304.73 457.53 295.07 460.38 Z M 320.93 156.2 320.93 158.35 325.19 158.35 323.73 162.88 321.03 168.25 315.26 177.2 305.5 185.28 300.84 194.39 293.85 196.45 286.57 193.44 282.6 184.69 283.88 175.67 287.98 165.46 293.13 157.09 302.91 148.61 307.81 138.25 313 129.69 319.52 130.04 320.36 132.07 320.83 133.84 320.68 135.49 319.52 137.13 322.45 141.93 324.58 148.06 324.53 153.5 320.93 156.2 Z" fill-rule="evenodd" id="NL-NH" data-name="Noord-Holland"/>
<path d="M 589.09 52.25 586.86 56.72 585.83 60.9 587.86 68.46 590.82 69.77 594.74 70.9 595.48 71.35 596.29 72.11 597.48 73.85 598.34 74.82 599.05 75.23 599.63 75.41 600.27 75.37 601.01 75.09 602.18 74.3 602.76 74.04 603.43 73.99 607.26 75.28 608 76.43 608.35 78.35 607.87 82.69 607.77 86.08 608.13 86.49 608.67 86.82 610.05 87.35 610.05 87.71 609.48 88.41 606 91.66 603.18 94.9 602.4 96.46 601.37 100.94 598.28 106.24 595.71 111.4 596.13 113.02 596.32 114.47 596.74 115.33 597.09 116.39 597.32 117.37 597.38 118.32 596.83 119.72 589.14 130.02 587.02 134.29 585.57 141.72 586.54 149.14 588.47 151.62 591.21 154.1 593.01 154.69 601.86 155.54 605.43 156.83 612.88 161.74 614.69 162.75 614.31 167.46 614.95 168.1 618.2 170.05 624.05 172.56 624.53 173.56 625.02 175.48 624.83 177.37 625.95 180.81 626.72 184.68 637.95 199.81 640.46 205.06 640.11 206.59 639.56 208.49 633.86 217.93 632.57 219.34 622.66 226.02 615.72 221.27 611.08 220.06 605.55 220.08 603.3 221.86 601.86 223.33 594.94 231.33 577.37 244.9 568.66 248.36 564.66 248.79 561.29 249.75 560.8 250.15 560.58 250.54 560.39 252.03 560.19 252.58 557.24 256 549.09 255.4 548.07 254.91 546.17 253.2 543.73 249.59 542.62 249.07 542.08 248.97 541.56 249.6 540.79 250.14 536.61 251.15 535.58 251.78 534.84 252.62 534.33 253.77 533.59 255.1 532.66 256.5 531.65 257.51 525.51 261.2 523.94 261.5 522.78 261.57 516.92 260.6 516.15 260.22 513.71 258.08 505.98 261.96 503.89 256.71 498.72 251.2 496.71 249.94 492.47 250.61 491.92 250.72 489.05 250.24 484.36 250.24 479.33 251.35 474.29 253.58 467.59 259.13 458.86 265.78 420.29 266.89 419.98 266.54 397.14 240.8 382.08 197.48 382.06 197.41 381.77 196.18 380.96 192.81 380.54 191.75 380.47 191.4 401.14 172.8 404.2 169.18 408.04 165.94 417.61 163.69 421.83 160.92 426.08 152.39 431.75 128.79 435.97 118.21 443.25 109.67 447.74 105.7 455.37 102.38 458.86 98.42 462.1 93.69 465.85 89.83 470.05 88.33 479.97 86.65 487.21 80.36 520.41 66.91 527.88 61.54 532.64 61.14 546.54 53.96 566.55 52.97 589.09 52.25 Z M 318.1 118.21 326.87 106.84 340.4 94.27 354.49 86.01 364.94 87.45 364.94 89.83 359.4 89.83 356.8 91.32 350.76 93.64 334.4 109.67 329.88 116.45 324.58 121.13 318.1 118.21 Z M 431.02 45.51 433.81 43.38 464.55 37.42 459.72 44.13 453.85 46.2 441.77 46.7 442.17 47.89 442.66 50.43 443.07 51.66 440.35 53.11 431.73 53.83 422.5 57.92 415.13 59.81 386.4 72.51 380.49 72.37 377.96 67.11 380.29 61.13 391.39 57.21 395.07 53.83 399.79 53.96 427.63 48.23 431.02 45.51 Z M 482.94 32.43 532.66 30.37 541.11 34.81 520.6 39.57 499.27 39.57 493.94 40.99 483.97 45.59 478.7 44.33 475.07 39.14 476.29 34.02 479.8 31.06 482.94 32.43 Z M 594.43 18.17 614.96 16.33 620.75 18.17 620.75 20.56 617.91 20.56 582.28 32.12 578.16 37.42 576.95 35.23 576.88 34.12 578.16 32.43 575.99 27.66 581.2 23.05 588.96 19.56 594.43 18.17 Z" fill-rule="evenodd" id="NL-FR" data-name="Friesland"/>
<path d="M 505.98 261.96 521.17 270.29 530.78 278.15 533.21 281.37 534.65 283.83 537.61 292.53 539.18 301.32 538.03 303.15 537.19 305.15 535.68 306.58 535.29 307.17 535.87 307.71 537.64 308.56 546.01 311.03 550.06 313.26 554.62 318.8 548 322.51 537.99 325.95 536.03 326.07 532.66 325.51 531.49 324.82 528.76 325 518.23 329.83 518.03 330.06 515.8 332.63 515.8 336.68 518.7 339.26 522.94 358.32 522.95 358.37 522.73 363.88 520.49 372.32 516.92 378.56 512.22 385.9 508.2 390.66 503.06 395.06 495.23 398.73 486.07 403.12 478.91 406.05 473.32 409.35 467.74 414.11 463.27 418.5 459.91 426.91 457.68 434.22 453.65 441.53 446.28 444.09 431.52 445.91 427.98 444.63 427.5 444.45 419.11 439.4 419.41 439.34 401.84 427.42 394.8 425.22 390.44 425.22 382.72 425.77 376.35 424.12 364.94 412.05 364.61 401.06 376.35 390.06 383.39 390.06 378.03 375.2 367.96 360.33 362.93 337.71 397.48 315.06 400.83 302.34 407.21 297.92 417.61 301.24 419.95 266.89 419.98 266.54 420.29 266.89 458.86 265.78 467.59 259.13 474.29 253.58 479.33 251.35 484.36 250.24 489.05 250.24 491.92 250.72 492.47 250.61 496.71 249.94 498.72 251.2 503.89 256.71 505.98 261.96 Z" id="NL-FL" data-name="Flevoland"/>
<path d="M 427.98 444.63 427.94 444.82 426.72 451.35 425.97 457.14 425.49 460.83 426.65 462.81 434.15 468.93 433.73 472.25 433.02 473.64 431.67 474.74 431.29 475.2 431.13 475.86 432.38 478.17 437.3 479.79 441.58 480.77 443.03 481.9 444.86 484.65 445.7 485.45 447.37 486.51 448.97 488.33 449.52 489.1 449.49 490.28 448.46 492.31 448.49 494.58 448.69 495.76 448.69 496.41 448.62 496.79 446.37 496.62 444.76 500.04 443.54 503.66 442.93 504.78 441.94 505.95 440.36 507.31 440.68 508.04 441.1 508.63 446.89 511.53 448.78 510.85 450.95 509.14 451.65 508.88 452.49 508.81 453.32 508.25 454.13 507.31 455 505.67 455.29 504.34 455.41 503 454.51 500.51 457.92 499.7 459.69 506.54 459.88 508.37 460.3 510.34 460.01 518.41 461.84 528.63 464.46 533.33 468.73 537.96 470.14 540.98 471.01 542.51 471.4 543.85 471.69 545.59 471.59 550.88 470.85 552.46 463.89 550.76 447.91 541.11 438.98 539.21 436.39 539.92 432.28 542.88 430.35 543.8 428.01 543.7 422.57 541.71 417.97 542.77 411.87 547.49 407.58 548.6 395.93 542.1 392.85 542.76 389.11 545.66 384.13 546.62 381.05 546.2 379.06 545.89 375.15 543.8 373.2 541.37 370.34 536.37 367.81 534.39 364.95 533.76 363.02 534.74 361.19 536.16 356.45 537.47 354.61 538.9 351.6 542.76 349.51 543.68 340.92 541.71 340.49 542.24 333.84 546.1 328.02 552.11 325.93 552.98 321.23 552.7 319.84 554.84 315.28 547.82 308.65 539.31 306.78 536.11 307.46 535.1 308.81 534.67 310.32 533.95 312.94 532.32 312.01 528.25 302.54 529.54 301.61 527.4 308.2 517.34 316.36 513.27 317.85 510.98 308.48 510.92 305.85 498.35 302.7 497.19 299.84 494.68 301.09 493.27 306.04 488 307.04 487.67 308.17 487.42 308.84 487.93 309.55 488.26 310.58 488.5 313.99 490.14 314.86 489.9 315.31 489.32 315.34 488.5 315.02 487.37 313.7 483.65 312.87 479.91 314.73 478.38 304.63 469.68 300.07 467.86 298.8 466.6 297.77 465.13 295.07 460.38 304.73 457.53 308.9 455.37 312.03 452.12 316.56 449.88 324.8 448.73 327.7 443.18 328.37 442.58 329.34 442 331.26 442.16 335.23 441.46 340.37 438.61 341.88 438.62 343.13 439.13 344.13 439.94 345.1 441.43 348.45 439.94 356.84 440.73 350.51 443.23 349.51 444.82 350.22 446.33 350.54 447.36 350.76 448.62 351.08 449.36 351.53 449.85 352.11 450.16 352.82 450.81 353.3 451.42 353.72 452.07 354.27 452.82 355.26 454.9 351.82 459.15 350.26 466.02 351.48 471.18 352.54 478.33 357.98 477.19 361.66 475.47 369.49 474.01 381.01 474.64 385.09 471.81 386.6 468.73 388.05 465.18 389.2 462.67 389.91 458.7 394.13 448.2 397.89 441.86 398.82 441.32 400.46 440.69 412.07 440.68 419.11 439.4 427.5 444.45 427.98 444.63 Z" id="NL-UT" data-name="Utrecht"/>
</g>
</svg>