<?xml version="1.0"?>
<svg xmlns="http://www.w3.org/2000/svg" version="1.2" baseProfile="tiny" width="800" height="948" viewBox="0 0 800 948" stroke-linecap="round" stroke-linejoin="round">
<g id="MLOC-NO">
<path d="M 410.08 230.52 405.47 223.81 399.02 224.39 391.32 224.78 385.34 227.41 370.68 228.2 366.36 231.9 364.17 233.08 362.21 232.82 361.5 230.84 362.93 229.49 361.27 227.97 361.23 224.43 362.96 221.98 365.01 221.25 368.42 218.72 373.95 216.48 376.6 220.13 377.64 217.22 381.72 215.15 383.52 216.5 385.35 216.21 386.35 218.42 388.96 219.99 389.09 217.94 386.34 213.44 383.93 214.51 381.24 212.48 384.23 209.89 388.08 207.53 391.22 209.75 393.65 209.06 388.28 206.2 390.64 204.87 395.13 201.14 398.2 203.11 399.11 200.97 395.52 199.29 395.93 197.57 387.34 199.32 390.35 194.13 388.91 192.4 392.38 186.93 394.68 184.29 394.06 182.17 400.41 181.79 403.12 179.49 406.82 177.74 406.77 174.52 404.85 172.63 404.46 167.82 405.73 165.11 407.76 163.73 408.31 160.67 409.81 157.37 409.05 153.09 413.45 150.58 414.68 152.22 416.06 156.13 415.48 158.7 417.88 158.59 419.74 161.81 419.33 167.41 420.57 167.09 420.62 162.5 421.87 162.07 422.55 166.58 424.05 167.6 425.19 165.07 429.25 164.44 432.44 166.95 435.06 167.11 432.56 163.69 424.44 160.67 422.68 158.86 421.36 154.86 418.46 154.15 418.51 149.09 419.39 147.54 423.41 145.9 430.12 144.92 429.87 149.2 431.36 149.64 432.61 154.06 434.85 155.61 435 158.29 438.97 162.11 445.06 162.82 445.77 166.59 443.17 168.68 441.49 167.99 439.61 169.41 440.24 170.9 443.65 173.07 446.02 171.49 448.98 173.35 449.95 172.64 448.11 169.98 448.29 165.02 447.54 163.03 445.14 159.83 443.58 159.25 439.28 160 438.17 159.23 436.68 154.81 434.6 152.51 434.74 148.9 436.65 146.57 439.91 145.06 439.02 143.84 436.18 144.94 435.06 146.47 433.3 144.16 432.88 139.47 437.13 132.69 437.53 128.97 440.65 127.47 443.5 124.89 447.99 125.4 451.44 123.38 456.83 122.25 458.25 123.01 456.66 127.17 456.02 131.65 454.93 133.72 456.53 137.14 455.7 141.34 453.99 145.93 453.49 149.79 454.2 152.91 455.36 154.19 456.46 148.05 455.96 146.79 457.42 140.84 460.47 138.43 459.41 133.1 460.91 126.59 463.09 123.9 464.98 126.15 468.23 116.53 471.07 116.43 470.87 112.5 472.93 108.66 474.28 109.02 477.37 115.48 476.65 123.01 474.91 129.89 474.52 134.8 476.1 137.14 476.32 140.9 473.56 143.09 473.96 145.61 472.74 149.2 472.83 152.19 471.28 152.14 470.55 156.9 464.23 163.27 464.85 164.44 462.87 167.59 464.78 167.82 466.9 163.52 471.57 159.38 473.13 158.7 475.47 152.19 478.09 147.47 478.42 144.62 479.79 142.73 484.31 147.61 486.47 146.99 483.7 141.28 479.64 138.43 479.51 136.6 481.13 131.65 480.23 126.06 484.18 125.78 488.48 123.24 489.68 119.76 489.81 116.12 496.53 110.7 491.77 118.77 493.61 119.36 493.19 121.76 497.04 119.66 496.73 118.17 500.12 116.77 501.29 113.98 501.29 111.58 502.61 105.56 505.02 103.15 506.83 103.27 511.83 106.76 513.29 109.77 512.45 112.18 515.64 115.5 517.85 116.14 522.29 121.17 523.88 125.33 527.78 128.67 526.87 123.95 525.47 122.31 525.53 118.18 523.06 116.45 522.56 110.65 523.36 107.08 526.22 107.64 526.73 104.35 521.12 104.78 519.08 102.54 520.31 100.96 524.69 100.74 528.02 96.55 525.77 96.69 523.91 98.35 520.32 97.65 519.28 99.52 515.76 100.07 513.49 97.11 510.47 97.72 509.13 96.41 508.15 92.58 503.49 90.2 501.29 87.33 502.03 85.92 510.91 89.43 514.54 89.8 517.52 93.56 520.95 96.59 523.1 95.54 524.69 93.21 526.19 93.48 528.56 91.8 529.51 93.48 532.25 101.87 532.35 104.28 534.88 110.09 542.23 113.75 541.44 117.51 542.84 119.33 541.07 123.39 544.16 131.61 545.23 133.35 549.05 136 551.25 135.77 553.36 137.34 550.27 142.05 548.47 146.36 548.19 148.35 543.31 148.61 535.79 151.4 535.31 152.17 535.73 157.66 539.48 164.13 542.1 169.58 543.03 172.52 542.88 178.39 541 182.76 538.48 184.47 523.54 186.5 514.99 169.73 514.26 169.04 504.44 167.33 497.94 171.76 495.98 176.71 499.69 184.65 497.96 188.35 495.95 188.58 487.25 183.23 486.41 183.7 483.59 188.98 467.86 190.17 475.07 199.6 475.53 208.43 475 211.69 471.91 220.54 469.35 224.87 463.63 230.29 472.19 235.55 465.08 244.86 462.68 245.98 449.11 239.93 435.72 233.22 425.51 234.05 423.83 233.58 417.54 227.59 410.08 230.52 Z M 375.76 207.35 378.13 210.2 377.33 212.31 369.36 215.03 368.62 214.18 369.46 211.04 371.47 209.06 373.38 205.01 374.63 203.79 375.76 207.35 Z M 380.39 201.01 380.95 198.67 383.81 198.9 386.41 201.09 387.46 203.3 384.7 205.87 383.22 208.51 380.91 209.39 379.54 207.56 378.95 203.3 376.79 200.57 378.12 199.15 380.39 201.01 Z M 341.17 195.62 340.88 198.98 341.66 201.58 339.83 210.24 343.26 210.37 343.46 213.35 341.94 218.46 343.3 219.5 346.41 219.42 344.96 216.19 347.2 213.75 350.4 214.18 350.03 212.09 347.7 210.15 346.64 207.57 347.2 205.79 349.75 204.03 352.05 205.59 353.46 202.95 357.21 204.67 357.72 207.53 359.23 208.55 360.75 211.29 359.85 212.07 359.92 215.31 361.38 216.5 360.11 218.72 360.84 220.86 358.79 224.95 358.94 227.14 351.38 223.06 344.88 226.15 341.97 225.73 340.1 229.6 334.22 236.32 334.15 233.68 333.1 230.67 334.28 224 337.17 219.31 337.4 217.03 335.64 214.36 335.79 212.34 337.66 209.74 340.36 202.41 340.15 198.35 341.17 195.62 Z M 361.06 194.71 362.06 196.49 361.08 201.5 358.34 201.63 355.88 200.28 351.86 194.71 353.21 192.44 354.81 192.87 358.06 195.23 361.06 194.71 Z M 406.5 154.78 406.92 162.11 404.84 162.11 402.04 163.83 402.14 167.99 403.38 169.74 402.32 172.8 403.1 176.77 398.95 177.71 395.52 177.42 392.62 179.03 389.84 178.69 388.42 175.1 385.59 179.03 381.25 183.07 378.95 187.8 379.75 189.98 376.37 191.36 375.47 189.45 377.48 184.89 368.82 187.45 367.5 186.12 367.71 182.91 370.31 183.23 370.91 181.34 373.81 180.24 375.85 180.81 375.65 176.76 373.38 175.55 371.1 175.55 372.49 172.01 376.78 172.65 377.47 169.31 373.59 168.58 371.91 167.16 371.6 165.09 378.14 165.66 375.92 163.67 375.84 161.08 373.3 161.76 370.5 161.52 372.65 158.21 376.48 159.23 378.45 158.01 382.5 158.59 385.29 160.88 385.92 159.71 383.11 157.06 387.65 156.81 389.13 155.61 383.99 154.65 381.5 153.33 382.12 151.3 385.28 150.23 383.74 146.42 385.39 146.51 388.1 148.25 388.6 149.5 392 150.33 391.27 147.43 389.11 145.93 388.06 143.25 389.77 141.06 392.82 147.97 394.4 146.68 393.88 141.3 395.52 142.06 396.38 144.97 397.48 145.31 399.45 141.48 400.55 143.12 401.13 146.26 399.67 149.22 399.01 153.1 400.06 153.54 401.08 149.55 402.67 147.43 405.89 149.79 403.83 150.97 403.89 153.78 406.5 154.78 Z M 434.54 120.89 436.4 124.53 435.58 128.31 433.66 129.2 431.98 132.2 428.63 133.72 427.6 136.75 429.36 138.82 429.22 141.6 426.47 143.8 423.27 142.71 421.29 144.43 419.03 144.38 412.27 146.8 410.22 146.79 407.54 143.25 404.99 142.82 404.22 141.48 405.49 139.11 408.44 137.59 411.52 138.26 413.34 141.19 414.15 137.93 413.15 137.42 410 131.35 410.84 130.88 415.03 131.7 414.24 126.41 415.14 124.02 420.47 125.1 422.03 123.11 424.09 123.01 423.73 127.27 424.39 130.99 426.62 131.59 428.22 124.8 425.16 120.29 424.87 115.86 427.43 117.28 429.19 115.86 431.5 119.19 434.54 120.89 Z M 493.73 105.56 494.39 107.45 493.17 110.5 490.22 111.31 489.09 110.38 487.74 105.86 488.99 102.51 490.74 101.94 493.73 105.56 Z M 453.26 104.35 455.25 105.23 454.12 108.48 450.88 110.09 450.17 113.38 447.68 117.3 446.85 120.02 444.65 122.29 438.24 124.46 435.88 120.02 429.82 114.34 427.45 113.32 426.38 110.43 427.6 109.77 430.49 110.92 432.56 108.51 429.88 107.4 429.47 105.86 430.81 103.69 434.13 103.7 435.88 102.82 436.61 100.39 440.85 97.11 442.29 99.88 444.38 98.86 443.39 103.07 446.42 106.54 448.7 101.71 450.74 100.76 453.26 104.35 Z M 488.67 97.65 488.75 99.83 487.34 100.88 482.53 101.77 477.8 99.81 476.54 96.74 477.32 90.62 478.74 88.49 481.22 87.33 482.52 84.87 486.93 84.81 489.2 86.27 489.66 88.57 488.05 95.6 488.67 97.65 Z M 464.23 92.8 469.42 95.84 466.4 96.85 464.11 100.51 459.32 100.5 457.2 98.26 457.14 93.79 455.75 89.76 453.69 86.37 451.46 85.31 450.79 83.62 453.16 81.01 455.4 80.47 455.75 83.62 458.44 87.15 460.72 87.16 462.99 88.49 462.9 91.32 464.23 92.8 Z M 486 115.61 486.53 120.15 486.11 121.88 483.08 123.94 480.85 122.32 480.55 119.95 481.76 114.98 486.31 113.79 486 115.61 Z M 459.13 105.6 460.43 108.2 456.33 117.73 455.01 118.56 449.17 120.04 447.94 118.28 450.66 112.93 455.48 109.04 457.95 105.4 459.13 105.6 Z M 424.5 103.39 424.21 101.56 427.13 95.92 429.38 99.36 431.24 96.43 433.83 99.32 431.86 101.8 427.47 104.13 425.55 107.18 424.5 103.39 Z M 491.77 98.79 489.7 99.37 488.89 97.57 489.15 93.36 490.65 92.99 492.4 96.28 491.77 98.79 Z M 450.84 97.54 445.4 95.82 444.68 94.5 445.64 92.17 448.05 92.06 451.24 95.12 450.84 97.54 Z M 441.88 88.01 441.42 93.88 439.83 95.64 437.67 95.48 434.44 92.35 438.71 88.34 437.74 84.42 441.53 85.03 441.88 88.01 Z M 390.68 184.27 390.44 187.35 387.99 189.75 386.28 192.94 384.79 192.4 384.81 189.11 385.83 186.68 387.8 184.87 390.68 184.27 Z" fill-rule="evenodd" id="NO-19" data-name="Troms"/>
<path d="M 361.5 230.84 362.21 232.82 364.17 233.08 366.36 231.9 370.68 228.2 385.34 227.41 391.32 224.78 399.02 224.39 405.47 223.81 410.08 230.52 409.08 232.15 408.46 242.26 410.06 258.34 409.4 261.6 402.88 275.14 401.2 276.86 383.87 265.91 380.81 271.19 368.36 281.61 366.97 284.29 362.34 302.63 358.54 309.71 355.04 312.57 349.98 313.63 347.8 320.36 357.18 337.77 357.36 339.15 356.51 349.24 356.03 350.53 353.34 352.55 347.75 358.38 345.13 361.98 333.97 384.01 326.63 392.22 326.74 394.31 328.32 403.56 328.31 408.52 315.37 417.62 299.88 419.69 303.02 440.65 302.79 445.2 300.49 451.09 298.97 468.34 299.21 475.61 299.09 478.97 298.11 481.1 295.65 483.5 294.61 486.36 293.58 493.67 290.41 492.36 273.84 494.21 270.13 493.69 263.14 494.3 258.13 493.24 254.09 498.06 251.89 499.34 251.61 501.81 250.22 503.29 247.44 503.83 246.08 505.41 242.01 505.39 240.05 503.43 235.83 502.69 232.52 503.82 229.24 501.88 228.98 498.22 231.63 497.53 234.29 495.37 237.39 495.44 238.48 493.15 241.46 492.81 241.79 491.1 243.6 490.43 247.2 486.12 250.22 479.41 243.33 487.78 238.33 491.45 236.11 491.86 234.29 490.96 234.68 489.13 237.36 488.74 237.08 487.29 234.93 484.42 237.49 483.5 236.31 482.21 233.58 482.61 233.48 480.1 236.78 479.3 236.22 477.06 238.01 475.28 239.67 475.65 239.07 472.64 237.61 469.67 239.09 469.51 241.34 470.7 241.16 466.61 240.2 464.78 241.1 463.3 239.82 460.82 238.66 464.89 235.36 463.23 235.75 458.72 234.28 459.02 233.69 455.68 236.15 451.13 238.11 448.72 240.49 449.67 241.52 453.86 243.79 453.99 242.78 450.44 240.49 448.67 240.28 446.28 243.09 443.1 241.74 440.08 243.76 434.46 246.98 431.62 248.77 431.5 250.86 432.51 251.89 434.16 254.57 434.53 255.69 436.77 257.91 436.99 256.75 432.97 254.82 432.97 252.7 432 251.06 429.47 252.24 428.27 251.89 426.38 254.06 424.03 253.42 422.88 251.15 424.46 244.65 425.88 243.9 423.48 245.85 421.21 249.39 419.03 254.79 417.69 260.16 415.19 262.59 412.79 269.27 411.12 270.76 412.71 270.94 415.19 269.36 420.08 270.32 420.75 272.67 417.32 271.76 415.19 272.71 412.58 274.39 411.23 276.24 410.95 278.62 412.47 282.73 411.29 283.85 408.81 287.62 405.4 286.58 403.86 285.01 405.37 282.47 406.27 280.76 409 277.62 408.3 276.44 407.12 274.46 410.15 272.07 411.06 270.73 409.47 268.55 409.71 265.85 410.9 262.03 411.05 259.53 413.78 255.44 416.07 254.3 414.26 258.28 409.7 263.05 406.61 268.28 406.63 268.62 405.23 265.54 405.37 264.82 403.83 260.19 406.83 254.48 405.13 253.35 402.34 257.61 400.15 258.5 398.18 257.33 394.51 255.82 391.7 252.51 389.87 256.45 388.31 259.97 391.19 260.34 393.97 261.41 394.05 262.04 390.83 264.1 388.31 266.68 388.52 268.13 387.75 272.05 390.11 272.18 388.61 267.85 387.38 268.67 385.16 267.62 384.17 266.14 386.79 261.52 387.92 259.54 387.28 260.9 382.91 260.92 381.45 258.5 380.01 261.93 379.34 263.89 380.49 267 379.49 267.85 378.23 261.41 376.22 261.08 374.51 268.25 375.28 269.29 376.84 274.28 377.01 274.44 375.28 277.48 375.47 280.23 373.67 274.85 373.67 271.79 375.27 269.87 374.49 271.14 371.63 275.04 372.49 275.13 371.04 268.67 370.06 269.72 368.46 274.11 368.16 276.56 369.27 277.56 367.97 275.68 365.82 274.14 366.02 271.64 360.49 269.08 360.58 271.16 358.08 275.84 358.18 276.31 355.8 278.69 356.09 280.23 354.21 282.28 355.32 280.23 356.9 281.06 358.8 284.39 355.8 284.84 353.69 283.99 351.57 286.14 350.47 286.86 354.03 288.13 355.5 290.28 354.74 291.68 351.46 291.77 348.67 296.18 348.41 298.46 349.99 301.11 348.79 294.93 347.3 292.31 347.45 294.52 340.94 297.42 341.47 305.39 340.82 303.23 339.61 299.07 339.35 301.79 337.47 303.23 338.95 307.15 336.68 311.48 337.75 312.07 341.09 314.35 337.48 316.61 336.76 317.68 338.13 320.36 338.4 322.83 340.21 324.53 340.46 325.68 342.31 325.13 345.76 326.91 347.45 327.01 344.12 327.96 342.25 327.51 340 325.13 337.75 327.5 336.74 335.39 339.88 334.67 337.26 332.06 337.58 330.38 336.27 322.3 334.13 320.18 335.09 315.64 334.08 318.21 331.73 317.92 329.13 314.16 330.65 313.15 332.38 311.02 331.97 306.95 332.38 308.05 334.31 303.9 336.5 304.53 334.02 304.15 331.69 300.94 333.75 295.96 334.08 295.84 331.71 301.73 323.93 302.37 320.53 303.26 320.08 307.71 320.44 310.22 321.78 313.23 320.28 311.92 318.94 308.39 318.46 307.13 316.25 305.5 315.18 307.54 312.29 313.47 308.7 315.53 308.17 317.24 309.23 318.55 311.46 316.99 311.94 314.01 309.25 313.36 310.37 314.85 312.82 314.07 315.31 310.28 315.35 309.34 316.63 314.26 316.75 316.15 314.58 319.06 312.6 319.28 315.71 318.08 319.27 320.31 318.26 321.03 315.92 324.97 315.25 326.71 315.62 328.04 317.33 331.15 327.57 332.52 327.36 331.44 322.5 329.29 320.07 330.86 318.12 329.72 316.85 331.81 313.5 337.5 310.29 340.88 309.79 339.98 308.5 333.93 310.18 330.55 313.02 328.82 313.45 321.83 312.36 320.61 311.16 320.8 309.01 322.08 306.89 326.61 308.03 326.04 303.9 324.6 305.96 322.06 304.38 319.62 305.69 319.69 302.84 323.93 299.46 322.06 298.91 322.85 296.83 324.89 297.62 326.21 299.32 330.12 300.54 325.97 295.1 331.78 294.55 333.64 295.65 337.91 300.11 337.58 296.19 333.97 293.52 326.18 290.75 327.23 287.89 326.47 285.92 324.53 286.38 325.35 290.15 319.61 296.85 314.98 300.22 311.28 302.29 308.81 303.01 305.5 301.67 310.04 298.42 307.13 297.28 309.99 295.96 314.22 294.72 313.56 292.92 310.04 292.6 308.66 291.12 306.79 291.29 307.39 288.64 309.93 288.63 312.53 287.49 315.67 287.37 316.05 285.55 309.21 286.87 310.72 284.63 313.72 282.82 319.56 283.58 319.77 287.97 322.88 283.23 324.62 283.13 328.35 281.04 331.82 281.12 331.99 280.01 336.48 278.28 337.58 278.33 339.87 282.23 340.5 279.34 342.53 276.52 343.01 273.73 339.44 271.46 331.95 271.33 331.15 269.3 329.48 269.3 325.35 272.56 323.33 273.57 322.26 271.46 324.1 269.8 324.46 267.96 327.75 264.38 331.36 265.39 333.64 262.07 335.93 263.13 335.2 267.59 338.65 266.97 341.7 263.73 340.1 260.7 342.21 259.38 342.87 254.39 345.1 254.74 345.87 258.14 345.24 261.29 347.1 261.46 346.06 265.33 346.67 268.43 345.23 272.01 348.73 274.44 350.32 277.74 350.4 281.53 351.11 283.77 353.33 285.56 357.17 289.86 357.65 286.38 353.35 284.55 351.65 282.43 352.28 280.31 352.28 276.41 353.05 274.94 356.22 280.89 358.05 279.21 356.21 278.06 354.07 274.87 355.95 274.35 357.95 275.41 359.08 273.11 354.97 272.01 356.27 268.95 358.67 267.05 360.57 269.07 363.97 270.33 364.77 268.69 361.38 267.55 359.08 264.84 357.4 265.08 354.42 267.79 352.69 267.05 353.62 264.25 356.1 263.34 357.49 260.39 360.05 260.01 357.85 257.79 349.15 257.93 350.41 256.1 354.45 255.92 354.23 254.2 349.72 253.48 347.58 252.22 349.16 248.63 352.47 249.48 353.53 251.46 356.01 251.97 359.31 253.72 360.87 255.56 360.95 258.69 366.29 263.19 366.04 260.13 363.4 258.09 361.86 255.02 362.19 253.69 359.75 250.99 356.4 250.19 353.55 247.68 351.94 248.1 350.6 245.89 354.71 244.29 356.73 242.78 364.94 241.46 368.21 243.6 370.23 244.15 369.55 248.17 374 246.45 375.58 244.97 378 244.13 379.69 247 380.92 251.37 384.14 253.69 384.79 256.16 386.84 255.31 385.94 252.79 382.27 249.24 380.89 246.85 380.38 244.12 384.07 241.22 389.13 244.77 390.64 243.81 385.17 240.8 386.1 240.01 390.47 239.58 395.59 240.94 392.65 237.73 388.28 238 390.59 232.16 385.17 233.45 382.02 237.37 375.57 239.1 376.62 237.12 376.32 234.59 373.48 233.01 369.59 237.91 366.28 237.6 364.16 238.75 360.11 238.76 359.08 237.72 357.99 232.86 360.33 230.08 361.5 230.84 Z M 309.9 256.38 307.58 254.48 310.33 250.02 311.95 249.91 312.34 251.93 309.9 256.38 Z M 289.57 248.85 290.83 248.95 291.65 251.5 289.61 254.26 287.88 252.25 287.96 250.44 285.32 250.34 285.56 247.46 288 247.25 289.57 248.85 Z M 284.39 253.13 286.19 251.5 288.35 253.73 286.9 257.66 284.58 259.8 279.82 259.8 278.26 262.85 278.9 264.68 275.06 268.15 272.79 268.7 272.22 265.71 270.23 264.76 270.41 267.82 269.27 270.92 267.14 268.69 268.02 265.79 271.14 261.51 267.83 259.3 268.92 257.44 271.95 256.07 268.45 254.79 272.58 250.55 274.95 252.16 277.25 252.69 279.74 248 281.11 246.72 283.04 247.04 283.79 250.55 282.57 252.57 284.39 253.13 Z M 306.6 234.11 301.8 228.85 303.77 226.48 305.1 227.34 309.74 227.99 313.76 229.17 313.71 230.79 310.49 234.11 306.6 234.11 Z M 224.52 497.53 225.44 499.01 227.29 498.49 228.47 501.04 226.43 500.45 224.93 498.86 224.52 497.53 Z M 229.94 492.97 232.48 493.92 230.13 496.93 227.87 497.86 224.61 495.72 224.46 494.17 226.16 492.99 226.02 489.04 227.37 487.22 228.91 486.5 231.35 490.04 229.94 492.97 Z M 236.78 471.15 238 473.95 235 475.93 233.31 478 229.32 478.88 230.63 481.69 228.7 484.08 225.58 486.41 225.48 485.07 226.84 480.1 225.59 479.65 226.84 476.14 228.82 476.34 229.53 474.13 228 473.35 229.53 471.15 233.07 468.18 229.11 467.68 231.43 459.82 232.96 463.45 234.82 464.74 236.58 468.18 236.78 471.15 Z M 223.3 451.93 221.88 453.73 222.29 456.18 220.93 458.75 218.54 457.45 215.88 457.18 216.65 454.07 217.85 451.68 220.92 450.52 223.3 451.93 Z M 244.23 429.2 247.32 427.19 249.12 427.04 249.05 428.99 245.32 430.84 241.98 433.32 238.03 437.93 237.61 436.55 234.29 437.06 236.16 434.03 237.42 430.44 241.31 427.42 244.23 429.2 Z M 240.49 423.39 239.26 424.52 232.03 427.91 234.63 424.82 237.42 420.75 237.87 418.98 240.49 417.23 238.38 415.93 239.55 413.98 241.13 413.75 241.63 417.35 239.67 418.71 240.9 420.29 242.68 420.61 242.49 422.32 240.49 423.39 Z M 291.82 340.46 290.79 344.37 289.36 346.82 290.05 350.81 288.1 351.23 286.58 348.54 283.34 347.3 285.43 344.12 288.74 344.7 291.01 339.84 291.82 340.46 Z M 255 266.49 258.09 267.55 257.02 269.39 256.7 272.14 257.3 278.24 254.57 279.21 254.76 281.22 253.76 284.14 250.25 286 248.57 284.14 250 280.16 250.33 277.81 252.72 271.47 255.23 268.7 255 266.49 Z M 261.82 263.98 262.28 262.11 265.44 262.62 266.57 264.23 264.82 270.36 261.48 274.6 260.13 272.69 258.37 273.18 258.73 269.62 260.58 266.98 263.58 267.48 261.82 263.98 Z M 313.77 244.77 312.1 245.89 311.83 247.81 306.6 253.43 305.3 253.13 306.4 248.67 304.99 247.4 304.51 251.21 302.54 252.71 303.84 254.2 302.12 256.24 298.6 258.5 296.18 258.69 295.14 259.8 289.55 262.07 290.17 259.8 289.55 258.14 291.83 255.22 291.2 254.2 292.79 252.17 292.72 249.11 294.36 248.41 296.59 249.65 298.55 248.75 296.79 245.28 299.92 241.41 303.29 239.56 307.61 239.71 308.38 242.74 310.14 243.05 310.27 240.28 311.64 238.84 314.05 239.6 315.67 237.91 318.96 237.44 314.79 244.9 313.77 244.77 Z M 356.73 234.35 358.05 236.26 355.18 238 356 240.8 350.93 241.12 348.22 243.22 346.82 242.11 349.16 239.63 347.51 239.12 348.12 236.26 349.76 232.45 354.34 230.63 356.4 232.08 356.73 234.35 Z M 341.17 195.62 340.15 198.35 340.36 202.41 337.66 209.74 335.79 212.34 335.64 214.36 337.4 217.03 337.17 219.31 334.28 224 333.1 230.67 334.15 233.68 334.22 236.32 340.1 229.6 341.97 225.73 344.88 226.15 351.38 223.06 358.94 227.14 358.5 229.77 354.42 228.78 350.67 229.78 348.65 231.66 346.78 230.92 345.57 236.58 344.32 238.05 342.94 242.48 341.06 244.37 338.61 239.93 336.34 239.82 335.7 244.16 334.63 246.57 331.82 249.72 329.69 247 325.11 247.83 323.98 247.47 325.47 243.34 328.04 241.41 330.97 236.73 330.49 235.72 327.02 240.39 325.35 240.24 322.17 244.1 320.15 244.69 320.3 247.19 317.8 249.43 316.35 252.43 313.77 253.89 314.04 248.97 315.81 246.89 317.48 242.48 319.57 239.04 321.85 236.88 321.95 232.38 319.15 231.76 320.97 228.38 325.68 226.69 325.58 225 329.27 222.44 327.57 219.88 327.01 216.5 327.64 212.48 327.62 209.13 330.77 205.54 330.46 202.77 332.61 201.63 331.77 199.86 332.8 196.68 334.19 195.18 337.27 195.85 339.66 194.55 341.17 195.62 Z M 295.55 220.42 294.72 218.2 296.43 215.94 299.92 214.18 296.79 212.48 299.38 208.22 300.32 211.28 303.01 209.63 305.3 211.91 309.03 209.12 310.95 212.13 312.1 210.15 312.33 207.35 310.87 205.01 312.33 203.3 313.49 205.3 315.26 204.4 316.07 200.53 314.6 197.57 313.99 193.64 316.31 191.1 317.91 190.94 318.84 193.03 318.33 195.23 319.58 198.15 322.67 199.86 322.26 203.3 322.88 205.22 325.35 204.44 324.35 208.57 322.16 209.49 322.06 211.91 325.66 214.55 325.77 217.64 323.91 221.05 315.65 227.21 309.93 226.72 309.63 225 307.96 224.22 308.2 222.3 312.21 220.12 314.8 219.91 316.44 217.55 318.74 217.02 318.33 212.48 315.83 213.1 314.35 216.13 312.15 215.93 310.76 218.69 309.59 217.98 306.95 219.29 303.91 218.22 302.19 223.3 300.41 223.17 299.28 224.68 296.15 223.81 295.55 220.42 Z M 329.72 199.29 327.77 201.95 326.4 199.29 326.59 195.23 327.64 190.94 330.96 183.13 333.69 180.34 336.65 179.61 337.66 178.4 339.87 170.9 341.91 169.74 343.21 167.69 347.03 165.29 348.49 167.38 345.79 179.82 344.38 180.82 340.25 186.79 339.36 189.58 336.72 191.56 332.85 193.17 330.87 190.97 330.77 196.13 329.72 199.29 Z M 249.59 407.71 249.7 410.88 248.06 412.94 246.12 412.49 244.73 409.7 247.09 407.01 249.59 407.71 Z M 251.56 394.56 252.34 395.1 251.81 398.42 250.07 398.4 249.64 402.19 247.81 400.53 248.83 398.38 248.2 395.53 251.56 394.56 Z M 322.68 278.83 322.49 280.39 318.68 281.6 312.91 281.14 313.1 276.68 315.33 276.98 316.65 274.92 317.98 277.77 320.74 279.1 322.68 278.83 Z M 341.85 273.75 340.45 275.7 337.5 274.97 335.77 273.46 332.4 275.61 329.56 275.23 328.33 274.21 331.09 272.36 339.72 272.2 341.85 273.75 Z M 318.77 275.49 319.09 273.49 320.71 271.46 322.41 276.27 319.34 277.09 318.77 275.49 Z M 313.65 200.31 312.5 202.51 310.77 202.77 308.93 201.14 309.28 198.87 312.51 198.26 313.65 200.31 Z M 295.89 320.13 294.62 322.87 291.29 324.21 292.9 320.34 294.78 318.92 295.89 320.13 Z" fill-rule="evenodd" id="NO-18" data-name="Nordland"/>
<path d="M 229.24 501.88 232.52 503.82 235.83 502.69 240.05 503.43 242.01 505.39 246.08 505.41 247.44 503.83 250.22 503.29 251.61 501.81 251.89 499.34 254.09 498.06 258.13 493.24 263.14 494.3 270.13 493.69 273.84 494.21 290.41 492.36 293.58 493.67 292.94 495.81 288.77 502.43 280.76 516.93 272.76 531.31 281.74 537.82 285.39 538.85 287.04 541.33 288.43 557.76 288.02 560.28 283.02 570.61 281.72 571.3 260.42 565.69 252.82 567.9 245.96 572.55 243.74 574.96 237.72 585.03 232 595.43 228.29 599.43 229.78 606.31 229.34 609.15 222.92 620.31 224.95 625.95 212.35 626.48 206.81 617.1 191.83 616.28 190.39 615.52 189.45 613.73 189.2 609.74 190.42 608.35 186.23 606.93 185.66 604.9 186.32 603.44 189.24 601.72 188.46 599.44 185.95 601.07 183.46 600.84 185.57 597.6 188.85 595.81 190.09 593.56 193.96 591.2 196.56 592.2 198.5 591.16 200.26 588.07 203.13 586.76 206.33 586.63 206.96 585.56 205.49 582.25 203.66 582.39 200.55 581.08 196.32 582.29 195.86 579.54 198.28 578.2 199.69 575.71 202.01 574.33 206.14 573.12 207.65 571.5 205.82 569.97 200.86 569.47 200.21 567.75 203.37 564.72 202.01 564.56 199.75 567 199.09 570.07 198.24 571.47 191.82 575.54 189.69 578.31 188.05 579.7 184.49 580.9 182.26 583.41 186 582.24 189.93 579.19 190.98 578.96 194.64 581.49 195.18 583.23 192.69 585.56 192.28 587.9 190.23 590.39 187.24 591.13 185.11 593.16 182.16 594.03 181.21 596.57 178.74 597.99 175.3 600.7 172.41 601.87 170.03 601.87 168.72 603.22 167.74 599.45 168.82 596.93 169.98 595.6 177.31 589.93 178.62 585.37 180.29 581.7 182.12 578.98 186.38 575.03 187.6 571.9 187.6 569.1 190.44 564.62 189.29 563.16 187.26 562.05 187.89 558.37 190.2 556.55 191.86 551.63 189.5 550.85 186.59 548.83 184.15 545.58 181.63 543.84 180.43 541.82 181.32 540.71 182.87 542.95 184.85 543.11 185.25 544.38 187.36 546.29 186.8 541.95 185.47 541 183.28 541.49 183.65 539.46 188.02 538.41 189.69 538.99 191.43 535.78 191.64 533.55 190.42 531.9 191.64 529.98 194.51 531.61 195.25 535.56 196.01 535.73 198.32 538.71 197.86 541 201.82 540.78 203.26 542 202.01 546.29 204.35 544.41 203.88 543.43 206.17 539.61 206.86 536.43 208.69 535.94 212.77 532.33 211.81 530.71 210.38 531.95 208.55 532.09 205.09 525.74 205.66 522.16 207.44 521.76 209.65 518.36 216.82 517.22 213.21 514.6 213.4 513.79 216.72 513.52 216.5 512.51 213.59 513.43 214.87 510.62 217.54 509.31 220.64 507.17 222.9 506.81 225.07 504.69 220.48 505.44 215.26 509.6 211.58 511.12 211.73 513 209.48 514.67 207.39 515.31 205.83 518.17 204.38 519.43 200.83 520.71 200.53 519.93 203.83 518.1 205.92 514.94 203.41 515.71 201.46 512.9 208.76 511.62 211.11 509.6 200.36 511.98 205.07 507.37 206.54 507.37 209.86 505.18 211.7 505.8 214.41 504.88 216.39 503.49 217.54 500.54 219.3 498.84 222.5 496.91 224.52 497.53 224.93 498.86 226.43 500.45 228.47 501.04 229.24 501.88 Z M 201.59 533.07 202.37 534.4 205.8 534.43 206.58 536.17 205.53 539.13 202.48 538.06 201.52 536.29 198.39 536.69 196.83 533.29 197.22 532.21 199.74 532.33 198.74 530.5 195.48 531.01 194.24 530.2 194.23 528.05 195.54 526.52 199.87 529.4 201.08 530.74 201.59 533.07 Z M 195.7 508.85 193.12 509.07 189.3 512.4 187.72 511.98 195.63 505.37 197.99 506.3 199.19 508.31 200.97 509.07 199.5 511.39 196.94 513.31 194.34 511.98 195.7 508.85 Z M 188.15 510.57 185.04 512.51 184.81 510.94 186.42 507.25 189.07 506.99 191.84 504.87 195.74 502.98 196.12 504.14 191.89 507.63 189.89 508.37 188.15 510.57 Z M 207 531.05 207.45 533.28 206.02 534.24 203.56 532.69 205.11 528.59 207 531.05 Z M 203.54 526.56 202.38 530.21 200.36 527.42 198.17 527.56 198.55 524.99 202.13 523.7 203.69 525.45 203.54 526.56 Z M 215.95 493.29 216.06 494.52 211.17 498.39 208.61 497.93 208.98 495.74 210.47 493.98 215.95 493.29 Z" fill-rule="evenodd" id="NO-17" data-name="Nord-Trøndelag"/>
<path d="M 189.2 609.74 189.45 613.73 190.39 615.52 191.83 616.28 206.81 617.1 212.35 626.48 224.95 625.95 229.87 639.52 226.3 644.71 226.08 647.15 227.87 657.25 227.8 658.77 226.26 663.8 225.9 666.93 231.59 682.74 228.31 683.47 223.52 681.32 217.8 680.03 214.67 681.14 212.27 679.73 209.29 678.65 207.35 675.12 200.04 668.05 198.92 666.06 198.05 661.69 196.73 660.79 189.82 658.95 187.07 659.74 185.48 661.42 183.09 659.73 180.46 660.23 171.37 658.98 167.48 662.43 165.67 666.97 165.02 671.88 165.91 676.33 165.37 677.26 162.3 678.79 160.73 681.39 158.63 681.67 156.19 686.54 150.58 687.28 146.47 685.14 135.28 680.4 137.58 677.85 138.39 675.39 138.85 671.93 139.77 669.65 139.51 667.87 137.62 667.13 130.77 658.54 130.98 656.68 141.7 652.54 145.11 650.68 146.18 647.1 145.88 643.75 146.78 641.82 150.08 638.27 147.34 636.09 146.65 626.82 145.08 625.78 140.97 625.51 139 627.45 138.75 630.23 133.65 629.29 130.97 630.81 128.27 630.42 127.97 628.86 126.74 627.36 128.01 626.04 128.58 625.57 129.97 615.83 126.09 610.83 131.56 611.59 132.57 608.37 134.14 609.31 136 611.61 137.03 614.46 135.22 618.22 138.33 616.98 140.53 615.33 139.13 614.72 137.61 612.7 138.07 610.51 147.1 607.9 138.89 608.83 137.59 608.32 137.43 605.6 139.92 605.15 141.67 604 142.89 602.32 145.13 604.4 146.44 601.91 148.37 600.15 148.15 599.06 150.9 598.17 153.65 596.28 157.03 602.8 156.88 605.15 159.68 607.61 161.55 610.97 160.58 614.38 157.71 617.63 160.67 616.76 162.11 615.3 164.16 616.05 165.74 617.89 169.12 617.63 170.14 616.61 165.28 615.45 163.98 612.41 165.58 610.23 167.46 609.31 171.82 608.35 173.45 609.81 177.3 609.15 180.17 610.76 183.6 609.31 185.66 610.23 186.84 611.67 187.8 610.1 189.2 609.74 Z M 181.63 543.84 184.15 545.58 186.59 548.83 189.5 550.85 191.86 551.63 190.2 556.55 187.89 558.37 187.26 562.05 189.29 563.16 190.44 564.62 187.6 569.1 187.6 571.9 186.38 575.03 182.12 578.98 180.29 581.7 178.62 585.37 177.31 589.93 169.98 595.6 168.82 596.93 167.74 599.45 168.72 603.22 165.17 605.58 162.69 606.08 160.27 605.09 159.36 600.99 157.71 599.14 157.03 597.46 157.71 596.31 156.67 593.06 160.45 591.45 162.74 590.88 163.64 586.81 159.92 588.6 158.44 590.35 156.08 590.92 154.55 592.36 152.14 592.55 150.26 594.46 149.23 590.73 156.04 587.43 150.1 588.48 149.03 587.43 152.56 584.4 157.65 581.46 156.47 579.95 159.48 578.66 160.84 579.77 161.85 578.54 164.8 577.62 165.63 575.49 162.56 576.81 161.92 575.96 165.38 574.26 164.51 572.87 162.53 574.4 162.48 570.19 163.52 567.65 162.84 566.3 163.16 563.76 166 565.77 168.54 564.96 168.52 563.86 166 563.88 168.34 560.85 168.28 559.15 172.51 556.59 170.56 554.97 172.82 553.94 174.56 552.04 176.71 551.6 176.34 547.72 177.99 546.29 181.08 546.62 179.44 543.86 181.63 543.84 Z M 136.73 601.49 135.77 603.83 128.27 606.96 124.02 607.16 122.34 608.23 119.65 608.85 117.55 610.53 114.13 610.56 110.73 608.35 111.92 605.19 115.49 601.87 121 601.29 118.81 599.14 121.1 598.63 126.15 596.59 128.33 596.57 131.49 595.49 132.19 599.8 134.96 598.89 136.73 601.49 Z M 113.22 594.46 111.81 594.67 110.55 593.52 112.35 592.38 117.99 591.16 124.79 587.43 122.95 587.04 124.6 585.05 126.12 584.83 126.66 586.3 127.28 591.16 124.79 593.33 118.81 594.03 116.55 593.56 113.22 594.46 Z M 137.37 596.06 137.44 597.01 134.85 598.43 133.45 598.14 133.79 595.6 135.79 595.24 137.37 596.06 Z M 160.65 570.06 159.49 572.16 158.33 571.34 158.25 569.32 159.83 568.82 160.65 570.06 Z" fill-rule="evenodd" id="NO-16" data-name="Sør-Trøndelag"/>
<path d="M 156.19 686.54 158.63 681.67 160.73 681.39 162.3 678.79 165.37 677.26 165.91 676.33 165.02 671.88 165.67 666.97 167.48 662.43 171.37 658.98 180.46 660.23 183.09 659.73 185.48 661.42 187.07 659.74 189.82 658.95 196.73 660.79 198.05 661.69 198.92 666.06 200.04 668.05 207.35 675.12 209.29 678.65 212.27 679.73 214.67 681.14 217.8 680.03 223.52 681.32 228.31 683.47 231.59 682.74 232.64 686.52 232.74 689.89 230.38 706.32 228.03 722.61 228.45 723.46 231.95 727.31 233.35 728.46 235.73 731.68 237.72 732.51 239.79 732.65 241.69 733.91 249.64 745.03 249.97 746.38 248.96 752.31 247.9 755.47 245.7 758.82 244.7 764.46 243.76 765.76 240.35 765.11 238.6 765.21 231.63 767.32 230.88 769.43 232.61 774.37 233.72 781.1 234.53 783.52 237.72 789.49 241.1 798.24 241.65 801.89 241.08 805.58 240.02 807.73 238.39 809.82 237.86 811.63 238.9 817.61 238.99 819.79 238.58 822.44 236.64 826.49 231.92 832.07 227.49 835.7 226.25 835.97 221.4 835.48 219.36 836.51 218.37 833.57 218 829.71 218.31 825.84 215.22 822.51 211.77 819.99 210.45 818.09 210.77 814.33 210.55 812.6 208.39 810.38 205.98 807.23 203.64 801.53 202.24 799.68 200.28 798.38 199.45 794.8 197.9 791.63 196.81 790.1 194.39 787.79 187.1 782.68 184.71 780.42 184.22 778.52 185.05 776.44 184.79 775.47 180.9 769.61 178.34 767.99 176.61 765.99 176.28 764.73 177.75 763.94 180.99 760.84 182.07 759.37 186.24 752.09 188.53 750.68 183.51 738.17 183.26 733.37 181.65 723.76 181.12 721.97 179.87 721.31 177.64 722.3 174.82 725.28 173.61 724.84 171.22 722.82 164.5 720.61 164.72 718.12 165.97 714.74 165.33 711.14 162.9 710.72 161.36 711.54 158.46 710.7 157.05 709.5 156.95 703.86 157.73 702.66 159.82 701.37 159.38 699.52 157.45 697.75 152.44 694.06 152.79 691.76 156.19 686.54 Z" id="NO-04" data-name="Hedmark"/>
<path d="M 197.9 791.63 199.45 794.8 200.28 798.38 202.24 799.68 203.64 801.53 205.98 807.23 208.39 810.38 210.55 812.6 210.77 814.33 210.45 818.09 211.77 819.99 215.22 822.51 218.31 825.84 218 829.71 218.37 833.57 219.36 836.51 218.61 837.27 218.41 839.31 219.64 841.29 217.16 841.54 214.55 843.66 213.62 846.82 212.27 847.34 211.48 848.81 208.73 852.04 207.68 851.45 208.08 849.47 207.47 848.4 205.03 846.86 203.68 843.7 201.7 842.4 200.75 843.47 200.66 846.54 199.39 846.86 195.55 846.61 193.48 846.08 192.4 846.45 191.8 848.76 189.94 850.82 187.21 855.42 185.89 858.52 183.52 860.51 182.77 859.26 182.24 856.59 182.57 853.9 181.4 849.82 179.66 846.04 181.31 839.59 182.54 838.21 183.29 839.97 183.83 842.99 184.74 843.03 185.59 838.96 189.21 839.78 190.21 839.19 190.96 837.23 190.97 830.95 190.77 829.98 188.71 827.19 185.89 821.84 183.28 820.3 185.52 819.4 186.15 816.41 187.42 813.36 190.31 808.83 190.51 806.88 188.64 804.15 187.19 803.05 183.64 802.56 183.34 802.06 184.37 797.74 186.79 799.12 188.79 799.76 195.82 797.2 196.38 796.45 196.46 794.02 197.9 791.63 Z" id="NO-02" data-name="Akershus"/>
<path d="M 183.52 860.51 185.89 858.52 187.21 855.42 189.94 850.82 191.8 848.76 192.4 846.45 193.48 846.08 195.55 846.61 199.39 846.86 200.66 846.54 200.75 843.47 201.7 842.4 203.68 843.7 205.03 846.86 207.47 848.4 208.08 849.47 207.68 851.45 208.73 852.04 211.48 848.81 212.27 847.34 213.62 846.82 214.55 843.66 217.16 841.54 219.64 841.29 220.23 843.42 219.88 847.26 217.97 850.02 213.9 852.25 213.33 853.16 213.4 856.02 216.62 867.81 217.31 871.78 217.46 874.37 216.37 877.15 215.55 880.83 215.46 883.65 213.01 893.74 211.42 895.31 209.47 895.8 206.6 895.14 206.63 891.37 206.17 889.16 205.13 886.8 204.13 883.15 202.42 882.3 199.49 882.58 197.98 877.77 197.04 880.71 195.7 881.54 194.15 880.62 192.89 878.93 191.39 878.29 188.42 878.46 187.6 879.43 185.89 875.43 184.89 874.89 186.28 870.63 184.62 869.64 183.1 870.47 182.16 866.96 182.67 865.46 180.74 864.07 180.9 862.5 183.13 863.05 183.52 860.51 Z M 195.07 884.4 195.23 885.63 194.35 887.49 192.69 887.09 192.74 884.56 193.98 883.84 195.07 884.4 Z M 190.24 882.22 189.44 884.82 188.29 884.61 187.78 883.22 190.24 882.22 Z" fill-rule="evenodd" id="NO-01" data-name="Østfold"/>
<path d="M 523.54 186.5 538.48 184.47 541 182.76 542.88 178.39 543.03 172.52 542.1 169.58 539.48 164.13 535.73 157.66 535.31 152.17 535.79 151.4 543.31 148.61 548.19 148.35 548.47 146.36 550.27 142.05 553.36 137.34 551.25 135.77 549.05 136 545.23 133.35 544.16 131.61 541.07 123.39 542.84 119.33 541.44 117.51 542.23 113.75 534.88 110.09 532.35 104.28 532.25 101.87 529.51 93.48 528.56 91.8 526.19 93.48 524.69 93.21 523.1 95.54 520.95 96.59 517.52 93.56 514.54 89.8 510.91 89.43 502.03 85.92 503.14 84.65 508.24 81.89 510.38 83.01 511.1 77.65 514.18 82.6 516.4 83.62 519.04 87.53 519.96 85.72 519.79 81.96 524.77 77.06 529.43 80.57 533.25 79.59 534.41 80.29 534.24 83.17 532.95 85.45 533.98 90.98 533.47 93.83 537.4 92.8 535.02 90.98 536.46 83.62 539.31 82.74 543.41 86.44 545.57 86.03 554.38 87.42 554.49 89.04 551.15 94.65 547.4 96.8 541.86 98.26 538.3 97.96 537.1 100.43 544.73 99.14 546.73 97.4 551.36 96.45 554.73 92.95 555.94 92.8 555.32 98.56 556.35 103.15 558.85 102.02 558.99 105.92 560.18 110.14 563.94 106.41 565.61 107.79 569.49 107.08 570.13 102.81 564.34 102.31 560.68 97.65 563.7 95.95 566.18 95.62 567.52 93.41 564.41 90.98 567.55 89.8 563.85 88.23 563.7 85.86 570.1 84.92 569.58 83.09 564.2 84.18 567.44 81.07 570.84 79.35 571.87 76.9 569.94 76.44 570.87 73.28 573.21 71.38 578.06 65.79 580.76 61.43 583.1 60.31 595.1 62.69 592.57 59 589.04 57.71 588.97 56.73 593.56 51.52 594.46 46.05 596.22 43.81 600.63 44.99 604.15 49.71 607.43 50.18 607.47 46.16 605.56 44.06 605.39 42.13 603.34 40.98 602.01 38.75 594.41 37.12 592.98 35.25 593.71 30.29 597.53 27.68 599.65 30.66 599.59 32.17 602.91 33.94 604.83 25.18 602.91 21.37 603.33 18.84 605.69 17.44 608.96 18.32 611.56 22.01 610.36 23.88 615.32 23.31 614.82 21.87 615.58 17.96 617.68 19.3 617.39 22.05 614.91 26.82 617.24 28.5 619.15 23.76 620.42 22.82 622.78 27.09 623.82 31.49 626.34 32.11 627.63 26.06 626.1 19.76 628.41 18.66 631.97 22.51 630.67 26.66 631.26 27.41 637.09 25.03 639.66 26.41 642.41 25.02 643.72 28.69 640.7 31.3 637.71 36.08 634.78 37.13 635.61 39.69 631.26 45.61 629.27 46.46 626.46 51.44 624.45 52.75 623.01 55.29 618.83 59.07 623.21 58.63 624.45 60.19 623.1 62.37 617.59 62.09 618.72 63.75 623.13 63.11 624.45 65.12 623.21 67.06 623.75 69.7 620.51 70.72 618.23 73.84 621.42 75.63 621.86 78.52 615.17 85.46 614.17 91.86 614.07 96.77 614.67 98.72 616.9 100.14 615.96 95.33 618 94.62 619.22 98.53 620.59 98.67 623.41 96.86 625.15 90.65 627.33 88.49 629.39 83.67 631.4 81.13 631.4 78.14 628.56 76.9 629.1 75.37 635.61 66.52 642.03 55.34 643.79 54.24 646.35 49.71 648.12 41.84 650.1 40.88 650.92 37.7 653.7 34.06 657.29 27.53 664.51 20.09 667.89 22.05 668.11 24.83 666.19 28.35 666.26 31.01 668.46 31.67 666.87 36.31 666.86 39.69 665.33 42.38 656.3 47.73 657.32 48.6 661.06 46.55 664.8 47.37 665.82 48.41 664.16 55.86 662.92 59.56 663.54 63.27 661.48 67.34 661.81 70.13 661.26 73.52 665.6 72 665.04 70.08 665.98 67.8 667.83 68.3 669.56 66.72 670.51 62.97 674.53 62.71 674.62 64.55 677.73 63.32 675.46 58.68 676.4 55.86 675.93 53.65 677.81 51.17 680.11 49.71 679.37 47.02 680.92 44.67 678.63 42.75 680.41 39.27 684.85 39 684.65 36.15 685.57 32.16 690.69 31.49 692.31 29.61 689.61 26.41 688 26.8 681.95 25.09 679.89 22.62 681.35 18.45 686.19 19.01 683.2 15.68 683.83 12.93 690.57 14.76 691.54 18.29 693.57 18.27 693.78 13.77 692.28 12.71 691.99 9.2 693.36 6.34 697.79 5.69 697.27 9.28 699.98 9.85 702.66 11.87 705.29 11.05 707.69 8.78 709.02 11.52 712.17 7.37 714.27 10.2 712.18 14.92 713.43 17.5 716.76 14.98 721.23 15.39 722.88 17.24 722.37 21.01 720.98 25.6 717.36 31.49 713.15 35.13 710.54 35.25 708.25 33.94 701.02 34.63 701.2 36.5 705.99 37.77 706.59 39.06 710.33 39.69 708.57 42.68 704.38 44.16 700.14 48.75 700.19 50.85 711.03 45 714.04 41.49 715.49 42.75 715.08 47.2 713.43 50.71 708.14 56.14 706.22 58.76 703.73 60.11 701.84 62.71 703.18 66.65 704.52 63.89 708.16 61.79 707.95 64.81 710.53 65.97 714.03 60.25 716.51 59.56 712.83 68.27 711.17 73.05 712.17 80.57 713.2 75.06 713.83 68.87 716.08 66.68 717.06 62.62 719.34 61.52 721.5 62.71 723.15 60.19 720.24 59.56 718.39 56.79 720.86 49.71 722 44.98 724.82 44 722.28 41 723.15 38.37 725.81 34.81 728.3 29.33 730.39 27.09 738.32 26.1 739.68 27.51 743.27 28.73 744.48 30.17 745.7 33.94 748.1 34.48 748.08 36.63 745.5 39 747.22 43.41 745.09 44.67 746.52 46.63 748.43 43.23 752.23 42.45 757.72 38.99 760.12 40.56 759.6 46.22 757.1 50.27 761.45 49.03 762.88 46.23 766.61 41.79 769.96 42 773.04 44.67 770.74 48.56 774.07 49.03 776.97 51.53 776.67 53.46 774.79 54.84 771.4 55.88 771.72 58.93 780.57 55.61 784.36 57.34 783.78 59.56 788.9 64.04 789.18 66.41 792.08 67.32 794.76 65.12 798.91 73.17 797.58 75.58 799 79.11 798.24 80.51 794.99 82.4 783.37 83.75 781.56 87.82 778.83 88.49 777.6 90.47 778.4 92.2 776.37 95.44 771.16 97.65 770.81 99.36 757.42 97.35 743.44 95.17 729.15 90.98 727.23 93.95 724.82 95.17 728.52 98.26 734.3 99.29 736.39 100.89 740.76 100.74 742.14 102.92 741.37 105.01 746.96 104.35 748.35 105.4 757.3 108.51 752.16 113.81 756.74 114.51 758.16 113.43 760.01 120.02 758.85 123.14 756.2 125.85 754.4 130.16 757.13 129.03 761.38 128.29 763.82 128.95 766.58 126.19 768.1 126.76 770.25 131.58 772.47 132.49 770.13 127.24 772.5 126.67 773.1 124.76 771.59 122.41 771.78 116.43 775.53 115.81 780.4 122.5 781.38 121.8 787.9 122.65 789.43 125.39 792.19 122.88 792.28 126.34 793.28 128.84 793.5 131.91 794.81 134.54 794.79 142.67 793.92 145.62 792.55 147.07 789.6 147.58 782.24 146.3 781.31 145.63 775.68 139.04 772.41 137.21 771.28 139.19 773.1 140.05 773.7 142.35 773.58 145.91 771.75 148.42 770.52 154.44 766.84 158.5 765.22 160.99 763.79 161.62 759.28 161.71 756.58 164.46 754.84 165.3 749.71 165.58 747.97 166.46 746.69 168.53 745.72 175.04 743.85 182.32 741.81 186.19 738.55 189.11 735.2 189.74 731.75 185.27 731.36 183.02 731.88 176.71 732.51 173.7 743.51 160.02 747 152.5 742.73 142.01 740.55 134.36 720.91 124.64 718.61 123.2 717.9 118.48 712.1 115.86 711.44 115.13 705.81 104.98 704.19 101.12 702.37 99.17 700.11 100.62 696.27 99.79 694.69 100.34 693.2 103.74 689.63 105.54 685.6 112.04 679.21 114.48 676.41 112.66 674.71 112.86 672.09 111.28 669.29 112.14 667.33 111.55 661.1 113.02 659.15 116.89 658.63 120.28 655.55 123.84 651.97 130.77 646.95 132.41 644.83 136.24 646.14 139.86 646.1 141.91 644.78 145.24 642.56 147.64 643.16 149.28 642.56 153.29 641.19 156.51 642.28 160.54 639.54 165.51 638.05 173.57 637.95 175.85 638.98 180.03 638.44 187.04 639.97 190.93 637.72 196.88 635.46 201.83 633.97 202.78 630.31 201.47 627.47 202.58 621.86 207.75 620.3 211.76 620.14 219.8 619.33 222.31 614.32 225.01 612.92 228.99 611.58 228.46 610.63 225.92 608.36 222.29 605.61 219.96 595.62 216.42 591.22 213.43 589.54 210.8 583.43 207.46 581.13 207.42 579.15 208.83 577.57 215.86 574.75 217.56 569.92 218.33 561.34 223.94 558.33 219.62 555.96 218.24 550.89 219.16 543.19 215.09 541.57 214.97 538.12 216.3 537.15 214.49 536.39 206.92 533.54 204.01 531.22 199.74 530.03 195.73 525.87 191.03 523.54 186.5 Z M 553.03 78.74 555.03 79.79 555.42 83.7 547.27 83.01 538.62 79.92 536.46 76.29 539.82 71.58 541.17 73.4 545.98 70.71 546.21 74.4 548.75 71.42 550.18 76.13 554.06 76.9 553.03 78.74 Z M 575.19 60.86 575.38 63.89 573.27 68.81 567.71 74.4 565.01 75.38 566.9 77.51 561.91 80.7 558.54 80.65 558.01 76.62 553.85 73.84 551.49 69.97 553.57 69.55 552.27 65.59 555.32 63.27 555.94 61.43 559.13 59.3 560.62 60.91 562.12 59 564.76 59.46 564.67 56.59 567.09 57.1 570.01 49.85 572.28 51.52 573.54 54 573.24 59.67 575.19 60.86 Z M 587.6 46.55 589.46 50.27 588.64 53.12 585.95 55.02 583.43 59.05 581.59 60.04 578.06 59 576.43 54.67 575.19 47.73 576.22 45.92 574.71 42.78 576.8 38.54 580.01 38.3 581.58 42.13 584.49 42.13 586.57 44 587.6 46.55 Z M 537.92 60.19 534.5 60.85 530.81 63.59 529.43 62.71 532.33 54 535.24 50.89 528.19 51.52 526.51 46.65 531.07 49.2 532.52 48.41 533.2 45.27 537.71 49.71 536.46 43.15 538.72 44.58 541.51 41.39 544.85 44.11 545.42 46.83 547.42 48.72 548.54 47.52 549.11 43.57 547.01 38.55 550.88 39.15 552.2 43.43 554.68 44.67 556.36 42.86 556.14 40.88 558.44 39.69 559.25 37.7 556.97 36.22 558.11 33.87 560.88 34.29 563.58 35.93 565.31 35.73 564.83 28.16 566.19 27.94 568.51 31.18 569.28 34.67 567.52 39 565.25 39.15 565.03 42.13 560.88 44 559.44 45.92 560.5 47.65 559.01 49.91 558.06 53.34 555.52 52.44 555.31 54.56 552.77 57.2 544.62 55.35 543.59 59 542.27 60.86 539.95 58.27 537.92 60.19 Z M 587.78 18.84 591.93 18.43 591.94 20.38 587.98 23.28 585.75 22.52 582.41 15.17 584.37 12.72 588.22 13.14 588.88 15.18 587.78 18.84 Z M 650.09 11.87 652.57 12.45 651.42 15.13 648.17 17.68 645.03 17.44 642.97 18.96 637.48 19.47 633.91 21.66 631.89 21.69 630.64 19.16 628.35 16.94 632.03 15.06 629.5 12.59 625.61 14.69 624.64 11.18 627.84 7.37 630.03 5.84 633.66 8.12 636.42 6.71 632.49 2.28 640.16 1 639.46 4.94 642.35 6.38 646.88 4.54 647 7.27 643.95 10.23 644.91 11.87 644.66 15.19 647.6 14.98 650.09 11.87 Z M 767.43 120.57 769.44 121.9 766.07 123.37 763.92 125.4 762.14 125.17 760.62 127.24 758.13 126.59 758.8 124.25 761.66 120.02 761.23 115.42 763.08 113.38 766.62 115.18 767.43 120.57 Z M 517.26 72.14 518.91 73.95 518.94 77.06 517.05 82.3 515.41 80.52 515.65 73.43 517.26 72.14 Z M 610.85 6.56 609.03 9.88 608.83 12.95 607.38 12.91 604.13 10.12 604.27 8.94 608.07 5.26 610.85 6.56 Z" fill-rule="evenodd" id="NO-20" data-name="Finnmark"/>
<path d="M 183.28 820.3 185.89 821.84 188.71 827.19 190.77 829.98 190.97 830.95 190.96 837.23 190.21 839.19 189.21 839.78 185.59 838.96 185.09 835.9 183.54 834.9 182.87 836.27 181.51 835.83 180.69 836.68 178.73 836.67 177.1 838.61 177.81 839.59 177.44 841.43 174.79 841.12 173.31 839.31 173.34 836.76 174.19 833.28 174.06 831.06 176.01 827.55 178.85 826.15 180 824.51 181.58 820.21 183.28 820.3 Z" id="NO-03" data-name="Oslo"/>
<path d="M 181.58 820.21 180 824.51 178.85 826.15 176.01 827.55 174.06 831.06 174.19 833.28 173.34 836.76 173.31 839.31 174.79 841.12 177.44 841.43 177.58 845.74 178.41 848.26 180.34 849.88 181.31 853.12 180.66 855.35 179.13 857.42 177.35 858.68 175.54 857.52 175.71 853.71 174.91 848.63 173.95 847.21 171.7 845.69 169.96 845.29 169.52 846.18 171.29 847.86 166.62 848.16 164.9 849.69 163.74 848.53 160.61 851.89 160.99 853.62 163.52 856.6 164.73 859.55 163.3 859.98 156.25 860.02 156.18 863.57 153.15 863.12 151.71 862.14 149.85 859.24 147.43 858.66 146.95 857.74 147.78 856.16 146.97 855.07 146.01 850.57 144.78 847.37 143.34 845.99 143.1 843.25 143.41 841.15 141.81 839.98 138.68 838.61 138.61 834.68 137.98 833.1 136.08 831.01 133.16 829.57 132.46 828.55 131.31 823.25 130.12 821.48 126.7 819.3 114.69 818.72 110.68 817.71 107.52 817.62 97 821.85 93.58 820.64 90.99 820.76 86.27 822.7 88.88 818.11 90.64 812.96 92 810.29 92.35 808.48 92.15 804.49 92.64 798.48 92.33 796.25 89.93 789.3 86.57 786.72 89.8 783.32 92.66 781.94 94.41 776.97 95.49 775.38 98.53 772.6 101.88 773.07 103.45 772.45 106.02 769.14 108.19 766.83 108.32 763.75 110.79 760.93 114.02 764.53 116.19 765.84 119.54 767.21 120.83 768.24 121.43 770.49 124.73 772.53 129.31 773.66 131.67 775.69 139.03 780.52 141.02 781.33 142.39 783.59 142.19 785.96 144.86 791.22 144.93 793.96 146.93 794.95 150.86 795.4 152.4 798.26 155.17 799.59 157.65 800.08 156.89 796.31 156.94 794.3 158.01 792.96 160.49 792.23 161.12 791.43 161.02 789.42 164.06 789.61 165.12 791.04 167.82 797.18 169.27 804.37 169.91 806.6 172.76 812.6 174.77 815.26 179.53 818.46 181.58 820.21 Z" id="NO-06" data-name="Buskerud"/>
<path d="M 156.18 863.57 156.25 860.02 163.3 859.98 164.73 859.55 163.52 856.6 160.99 853.62 160.61 851.89 163.74 848.53 164.9 849.69 166.62 848.16 171.29 847.86 173.62 849.24 174.55 851.3 174.53 856.07 173.74 858 170.88 856.02 170.23 856.97 171.53 858.91 172.75 859.83 173.9 862.2 176.61 863.05 177.17 863.72 177 865.84 176.17 868.5 178.27 871.23 177.45 872.34 176.93 874.48 173.97 872.95 173.68 876.15 172.85 876.43 172.16 880.85 171.26 883.21 169.72 882.35 169.12 885.15 169.62 887.36 168.03 888.75 167.24 886.03 164.54 888 163.19 890.63 161.46 891.6 158.1 891.66 157.52 887.98 158.11 886.87 158.37 882.71 157.69 879.13 159.24 877.05 158.6 873.58 158.77 872.5 156.32 869.23 155.8 867.33 156.18 863.57 Z" id="NO-07" data-name="Vestfold"/>
<path d="M 86.27 822.7 90.99 820.76 93.58 820.64 97 821.85 107.52 817.62 110.68 817.71 114.69 818.72 126.7 819.3 130.12 821.48 131.31 823.25 132.46 828.55 133.16 829.57 136.08 831.01 137.98 833.1 138.61 834.68 138.68 838.61 141.81 839.98 143.41 841.15 143.1 843.25 143.34 845.99 144.78 847.37 146.01 850.57 146.97 855.07 147.78 856.16 146.95 857.74 147.43 858.66 149.85 859.24 151.71 862.14 153.15 863.12 156.18 863.57 155.8 867.33 156.32 869.23 158.77 872.5 158.6 873.58 159.24 877.05 157.69 879.13 158.37 882.71 158.11 886.87 157.52 887.98 156.15 886.06 154.41 885.56 153.17 886.36 152.14 884.76 151.88 882.16 148.82 881.98 151.31 884.64 152.3 886.87 154.49 888.17 152.57 891.47 150.49 892.4 149.94 893.66 145.47 895.31 144.15 896.82 141.43 896.76 140.72 898.81 142.3 899.08 144.72 898.18 146.14 898.81 144.26 900.55 144.22 901.63 138.78 899.72 138.64 896.77 137.29 894.56 133.48 890.7 132.28 888.48 127.92 888.86 126.83 891.25 127.48 893.49 126.65 895.24 126.69 896.59 125.31 897.42 123.01 895.56 121.22 893.48 119.84 892.49 117.23 893.85 116.05 893.71 114.27 891.59 112.38 891.67 110.42 890.86 107.43 889.02 105.11 890.54 103.36 890.08 101.38 888.88 97.58 881.91 95.8 880.4 95.18 878.99 95.24 876.62 95.97 875.35 95.68 873.75 94.06 870.27 92.09 867.97 90.56 867.09 89.55 864.93 88.06 863.85 90.18 861.97 90.67 859.18 88.16 856.59 87.77 854.2 88.62 852.72 87.23 852.06 86.09 849.67 84.18 848.94 83.16 850.08 79.5 848.14 76.49 846.71 75.55 845.48 74.92 841.97 76.97 838.92 76.92 835.41 78.84 831.62 80.05 830.22 83.94 827.94 85.02 826.2 86.27 822.7 Z" id="NO-08" data-name="Telemark"/>
<path d="M 79.5 848.14 83.16 850.08 84.18 848.94 86.09 849.67 87.23 852.06 88.62 852.72 87.77 854.2 88.16 856.59 90.67 859.18 90.18 861.97 88.06 863.85 89.55 864.93 90.56 867.09 92.09 867.97 94.06 870.27 95.68 873.75 95.97 875.35 95.24 876.62 95.18 878.99 95.8 880.4 97.58 881.91 101.38 888.88 103.36 890.08 105.11 890.54 107.43 889.02 110.42 890.86 112.38 891.67 114.27 891.59 116.05 893.71 117.23 893.85 119.84 892.49 121.22 893.48 123.01 895.56 125.31 897.42 126.69 896.59 126.65 895.24 127.48 893.49 126.83 891.25 127.92 888.86 132.28 888.48 133.48 890.7 137.29 894.56 138.64 896.77 138.78 899.72 144.22 901.63 142.82 903.59 140.07 904.61 134.96 903.99 134.44 905.18 136.88 906 139.02 905.31 138.6 908.17 137.14 909.86 133.56 912.67 132.27 912.35 131 913.55 130.85 916.65 127.21 920.88 125.11 922.33 123.7 925.14 121.72 926 117.85 930.06 117.48 932.13 115.13 931.39 114.61 932.88 113.02 932.85 110.55 935.63 109.12 937.88 107.94 935.26 109.16 933.42 108.7 930.33 105.74 929.49 105.12 926.43 103.41 925.78 101.99 927.22 100.75 924.99 99.38 923.47 96.71 922.14 96.46 920.52 95.24 919.26 93.68 919.03 92.79 919.96 90.75 919.92 89.67 919.29 88.63 915.5 90.1 913.84 90.78 911.92 89.85 909.82 89.98 906.7 91.97 905.31 92.63 901.45 90.31 896.53 88.47 895.69 84.9 895.7 82.64 896.66 78.13 897.52 76.9 898.65 74.3 897.99 74.55 895.98 76.73 892.96 77.17 891.32 75.71 887.93 77.01 886.65 76.55 884.3 77.27 878.46 72.82 876.96 70.4 876.8 67.81 877.15 67.01 876.63 66.55 870.65 67.69 867.11 68.12 864.33 69.19 862.21 71.02 861.35 72.58 859.61 71.68 857.81 71.66 853.84 71.95 852.98 73.8 851.66 75.82 849.07 78.16 848.8 79.5 848.14 Z" id="NO-09" data-name="Aust-Agder"/>
<path d="M 70.4 876.8 72.82 876.96 77.27 878.46 76.55 884.3 77.01 886.65 75.71 887.93 77.17 891.32 76.73 892.96 74.55 895.98 74.3 897.99 76.9 898.65 78.13 897.52 82.64 896.66 84.9 895.7 88.47 895.69 90.31 896.53 92.63 901.45 91.97 905.31 89.98 906.7 89.85 909.82 90.78 911.92 90.1 913.84 88.63 915.5 89.67 919.29 90.75 919.92 92.79 919.96 93.68 919.03 95.24 919.26 96.46 920.52 96.71 922.14 99.38 923.47 100.75 924.99 101.99 927.22 103.41 925.78 105.12 926.43 105.74 929.49 108.7 930.33 109.16 933.42 107.94 935.26 109.12 937.88 108.44 939.82 107.11 938.59 106.05 941.02 103.76 940.17 103.08 938.79 104.75 937.58 103.17 936.38 102.56 938.59 100.35 940.59 99.79 942.17 94.95 942.85 93.16 943.5 91.88 943.15 90.7 945.58 89.62 945.84 83.93 945.84 80.22 944.79 79.68 943.5 77.89 944.44 76.83 943.97 74.64 944.74 74.43 946.47 72.05 947 72.12 945.09 74.79 942.81 75.9 943.22 76.59 941.13 74.09 942.38 73.19 943.28 70.89 944.27 69.48 942.56 67.07 942.03 66.22 941.13 68.23 940.04 68.32 939.14 66.14 936.6 66.48 939.52 64.03 940 63.75 941.13 65.59 942.86 60.61 942.94 58.3 940.7 59.96 936.76 61.66 936.68 62.32 935.01 61.07 931.12 61.27 930.03 63.34 928.93 62.69 928.1 60.66 928.58 60.85 932.85 58.92 932.94 57.01 931.81 53.94 931.23 55.19 930.08 58.53 928.68 60 927.46 60.88 925.84 60.93 923.84 59.88 917.98 59.99 915.33 59.6 911.7 58.26 910.77 56.66 910.95 55.69 908.48 58.67 907.3 60.11 905.3 58.95 903.06 57.54 901.58 59.38 896.98 59.51 895.3 58.86 893.58 59.25 892.54 64.86 885.98 66.14 883.6 68.06 881.78 68.57 879.12 70.4 876.8 Z" id="NO-10" data-name="Vest-Agder"/>
<path d="M 74.92 841.97 75.55 845.48 76.49 846.71 79.5 848.14 78.16 848.8 75.82 849.07 73.8 851.66 71.95 852.98 71.66 853.84 71.68 857.81 72.58 859.61 71.02 861.35 69.19 862.21 68.12 864.33 67.69 867.11 66.55 870.65 67.01 876.63 67.81 877.15 70.4 876.8 68.57 879.12 68.06 881.78 66.14 883.6 64.86 885.98 59.25 892.54 58.86 893.58 59.51 895.3 59.38 896.98 57.54 901.58 58.95 903.06 60.11 905.3 58.67 907.3 55.69 908.48 56.66 910.95 58.26 910.77 59.6 911.7 59.99 915.33 59.88 917.98 60.93 923.84 60.88 925.84 60 927.46 58.53 928.68 55.19 930.08 53.94 931.23 48.08 927.63 46.17 927.4 43.46 925.11 41.98 924.49 41.27 923.09 40.86 919.99 39.77 919.1 37.02 919.23 35.79 918.78 35.24 916.95 33 916.95 31.25 915.34 31.43 914.53 28.99 910.73 27.04 904.83 26.17 903.38 27.64 901.67 28.03 899.85 27.75 896.74 28.97 894.91 30.64 893.41 27.53 889.56 28.36 886.8 33.34 890.4 32.9 893.79 34.51 892.93 36.44 892.8 36.42 891.41 38.38 891.44 39.94 892.8 41.03 894.7 44.73 897.99 43.67 894.79 45.75 891.28 47.82 890 60.85 885.96 60.85 885.56 52.57 887.12 50.95 888.17 46.78 889.16 45.76 890.01 42.96 894.61 41.41 891.89 41.45 889.99 42.9 889.47 42.54 887.89 39.94 888 38.67 886.4 38.09 883.95 39.61 882.4 42.59 881.65 42.2 880.29 44.31 876.32 47.11 873.68 49.55 872.74 51.72 870.51 51.41 870.04 48.05 872.76 46.59 873.3 45.33 872.9 44.5 871 49.07 870.63 47.99 868.79 47.13 870.14 44.73 870.23 43.57 869.35 41.8 869.38 42.85 866.96 44.31 865.34 46.58 863.85 47.63 863.72 49.26 858.91 54.84 856.5 52.08 856.35 50.15 857.86 49.07 858 46.85 861.41 44.29 864.33 41.8 866.59 39.64 868.1 38.5 865.34 38.5 862.69 39.64 862.74 46.56 860.88 45.97 860.13 44.16 860.2 42.68 861.07 38.97 860.78 36.93 858.61 36 859.85 35.82 861.73 34.33 862.76 37.48 866.37 37.69 868.39 34.46 869.25 30.58 871.86 30.14 871.07 31.25 869.38 30.07 866.05 29.18 866.9 28.88 870.43 27.72 872.24 26.09 872.65 24.53 869.6 25.04 867.27 23.94 866.72 23.95 871.15 22.99 870.97 22.3 867.47 20.71 868.76 18.71 864.04 17.82 863.72 17.47 860.72 21.18 859.48 22.09 858.79 24.05 858.57 27 857.55 27.7 856.09 29.71 855.84 31.58 854.88 34.01 854.31 37.07 854.38 40.25 852.58 47.09 852.64 47.43 850.3 49.34 846.39 50.86 842.38 54.26 840.4 56.52 838.61 57.9 838.1 60.82 838.09 62.13 838.87 62.66 841.79 61.69 845.86 63.16 846.85 65.41 845.88 71.4 842.07 74.92 841.97 Z M 20.09 871.44 21.22 872.96 21.32 875.6 20.7 879.14 18.86 880.77 17.42 879.82 16.75 877.56 17.25 870.22 17 868.48 18.03 864.53 19.4 868.56 20.38 870.19 20.09 871.44 Z M 34.81 882.14 35.13 884.33 34.41 884.82 29.1 881.78 30.09 881.16 32.81 882 34.81 882.14 Z M 25.69 876.66 25.36 879.45 23.69 878.01 23.16 875.73 24.23 874.9 25.69 876.66 Z M 42.43 871.86 44.95 872.78 43.63 874.9 40.67 875.66 39.81 874.74 40.5 872.35 42.43 871.86 Z" fill-rule="evenodd" id="NO-11" data-name="Rogaland"/>
<path d="M 24.05 858.57 22.09 858.79 21.18 859.48 17.47 860.72 17.24 858.87 17.82 856.78 18.91 855.99 20.5 853.53 20.91 851.9 22.13 850.74 23.39 850.64 24.93 847.12 26.9 847 26.97 849.29 26.24 852.31 26.39 855.38 24.53 856.78 24.05 858.57 Z M 86.57 786.72 89.93 789.3 92.33 796.25 92.64 798.48 92.15 804.49 92.35 808.48 92 810.29 90.64 812.96 88.88 818.11 86.27 822.7 85.02 826.2 83.94 827.94 80.05 830.22 78.84 831.62 76.92 835.41 76.97 838.92 74.92 841.97 71.4 842.07 65.41 845.88 63.16 846.85 61.69 845.86 62.66 841.79 62.13 838.87 60.82 838.09 57.9 838.1 56.52 838.61 54.26 840.4 50.86 842.38 49.34 846.39 47.43 850.3 47.09 852.64 40.25 852.58 37.07 854.38 34.01 854.31 31.58 854.88 29.71 855.84 27.7 856.09 28.04 853.68 27.55 852.51 28.77 849 32.71 849.41 33.81 850.74 33.34 853.12 34.79 852.71 35.56 850.21 38.29 850.27 38.29 849 35.55 849.99 34.27 849.07 36.32 845.87 39.94 844.92 41.51 845.47 43.08 844.9 47.92 841.05 45.62 841.33 43.05 843.73 40.84 844.02 39.94 842.87 36.85 843.28 34.67 840.62 33.33 839.71 32.77 837.88 34.17 836.68 34.09 835.01 35.05 833.76 37.69 832.53 40.88 832.2 41.41 830.72 40.36 829.73 42.24 826.11 44.89 824.02 49.98 821.86 49.41 819.81 47.99 821.99 45.11 823.08 45.19 821.46 44.2 817.56 46.23 816.53 48.25 812.8 48.02 811.4 50.31 810.56 52 808.79 52.56 807.23 55.27 805.96 57.12 803.4 59.28 803.33 61.27 804.27 59.2 809.51 59.4 810.98 57.96 813.68 57.69 818.32 58.49 818.51 59.4 815.97 59.2 813.06 59.94 811.7 60.97 807.88 61.69 806.36 63.12 805.32 64.53 802.45 66.17 800.83 70.39 799.63 73.12 800.52 74.52 800.42 75.34 798.8 69.13 798.8 71.01 796.74 72.66 793.77 71.77 793.66 69.52 795.91 67.79 798.96 65.26 800.06 62.31 803.02 60.96 803.38 59.81 802.6 60.12 801.29 62.28 799.13 61.5 798.36 58.9 801.43 53.13 803.78 50.91 805.98 47.74 806.29 47.63 808.03 46.17 810.98 46.79 812.22 46.16 814.16 45.11 814.72 43.05 813.23 41.83 813.52 40.99 816.42 39.12 819.73 37.72 819.71 37.49 821.28 38.09 824.28 38.11 826.5 37.58 828.14 34.56 830.14 33.06 829.04 32.31 827.18 32.86 825.55 35.16 825.62 35.82 823.87 33.51 824.51 32.88 823.29 33.75 821.57 33.04 819.88 33.62 818.28 32.3 818.04 31.38 820.13 29.64 821.19 28.15 819.73 29.86 817.1 31.01 813.57 29.85 813.24 31.88 808.03 30.85 807.23 29.82 809.34 27.64 816.42 24.63 819.73 24.11 821.63 22.36 820.15 22.98 819.28 20.91 818.04 21.42 816.14 20.08 813.52 16.89 812.68 16.61 811.69 17.73 809.04 16.18 808.72 16.16 807.23 17.1 805.98 19.75 806.07 20.28 805.22 19.29 803.4 19.68 802.18 18.93 799.82 20.97 797.43 23.73 800.29 25.28 802.45 27.67 804.02 30.39 804.23 31.35 802.36 33.12 800.93 33.09 795.31 33.57 788.86 34.04 786.54 31.78 786.62 32.73 783.63 29.6 787 27.53 787.67 27.64 791.25 25.11 792.12 22.98 794.23 20.79 795.43 18.46 794.61 14.68 790 16.62 788.71 12.73 784.29 10.27 780.14 12.05 780.57 13.43 781.98 15.03 782.31 17.07 784.29 20.92 786.12 21.58 789.61 24.13 787.56 22.45 784.1 20.31 783.91 18.85 782.16 20.32 780.71 22.36 779.87 22.5 777.41 24.74 776.39 26.28 776.87 25.98 774.02 23.8 775.6 21.6 776.46 20.59 779.28 18.97 779.62 14.9 778.38 16.67 773 19.85 771.04 22.6 772.21 24.59 772.16 26.95 771.35 30.76 768.84 33.03 769.7 35.76 768.78 37.83 769.8 41.99 766.3 43.4 766.48 45.62 769 45.82 771.1 50.09 773.38 56.76 770.78 57.16 772.73 59.45 772.73 61.67 770.03 64.03 770.87 64.39 771.91 66.41 771.84 66.6 772.88 63.63 775.64 64.61 776.99 67.58 777.61 68.2 778.24 68.14 780.8 71.15 781.39 71.65 783.84 86.57 786.72 Z M 21.01 844.1 22.15 847 21.1 847.41 18.54 844.3 17.6 844.92 17.6 846.78 16.38 849.41 17.41 850.27 17.82 852.71 16.42 854.08 15.1 850.45 15.7 846.89 17.41 844.1 14.03 843.64 14.03 841.94 15.93 839.17 14.9 837.5 16.38 837.13 16.81 838.61 19.58 841.46 21.01 844.1 Z M 26.5 837.95 26.77 841.41 24.47 844.08 23.15 842.04 22.37 842.96 21.11 841.92 20.33 838.72 19.47 837.13 19.29 835.04 20.72 832.53 20.91 830.92 23.46 832.13 24.44 833.29 26.5 837.95 Z M 30.43 825.11 31.68 825.56 31.45 829.52 30.01 831.86 31.06 834.67 28.99 834.22 27.68 835.5 26.5 834.67 26.28 832.36 24.8 832.45 23.48 831.61 23.06 829.43 25.3 829.27 25.01 827.62 27.22 825.94 30.43 825.11 Z M 15.1 817.44 13.46 817.85 12.81 815.16 11.52 815.93 10.16 813.89 9.96 811.92 12.34 810.91 10.85 809.38 10.88 806.26 10.06 803.43 11.19 803.04 11.8 805.28 13.86 808.48 14.68 811.49 13.5 812.89 14.71 814.34 15.1 817.44 Z M 11.06 797.67 12.53 797.76 16.27 799.08 17.6 800.93 17.54 804.13 15.51 805.13 15.74 802.6 13.68 801.31 13.35 799.03 11.91 799.26 11.06 797.67 Z M 32.5 788.31 32.5 792.3 32.09 796.29 32.31 800.28 30.59 801.19 30.12 802.6 27.71 803.14 26.41 802.57 23.6 798.42 21.52 796.29 24.08 795.6 24.85 794.38 28.94 791.48 30.11 787.58 32.5 788.31 Z M 20.48 825.09 20.7 827.91 19.85 829.89 17.9 828.61 16.98 826.79 17.99 824.77 18.3 822.41 20.48 825.09 Z M 7.08 791.29 7.02 793.65 5.17 793.47 5.27 790.04 6.31 789.55 7.08 791.29 Z" fill-rule="evenodd" id="NO-12" data-name="Hordaland"/>
<path d="M 108.32 763.75 108.19 766.83 106.02 769.14 103.45 772.45 101.88 773.07 98.53 772.6 95.49 775.38 94.41 776.97 92.66 781.94 89.8 783.32 86.57 786.72 71.65 783.84 71.15 781.39 68.14 780.8 68.2 778.24 67.58 777.61 64.61 776.99 63.63 775.64 66.6 772.88 66.41 771.84 64.39 771.91 64.03 770.87 61.67 770.03 59.45 772.73 57.16 772.73 56.76 770.78 50.09 773.38 45.82 771.1 45.62 769 43.4 766.48 41.99 766.3 37.83 769.8 35.76 768.78 33.03 769.7 30.76 768.84 26.95 771.35 24.59 772.16 22.6 772.21 19.85 771.04 16.67 773 14.9 778.38 13.15 777.93 12.01 772.83 11.19 771.33 12.09 770.45 11.85 767.27 12.22 765.37 13.8 763.68 15.81 763.49 17.84 764.23 20.23 765.87 23.08 766.61 24.83 766.61 25.63 765.15 27.65 763.57 30.09 764.35 29.91 762.78 32.09 762.78 33.96 761.41 35.61 761.73 38.69 760.67 42.85 761.11 44.91 760.64 49.73 762.42 50.23 765.28 51.36 764 53.12 764.76 52.16 767.5 53.2 767.5 53.52 765.4 55.98 762.62 57.69 762.25 59.04 760.85 59.87 757.87 61.52 758.44 65.7 758.89 67.79 760.28 67.96 762.25 70.29 762.57 71.08 763.27 72.34 767.06 71.26 769.41 75.17 770.79 72.55 765.05 72.15 762.48 73.94 761.6 77.16 761.41 78.46 759.61 81.33 760.14 83.28 761.74 83.98 761.02 82.59 759.36 85.86 756.23 90.44 755.88 90.27 755 85.7 755.94 83.87 755.89 82.59 754.43 82.27 751.11 81.61 748.97 82.88 747.85 83.63 744.57 84.86 743.46 86.89 739.39 82.59 743.89 80.75 743.55 81.35 746.47 79.38 749.67 81.14 751.98 81.5 754.67 83 756.33 81.78 757.82 80.61 758.05 79.07 756.8 77.01 757.66 76.28 759.18 72.43 760.22 70.72 761.31 69.64 759.76 70.37 758.76 66.4 756.93 62.01 756.08 58.78 754.24 60.75 751.43 61.88 748.19 62.93 746.69 63.55 743.79 63 743.25 61.17 748.9 60.16 750.84 58.99 751.66 57.02 751.86 57.83 755 56.98 756.26 57.22 759.1 55.05 761.11 53.18 761.15 50.47 760.44 48.09 758.99 47.2 756.8 45.86 758.32 44.15 759.03 42.36 758.94 40.15 757.66 38.14 758.39 32.94 758.56 32.15 759.39 28.56 759.75 26.09 762.39 24.53 763.3 23.11 763.25 21.83 762.23 20.73 760.22 19.58 761.42 17.59 761.7 15.51 759.22 13.06 758.08 13.52 756.53 15.3 756.66 18.46 758.08 17.69 755.1 15.95 754.24 12.36 754.74 10.65 751.66 12.22 750.3 14.61 749.05 16.54 748.8 17.1 747.02 28.48 744.57 16.69 745.97 14.55 747.69 12.84 747.72 11.92 746.51 11.69 744.66 12.59 743.11 10.16 742.17 13.46 740.41 16.67 740 18.32 738.92 21.12 740.09 21.93 739.11 26.35 741.2 26.59 739.8 24.96 739.39 23.75 737.72 20.5 738.18 19.38 737.19 15.93 735.36 16.46 733.44 17.82 733.92 21.74 733.01 16.93 731.47 21.93 730.86 20.3 727.86 18.66 728.73 11.51 728.62 10.04 726.28 10.96 721.74 13.36 720.98 15.54 723.04 16.79 722.57 15.54 720.87 13.68 720.39 15.71 718.17 19.11 716.71 20.66 715.2 20.7 713.45 22.68 711.07 26.46 710.92 28.05 711.62 29.86 711.48 32.14 712.26 34.17 714.72 31.08 715.57 31.28 716.84 33.95 715.56 39.6 714.6 42.24 715.82 44.91 719.17 46.09 718.51 43.67 715.56 50.71 715.56 53.52 717.34 56.24 717.52 57.68 716.91 58.56 714.72 59.74 713.29 61.27 712.93 64.47 714.25 65.22 713.32 61.78 712.1 58.71 712.81 57.34 715.56 56.32 716.2 49.74 714.22 44.82 714.72 43.05 713.37 40.77 713.37 38.06 712.63 35.78 714.15 33.76 711.62 39.92 711.23 40.77 710.35 31.22 709.83 27.33 708.97 25.33 709.8 24.63 708.99 20.09 710.79 17.58 710.63 16.44 711.67 14.71 710.35 15.97 707.06 18.94 707.53 20.46 705.47 21.1 703.29 23.11 703.97 20.73 700.61 18.03 698.41 15.03 697.97 15.54 696.65 13.86 694.44 14.64 692.52 16.16 692.68 17.22 691.27 20.09 694.64 19.89 696.25 21.33 698.14 23.54 699.31 25.37 701.03 25.67 704.57 29.06 707.36 33.72 705.8 35.98 706.39 39.74 704.98 44.15 706.67 45.73 706.57 46.41 704.96 48.36 704.55 50.11 706.15 52.81 706.27 54.72 703.88 62.17 699.97 63.25 701.33 65 705.55 66.25 706.73 73.15 705.02 76.29 702.71 82.04 701.8 83.29 702.52 84.37 704.76 84.02 712.82 86.24 718.77 87.85 720.74 94.97 720.33 97.45 720.86 99.04 721.91 99.66 723.46 100.37 728.72 102.5 732.45 108.5 735.39 111.66 740.06 107.33 740.92 106.62 741.52 106.89 743.97 108.49 747.16 106.4 750.57 103.99 753.25 103.7 754.31 104.46 756.54 107.84 761.54 108.32 763.75 Z M 10.55 757.19 11.35 760.8 10.76 762.52 8.52 764.77 7.37 762.25 5.6 764.35 5.39 759.15 6.61 758.08 7.04 755.94 8.71 757.66 10.55 757.19 Z M 7.66 712.1 10.31 711.61 18.46 714.72 17.06 716.18 14.47 716.02 12.12 718.09 9.2 719.03 8.65 716.09 5.79 715.16 7.65 713.15 7.66 712.1 Z M 9.39 776.5 5.21 773.23 5.54 772.07 7.83 772.44 9.39 776.5 Z M 3.32 765.76 3.61 768.27 2.08 768.45 1.12 766.62 1 764.51 2.67 763.14 3.32 765.76 Z M 15.36 703.34 16.32 705.13 15.45 708.29 14.61 709.66 12.38 708.93 13.37 706.78 11.25 704.39 12.02 703.03 13.77 704.43 15.36 703.34 Z M 6.79 725.82 8.03 724.13 8.82 725.71 6.79 725.82 Z" fill-rule="evenodd" id="NO-14" data-name="Sogn og Fjordane"/>
<path d="M 128.01 626.04 126.74 627.36 127.97 628.86 128.27 630.42 130.97 630.81 133.65 629.29 138.75 630.23 139 627.45 140.97 625.51 145.08 625.78 146.65 626.82 147.34 636.09 150.08 638.27 146.78 641.82 145.88 643.75 146.18 647.1 145.11 650.68 141.7 652.54 130.98 656.68 130.77 658.54 137.62 667.13 139.51 667.87 139.77 669.65 138.85 671.93 138.39 675.39 137.58 677.85 135.28 680.4 131.58 680.94 128.08 679.8 121.95 679.97 114.7 680.48 111.37 681.88 107.57 682.46 106.71 682.95 104.91 688.42 103 691.46 101.46 692.66 99.47 692.95 96.47 691.83 94.14 692.42 92.64 694.81 90.61 697.11 90.84 698.73 89.34 699.33 87.89 698.46 86.14 699 82.04 701.8 76.29 702.71 73.15 705.02 66.25 706.73 65 705.55 63.25 701.33 62.17 699.97 54.72 703.88 52.81 706.27 50.11 706.15 48.36 704.55 46.41 704.96 45.73 706.57 44.15 706.67 39.74 704.98 35.98 706.39 33.72 705.8 29.06 707.36 25.67 704.57 26.71 703.23 27.93 699.91 28.79 699.23 24.42 697.97 23.56 696.44 24.75 692.99 26.19 692.84 27.56 693.78 30.52 694.37 32.41 693.46 35.47 693.36 37.63 691.82 39.08 692.69 39.68 694.45 39.13 698.97 40.02 699.38 40.56 695.98 43.27 698.61 43.47 700.61 45.72 699.68 41.41 693.12 39.78 692.17 40.36 689.14 41.28 686.93 42.77 685.24 45.96 683.78 49.4 681.64 51.32 680.93 53.2 684.67 53.81 686.88 55.83 688.99 56.88 688.66 54.55 684.89 53.71 681.41 54.02 679.94 57.04 679.15 58.06 680.19 58.96 677.96 63.34 675.74 64.53 676.88 68.49 677.94 68.32 682 71.5 686.68 72.36 691.52 72.02 693.23 70.41 696.15 70.8 698.41 72.78 699.16 76.75 697.6 76.66 696.57 73.04 698.53 71.33 696.66 72.95 694.22 73.28 691.9 72.92 688.2 73.28 687.37 75.54 686.88 78.46 688.8 80.63 686.86 81 685.75 77.01 686.48 72.78 685.37 70.84 683.97 69.54 681.08 71.4 680.63 67.65 675.56 65.81 673.99 62.78 674.05 56.54 677.11 53.95 677.48 52.78 677.07 51.14 675.25 55.63 672.43 59.18 673.08 62.31 673.06 60.47 671.26 59.06 671.91 58.03 670.17 49.88 670.79 49.97 666.5 51.59 665.47 58.16 665.01 60.73 666.77 62.67 663.82 63.98 662.69 65.4 662.73 68.57 665.93 69.98 664.52 68.74 663.18 70.07 662.39 74.92 662.69 75.05 665.23 76.89 664.12 78.45 665.01 81.66 665.71 83.16 666.5 85.14 669.44 87.76 669.9 89.1 671.5 89.91 669.04 95.64 667.7 94.65 666.95 87.39 668.24 84.9 666.17 84.77 663.87 87.54 662.79 87.94 661.15 90.77 659.45 97.38 657.35 103.6 657.63 106.17 659.87 106.25 658.25 102.37 654.85 99.59 655.3 98.25 656.2 91.65 657.58 87.99 659.99 83.76 660.28 84.67 655.54 81.57 656.56 71.24 657.78 71.43 653.07 73.94 651.13 77.94 651.42 76.16 649.64 72.64 650.13 69.42 644.31 72.14 642.86 74.43 640.76 80.33 638.68 82.51 641.05 84.86 642.85 85.48 645.07 87.27 645.54 92.32 640.99 95.56 641.11 94.74 643.47 99.3 642.56 101.55 641.15 104.62 642.88 105.78 646.31 107 651.89 108.07 653.01 111.98 654.39 114.88 657.77 117.84 658.98 118.77 658.1 116.09 655.76 113.72 654.38 112.34 652.83 109.78 651.8 107.9 649.72 107.41 647.79 107.63 644.88 106.79 642.85 104.96 641.8 102.36 639.18 99.74 639.49 98.63 638.93 100.79 636.45 102.26 633.47 104.96 632.31 106.38 634.27 106.22 636.28 107.64 638.27 109.79 639.09 112.6 642.36 111.68 643.3 112.5 645.45 112.28 647.54 114.51 647.12 117.08 649.37 118.17 648.16 116.06 647.35 116.83 645.78 114.89 642.36 121.8 641.79 121.67 640.37 118.81 640.99 117.08 640.01 114.22 641.43 113.07 639.07 115.49 638.96 115.49 637.53 111.56 638.27 109.08 637.4 109.25 635.42 107.34 631.94 108.97 630.66 110.29 632.47 111.53 631.28 109.47 629.57 121.2 631.08 119.43 628.87 120.72 627.54 128.01 626.04 Z M 126.09 610.83 129.97 615.83 128.58 625.57 120.83 626.02 119.65 622.72 118.26 620.98 117.88 619.17 123.54 617.96 124.61 617.24 122.71 614.19 121.64 613.37 122.65 611.41 124.03 612.29 126.09 610.83 Z M 33.96 686.88 35.33 686.84 35.82 690.03 35.24 691.62 32.92 692.68 28.25 692.57 27.25 690.79 27.38 689.3 28.74 686.17 31.98 686 33.96 686.88 Z M 41.59 679.34 41.92 681.32 43.93 682.48 38.13 688.51 36.03 681.56 37 678.9 38.5 677.56 40.24 677.28 41.59 679.34 Z M 49.88 677.56 51.55 678.85 46.92 679.33 44.67 678.95 42.64 676.67 48.02 676.18 49.88 677.56 Z M 67.69 656.44 69.25 657.32 69.54 659.58 64.56 661.01 62.56 662.26 62.03 660.23 62.61 657.48 64.4 657.96 67.69 656.44 Z M 67.07 650.13 69.85 649.13 70.39 651.16 69 651.56 69.13 654.19 68.17 654.21 65.63 652.34 65.42 649.64 67.07 650.13 Z M 95.64 634.18 98.92 632.97 99.76 634.18 97.6 637.48 95.93 638.24 92.71 635.95 93.66 633.72 95.64 634.18 Z M 91.48 635.95 93.47 639.18 90.98 640.31 88.04 643.2 84 640.97 83.48 639.22 85.29 638.27 84.93 635.56 86.94 635.09 89.14 636.25 90.12 635.32 91.48 635.95 Z M 105.76 623.63 107.04 625.55 108.03 629.12 102.95 630.43 101.64 630.07 100.18 627.75 102.05 626.38 103.76 624.22 105.76 623.63 Z M 116.95 623.14 119.7 626.3 119.43 627.75 115.12 628.88 112.75 627.85 110.32 624.09 110.73 621.26 113.88 623.81 114.46 621.45 115.81 620.66 116.95 623.14 Z M 99.76 616.71 101.25 615.99 96.49 614.77 95.64 612.07 97.44 610.9 100.04 610.32 102.46 607.92 105.38 608.51 106.09 611.09 107.82 613.5 106.52 616.15 104.96 617.63 102.16 618.52 99.76 616.71 Z M 30.94 684.36 30.76 682.9 32.43 681.58 34.12 681.67 33.73 683.88 30.94 684.36 Z M 29.67 683.03 27.48 683.35 27.13 681.45 28.26 681.2 29.67 683.03 Z M 111.85 627.52 111.6 628.47 109.32 628.98 108.25 628.47 107.49 624.92 109.44 624.78 111.85 627.52 Z" fill-rule="evenodd" id="NO-15" data-name="Møre og Romsdal"/>
<path d="M 135.28 680.4 146.47 685.14 150.58 687.28 156.19 686.54 152.79 691.76 152.44 694.06 157.45 697.75 159.38 699.52 159.82 701.37 157.73 702.66 156.95 703.86 157.05 709.5 158.46 710.7 161.36 711.54 162.9 710.72 165.33 711.14 165.97 714.74 164.72 718.12 164.5 720.61 171.22 722.82 173.61 724.84 174.82 725.28 177.64 722.3 179.87 721.31 181.12 721.97 181.65 723.76 183.26 733.37 183.51 738.17 188.53 750.68 186.24 752.09 182.07 759.37 180.99 760.84 177.75 763.94 176.28 764.73 176.61 765.99 178.34 767.99 180.9 769.61 184.79 775.47 185.05 776.44 184.22 778.52 184.71 780.42 187.1 782.68 194.39 787.79 196.81 790.1 197.9 791.63 196.46 794.02 196.38 796.45 195.82 797.2 188.79 799.76 186.79 799.12 184.37 797.74 183.34 802.06 183.64 802.56 187.19 803.05 188.64 804.15 190.51 806.88 190.31 808.83 187.42 813.36 186.15 816.41 185.52 819.4 183.28 820.3 181.58 820.21 179.53 818.46 174.77 815.26 172.76 812.6 169.91 806.6 169.27 804.37 167.82 797.18 165.12 791.04 164.06 789.61 161.02 789.42 161.12 791.43 160.49 792.23 158.01 792.96 156.94 794.3 156.89 796.31 157.65 800.08 155.17 799.59 152.4 798.26 150.86 795.4 146.93 794.95 144.93 793.96 144.86 791.22 142.19 785.96 142.39 783.59 141.02 781.33 139.03 780.52 131.67 775.69 129.31 773.66 124.73 772.53 121.43 770.49 120.83 768.24 119.54 767.21 116.19 765.84 114.02 764.53 110.79 760.93 108.32 763.75 107.84 761.54 104.46 756.54 103.7 754.31 103.99 753.25 106.4 750.57 108.49 747.16 106.89 743.97 106.62 741.52 107.33 740.92 111.66 740.06 108.5 735.39 102.5 732.45 100.37 728.72 99.66 723.46 99.04 721.91 97.45 720.86 94.97 720.33 87.85 720.74 86.24 718.77 84.02 712.82 84.37 704.76 83.29 702.52 82.04 701.8 86.14 699 87.89 698.46 89.34 699.33 90.84 698.73 90.61 697.11 92.64 694.81 94.14 692.42 96.47 691.83 99.47 692.95 101.46 692.66 103 691.46 104.91 688.42 106.71 682.95 107.57 682.46 111.37 681.88 114.7 680.48 121.95 679.97 128.08 679.8 131.58 680.94 135.28 680.4 Z" id="NO-05" data-name="Oppland"/>
</g>
</svg>