<?xml version="1.0"?>
<svg xmlns="http://www.w3.org/2000/svg" version="1.2" baseProfile="tiny" width="800" height="759" viewBox="0 0 800 759" stroke-linecap="round" stroke-linejoin="round">
<g id="MLOC-PL">
<path d="M 425.64 683.85 417.52 692.13 409.67 694.19 407.42 697.05 403.6 708.18 398.31 709.51 395.23 707.7 390.41 709.91 386.83 709.78 386.04 699.14 384.44 695.66 376.54 694.93 376.65 690.34 371.78 674.56 368.12 675.41 364.51 672.1 360.92 671.54 355.29 658.65 354.69 645.98 348.52 647.28 339.51 642.9 334.57 645.67 330.5 641.16 323.02 636.8 317.92 635.83 317.4 632.34 311.62 629 311.73 626.92 316.47 617.62 326.53 615.51 331.32 611.88 339.03 608.25 339.95 598.24 338.6 582.21 342.8 578.48 342.06 574.03 345.45 570.63 357.04 570.74 356.14 566.23 348.89 558.61 347.34 553.83 349.24 548.7 350.66 540.8 352.79 536.3 359.03 532.27 359.6 527.8 358.04 522.58 362.38 509.7 366.38 507.74 377.64 507.37 382.78 504.39 398.45 513.08 409.99 514.12 412.73 511.73 418.1 512.72 422.9 517.15 430.34 529.04 433.04 529.86 441.02 529.42 449.69 533.84 457.52 535.72 457.45 539.68 451.99 540.58 448.99 546.27 451.18 548.89 457.19 550.62 459.94 552.72 462.16 557.68 462.75 562.79 457.25 567.44 455.65 570.92 466.1 574.06 466.85 579.02 456.77 585.36 445.4 586.08 438.34 591.58 434.27 592.06 429.85 589.5 422.03 602.13 416.7 601.36 414.19 603.32 422.14 612.72 403.23 633.99 399.71 640.22 398.8 644.37 404.23 648.85 404.41 652.98 406.79 657.27 410.85 658.86 413.68 665.62 419.25 669.4 424.64 670.36 422.33 678.93 425.64 683.85 Z" id="PL-SL" data-name="Silesian"/>
<path d="M 459.08 732.82 456.19 734.63 450.5 733.62 449.79 730.59 454.18 723.72 452.3 721.92 452.33 713.65 451.19 709.3 444.43 709.79 439.84 708.23 440.46 703.39 434.24 701.85 430.13 688.4 425.64 683.85 422.33 678.93 424.64 670.36 419.25 669.4 413.68 665.62 410.85 658.86 406.79 657.27 404.41 652.98 404.23 648.85 398.8 644.37 399.71 640.22 403.23 633.99 422.14 612.72 414.19 603.32 416.7 601.36 422.03 602.13 429.85 589.5 434.27 592.06 438.34 591.58 445.4 586.08 456.77 585.36 466.85 579.02 466.1 574.06 473.63 574.08 479.45 578.59 486.14 580.71 492.28 584.81 495.92 592.04 497.27 597.78 503.77 608.99 509.63 612.51 520.1 612.8 523.79 607.38 527.48 605.06 531.07 600.33 535.15 600.33 538.6 597.9 543.1 597.78 546.12 595.41 553.24 594.89 558.92 591.07 563.79 592.46 572.88 583.29 571.98 593.8 566.57 604.85 566.09 611.84 568.23 630.61 567.51 640.89 570.56 646.05 575.82 647.84 576.88 651.38 568.97 657.52 567.59 660.58 569.95 662.75 578.53 666.43 583.33 671.62 586.09 680.21 585.92 688.85 587.38 697.8 590.35 706.34 583.45 707.25 575.68 705.05 571.21 702.66 568.67 703.39 566.18 707.09 563.09 708.66 559.29 705.56 553.6 706.68 555.12 713.7 550.71 714.28 544.74 721.2 541.4 721.6 537.31 718.19 531.65 716.88 524.57 708.39 517.85 708.45 514.85 711.35 511.22 711.6 504.48 708.15 503.25 710.54 495.87 709.46 493.8 710.86 492.26 715.97 486.11 716.51 482.37 720.01 479.97 720.22 476.45 727.66 475.17 734.98 470.97 734.88 466.85 731 462.08 730.13 459.08 732.82 Z" id="PL-MA" data-name="Lesser Poland"/>
<path d="M 590.35 706.34 587.38 697.8 585.92 688.85 586.09 680.21 583.33 671.62 578.53 666.43 569.95 662.75 567.59 660.58 568.97 657.52 576.88 651.38 575.82 647.84 570.56 646.05 567.51 640.89 568.23 630.61 566.09 611.84 566.57 604.85 571.98 593.8 572.88 583.29 578.04 578.92 581.57 579.15 585.12 576.36 584.04 573.79 591.66 570.37 596.77 569.04 600.68 564.84 602.66 558.5 608.74 550.18 613.62 548.08 616.35 541.96 616.66 530.63 627.19 537.81 633.17 538.11 638.44 534.4 644.63 535.43 650 539.44 645.27 549.5 646.74 552.07 665.33 556.81 677.89 563.57 678.74 568.17 681.54 574.75 674.38 576.55 671.07 581.77 673.72 588.08 676.52 589.38 687.63 587.18 686.59 591.89 697.5 595 715.42 595.58 721.45 594.31 726.61 590.12 733.18 582.66 739.83 581.3 745.71 581.95 750.73 585.18 753.32 589.06 761.35 593.77 753.9 602.4 743.62 610.42 725.4 630.26 723 633.98 716.91 639.79 708.27 652.51 704.93 655.95 702.79 661.04 699.91 662.98 695 671.9 691.06 673.98 688.22 679.75 682.17 687.91 680.19 692.65 682.25 698.84 683.27 706.13 686.83 712.49 687.91 723.7 685.13 733.52 685.35 736.71 691.12 742.63 697.13 746.96 696.66 753.17 698.06 755.66 697.28 758 688.44 751.73 680.34 752.02 675.39 747.36 672.11 748.49 669.35 747.12 660.18 745.95 656.14 741.88 646.3 740.23 644.86 736.33 632.33 733.22 630.07 731.56 628.53 723.36 623.37 716.93 614.69 711.24 609.74 714.71 604.49 708.19 597.27 705.21 590.35 706.34 Z" id="PL-PK" data-name="Subcarpathian"/>
<path d="M 55.74 527.01 55.75 524.66 59.71 519.62 67.3 500.98 67.69 495.83 72.42 474.57 67.97 467.33 66.93 458.63 81.19 451.07 83.48 451.03 88.17 455.11 90.5 455.29 97.18 445.15 103.03 443.11 114.23 449.3 119.88 447.9 128.71 436.21 136.55 420.85 143.47 416.21 146.2 410.72 158.3 412.98 160.43 415.27 160.69 419.73 165.12 425.4 171.43 423.99 176.3 419.72 180.2 413.38 187.17 412.04 190.41 412.9 199.4 417.8 201.07 425.23 204.52 431.35 212.26 435.66 216.61 440.48 225.8 443.77 242.28 440.86 245.3 433.99 258.01 433.34 266.82 435.76 274.74 440.9 272.84 447.75 269.84 451.76 270.28 457.29 272.13 461.98 276.85 463.08 281.73 462.1 287.64 465.26 285.39 470.63 286.3 483.7 287.34 490.04 284.69 491.65 276.58 493.01 274.51 495.26 269.87 505.95 267.24 516.19 260.91 522.8 258.06 529.43 251.42 539.3 245.69 550.23 243.85 557.3 240.99 562.24 236.16 563.03 231.98 566.25 225.89 582.11 221.82 580.52 219.66 583.58 222.21 587.37 224.49 594.73 229.38 599.02 231.53 607.31 227.19 605.63 219.97 610.89 215.82 611.26 206.53 622.69 203.29 622.92 197.2 618.64 195.05 615.25 193.27 608.65 190.86 606.12 185.52 597.39 180.19 594.84 177.26 588.16 171.54 589.09 169.11 584.31 165.77 581.62 167.45 578.22 174.8 572.61 178.73 573.02 181.12 570.34 183.85 561.25 177.05 554.03 172 551.97 168.08 552.13 164.6 556.54 157.5 553.69 152.56 558.49 150.32 556.59 148.33 549.68 145.94 548.45 138.5 550.12 134.47 543.24 132.06 541.42 125.44 543.03 122.05 539.96 112.5 536.61 106.09 534.36 98.75 536.44 98.06 530.38 93.81 527.46 91.04 519.97 92.38 515.09 88.97 511.96 80.37 511.32 76.73 508.76 70.59 508.1 67.75 510.03 70.59 514.26 69.43 526.93 60.32 526.26 55.74 527.01 Z" id="PL-DS" data-name="Lower Silesian"/>
<path d="M 362.38 509.7 358.04 522.58 359.6 527.8 359.03 532.27 352.79 536.3 350.66 540.8 349.24 548.7 347.34 553.83 348.89 558.61 356.14 566.23 357.04 570.74 345.45 570.63 342.06 574.03 342.8 578.48 338.6 582.21 339.95 598.24 339.03 608.25 331.32 611.88 326.53 615.51 316.47 617.62 311.73 626.92 311.62 629 312.68 634.12 305.44 635.37 300.19 638.36 297.29 637.74 291.22 631.35 287.73 624.43 284.39 621.09 280.81 621.27 276.94 616.35 278.23 613.74 284.21 612.76 289.22 609.32 287.88 604.29 288.92 598.45 284.94 595.59 281.92 600.75 278.71 602.35 271.58 601.09 267.78 601.44 265.44 604.29 261.29 600.55 257.05 600.88 255.62 594.81 251.87 594.92 247.17 592.59 245.14 587.68 239.83 587 237.1 584.9 225.89 582.11 231.98 566.25 236.16 563.03 240.99 562.24 243.85 557.3 245.69 550.23 251.42 539.3 258.06 529.43 260.91 522.8 267.24 516.19 269.87 505.95 274.51 495.26 276.58 493.01 284.69 491.65 287.34 490.04 292.73 491.24 294.24 497.07 298.43 500.47 303.51 500.75 312.95 497.27 322.07 491.82 326.21 496.93 344.04 501.54 349.68 501.38 352.4 498.62 356.4 504.86 362.38 509.7 Z" id="PL-OP" data-name="Opole"/>
<path d="M 782.22 280.03 781.29 289.61 778.12 293.54 767.52 300.78 754.2 304.59 747.13 308.72 740.1 314.59 730.39 329.58 725.73 335.8 722.86 343.93 715.76 342.99 706.83 335.1 702.66 332.56 696.43 333.43 675.56 329.65 672.04 325.09 670.53 319.35 669.8 311.23 661.92 302.66 661.91 294.9 659.21 277.2 650.09 280.76 645.6 276.2 646.86 268.91 643.01 265.98 639.03 270.3 632.98 271.2 627.29 268.24 625.18 264.37 622.92 256.24 617.93 252.54 615.89 248.89 616.86 243.13 613.2 240.29 604.58 237.34 597.21 220.48 595.2 205.15 591.03 190.91 596.84 188.35 608.24 189.02 618.12 184.32 624.08 183.43 637.84 173.96 645.59 165.18 667.8 151.35 672.38 146.5 678.4 132.41 678.69 126.1 670.22 114.23 666.17 110.24 664.89 102.42 656.84 91.62 664.34 80.93 682.13 78.42 687.42 74.82 691.97 70.05 693.78 62.38 697.57 61.48 706.69 64.74 708 67.75 712.14 69.45 712.82 75.76 718.16 74.58 727.59 81.32 735.61 85.12 739.3 90.36 743.31 92.89 746.61 100.61 748.41 112.92 745.44 116.95 747.55 124.13 747.65 128.1 750.34 137.93 751.07 145.11 753.86 150.74 754.04 159.02 755.94 168.4 762.71 189.27 768.07 201.34 771.26 213.96 776.45 225.57 780.09 229.81 777.46 238.38 778.03 243.21 781.36 248.29 781.99 255.43 781.55 264.03 782.22 280.03 Z" id="PL-PD" data-name="Podlachian"/>
<path d="M 690.26 67.36 693.78 62.38 691.97 70.05 687.42 74.82 682.13 78.42 664.34 80.93 656.84 91.62 664.89 102.42 666.17 110.24 670.22 114.23 678.69 126.1 678.4 132.41 672.38 146.5 667.8 151.35 645.59 165.18 637.84 173.96 624.08 183.43 618.12 184.32 608.24 189.02 596.84 188.35 591.03 190.91 581.39 191.66 577.15 197.25 570.27 200.12 563.18 199.45 557.13 206.67 549.96 208.97 542.34 208.94 536.5 212.31 525.73 213.3 520.2 218.8 509.04 225.26 503.06 225.81 499.24 232.23 494.77 235.87 488.77 236.98 463.59 233.09 459.76 229.92 456.59 230.91 454.53 235 449.48 237.62 448.28 225.47 444.17 215.03 439.73 211.9 430.63 209.51 422.1 204.36 412.61 201.47 408.95 195.09 406.97 189.33 400.07 175.84 411.84 153.87 418 148.67 424.44 149.1 428.95 147.11 431.31 139.58 433.73 136.32 434.05 131.86 430.06 130.77 422.17 131.42 419.33 130.03 420.88 124.69 418.8 121.86 410.86 119.03 408.19 114.62 406.53 106.11 411.28 100.68 413.43 95.99 409.2 84.43 411.68 77.57 418.78 78.49 421.44 80.08 424.51 75.45 434.77 68.72 439.22 67.74 447.3 62.6 450.31 56.68 497.66 59.21 543.72 61.67 606.81 65.03 651.17 67.39 684.77 69.18 690.26 67.36 Z" id="PL-WN" data-name="Warmian-Masurian"/>
<path d="M 66.93 458.63 66.48 451.9 63.76 449.36 49.5 443.36 47.48 440.16 50.44 431.71 48.5 422.85 42.83 417.5 41.69 410.83 37.83 406.33 38.64 401.36 43.21 396.69 46.59 389.86 46.87 381.95 49.76 373.98 51.84 371.05 45.85 365.29 47.9 353.01 46.69 348.06 39.49 345.16 34.61 331.27 34.17 326.08 38.29 322.43 41.54 316.28 39.69 313.52 42.54 305.77 39.6 303.2 43.3 293.55 54.11 290.77 60.36 281.94 65.43 270.8 73.24 266.48 86.48 270.88 90.7 270.28 95.59 264.58 99.37 256.05 112.89 251.4 129.33 251.45 133.35 248.5 140.5 239.33 144.69 236 153.03 236.29 155.13 242.79 153.68 249.09 152.09 256.71 152.35 265.16 144.6 275.15 147.05 277.43 148.76 283.92 146.45 286.99 137.14 290.47 137.02 303.55 139.83 311.3 141.42 324.59 137.58 325.77 142.55 335.67 142.73 343.69 140.14 351.37 138.63 359.05 139.21 367.53 143.26 372.58 147.66 374.92 150.92 382.34 153.75 385.18 159.42 385.46 158.45 395 159.63 398.45 166.68 402 172.51 398.03 177.71 403.78 180.2 413.38 176.3 419.72 171.43 423.99 165.12 425.4 160.69 419.73 160.43 415.27 158.3 412.98 146.2 410.72 143.47 416.21 136.55 420.85 128.71 436.21 119.88 447.9 114.23 449.3 103.03 443.11 97.18 445.15 90.5 455.29 88.17 455.11 83.48 451.03 81.19 451.07 66.93 458.63 Z" id="PL-LB" data-name="Lubusz"/>
<path d="M 153.68 249.09 155.13 242.79 153.03 236.29 144.69 236 140.5 239.33 133.35 248.5 129.33 251.45 112.89 251.4 99.37 256.05 95.59 264.58 90.7 270.28 86.48 270.88 73.24 266.48 65.43 270.8 60.36 281.94 54.11 290.77 43.3 293.55 39.6 303.2 34.97 297.99 30.2 296.09 25.56 291.43 21.6 284.57 8.34 274.05 3.3 272.68 1 269.74 3.94 266.29 2.64 255.29 11.35 249.86 18.5 243.53 22.18 232.51 21.25 226.54 26.34 216.51 23.76 213.76 22.32 205.55 19.82 190.83 15.37 182.19 14.81 170.21 11.93 162.36 12.16 156.46 18.39 154.45 24.18 158.84 31.98 160.98 37.3 168.94 40.86 164.64 37.05 161.89 34.57 155.91 37.05 147.09 40.86 147.09 37.04 135.57 26.3 133.57 23.44 137 13.02 138.81 7.13 132.41 7.87 124.25 12.5 126.5 20.39 127.16 26.65 124.85 32.37 120.62 53.47 111.21 71.67 106.42 93.86 97.03 123.96 88.92 139.42 81.88 156.14 80.11 157.87 81.34 164.9 80.11 168.16 78.25 169.82 71.7 177.46 67.04 174.93 65 176.44 61.19 190.58 43.2 196.03 39.79 213.22 37.11 218.93 48.63 225.5 58.17 227.96 63.21 228.54 69.76 225.01 78.04 227.39 82.12 226.42 87.47 215.3 90.22 220.38 105.7 221.03 120.65 226.35 125.4 229.37 131.53 234.95 139.41 230.54 138.82 226.54 140.7 230.49 149.27 224.79 156.91 226.18 171.51 220.16 170.64 217.32 171.9 213.67 179.98 211.64 188.54 194.55 188.61 192.75 191.17 194.07 201.27 199.08 206.14 208.05 209.24 211.04 216.26 204.41 224.84 198.53 226.67 186.99 233.43 180.53 243.58 172.84 250.88 162.97 253.47 153.68 249.09 Z" id="PL-ZP" data-name="West Pomeranian"/>
<path d="M 757.16 443.16 761.67 447.93 760.55 451.29 764.45 457.62 759.38 465.94 759.47 470.36 763.63 471.93 768.04 481.63 773.9 486.4 778.58 491.82 776.96 493.68 780.93 501.14 781.53 508.23 784.98 511.18 786.92 517.01 792.31 522 798.95 525.68 799 529.45 786.17 531.21 786.51 537.39 790.63 538.54 790.71 543.46 795.03 545.36 794.54 548.22 797.19 555.76 795.37 559.01 797.05 567.27 794.55 570.33 789.41 573.02 788.82 579.92 787.07 584.04 782.88 585.79 768.43 585.97 763.22 588.61 761.35 593.77 753.32 589.06 750.73 585.18 745.71 581.95 739.83 581.3 733.18 582.66 726.61 590.12 721.45 594.31 715.42 595.58 697.5 595 686.59 591.89 687.63 587.18 676.52 589.38 673.72 588.08 671.07 581.77 674.38 576.55 681.54 574.75 678.74 568.17 677.89 563.57 665.33 556.81 646.74 552.07 645.27 549.5 650 539.44 644.63 535.43 638.44 534.4 633.17 538.11 627.19 537.81 616.66 530.63 613.9 518.56 614.17 509.99 612.45 506.43 614.36 502.11 610.86 489.87 613.4 477.53 616 474.72 617.31 464.52 614.12 460.7 614.28 457.59 618.08 453.4 618.17 448.15 615.22 441.78 614.82 437.37 609.46 437.47 603.14 435.57 600.95 432.45 601.67 427.85 604.55 427.08 613.21 429.16 618.87 427.16 621.39 422.34 617.37 416.14 620.44 411.81 624.83 409.15 622.04 404.87 616.42 386.37 622.08 382.15 628.15 380.4 639.69 380.47 650.61 378.29 657.45 378.15 665.07 372.43 676.9 372.91 681.33 369.3 684.99 363.33 688.25 364.09 697.6 368.91 700.71 367.74 705.63 359.01 713.2 347.81 715.76 342.99 722.86 343.93 723.95 349.74 725.75 350.9 740.38 355.08 747.47 360.4 749.69 364.84 755.02 365.22 759.65 370.03 762.76 381.75 760.46 384.34 758.43 390.31 758.38 394.5 756.23 401.25 758.95 405.57 758.06 408.57 753.51 412.69 752.41 417.97 753.51 423.32 751.87 431.65 757.16 443.16 Z" id="PL-LU" data-name="Lublin"/>
<path d="M 450.31 56.68 447.3 62.6 439.22 67.74 434.77 68.72 424.51 75.45 421.44 80.08 418.78 78.49 411.68 77.57 409.2 84.43 413.43 95.99 411.28 100.68 406.53 106.11 408.19 114.62 410.86 119.03 418.8 121.86 420.88 124.69 419.33 130.03 422.17 131.42 430.06 130.77 434.05 131.86 433.73 136.32 431.31 139.58 428.95 147.11 424.44 149.1 418 148.67 411.84 153.87 400.07 175.84 395.75 177.76 386.66 178.3 379.84 174.98 370.66 166.52 364.15 165.6 356.59 169.21 349.79 165.15 335.45 162.76 330.48 157.24 327.68 156.99 314.17 159.02 304.04 157.05 298.65 164.7 290.61 169.14 289.8 175.65 284.83 177.65 273.77 174.76 270.83 175.07 266.67 182.41 264.26 190.84 262.03 192.21 258.48 187.95 254.22 185.6 237.99 184.94 233.32 182.08 226.18 171.51 224.79 156.91 230.49 149.27 226.54 140.7 230.54 138.82 234.95 139.41 229.37 131.53 226.35 125.4 221.03 120.65 220.38 105.7 215.3 90.22 226.42 87.47 227.39 82.12 225.01 78.04 228.54 69.76 227.96 63.21 225.5 58.17 218.93 48.63 213.22 37.11 225.56 33.08 233.21 24.67 257.26 13.35 287.42 7.63 300.96 2.97 322.25 1 335.37 1 370.04 21.49 375.01 27.95 372.62 30.67 366.54 19.95 362.29 18.72 354.51 13.35 344.32 8.84 343.04 15.72 347.93 21.84 348.05 28.38 351.33 29.78 355.6 40.73 355.36 49.32 356.99 56.76 365.47 60.75 367.3 63.83 380.74 68.19 386.2 67.04 390.01 68.91 419.92 64.43 432.19 59.32 438.45 53.59 444.09 56.34 450.31 56.68 Z" id="PL-PM" data-name="Pomeranian"/>
<path d="M 591.03 190.91 595.2 205.15 597.21 220.48 604.58 237.34 613.2 240.29 616.86 243.13 615.89 248.89 617.93 252.54 622.92 256.24 625.18 264.37 627.29 268.24 632.98 271.2 639.03 270.3 643.01 265.98 646.86 268.91 645.6 276.2 650.09 280.76 659.21 277.2 661.91 294.9 661.92 302.66 669.8 311.23 670.53 319.35 672.04 325.09 675.56 329.65 696.43 333.43 702.66 332.56 706.83 335.1 715.76 342.99 713.2 347.81 705.63 359.01 700.71 367.74 697.6 368.91 688.25 364.09 684.99 363.33 681.33 369.3 676.9 372.91 665.07 372.43 657.45 378.15 650.61 378.29 639.69 380.47 628.15 380.4 622.08 382.15 616.42 386.37 622.04 404.87 624.83 409.15 620.44 411.81 617.37 416.14 621.39 422.34 618.87 427.16 613.21 429.16 604.55 427.08 601.67 427.85 600.95 432.45 603.14 435.57 609.46 437.47 614.82 437.37 615.22 441.78 618.17 448.15 618.08 453.4 614.28 457.59 614.12 460.7 617.31 464.52 616 474.72 613.4 477.53 610.86 489.87 614.36 502.11 588.85 507.43 575.65 503.29 569.51 502.76 564.06 499.2 560.82 492.46 560.15 488.19 557.74 487.36 552.9 493.01 550.26 494.51 539.18 496.29 529.53 494.28 523.94 487.91 510.81 479.83 508.44 473.83 504.04 472.24 504.78 465.01 509.89 460.22 511.24 452.6 507.26 450.01 505.58 439.91 503.21 434.21 505.28 426.98 511.49 426.98 516.27 429.57 522.07 430.37 523.3 425.2 522.08 421.92 517.79 417.44 517.05 413.76 518.46 407.35 513.77 401.05 507.99 396.57 502.69 394.12 494.23 395.09 491.37 394.16 490.87 389.63 486.82 384.31 488.83 380 489.66 373.51 485.44 370.03 477.58 367.5 475.96 363.88 474.68 356 467.15 352.33 463.06 346.21 457.56 349.08 440.99 352.52 433.61 346.55 429.52 344.62 421.13 342.84 413.44 337.54 414.29 333.11 420.18 323.36 418.22 319.26 418.64 314.23 420.76 309.89 426.12 294.24 429.54 293.32 429.48 288.96 424.96 278.16 427.23 273.73 427.63 268.86 426.39 263.44 430.29 263.95 436.8 257.25 441.34 259.12 442.75 251.67 441.57 242.65 449.48 237.62 454.53 235 456.59 230.91 459.76 229.92 463.59 233.09 488.77 236.98 494.77 235.87 499.24 232.23 503.06 225.81 509.04 225.26 520.2 218.8 525.73 213.3 536.5 212.31 542.34 208.94 549.96 208.97 557.13 206.67 563.18 199.45 570.27 200.12 577.15 197.25 581.39 191.66 591.03 190.91 Z" id="PL-MZ" data-name="Masovian"/>
<path d="M 449.69 533.84 441.02 529.42 433.04 529.86 430.34 529.04 422.9 517.15 418.1 512.72 412.73 511.73 409.99 514.12 398.45 513.08 382.78 504.39 377.64 507.37 366.38 507.74 362.38 509.7 356.4 504.86 352.4 498.62 349.68 501.38 344.04 501.54 326.21 496.93 322.07 491.82 320.75 482.39 316.18 478.3 314.47 470.64 315.76 467.81 321.59 466.52 324.92 459.32 328.9 458.12 333.25 460.27 337.04 457.55 339.26 451.46 338.34 437.62 338.73 429.11 340.79 421.27 344.5 412.4 346.56 409.58 351.12 407.41 362.67 408.67 367.41 400.91 367.73 396.84 365.33 388.13 367 379.73 377.61 378.56 381.65 373.79 383.22 362.03 391.17 358.63 396.11 353.88 393.18 349 393.05 344.81 395.78 341.82 405.62 341.62 410.36 337.75 413.44 337.54 421.13 342.84 429.52 344.62 433.61 346.55 440.99 352.52 457.56 349.08 463.06 346.21 467.15 352.33 474.68 356 475.96 363.88 477.58 367.5 485.44 370.03 489.66 373.51 488.83 380 486.82 384.31 490.87 389.63 491.37 394.16 494.23 395.09 502.69 394.12 507.99 396.57 513.77 401.05 518.46 407.35 517.05 413.76 517.79 417.44 522.08 421.92 523.3 425.2 522.07 430.37 516.27 429.57 511.49 426.98 505.28 426.98 503.21 434.21 505.58 439.91 507.26 450.01 511.24 452.6 509.89 460.22 504.78 465.01 504.04 472.24 501.76 473.95 498.82 481.2 490.99 484.07 485.46 489.35 482.89 490.08 474.07 488.85 469.63 492.34 467.65 500 473.76 507.51 474.54 511.75 472.1 518.03 461.56 510.3 458.74 510.81 457.71 514.9 457.98 522.93 456.62 526.72 451.55 530.73 449.69 533.84 Z" id="PL-LD" data-name="Łódź"/>
<path d="M 400.07 175.84 406.97 189.33 408.95 195.09 412.61 201.47 422.1 204.36 430.63 209.51 439.73 211.9 444.17 215.03 448.28 225.47 449.48 237.62 441.57 242.65 442.75 251.67 441.34 259.12 436.8 257.25 430.29 263.95 426.39 263.44 427.63 268.86 427.23 273.73 424.96 278.16 429.48 288.96 429.54 293.32 426.12 294.24 420.76 309.89 418.64 314.23 418.22 319.26 420.18 323.36 414.29 333.11 413.44 337.54 410.36 337.75 405.62 341.62 395.78 341.82 393.05 344.81 385.47 338.99 374.28 342.93 371.41 343.15 369.23 338.22 350.87 323.26 343.98 325.6 340.87 318.83 338.19 317.61 333.55 323.07 330.82 324.31 322.75 322.17 317.86 316.84 309.37 314.07 301.21 306.57 295.2 303.3 289.65 303 283.04 299.96 279.52 293.91 274.92 296.26 271.68 295.65 268.84 289.99 265.97 287.23 266.5 283.83 271.51 280.62 273.21 271.29 269.31 262.66 263.26 258.12 256.77 255.78 260.35 247.5 261.48 239.24 259.01 234.48 258.32 228.85 265.6 222.69 261.76 214.01 254.99 208.7 254.07 204.71 259.82 197.13 262.03 192.21 264.26 190.84 266.67 182.41 270.83 175.07 273.77 174.76 284.83 177.65 289.8 175.65 290.61 169.14 298.65 164.7 304.04 157.05 314.17 159.02 327.68 156.99 330.48 157.24 335.45 162.76 349.79 165.15 356.59 169.21 364.15 165.6 370.66 166.52 379.84 174.98 386.66 178.3 395.75 177.76 400.07 175.84 Z" id="PL-KP" data-name="Kuyavian-Pomeranian"/>
<path d="M 287.34 490.04 286.3 483.7 285.39 470.63 287.64 465.26 281.73 462.1 276.85 463.08 272.13 461.98 270.28 457.29 269.84 451.76 272.84 447.75 274.74 440.9 266.82 435.76 258.01 433.34 245.3 433.99 242.28 440.86 225.8 443.77 216.61 440.48 212.26 435.66 204.52 431.35 201.07 425.23 199.4 417.8 190.41 412.9 187.17 412.04 180.2 413.38 177.71 403.78 172.51 398.03 166.68 402 159.63 398.45 158.45 395 159.42 385.46 153.75 385.18 150.92 382.34 147.66 374.92 143.26 372.58 139.21 367.53 138.63 359.05 140.14 351.37 142.73 343.69 142.55 335.67 137.58 325.77 141.42 324.59 139.83 311.3 137.02 303.55 137.14 290.47 146.45 286.99 148.76 283.92 147.05 277.43 144.6 275.15 152.35 265.16 152.09 256.71 153.68 249.09 162.97 253.47 172.84 250.88 180.53 243.58 186.99 233.43 198.53 226.67 204.41 224.84 211.04 216.26 208.05 209.24 199.08 206.14 194.07 201.27 192.75 191.17 194.55 188.61 211.64 188.54 213.67 179.98 217.32 171.9 220.16 170.64 226.18 171.51 233.32 182.08 237.99 184.94 254.22 185.6 258.48 187.95 262.03 192.21 259.82 197.13 254.07 204.71 254.99 208.7 261.76 214.01 265.6 222.69 258.32 228.85 259.01 234.48 261.48 239.24 260.35 247.5 256.77 255.78 263.26 258.12 269.31 262.66 273.21 271.29 271.51 280.62 266.5 283.83 265.97 287.23 268.84 289.99 271.68 295.65 274.92 296.26 279.52 293.91 283.04 299.96 289.65 303 295.2 303.3 301.21 306.57 309.37 314.07 317.86 316.84 322.75 322.17 330.82 324.31 333.55 323.07 338.19 317.61 340.87 318.83 343.98 325.6 350.87 323.26 369.23 338.22 371.41 343.15 374.28 342.93 385.47 338.99 393.05 344.81 393.18 349 396.11 353.88 391.17 358.63 383.22 362.03 381.65 373.79 377.61 378.56 367 379.73 365.33 388.13 367.73 396.84 367.41 400.91 362.67 408.67 351.12 407.41 346.56 409.58 344.5 412.4 340.79 421.27 338.73 429.11 338.34 437.62 339.26 451.46 337.04 457.55 333.25 460.27 328.9 458.12 324.92 459.32 321.59 466.52 315.76 467.81 314.47 470.64 316.18 478.3 320.75 482.39 322.07 491.82 312.95 497.27 303.51 500.75 298.43 500.47 294.24 497.07 292.73 491.24 287.34 490.04 Z" id="PL-WP" data-name="Greater Poland"/>
<path d="M 466.1 574.06 455.65 570.92 457.25 567.44 462.75 562.79 462.16 557.68 459.94 552.72 457.19 550.62 451.18 548.89 448.99 546.27 451.99 540.58 457.45 539.68 457.52 535.72 449.69 533.84 451.55 530.73 456.62 526.72 457.98 522.93 457.71 514.9 458.74 510.81 461.56 510.3 472.1 518.03 474.54 511.75 473.76 507.51 467.65 500 469.63 492.34 474.07 488.85 482.89 490.08 485.46 489.35 490.99 484.07 498.82 481.2 501.76 473.95 504.04 472.24 508.44 473.83 510.81 479.83 523.94 487.91 529.53 494.28 539.18 496.29 550.26 494.51 552.9 493.01 557.74 487.36 560.15 488.19 560.82 492.46 564.06 499.2 569.51 502.76 575.65 503.29 588.85 507.43 614.36 502.11 612.45 506.43 614.17 509.99 613.9 518.56 616.66 530.63 616.35 541.96 613.62 548.08 608.74 550.18 602.66 558.5 600.68 564.84 596.77 569.04 591.66 570.37 584.04 573.79 585.12 576.36 581.57 579.15 578.04 578.92 572.88 583.29 563.79 592.46 558.92 591.07 553.24 594.89 546.12 595.41 543.1 597.78 538.6 597.9 535.15 600.33 531.07 600.33 527.48 605.06 523.79 607.38 520.1 612.8 509.63 612.51 503.77 608.99 497.27 597.78 495.92 592.04 492.28 584.81 486.14 580.71 479.45 578.59 473.63 574.08 466.1 574.06 Z" id="PL-SK" data-name="Świętokrzyskie"/>
</g>
</svg>