<?xml version="1.0"?>
<svg xmlns="http://www.w3.org/2000/svg" version="1.2" baseProfile="tiny" width="800" height="1635" viewBox="0 0 800 1635" stroke-linecap="round" stroke-linejoin="round">
<g id="MLOC-PT">
<path d="M 551.73 1080.99 540.93 1089.89 537.62 1097.43 535.95 1108.04 535.95 1120.75 540.17 1124.71 539.61 1131.41 529.46 1146.16 525.08 1161.78 522.7 1165.42 525.49 1169.48 525.23 1173.07 519.4 1180.21 529.6 1186.95 555.25 1220.06 558.89 1227.9 565.96 1234.11 575.73 1259.17 578.11 1261.41 573.16 1263.89 569.6 1263.62 564.55 1259.34 556.52 1240.52 550.25 1237.57 545.28 1232.59 543.24 1225.89 538.36 1215.95 534.69 1215.81 524.91 1219.11 517.1 1223.38 509.4 1225.56 508.82 1229.64 506.08 1235.38 498.37 1241.76 491.43 1245.36 487.4 1249.59 484.18 1254.83 481.11 1257.49 470.2 1257.18 460.15 1254.43 444.21 1254.05 440.73 1252.98 425.31 1244.24 418.97 1241.89 406.73 1240.59 386.22 1231.3 380.72 1224.7 373.65 1221.88 368.81 1221.01 363.38 1223.88 359.2 1223.16 353.74 1218.14 349.03 1216.96 343.6 1217.6 325.68 1217.28 324.74 1220.06 315.58 1212.96 304.39 1210.23 296.05 1204.53 289.29 1201.67 289.29 1199.33 293.21 1192.31 294.09 1186.88 292.87 1184.42 286.46 1179.75 287.54 1175.23 283.73 1163.35 274.71 1152.52 268.08 1152.56 259.01 1157.38 252.07 1157.68 249.07 1156.5 242.99 1150.67 239.79 1151.58 238.81 1157.59 232.93 1155.65 225.87 1154.63 216.51 1148.98 209.34 1147.99 206.12 1136.05 206.08 1130.68 214.83 1119.47 235.13 1105.19 240.93 1097.56 241.19 1091.65 243.72 1086.71 241.65 1082.62 231.53 1080.7 243.15 1070.83 253.94 1068.71 261.38 1061.8 269.88 1060.17 273.23 1054.06 282.07 1055.83 288.68 1054.99 291.52 1051.31 294.77 1052.58 303.43 1061.07 311.02 1062.66 315.05 1065.21 317.16 1070.22 320.99 1070.83 323.37 1076.28 327.29 1078.39 331.51 1074.38 332.79 1070.01 330.87 1065.62 326.9 1064.43 321.48 1057.44 322.85 1049.72 320.67 1046.43 317.69 1045.94 305.16 1040.26 301.54 1037.45 301.77 1032.94 304.61 1029.28 306.24 1018.23 308.25 1013.42 312.67 1012.94 316.31 1007.85 321.11 1003.49 328.71 1000.18 335.44 999.79 339.12 1001.25 337.55 1009.02 338.65 1013.21 341.68 1014.54 343.36 1007.94 349.87 1006.26 353.56 1007.97 358.9 1013.71 359.56 1024.48 368.45 1025.48 377.45 1018.39 382.65 1017.42 385.48 1019.55 396.35 1034.55 403.21 1039.27 415.61 1039.6 423.46 1036.75 429.64 1029.49 437.33 1032.46 444.48 1031.59 449.9 1033.76 453.06 1032.73 456.92 1026.99 460.46 1024.08 468.99 1021.82 474.96 1018.69 475.88 1014.49 473.36 1010.44 478.71 1008.07 479.96 1010.97 489.65 1015.04 495.03 1021.9 496.37 1032.51 501.65 1037.37 504.13 1047.59 507.68 1052.69 506.27 1057.44 511.15 1065.81 517 1070 522.4 1070.42 526 1069.26 536.13 1059.55 543.29 1057.21 547.69 1056.95 553.56 1060.28 554.21 1068.75 550.59 1074.32 549.88 1078.81 551.73 1080.99 Z" id="PT-07" data-name="Évora"/>
<path d="M 551.73 1080.99 549.88 1078.81 550.59 1074.32 554.21 1068.75 553.56 1060.28 547.69 1056.95 543.29 1057.21 536.13 1059.55 526 1069.26 522.4 1070.42 517 1070 511.15 1065.81 506.27 1057.44 507.68 1052.69 504.13 1047.59 501.65 1037.37 496.37 1032.51 495.03 1021.9 489.65 1015.04 479.96 1010.97 478.71 1008.07 473.36 1010.44 475.88 1014.49 474.96 1018.69 468.99 1021.82 460.46 1024.08 456.92 1026.99 453.06 1032.73 449.9 1033.76 444.48 1031.59 437.33 1032.46 429.64 1029.49 423.46 1036.75 415.61 1039.6 403.21 1039.27 396.35 1034.55 385.48 1019.55 382.65 1017.42 377.45 1018.39 368.45 1025.48 359.56 1024.48 358.9 1013.71 353.56 1007.97 349.87 1006.26 343.36 1007.94 341.68 1014.54 338.65 1013.21 337.55 1009.02 339.12 1001.25 335.44 999.79 328.71 1000.18 321.11 1003.49 316.31 1007.85 305.53 1004.31 302.29 1001.46 299.3 993.48 295.19 988.78 293.49 983.29 288.76 979.29 283.05 976.7 283.16 971.61 290.21 960.36 293.44 956.96 306.91 947.36 321.22 933.97 327.03 929.28 329.65 922.7 335.1 918.92 343.34 918.95 352.86 907.52 357.45 899.74 358.22 895.57 371.6 886.04 376.36 878.32 374.97 874.2 371.09 871.39 361.57 861.4 366.7 847.66 371.8 839.98 379.42 834.8 384.01 836 393.87 841.44 397.55 845.21 404.62 837.91 411.39 833.61 422.31 820.6 427.05 818.77 433.9 806.48 437.88 803.53 443.44 803.98 451.6 806.82 460.25 799.4 469.24 794.79 471.72 795.81 481.43 822.08 485.79 826.08 493 835.77 497.06 839.67 505.26 843.96 507.35 846.67 509.65 853.56 518.5 859.08 528.69 861.81 530.48 864.94 530.45 871.64 529.19 878.81 526.02 887.76 527.29 901.38 529.09 905.07 533.65 908.71 545.67 923.53 542.4 929.26 542.05 935.83 543.92 942.1 547.3 947 553.32 950.38 560.04 952.16 565.74 954.83 568.71 960.81 565.54 970.08 565.88 972.7 571.93 977.06 575.63 977.7 584.36 973.02 590.75 972.29 597.08 974.05 606.56 981.69 609.96 987.29 611.49 993.41 609.81 998.75 612.96 1003.78 609.24 1010.08 601.12 1025.95 595.7 1033.51 590.48 1037.88 593.83 1043.99 592.89 1053.28 584.99 1060.07 581.07 1061.99 569.88 1064.45 562.91 1073.29 551.73 1080.99 Z" id="PT-12" data-name="Portalegre"/>
<path d="M 320.59 112.24 316.52 112.62 293.55 125.26 287.64 127.43 266.43 128.44 259.41 130.65 253.28 135.47 249.21 137.14 245.28 136.53 240.1 140.04 237.23 154.53 233.35 160.78 234.5 164.32 230.21 171.93 218.84 168.77 209.66 164.79 205.8 168.62 191.26 169.61 173.54 176.11 165.29 175.53 163.16 165.68 163.54 154.43 168.96 152.33 183.85 149.84 188.05 147.84 195.27 141.71 168.43 149.84 159.7 150.22 155.28 147.43 150.63 136.88 150.62 127.56 152.63 112.91 150.97 103.65 153.73 97.11 170.91 82.72 179.12 73.38 182.02 61.31 190.22 56.49 196.45 54.58 201.42 51.25 205.84 40.93 212.06 34.53 225.18 33.43 229.63 31.58 237.97 25.82 242.53 24.06 279.98 17.98 284.05 15.78 292.44 8.7 302.87 6.25 310.14 1 314.51 9.12 313.77 23.18 314.59 28.48 317.67 30.92 325.65 27.88 330.68 27.39 335.33 29.36 339.03 32.97 341 37.83 340.44 43.53 337.86 47.63 326.96 55.49 319.89 62.47 310.54 76.39 308.23 82.27 307.87 88.34 310.61 94.15 319.3 97.56 321.53 104.44 320.59 112.24 Z" id="PT-16" data-name="Viana do Castelo"/>
<path d="M 471.72 795.81 469.24 794.79 460.25 799.4 451.6 806.82 443.44 803.98 437.88 803.53 433.9 806.48 427.05 818.77 422.31 820.6 411.39 833.61 409.17 830.51 406.41 822.7 401.35 814.74 396.34 808.81 388.28 803.06 376.11 799.29 375.12 782.34 372.54 776.73 366.59 776.63 358.94 773.88 353.89 774.78 352.69 777.12 349.85 793.23 346.85 800.49 349.13 812.49 343.93 814.41 330.23 815.03 324.12 810.78 310.66 805.48 308.5 801.4 307.47 784.2 309.18 781.33 308.84 772.25 306.21 767.31 297.8 763.59 296.38 758.73 295.1 753.68 298.5 749.66 298.46 746.16 301.11 742.94 311.83 739.56 314.22 739.95 319.76 733.48 324.04 731.99 328.71 728.2 333.42 718.79 340.78 711.2 344.05 710.72 346.71 707.56 356.24 706.23 357.81 701.65 362.56 700.92 367.21 698.32 371.43 699.65 377.54 692.88 384.09 692.45 386.83 689.19 385.74 684.84 389.54 679.03 395.23 676.08 401.65 675.45 406.08 677 410.79 680.98 411.09 669.32 420.11 669.32 427.05 663.94 428.16 660.44 426.62 653.22 419.98 648.55 413.39 641.35 410.87 635.22 416.87 620.29 428.55 616.44 437.69 609.62 444.24 606.82 450.54 602.91 455.84 597.31 460.57 590.19 466.62 592.58 474.77 590.88 478.79 586.73 480.98 580.12 484.32 574.33 496.54 562.6 506.07 570.54 511.71 572.37 522.2 569.87 527.42 563.76 537.93 562.45 540.75 563.76 538.66 582.65 535.63 591 529.22 599.08 528.84 603.34 535.46 606.61 546.71 609.1 557.61 605.05 569.2 605.06 574.05 602.11 575.65 597.28 579.76 592.56 582.74 594.63 588.21 603.06 593.76 604.14 603.19 602.76 607.09 603.29 616.92 608.96 620.53 613.01 617.47 613.52 607.03 620.4 602.67 622.37 600.49 625.32 596.04 636.38 598.04 641.02 599.78 651.84 602.67 656.15 612.02 657.94 617.22 661.26 625.91 673.32 635.65 690.96 631.48 697.95 630.79 704.75 628.42 715.39 625.33 718.41 624.85 734.48 624.03 737.54 617.93 746.71 610.07 750.41 606.42 756.29 608.18 765.22 603.25 776.36 604.16 783.75 601.36 790.51 597.82 792.01 562.15 796.47 554.59 796.13 549.33 792.87 545.19 794.19 535.51 793.88 523.71 797.5 471.38 794.99 471.72 795.81 Z" id="PT-05" data-name="Castelo Branco"/>
<path d="M 620.53 613.01 616.92 608.96 607.09 603.29 603.19 602.76 593.76 604.14 588.21 603.06 582.74 594.63 579.76 592.56 575.65 597.28 574.05 602.11 569.2 605.06 557.61 605.05 546.71 609.1 535.46 606.61 528.84 603.34 529.22 599.08 535.63 591 538.66 582.65 540.75 563.76 537.93 562.45 527.42 563.76 522.2 569.87 511.71 572.37 506.07 570.54 496.54 562.6 484.32 574.33 480.98 580.12 478.79 586.73 474.77 590.88 466.62 592.58 460.57 590.19 455.84 597.31 450.54 602.91 444.24 606.82 437.69 609.62 428.55 616.44 416.87 620.29 413.16 614.74 406.56 610.94 410.5 599.74 414.31 593.91 419.81 590.01 419.67 586.13 414.54 580.58 411.39 564.77 405.12 562.5 403.42 559.3 405.79 555.66 409.91 553.77 412.3 548.73 409.04 542.9 406.56 535.7 408.96 533.28 418.74 531.35 425.22 526.74 432.35 524.3 440.01 518.57 450.26 514.73 466.43 511.94 465.45 505.41 471.14 487.73 474.47 483.75 475.6 475.82 471.42 470.18 466.06 466.63 463.57 461.92 466.34 458.51 466.93 454.39 464.93 450.3 456.8 442.94 457.27 438.5 462.77 429.63 465.47 420.92 471.23 416.19 477.23 416.7 483.27 420.44 494.58 432.71 498.48 432.87 500.93 429.38 506.48 416.51 506.71 413.01 503.84 401.52 506.84 399.92 516.06 402.05 523.7 394.96 525.85 389.4 524.19 381.53 517.86 377.39 516.66 370.42 522.52 370.79 525.63 368.6 524.43 360.01 527.45 344.53 533.6 323.71 552.55 322.11 560.33 324.37 565.24 324.27 567.44 320.91 579.18 313.11 575.87 322.11 579.94 325.72 584.02 327.02 582.5 335.11 585.61 343.69 588.23 347.1 609.61 358.02 624.08 359.51 623.02 365.61 620.43 369.83 623.31 377.51 630.92 385.65 634.33 391.37 643.57 413.84 649.85 416.67 651.05 420.92 650.05 424.96 646.09 426.23 645.75 434.35 646.85 439.83 645.49 446.53 646.01 457.28 649.08 467.72 651.04 478.44 651.51 488.03 649.81 493.46 644.2 503.81 642.74 508.78 643.25 514.35 650.6 524.84 651.94 530.35 651.26 534.2 645.6 542.28 641.13 553.46 642.54 563.85 648.17 573.06 656.33 580.76 652.08 588.42 639.47 598.39 637.07 602.58 636.05 609.74 631.59 612.85 620.53 613.01 Z" id="PT-09" data-name="Guarda"/>
<path d="M 624.08 359.51 609.61 358.02 588.23 347.1 585.61 343.69 582.5 335.11 584.02 327.02 579.94 325.72 575.87 322.11 579.18 313.11 567.44 320.91 565.24 324.27 560.33 324.37 552.55 322.11 533.6 323.71 527.41 324.22 519.29 321.54 516.22 318.78 508.98 308.2 505.29 305.54 501.69 305.46 504.57 297.78 511.21 295.66 511.82 284.97 516.4 279.34 516.96 272.65 521.21 268.13 529.53 265.37 521.74 259.41 518.64 248.46 518.65 232.5 532.96 221.58 537.61 210.96 539.9 208.22 548.41 205.63 549.23 203.9 545.42 195.4 544.3 188.45 545.27 179.91 553.11 152.8 559.22 139.97 564.63 133.46 564.32 126.36 559.9 120.17 557.74 114.31 556.46 105.31 557.63 95.37 555.74 87.33 558.5 83.31 559.05 78.14 557.49 67.58 558.01 63.03 563.5 58.25 571.24 55.27 579.05 60.19 586.43 66.59 594.06 70.1 602.67 66.3 608.34 62.16 613.88 64.99 619.79 69.66 626.58 71.05 641.65 69.8 647.41 66.21 648.93 56.49 656.34 57.81 665.18 71.55 672.44 73.74 689.7 73.02 697.93 70.45 701.17 63.48 707.07 65.98 710.34 69.91 711.31 75.3 709.33 89.37 711.25 91.65 721.84 94.41 719.04 100.54 713.13 127.12 708.95 135.94 712.42 144.62 714.31 157 717.64 162.19 724.46 164.78 730.61 162.23 737.21 156.46 740.54 156.56 760.21 160.67 772.05 165.03 782.93 172.14 793.15 182.95 799 190.94 787.44 208.03 781.16 214.67 779.62 217.95 780.33 224.83 771.1 239.72 771.07 242.49 763.51 243.06 757.73 247.07 756.03 253.64 752.06 253.34 744.44 265.76 736.65 273.8 728.72 279.99 714.51 286.22 712.32 287.81 696.45 288.06 692.16 288.81 689.35 291.96 680.73 305.01 677.54 312.44 668.98 319.81 664.92 326.15 665.52 334.11 663.52 339.96 653.92 354.26 650.61 357.57 644 358.28 629.08 356.94 624.08 359.51 Z" id="PT-04" data-name="Bragança"/>
<path d="M 555.74 87.33 557.63 95.37 556.46 105.31 557.74 114.31 559.9 120.17 564.32 126.36 564.63 133.46 559.22 139.97 553.11 152.8 545.27 179.91 544.3 188.45 545.42 195.4 549.23 203.9 548.41 205.63 539.9 208.22 537.61 210.96 532.96 221.58 518.65 232.5 518.64 248.46 521.74 259.41 529.53 265.37 521.21 268.13 516.96 272.65 516.4 279.34 511.82 284.97 511.21 295.66 504.57 297.78 501.69 305.46 473.11 316.17 461.81 317.75 451.61 316.63 446.82 317.02 436.28 323.69 427.6 325.89 418.84 324.44 410.17 316.45 406.85 314.98 402.04 315.62 389.25 323.78 390.87 308.42 394.24 295.53 390.06 292.68 386.02 285.17 384.99 280.35 386.02 276.18 375.88 269.24 374.12 266.53 374 260.84 369.99 255.72 372.1 250 371.47 246.06 378.14 235.56 378.14 229.22 380.34 221.58 382.58 218.37 386.9 217.99 391.51 210.77 396.1 208.62 399.02 205.4 408.7 190.72 409.25 186.95 405.14 179.53 401.41 176.81 396.41 182.54 389.18 184.64 376.78 182.49 364.41 177.67 365.35 163.17 366.91 156.02 365.04 153 355.53 148.07 350.92 150.22 345.16 150.03 335.44 151.34 340.98 144.94 345.63 132.98 347.87 128.94 349.6 119.6 352.08 115.41 351.82 111.15 360.24 102.72 365.59 95.63 369.03 94.02 377.44 94.56 379.72 90.32 382.04 81.13 386.81 79.28 387.48 88.09 389.12 97.49 396.82 97.51 400.48 91.69 409.59 91.24 424.62 87.58 431.44 84.04 435.24 85.01 446.2 91.97 459.24 92.53 455.49 102.77 455.64 105.83 463.84 108.47 473.95 105.92 477.62 103.28 479.62 96.77 483.29 95.21 486.97 97.83 492.69 99.25 495.8 103.58 499.16 114.41 508.2 104.89 515.13 102.02 528.31 101.57 545.52 95.62 553.48 90.62 555.74 87.33 Z" id="PT-17" data-name="Vila Real"/>
<path d="M 165.29 175.53 173.54 176.11 191.26 169.61 205.8 168.62 209.66 164.79 218.84 168.77 230.21 171.93 234.5 164.32 233.35 160.78 237.23 154.53 240.1 140.04 245.28 136.53 249.21 137.14 253.28 135.47 259.41 130.65 266.43 128.44 287.64 127.43 293.55 125.26 316.52 112.62 320.59 112.24 341.38 114.16 351.82 111.15 352.08 115.41 349.6 119.6 347.87 128.94 345.63 132.98 340.98 144.94 335.44 151.34 345.16 150.03 350.92 150.22 355.53 148.07 365.04 153 366.91 156.02 365.35 163.17 364.41 177.67 376.78 182.49 389.18 184.64 396.41 182.54 401.41 176.81 405.14 179.53 409.25 186.95 408.7 190.72 399.02 205.4 396.1 208.62 391.51 210.77 386.9 217.99 382.58 218.37 380.34 221.58 378.14 229.22 378.14 235.56 371.47 246.06 372.1 250 369.99 255.72 368.68 260.29 361.45 267.86 355.28 270.28 347.31 265.09 344.68 265.72 336.94 262.32 328.3 255.81 327.8 250.91 322.89 245.8 310.88 241.34 307.24 246.86 302.42 250.45 294.96 254.04 285.91 256.78 280.65 253.72 270.67 255.12 263.27 257.03 257.23 256.12 253.65 253.8 246.52 254.91 238.31 260.72 234.43 261.82 217.56 262.4 214.46 259.06 213.12 252.27 218.67 248.36 218.58 244.72 210.07 239.79 202.34 231.78 193.86 230.75 181.83 224.28 176.13 224.2 173.38 216.6 171.21 199.92 168.07 190.07 165.29 175.53 Z" id="PT-03" data-name="Braga"/>
<path d="M 481.73 1462.67 483.73 1465.79 491.1 1473.09 492.82 1478.79 494.96 1492.98 494.42 1496.42 498.6 1505.91 500.43 1530.14 502.83 1540.14 501.21 1544.77 502.39 1551.65 506.02 1565.03 509.46 1571.26 507.66 1573.53 503.62 1570.44 498.43 1569.04 487.66 1569.37 482.41 1571.43 472.6 1578.29 468.54 1579.75 454.39 1589.02 452.5 1591.62 415.78 1616.75 407.79 1624.03 404.28 1623.97 395.39 1621.25 380.43 1621.05 376.28 1619.36 374.2 1622.85 368.57 1623.13 355.5 1612.26 338.21 1602.6 328.29 1600.4 320.61 1596.88 312.43 1597.24 292.96 1600.04 275.46 1593.87 268.23 1597.17 257.66 1598.51 246.65 1595.04 233.74 1587.84 223.4 1585.97 212.09 1586.83 205.33 1590.13 197.67 1598.44 182.78 1598.44 179.87 1599.26 170.44 1604.66 161.07 1606.46 155.75 1611.25 150.96 1609.31 144.61 1615.22 134.69 1621.25 131.02 1619.88 125.75 1615.57 122.12 1617.12 125.1 1604.39 135.72 1587.57 142.56 1572 140.34 1562.95 150.37 1552.95 153.83 1539.47 150.03 1529.35 153.93 1521.66 160.72 1513.98 162.01 1506.58 166.22 1496.4 168.25 1486.78 175.82 1491.83 179.58 1492.87 189.66 1501.78 199.55 1502.14 209.68 1506.87 213.51 1502.47 224.88 1500.09 227.75 1500.5 240.62 1507.69 251.08 1509.38 259.46 1505.79 263.68 1497.62 278.21 1493.11 283.48 1493.46 289.93 1491.53 295.99 1493.23 298.97 1503 322.64 1521.08 330.42 1523.25 346.91 1524.22 350.61 1522.62 356.08 1518.21 364.53 1513.58 366.3 1511.56 363.75 1507.79 365.13 1503.69 368.31 1501.45 386.21 1499.04 389.37 1497.13 391.15 1493.28 399.34 1488.08 408.7 1484.27 416.02 1479.24 435 1471.21 447.76 1471.38 456.26 1473.01 463.7 1466.61 468.67 1463.86 475.69 1463.84 481.73 1462.67 Z M 374.78 1629.55 387.33 1631.28 392.17 1629.45 397.97 1623.51 399.62 1627.66 393.51 1632.49 387.35 1634 380.68 1633.81 374.78 1631.81 374.78 1629.55 Z" fill-rule="evenodd" id="PT-08" data-name="Faro"/>
<path d="M 324.74 1220.06 325.68 1217.28 343.6 1217.6 349.03 1216.96 353.74 1218.14 359.2 1223.16 363.38 1223.88 368.81 1221.01 373.65 1221.88 380.72 1224.7 386.22 1231.3 406.73 1240.59 418.97 1241.89 425.31 1244.24 440.73 1252.98 444.21 1254.05 460.15 1254.43 470.2 1257.18 481.11 1257.49 484.18 1254.83 487.4 1249.59 491.43 1245.36 498.37 1241.76 506.08 1235.38 508.82 1229.64 509.4 1225.56 517.1 1223.38 524.91 1219.11 534.69 1215.81 538.36 1215.95 543.24 1225.89 545.28 1232.59 550.25 1237.57 556.52 1240.52 564.55 1259.34 569.6 1263.62 573.16 1263.89 578.11 1261.41 581.39 1264.51 591.2 1263.29 597.1 1260.61 600.09 1256.47 615.17 1254.46 619.22 1257.4 616.76 1266.18 611.59 1281.05 607.06 1290.39 604.95 1299.72 602.67 1303.57 600.67 1311.04 594.52 1311.77 580.8 1306.09 576.61 1305.67 574.49 1308.02 572.08 1314.42 569.58 1317.79 561.57 1321.47 552.35 1319.89 549.75 1321.66 542.04 1323.23 540.37 1325.06 541.36 1333.6 540.09 1339.05 534.77 1353.39 532.09 1363.86 525.42 1375.79 503.13 1394.6 498.84 1400.87 495.56 1410.09 493.43 1424.83 492.15 1429.45 484.08 1438.79 481.43 1446.58 478.07 1450.79 481.73 1462.67 475.69 1463.84 468.67 1463.86 463.7 1466.61 456.26 1473.01 447.76 1471.38 435 1471.21 416.02 1479.24 408.7 1484.27 399.34 1488.08 391.15 1493.28 389.37 1497.13 386.21 1499.04 368.31 1501.45 365.13 1503.69 363.75 1507.79 366.3 1511.56 364.53 1513.58 356.08 1518.21 350.61 1522.62 346.91 1524.22 330.42 1523.25 322.64 1521.08 298.97 1503 295.99 1493.23 289.93 1491.53 283.48 1493.46 278.21 1493.11 263.68 1497.62 259.46 1505.79 251.08 1509.38 240.62 1507.69 227.75 1500.5 224.88 1500.09 213.51 1502.47 209.68 1506.87 199.55 1502.14 189.66 1501.78 179.58 1492.87 175.82 1491.83 168.25 1486.78 170.61 1474.51 171.19 1460.52 169.78 1453.27 164.19 1444.55 163.66 1440.57 166.98 1427.06 168.09 1418.69 170.26 1410.86 180.36 1408.05 181.69 1400.68 173.96 1403.03 167.98 1403.1 165.97 1397.76 167.77 1382.14 169.76 1371.23 174.68 1376.36 181.87 1373.8 186.07 1375.32 194.86 1386.82 198.33 1392.47 201.52 1389.35 204.91 1388.91 212.87 1393.21 219.6 1392.02 225.18 1376.11 229.32 1371.77 230.95 1367.32 237.57 1363.17 259.2 1359.02 269.85 1360.93 277.23 1361.2 284.39 1365.1 288.76 1354.38 291.45 1346.06 293.05 1332.52 292.92 1323.67 289.02 1314.06 285.78 1311.42 276.81 1309.07 273.22 1304.66 268.51 1301.03 266.75 1294.59 270.51 1283.91 276.06 1284.93 278.67 1279.66 279.73 1273.88 284.5 1271.39 290.69 1274.46 292.35 1273.51 295.02 1263.65 296.83 1262.36 305.46 1262.72 308.08 1256.92 318.5 1253.71 322.73 1251.6 331.3 1249.18 332.51 1240.71 330.67 1232.93 324.74 1220.06 Z" id="PT-02" data-name="Beja"/>
<path d="M 231.53 1080.7 241.65 1082.62 243.72 1086.71 241.19 1091.65 240.93 1097.56 235.13 1105.19 214.83 1119.47 206.08 1130.68 206.12 1136.05 209.34 1147.99 216.51 1148.98 225.87 1154.63 232.93 1155.65 238.81 1157.59 239.79 1151.58 242.99 1150.67 249.07 1156.5 252.07 1157.68 259.01 1157.38 268.08 1152.56 274.71 1152.52 283.73 1163.35 287.54 1175.23 286.46 1179.75 292.87 1184.42 294.09 1186.88 293.21 1192.31 289.29 1199.33 289.29 1201.67 296.05 1204.53 304.39 1210.23 315.58 1212.96 324.74 1220.06 330.67 1232.93 332.51 1240.71 331.3 1249.18 322.73 1251.6 318.5 1253.71 308.08 1256.92 305.46 1262.72 296.83 1262.36 295.02 1263.65 292.35 1273.51 290.69 1274.46 284.5 1271.39 279.73 1273.88 278.67 1279.66 276.06 1284.93 270.51 1283.91 266.75 1294.59 268.51 1301.03 273.22 1304.66 276.81 1309.07 285.78 1311.42 289.02 1314.06 292.92 1323.67 293.05 1332.52 291.45 1346.06 288.76 1354.38 284.39 1365.1 277.23 1361.2 269.85 1360.93 259.2 1359.02 237.57 1363.17 230.95 1367.32 229.32 1371.77 225.18 1376.11 219.6 1392.02 212.87 1393.21 204.91 1388.91 201.52 1389.35 198.33 1392.47 194.86 1386.82 186.07 1375.32 181.87 1373.8 174.68 1376.36 169.76 1371.23 170.78 1365.67 170.35 1355.47 168.93 1348.16 165.08 1340.36 157.03 1338.82 147.1 1332.59 148.26 1330.01 153.73 1326.1 166.29 1298.87 170.82 1276.95 176.3 1260.39 175.44 1243.8 173.62 1224.27 171.29 1207.17 165.02 1194.93 151.12 1179.34 142.3 1172.01 135.52 1169.36 139.23 1165.52 144.75 1167.81 153.73 1175.72 164.8 1179.53 170.06 1182.46 170.44 1186.49 180.52 1186.11 204.79 1192.72 216.93 1188.78 203.37 1186.98 185.57 1178.51 182.02 1171.67 182 1163.4 185.33 1158.99 179.5 1151.8 176.56 1143.35 171.8 1153.19 172.36 1157.42 174.88 1161.91 174.94 1166.98 172.91 1169.36 162.27 1167.61 153.73 1163.02 144.44 1159.76 132.54 1162 121.66 1174.67 123.58 1176.15 109.83 1181.97 86.29 1184.85 77.45 1189.73 73.03 1190.7 65.69 1188.78 65.59 1182.9 75.54 1172.11 77.03 1162.32 77.05 1147.62 71.16 1133.39 63.79 1121.6 60.35 1112.27 64.78 1109.82 86.44 1107.43 91.51 1110.56 97.64 1106.01 108.9 1103.51 108.9 1101.58 116.47 1093.3 132.07 1080.36 135.52 1078.05 140.25 1077.37 141.14 1085.96 143.16 1088.14 148.32 1088.66 159.87 1084.08 164.48 1085.4 166.74 1088.45 173.6 1090.91 179.3 1089.7 182.95 1084.87 186.52 1073.79 193.57 1059.74 195.2 1059.13 201.27 1063.2 207.98 1065.69 216.69 1061 217.93 1061.7 217.48 1075.56 220.23 1079.02 231.53 1080.7 Z" id="PT-15" data-name="Setúbal"/>
<path d="M 140.25 1077.37 135.52 1078.05 135.52 1076.14 130.27 1065.83 128.81 1059.42 130.55 1054.68 124.92 1055.06 122.38 1050.05 118.81 1035.14 129.1 1013.14 135.37 1003.39 143.81 996.81 148.66 995.62 159.06 994.74 163.66 992.76 172.43 986.09 172.86 987.83 165.9 995.75 156.91 998.34 160.28 1003.12 155.52 1010.2 149.6 1021.88 141.23 1044.69 137.6 1051.51 132.33 1057.72 132.27 1061.55 138.44 1070.26 140.25 1077.37 Z M 172.09 982.4 161.27 990.43 140.34 992.76 137.16 995.43 132.5 1004.33 120.75 1021.31 107.32 1048.22 99.87 1056.89 95.77 1066.16 96.82 1082.4 97.79 1089.78 94.33 1097.14 82.02 1101.02 68.23 1103.44 52.46 1101.93 48.03 1105.36 43.59 1110.76 34.19 1104.8 23.47 1100.27 17.55 1099.29 7.25 1100.78 2.4 1099.19 2.5 1092.93 4.09 1087.65 1 1074.11 1 1067.41 2.34 1064.46 11.18 1054.74 19.12 1029.53 18.48 1010.74 15.75 998.93 18.17 991.99 19.16 983.59 28.58 966.27 31.56 957.87 36.54 946.48 37.53 934.62 39.03 924.72 37.34 916.68 48.96 916.47 61.15 908.99 67.27 910.2 71.1 916.33 76.64 935.26 80.55 939.01 85.65 934.84 90.47 929.07 96.13 919.24 101.28 913.09 105.35 910.67 111.64 910.95 123.03 914.64 125.93 922.06 125.46 926.73 142.25 931.62 152 928.66 153.95 933.26 166.07 945.35 162.69 948.48 158.87 949.52 151.63 949.17 145.21 952.6 146.34 956.13 149.99 958.5 152.94 964.44 161.53 972.05 166.51 974.09 172.09 982.4 Z M 111.64 1049.4 111.57 1055.14 108.38 1060.18 103.87 1064.79 102.29 1064.18 106.72 1054.19 111.64 1049.4 Z" fill-rule="evenodd" id="PT-11" data-name="Lisboa"/>
<path d="M 316.31 1007.85 312.67 1012.94 308.25 1013.42 306.24 1018.23 304.61 1029.28 301.77 1032.94 301.54 1037.45 305.16 1040.26 317.69 1045.94 320.67 1046.43 322.85 1049.72 321.48 1057.44 326.9 1064.43 330.87 1065.62 332.79 1070.01 331.51 1074.38 327.29 1078.39 323.37 1076.28 320.99 1070.83 317.16 1070.22 315.05 1065.21 311.02 1062.66 303.43 1061.07 294.77 1052.58 291.52 1051.31 288.68 1054.99 282.07 1055.83 273.23 1054.06 269.88 1060.17 261.38 1061.8 253.94 1068.71 243.15 1070.83 231.53 1080.7 220.23 1079.02 217.48 1075.56 217.93 1061.7 216.69 1061 207.98 1065.69 201.27 1063.2 195.2 1059.13 193.57 1059.74 186.52 1073.79 182.95 1084.87 179.3 1089.7 173.6 1090.91 166.74 1088.45 164.48 1085.4 159.87 1084.08 148.32 1088.66 143.16 1088.14 141.14 1085.96 140.25 1077.37 138.44 1070.26 132.27 1061.55 132.33 1057.72 137.6 1051.51 141.23 1044.69 149.6 1021.88 155.52 1010.2 160.28 1003.12 156.91 998.34 165.9 995.75 172.86 987.83 172.43 986.09 172.09 982.4 166.51 974.09 161.53 972.05 152.94 964.44 149.99 958.5 146.34 956.13 145.21 952.6 151.63 949.17 158.87 949.52 162.69 948.48 166.07 945.35 153.95 933.26 152 928.66 142.25 931.62 125.46 926.73 125.93 922.06 123.03 914.64 122.35 904.44 120.91 898.83 121.92 895.07 127.22 886 131.95 884.86 136.22 880.35 143.88 864.19 147.18 860.79 154.3 858.05 170.19 856.72 181.95 857.99 185.43 855.52 186.31 851.51 184.26 847.37 184.09 842.74 193.29 841.65 201.08 831.1 198.18 822.72 197.81 816.88 195.65 806.97 205.1 800 207.82 795.28 206.89 790.24 201.37 784.52 199.99 770.29 202.62 765.51 213.76 760.56 218.17 761.78 225.55 758.89 237.35 750.23 242.94 749.01 249.91 745.31 253.26 758.55 256.67 775.3 279.56 767.02 285.43 766.97 284.19 758.57 286.25 757.77 296.38 758.73 297.8 763.59 306.21 767.31 308.84 772.25 309.18 781.33 307.47 784.2 308.5 801.4 310.66 805.48 324.12 810.78 330.23 815.03 343.93 814.41 349.13 812.49 346.85 800.49 349.85 793.23 352.69 777.12 353.89 774.78 358.94 773.88 366.59 776.63 372.54 776.73 375.12 782.34 376.11 799.29 388.28 803.06 396.34 808.81 401.35 814.74 406.41 822.7 409.17 830.51 411.39 833.61 404.62 837.91 397.55 845.21 393.87 841.44 384.01 836 379.42 834.8 371.8 839.98 366.7 847.66 361.57 861.4 371.09 871.39 374.97 874.2 376.36 878.32 371.6 886.04 358.22 895.57 357.45 899.74 352.86 907.52 343.34 918.95 335.1 918.92 329.65 922.7 327.03 929.28 321.22 933.97 306.91 947.36 293.44 956.96 290.21 960.36 283.16 971.61 283.05 976.7 288.76 979.29 293.49 983.29 295.19 988.78 299.3 993.48 302.29 1001.46 305.53 1004.31 316.31 1007.85 Z" id="PT-14" data-name="Santarém"/>
<path d="M 333.42 718.79 328.71 728.2 324.04 731.99 319.76 733.48 314.22 739.95 311.83 739.56 301.11 742.94 298.46 746.16 298.5 749.66 295.1 753.68 296.38 758.73 286.25 757.77 284.19 758.57 285.43 766.97 279.56 767.02 256.67 775.3 253.26 758.55 249.91 745.31 242.94 749.01 237.35 750.23 225.55 758.89 218.17 761.78 213.76 760.56 202.62 765.51 199.99 770.29 201.37 784.52 206.89 790.24 207.82 795.28 205.1 800 195.65 806.97 197.81 816.88 198.18 822.72 201.08 831.1 193.29 841.65 184.09 842.74 184.26 847.37 186.31 851.51 185.43 855.52 181.95 857.99 170.19 856.72 154.3 858.05 147.18 860.79 143.88 864.19 136.22 880.35 131.95 884.86 127.22 886 121.92 895.07 120.91 898.83 122.35 904.44 123.03 914.64 111.64 910.95 105.35 910.67 101.28 913.09 96.13 919.24 90.47 929.07 85.65 934.84 80.55 939.01 76.64 935.26 71.1 916.33 67.27 910.2 61.15 908.99 48.96 916.47 37.34 916.68 35.76 909.24 32.91 903.04 24.2 893.88 25.16 889.87 36.04 893.03 53.91 881.14 58.38 877.18 63.34 876.69 68.85 881.03 71.68 878.11 69.84 873.99 65.87 870.18 69.81 863.81 77.27 853.9 88.71 846.48 99.68 826.64 99.7 815.2 102.71 806.75 104.23 794.79 123.3 743.46 145.25 678.86 158.55 685.58 166.35 687.2 177.62 682.06 194.82 683.63 199.87 684.97 211.55 695.03 216.09 693.56 219.83 687.25 226.51 684.99 229.79 687.52 231.38 694.61 232.12 704.98 234.23 707.81 240.39 700.78 246.8 696.88 254.74 690.03 263.98 690.62 267.23 697.37 270.62 707.6 268.82 712.37 269.51 715.21 279.41 711.43 287.93 701.75 294.29 703.11 298.35 698.69 293.61 693.04 293 688.82 296.73 682.94 307.06 673.6 314.3 676.42 321.73 666.52 326.38 669.68 328.78 674.11 327.09 683.03 327.82 688.47 337.87 704.85 334.07 708.33 333.42 718.79 Z" id="PT-10" data-name="Leiria"/>
<path d="M 416.87 620.29 410.87 635.22 413.39 641.35 419.98 648.55 426.62 653.22 428.16 660.44 427.05 663.94 420.11 669.32 411.09 669.32 410.79 680.98 406.08 677 401.65 675.45 395.23 676.08 389.54 679.03 385.74 684.84 386.83 689.19 384.09 692.45 377.54 692.88 371.43 699.65 367.21 698.32 362.56 700.92 357.81 701.65 356.24 706.23 346.71 707.56 344.05 710.72 340.78 711.2 333.42 718.79 334.07 708.33 337.87 704.85 327.82 688.47 327.09 683.03 328.78 674.11 326.38 669.68 321.73 666.52 314.3 676.42 307.06 673.6 296.73 682.94 293 688.82 293.61 693.04 298.35 698.69 294.29 703.11 287.93 701.75 279.41 711.43 269.51 715.21 268.82 712.37 270.62 707.6 267.23 697.37 263.98 690.62 254.74 690.03 246.8 696.88 240.39 700.78 234.23 707.81 232.12 704.98 231.38 694.61 229.79 687.52 226.51 684.99 219.83 687.25 216.09 693.56 211.55 695.03 199.87 684.97 194.82 683.63 177.62 682.06 166.35 687.2 158.55 685.58 145.25 678.86 153.57 654.32 157.18 649.75 160 653.96 164.02 655.83 173.74 656.26 173.74 653.9 166.18 647.43 161.95 645.8 150.85 644.36 146.71 641.66 144.25 637.01 143.81 630.25 146.88 621.34 154.24 606.5 170.44 543.16 173.03 527.69 200.31 555.83 208.38 556.78 211.16 548.27 216.43 540.12 225.74 546.56 224.24 554.35 225.21 563.22 228.95 566.03 238.81 560.76 241.63 560.49 242.92 566.84 246.11 574.38 244.61 581.07 241.07 584.7 237.78 591.57 237.39 599.72 239.08 601.76 253.2 603.26 267.27 584.79 274.23 584.63 279.14 575.79 284.26 578.85 291.73 580.94 301.22 588.37 308.45 592.16 311.52 586.07 321.76 584.09 335.87 586.32 354.23 572.7 367.36 567.2 382.31 557.29 388.11 548.19 401.58 537.01 406.56 535.7 409.04 542.9 412.3 548.73 409.91 553.77 405.79 555.66 403.42 559.3 405.12 562.5 411.39 564.77 414.54 580.58 419.67 586.13 419.81 590.01 414.31 593.91 410.5 599.74 406.56 610.94 413.16 614.74 416.87 620.29 Z" id="PT-06" data-name="Coimbra"/>
<path d="M 279.14 575.79 274.23 584.63 267.27 584.79 253.2 603.26 239.08 601.76 237.39 599.72 237.78 591.57 241.07 584.7 244.61 581.07 246.11 574.38 242.92 566.84 241.63 560.49 238.81 560.76 228.95 566.03 225.21 563.22 224.24 554.35 225.74 546.56 216.43 540.12 211.16 548.27 208.38 556.78 200.31 555.83 173.03 527.69 173.77 523.27 178.39 508.67 181.49 490.06 183.52 497.02 188.36 488.88 191.85 486.02 196.76 486.12 194.63 481.39 197.64 478.2 201.13 481.75 205.58 478.43 208.5 473.01 204.65 470.69 202.5 466.92 203.15 463.44 217.64 459.69 215.01 456.76 207.58 458.43 201.99 455.95 200.23 453.36 198.29 444.54 207.53 431.54 204.77 429.98 200.23 431.3 196.81 437.82 194.21 446.18 192.55 455.04 191.96 463.09 188.26 475.62 185.02 482.49 182.02 486.12 205.22 376.96 205.2 369.62 218.13 367.53 222.1 370.13 236.5 364.61 244.14 369.64 248.46 368.17 251.14 361.95 255.4 357.13 260.37 362.34 263.27 367.72 267.61 371.16 270.4 369.75 268.94 362.22 275.3 359.14 280.12 360.84 291.84 352.6 293.69 348.16 308.39 357.67 310.01 362.77 309.65 371.94 327.86 380.74 334.01 380.19 337.03 374.35 340.26 371.57 342.78 372.82 342.38 377.1 334.74 388.29 332.79 395.53 335.38 410.23 337.44 416.03 336.07 421.99 331.77 422.36 325.8 419.19 315.74 421.94 310.97 420.64 303.52 421.39 306.27 431.25 298.84 447.39 293.16 453.74 287.54 458.26 285.26 462.44 285.58 467.28 290 472.96 292.24 477.87 292.47 486.84 294.15 491.1 303.77 497.04 293.89 501.02 290.98 507.26 295.22 519.98 302.65 530.38 289.35 535.78 283.72 540 283.84 543.9 286.25 548.36 285.11 555.21 278.17 565.96 279.14 575.79 Z" id="PT-01" data-name="Aveiro"/>
<path d="M 369.99 255.72 374 260.84 374.12 266.53 375.88 269.24 386.02 276.18 384.99 280.35 386.02 285.17 390.06 292.68 394.24 295.53 390.87 308.42 389.25 323.78 378.56 330.58 349 340.93 342.11 341.61 317.93 339.87 309.98 341.69 293.69 348.16 291.84 352.6 280.12 360.84 275.3 359.14 268.94 362.22 270.4 369.75 267.61 371.16 263.27 367.72 260.37 362.34 255.4 357.13 251.14 361.95 248.46 368.17 244.14 369.64 236.5 364.61 222.1 370.13 218.13 367.53 205.2 369.62 205.18 365.16 202.31 343.6 202.55 332.27 206.86 325.82 197.79 323.66 193.08 314.83 189.88 303.68 185.33 294.6 186.51 290.32 183.52 279.19 183.56 269.28 180.73 265.27 178.82 258.56 174.02 248.04 173.59 234.78 176.13 224.2 181.83 224.28 193.86 230.75 202.34 231.78 210.07 239.79 218.58 244.72 218.67 248.36 213.12 252.27 214.46 259.06 217.56 262.4 234.43 261.82 238.31 260.72 246.52 254.91 253.65 253.8 257.23 256.12 263.27 257.03 270.67 255.12 280.65 253.72 285.91 256.78 294.96 254.04 302.42 250.45 307.24 246.86 310.88 241.34 322.89 245.8 327.8 250.91 328.3 255.81 336.94 262.32 344.68 265.72 347.31 265.09 355.28 270.28 361.45 267.86 368.68 260.29 369.99 255.72 Z" id="PT-13" data-name="Porto"/>
<path d="M 533.6 323.71 527.45 344.53 524.43 360.01 525.63 368.6 522.52 370.79 516.66 370.42 517.86 377.39 524.19 381.53 525.85 389.4 523.7 394.96 516.06 402.05 506.84 399.92 503.84 401.52 506.71 413.01 506.48 416.51 500.93 429.38 498.48 432.87 494.58 432.71 483.27 420.44 477.23 416.7 471.23 416.19 465.47 420.92 462.77 429.63 457.27 438.5 456.8 442.94 464.93 450.3 466.93 454.39 466.34 458.51 463.57 461.92 466.06 466.63 471.42 470.18 475.6 475.82 474.47 483.75 471.14 487.73 465.45 505.41 466.43 511.94 450.26 514.73 440.01 518.57 432.35 524.3 425.22 526.74 418.74 531.35 408.96 533.28 406.56 535.7 401.58 537.01 388.11 548.19 382.31 557.29 367.36 567.2 354.23 572.7 335.87 586.32 321.76 584.09 311.52 586.07 308.45 592.16 301.22 588.37 291.73 580.94 284.26 578.85 279.14 575.79 278.17 565.96 285.11 555.21 286.25 548.36 283.84 543.9 283.72 540 289.35 535.78 302.65 530.38 295.22 519.98 290.98 507.26 293.89 501.02 303.77 497.04 294.15 491.1 292.47 486.84 292.24 477.87 290 472.96 285.58 467.28 285.26 462.44 287.54 458.26 293.16 453.74 298.84 447.39 306.27 431.25 303.52 421.39 310.97 420.64 315.74 421.94 325.8 419.19 331.77 422.36 336.07 421.99 337.44 416.03 335.38 410.23 332.79 395.53 334.74 388.29 342.38 377.1 342.78 372.82 340.26 371.57 337.03 374.35 334.01 380.19 327.86 380.74 309.65 371.94 310.01 362.77 308.39 357.67 293.69 348.16 309.98 341.69 317.93 339.87 342.11 341.61 349 340.93 378.56 330.58 389.25 323.78 402.04 315.62 406.85 314.98 410.17 316.45 418.84 324.44 427.6 325.89 436.28 323.69 446.82 317.02 451.61 316.63 461.81 317.75 473.11 316.17 501.69 305.46 505.29 305.54 508.98 308.2 516.22 318.78 519.29 321.54 527.41 324.22 533.6 323.71 Z" id="PT-18" data-name="Viseu"/>
</g>
</svg>