<?xml version="1.0"?>
<svg xmlns="http://www.w3.org/2000/svg" version="1.2" baseProfile="tiny" width="800" height="565" viewBox="0 0 800 565" stroke-linecap="round" stroke-linejoin="round">
<g id="MLOC-RO">
<path d="M 223.88 42.47 227.11 40.9 229.1 35.03 235.95 37.68 239.57 34.8 244.26 24.17 247.91 23.61 253.8 25.66 264.69 36.61 275.3 39 276.69 44.05 280.71 49.76 287.52 56.18 286.73 58.93 274.76 68.14 269.29 69.45 263.24 67.4 257.23 67.36 254.49 70.75 256.12 73.3 261.87 74.91 264.76 77.59 264.64 80.76 261.61 87.95 256.9 93.86 252.61 94.21 246.37 88.99 244.11 89.05 239.12 95.36 237.29 100.29 231.59 105.57 234.1 109.1 241.88 110.6 243.11 116.7 238.55 121.61 231.22 118.12 226.77 114.63 217.47 112.04 213.48 112.64 202.39 118.04 198.76 120.95 195.56 113.27 189.59 109.59 185.89 111.17 180.11 111.01 172.16 97.34 168.68 94.74 163.82 86.75 166.91 77.78 171.78 71.56 176.88 69.04 180.79 69.63 184.1 68.13 185.48 63.17 188.08 62.56 197.26 66.36 203.58 64.55 208.15 59.63 212.73 57.83 213.32 53.26 220.36 48.06 223.88 42.47 Z" id="RO-SM" data-name="Satu Mare"/>
<path d="M 100.88 203.16 106.67 204.76 134.9 203.18 142.19 205.7 147.83 208.71 155.29 209.01 161.94 212.45 167.35 223.25 172.52 225.71 176.54 229.18 182.88 231.6 185.19 236.1 187.76 237.12 195.43 237.28 201.88 238.67 209.42 238.73 213.53 243.01 207.98 247.12 203.8 255.54 200.46 258.04 192.11 257.07 189.42 257.92 186.32 262.29 185.98 269.85 184.09 275.08 185.14 280.69 183.6 284.78 179.67 289.87 176.89 293.25 169.01 296.81 160.75 295.31 154.62 289.54 149.76 288.81 145.85 285.94 142.18 286.49 140.22 291.62 134.61 291.01 131.82 292.53 127.37 289.9 124.86 291.12 121.75 295.72 118.69 292.42 119.15 289.97 114.47 284.74 110.37 284.35 106.64 279.31 101.51 279.62 100.37 283.35 96.23 287.07 93.02 285.3 87.45 287.56 82.57 284.56 81.62 281.48 78.15 282.6 77.1 286.59 73.25 286.19 72.15 282.49 58.25 279.25 53.25 272.11 40.04 263.22 43.46 259.34 43 254.8 47.06 251.63 51.49 250.69 69.4 254.97 73.44 250.04 76.46 249.78 78.97 244.92 80.17 236.81 83.25 234.54 88.79 232.89 85.79 225.47 86 222.94 89.69 216.88 90.51 209.85 91.8 208.28 98.55 207.09 100.88 203.16 Z" id="RO-AR" data-name="Arad"/>
<path d="M 163.82 86.75 168.68 94.74 172.16 97.34 180.11 111.01 185.89 111.17 189.59 109.59 195.56 113.27 198.76 120.95 195.05 132.04 191.45 136.8 192.54 141.06 199.59 153.65 205.8 157.75 210.5 163.48 208 168.84 208.58 171.38 214.41 175.24 213.19 180.32 208.31 184.15 206.22 188.72 210.61 193.22 214.29 203.31 217.6 206.96 217.55 215.63 212.22 214.58 209.07 218.68 207.74 224.71 207.85 232.2 209.42 238.73 201.88 238.67 195.43 237.28 187.76 237.12 185.19 236.1 182.88 231.6 176.54 229.18 172.52 225.71 167.35 223.25 161.94 212.45 155.29 209.01 147.83 208.71 142.19 205.7 134.9 203.18 106.67 204.76 100.88 203.16 105.96 199.88 107.78 195.14 104.85 192.71 107.59 185.01 110.44 181.34 115.11 178.17 114.85 172.54 119.91 167.99 121.52 161.86 118.7 158.51 121.88 154.13 127.94 149.55 134.92 137.93 134.72 134.22 137.98 123.94 144.31 116.48 148.08 115.37 149.77 111.91 148.7 99.51 152.81 93.71 158.06 89.74 162.68 88.33 163.82 86.75 Z" id="RO-BH" data-name="Bihor"/>
<path d="M 40.04 263.22 53.25 272.11 58.25 279.25 72.15 282.49 73.25 286.19 77.1 286.59 78.15 282.6 81.62 281.48 82.57 284.56 87.45 287.56 93.02 285.3 96.23 287.07 100.37 283.35 101.51 279.62 106.64 279.31 110.37 284.35 114.47 284.74 119.15 289.97 118.69 292.42 121.75 295.72 124.86 291.12 127.37 289.9 131.82 292.53 134.61 291.01 140.22 291.62 142.18 286.49 145.85 285.94 149.76 288.81 154.62 289.54 160.75 295.31 169.01 296.81 176.89 293.25 179.67 289.87 182.55 292.93 184.53 300.46 187.66 303.56 190.76 309.77 195.41 312.77 190.34 317.88 187.31 324.68 177.98 326.47 174.86 328.69 172.5 333.59 168.71 333.86 163.7 331.84 159.43 335.2 152.76 336.11 154.13 341.67 148.65 344.08 145.91 342.85 142.62 337.5 140.55 337.27 133.63 340.97 121.65 336.63 115.11 338.48 112 346.03 106.12 350.45 104.82 357.53 105.67 360.49 110.88 365.64 111.92 370.84 109.86 374.36 110.06 381.05 106.02 386.13 99.35 380.5 90.37 377.68 86.8 377.57 82.48 374.95 76.84 368 72.79 369.88 66.46 365.87 62.19 363.45 58.93 359.13 53.46 354.16 49.49 348.84 44.81 345.17 48.15 340.68 44.28 331.61 46.44 323.62 46.93 313.82 44.25 312.49 40.81 316.15 38.66 314.97 34.89 308.66 33.72 304.03 28.85 297.43 21.2 294.39 16.75 290.25 11.84 287.69 9.1 284.65 6.32 277.25 1 270.6 4.42 266.24 18.03 265.86 20.09 262.54 26.9 264.73 31.85 267.99 38.28 266.13 40.04 263.22 Z" id="RO-TM" data-name="Timis"/>
<path d="M 234.93 511.16 226.32 508.52 208.15 496.08 207.29 487 198.94 484.27 196.11 481.84 192.37 475.32 192.02 470.84 189.99 468.23 190.59 463.98 196.73 461.41 197.48 457.38 202.19 455.74 208.87 458.99 212.38 457.8 214.36 454.13 208.87 448.45 202.19 447.64 196.44 443.87 190.56 437.35 185.68 436.2 181.84 440.14 176.68 441.95 165.3 462.16 162.18 463.85 158.46 462.81 152.7 453.34 152.54 452.54 157.15 451.7 162.32 452.36 164.25 448.07 163.62 439.94 167.04 432.91 168.41 427.56 171.85 427.3 175.96 430.93 179.6 430.95 182.45 433.82 187.01 431.94 191.24 418.21 194.79 412.28 197.57 401.56 203.87 393.36 207.19 394.92 210.81 399.65 217.65 400.28 221.14 401.79 227.27 407.65 226.84 412.8 228.94 423.33 236.49 431.95 242.98 438.1 246.53 440.24 261.2 444.46 268.63 449.15 273.4 453.84 275.63 457.99 265.27 460.81 260.46 463.28 256.37 467.89 252.75 469.7 251.63 473.86 254.11 478.85 249.65 481.45 245.36 495.2 246.03 502.87 241.9 503.88 234.93 511.16 Z" id="RO-MH" data-name="Mehedinti"/>
<path d="M 238.68 541.44 227.43 542.44 222.68 539.96 221.59 535.08 224.58 523.63 236.18 519.26 237.62 515.65 234.93 511.16 241.9 503.88 246.03 502.87 245.36 495.2 249.65 481.45 254.11 478.85 251.63 473.86 252.75 469.7 256.37 467.89 260.46 463.28 265.27 460.81 275.63 457.99 283.4 452.47 296.55 448.6 296.45 436.73 299.83 437.52 301.59 443.18 308.76 448.2 310.5 454.07 315.28 460.44 312.08 464.22 310.84 468.05 315.32 471.74 319.15 476.66 322.06 477.74 326.36 484 329.09 486.48 332.31 491.87 340.04 497.13 340.42 507.07 342.19 510.24 337.12 511.59 336.15 517.59 338.17 519.66 341.94 520.06 343.65 523.3 340.81 526.62 341.82 532.4 340.77 535.6 336.1 541.87 331.48 551.76 301.9 544.29 295.2 541.08 286.75 542.47 284.37 542.07 275.23 537 261.74 536.3 254.06 537.39 245.38 540.83 238.68 541.44 Z" id="RO-DJ" data-name="Dolj"/>
<path d="M 593.96 508.68 581.07 505.98 574.92 502.14 572.72 503.55 562.79 504.56 554.78 509.34 547.95 510.26 539.95 513 523.17 515.48 523.91 511.13 526.36 507.63 526.89 501.19 523.11 494.21 515.6 489.73 511.69 485.09 512.59 481.96 516.97 475.63 525.08 470.72 526.95 467.74 522.82 464.46 524.72 461.2 531.44 457.65 540.16 460.89 543.61 459.99 548.56 456.73 554.3 460.84 559.01 460.54 564.09 462.64 572.6 462.29 578.8 464.89 588.29 464.44 603.36 464.72 612 463.19 623.78 465.4 632.01 468.15 638.59 473.7 646.31 476.98 659.11 481.16 656.63 487.1 651.6 491.64 639.32 494.73 634.59 498.27 624.02 498.79 616.24 502.65 610.22 507.2 597.33 505.14 593.96 508.68 Z" id="RO-CL" data-name="Calarasi"/>
<path d="M 465.41 555.96 460.2 556.13 455.56 559.59 450.49 561.63 444.22 561.7 437.51 564 433.83 563.51 427.55 559.28 421.29 556.77 410.31 555.95 400.34 552.36 382.49 553.62 374.8 551.65 378.72 547.39 381.86 545.62 381.5 542.91 377.85 536.87 372.25 524.04 374.46 517.72 380.91 515.52 383.43 512.78 389.98 509.36 389.38 500.22 390.59 493.61 389.63 482.81 390.84 476.99 394.46 476.07 401.82 476.86 405.27 473.85 412 473.08 415.66 470.21 419.49 469.47 426.97 471.39 431.19 471.58 436.71 464.39 436.9 460.64 446.86 463.26 448.8 466.48 445.17 475.02 448.03 481.87 449.94 484.14 458.62 485.53 463.43 489.72 464.23 492.89 464.26 504.17 461.07 505.42 457.75 514.3 458.27 524.45 460.44 536.66 463.96 543.96 465.41 555.96 Z" id="RO-TR" data-name="Teleorman"/>
<path d="M 523.17 515.48 516.11 516.52 507.58 519.75 500.75 521.52 494.71 526.62 492.6 530.7 482.42 538.21 476.95 546.35 471.61 550.71 469.49 554.42 465.41 555.96 463.96 543.96 460.44 536.66 458.27 524.45 457.75 514.3 461.07 505.42 464.26 504.17 464.23 492.89 463.43 489.72 458.62 485.53 449.94 484.14 448.03 481.87 445.17 475.02 448.8 466.48 446.86 463.26 450.05 459.25 454.09 457.68 480.15 456.14 482.25 460.71 481.94 464.09 479.36 470.36 478.6 475.72 479.98 479.44 483.84 481.06 487.1 484.2 489.94 484.7 499.11 491.97 503.97 492.21 511.69 485.09 515.6 489.73 523.11 494.21 526.89 501.19 526.36 507.63 523.91 511.13 523.17 515.48 Z" id="RO-GR" data-name="Giurgiu"/>
<path d="M 630.33 524.48 628.11 520.18 621.19 521.07 605.06 521.21 601.49 516.74 596.73 514.46 593.96 508.68 597.33 505.14 610.22 507.2 616.24 502.65 624.02 498.79 634.59 498.27 639.32 494.73 651.6 491.64 656.63 487.1 659.11 481.16 661.26 476.01 665.54 472.2 666.4 468.96 664.46 463.4 657.79 460.16 659 457.73 660.1 448.41 655.32 442.67 650.11 440.86 646.77 434.94 649.64 431.24 654.23 431.25 656.76 432.93 661.82 431.04 669.47 430.38 673.73 432.09 681.04 438.95 684.7 438.09 686.52 432.95 691.4 432.95 695.66 438.09 701.75 440.66 708.45 440.66 713.94 438.95 718.81 441.52 723.62 442.62 724.22 446.78 730.73 444.74 734.33 440.64 739.02 440.08 740.72 443.14 734.48 442.59 729.44 448.01 721.84 452.58 720.36 456.13 722.67 457.75 720.25 465.6 725.56 460.98 729.56 455.93 734.13 453.96 728.58 464.7 724.58 467.76 716.95 478.04 715.81 482.17 711.39 484.25 710.56 491.84 713.45 499.52 713.43 502.31 710.55 504.8 713.96 522.59 711.13 532.54 708.73 537.72 706.62 546.35 706.11 553.33 693.94 554.04 675.9 550.91 658.43 542.93 655.58 540.67 651.76 527.17 649.74 523.77 645.04 524.32 639.19 527.63 633.64 529.01 630.33 524.48 Z" id="RO-CT" data-name="Constanta"/>
<path d="M 331.48 551.76 336.1 541.87 340.77 535.6 341.82 532.4 340.81 526.62 343.65 523.3 341.94 520.06 338.17 519.66 336.15 517.59 337.12 511.59 342.19 510.24 340.42 507.07 340.04 497.13 332.31 491.87 329.09 486.48 326.36 484 322.06 477.74 319.15 476.66 315.32 471.74 310.84 468.05 312.08 464.22 315.28 460.44 320.5 457.92 326.91 461.51 331.48 456.08 337.15 456.31 340.33 454.02 341.29 450.54 345.71 455.22 347.01 454.09 343.04 434.74 347.22 428.15 348.71 421.11 353.29 414.76 356.03 416.78 355.86 422.33 358.89 425.59 362.9 421.98 365.01 417.76 371.41 432.05 374.08 435.02 379.54 435.26 377.39 440.7 380.14 446.02 382.35 458.52 381.74 462.89 383.57 473.85 384.93 475.43 390.84 476.99 389.63 482.81 390.59 493.61 389.38 500.22 389.98 509.36 383.43 512.78 380.91 515.52 374.46 517.72 372.25 524.04 377.85 536.87 381.5 542.91 381.86 545.62 378.72 547.39 374.8 551.65 361.13 546.51 355.3 547.14 350.58 550.69 347.3 551.23 331.48 551.76 Z" id="RO-OT" data-name="Olt"/>
<path d="M 106.02 386.13 110.06 381.05 109.86 374.36 111.92 370.84 110.88 365.64 105.67 360.49 104.82 357.53 106.12 350.45 112 346.03 115.11 338.48 121.65 336.63 133.63 340.97 140.55 337.27 142.62 337.5 145.91 342.85 148.65 344.08 154.13 341.67 152.76 336.11 159.43 335.2 163.7 331.84 168.71 333.86 172.5 333.59 174.86 328.69 177.98 326.47 187.31 324.68 190.53 330.89 195.1 332.61 195.52 335.91 204.91 341.92 207.03 345.26 208.69 354.85 206.77 359.55 209.43 365.76 206.92 371.4 206.24 375.6 198.08 383.97 197.53 387.8 203.32 389.15 203.87 393.36 197.57 401.56 194.79 412.28 191.24 418.21 187.01 431.94 182.45 433.82 179.6 430.95 175.96 430.93 171.85 427.3 168.41 427.56 167.04 432.91 163.62 439.94 164.25 448.07 162.32 452.36 157.15 451.7 152.54 452.54 150 445.97 137.41 440.39 129.07 442.91 120.56 441.67 117.47 438.55 115.43 432.35 112.29 430.48 107.11 430.91 99.91 430.11 95.49 425.12 94.35 422.86 98.49 419.75 103.4 420 109.22 418.66 110.65 415.36 108.73 412.32 99.6 409.4 95.79 402.44 100.74 400.66 102.48 393.3 107.16 388.63 106.02 386.13 Z" id="RO-CS" data-name="Caras-Severin"/>
<path d="M 576.65 20.38 575.49 22.87 577.6 28.41 581.84 31.51 587.67 43.06 586.19 45.63 590.56 49.69 591.13 59.24 596.96 67.18 595.6 71.67 598.31 77.75 603.82 85.06 608.92 88.84 609.08 89.53 604.41 91.73 598.57 91.43 594.67 95.24 592.22 99.74 588.74 99.48 580.42 96.33 578.62 98.83 580.28 103.29 576.03 106.83 568.94 101.55 554.77 101.5 550.91 99.55 543.7 107.8 540.21 107.3 536.01 102.63 535.55 95.08 532.56 84.34 523.2 72.73 511.96 57.67 499.98 48.84 498.1 46.17 496.67 38.49 502.64 36.61 505.32 31.02 509.6 26.6 512.27 19.97 513.67 8.89 525.62 6.9 537.69 4.16 540.27 2.94 544.32 1 550.94 3.37 556.09 3.02 563.94 9.28 567.36 9.81 569.77 17.6 576.65 20.38 Z" id="RO-BT" data-name="Botosani"/>
<path d="M 543.7 107.8 550.91 99.55 554.77 101.5 568.94 101.55 576.03 106.83 580.28 103.29 578.62 98.83 580.42 96.33 588.74 99.48 592.22 99.74 594.67 95.24 598.57 91.43 604.41 91.73 609.08 89.53 612.61 99.66 620.23 102.59 621.91 104.8 620.18 109.07 622.39 115.21 626.47 122.78 633.74 125.7 639.28 135.54 640.82 142.96 643.97 146.72 654.06 155.54 660.41 159 664.18 164.45 666.06 170.81 667.55 180.45 658.83 183.34 656.26 181.61 653.44 183.55 649.12 182.47 642.07 179 643.46 174.49 641.45 171.03 638.14 175.34 632.62 168.69 625.51 164.16 625.77 175.94 619.9 174.75 617.44 178.22 612.84 179.39 607.64 177.87 599.68 178.99 589.92 178.31 584.8 169.08 586.4 165.43 592.85 161.95 585.11 151.61 580.72 152.41 575.87 157.02 570.37 155.96 566.48 160.24 561.8 159.52 554.62 154.45 548.95 151.97 542.85 151.44 538.98 141.5 534.66 135.17 528.8 129.4 535.29 127.91 536.44 125.39 531.26 120.57 532.09 116.95 540.96 118.01 543.5 117.01 544.89 112.04 543.7 107.8 Z" id="RO-IS" data-name="Iasi"/>
<path d="M 589.92 178.31 599.68 178.99 607.64 177.87 612.84 179.39 617.44 178.22 619.9 174.75 625.77 175.94 625.51 164.16 632.62 168.69 638.14 175.34 641.45 171.03 643.46 174.49 642.07 179 649.12 182.47 653.44 183.55 656.26 181.61 658.83 183.34 667.55 180.45 668.84 184.9 672.25 190.78 672.25 193.1 676.99 202.64 677.91 206.46 676.25 214.08 675.71 222.17 677.97 225.63 678 231.48 676.37 235.45 673.08 241.79 672.22 248.74 668.62 250.9 666.57 256.25 669.42 261.43 666.53 271.4 666.3 272.06 663.16 272.89 650.26 268.55 646.89 269.84 644.88 273.31 640.51 270.01 626 268.23 624.65 270.67 627.13 276.18 626.14 283.72 623.47 282.23 621.63 275.68 617.69 269.57 616.57 263.95 615.99 248.49 613.11 235.21 609.96 227.65 601.16 212.19 601 203.59 598.39 199.61 591.67 192.73 592.3 187.4 589.92 178.31 Z" id="RO-VS" data-name="Vaslui"/>
<path d="M 617.69 269.57 621.63 275.68 623.47 282.23 626.14 283.72 627.13 276.18 624.65 270.67 626 268.23 640.51 270.01 644.88 273.31 646.89 269.84 650.26 268.55 663.16 272.89 666.3 272.06 664.33 280.78 664.47 283.7 667.75 293.7 668.27 299.41 666.77 304.99 670.29 312.7 671.39 328.36 667.4 328.94 662.44 333.06 669.11 337.09 671.17 340.95 671.22 345.02 674.06 348.97 675.38 350.35 673.32 354.37 667.75 353.04 660.88 355.06 659.74 356.97 650.52 355.28 641.98 354.93 637.32 352.42 632.03 347.13 626.5 347.32 621.66 345.17 618.57 341.31 616.08 331 611.26 323.64 608.13 321.86 605.14 317.96 594.51 290.76 594.67 282.27 602.11 274.89 608.85 273.78 612.86 269.91 617.69 269.57 Z" id="RO-GL" data-name="Galati"/>
<path d="M 496.67 38.49 498.1 46.17 499.98 48.84 511.96 57.67 523.2 72.73 532.56 84.34 535.55 95.08 536.01 102.63 540.21 107.3 543.7 107.8 544.89 112.04 543.5 117.01 540.96 118.01 532.09 116.95 531.26 120.57 536.44 125.39 535.29 127.91 528.8 129.4 524.61 125.01 517.87 124.47 506.86 129.39 497.34 129.34 491.35 130.42 486.48 128.92 477.72 131.93 472.8 127.54 468.68 127.54 472.73 133.01 470.67 137.74 466.07 141.09 462.31 145.65 460.2 153.74 452.78 155.05 437.83 144.18 434.92 143.5 429.78 145.65 427.31 152.19 420.73 151.44 416.85 149.57 409.21 148.14 408.75 139.46 409.88 132.55 405.88 128.9 408.27 123.11 407.84 120.51 403.75 113.74 407.59 111.14 406.56 107.36 411.07 102.2 407.31 94.91 399.71 88.32 404.75 86.54 405.26 82.06 401.61 78.25 398.54 71.59 404.88 70.46 410.17 68.15 413.72 64.71 421.93 51.09 425.55 48.55 467.07 44.01 472.64 41.74 481.07 39.77 485.1 40.18 490.48 38.55 496.67 38.49 Z" id="RO-SV" data-name="Suceava"/>
<path d="M 241.88 110.6 234.1 109.1 231.59 105.57 237.29 100.29 239.12 95.36 244.11 89.05 246.37 88.99 252.61 94.21 256.9 93.86 261.61 87.95 264.64 80.76 264.76 77.59 261.87 74.91 256.12 73.3 254.49 70.75 257.23 67.36 263.24 67.4 269.29 69.45 274.76 68.14 286.73 58.93 287.52 56.18 280.71 49.76 276.69 44.05 275.3 39 277.75 35.87 281.88 35.02 294.33 37.63 300.22 37.32 308.38 44.03 316.9 40.51 326.84 43.59 329.92 46.54 338.36 48.75 344.02 45.87 348.19 45.74 355.07 41.74 367.02 43.67 373.74 48.97 374.77 54.19 379.12 57.71 385.96 60.41 393.07 71.19 397.39 71.8 398.54 71.59 401.61 78.25 405.26 82.06 404.75 86.54 399.71 88.32 392.48 88.25 383.04 94.06 367.12 94.6 351.25 90.85 343.88 93.91 340.41 99.88 337.85 101.98 329.05 104.69 327.88 109.77 322.71 117.37 319.46 120.55 305.41 119.47 303 121.56 298.69 123.01 292.35 119.18 287.82 115.2 272.9 115.48 254.98 109.08 246.12 109.02 241.88 110.6 Z" id="RO-MM" data-name="Maramures"/>
<path d="M 723.62 442.62 718.81 441.52 713.94 438.95 708.45 440.66 701.75 440.66 695.66 438.09 691.4 432.95 686.52 432.95 684.7 438.09 681.04 438.95 673.73 432.09 669.47 430.38 661.82 431.04 663.96 423.43 667.76 417.37 667.68 411.01 669.14 409.23 668.24 402.2 669.23 400.06 668.3 393.76 672.24 388.3 670.09 385.11 665.45 382.36 668.24 375.93 663.57 374.67 656.06 369.37 659.02 362.66 659.74 356.97 660.88 355.06 667.75 353.04 673.32 354.37 675.38 350.35 679.76 351.54 680.97 356.2 685.12 365.69 691.46 369.04 698.98 370.99 705.99 374.69 717.25 377.22 723.05 376.73 721.6 370.63 724.02 369.4 726.23 365.31 731.69 367.71 735.84 370.96 738.94 366.06 743.31 364.74 747.65 361.14 756.52 357.75 761.07 353.56 765.61 353.73 769.02 351.13 778.2 352.75 789.96 357.02 796.78 362.9 798.64 371.7 797.52 378.55 794.55 378.48 799 387.11 797.97 390.42 797.29 400.96 795.7 406.37 795.1 415.45 792.96 418.75 793.47 422.42 789.29 425.88 785 425.85 768.5 428.44 758.02 429.15 754.98 430.15 741.34 438.88 739.65 434.85 750.08 431.23 753.5 427.82 752.43 422.04 746.87 424.44 745.5 420.48 745.3 413.3 746.18 411.04 750.13 409.56 750.38 406.78 745.59 403.84 739.47 403.11 738.41 405.89 734.74 406.85 731.63 409.83 730.23 413.7 731.75 419.99 737.75 425.12 735.33 433.32 731.57 433.47 725.57 437.01 723.62 442.62 Z" id="RO-TL" data-name="Tulcea"/>
<path d="M 217.55 215.63 217.6 206.96 214.29 203.31 210.61 193.22 206.22 188.72 208.31 184.15 213.19 180.32 214.41 175.24 208.58 171.38 208 168.84 210.5 163.48 221.59 164.04 224.86 165.55 228.69 173.07 235.15 175.89 242.6 176.77 251.62 176.02 253.71 168.93 257.72 172.85 265.08 172.03 263.1 167.92 267.19 165.76 268.88 162.86 274.13 162.31 275.31 160.36 272.87 154.38 275.41 151.27 277.33 145.17 284.21 142 286.84 142.42 290.22 137.35 302.91 132.66 304.31 123.51 303 121.56 305.41 119.47 319.46 120.55 318.67 124.12 313.43 130.38 314.65 140.09 317.62 144.49 322.44 145.81 329.56 150.7 331.1 154 330.3 160.54 332.45 162.43 332.43 166.5 337.01 169.98 339.01 173.4 337.83 182.22 335.47 187.58 331.21 189.84 328.07 195.97 329.51 201.48 328.22 205.71 322.67 208.15 320.78 213.88 321.6 218.39 316.43 224.01 318.43 228.81 315.27 230.4 308.3 228.5 300.12 229.31 291.25 231.36 290.85 234.85 286.52 233.15 287.53 227.65 286.06 225.66 279.92 225.48 268.38 219.3 259.88 220.91 255.21 224.57 246.44 223.62 239.58 227.14 238.89 224.2 235.13 219.55 232.02 218.23 220.1 217.93 217.55 215.63 Z" id="RO-CJ" data-name="Cluj"/>
<path d="M 399.71 88.32 407.31 94.91 411.07 102.2 406.56 107.36 407.59 111.14 403.75 113.74 407.84 120.51 408.27 123.11 405.88 128.9 409.88 132.55 408.75 139.46 409.21 148.14 402.69 150.75 394.87 152.61 387.85 158.22 383.47 166.29 381.66 173.05 380.07 174.53 372.68 171.47 366.29 176.29 362.04 184.05 360.94 188.93 351.26 192.26 342.45 191 335.47 187.58 337.83 182.22 339.01 173.4 337.01 169.98 332.43 166.5 332.45 162.43 330.3 160.54 331.1 154 329.56 150.7 322.44 145.81 317.62 144.49 314.65 140.09 313.43 130.38 318.67 124.12 319.46 120.55 322.71 117.37 327.88 109.77 329.05 104.69 337.85 101.98 340.41 99.88 343.88 93.91 351.25 90.85 367.12 94.6 383.04 94.06 392.48 88.25 399.71 88.32 Z" id="RO-BN" data-name="Bistrita-Nasaud"/>
<path d="M 198.76 120.95 202.39 118.04 213.48 112.64 217.47 112.04 226.77 114.63 231.22 118.12 238.55 121.61 243.11 116.7 241.88 110.6 246.12 109.02 254.98 109.08 272.9 115.48 287.82 115.2 292.35 119.18 298.69 123.01 303 121.56 304.31 123.51 302.91 132.66 290.22 137.35 286.84 142.42 284.21 142 277.33 145.17 275.41 151.27 272.87 154.38 275.31 160.36 274.13 162.31 268.88 162.86 267.19 165.76 263.1 167.92 265.08 172.03 257.72 172.85 253.71 168.93 251.62 176.02 242.6 176.77 235.15 175.89 228.69 173.07 224.86 165.55 221.59 164.04 210.5 163.48 205.8 157.75 199.59 153.65 192.54 141.06 191.45 136.8 195.05 132.04 198.76 120.95 Z" id="RO-SJ" data-name="Salaj"/>
<path d="M 446.86 463.26 436.9 460.64 436.71 464.39 431.19 471.58 426.97 471.39 429.06 465.86 428.15 461.31 429.89 455.29 424.92 453.28 419.54 445.57 421.91 441.38 419.03 438.32 420.96 430.96 421.67 421.21 420.07 412.87 420.03 408.56 422.96 404.68 421.95 398.7 418.14 393.62 417.71 384.98 419.9 381.18 424.12 384.07 426.33 381.42 428.31 372.26 431.25 365.92 431.66 362.5 429.57 357.8 434.73 356.49 439.77 350.11 442.85 365.54 445.36 367.41 448 372.64 447.88 377.61 451.82 383.15 456.44 392.17 461.05 398.68 462.21 406.74 466.31 411.17 469.57 410.52 472.26 413.77 472.56 422.7 474.14 424.51 480.88 426.43 486.73 433.59 490.45 435.66 487.29 438.99 484.11 445.67 486.13 449.82 480.15 456.14 454.09 457.68 450.05 459.25 446.86 463.26 Z" id="RO-DB" data-name="Dâmbovita"/>
<path d="M 524.72 461.2 522.82 464.46 526.95 467.74 525.08 470.72 516.97 475.63 512.59 481.96 511.69 485.09 503.97 492.21 499.11 491.97 489.94 484.7 487.1 484.2 483.84 481.06 479.98 479.44 478.6 475.72 479.36 470.36 481.94 464.09 482.25 460.71 480.15 456.14 486.13 449.82 484.11 445.67 487.29 438.99 490.45 435.66 491.58 433.86 496.74 433.79 501.86 432.11 510.81 433.09 517.08 435 518.42 442.05 524.46 446.05 524.52 449.32 521.18 451.65 519.09 456.28 524.72 461.2 Z M 504.56 475.49 505.82 471.77 502.15 468.58 504.18 462.55 497.6 460.95 496.84 452.96 491.14 455.1 487.1 462.19 491.52 464.15 491.52 467.87 485.96 468.4 485.96 472.12 491.52 478.14 496.21 479.2 500.25 484.51 502.53 482.56 499.87 476.02 504.56 475.49 Z" fill-rule="evenodd" id="RO-IF" data-name="Ilfov"/>
<path d="M 426.97 471.39 419.49 469.47 415.66 470.21 412 473.08 405.27 473.85 401.82 476.86 394.46 476.07 390.84 476.99 384.93 475.43 383.57 473.85 381.74 462.89 382.35 458.52 380.14 446.02 377.39 440.7 379.54 435.26 374.08 435.02 371.41 432.05 365.01 417.76 362.9 421.98 358.89 425.59 355.86 422.33 362.13 414.68 360.19 410.17 361.68 399.42 364.28 388.12 363.61 383.52 360.54 377.04 361.16 371.64 360.44 366.3 362.33 361.07 360.59 353.52 364.45 340.76 363.42 336.9 378.8 332.44 384.12 331.94 389.12 336.38 394.31 335 402.05 334.7 411.46 335.96 422.09 343.96 426.75 354.43 429.57 357.8 431.66 362.5 431.25 365.92 428.31 372.26 426.33 381.42 424.12 384.07 419.9 381.18 417.71 384.98 418.14 393.62 421.95 398.7 422.96 404.68 420.03 408.56 420.07 412.87 421.67 421.21 420.96 430.96 419.03 438.32 421.91 441.38 419.54 445.57 424.92 453.28 429.89 455.29 428.15 461.31 429.06 465.86 426.97 471.39 Z" id="RO-AG" data-name="Arges"/>
<path d="M 275.63 457.99 273.4 453.84 268.63 449.15 261.2 444.46 246.53 440.24 242.98 438.1 236.49 431.95 228.94 423.33 226.84 412.8 227.27 407.65 221.14 401.79 217.65 400.28 210.81 399.65 207.19 394.92 203.87 393.36 203.32 389.15 197.53 387.8 198.08 383.97 206.24 375.6 224.2 369.06 228.6 371.25 236.51 373.3 241.91 370.93 250.26 371.84 254.88 369.03 264.47 365.86 270.64 367.99 278.53 363.9 283.78 362.13 295.82 364.49 300.99 363.89 304.93 367.65 303.68 374.66 305.57 381.77 303.76 388.99 303.99 394.66 300.11 410.61 301.37 424.32 299.83 437.52 296.45 436.73 296.55 448.6 283.4 452.47 275.63 457.99 Z" id="RO-GJ" data-name="Gorj"/>
<path d="M 179.67 289.87 183.6 284.78 185.14 280.69 184.09 275.08 185.98 269.85 186.32 262.29 189.42 257.92 192.11 257.07 200.46 258.04 203.8 255.54 207.98 247.12 213.53 243.01 218.41 245.85 226.13 245.04 228.68 248.13 231.42 257.01 238.77 259.8 242.26 266.84 240.53 271.03 248.69 281.82 253.31 283.81 256.6 292.37 260.97 298.75 263.09 308.07 264.98 313.12 266.37 321.72 268.44 324.96 268.09 329.88 270.01 333.5 275.29 336.65 282.77 343.87 283.65 350.72 284.97 358.6 283.78 362.13 278.53 363.9 270.64 367.99 264.47 365.86 254.88 369.03 250.26 371.84 241.91 370.93 236.51 373.3 228.6 371.25 224.2 369.06 206.24 375.6 206.92 371.4 209.43 365.76 206.77 359.55 208.69 354.85 207.03 345.26 204.91 341.92 195.52 335.91 195.1 332.61 190.53 330.89 187.31 324.68 190.34 317.88 195.41 312.77 190.76 309.77 187.66 303.56 184.53 300.46 182.55 292.93 179.67 289.87 Z" id="RO-HD" data-name="Hunedoara"/>
<path d="M 315.28 460.44 310.5 454.07 308.76 448.2 301.59 443.18 299.83 437.52 301.37 424.32 300.11 410.61 303.99 394.66 303.76 388.99 305.57 381.77 303.68 374.66 304.93 367.65 300.99 363.89 295.82 364.49 283.78 362.13 284.97 358.6 283.65 350.72 287.19 350.16 294.27 346.8 297.89 346.04 301.39 343.39 315.49 342.89 324.6 344.8 333.11 339.89 346.04 336.75 363.42 336.9 364.45 340.76 360.59 353.52 362.33 361.07 360.44 366.3 361.16 371.64 360.54 377.04 363.61 383.52 364.28 388.12 361.68 399.42 360.19 410.17 362.13 414.68 355.86 422.33 356.03 416.78 353.29 414.76 348.71 421.11 347.22 428.15 343.04 434.74 347.01 454.09 345.71 455.22 341.29 450.54 340.33 454.02 337.15 456.31 331.48 456.08 326.91 461.51 320.5 457.92 315.28 460.44 Z" id="RO-VL" data-name="Vâlcea"/>
<path d="M 490.45 435.66 486.73 433.59 480.88 426.43 474.14 424.51 472.56 422.7 472.26 413.77 469.57 410.52 466.31 411.17 462.21 406.74 461.05 398.68 456.44 392.17 451.82 383.15 447.88 377.61 448 372.64 445.36 367.41 442.85 365.54 439.77 350.11 442.22 348.76 456.52 346.2 466.87 348.47 470.28 347.58 473.03 350.94 476.39 351.41 478.81 348.54 479.78 344.29 483.42 343.13 487.9 345.74 491.89 346.5 496.98 352.61 502.72 358.04 506.07 366.22 505.65 370.45 508.96 374.18 510.18 378.27 516.26 378.91 523.19 385.08 527.69 390.34 529.41 401.46 533.9 403.3 536.89 407.12 533.99 412.17 534.3 414.43 539.08 420.54 535.84 425.17 532.01 427.44 526.3 427.31 523.7 429.89 517.94 428.78 513.84 430.26 510.81 433.09 501.86 432.11 496.74 433.79 491.58 433.86 490.45 435.66 Z" id="RO-PH" data-name="Prahova"/>
<path d="M 529.01 281.18 523.61 289.8 522.24 293.8 520.18 307.72 521.42 314.16 515.8 330.1 512.08 331.94 507.84 329.2 503.98 335.36 496.5 336.59 492.08 330.59 486.34 326.84 483.73 322.07 479.1 318.04 467.94 313.03 460.17 313.94 460 309.89 451.4 303.09 450.28 299.61 450.64 285.23 451.71 281.16 450.34 278.21 446.93 277.79 442.3 274.91 441.86 270.87 445.49 263.61 451.56 257.58 454.58 253.13 460.77 248.24 463.2 248.75 466.97 252.76 467.56 256.24 470.73 262.36 475.56 267.24 479.41 269.65 487.3 270.26 509.29 265.45 515.5 261.9 521.85 266.15 522.02 272.28 525.28 274.66 529.01 281.18 Z" id="RO-CV" data-name="Covasna"/>
<path d="M 616.57 263.95 617.69 269.57 612.86 269.91 608.85 273.78 602.11 274.89 594.67 282.27 594.51 290.76 605.14 317.96 608.13 321.86 611.26 323.64 616.08 331 618.57 341.31 621.66 345.17 613.47 349.52 608.41 358.04 598.61 356.83 595.95 352.22 589.56 350.22 585.04 352.76 584.25 348.24 577.99 350.31 573.12 346.56 570.54 340.34 564.73 338.9 563.67 342.11 558.34 340.94 551.85 336.72 544.62 329.73 536.13 329.29 533.02 326.19 523.92 311.32 520.18 307.72 522.24 293.8 523.61 289.8 529.01 281.18 538.79 282.65 541.34 281.39 542.35 275.74 544.71 274.41 552.89 273.91 570.27 276.38 574.17 272.43 581.03 274.1 592.31 263.9 602.39 262.83 605.99 265.04 610.24 262.87 616.57 263.95 Z" id="RO-VN" data-name="Vrancea"/>
<path d="M 539.08 420.54 534.3 414.43 533.99 412.17 536.89 407.12 533.9 403.3 529.41 401.46 527.69 390.34 523.19 385.08 516.26 378.91 510.18 378.27 508.96 374.18 505.65 370.45 506.07 366.22 502.72 358.04 496.98 352.61 491.89 346.5 496.5 336.59 503.98 335.36 507.84 329.2 512.08 331.94 515.8 330.1 521.42 314.16 520.18 307.72 523.92 311.32 533.02 326.19 536.13 329.29 544.62 329.73 551.85 336.72 558.34 340.94 563.67 342.11 564.73 338.9 570.54 340.34 573.12 346.56 577.99 350.31 584.25 348.24 585.04 352.76 589.56 350.22 595.95 352.22 598.61 356.83 608.41 358.04 605.35 367.43 598.79 370.12 598.37 376.33 586.73 375.9 579.97 378.28 578.02 380.29 579.25 385.32 586.37 383.89 586.48 388.58 589.94 391.64 590.01 396.2 594.84 397.87 595.44 399.74 594.07 408.65 592.73 411.81 587.66 414.16 589.8 419.59 589.56 425.98 587.35 428.16 588.62 431.53 583.11 433.04 581.48 427.51 575.69 425.67 572.62 427.99 564.13 425.12 559.91 425.68 552.94 424.12 543.85 424.01 539.08 420.54 Z" id="RO-BZ" data-name="Buzau"/>
<path d="M 439.77 350.11 434.73 356.49 429.57 357.8 426.75 354.43 422.09 343.96 411.46 335.96 402.05 334.7 394.31 335 389.12 336.38 384.12 331.94 378.8 332.44 378.03 324.64 376.45 317.73 373.8 312.13 375.43 308.85 381.5 306.49 379.86 294.3 390.25 289.06 390.35 285.21 395.05 282.65 401.88 276.02 403.03 270.18 407.32 267.6 419.32 266.29 428.49 263.42 431.34 263.7 439.55 268.27 441.86 270.87 442.3 274.91 446.93 277.79 450.34 278.21 451.71 281.16 450.64 285.23 450.28 299.61 451.4 303.09 460 309.89 460.17 313.94 467.94 313.03 479.1 318.04 483.73 322.07 486.34 326.84 492.08 330.59 496.5 336.59 491.89 346.5 487.9 345.74 483.42 343.13 479.78 344.29 478.81 348.54 476.39 351.41 473.03 350.94 470.28 347.58 466.87 348.47 456.52 346.2 442.22 348.76 439.77 350.11 Z" id="RO-BV" data-name="Brasov"/>
<path d="M 378.8 332.44 363.42 336.9 346.04 336.75 333.11 339.89 324.6 344.8 315.49 342.89 301.39 343.39 297.89 346.04 294.27 346.8 287.19 350.16 289.5 346.7 286.13 337.75 287.69 330.12 285.79 321 287.94 312.67 289.71 309.78 293.66 309.23 298.81 301.41 293.87 297.48 293.49 293.47 303.67 293.64 307.58 288.87 306.37 283.43 308 281.54 313.83 280.26 319.31 283.53 322.24 276.97 329.31 269.38 335.05 264.31 335.05 253.98 344.42 253.31 350.65 255.44 356.35 253.98 362.27 254.37 368.35 251.51 374.9 254.25 375.81 265.7 377.18 271.56 379.84 273.96 386.06 272.29 394.49 271.47 401.88 276.02 395.05 282.65 390.35 285.21 390.25 289.06 379.86 294.3 381.5 306.49 375.43 308.85 373.8 312.13 376.45 317.73 378.03 324.64 378.8 332.44 Z" id="RO-SB" data-name="Sibiu"/>
<path d="M 409.21 148.14 416.85 149.57 420.73 151.44 421.29 156.17 425.19 161.62 426.32 172.56 424.97 180.93 427.89 190.8 426.44 203.26 421.59 207.68 418.52 212.34 411.34 216.7 406.35 221.9 404.92 229.02 398.33 233.03 400.64 238.43 393.16 242.62 392.98 245.15 399.66 253.34 402.85 255.28 408.19 255.68 412.68 259.18 419.32 266.29 407.32 267.6 403.03 270.18 401.88 276.02 394.49 271.47 386.06 272.29 379.84 273.96 377.18 271.56 375.81 265.7 374.9 254.25 368.35 251.51 362.27 254.37 356.35 253.98 350.65 255.44 344.42 253.31 335.05 253.98 332.46 251.28 330.94 245.58 324.51 242.17 321.06 238.7 323.81 232.42 321.09 228.98 318.43 228.81 316.43 224.01 321.6 218.39 320.78 213.88 322.67 208.15 328.22 205.71 329.51 201.48 328.07 195.97 331.21 189.84 335.47 187.58 342.45 191 351.26 192.26 360.94 188.93 362.04 184.05 366.29 176.29 372.68 171.47 380.07 174.53 381.66 173.05 383.47 166.29 387.85 158.22 394.87 152.61 402.69 150.75 409.21 148.14 Z" id="RO-MS" data-name="Mures"/>
<path d="M 420.73 151.44 427.31 152.19 429.78 145.65 434.92 143.5 437.83 144.18 452.78 155.05 460.2 153.74 465.76 156.08 470.39 165.12 476.65 171.72 472.48 178.36 473.47 198.8 478.61 206.05 481.84 200.25 488.74 201.96 489.02 211.12 490.45 216.66 493.85 222.8 490.75 226.52 489.6 231.61 491.28 234.5 499.22 236.05 501.7 238.2 501.49 245.61 503.42 246.45 508.9 243.9 512.76 244.74 511.68 256.14 509.29 265.45 487.3 270.26 479.41 269.65 475.56 267.24 470.73 262.36 467.56 256.24 466.97 252.76 463.2 248.75 460.77 248.24 454.58 253.13 451.56 257.58 445.49 263.61 441.86 270.87 439.55 268.27 431.34 263.7 428.49 263.42 419.32 266.29 412.68 259.18 408.19 255.68 402.85 255.28 399.66 253.34 392.98 245.15 393.16 242.62 400.64 238.43 398.33 233.03 404.92 229.02 406.35 221.9 411.34 216.7 418.52 212.34 421.59 207.68 426.44 203.26 427.89 190.8 424.97 180.93 426.32 172.56 425.19 161.62 421.29 156.17 420.73 151.44 Z" id="RO-HR" data-name="Harghita"/>
<path d="M 528.8 129.4 534.66 135.17 538.98 141.5 542.85 151.44 548.95 151.97 554.62 154.45 561.8 159.52 566.48 160.24 570.37 155.96 575.87 157.02 580.72 152.41 585.11 151.61 592.85 161.95 586.4 165.43 584.8 169.08 589.92 178.31 592.3 187.4 591.67 192.73 588.33 194.41 578.17 191.67 570.15 192.63 566.79 188.9 562.67 188.14 559.98 190.81 560.06 193.81 555.92 196.17 550.04 192.92 545.99 196.31 540.78 198.51 537.22 202.08 526.44 202.19 522.49 206.01 514.33 206.26 511.3 198.6 507.53 198.16 502.32 201.99 497.37 202.95 491.84 201.08 488.74 201.96 481.84 200.25 478.61 206.05 473.47 198.8 472.48 178.36 476.65 171.72 470.39 165.12 465.76 156.08 460.2 153.74 462.31 145.65 466.07 141.09 470.67 137.74 472.73 133.01 468.68 127.54 472.8 127.54 477.72 131.93 486.48 128.92 491.35 130.42 497.34 129.34 506.86 129.39 517.87 124.47 524.61 125.01 528.8 129.4 Z" id="RO-NT" data-name="Neamt"/>
<path d="M 591.67 192.73 598.39 199.61 601 203.59 601.16 212.19 609.96 227.65 613.11 235.21 615.99 248.49 616.57 263.95 610.24 262.87 605.99 265.04 602.39 262.83 592.31 263.9 581.03 274.1 574.17 272.43 570.27 276.38 552.89 273.91 544.71 274.41 542.35 275.74 541.34 281.39 538.79 282.65 529.01 281.18 525.28 274.66 522.02 272.28 521.85 266.15 515.5 261.9 509.29 265.45 511.68 256.14 512.76 244.74 508.9 243.9 503.42 246.45 501.49 245.61 501.7 238.2 499.22 236.05 491.28 234.5 489.6 231.61 490.75 226.52 493.85 222.8 490.45 216.66 489.02 211.12 488.74 201.96 491.84 201.08 497.37 202.95 502.32 201.99 507.53 198.16 511.3 198.6 514.33 206.26 522.49 206.01 526.44 202.19 537.22 202.08 540.78 198.51 545.99 196.31 550.04 192.92 555.92 196.17 560.06 193.81 559.98 190.81 562.67 188.14 566.79 188.9 570.15 192.63 578.17 191.67 588.33 194.41 591.67 192.73 Z" id="RO-BC" data-name="Bacau"/>
<path d="M 213.53 243.01 209.42 238.73 207.85 232.2 207.74 224.71 209.07 218.68 212.22 214.58 217.55 215.63 220.1 217.93 232.02 218.23 235.13 219.55 238.89 224.2 239.58 227.14 246.44 223.62 255.21 224.57 259.88 220.91 268.38 219.3 279.92 225.48 286.06 225.66 287.53 227.65 286.52 233.15 290.85 234.85 291.25 231.36 300.12 229.31 308.3 228.5 315.27 230.4 318.43 228.81 321.09 228.98 323.81 232.42 321.06 238.7 324.51 242.17 330.94 245.58 332.46 251.28 335.05 253.98 335.05 264.31 329.31 269.38 322.24 276.97 319.31 283.53 313.83 280.26 308 281.54 306.37 283.43 307.58 288.87 303.67 293.64 293.49 293.47 293.87 297.48 298.81 301.41 293.66 309.23 289.71 309.78 287.94 312.67 285.79 321 287.69 330.12 286.13 337.75 289.5 346.7 287.19 350.16 283.65 350.72 282.77 343.87 275.29 336.65 270.01 333.5 268.09 329.88 268.44 324.96 266.37 321.72 264.98 313.12 263.09 308.07 260.97 298.75 256.6 292.37 253.31 283.81 248.69 281.82 240.53 271.03 242.26 266.84 238.77 259.8 231.42 257.01 228.68 248.13 226.13 245.04 218.41 245.85 213.53 243.01 Z" id="RO-AB" data-name="Alba"/>
<path d="M 661.82 431.04 656.76 432.93 654.23 431.25 649.64 431.24 644.91 426.92 639.18 427.03 630.61 429.85 607.5 429.16 602.97 427.48 596.55 428.84 589.56 425.98 589.8 419.59 587.66 414.16 592.73 411.81 594.07 408.65 595.44 399.74 594.84 397.87 590.01 396.2 589.94 391.64 586.48 388.58 586.37 383.89 579.25 385.32 578.02 380.29 579.97 378.28 586.73 375.9 598.37 376.33 598.79 370.12 605.35 367.43 608.41 358.04 613.47 349.52 621.66 345.17 626.5 347.32 632.03 347.13 637.32 352.42 641.98 354.93 650.52 355.28 659.74 356.97 659.02 362.66 656.06 369.37 663.57 374.67 668.24 375.93 665.45 382.36 670.09 385.11 672.24 388.3 668.3 393.76 669.23 400.06 668.24 402.2 669.14 409.23 667.68 411.01 667.76 417.37 663.96 423.43 661.82 431.04 Z" id="RO-BR" data-name="Braila"/>
<path d="M 659.11 481.16 646.31 476.98 638.59 473.7 632.01 468.15 623.78 465.4 612 463.19 603.36 464.72 588.29 464.44 578.8 464.89 572.6 462.29 564.09 462.64 559.01 460.54 554.3 460.84 548.56 456.73 543.61 459.99 540.16 460.89 531.44 457.65 524.72 461.2 519.09 456.28 521.18 451.65 524.52 449.32 524.46 446.05 518.42 442.05 517.08 435 510.81 433.09 513.84 430.26 517.94 428.78 523.7 429.89 526.3 427.31 532.01 427.44 535.84 425.17 539.08 420.54 543.85 424.01 552.94 424.12 559.91 425.68 564.13 425.12 572.62 427.99 575.69 425.67 581.48 427.51 583.11 433.04 588.62 431.53 587.35 428.16 589.56 425.98 596.55 428.84 602.97 427.48 607.5 429.16 630.61 429.85 639.18 427.03 644.91 426.92 649.64 431.24 646.77 434.94 650.11 440.86 655.32 442.67 660.1 448.41 659 457.73 657.79 460.16 664.46 463.4 666.4 468.96 665.54 472.2 661.26 476.01 659.11 481.16 Z" id="RO-IL" data-name="Ialomita"/>
<path d="M 504.56 475.49 499.87 476.02 502.53 482.56 500.25 484.51 496.21 479.2 491.52 478.14 485.96 472.12 485.96 468.4 491.52 467.87 491.52 464.15 487.1 462.19 491.14 455.1 496.84 452.96 497.6 460.95 504.18 462.55 502.15 468.58 505.82 471.77 504.56 475.49 Z" id="RO-B" data-name="Bucharest"/>
</g>
</svg>