<?xml version="1.0"?>
<svg xmlns="http://www.w3.org/2000/svg" version="1.2" baseProfile="tiny" width="800" height="1062" viewBox="0 0 800 1062" stroke-linecap="round" stroke-linejoin="round">
<g id="MLOC-RS">
<path d="M 168.18 5.22 183.33 13.47 199.38 6.81 195.11 16.72 194.12 35.72 186.87 44.46 185.02 52.82 186.25 71.64 178.41 76.39 187.72 97.07 191.85 97.03 196.87 112.43 175.5 120.92 176.18 135.58 171.99 150.85 162.85 154.74 144.01 143.41 146.41 134 139.44 130.16 142.29 121.19 132.89 114.45 124.75 119.79 116.18 113.68 111.66 100.33 98.88 87.26 94.81 66.86 96.62 52.27 88.43 43.19 103.97 39.99 127.19 19.16 124.92 12.03 136.95 3.7 155.83 1 168.18 5.22 Z" id="RS-01" data-name="Severno-Backi"/>
<path d="M 88.43 43.19 96.62 52.27 94.81 66.86 98.88 87.26 111.66 100.33 116.18 113.68 124.75 119.79 132.89 114.45 142.29 121.19 139.44 130.16 146.41 134 144.01 143.41 138.49 153.17 139.07 164.23 131.69 166.44 123.04 178.11 115.77 173.93 106.98 177.67 107.92 185.32 100.01 189.02 101.15 204.42 80.29 202.86 68.07 205.56 61.68 198.24 53.33 199.18 49.14 194.19 34.35 188.09 45.79 189.79 51.39 184.29 40.72 176.78 34.39 168.94 19.66 176.78 12.3 167.37 14 154.66 24.82 141 14.95 130.56 11.64 114.45 1 100.4 2.99 88.87 11.56 87.76 6.38 78.38 11.86 68.42 28.29 68.4 31.97 59.72 40.27 59.48 43.51 46 52.3 45.74 59.44 53.76 81.7 54.49 88.43 43.19 Z" id="RS-05" data-name="Zapadno-Backi"/>
<path d="M 245.88 7.03 251.78 11.24 260.09 10.32 270.58 19.3 282.69 34.46 289.05 51.33 295.29 58.27 306.49 64.12 316.64 73.55 334.08 80.47 345.18 95.54 347.84 106.09 343.38 130.65 331.85 130.63 321.38 138.92 319.83 145.13 325.79 156.34 307.04 155.95 294.06 160.4 286.15 156.18 293.73 142.76 302.21 138.75 305.54 132.18 299.22 128.09 291.16 107.93 266.76 108.85 255.53 107.02 251.76 110.25 255.02 120.63 245.76 125.67 239.66 119.2 222.27 117.03 213.45 113.16 196.87 112.43 191.85 97.03 187.72 97.07 178.41 76.39 186.25 71.64 185.02 52.82 186.87 44.46 194.12 35.72 195.11 16.72 199.38 6.81 210.08 3.88 235.97 8.95 245.88 7.03 Z" id="RS-03" data-name="Severno-Banatski"/>
<path d="M 525.38 1058.05 523.41 1050.83 515.89 1039.4 520.22 1028.76 531.66 1025.25 536.52 1017.4 535.97 1005.1 545.39 994.42 555 978.45 558.45 960.09 565.62 953.21 560.13 944.84 568.24 937.54 567.97 931.48 575.27 920.69 602.49 916.25 610.55 908.77 617.38 911.86 629.59 907.83 658.88 927.23 664.75 927.4 679.07 918.04 683.68 912.14 692.46 908.7 696.83 922.76 702.29 929 694.7 944.25 694.56 957.04 692.31 973.15 710.67 989.83 712.92 997.48 707.58 1016.67 700.04 1020.13 691.21 1037.3 675.98 1040.55 668.77 1039.01 659.54 1026.03 654.46 1031.3 636.08 1039.07 618.2 1043.42 598.17 1035.42 587.15 1041.57 574.19 1042.71 555.36 1054.23 547.13 1061 525.38 1058.05 Z" id="RS-24" data-name="Pcinjski"/>
<path d="M 742.83 533.4 734.56 537.29 726.35 547.89 726.07 573.46 723.8 577.6 712.46 579.42 706.58 589.41 699.29 590.02 696.1 579.2 702.55 570.59 685.01 556.97 676.26 559.35 663.02 557.71 656.51 552.49 646.65 562.61 655.72 583.52 641.68 610.29 639.74 620.14 632.92 628.04 621.52 621.39 615.4 607.48 609.04 611.74 598.3 607.28 590.09 598.5 565.56 596.93 568.96 585.06 574.3 577.17 581.41 576.29 588.49 570.41 601.88 565.2 598.91 556.15 601.41 542.98 597 534.69 589.4 534.91 589.07 520.9 580.73 513.31 573.9 514.64 570.19 503.11 576.07 487.74 580.93 488.46 586.69 480.55 594.92 475.9 593.53 469.44 603.69 447.68 616.42 435.95 629.56 457.56 638.04 459.92 645.15 456.08 671.1 409.98 682.86 405.86 691.61 396.88 702.73 399.5 716.15 414.37 729.24 422.97 744.47 424.82 757.01 437.76 752.48 446.14 744.47 448.85 729.24 441.44 718.52 445.17 716.8 454.36 702.81 460.23 701.44 469.9 706.06 475.85 706.86 486.08 715.39 500.93 721.85 506.48 740.88 512.7 742.83 533.4 Z" id="RS-14" data-name="Borski"/>
<path d="M 699.29 590.02 686.51 596.53 685.53 611.8 676.84 646.15 684.38 659.4 684.75 671.63 691.69 683.43 700.64 692.03 701.72 712.45 709.51 735.04 722.61 745.62 730.66 747.26 736.52 754.41 720.83 770.47 710.62 771.88 703.92 763.55 695.26 769.41 674.49 759.44 677.24 748.33 667.98 739.22 661.2 744.32 650.32 736.57 641.48 738.59 626.5 730.8 620.35 731.07 613.92 718.78 605.08 709.58 600.51 715.82 606.86 721.39 592.61 724.59 583.96 710.32 566.69 708.21 552.54 690.47 548.28 674.95 551.68 671.04 547.38 662.92 552.34 659.92 541.18 647.48 549.35 634.5 547.8 623.92 556.22 620.68 556.24 614.95 566.38 601.64 565.56 596.93 590.09 598.5 598.3 607.28 609.04 611.74 615.4 607.48 621.52 621.39 632.92 628.04 639.74 620.14 641.68 610.29 655.72 583.52 646.65 562.61 656.51 552.49 663.02 557.71 676.26 559.35 685.01 556.97 702.55 570.59 696.1 579.2 699.29 590.02 Z" id="RS-15" data-name="Zajecarski"/>
<path d="M 736.52 754.41 749.14 758.46 764.6 773.59 770.12 787.99 786.01 804.5 799 811.1 797.29 823.29 789.81 837.98 782.38 844.01 779.97 850.89 769.28 862.28 759.18 865.9 752.08 887.19 737.93 894.28 723.4 890.34 714.51 894.34 697.81 892.42 685.89 884.18 685.64 873.01 663.69 862.52 658.74 862.43 648.48 854.69 659.01 845.13 654.58 841.04 666.46 831.55 660.26 820.69 653 820.58 631.36 806.96 640.97 786.17 635.94 771.48 649.17 771.18 658.69 776.1 672.76 773.84 674.49 759.44 695.26 769.41 703.92 763.55 710.62 771.88 720.83 770.47 736.52 754.41 Z" id="RS-22" data-name="Pirotski"/>
<path d="M 692.46 908.7 683.68 912.14 679.07 918.04 664.75 927.4 658.88 927.23 629.59 907.83 617.38 911.86 610.55 908.77 602.49 916.25 575.27 920.69 567.97 931.48 568.24 937.54 560.13 944.84 549.16 942.9 540.81 946.71 534.75 944.59 525.6 934.15 509.07 930.98 494.81 930.18 491.26 925.02 495.36 902.22 499.99 897.94 503.09 883.82 507.87 878.66 503.47 867.99 522.01 854.08 533 853.06 540.52 846.24 548.38 846.1 553.84 840.14 566.04 835.32 571.94 824.19 581.74 823.59 591.04 817.42 597.27 825.44 608.22 820.58 614.29 822.49 624.42 833.58 639.38 845.08 650.47 845.56 654.58 841.04 659.01 845.13 648.48 854.69 658.74 862.43 663.69 862.52 685.64 873.01 685.89 884.18 697.81 892.42 714.51 894.34 707.04 894.76 692.46 908.7 Z" id="RS-23" data-name="Jablanicki"/>
<path d="M 379.9 791.97 367.48 793.75 352.37 805.19 341.83 807.14 338.98 811.72 345.64 829.61 352.79 831.58 347.91 846.77 342.79 854.72 332.2 858.05 327.58 865.65 315.62 869.42 310.72 881.09 319.09 890.19 315.6 898.6 290.35 905.98 291.94 889.27 288.75 885.06 261.27 869.29 248.71 867.51 234.61 855.07 234.24 854.69 242.63 837.51 251.55 833.61 255.69 823.81 265.11 823.52 278.15 819.14 263.22 805.58 275.32 781.66 287.06 791.67 289.03 784.87 305.02 768.33 300.77 759.66 301.25 740.41 291.68 727.82 282.62 719.37 294.57 707.42 292.74 694.26 298.57 689.25 313.59 684.11 309.79 668.2 326.07 661.05 326.01 653.61 331.84 642.72 343.47 632.44 349.97 638.74 356.5 650.92 362.16 654.73 372.28 651.13 371.31 641.88 396.18 641.16 398.93 646.3 402.08 660.24 408.3 667.43 399.89 674.75 399.2 690.79 407.03 699.12 400.27 704.67 398.88 711.09 406.03 726.6 390.94 729.84 383.98 724.04 370.37 725.76 374.54 738.94 370.53 753.4 372.84 757.75 383.64 759.26 385.38 772.82 379.02 783.04 379.9 791.97 Z" id="RS-18" data-name="Raški"/>
<path d="M 399.72 823.92 385.46 815.55 388.65 799.42 379.9 791.97 379.02 783.04 385.38 772.82 383.64 759.26 372.84 757.75 370.53 753.4 374.54 738.94 370.37 725.76 383.98 724.04 390.94 729.84 406.03 726.6 398.88 711.09 400.27 704.67 407.03 699.12 399.2 690.79 399.89 674.75 408.3 667.43 428.19 671.29 443.01 671.28 462.67 656.48 463.24 642.72 469.66 639.34 466.86 656.03 471.25 658.63 481.06 655.75 487.36 657.7 489.49 667.32 495.88 668.29 506.45 661.77 514.74 675.35 507.59 679.05 510.43 687.32 509.36 705.25 515.71 707.7 525.81 723.27 521.24 738.75 525.92 749.47 523.6 753.75 507.12 763.29 497.7 759.2 481.58 758.39 457.64 766.97 454.65 775.86 449.12 780.29 442.46 793.23 430.59 798.24 422.76 793.3 413.61 793.21 406.55 804.1 407.89 814.28 399.72 823.92 Z" id="RS-19" data-name="Pomoravski"/>
<path d="M 571.94 824.19 566.04 835.32 553.84 840.14 548.38 846.1 540.52 846.24 533 853.06 522.01 854.08 503.47 867.99 507.87 878.66 503.09 883.82 499.99 897.94 495.36 902.22 473.48 891 466.84 890.43 461.42 884.03 460.05 867.52 457.06 861.64 448.49 864.48 443.46 859.02 440.51 845.18 434.45 836.63 415.33 833.07 399.72 823.92 407.89 814.28 406.55 804.1 413.61 793.21 422.76 793.3 430.59 798.24 442.46 793.23 449.12 780.29 454.65 775.86 457.64 766.97 481.58 758.39 497.7 759.2 507.12 763.29 511.11 768.7 526.58 769.88 534.43 795.59 548.88 804.86 551.73 795.19 564.31 795.42 563.37 807.51 571.62 818.6 571.94 824.19 Z" id="RS-21" data-name="Toplicki"/>
<path d="M 275.32 781.66 263.22 805.58 278.15 819.14 265.11 823.52 255.69 823.81 251.55 833.61 242.63 837.51 234.24 854.69 215.98 839.83 210.08 830.5 199.1 836.71 186.16 836.82 174.15 827.17 168.51 816.84 162.92 819.18 150.21 816.14 136.55 802.76 129.72 796.99 122.12 783.05 99.48 756.6 73.01 744.62 64.82 733.28 68.57 719.48 72.83 719.48 79.63 704.62 88.92 704.71 100.98 701.18 110.11 717.36 114.17 709.28 123.8 712.02 123.8 693.9 128.42 681.98 119.93 658.37 100.22 636.98 84.02 612.62 77.38 607.51 79.51 592.74 88.86 592.2 101.22 601.9 137.39 599.19 145.32 593.25 150.25 585.17 130.44 570.28 136.2 564.22 148.4 561.66 150.11 556.19 173.85 566.71 180.46 576.13 187.34 577.88 190.26 566.49 196.95 560.19 203.26 560.48 207.62 569.54 219.46 574.47 225.58 566.8 235.71 571.86 234.54 599.15 243.82 612.74 240.94 618.38 246.18 624.07 241.18 638.29 248.55 649.78 247.67 664.28 255.14 669.1 253.34 680.87 257.46 685.72 254.21 692.98 240.96 689.66 240.02 699.24 231.69 700.2 214.81 714 203.24 718.46 207.31 725.13 223.66 732.45 226.03 743.5 242.21 771.51 246.37 781.68 270.16 776.55 275.32 781.66 Z" id="RS-16" data-name="Zlatiborski"/>
<path d="M 33.95 361.01 29.24 347.6 34.45 344.67 46.07 348.71 56.29 337.18 47.32 327.89 49.29 318.71 46.76 301.24 39.81 289.38 42.48 284.33 53.28 285.41 58.22 280.14 74.47 280.2 106.87 277.55 113.44 284.52 119.78 276.87 146.62 286.64 165.66 285.73 177.08 281.57 183.63 284.26 206.89 285.5 219.94 280.8 220.97 272.59 236.23 276.5 259.42 273.9 266.63 276.5 277.32 285.92 289.12 302.5 292.58 315.01 282.38 326.08 282.23 336.78 286.37 343.72 269.79 347.8 262.48 353.59 253.99 354.87 247.76 378.07 239.51 383.44 244.29 389.53 241.9 403.79 232.52 408.65 218.61 421.95 210.4 417.05 221.74 411.81 220.4 407.12 207.15 407.24 194.1 396.92 184.52 392.01 169.81 388.5 166.02 376.8 176.16 353.81 176.86 347.47 160.77 342.28 155.22 348.2 138.56 351.42 128.01 347.21 122.3 351.29 109.21 340.33 99.74 352.79 90.71 348.3 69.82 349.38 64.5 344.74 47.2 357.39 33.95 361.01 Z" id="RS-07" data-name="Sremski"/>
<path d="M 150.11 556.19 148.4 561.66 136.2 564.22 130.44 570.28 122.76 560.66 100.78 543.41 99.16 534.51 93.44 523.84 65.06 517.65 57.69 511.62 51.57 491.83 58.16 478.85 55.95 455.21 65.54 449.82 66.81 441.41 80.21 420.74 84.43 410.11 94.22 396.79 101.04 364.01 99.74 352.79 109.21 340.33 122.3 351.29 128.01 347.21 138.56 351.42 155.22 348.2 160.77 342.28 176.86 347.47 176.16 353.81 166.02 376.8 169.81 388.5 184.52 392.01 194.1 396.92 207.15 407.24 220.4 407.12 221.74 411.81 210.4 417.05 218.61 421.95 216.41 434.24 218.17 442.64 209.15 446.38 202.51 445.13 194.81 453.67 198.71 464.26 197.34 476.83 190.42 479.7 192.33 489.88 181.31 490.38 177.47 483.47 162.09 476.9 148.16 481.07 139.09 474.83 126.21 476.67 128 481.91 124.28 493.9 117.43 498.4 125.66 506.33 113.86 521.7 120.41 531.22 138.73 538.83 150.11 556.19 Z" id="RS-08" data-name="Macvanski"/>
<path d="M 144.01 143.41 162.85 154.74 171.99 150.85 176.18 135.58 175.5 120.92 196.87 112.43 213.45 113.16 222.27 117.03 239.66 119.2 245.76 125.67 241.5 127.58 243.4 145.31 236.11 157.12 248.08 163.54 242.81 173.96 245.53 180.01 263.57 196.93 268.06 203.16 262.68 216.29 274.65 231.28 269.27 240.64 281.88 253.77 285.19 267.27 279.45 274.26 277.32 285.92 266.63 276.5 259.42 273.9 236.23 276.5 220.97 272.59 219.94 280.8 206.89 285.5 183.63 284.26 177.08 281.57 165.66 285.73 146.62 286.64 119.78 276.87 113.44 284.52 106.87 277.55 109.55 268.93 103.81 261.69 86.77 259.85 61.46 248.94 50.98 242.76 46.89 231.65 36.73 230.03 26.56 222.88 26.18 217.41 36.94 210.52 31.34 202.97 30.2 194.69 34.35 188.09 49.14 194.19 53.33 199.18 61.68 198.24 68.07 205.56 80.29 202.86 101.15 204.42 100.01 189.02 107.92 185.32 106.98 177.67 115.77 173.93 123.04 178.11 131.69 166.44 139.07 164.23 138.49 153.17 144.01 143.41 Z" id="RS-06" data-name="Južno-Backi"/>
<path d="M 347.84 106.09 356.44 120.47 361.32 123.17 369.18 114.82 375.28 117.86 374.16 140.19 369.24 158.42 378.07 179.1 370.45 189.32 381.12 197.7 390.19 209.83 402.64 221.15 410.08 231.01 419.81 236.52 417.92 240.85 400.12 242.14 381.5 255.24 386.32 259.07 366.29 273.71 361.98 282.59 356.1 274.99 342.88 266.93 334.33 264.54 328.4 272.89 316.72 269.39 309.43 283.97 311.34 288.86 299.95 306.65 289.12 302.5 277.32 285.92 279.45 274.26 285.19 267.27 281.88 253.77 269.27 240.64 274.65 231.28 262.68 216.29 268.06 203.16 263.57 196.93 245.53 180.01 242.81 173.96 248.08 163.54 236.11 157.12 243.4 145.31 241.5 127.58 245.76 125.67 255.02 120.63 251.76 110.25 255.53 107.02 266.76 108.85 291.16 107.93 299.22 128.09 305.54 132.18 302.21 138.75 293.73 142.76 286.15 156.18 294.06 160.4 307.04 155.95 325.79 156.34 319.83 145.13 321.38 138.92 331.85 130.63 343.38 130.65 347.84 106.09 Z" id="RS-02" data-name="Srednje-Banatski"/>
<path d="M 419.81 236.52 434.25 245.67 443.48 241.39 456.34 257.22 466.18 263.19 474.32 263.45 494.81 269.88 510.01 282.73 512.61 288.42 501.92 299.07 497.96 315.85 486.67 319.91 495.36 335.78 516.17 342.43 520.56 349.36 517.29 356.89 504.03 359.95 492.83 359.38 483.41 366.45 485.98 371.61 468.57 375.14 453.01 384.77 448.19 393.03 438.25 393.85 423.7 400.04 414.58 401.45 394.07 413.42 377.02 415.58 371.01 414.58 362.66 407.04 353.34 394.07 345.88 388.31 346.48 365.42 338.48 363.09 339.47 354.76 325.37 344.76 319.86 334.5 310.96 328.48 300.77 316.6 299.95 306.65 311.34 288.86 309.43 283.97 316.72 269.39 328.4 272.89 334.33 264.54 342.88 266.93 356.1 274.99 361.98 282.59 366.29 273.71 386.32 259.07 381.5 255.24 400.12 242.14 417.92 240.85 419.81 236.52 Z" id="RS-04" data-name="Južno-Banatski"/>
<path d="M 616.42 435.95 603.69 447.68 593.53 469.44 594.92 475.9 586.69 480.55 580.93 488.46 576.07 487.74 570.19 503.11 573.9 514.64 580.73 513.31 589.07 520.9 589.4 534.91 597 534.69 601.41 542.98 598.91 556.15 601.88 565.2 588.49 570.41 581.41 576.29 574.3 577.17 559.54 570.96 550.37 572.58 540.81 564.59 524.27 562.77 521.99 557.35 510.67 545.97 500.29 542.48 492.51 546.21 483.03 535.13 479.44 525.98 473.04 520.68 468.33 530.42 460.46 528.51 457.29 522.73 442.45 517.74 443.97 507.21 437.85 495 447.62 458.94 439.72 451.55 443.67 442.92 433.53 427.76 426.43 412.73 423.7 400.04 438.25 393.85 448.19 393.03 453.01 384.77 468.57 375.14 485.98 371.61 496.08 382.98 512.49 384.82 524.29 383.84 531.46 388.11 536.1 402.23 543.16 409.35 562.55 412.17 581.57 406.42 610.27 419.15 616.05 434.15 616.42 435.95 Z" id="RS-11" data-name="Branicevski"/>
<path d="M 218.61 421.95 232.52 408.65 241.9 403.79 244.29 389.53 239.51 383.44 247.76 378.07 253.99 354.87 262.48 353.59 269.79 347.8 286.37 343.72 282.23 336.78 282.38 326.08 292.58 315.01 289.12 302.5 299.95 306.65 300.77 316.6 310.96 328.48 319.86 334.5 325.37 344.76 339.47 354.76 338.48 363.09 346.48 365.42 345.88 388.31 353.34 394.07 362.66 407.04 371.01 414.58 377.02 415.58 372.41 427.41 379.25 443.07 365.9 451.23 371.11 461.25 382.09 469.9 385.53 477.01 381.7 482.88 369.69 482.85 364.98 493.52 369.91 500.35 372.64 514.74 356.91 504.79 349.06 508.25 340.72 494.27 327.96 499.18 327.48 491.04 309.02 482.07 300.8 491.99 306.9 499.82 298.78 515.67 277.57 530.17 264.3 517.72 260.02 507.84 260.67 499.28 267.29 485.09 265.7 465.91 257.8 448.73 248.86 461.36 242.09 453.14 232.37 458.23 222.57 454.58 218.17 442.64 216.41 434.24 218.61 421.95 Z" id="RS-00" data-name="Grad Beograd"/>
<path d="M 377.02 415.58 394.07 413.42 414.58 401.45 423.7 400.04 426.43 412.73 433.53 427.76 443.67 442.92 439.72 451.55 447.62 458.94 437.85 495 443.97 507.21 442.45 517.74 449.05 527.41 442.36 538.44 443.43 545.53 433.24 540.57 426.53 541.07 412.25 532.48 411.56 525.17 396.7 529.58 385.7 524.91 379.82 515.85 372.64 514.74 369.91 500.35 364.98 493.52 369.69 482.85 381.7 482.88 385.53 477.01 382.09 469.9 371.11 461.25 365.9 451.23 379.25 443.07 372.41 427.41 377.02 415.58 Z" id="RS-10" data-name="Podunavski"/>
<path d="M 541.18 647.48 552.34 659.92 547.38 662.92 551.68 671.04 548.28 674.95 552.54 690.47 566.69 708.21 583.96 710.32 592.61 724.59 606.86 721.39 600.51 715.82 605.08 709.58 613.92 718.78 620.35 731.07 626.5 730.8 641.48 738.59 650.32 736.57 661.2 744.32 667.98 739.22 677.24 748.33 674.49 759.44 672.76 773.84 658.69 776.1 649.17 771.18 635.94 771.48 640.97 786.17 631.36 806.96 653 820.58 660.26 820.69 666.46 831.55 654.58 841.04 650.47 845.56 639.38 845.08 624.42 833.58 614.29 822.49 608.22 820.58 597.27 825.44 591.04 817.42 581.74 823.59 571.94 824.19 571.62 818.6 563.37 807.51 564.31 795.42 551.73 795.19 548.88 804.86 534.43 795.59 526.58 769.88 511.11 768.7 507.12 763.29 523.6 753.75 525.92 749.47 521.24 738.75 525.81 723.27 515.71 707.7 509.36 705.25 510.43 687.32 507.59 679.05 514.74 675.35 506.45 661.77 522.51 650.89 535.04 650.5 541.18 647.48 Z" id="RS-20" data-name="Nišavski"/>
<path d="M 574.3 577.17 568.96 585.06 565.56 596.93 566.38 601.64 556.24 614.95 556.22 620.68 547.8 623.92 549.35 634.5 541.18 647.48 535.04 650.5 522.51 650.89 506.45 661.77 495.88 668.29 489.49 667.32 487.36 657.7 481.06 655.75 471.25 658.63 466.86 656.03 469.66 639.34 463.24 642.72 462.67 656.48 443.01 671.28 428.19 671.29 408.3 667.43 402.08 660.24 398.93 646.3 419.43 633.63 416.56 623.67 428.62 608.96 424.51 602.36 433.73 596.63 436.46 589.08 427.06 582.03 442.19 571.63 440.31 562.34 444.24 553.58 443.43 545.53 442.36 538.44 449.05 527.41 442.45 517.74 457.29 522.73 460.46 528.51 468.33 530.42 473.04 520.68 479.44 525.98 483.03 535.13 492.51 546.21 500.29 542.48 510.67 545.97 521.99 557.35 524.27 562.77 540.81 564.59 550.37 572.58 559.54 570.96 574.3 577.17 Z" id="RS-13" data-name="Pomoravski"/>
<path d="M 398.93 646.3 396.18 641.16 371.31 641.88 372.28 651.13 362.16 654.73 356.5 650.92 349.97 638.74 343.47 632.44 336.23 621.41 329.36 617.35 325.23 608.96 332.99 603.1 338.49 591.73 346.57 589.33 338.56 579.84 327.92 573.58 322.46 557.78 312.51 552.4 305.35 529.81 303.86 518.42 298.78 515.67 306.9 499.82 300.8 491.99 309.02 482.07 327.48 491.04 327.96 499.18 340.72 494.27 349.06 508.25 356.91 504.79 372.64 514.74 379.82 515.85 385.7 524.91 396.7 529.58 411.56 525.17 412.25 532.48 426.53 541.07 433.24 540.57 443.43 545.53 444.24 553.58 440.31 562.34 442.19 571.63 427.06 582.03 436.46 589.08 433.73 596.63 424.51 602.36 428.62 608.96 416.56 623.67 419.43 633.63 398.93 646.3 Z" id="RS-12" data-name="Šumadijski"/>
<path d="M 343.47 632.44 331.84 642.72 326.01 653.61 326.07 661.05 309.79 668.2 313.59 684.11 298.57 689.25 292.74 694.26 294.57 707.42 282.62 719.37 291.68 727.82 301.25 740.41 300.77 759.66 305.02 768.33 289.03 784.87 287.06 791.67 275.32 781.66 270.16 776.55 246.37 781.68 242.21 771.51 226.03 743.5 223.66 732.45 207.31 725.13 203.24 718.46 214.81 714 231.69 700.2 240.02 699.24 240.96 689.66 254.21 692.98 257.46 685.72 253.34 680.87 255.14 669.1 247.67 664.28 248.55 649.78 241.18 638.29 246.18 624.07 240.94 618.38 243.82 612.74 234.54 599.15 235.71 571.86 247.78 574.98 248.65 568.81 257.35 564.9 279.38 561.76 294.8 548.12 305.35 529.81 312.51 552.4 322.46 557.78 327.92 573.58 338.56 579.84 346.57 589.33 338.49 591.73 332.99 603.1 325.23 608.96 329.36 617.35 336.23 621.41 343.47 632.44 Z" id="RS-17" data-name="Moravicki"/>
<path d="M 235.71 571.86 225.58 566.8 219.46 574.47 207.62 569.54 203.26 560.48 196.95 560.19 190.26 566.49 187.34 577.88 180.46 576.13 173.85 566.71 150.11 556.19 138.73 538.83 120.41 531.22 113.86 521.7 125.66 506.33 117.43 498.4 124.28 493.9 128 481.91 126.21 476.67 139.09 474.83 148.16 481.07 162.09 476.9 177.47 483.47 181.31 490.38 192.33 489.88 190.42 479.7 197.34 476.83 198.71 464.26 194.81 453.67 202.51 445.13 209.15 446.38 218.17 442.64 222.57 454.58 232.37 458.23 242.09 453.14 248.86 461.36 257.8 448.73 265.7 465.91 267.29 485.09 260.67 499.28 260.02 507.84 264.3 517.72 277.57 530.17 298.78 515.67 303.86 518.42 305.35 529.81 294.8 548.12 279.38 561.76 257.35 564.9 248.65 568.81 247.78 574.98 235.71 571.86 Z" id="RS-09" data-name="Kolubarski"/>
</g>
</svg>