<?xml version="1.0"?>
<svg xmlns="http://www.w3.org/2000/svg" version="1.2" baseProfile="tiny" width="800" height="1832" viewBox="0 0 800 1832" stroke-linecap="round" stroke-linejoin="round">
<g id="MLOC-SE">
<path d="M 433.84 85.12 448.94 79.19 461.67 91.32 465.08 92.26 485.73 90.59 512.85 104.18 540.31 116.43 545.15 114.16 559.56 95.3 542.22 84.66 553.8 73.67 558.99 64.91 565.24 47 566.32 40.39 565.38 22.51 550.78 3.43 582.62 1 585.81 4.11 593.14 5.29 601.65 12.84 599.89 25.14 610.06 29.41 618.89 38.25 624.89 48.92 630.49 49.79 633.99 60.24 640.64 63.51 649.47 71.6 650.71 76.84 661.84 80.14 671.19 95.36 685.3 95.51 689.88 99.18 694.7 99.56 703.92 104.03 707.26 103.62 712.54 110.58 716.18 109.02 722.02 118.68 731.09 125.03 737.39 138.36 737.18 152.69 744.54 150.28 748.13 153.1 751.32 165.64 762.97 178.36 767.22 180.01 768.32 184.95 764.78 189.8 758.4 193.19 757.05 199.81 757.53 216.65 761.74 240.8 757.53 247.86 754.27 257.04 757.07 263.69 764.25 262.13 774.68 267.47 773.84 279.2 775.93 280.59 772.86 288.17 765.94 291.44 765.49 300.13 763.44 309.72 768.65 318.41 769.71 326 773.37 333.59 777.82 337.59 784.96 351.12 789.11 362.98 785.32 366.29 782.45 372.52 783.1 379.33 781.81 390.92 781.81 401.43 769.28 415.16 767.17 420.94 769.29 432.03 768.61 440.88 772.17 455.89 775.92 460.42 782.27 462.78 786.93 474.78 790.23 479.7 792.41 489.29 792.38 494.88 795.29 500.78 799 513.62 797.61 516.33 791.03 515.55 786.4 518.62 784.53 522.9 780.15 518.62 775.69 518.04 774.48 513.68 770.09 512.5 767.59 516.55 760.18 515.51 755.91 512.76 750.78 513.62 745.61 517.62 741.98 513.62 739.57 518.51 742.43 521.67 733.21 527.76 730.71 522.78 727.28 522.32 722.7 517.59 717.95 515.86 714.77 507.4 707.92 501.21 709.55 516.41 701.61 517.59 695.5 510.55 689.4 507.79 686.7 511.48 689.24 515.55 686.98 518.06 688.82 522.78 686.71 526.61 689.8 531.84 682.52 532.92 682.52 537.07 690.28 542.59 687.15 546.09 691.53 549.2 693 554.25 683.58 548.5 680.73 550.84 669.91 544.14 667.16 540.52 658.7 535.96 657.48 537.68 664.96 542.04 674.03 549.15 677.18 553.65 667.47 558.9 659.12 556.04 660.68 561.29 668.71 566.33 667.49 571.48 663.25 574.45 653.95 576.17 644.23 576.18 642.94 573.45 635.55 577.16 633.09 582.47 638.84 588.12 642.62 585.9 648.54 592.91 646.49 597.75 640.92 599.88 638.93 598.54 636.42 591.47 630.65 585.98 626.77 580.18 621.81 585.48 629.57 587.64 638.51 600.94 643.48 613.01 639.71 615.46 638.89 622.44 641.21 624.68 621.92 610.61 551.55 589.15 526.41 598.17 521.82 604.21 514.3 609.4 508.05 610.94 503.69 605.4 498.73 603.42 497.53 596.41 492.34 591.45 485.89 589.59 482.6 584.71 472.42 579.9 465.13 570.08 456.62 569.71 450.65 564.11 444.19 562.2 437.58 556.83 432.27 549.23 408.86 538.25 390.01 523.65 353.9 486.17 330.46 475.68 291.67 445.34 267.99 433.35 264.95 412.53 279.82 395.91 302.39 351.31 307.7 344.01 325.42 325.5 327.15 305.08 326.79 302.29 307.79 267.04 312.22 253.4 322.45 251.26 329.54 245.47 337.23 231.12 346.59 194 349.41 188.56 374.6 167.46 380.8 156.79 415.88 178.96 419.26 175.46 432.46 148.06 433.8 141.44 430.57 108.88 431.82 88.43 433.84 85.12 Z M 676.17 571.73 675.78 566.09 679.63 566.51 680.94 571.55 676.17 571.73 Z M 776.63 523.89 776.77 526.71 773.03 532.37 769.56 528.66 776.63 523.89 Z" fill-rule="evenodd" id="SE-BD" data-name="Norrbotten"/>
<path d="M 267.99 433.35 291.67 445.34 330.46 475.68 353.9 486.17 390.01 523.65 408.86 538.25 432.27 549.23 437.58 556.83 444.19 562.2 450.65 564.11 456.62 569.71 465.13 570.08 472.42 579.9 482.6 584.71 485.89 589.59 492.34 591.45 497.53 596.41 498.73 603.42 503.69 605.4 508.05 610.94 514.3 609.4 521.82 604.21 526.41 598.17 551.55 589.15 621.92 610.61 641.21 624.68 634.2 626.44 636.42 631.37 631.45 632.36 628.74 640.25 621.31 640.73 618.02 649.13 618.65 652.95 616.74 658.14 610.86 661.98 612.68 665.96 618.95 664.84 624.35 667.84 619.66 670.79 624.74 677.72 622.68 681.78 616.95 676.66 612.45 677.71 614.23 681.63 619.83 683.19 620.64 688.76 628.51 690.76 633.96 699.24 635.59 707.97 642.72 712.9 637.07 718.21 633.6 724.3 628.47 730.13 623.24 734.09 620.56 733.42 612.81 745.51 603.61 755.58 602.86 763.23 600.44 768.52 599.35 778.74 594.95 784.17 592.6 793.36 589.11 797.39 586.55 804.43 581.97 801.18 579.06 804.49 575.3 801.21 572.39 808.1 570.15 809.88 570.26 816.37 563.88 812.55 563.35 824.37 553.91 824.85 549.02 822.73 545.2 827.16 537.17 831.98 536.24 835.53 529.44 842.24 530.62 850.42 525.41 854.96 522.49 853.11 522.34 848.54 518.77 842.67 513.51 838.33 511.19 844.35 511.19 854.98 506.17 848.37 502.69 851.35 495.99 832.64 488.26 818.85 481.93 813.09 480.72 808.37 473.1 805.35 470.45 802.74 463.58 799.74 459.02 799.95 454.1 797.04 448.6 786.53 451.56 783.8 450.86 780.51 444.42 778.87 405.76 791.85 355.14 782.06 345.56 774.03 316.1 740.67 311.87 738.08 305.19 739.63 301.45 730.17 299.13 726.86 287.04 716.51 284.41 705.11 280.04 702.26 277.98 710.01 271.36 700.32 261.12 691.05 256.71 685.54 260.98 682.47 255.35 674.41 249.29 669.76 245.71 669.5 243.56 666.25 240.28 656.93 231.93 651.91 224.43 638.37 221.07 634.41 198.11 617.8 200.14 603.14 202.25 597.35 207.24 592.5 209.2 588.2 208.96 566.67 212.04 531.73 216.71 519.8 217.16 510.6 210.81 468.17 242.16 463.96 268.35 445.53 267.99 433.35 Z M 599.42 810.61 601.55 811.82 600.95 817.64 597.22 818.99 599.42 810.61 Z" fill-rule="evenodd" id="SE-AC" data-name="Västerbotten"/>
<path d="M 198.07 617.96 198.11 617.8 221.07 634.41 224.43 638.37 231.93 651.91 240.28 656.93 243.56 666.25 245.71 669.5 249.29 669.76 255.35 674.41 260.98 682.47 256.71 685.54 261.12 691.05 271.36 700.32 277.98 710.01 280.04 702.26 284.41 705.11 287.04 716.51 299.13 726.86 301.45 730.17 305.19 739.63 311.87 738.08 316.1 740.67 345.56 774.03 338.55 797.04 336.21 812.98 329.81 817.07 316.04 819.17 309.93 817.78 296.22 823.07 294.66 826.39 299.39 837.17 301.27 850.78 308.42 856.49 311.1 862.27 359.26 914.35 359 916.26 344.2 921.22 340.27 923.89 327.02 942.11 323.99 947.64 319.21 950.35 293.06 952.26 276.13 959.86 249.44 966.54 238.53 965.52 230.43 966.73 228.18 968.99 228.67 974.23 231.01 982.56 228.98 986.23 229.81 990.1 236.22 999.62 242.93 1006.91 250.74 1010 255.39 1008.23 260.82 1008.97 262.13 1014.43 265.19 1019.65 266.7 1024.96 264.37 1030.61 246.54 1045.82 247.78 1053.34 246.2 1059.66 246.57 1065.17 236.48 1064.86 235.07 1067.55 228.97 1066.64 227.35 1070.83 222.99 1062.6 219.59 1062.92 214.55 1070.25 211.1 1081.79 209.66 1093.55 207.21 1098.69 201.14 1099.9 195.88 1097.61 153.71 1090.08 150 1086.58 148.6 1081.86 141.66 1067.17 136.63 1058.1 140 1045.28 134.09 1039.68 128.05 1040.21 119.61 1035.27 115.14 1028.82 104.24 1018.8 76.37 1009.97 74.78 1010.32 72.6 1000.79 61.09 968.78 61.82 962.44 64.93 952.25 65.06 949.16 61.45 928.72 61.89 923.78 69.13 913.27 59.17 885.8 55.05 874.38 68.04 851.78 68.93 846.04 65.92 832.1 73.44 824 85.01 802.94 97.2 782.55 101.68 777.67 115.57 768.26 130.95 763.78 174.07 775.14 176.69 773.75 186.8 752.83 187.64 747.72 184.83 714.46 181.49 709.44 174.1 707.36 155.93 694.18 172.12 665.06 188.32 635.7 196.76 622.29 198.07 617.96 Z" id="SE-Z" data-name="Jämtland"/>
<path d="M 74.78 1010.32 76.37 1009.97 104.24 1018.8 115.14 1028.82 119.61 1035.27 128.05 1040.21 134.09 1039.68 140 1045.28 136.63 1058.1 141.66 1067.17 148.6 1081.86 150 1086.58 153.71 1090.08 195.88 1097.61 201.14 1099.9 207.21 1098.69 218.53 1102.35 221.3 1111.41 245.1 1111.4 250.23 1104.77 253.81 1110.97 266.44 1130.12 277.83 1142.81 281.44 1150.77 281.84 1157.82 287.85 1165.97 295.02 1170.11 309.55 1174.04 312.88 1179.7 316 1187.84 321.91 1194.99 324.72 1199.76 324.19 1205.38 316.04 1218.05 312.54 1221 312.4 1226.58 316.39 1234.43 318.65 1236.23 324.4 1246.59 327.78 1250.35 333.22 1254.16 336.52 1258.85 340.35 1266.92 343.87 1271.62 342.75 1274.09 333.88 1276.58 328.95 1284.55 325.91 1286.96 319.58 1288.6 313.73 1287.91 310.24 1285.31 308.06 1278.16 298.48 1274.91 291.95 1276.69 288.73 1276.27 284.72 1280.11 285.01 1282.46 281.95 1289.53 283.12 1298.06 280.61 1301.85 275.15 1300.53 271.58 1301.44 270.05 1306.47 266.69 1312.35 255.29 1297.76 253.47 1296.2 239.98 1290.24 231.64 1287.25 229.92 1283.81 224.78 1286.05 223.72 1290.77 224.93 1295.35 221.62 1295.9 205.34 1293.63 193.5 1284.99 187.4 1270.07 185.53 1268.26 176.31 1268.25 178.8 1271.56 174.84 1273.12 168.31 1266.01 157.51 1248.04 148.91 1243.15 144.23 1236.79 141.01 1228.85 132.61 1213.78 128.61 1209.83 126.78 1203.77 122.65 1197.02 101.73 1173.85 98.96 1166.77 101.16 1154.83 105.62 1148.04 107.76 1141.65 109.81 1129.64 109.13 1126.92 93.03 1104.4 89.19 1101.85 80.97 1099.87 65.4 1081.52 74.92 1015.27 74.78 1010.32 Z" id="SE-W" data-name="Dalarna"/>
<path d="M 47.85 1312.15 51.98 1310.06 61.79 1311.05 64.3 1310.5 73.28 1303.15 82.82 1291.85 86.75 1283.66 87.4 1273.87 85.3 1261.77 86.37 1258.1 91.8 1249.52 92.96 1242.05 91.85 1234.66 85.01 1216.94 78.56 1204.85 76.91 1199.94 74.66 1186.32 71.17 1176.32 72.69 1172.05 86.8 1167.77 97.23 1168.88 98.96 1166.77 101.73 1173.85 122.65 1197.02 126.78 1203.77 128.61 1209.83 132.61 1213.78 141.01 1228.85 144.23 1236.79 148.91 1243.15 157.51 1248.04 168.31 1266.01 174.84 1273.12 178.8 1271.56 176.31 1268.25 185.53 1268.26 187.4 1270.07 193.5 1284.99 205.34 1293.63 205.63 1297.89 199.31 1303.06 203.33 1307.17 204.46 1320.34 204.27 1328.33 204.99 1336.2 207.24 1348.68 204.45 1351.9 204.44 1356.56 206.42 1358.99 205.72 1363.27 203.66 1365.65 200.55 1373.51 197.93 1382.72 196.98 1389.87 196.77 1399.33 198.08 1407.08 196.88 1416.6 191.63 1413.26 154.21 1412.05 148.18 1416.43 144.58 1422.37 139.86 1437.15 143.89 1446.97 139.58 1449.03 134.26 1449.02 112.24 1440.42 108.02 1419.96 103.54 1412.41 101.74 1402.28 98.4 1398.3 96.18 1397.79 91.95 1403.68 89.04 1400.85 86.26 1401.8 77.83 1396.22 71.18 1392.98 69.8 1389.45 66.88 1388.18 62.16 1389.92 59.82 1394.63 52.41 1389.19 49.29 1390.71 43.97 1388.92 42.31 1375.52 35.8 1351.65 36.79 1344.01 45.03 1339.49 48.89 1333.91 49.62 1326.12 48.41 1321.83 45.92 1317.81 47.85 1312.15 Z" id="SE-S" data-name="Värmland"/>
<path d="M 43.97 1388.92 49.29 1390.71 52.41 1389.19 59.82 1394.63 62.16 1389.92 66.88 1388.18 69.8 1389.45 71.18 1392.98 77.83 1396.22 86.26 1401.8 89.04 1400.85 91.95 1403.68 96.18 1397.79 98.4 1398.3 101.74 1402.28 103.54 1412.41 108.02 1419.96 112.24 1440.42 134.26 1449.02 139.58 1449.03 143.89 1446.97 139.86 1437.15 144.58 1422.37 148.18 1416.43 154.21 1412.05 191.63 1413.26 196.88 1416.6 201.73 1429.82 202.84 1436.9 207.12 1444.61 207.59 1448.74 209.59 1450.7 214.98 1452.22 217.88 1448.76 220.27 1449.98 222.14 1455.48 227.37 1460.4 203.96 1509.57 192.26 1535.36 192.82 1542.36 190.72 1545.22 180.52 1551.16 178.9 1555.25 173.59 1552.17 167.26 1552.93 162.52 1552.45 163.5 1560.74 160.92 1567.68 161.26 1572.64 159.12 1577.85 158.37 1585.39 153.07 1593.12 149.79 1600.11 141.89 1609.26 135.9 1613.57 133.45 1618.79 129.33 1622.39 123.77 1631.65 120.05 1630.42 117.8 1627.58 113.78 1626.84 112.41 1623.11 113.24 1618.04 108.34 1617.31 105.09 1615.23 101.25 1615.21 96.73 1610.21 91.86 1609.77 86.98 1615.72 82.07 1614.83 79.55 1606.04 80.91 1600.09 76.11 1593.85 75.8 1583.26 73.97 1579.54 64.41 1583.63 59.75 1584.55 52.84 1582.97 50.19 1583.36 47.41 1580.57 45.43 1574.35 46.01 1571.94 41.49 1568.59 37.56 1567.48 43.38 1561.49 40.34 1560.28 36.37 1554.22 36.79 1549.22 41.22 1543.74 39.85 1540.64 42.51 1535.8 43.47 1531.31 42.25 1527.55 45.03 1521.53 45.58 1513.89 47.92 1512.5 46.01 1506.21 44.13 1503.31 43.72 1497.69 38.81 1497.63 29.05 1506.69 24.74 1505.63 27.5 1496.88 32.41 1490.52 28.22 1485.17 27.5 1493.23 22.87 1501.47 18.6 1504.9 19.65 1496.17 17.77 1494.51 8.13 1492.56 6.88 1489.01 12.34 1480.96 10.14 1479.54 10.64 1468.1 9.66 1460 7.26 1456.44 5.3 1449.7 8.55 1442.25 8.55 1437.05 6.79 1435.72 6.01 1429.42 1 1424.05 2.88 1421.11 1.42 1417.57 2.3 1414.84 7.84 1407.83 14.01 1406.72 16.07 1407.66 17.39 1413.59 21.13 1419.53 22.09 1423.23 22.02 1430.86 27.83 1432.2 31.77 1431.2 35 1428.02 39.95 1407.59 40.14 1401.89 41.8 1394.44 43.97 1388.92 Z M 39.55 1528.78 39.13 1535.8 35.2 1536.64 34.7 1539.77 30.74 1542.95 26.65 1540.8 24.82 1532.3 26.46 1529.68 34.71 1530.29 39.55 1528.78 Z M 43.72 1508.87 44.13 1518.84 43.58 1521.01 37.68 1524.19 30.17 1521.31 25.95 1525.6 19.24 1520.39 20.61 1516.93 26.65 1510.92 30.34 1508.58 34.92 1508.08 35.34 1502.52 39.55 1502.52 40.22 1505.1 43.72 1508.87 Z" fill-rule="evenodd" id="SE-O" data-name="Västra Götaland"/>
<path d="M 345.56 774.03 355.14 782.06 405.76 791.85 444.42 778.87 450.86 780.51 451.56 783.8 448.6 786.53 454.1 797.04 459.02 799.95 463.58 799.74 470.45 802.74 473.1 805.35 480.72 808.37 481.93 813.09 488.26 818.85 495.99 832.64 502.69 851.35 500.56 851.13 499.88 867.09 499.25 868.92 492.97 870.28 489.34 881.32 490.24 883.8 485.38 888.89 477.7 877.35 475.21 879.68 469.28 878.02 468.46 880.65 478.1 884.82 475 887.53 470.97 887.59 465.92 883.84 468.46 892.21 459.64 889.31 462.44 896.78 457.64 896.67 450.88 910.28 442.09 911.57 438.56 914.78 454.33 914.56 457.15 917.09 453.13 920.3 447.83 917.6 446.27 920.84 453.6 926.36 451.09 931.24 446.73 934.75 442.51 934.94 438.67 929.13 434.93 931.01 438.09 938.89 434.2 943.33 427 943.8 424.35 938.77 429.7 939.53 431.21 937.33 425.62 933.23 421.58 936.84 417.78 937.33 417.47 924.8 412.96 924.05 416.27 935.05 415.27 938.32 419.63 942.64 422.44 952.46 420.74 959.36 424.91 963.48 424.87 968.01 420.33 972.2 416.73 973.68 413.82 980.11 409.2 979.46 403.51 980.52 401.47 985.33 396.38 988.11 393.31 984.88 387.92 975.35 382.02 980.47 381.35 983.89 384.07 988.49 382.36 993 383.15 999.28 385.15 1002.89 388.9 1003.79 390.99 1009.17 394.56 1013.29 401.04 1015.54 395.96 1019.11 392.24 1017.32 391.62 1026.6 376.71 1023.72 373.96 1022.61 361.82 1022.3 329.82 1013.06 312.82 1011.79 277.23 999.37 271.31 1000.15 260.82 1008.97 255.39 1008.23 250.74 1010 242.93 1006.91 236.22 999.62 229.81 990.1 228.98 986.23 231.01 982.56 228.67 974.23 228.18 968.99 230.43 966.73 238.53 965.52 249.44 966.54 276.13 959.86 293.06 952.26 319.21 950.35 323.99 947.64 327.02 942.11 340.27 923.89 344.2 921.22 359 916.26 359.26 914.35 311.1 862.27 308.42 856.49 301.27 850.78 299.39 837.17 294.66 826.39 296.22 823.07 309.93 817.78 316.04 819.17 329.81 817.07 336.21 812.98 338.55 797.04 345.56 774.03 Z M 429.89 955.26 423.92 955.72 422.65 952.92 424.78 946.38 432.04 947.37 429.89 955.26 Z" fill-rule="evenodd" id="SE-Y" data-name="Västernorrland"/>
<path d="M 207.21 1098.69 209.66 1093.55 211.1 1081.79 214.55 1070.25 219.59 1062.92 222.99 1062.6 227.35 1070.83 228.97 1066.64 235.07 1067.55 236.48 1064.86 246.57 1065.17 246.2 1059.66 247.78 1053.34 246.54 1045.82 264.37 1030.61 266.7 1024.96 265.19 1019.65 262.13 1014.43 260.82 1008.97 271.31 1000.15 277.23 999.37 312.82 1011.79 329.82 1013.06 361.82 1022.3 373.96 1022.61 376.71 1023.72 391.62 1026.6 390.15 1030.65 389.81 1037.76 387.19 1042.4 384.74 1050.8 382.19 1055.72 383.26 1059.64 381.85 1068.06 385.94 1069.08 384.89 1073.32 385.55 1081.84 390.68 1080.27 392.95 1084.42 391.49 1093.09 388.42 1093.37 383.29 1083.55 379.68 1084.07 377.03 1088.06 367.09 1092.95 374.94 1094.77 366.18 1101.29 366.59 1104.61 371.3 1106.98 371.97 1112.11 370.15 1118.93 367.5 1123.3 369.58 1127.14 373.38 1129.83 368.56 1134.92 373.38 1141.12 374.15 1144.19 370.43 1148.14 372.55 1149.8 372.09 1156.79 373.22 1162.55 371.3 1168.1 376.3 1172.41 371.4 1174.95 370.82 1180.46 373.68 1182.29 376.2 1186.8 378.4 1193.96 378.45 1201.46 381.67 1203.25 376.56 1209.11 375.7 1211.9 383.43 1217.95 384.17 1221.11 380.45 1238.25 376.18 1245.38 374.44 1250.8 374.97 1260.08 368.5 1263.21 360.01 1261.65 356.79 1264.03 355.99 1267.96 349.51 1272.28 343.87 1271.62 340.35 1266.92 336.52 1258.85 333.22 1254.16 327.78 1250.35 324.4 1246.59 318.65 1236.23 316.39 1234.43 312.4 1226.58 312.54 1221 316.04 1218.05 324.19 1205.38 324.72 1199.76 321.91 1194.99 316 1187.84 312.88 1179.7 309.55 1174.04 295.02 1170.11 287.85 1165.97 281.84 1157.82 281.44 1150.77 277.83 1142.81 266.44 1130.12 253.81 1110.97 250.23 1104.77 245.1 1111.4 221.3 1111.41 218.53 1102.35 207.21 1098.69 Z" id="SE-X" data-name="Gävleborg"/>
<path d="M 374.97 1260.08 374.44 1250.8 376.18 1245.38 380.45 1238.25 384.17 1221.11 386.44 1219.36 396.29 1218.11 400.6 1221.77 398.05 1226.06 400.16 1234.6 406.47 1236.71 405.59 1232.2 411.03 1225.92 417.3 1224.06 420.74 1225.6 421.99 1229.92 420.28 1234.16 428.29 1240.87 429.12 1244.33 433.2 1249.04 438.3 1251.09 439.24 1255.17 448.43 1255.24 449.64 1259.6 448.36 1262.96 456.84 1266.28 456.73 1270.18 446.76 1266.25 446.27 1269.62 447.94 1274.38 452.4 1278.4 455.53 1277.97 456.17 1283.23 450.45 1292.86 452.17 1297.24 448.37 1300.55 448.04 1307.59 446.11 1312.5 439.04 1316.63 435.16 1317.68 431.66 1320.92 427.77 1328.23 422.82 1328.35 414.36 1333.54 408.91 1335.59 402.28 1333.47 396.7 1338.71 395.53 1343.99 397.44 1349.17 394.27 1356.61 393.04 1364.36 390.67 1366.38 388.32 1372.56 386.65 1368.97 379.38 1363.79 376.11 1358.73 370.2 1355.5 365.49 1356.2 359.09 1354.9 355.05 1338.37 348.73 1324.32 348.39 1321.64 352.51 1316.86 352.52 1312.22 361.59 1314.56 364.22 1317.73 372.18 1312.17 373.64 1308.52 373.84 1302.08 371.18 1299.18 374.03 1292.95 378.77 1290.9 379.95 1288.63 384.72 1273.42 383.73 1267.32 374.97 1260.08 Z M 455.9 1257.92 453.71 1258.68 450.32 1254.62 446.86 1252.64 445.8 1246.69 445.99 1239.13 450.76 1243.62 448.54 1245.2 452.49 1254.28 455.9 1257.92 Z" fill-rule="evenodd" id="SE-C" data-name="Uppsala"/>
<path d="M 388.32 1372.56 390.67 1366.38 393.04 1364.36 394.27 1356.61 397.44 1349.17 395.53 1343.99 396.7 1338.71 402.28 1333.47 408.91 1335.59 414.36 1333.54 422.82 1328.35 427.77 1328.23 431.66 1320.92 435.16 1317.68 439.04 1316.63 446.11 1312.5 448.04 1307.59 448.37 1300.55 452.17 1297.24 450.45 1292.86 456.17 1283.23 457.61 1280.69 462.09 1279.94 469.09 1284.5 472.43 1284.18 472.67 1289.75 477.47 1304.55 483.98 1309.16 487.78 1310.76 487.55 1318.38 484.7 1317.61 479.16 1312.08 478.76 1316.12 474.94 1322.11 470.55 1325.03 485.97 1324.3 488.61 1325.86 485.6 1331.16 481.89 1332.3 477.37 1330.41 474.56 1333.03 470.03 1334.42 467.63 1340.74 464.24 1346.01 455.32 1353.25 451.86 1354.62 447.52 1359.85 440.81 1363.95 439.2 1368.09 431.17 1365.53 427.44 1366.12 428.29 1369.77 424.87 1371.11 432.84 1379.6 434.93 1378.87 437.84 1375.26 441.72 1373.69 446.09 1374.46 451.73 1377.07 448.36 1366.42 451.9 1366.68 455.52 1371.34 459.7 1373.8 459.01 1376.1 461.79 1379.16 460.16 1381.79 454.02 1382.99 449.64 1381.24 444.55 1382 441.06 1379.16 439.35 1387.37 442.79 1390.45 446.27 1397.63 448.81 1398.89 441.08 1402.93 442.09 1405.69 437.88 1406.51 435.94 1404.33 430.21 1408.2 428.15 1411.61 424.91 1411.45 419.9 1422.88 420.47 1426.13 418.04 1429.2 413.21 1427.46 410.26 1429.42 406.95 1427.58 406.47 1419.56 407.65 1414.15 401.84 1408.95 398.5 1407.39 398.71 1414.73 399.75 1416.39 396.98 1422.71 393.22 1419.69 384.74 1418.75 382.71 1413.51 381.63 1404.13 378.8 1396.35 378.58 1391.49 381.5 1388.25 382.04 1379.8 383.44 1377.43 388.6 1376.03 388.32 1372.56 Z M 448.58 1387.78 447.52 1385.33 450.49 1383 454.27 1384.14 455.22 1387.58 454.08 1391.32 448.58 1387.78 Z M 451.94 1406.95 447.55 1417.16 444.68 1417.46 443.14 1414.57 445.18 1409.23 450.76 1404.6 451.94 1406.95 Z M 463.6 1377.96 467.94 1378.97 464.01 1382.75 463.6 1377.96 Z M 428.79 1372.6 436.79 1374.06 435.24 1377.81 432.39 1377.92 429.78 1375.98 428.79 1372.6 Z M 462.41 1357.96 455.61 1367.37 453.48 1360.8 458.49 1354.1 460.93 1352.76 464.65 1354.73 462.41 1357.96 Z M 483.18 1321.29 481.69 1324.11 477.14 1321.29 480.9 1314.73 483.12 1317.68 483.18 1321.29 Z M 466.53 1274 468.31 1272.45 471.6 1278.42 466.55 1279.05 466.53 1274 Z M 404.38 1419.33 403.59 1427.01 401.35 1427.71 399.31 1422.82 400.76 1416.46 404.38 1419.33 Z" fill-rule="evenodd" id="SE-AB" data-name="Stockholm"/>
<path d="M 359.09 1354.9 365.49 1356.2 370.2 1355.5 376.11 1358.73 379.38 1363.79 386.65 1368.97 388.32 1372.56 388.6 1376.03 383.44 1377.43 382.04 1379.8 381.5 1388.25 378.58 1391.49 378.8 1396.35 381.63 1404.13 382.71 1413.51 384.74 1418.75 393.22 1419.69 396.98 1422.71 399.46 1428.29 397.25 1434.27 395.11 1435.82 390.5 1432.03 388.65 1440.34 389.25 1443.22 383.86 1444.69 383.01 1447.97 378.02 1448.24 378.02 1450.38 371.07 1450.23 366.46 1446.36 366.22 1453.66 370.05 1454.39 366.83 1458.6 361.81 1456.13 361.94 1460.88 356.51 1462.76 347.79 1461.69 344.97 1458.14 338.54 1455.3 327.73 1454.91 325.96 1453.64 323.8 1447.93 318.24 1439.4 308.37 1431.56 304.79 1427.43 294.91 1419.85 290.74 1417.37 286.37 1422.18 283.13 1420.38 278.01 1414.21 282.44 1407.29 288.05 1404.02 286.49 1394 291.33 1392.12 293.9 1389.69 294.34 1385.34 298.45 1377.63 300.3 1375.77 305.48 1374.63 309.37 1375.76 316.97 1373.77 319.13 1370.2 316.83 1367.85 317.57 1364.34 351.91 1357.6 355.5 1357.38 359.09 1354.9 Z" id="SE-D" data-name="Södermanland"/>
<path d="M 203.96 1509.57 227.37 1460.4 232.45 1456.19 239.58 1454.08 249.34 1441.28 255.96 1436.85 265.11 1436.83 271.87 1433.47 275.15 1429.52 275.12 1425.57 277.08 1422.55 283.13 1420.38 286.37 1422.18 290.74 1417.37 294.91 1419.85 304.79 1427.43 308.37 1431.56 318.24 1439.4 323.8 1447.93 325.96 1453.64 327.73 1454.91 338.54 1455.3 344.97 1458.14 347.79 1461.69 314.31 1457.61 317.47 1463.87 319.62 1461.49 325.03 1466.14 326.9 1460.09 331.67 1462.86 338.89 1462.6 342.18 1465.1 348.27 1464.9 348.06 1468.94 350.78 1470.5 351.01 1474 357.49 1478.49 352.95 1479.44 350.78 1483.06 344.06 1484.88 336.57 1483.46 343.72 1489.72 343.4 1492.74 347.16 1493.44 347.4 1496.17 338.63 1494.51 342.81 1498.56 347.66 1497.81 344.61 1504.45 349.1 1507.21 350.22 1511.58 349.52 1516.8 347.53 1520.45 344.12 1518.21 340.33 1518.44 345.01 1525.74 343.26 1529.78 345.27 1530.94 341.53 1534.94 342.01 1536.77 339.48 1536.4 337.34 1531.82 336.49 1526.46 334.61 1523.99 331.37 1524.29 326.91 1521.05 318.45 1521.17 312.07 1523.75 310.59 1527.12 302.4 1526.34 301.5 1531.43 304.68 1538.32 302.67 1543.16 303.5 1548.25 302.56 1551.31 298.53 1555.97 295.79 1556.34 289.6 1554.27 285.76 1551.84 279.85 1551.97 277.65 1553.26 272.64 1561.09 267.03 1564.19 265.98 1568.66 250.94 1567.32 248.28 1565.38 245.37 1558.75 243.83 1552.03 240.41 1545.43 240.43 1540.61 242.17 1535.86 244.93 1534.45 243.02 1529.97 240.76 1521.51 238.45 1517.6 234.23 1519.51 233.51 1522.66 228.81 1524.58 214.31 1522.61 209.28 1519.99 207.47 1517.74 203.96 1509.57 Z" id="SE-E" data-name="Östergötland"/>
<path d="M 265.98 1568.66 267.03 1564.19 272.64 1561.09 277.65 1553.26 279.85 1551.97 285.76 1551.84 289.6 1554.27 295.79 1556.34 298.53 1555.97 302.56 1551.31 303.5 1548.25 302.67 1543.16 304.68 1538.32 301.5 1531.43 302.4 1526.34 310.59 1527.12 312.07 1523.75 318.45 1521.17 326.91 1521.05 331.37 1524.29 334.61 1523.99 336.49 1526.46 337.34 1531.82 339.48 1536.4 342.01 1536.77 343.2 1539.9 347.33 1544.36 346.36 1549.7 343.47 1548.06 337.34 1547.66 338.26 1543.79 331.52 1535.67 330.25 1537.38 332.54 1541.27 336.09 1542.95 334.42 1548.45 332.09 1546.33 328.16 1547.66 341.31 1562.61 336.36 1561.65 343.1 1568.07 343.22 1571.3 337.34 1572.01 338.56 1578.1 333.17 1584.55 338.48 1586.33 342.13 1596.02 339.05 1598.61 340.12 1603.12 335.02 1605.59 332.71 1608.67 334.42 1613.32 329.68 1616.11 328.69 1618.28 330.25 1621.95 328.5 1623.63 328.44 1629.36 331.16 1634.99 333.79 1636.93 332.71 1643.49 326.9 1647.72 326.9 1651.92 328.63 1654.99 326.69 1659.26 326.69 1665.33 325.02 1670.75 326.22 1673.59 321.82 1676.32 323.11 1679.95 323.2 1685.55 321.94 1687.9 318.43 1686.92 315.62 1688.36 313.69 1692.38 313.05 1699.68 310.17 1704.16 305.84 1713.96 304.07 1723.17 298.8 1724.24 291.44 1721.55 287.8 1718.88 283.18 1712.98 275.41 1704.86 272.48 1704.04 270.22 1706.42 264.52 1704.73 261.08 1707.02 261.42 1701.51 263.66 1698.53 264.51 1685.31 262.88 1676.47 263.41 1674.55 267.86 1671.86 270.8 1671.79 273.09 1668.96 271.19 1660.14 275.16 1658 278.92 1660.23 286.73 1659.6 289.97 1657.51 290.63 1653.99 288.14 1647 280.01 1634.67 275.05 1631.68 274.56 1627.63 272.56 1625.51 272.2 1622.15 269.17 1615.31 270.86 1612.09 271.14 1599.62 272.61 1596.39 277.37 1597.2 279.35 1591.73 279.16 1588.69 276.58 1585.31 279.43 1581.11 276.92 1577.34 271.9 1574.57 265.98 1568.66 Z M 368.76 1613.32 365.76 1614.92 363.71 1618.79 365.2 1623.78 364.17 1628.12 359.53 1637.59 358.74 1642.2 354.95 1645.03 357.11 1647.33 353.28 1652.76 354 1658.69 352.48 1660.87 350.78 1668.8 347.8 1670.5 346.26 1677.55 342.72 1688.93 341.76 1694.68 339.34 1697.46 337.9 1707.77 335.85 1713.16 334.64 1722.05 330.03 1733.78 327.54 1736.08 325.24 1734.91 324.82 1717.53 323.95 1709.61 324.41 1700.09 327.7 1689.79 337.97 1663.61 343.84 1661.42 348.53 1648.87 354.32 1636.01 355.64 1626.55 358.65 1623.33 359.1 1614.98 362.32 1610.45 367.52 1610.03 368.76 1613.32 Z" fill-rule="evenodd" id="SE-H" data-name="Kalmar"/>
<path d="M 261.08 1707.02 264.52 1704.73 270.22 1706.42 272.48 1704.04 275.41 1704.86 283.18 1712.98 287.8 1718.88 291.44 1721.55 298.8 1724.24 304.07 1723.17 302.36 1732.08 300.29 1736 295.87 1740.91 290.96 1750.6 287.11 1748.4 289.42 1742.6 283.59 1742.83 278.52 1738.73 275.09 1742.47 273.9 1737.44 269.02 1740.73 262.94 1740.87 261.24 1744.6 255.63 1741.3 250.65 1743.31 248.33 1741.58 241.89 1743.23 236.04 1741.11 229.61 1742.09 222.08 1741.69 219.69 1743.91 220.76 1748.07 224.7 1756.69 221.5 1759.8 215.15 1758.83 214.91 1756 211.59 1754.14 211.75 1749.53 213.65 1743.11 213 1738.09 210.92 1733.84 205.26 1731.02 203.04 1722.02 205.72 1715.27 210.82 1707.53 214.22 1708.97 222.09 1715.89 230.92 1718.41 233.71 1718.1 237.84 1713.25 238.63 1710.86 245.25 1709.16 252.08 1711.34 253.99 1708.64 259.83 1708.44 261.08 1707.02 Z M 282.01 1747.31 281.81 1751.66 278.7 1750.2 278.93 1746.97 282.01 1747.31 Z" fill-rule="evenodd" id="SE-K" data-name="Blekinge"/>
<path d="M 210.82 1707.53 205.72 1715.27 203.04 1722.02 205.26 1731.02 210.92 1733.84 213 1738.09 213.65 1743.11 211.75 1749.53 211.59 1754.14 207.04 1756.59 202.69 1762.56 198.94 1765.15 197.53 1769.25 194.33 1771.57 190.51 1779.54 189.74 1789.93 194.5 1796.23 194.64 1799.76 199.66 1807.48 199.96 1811.8 193.96 1818.53 188.84 1826.12 183.52 1826.49 179.93 1825.44 175.09 1822.24 170.57 1821.57 168.13 1822.85 164.34 1822.18 155.12 1823.16 152.14 1826.34 147.41 1826.38 139.95 1830.94 133.79 1831 123.7 1827.25 120.4 1827.15 116.64 1825.12 112.52 1826.42 106.18 1825.12 108.05 1821.38 110.81 1823.2 114.55 1821.38 115.16 1817.05 112.27 1812.19 112.32 1805.83 118.31 1800.66 120.39 1795.49 117.34 1789.63 111.91 1787.35 112.89 1782.89 112.12 1778.15 105.72 1772.42 104.88 1768.28 102.63 1765.68 101.5 1760.43 98.84 1757.72 98.18 1754.42 92.77 1747.3 89.36 1740.16 86.36 1729.85 95.02 1731.84 98.6 1735.66 104.23 1735.05 106.46 1730.91 103.4 1727.86 100.25 1720.55 94.87 1716.54 93.51 1713.96 95.67 1709.99 99.14 1708.66 106.45 1711.4 111.19 1707.88 115.17 1711.27 115.17 1716.6 117.65 1719.33 126.12 1720.87 130.74 1722.41 134.71 1717.95 140.55 1713.99 147.29 1713.47 151.89 1713.47 177.36 1707.34 180.33 1705.85 183.55 1700.48 187.69 1702.46 194.75 1702.39 210.82 1707.53 Z" id="SE-M" data-name="Skåne"/>
<path d="M 50.19 1583.36 52.84 1582.97 59.75 1584.55 64.41 1583.63 73.97 1579.54 75.8 1583.26 76.11 1593.85 80.91 1600.09 79.55 1606.04 82.07 1614.83 86.98 1615.72 91.86 1609.77 96.73 1610.21 101.25 1615.21 105.09 1615.23 108.34 1617.31 113.24 1618.04 112.41 1623.11 113.78 1626.84 117.8 1627.58 120.05 1630.42 123.77 1631.65 122.13 1636.94 125.09 1644.67 126.6 1644.72 131.28 1638.35 140.77 1635.75 146.45 1637.15 152.85 1641.69 153.74 1646.9 159.04 1651.16 158.03 1656.67 154.65 1659.75 146.33 1662.84 138.17 1664.13 136.28 1668.1 135.48 1682.63 138.18 1686.12 142.23 1693.63 144.08 1698.49 144.25 1705.93 147.29 1713.47 140.55 1713.99 134.71 1717.95 130.74 1722.41 126.12 1720.87 117.65 1719.33 115.17 1716.6 115.17 1711.27 111.19 1707.88 112.57 1704.32 112.63 1699.83 108.8 1688.46 100.25 1688.73 97.07 1685.11 96.12 1681.24 93.15 1677.26 92.09 1669.34 88.15 1666.51 84.22 1661.4 78.44 1659.16 76.43 1653.46 75.89 1646.96 72.1 1644.49 68.01 1632.67 66.56 1624.96 63.97 1624.58 63.3 1621.14 64.51 1617.14 63.89 1613.29 61.51 1610.22 58.56 1609.71 62.16 1604.81 59.14 1597.49 55.92 1600.29 55.08 1608.02 50.33 1603.78 49.61 1598.61 52.14 1593.95 49.61 1590.06 50.19 1583.36 Z" id="SE-N" data-name="Halland"/>
<path d="M 485.86 1550.74 488.61 1555.58 484.31 1556.01 480.82 1560.3 479.81 1566.61 471.8 1568.89 469.01 1578.35 471.8 1580.58 468.81 1591.94 470.55 1598.61 477.83 1599.72 479.12 1603.65 474.43 1605.05 469.35 1608.19 463.03 1615.86 465.73 1618.4 465.92 1621.95 458.43 1624.69 456.22 1627.65 448.63 1631.95 445.85 1634.98 443.35 1640 442.93 1645.79 444.18 1650.46 440.52 1655.85 434.74 1658.81 430.75 1658.04 434.73 1650.84 434.55 1647.33 438.51 1644.64 435.92 1642.53 436.21 1634.27 433.6 1633.02 432.04 1623.43 428.35 1620.14 429.34 1615.83 431.63 1613.98 433.23 1606.49 431.21 1603.26 429.12 1591.55 432.14 1583.93 442.14 1573.13 450.58 1558.18 455.9 1554.01 458.64 1554.94 462.49 1546.84 467.66 1544.99 470.22 1554 473.87 1550.09 473.46 1545.65 477.16 1547.32 483.14 1545.67 485.86 1550.74 Z M 500.08 1538.24 498.55 1541.01 493.3 1544.06 493.2 1549.32 491.41 1552.55 487.78 1550.74 485.65 1546.45 488.69 1539.17 493.39 1537.02 498.07 1538.92 500.08 1538.24 Z M 503.68 1492.91 498.7 1495.8 496.49 1494.42 494.88 1489.72 502.08 1491.59 503.68 1492.91 Z" fill-rule="evenodd" id="SE-I" data-name="Gotland"/>
<path d="M 266.69 1312.35 270.05 1306.47 271.58 1301.44 275.15 1300.53 280.61 1301.85 283.12 1298.06 281.95 1289.53 285.01 1282.46 284.72 1280.11 288.73 1276.27 291.95 1276.69 298.48 1274.91 308.06 1278.16 310.24 1285.31 313.73 1287.91 319.58 1288.6 325.91 1286.96 328.95 1284.55 333.88 1276.58 342.75 1274.09 343.87 1271.62 349.51 1272.28 355.99 1267.96 356.79 1264.03 360.01 1261.65 368.5 1263.21 374.97 1260.08 383.73 1267.32 384.72 1273.42 379.95 1288.63 378.77 1290.9 374.03 1292.95 371.18 1299.18 373.84 1302.08 373.64 1308.52 372.18 1312.17 364.22 1317.73 361.59 1314.56 352.52 1312.22 352.51 1316.86 348.39 1321.64 348.73 1324.32 355.05 1338.37 359.09 1354.9 355.5 1357.38 351.91 1357.6 317.57 1364.34 316.83 1367.85 319.13 1370.2 316.97 1373.77 309.37 1375.76 305.48 1374.63 300.3 1375.77 298.45 1377.63 294.34 1385.34 293.9 1389.69 291.33 1392.12 286.49 1394 287.22 1390.23 283.76 1390.02 281.63 1386.38 277.61 1383.58 279.04 1377.2 277.59 1374.38 278.34 1369.68 283.01 1368.11 284.87 1365.92 282.75 1359.78 284.11 1353.98 280.4 1353.03 278.06 1343.38 273.02 1342.14 272.81 1337.58 274.29 1329.64 271.87 1321.67 267.92 1319.47 268.31 1315.6 266.69 1312.35 Z" id="SE-U" data-name="Västmanland"/>
<path d="M 123.77 1631.65 129.33 1622.39 133.45 1618.79 135.9 1613.57 141.89 1609.26 149.79 1600.11 153.07 1593.12 158.37 1585.39 159.12 1577.85 161.26 1572.64 160.92 1567.68 163.5 1560.74 162.52 1552.45 167.26 1552.93 173.59 1552.17 178.9 1555.25 180.52 1551.16 190.72 1545.22 192.82 1542.36 192.26 1535.36 203.96 1509.57 207.47 1517.74 209.28 1519.99 214.31 1522.61 228.81 1524.58 233.51 1522.66 234.23 1519.51 238.45 1517.6 240.76 1521.51 243.02 1529.97 244.93 1534.45 242.17 1535.86 240.43 1540.61 240.41 1545.43 243.83 1552.03 245.37 1558.75 248.28 1565.38 250.94 1567.32 265.98 1568.66 271.9 1574.57 276.92 1577.34 279.43 1581.11 276.58 1585.31 279.16 1588.69 279.35 1591.73 277.37 1597.2 272.61 1596.39 271.14 1599.62 270.86 1612.09 269.17 1615.31 272.2 1622.15 272.56 1625.51 264.31 1622.75 253.15 1622.9 248.96 1622.06 249.56 1627.13 243.51 1628.23 238.95 1632.27 235.89 1632.15 232.33 1626.69 227.2 1623.66 221.66 1624.55 211.2 1629.45 204.16 1630.95 201.11 1633.29 199.55 1646.82 201.56 1649.26 201.79 1654.32 198.24 1661.28 195.54 1661.51 192.04 1658.57 189.6 1651.26 187.46 1647.69 181.76 1643.67 174.78 1644.94 169.92 1648.86 164.33 1645.31 162.52 1645.9 159.04 1651.16 153.74 1646.9 152.85 1641.69 146.45 1637.15 140.77 1635.75 131.28 1638.35 126.6 1644.72 125.09 1644.67 122.13 1636.94 123.77 1631.65 Z" id="SE-F" data-name="Jönköping"/>
<path d="M 205.34 1293.63 221.62 1295.9 224.93 1295.35 223.72 1290.77 224.78 1286.05 229.92 1283.81 231.64 1287.25 239.98 1290.24 253.47 1296.2 255.29 1297.76 266.69 1312.35 268.31 1315.6 267.92 1319.47 271.87 1321.67 274.29 1329.64 272.81 1337.58 273.02 1342.14 278.06 1343.38 280.4 1353.03 284.11 1353.98 282.75 1359.78 284.87 1365.92 283.01 1368.11 278.34 1369.68 277.59 1374.38 279.04 1377.2 277.61 1383.58 281.63 1386.38 283.76 1390.02 287.22 1390.23 286.49 1394 288.05 1404.02 282.44 1407.29 278.01 1414.21 283.13 1420.38 277.08 1422.55 275.12 1425.57 275.15 1429.52 271.87 1433.47 265.11 1436.83 255.96 1436.85 249.34 1441.28 239.58 1454.08 232.45 1456.19 227.37 1460.4 222.14 1455.48 220.27 1449.98 217.88 1448.76 214.98 1452.22 209.59 1450.7 207.59 1448.74 207.12 1444.61 202.84 1436.9 201.73 1429.82 196.88 1416.6 198.08 1407.08 196.77 1399.33 196.98 1389.87 197.93 1382.72 200.55 1373.51 203.66 1365.65 205.72 1363.27 206.42 1358.99 204.44 1356.56 204.45 1351.9 207.24 1348.68 204.99 1336.2 204.27 1328.33 204.46 1320.34 203.33 1307.17 199.31 1303.06 205.63 1297.89 205.34 1293.63 Z" id="SE-T" data-name="Orebro"/>
<path d="M 272.56 1625.51 274.56 1627.63 275.05 1631.68 280.01 1634.67 288.14 1647 290.63 1653.99 289.97 1657.51 286.73 1659.6 278.92 1660.23 275.16 1658 271.19 1660.14 273.09 1668.96 270.8 1671.79 267.86 1671.86 263.41 1674.55 262.88 1676.47 264.51 1685.31 263.66 1698.53 261.42 1701.51 261.08 1707.02 259.83 1708.44 253.99 1708.64 252.08 1711.34 245.25 1709.16 238.63 1710.86 237.84 1713.25 233.71 1718.1 230.92 1718.41 222.09 1715.89 214.22 1708.97 210.82 1707.53 194.75 1702.39 187.69 1702.46 183.55 1700.48 180.33 1705.85 177.36 1707.34 151.89 1713.47 147.29 1713.47 144.25 1705.93 144.08 1698.49 142.23 1693.63 138.18 1686.12 135.48 1682.63 136.28 1668.1 138.17 1664.13 146.33 1662.84 154.65 1659.75 158.03 1656.67 159.04 1651.16 162.52 1645.9 164.33 1645.31 169.92 1648.86 174.78 1644.94 181.76 1643.67 187.46 1647.69 189.6 1651.26 192.04 1658.57 195.54 1661.51 198.24 1661.28 201.79 1654.32 201.56 1649.26 199.55 1646.82 201.11 1633.29 204.16 1630.95 211.2 1629.45 221.66 1624.55 227.2 1623.66 232.33 1626.69 235.89 1632.15 238.95 1632.27 243.51 1628.23 249.56 1627.13 248.96 1622.06 253.15 1622.9 264.31 1622.75 272.56 1625.51 Z" id="SE-G" data-name="Kronoberg"/>
</g>
</svg>