<?xml version="1.0"?>
<svg xmlns="http://www.w3.org/2000/svg" version="1.2" baseProfile="tiny" width="800" height="529" viewBox="0 0 800 529" stroke-linecap="round" stroke-linejoin="round">
<g id="MLOC-SI">
<path d="M 57.81 504.44 63.24 486.64 66.08 497.96 76.37 497.87 83.21 500.6 75.66 514.87 66.57 513.87 57.81 504.44 Z" id="SI-090" data-name="Piran"/>
<path d="M 744.33 32.29 748.05 45.68 761.02 62.91 758.71 67.35 748.1 81.96 743.93 80.96 729.46 78.84 720.03 75.19 713.74 62.6 712.95 54.78 721.8 45.05 733.75 32.09 744.33 32.29 Z" id="SI-078" data-name="Moravske Toplice"/>
<path d="M 747.27 25.62 744.33 32.29 733.75 32.09 734.03 18.06 713.93 3.04 737.37 1 743.8 7.28 747.27 25.62 Z" id="SI-033" data-name="Šalovci"/>
<path d="M 743.8 7.28 752 11.96 747.27 25.62 743.8 7.28 Z" id="SI-161" data-name="Hodoš"/>
<path d="M 701.45 3.69 713.93 3.04 734.03 18.06 733.75 32.09 721.8 45.05 718.58 27.06 703.02 13.79 700.17 12.47 701.45 3.69 Z" id="SI-031" data-name="Gornji Petrovci"/>
<path d="M 681.87 7.64 692.28 1.44 701.45 3.69 700.17 12.47 682.65 18.75 681.87 7.64 Z" id="SI-056" data-name="Kuzma"/>
<path d="M 762.76 85.21 777.45 97 795.33 118.97 799 134.85 777.9 126.93 771.38 120.93 754.66 119.33 753.21 114.67 769.17 106.67 764.33 98.7 756.58 92.96 762.76 85.21 Z" id="SI-059" data-name="Lendava"/>
<path d="M 770.45 75.33 762.76 85.21 756.58 92.96 748.1 81.96 758.71 67.35 770.45 75.33 Z" id="SI-156" data-name="Dobrovnik"/>
<path d="M 761.02 62.91 761.23 63 771.06 66.41 770.45 75.33 758.71 67.35 761.02 62.91 Z" id="SI-047" data-name="Kobilje"/>
<path d="M 86.04 128.21 106.61 132.61 134.15 131.14 157.32 142.14 165.58 141.91 159.86 155.79 141.04 169.51 123.27 179.17 121.7 178.82 113.99 167.5 95.52 157.47 82.51 160.6 82.22 148.72 86.04 128.21 Z" id="SI-053" data-name="Kranjska Gora"/>
<path d="M 8.7 206.53 15.69 192.53 42.73 176.56 60.51 156.59 75.36 155.68 82.22 148.72 82.51 160.6 95.52 157.47 113.99 167.5 121.7 178.82 102.04 192.45 92.73 208.38 78.58 210.87 47.83 208.25 38.99 217.35 29.32 215.96 8.7 206.53 Z" id="SI-006" data-name="Bovec"/>
<path d="M 67.4 252.34 50.09 251.47 37.71 240.53 19.51 236.54 12.36 242.73 1 212.55 8.7 206.53 29.32 215.96 38.99 217.35 47.83 208.25 78.58 210.87 92.73 208.38 95.09 214.09 86.32 220.44 83.88 231.48 66.55 238.72 67.4 252.34 Z" id="SI-046" data-name="Kobarid"/>
<path d="M 70.87 256.12 67.4 252.34 66.55 238.72 83.88 231.48 86.32 220.44 95.09 214.09 116.43 230.34 135.19 234.66 161.04 231.25 159.08 247.63 142.45 256.37 132.97 267.6 138.44 290.87 135.19 294.06 128.22 295.09 127.83 316.22 116.31 305.62 111.12 280.91 103.26 281.65 87.97 271.99 77.32 254.74 70.87 256.12 Z" id="SI-128" data-name="Tolmin"/>
<path d="M 40.85 291.27 64.62 273.09 70.87 256.12 77.32 254.74 87.97 271.99 103.26 281.65 93.95 297.63 81.09 294.32 61.47 314.05 49.45 297.34 40.85 291.27 Z" id="SI-044" data-name="Kanal"/>
<path d="M 25.45 316.43 30.64 302.4 40.85 291.27 49.45 297.34 61.47 314.05 60.65 324.39 37.52 330.65 25.45 316.43 Z" id="SI-007" data-name="Brda"/>
<path d="M 103.26 281.65 111.12 280.91 116.31 305.62 127.83 316.22 124.37 318.02 94.1 353.09 119.74 378.7 101.61 375.43 88.12 367.97 77.01 366.87 72.36 356.24 82.35 349.65 64.35 338.49 60.65 324.39 61.47 314.05 81.09 294.32 93.95 297.63 103.26 281.65 Z" id="SI-084" data-name="Nova Goriška"/>
<path d="M 60.29 350.73 64.35 338.49 82.35 349.65 72.36 356.24 60.29 350.73 Z" id="SI-183" data-name="Šempeter-Vrtojba"/>
<path d="M 53.92 384.7 52.68 368.14 60.29 350.73 72.36 356.24 77.01 366.87 88.12 367.97 78.23 383.39 53.92 384.7 Z" id="SI-075" data-name="Miren-Kostanjevica"/>
<path d="M 57.56 389.26 53.92 384.7 78.23 383.39 88.12 367.97 101.61 375.43 119.74 378.7 132.89 381.2 137.11 387.9 124.49 391.77 93.87 394.76 85.78 402.33 75.75 394.51 57.56 389.26 Z" id="SI-049" data-name="Komen"/>
<path d="M 85.78 402.33 93.87 394.76 124.49 391.77 137.11 387.9 159.23 404.33 150.55 415.86 153.66 426.03 145.71 438.69 146.18 448.75 134.85 451.97 125.93 446.31 105.74 412.18 85.78 402.33 Z" id="SI-111" data-name="Sežana"/>
<path d="M 191.37 510.16 178.69 507.53 158.63 496.09 149.69 483.78 139.11 481.58 128.34 463.42 134.85 451.97 146.18 448.75 176.89 464.35 184.55 459.1 188.56 476.54 183.88 493.89 191.37 510.16 Z" id="SI-035" data-name="Hrpelje-Kozina"/>
<path d="M 75.66 514.87 83.21 500.6 76.37 497.87 79.5 484.21 99.21 481.27 88.78 466.66 101.27 465.57 111.27 471 123.23 469.76 128.34 463.42 139.11 481.58 149.69 483.78 158.63 496.09 152.03 502.88 154.15 513.79 142.29 518.85 133.68 528 120.14 526.02 100.82 513.72 75.66 514.87 Z" id="SI-050" data-name="Koper"/>
<path d="M 675.66 11.01 681.87 7.64 682.65 18.75 684.57 37.96 682.53 41 661.11 33.94 665.31 13.58 675.66 11.01 Z" id="SI-105" data-name="Rogašovci"/>
<path d="M 661.11 33.94 682.53 41 681.98 54.37 695.89 65.25 699.62 82.43 696.4 89.81 679.03 75.46 672.69 72.52 663.9 54.84 661.11 33.94 Z" id="SI-152" data-name="Cankova"/>
<path d="M 660.25 63.71 672.69 72.52 679.03 75.46 670.42 86.5 671.91 100.95 662.96 103.8 657.29 102.97 651.55 99.95 640.11 81.69 640.23 75.45 651.26 74.56 660.25 63.71 Z" id="SI-029" data-name="Gornja Radgona"/>
<path d="M 613.89 57.19 637.69 54.04 660.25 63.71 651.26 74.56 640.23 75.45 618.89 61.78 613.89 57.19 Z" id="SI-195" data-name="Apace"/>
<path d="M 572.64 69.76 580.32 57.7 599.73 60.59 613.89 57.19 618.89 61.78 617.83 81.32 610.36 85.98 600.21 71.55 590.31 70.42 578.71 82.84 572.64 69.76 Z" id="SI-118" data-name="Šentilj"/>
<path d="M 546.94 81.01 558.86 70.65 572.64 69.76 578.71 82.84 579.07 100.81 564.8 87.41 546.94 81.01 Z" id="SI-055" data-name="Kungota"/>
<path d="M 545.32 86.61 546.94 81.01 564.8 87.41 579.07 100.81 597.7 109.94 606.31 108.48 606.08 118.17 600.49 133.73 591.57 131.01 569.28 129.35 557.95 131.84 557.09 112.59 545.32 86.61 Z" id="SI-070" data-name="Maribor"/>
<path d="M 525.42 88.59 532.33 93.22 545.32 86.61 557.09 112.59 537.44 122.77 531.57 117.05 527.45 104.26 525.42 88.59 Z" id="SI-178" data-name="Selnica ob Dravi"/>
<path d="M 458.84 83.36 499.43 82.54 498.52 91.53 487.19 99.15 483.62 108.73 465.62 124.72 459.6 119.8 468.72 98.01 461.61 91.44 458.84 83.36 Z" id="SI-101" data-name="Radlje ob Dravi"/>
<path d="M 436.84 80.98 441.88 81.52 458.84 83.36 461.61 91.44 446.99 98.16 436.84 80.98 Z" id="SI-081" data-name="Muta"/>
<path d="M 394.74 93.08 406.81 98.53 416.24 85.02 436.84 80.98 446.99 98.16 441.32 109.68 430.39 120.19 417.78 116.9 417.03 110.08 394.74 93.08 Z" id="SI-025" data-name="Dravograd"/>
<path d="M 499.43 82.54 513.45 81.8 525.42 88.59 527.45 104.26 510.39 102.78 496.91 131.56 496.36 121.68 483.62 108.73 487.19 99.15 498.52 91.53 499.43 82.54 Z" id="SI-093" data-name="Podvelka"/>
<path d="M 388.29 96.7 394.74 93.08 417.03 110.08 417.78 116.9 414.75 133.35 406.42 139.36 395.88 133.72 401.93 127.6 401.62 114.42 388.29 96.7 Z" id="SI-103" data-name="Ravne na Koroškem"/>
<path d="M 368.14 116.57 377.23 98.2 388.29 96.7 401.62 114.42 401.93 127.6 395.88 133.72 389.68 133.84 380.51 116.34 368.14 116.57 Z" id="SI-175" data-name="Prevalje"/>
<path d="M 363.62 128.33 368.14 116.57 380.51 116.34 389.68 133.84 383.07 136.47 363.62 128.33 Z" id="SI-074" data-name="Mežica"/>
<path d="M 332.17 150.28 341.59 138.24 354.55 136.85 363.62 128.33 383.07 136.47 389.68 133.84 395.88 133.72 406.42 139.36 404.07 150.26 387.7 163.61 365.5 163.03 352.96 164.38 344.74 154.62 332.17 150.28 Z" id="SI-016" data-name="Črna na Koroškem"/>
<path d="M 223.19 158.21 264.77 157.81 272.54 165.33 264.51 190.04 252.87 190.34 244.46 201.16 229.48 199.4 224.77 189.41 225.87 167.31 222.14 162.99 223.19 158.21 Z" id="SI-131" data-name="Tržič"/>
<path d="M 199.27 157.41 223.19 158.21 222.14 162.99 210.07 177.07 196.62 182.5 194.19 169.76 199.27 157.41 Z" id="SI-192" data-name="Žirovnica"/>
<path d="M 165.58 141.91 182.33 144.33 199.27 157.41 194.19 169.76 187.54 170.96 159.86 155.79 165.58 141.91 Z" id="SI-041" data-name="Jesenice"/>
<path d="M 304.2 175.31 311.3 159.61 332.17 150.28 344.74 154.62 352.96 164.38 345.84 178.36 323.91 184.63 305.87 183.74 304.2 175.31 Z" id="SI-180" data-name="Solcava"/>
<path d="M 272.54 165.33 289.02 165.52 298.68 180.12 304.2 175.31 305.87 183.74 297.57 186.85 273.39 185.24 264.51 190.04 272.54 165.33 Z" id="SI-163" data-name="Jezersko"/>
<path d="M 754.66 119.33 747.16 124.07 731.16 115.64 735.84 110 744.59 99.6 751.68 104.59 753.21 114.67 754.66 119.33 Z" id="SI-015" data-name="Črenšovci"/>
<path d="M 747.16 124.07 744.84 125.51 734.56 130.48 727.79 141.04 719.6 145.25 705.88 139.72 673.61 131.32 680.01 118.8 688.16 120.06 707.49 126.11 713.23 113.35 723.37 104.47 731.16 115.64 747.16 124.07 Z" id="SI-063" data-name="Ljutomer"/>
<path d="M 727.79 141.04 731.34 167.37 739.37 180.11 717.05 183.38 701.78 174.82 690.92 182.16 687.65 177.98 681.27 163.13 675.07 160.39 678.6 147.03 673.77 138.9 673.61 131.32 705.88 139.72 719.6 145.25 727.79 141.04 Z" id="SI-087" data-name="Ormož"/>
<path d="M 687.65 177.98 690.92 182.16 683.14 180.53 683.56 197.14 681.11 202.85 676.44 185.46 682.45 176.65 687.65 177.98 Z" id="SI-143" data-name="Zavrc"/>
<path d="M 675.07 160.39 681.27 163.13 687.65 177.98 682.45 176.65 676.44 185.46 681.11 202.85 666.85 212.44 660.68 186.27 668.06 182.18 664.17 166.15 675.07 160.39 Z" id="SI-028" data-name="Gorišnica"/>
<path d="M 666.85 212.44 647.91 218.96 645.78 195 627.26 192.41 624.15 205.88 618.07 201.44 618.42 188.82 625.76 174.19 635.4 178.15 644.16 174.62 660.68 186.27 666.85 212.44 Z" id="SI-135" data-name="Videm"/>
<path d="M 647.91 218.96 638.29 223.91 624.15 205.88 627.26 192.41 645.78 195 647.91 218.96 Z" id="SI-172" data-name="Podlehnik"/>
<path d="M 638.29 223.91 637.89 223.92 617.67 227.84 607.14 222.92 608.12 214.22 618.07 201.44 624.15 205.88 638.29 223.91 Z" id="SI-191" data-name="Žetale"/>
<path d="M 607.14 222.92 617.67 227.84 605.07 241.71 586.88 240.35 594.59 226.71 602.93 221.44 607.14 222.92 Z" id="SI-107" data-name="Rogatec"/>
<path d="M 586.88 240.35 573.86 247.41 570.49 244.09 558.46 218.66 564.05 214.85 588.62 218.5 602.93 221.44 594.59 226.71 586.88 240.35 Z" id="SI-106" data-name="Rogaška Slatina"/>
<path d="M 573.86 247.41 564.59 268.1 564.56 277.3 573.11 290.86 569.04 294.71 563.23 279.1 550.92 271.14 553.32 262.06 570.49 244.09 573.86 247.41 Z" id="SI-149" data-name="Bistrica ob Sotli"/>
<path d="M 573.11 290.86 590.66 303.57 584.29 309.13 572.1 303.85 569.04 294.71 573.11 290.86 Z" id="SI-092" data-name="Podcetrtek"/>
<path d="M 590.66 303.57 586.22 328.8 586.27 346.06 582.18 359.29 583.86 380.1 573.73 384.27 554.4 383 545.06 367.27 545.66 357.39 556.11 352.23 562.99 320.96 584.29 309.13 590.66 303.57 Z" id="SI-009" data-name="Brežice"/>
<path d="M 562.99 320.96 556.11 352.23 545.66 357.39 545.06 367.27 554.4 383 538.09 387.91 529.45 386.11 524 400.45 516.73 388.01 513.46 363.75 506.58 361.15 507.09 342.56 522.58 320.96 521.13 295.65 539.91 294.05 554.06 302.66 556.85 312.52 562.99 320.96 Z" id="SI-054" data-name="Krško"/>
<path d="M 524 400.45 498.99 408.88 496.32 397.99 483.86 376.38 492.08 368.16 506.58 361.15 513.46 363.75 516.73 388.01 524 400.45 Z" id="SI-119" data-name="Šentjernej"/>
<path d="M 498.99 408.88 481.88 416.91 478.44 422.96 472.92 426.95 463.46 433.59 441.17 433.6 446.56 425.47 435.55 411.91 429.84 398.49 436.92 389.38 442.82 385.48 451.82 364.94 468.29 364.76 475.57 346.35 488.22 355.76 492.08 368.16 483.86 376.38 496.32 397.99 498.99 408.88 Z" id="SI-085" data-name="Novo Mesto"/>
<path d="M 503.8 438.97 504.58 449.59 490.47 454.89 483.16 463.6 486.61 474.53 472.14 461.21 487.15 446.03 472.92 426.95 478.44 422.96 492.38 438.05 503.8 438.97 Z" id="SI-073" data-name="Metlika"/>
<path d="M 486.61 474.53 493.92 498.27 506.67 506.9 494.68 518.29 472.34 523.37 450.41 525.68 431.88 509.83 437.08 500.7 432.8 492.13 436.3 477.4 433.78 463.5 448.88 465.53 459.21 457.89 472.14 461.21 486.61 474.53 Z" id="SI-017" data-name="Crnomelj"/>
<path d="M 433.78 463.5 436.3 477.4 432.8 492.13 437.08 500.7 431.88 509.83 409.39 503.39 400.91 491.21 382.28 489.44 368.8 499.95 349.07 481.02 345.13 465.3 341.91 454.01 347.18 447.18 357.04 449.03 370.13 417.83 363.42 412.29 367.93 407 388.72 411.56 396.47 402.81 410.58 403.86 408.03 423.74 420.22 440.63 424.66 452.85 433.78 463.5 Z" id="SI-048" data-name="Kocevje"/>
<path d="M 409.39 503.39 395.53 494.99 385.13 511.33 374.3 515.23 363.74 512.99 359.69 502.81 331.15 488.11 329.93 475 345.13 465.3 349.07 481.02 368.8 499.95 382.28 489.44 400.91 491.21 409.39 503.39 Z" id="SI-165" data-name="Kostel"/>
<path d="M 329.93 475 312.24 458.34 311.75 441.23 305.97 440.91 297.96 415.45 307.75 415.12 321.32 419.02 325.52 425.22 333.19 434.07 347.03 439.8 347.18 447.18 341.91 454.01 345.13 465.3 329.93 475 Z" id="SI-066" data-name="Loški Potok"/>
<path d="M 305.97 440.91 288.1 465.59 286.31 471.75 273 471.18 269.78 448.24 259.63 425.22 265.81 424.28 282.98 410.57 297.96 415.45 305.97 440.91 Z" id="SI-065" data-name="Loška dolina"/>
<path d="M 191.52 510.17 191.37 510.16 183.88 493.89 188.56 476.54 184.55 459.1 184.75 455.42 210.97 453.51 242.1 442.64 249.77 438.03 257.71 445.36 269.78 448.24 273 471.18 286.31 471.75 280.59 491.14 256.24 508.41 244.59 509.48 217.2 501.42 191.52 510.17 Z" id="SI-038" data-name="Ilirska Bistrica"/>
<path d="M 76.37 497.87 66.08 497.96 63.24 486.64 79.5 484.21 76.37 497.87 Z" id="SI-040" data-name="Izola"/>
<path d="M 578.71 82.84 590.31 70.42 600.21 71.55 610.36 85.98 606.31 108.48 597.7 109.94 579.07 100.81 578.71 82.84 Z" id="SI-089" data-name="Pesnica"/>
<path d="M 600.49 133.73 606.08 118.17 620.15 126.15 621.92 136.47 613.11 147.36 600.84 134.29 600.49 133.73 Z" id="SI-026" data-name="Duplek"/>
<path d="M 591.57 131.01 600.49 133.73 600.84 134.29 596.75 150.2 594.87 148.38 591.57 131.01 Z" id="SI-169" data-name="Miklavž na Dravskem polju"/>
<path d="M 557.95 131.84 569.28 129.35 591.57 131.01 594.87 148.38 582.01 150.26 570.41 144.09 553.4 141.66 551.79 136.43 557.95 131.84 Z" id="SI-160" data-name="Hoce-Slivnica"/>
<path d="M 651.55 99.95 657.29 102.97 648.1 111.41 650.34 120.04 649.24 122.82 641.13 118.38 631.59 133.16 623.72 137.34 621.92 136.47 620.15 126.15 606.08 118.17 606.31 108.48 610.36 85.98 617.83 81.32 633.71 94.58 642.67 104.42 651.55 99.95 Z" id="SI-058" data-name="Lenart"/>
<path d="M 640.23 75.45 640.11 81.69 633.71 94.58 617.83 81.32 618.89 61.78 640.23 75.45 Z" id="SI-181" data-name="Sveta Ana"/>
<path d="M 527.45 104.26 531.57 117.05 518.53 143.69 500.01 143.8 495.1 142.04 494.2 138.26 496.91 131.56 510.39 102.78 527.45 104.26 Z" id="SI-167" data-name="Lovrenc na Pohorju"/>
<path d="M 465.62 124.72 483.62 108.73 496.36 121.68 496.91 131.56 494.2 138.26 471.55 136.6 464.72 131.46 462.95 129.14 465.62 124.72 Z" id="SI-177" data-name="Ribnica na Pohorju"/>
<path d="M 417.78 116.9 430.39 120.19 441.32 109.68 451.43 123.12 462.95 129.14 464.72 131.46 446.44 164.18 437.75 162.54 404.07 150.26 406.42 139.36 414.75 133.35 417.78 116.9 Z" id="SI-112" data-name="Slovenj Gradec"/>
<path d="M 461.61 91.44 468.72 98.01 459.6 119.8 465.62 124.72 462.95 129.14 451.43 123.12 441.32 109.68 446.99 98.16 461.61 91.44 Z" id="SI-141" data-name="Vuzenica"/>
<path d="M 264.51 190.04 273.39 185.24 297.57 186.85 299.61 204.6 280.16 212.06 267.5 213.07 258.77 207.7 264.51 190.04 Z" id="SI-095" data-name="Preddvor"/>
<path d="M 267.5 213.07 280.16 212.06 275.56 217.69 274.41 237.16 279.06 243.4 278 248.12 264.79 248.67 258.84 236.67 267.5 213.07 Z" id="SI-117" data-name="Šenčur"/>
<path d="M 280.16 212.06 299.61 204.6 306.18 223.13 301.77 229.82 288.64 244.6 279.06 243.4 274.41 237.16 275.56 217.69 280.16 212.06 Z" id="SI-012" data-name="Cerklje na Gorenjskem"/>
<path d="M 305.87 183.74 323.91 184.63 325.64 196.57 335.47 213.97 340.57 213.79 342.69 222.54 352.56 225.74 378.35 226.28 385.97 230.8 392.35 241.79 389.52 242.47 351.46 247.12 334.84 245.96 328.42 243.22 311.29 249.64 309.4 246.36 301.77 229.82 306.18 223.13 299.61 204.6 297.57 186.85 305.87 183.74 Z" id="SI-043" data-name="Kamnik"/>
<path d="M 264.79 248.67 278 248.12 280.67 266.35 268.83 273.79 272.72 283.18 265.3 288.5 250.56 288.3 244.14 282.85 247.38 269.59 261.57 260.17 264.79 248.67 Z" id="SI-071" data-name="Medvode"/>
<path d="M 244.46 201.16 252.87 190.34 264.51 190.04 258.77 207.7 267.5 213.07 258.84 236.67 264.79 248.67 261.57 260.17 254.37 247.27 231.68 241.69 224.77 229.91 203.98 215.85 207.16 214.81 231.37 218.2 240.73 211.45 244.46 201.16 Z" id="SI-052" data-name="Kranj"/>
<path d="M 261.57 260.17 247.38 269.59 244.14 282.85 229.52 279.87 215.29 286.58 212.58 267.24 218.25 256.33 202.83 253.2 220.17 241.74 224.77 229.91 231.68 241.69 254.37 247.27 261.57 260.17 Z" id="SI-122" data-name="Škofja Loka"/>
<path d="M 159.08 247.63 161.04 231.25 169.18 227.3 183.41 229.55 189.81 215.85 203.98 215.85 224.77 229.91 220.17 241.74 202.83 253.2 180.47 261.01 158.88 252.73 159.08 247.63 Z" id="SI-146" data-name="Železniki"/>
<path d="M 121.7 178.82 123.27 179.17 131.13 184.59 148.39 187.04 172.84 203.4 189.95 206.53 207.16 214.81 203.98 215.85 189.81 215.85 183.41 229.55 169.18 227.3 161.04 231.25 135.19 234.66 116.43 230.34 95.09 214.09 92.73 208.38 102.04 192.45 121.7 178.82 Z" id="SI-004" data-name="Bohinj"/>
<path d="M 229.48 199.4 244.46 201.16 240.73 211.45 231.37 218.2 229.48 199.4 Z" id="SI-082" data-name="Naklo"/>
<path d="M 222.14 162.99 225.87 167.31 224.77 189.41 229.48 199.4 231.37 218.2 207.16 214.81 189.95 206.53 200.35 189.96 196.62 182.5 210.07 177.07 222.14 162.99 Z" id="SI-102" data-name="Radovljica"/>
<path d="M 387.7 163.61 404.07 150.26 437.75 162.54 432 190.02 415.1 180.64 413.49 174.32 390.35 174.51 387.7 163.61 Z" id="SI-126" data-name="Šoštanj"/>
<path d="M 365.5 163.03 387.7 163.61 390.35 174.51 381.42 203.29 363.85 193.08 359.59 194.86 366.21 176.5 365.5 163.03 Z" id="SI-062" data-name="Ljubno"/>
<path d="M 352.96 164.38 365.5 163.03 366.21 176.5 359.59 194.86 340.57 213.79 335.47 213.97 325.64 196.57 323.91 184.63 345.84 178.36 352.96 164.38 Z" id="SI-067" data-name="Luce"/>
<path d="M 334.84 245.96 351.46 247.12 389.52 242.47 386.17 253.97 371.66 260.19 357.39 257.23 335.04 266.17 326.85 259.76 334.84 245.96 Z" id="SI-068" data-name="Lukovica"/>
<path d="M 640.11 81.69 651.55 99.95 642.67 104.42 633.71 94.58 640.11 81.69 Z" id="SI-148" data-name="Benedikt"/>
<path d="M 509.1 269.17 512.08 279.25 508.47 292.43 489.13 297.21 483.23 289.68 466.68 288.2 466.29 296.58 456.53 284.99 462.87 276.32 443.84 251.74 466.8 249.96 469.94 246.3 491.49 249.71 494.24 258.03 507.17 252.49 509.1 269.17 Z" id="SI-057" data-name="Laško"/>
<path d="M 557.09 112.59 557.95 131.84 551.79 136.43 541.92 135.75 518.53 143.69 531.57 117.05 537.44 122.77 557.09 112.59 Z" id="SI-108" data-name="Ruše"/>
<path d="M 278 248.12 279.06 243.4 288.64 244.6 298.04 255.1 291.99 265.58 280.67 266.35 278 248.12 Z" id="SI-138" data-name="Vodice"/>
<path d="M 288.64 244.6 301.77 229.82 309.4 246.36 298.04 255.1 288.64 244.6 Z" id="SI-164" data-name="Komenda"/>
<path d="M 309.4 246.36 311.29 249.64 311.21 264.81 293.68 270.4 291.99 265.58 298.04 255.1 309.4 246.36 Z" id="SI-072" data-name="Mengeš"/>
<path d="M 223.63 311.38 223.98 318.22 248.44 313.65 259.39 307 254.41 331.36 246.34 339.45 257.12 365.61 237.58 360.42 222.33 339.05 216.08 336.09 217.49 322.71 210.03 309.76 223.63 311.38 Z" id="SI-140" data-name="Vrhnika"/>
<path d="M 248.44 313.65 223.98 318.22 223.63 311.38 225.79 304.27 243.67 303.19 248.44 313.65 Z" id="SI-162" data-name="Horjul"/>
<path d="M 657.29 102.97 662.96 103.8 665.08 118.29 650.34 120.04 648.1 111.41 657.29 102.97 Z" id="SI-153" data-name="Cerkvenjak"/>
<path d="M 293.68 270.4 311.21 264.81 306.03 279.4 293.68 270.4 Z" id="SI-186" data-name="Trzin"/>
<path d="M 721.8 45.05 712.95 54.78 713.74 62.6 695.89 65.25 681.98 54.37 682.53 41 684.57 37.96 696.84 36.78 703.02 13.79 718.58 27.06 721.8 45.05 Z" id="SI-097" data-name="Puconci"/>
<path d="M 700.17 12.47 703.02 13.79 696.84 36.78 684.57 37.96 682.65 18.75 700.17 12.47 Z" id="SI-158" data-name="Grad"/>
<path d="M 713.74 62.6 720.03 75.19 729.46 78.84 709.19 96.45 696.4 89.81 699.62 82.43 695.89 65.25 713.74 62.6 Z" id="SI-080" data-name="Murska Sobota"/>
<path d="M 649.24 122.82 650.34 120.04 665.08 118.29 670.34 126.49 655.09 140.21 650.38 133.98 649.24 122.82 Z" id="SI-182" data-name="Sveti Andraž v Slovenskih Goricah"/>
<path d="M 254.41 331.36 259.39 307 270.44 308.17 277.76 316.81 274.57 328.22 280.08 353.04 285.97 362.19 273.82 368.53 267.58 365.82 266.87 346.98 254.41 331.36 Z" id="SI-008" data-name="Brezovica"/>
<path d="M 244.14 282.85 250.56 288.3 265.3 288.5 273.23 300.43 270.44 308.17 259.39 307 248.44 313.65 243.67 303.19 225.79 304.27 223.63 311.38 210.03 309.76 209.12 304.93 215.29 286.58 229.52 279.87 244.14 282.85 Z" id="SI-021" data-name="Dobrova-Polhov Gradec"/>
<path d="M 202.83 253.2 218.25 256.33 212.58 267.24 215.29 286.58 209.12 304.93 194.7 292.05 174.52 287.69 169.42 292.05 168.83 281.65 180.47 261.01 202.83 253.2 Z" id="SI-027" data-name="Gorenja vas-Poljane"/>
<path d="M 210.03 309.76 217.49 322.71 216.08 336.09 222.33 339.05 237.58 360.42 231.84 374.84 207.16 364.15 193.72 366.58 192.42 362.96 187.3 350.13 189.3 329.97 196.94 316.66 209.12 304.93 210.03 309.76 Z" id="SI-064" data-name="Logatec"/>
<path d="M 631.59 133.16 641.13 118.38 649.24 122.82 650.38 133.98 631.59 133.16 Z" id="SI-185" data-name="Trnovska vas"/>
<path d="M 623.72 137.34 631.59 133.16 650.38 133.98 655.09 140.21 654.34 142.65 643.25 152.51 635.52 150.2 623.72 137.34 Z" id="SI-018" data-name="Destrnik"/>
<path d="M 594.87 148.38 596.75 150.2 601.19 161.86 589.29 169.1 584.25 163.55 556.26 147.01 553.4 141.66 570.41 144.09 582.01 150.26 594.87 148.38 Z" id="SI-098" data-name="Race-Fram"/>
<path d="M 600.84 134.29 613.11 147.36 622.5 152.12 617.91 160.66 601.19 161.86 596.75 150.2 600.84 134.29 Z" id="SI-115" data-name="Starše"/>
<path d="M 392.35 241.79 385.97 230.8 389.87 222.47 407.6 214.92 417.65 224.41 407.72 246.47 392.35 241.79 Z" id="SI-189" data-name="Vransko"/>
<path d="M 437.75 162.54 446.44 164.18 459.6 168.92 463.34 176.52 464.91 198.84 452.14 195.85 446.24 202.77 432 190.02 437.75 162.54 Z" id="SI-133" data-name="Velenje"/>
<path d="M 432 190.02 446.24 202.77 441.48 225.5 439.2 224.52 428.11 206.33 432 190.02 Z" id="SI-173" data-name="Polzela"/>
<path d="M 415.1 180.64 432 190.02 428.11 206.33 417.26 195.34 415.1 180.64 Z" id="SI-125" data-name="Šmartno ob Paki"/>
<path d="M 390.35 174.51 413.49 174.32 415.1 180.64 417.26 195.34 407.68 207.92 401.89 200.32 383.97 208.63 381.42 203.29 390.35 174.51 Z" id="SI-079" data-name="Mozirje"/>
<path d="M 499.03 185.06 482.95 185.12 474.02 175.02 486.33 155.09 497.42 153.43 497.54 161.53 505.91 173.14 499.03 185.06 Z" id="SI-137" data-name="Vitanje"/>
<path d="M 482.95 185.12 499.03 185.06 508.55 196.53 510.51 204.84 505.95 223.47 489.05 216.27 475.96 201.46 482.95 185.12 Z" id="SI-139" data-name="Vojnik"/>
<path d="M 495.1 142.04 500.01 143.8 504.42 152.94 522.23 163.22 518.77 179.29 522.85 182.84 508.55 196.53 499.03 185.06 505.91 173.14 497.54 161.53 497.42 153.43 495.1 142.04 Z" id="SI-144" data-name="Zrece"/>
<path d="M 494.2 138.26 495.1 142.04 497.42 153.43 486.33 155.09 474.02 175.02 463.34 176.52 459.6 168.92 446.44 164.18 464.72 131.46 471.55 136.6 494.2 138.26 Z" id="SI-076" data-name="Mislinja"/>
<path d="M 389.52 242.47 392.35 241.79 407.72 246.47 415.1 246.02 413.29 255.44 421.99 267.55 415.1 275.26 392.66 284.85 385.19 271.55 373.27 268.72 371.66 260.19 386.17 253.97 389.52 242.47 Z" id="SI-05" data-name="Zasavska"/>
<path d="M 373.27 268.72 385.19 271.55 392.66 284.85 415.1 275.26 415.73 298.19 433.23 295.14 438.97 304.06 444.54 317.23 425.4 318.56 421.24 329.63 403.59 327.86 398.89 312.09 381.1 293.19 365.93 296.97 348.28 294.81 342.26 289.81 352.8 282.17 366.05 276.59 373.27 268.72 Z" id="SI-060" data-name="Litija"/>
<path d="M 378.35 226.28 352.56 225.74 342.69 222.54 340.57 213.79 359.59 194.86 363.85 193.08 381.42 203.29 383.97 208.63 378.35 226.28 Z" id="SI-030" data-name="Gornji Grad"/>
<path d="M 282.98 410.57 265.81 424.28 259.63 425.22 243.67 408.29 230.07 400.22 227.52 391.09 231.84 374.84 237.58 360.42 257.12 365.61 267.58 365.82 273.82 368.53 285.97 362.19 289.75 376.79 273.82 391.44 285.07 404.67 282.98 410.57 Z" id="SI-013" data-name="Cerknica"/>
<path d="M 289.75 376.79 285.97 362.19 302.36 366.93 310.07 356.58 314.04 351.99 323.99 364.41 323.63 373.67 336.02 385.08 310.5 394 304.73 395.22 289.75 376.79 Z" id="SI-134" data-name="Velike Lašče"/>
<path d="M 257.12 365.61 246.34 339.45 254.41 331.36 266.87 346.98 267.58 365.82 257.12 365.61 Z" id="SI-005" data-name="Borovnica"/>
<path d="M 193.72 366.58 207.16 364.15 231.84 374.84 227.52 391.09 230.07 400.22 243.67 408.29 226.77 418.23 195.72 426.63 185.46 422.75 171.23 405.79 176.66 388.48 173.46 378.18 193.72 366.58 Z" id="SI-094" data-name="Postojna"/>
<path d="M 259.63 425.22 269.78 448.24 257.71 445.36 249.77 438.03 242.1 442.64 210.97 453.51 184.75 455.42 177.64 432.85 185.46 422.75 195.72 426.63 226.77 418.23 243.67 408.29 259.63 425.22 Z" id="SI-091" data-name="Pivka"/>
<path d="M 464.91 198.84 463.34 176.52 474.02 175.02 482.95 185.12 475.96 201.46 472.41 202.62 464.91 198.84 Z" id="SI-155" data-name="Dobrna"/>
<path d="M 491.49 249.71 469.94 246.3 472.41 202.62 475.96 201.46 489.05 216.27 505.95 223.47 501.11 235.01 493.22 238.96 491.49 249.71 Z" id="SI-011" data-name="Celje"/>
<path d="M 385.97 230.8 378.35 226.28 383.97 208.63 401.89 200.32 407.68 207.92 407.6 214.92 389.87 222.47 385.97 230.8 Z" id="SI-083" data-name="Nazarje"/>
<path d="M 311.29 249.64 328.42 243.22 334.84 245.96 326.85 259.76 335.04 266.17 335.9 275.92 312.35 283.48 306.03 279.4 311.21 264.81 311.29 249.64 Z" id="SI-023" data-name="Domžale"/>
<path d="M 349.3 319.44 351.7 317.69 359.75 315.65 384.09 318 396.71 332.27 386.95 340.16 381.89 359.83 384.01 366.31 377.25 372.09 378.59 388.77 365.62 392.52 354.02 378.03 352.25 361.31 351.86 352.35 343.56 331.26 349.3 319.44 Z" id="SI-039" data-name="Ivancna Gorica"/>
<path d="M 265.3 288.5 272.72 283.18 268.83 273.79 280.67 266.35 291.99 265.58 293.68 270.4 306.03 279.4 312.35 283.48 322.18 290.69 342.26 289.81 348.28 294.81 351.7 317.69 349.3 319.44 341.59 314.7 329.17 322.49 317.9 319.98 310.5 313.14 297.45 314 296.9 322.34 283.53 321.72 274.57 328.22 277.76 316.81 270.44 308.17 273.23 300.43 265.3 288.5 Z" id="SI-061" data-name="Ljubljana"/>
<path d="M 348.28 294.81 365.93 296.97 381.1 293.19 398.89 312.09 403.59 327.86 396.71 332.27 384.09 318 359.75 315.65 351.7 317.69 348.28 294.81 Z" id="SI-194" data-name="Šmartno in Litiji"/>
<path d="M 285.97 362.19 280.08 353.04 274.57 328.22 283.53 321.72 296.9 322.34 302.16 328.84 302.87 347.53 310.07 356.58 302.36 366.93 285.97 362.19 Z" id="SI-037" data-name="Ig"/>
<path d="M 352.8 282.17 342.26 289.81 322.18 290.69 312.35 283.48 335.9 275.92 352.8 282.17 Z" id="SI-022" data-name="Dol pri Ljubljani"/>
<path d="M 439.2 224.52 441.48 225.5 450.02 232.47 443.25 250.3 426.54 248.1 428.07 236.09 439.2 224.52 Z" id="SI-174" data-name="Prebold"/>
<path d="M 335.04 266.17 357.39 257.23 371.66 260.19 373.27 268.72 366.05 276.59 352.8 282.17 335.9 275.92 335.04 266.17 Z" id="SI-077" data-name="Moravce"/>
<path d="M 367.93 407 363.42 412.29 336.02 385.08 323.63 373.67 323.99 364.41 331.96 358.82 344.97 363.81 352.25 361.31 354.02 378.03 365.62 392.52 367.93 407 Z" id="SI-020" data-name="Dobrepolje"/>
<path d="M 456.53 284.99 466.29 296.58 471.04 308 451.74 303.26 438.97 304.06 433.23 295.14 442.07 284.61 456.53 284.99 Z" id="SI-099" data-name="Radece"/>
<path d="M 507.17 252.49 494.24 258.03 491.49 249.71 493.22 238.96 501.11 235.01 506.78 237.46 507.17 252.49 Z" id="SI-127" data-name="Štore"/>
<path d="M 510.51 204.84 508.55 196.53 522.85 182.84 542.54 187.14 552.18 192.58 555.09 217.16 549.39 217.57 515.5 208.31 510.51 204.84 Z" id="SI-114" data-name="Slovenske Konjice"/>
<path d="M 169.42 292.05 174.52 287.69 194.7 292.05 209.12 304.93 196.94 316.66 189.97 314.15 169.42 292.05 Z" id="SI-147" data-name="Žiri"/>
<path d="M 522.85 182.84 518.77 179.29 522.23 163.22 539.28 174.14 542.54 187.14 522.85 182.84 Z" id="SI-171" data-name="Oplotnica"/>
<path d="M 135.19 294.06 138.44 290.87 132.97 267.6 142.45 256.37 159.08 247.63 158.88 252.73 180.47 261.01 168.83 281.65 169.42 292.05 161.75 294.23 152.83 287.06 142.41 296.39 135.19 294.06 Z" id="SI-014" data-name="Cerkno"/>
<path d="M 123.27 179.17 141.04 169.51 159.86 155.79 187.54 170.96 194.19 169.76 196.62 182.5 200.35 189.96 189.95 206.53 172.84 203.4 148.39 187.04 131.13 184.59 123.27 179.17 Z" id="SI-003" data-name="Bled"/>
<path d="M 119.74 378.7 94.1 353.09 124.37 318.02 128.02 324.3 172.64 358.8 192.42 362.96 193.72 366.58 173.46 378.18 158.45 363.34 150.79 364.81 132.89 381.2 119.74 378.7 Z" id="SI-001" data-name="Ajdovščina"/>
<path d="M 146.18 448.75 145.71 438.69 153.66 426.03 150.55 415.86 159.23 404.33 171.23 405.79 185.46 422.75 177.64 432.85 184.75 455.42 184.55 459.1 176.89 464.35 146.18 448.75 Z" id="SI-019" data-name="Divaca"/>
<path d="M 127.83 316.22 128.22 295.09 135.19 294.06 142.41 296.39 152.83 287.06 161.75 294.23 169.42 292.05 189.97 314.15 196.94 316.66 189.3 329.97 187.3 350.13 192.42 362.96 172.64 358.8 128.02 324.3 124.37 318.02 127.83 316.22 Z" id="SI-036" data-name="Idrija"/>
<path d="M 137.11 387.9 132.89 381.2 150.79 364.81 158.45 363.34 173.46 378.18 176.66 388.48 171.23 405.79 159.23 404.33 137.11 387.9 Z" id="SI-136" data-name="Vipava"/>
<path d="M 307.75 415.12 297.96 415.45 282.98 410.57 285.07 404.67 273.82 391.44 289.75 376.79 304.73 395.22 307.75 415.12 Z" id="SI-150" data-name="Bloke"/>
<path d="M 553.32 262.06 550.92 271.14 535.83 281.43 539.91 294.05 521.13 295.65 508.47 292.43 512.08 279.25 509.1 269.17 507.17 252.49 506.78 237.46 501.11 235.01 505.95 223.47 510.51 204.84 515.5 208.31 549.39 217.57 528.59 236.09 537.63 258.13 553.32 262.06 Z" id="SI-120" data-name="Šentjur pri Celju"/>
<path d="M 550.92 271.14 563.23 279.1 569.04 294.71 572.1 303.85 584.29 309.13 562.99 320.96 556.85 312.52 554.06 302.66 539.91 294.05 535.83 281.43 550.92 271.14 Z" id="SI-051" data-name="Kozje"/>
<path d="M 558.46 218.66 570.49 244.09 553.32 262.06 537.63 258.13 528.59 236.09 549.39 217.57 555.09 217.16 558.46 218.66 Z" id="SI-124" data-name="Šmarje pri Jelšah"/>
<path d="M 521.13 295.65 522.58 320.96 507.09 342.56 495.45 334.4 475.57 346.35 460.91 336.51 444.54 317.23 438.97 304.06 451.74 303.26 471.04 308 466.29 296.58 466.68 288.2 483.23 289.68 489.13 297.21 508.47 292.43 521.13 295.65 Z" id="SI-110" data-name="Sevnica"/>
<path d="M 451.82 364.94 442.82 385.48 436.92 389.38 424.58 376.75 424.7 369.43 440.97 357.12 451.82 364.94 Z" id="SI-170" data-name="Mirna Pec"/>
<path d="M 475.57 346.35 468.29 364.76 451.82 364.94 440.97 357.12 424.7 369.43 424.58 376.75 404.73 374.14 397.26 365.93 384.01 366.31 381.89 359.83 386.95 340.16 396.71 332.27 403.59 327.86 421.24 329.63 425.4 318.56 444.54 317.23 460.91 336.51 475.57 346.35 Z" id="SI-130" data-name="Trebnje"/>
<path d="M 436.92 389.38 429.84 398.49 418.92 397.15 410.58 403.86 396.47 402.81 388.72 411.56 367.93 407 365.62 392.52 378.59 388.77 377.25 372.09 384.01 366.31 397.26 365.93 404.73 374.14 424.58 376.75 436.92 389.38 Z" id="SI-193" data-name="Žužemberk"/>
<path d="M 743.93 80.96 748.1 81.96 756.58 92.96 764.33 98.7 751.68 104.59 744.59 99.6 740.19 88.41 743.93 80.96 Z" id="SI-132" data-name="Turnišče"/>
<path d="M 679.03 75.46 696.4 89.81 688.55 101.15 680.84 96.32 671.91 100.95 670.42 86.5 679.03 75.46 Z" id="SI-100" data-name="Radenci"/>
<path d="M 662.96 103.8 671.91 100.95 680.84 96.32 688.55 101.15 688.16 120.06 680.01 118.8 673.61 131.32 670.34 126.49 665.08 118.29 662.96 103.8 Z" id="SI-116" data-name="Sveti Jurij"/>
<path d="M 764.33 98.7 769.17 106.67 753.21 114.67 751.68 104.59 764.33 98.7 Z" id="SI-187" data-name="Velika Polana"/>
<path d="M 729.46 78.84 743.93 80.96 740.19 88.41 744.59 99.6 735.84 110 731.16 115.64 723.37 104.47 709.19 96.45 729.46 78.84 Z" id="SI-002" data-name="Beltinci"/>
<path d="M 723.37 104.47 713.23 113.35 709.19 96.45 723.37 104.47 Z" id="SI-188" data-name="Veržej"/>
<path d="M 323.99 364.41 314.04 351.99 311.52 326.01 317.9 319.98 329.17 322.49 341.59 314.7 349.3 319.44 343.56 331.26 351.86 352.35 352.25 361.31 344.97 363.81 331.96 358.82 323.99 364.41 Z" id="SI-032" data-name="Grosuplje"/>
<path d="M 314.04 351.99 310.07 356.58 302.87 347.53 302.16 328.84 296.9 322.34 297.45 314 310.5 313.14 317.9 319.98 311.52 326.01 314.04 351.99 Z" id="SI-123" data-name="Škofljica"/>
<path d="M 443.84 251.74 462.87 276.32 456.53 284.99 442.07 284.61 431.61 268.89 443.84 251.74 Z" id="SI-034" data-name="Hrastnik"/>
<path d="M 469.94 246.3 466.8 249.96 443.84 251.74 443.25 250.3 450.02 232.47 441.48 225.5 446.24 202.77 452.14 195.85 464.91 198.84 472.41 202.62 469.94 246.3 Z" id="SI-190" data-name="Žalec"/>
<path d="M 415.1 275.26 421.99 267.55 413.29 255.44 415.1 246.02 426.54 248.1 443.25 250.3 443.84 251.74 431.61 268.89 442.07 284.61 433.23 295.14 415.73 298.19 415.1 275.26 Z" id="SI-129" data-name="Trbovlje"/>
<path d="M 417.65 224.41 407.6 214.92 407.68 207.92 417.26 195.34 428.11 206.33 439.2 224.52 428.07 236.09 417.65 224.41 Z" id="SI-151" data-name="Braslovce"/>
<path d="M 407.72 246.47 417.65 224.41 428.07 236.09 426.54 248.1 415.1 246.02 407.72 246.47 Z" id="SI-184" data-name="Tabor"/>
<path d="M 635.4 178.15 625.76 174.19 617.91 160.66 622.5 152.12 629.81 160.99 635.4 178.15 Z" id="SI-159" data-name="Hajdina"/>
<path d="M 644.16 174.62 635.4 178.15 629.81 160.99 622.5 152.12 613.11 147.36 621.92 136.47 623.72 137.34 635.52 150.2 643.25 152.51 654.34 142.65 656.58 153.53 654.03 164.73 644.16 174.62 Z" id="SI-096" data-name="Ptuj"/>
<path d="M 618.42 188.82 618.07 201.44 608.12 214.22 607.14 222.92 602.93 221.44 588.62 218.5 595.46 210.15 597.89 195.51 587.59 184.15 618.42 188.82 Z" id="SI-069" data-name="Majšperk"/>
<path d="M 588.62 218.5 564.05 214.85 558.46 218.66 555.09 217.16 552.18 192.58 542.54 187.14 539.28 174.14 522.23 163.22 504.42 152.94 500.01 143.8 518.53 143.69 541.92 135.75 551.79 136.43 553.4 141.66 556.26 147.01 584.25 163.55 589.29 169.1 587.59 184.15 597.89 195.51 595.46 210.15 588.62 218.5 Z" id="SI-113" data-name="Slovenska Bistrica"/>
<path d="M 664.17 166.15 668.06 182.18 660.68 186.27 644.16 174.62 654.03 164.73 664.17 166.15 Z" id="SI-168" data-name="Markovci"/>
<path d="M 625.76 174.19 618.42 188.82 587.59 184.15 589.29 169.1 601.19 161.86 617.91 160.66 625.76 174.19 Z" id="SI-045" data-name="Kidricevo"/>
<path d="M 673.77 138.9 678.6 147.03 675.07 160.39 664.17 166.15 654.03 164.73 656.58 153.53 667.63 150.7 673.77 138.9 Z" id="SI-024" data-name="Dornava"/>
<path d="M 713.23 113.35 707.49 126.11 688.16 120.06 688.55 101.15 696.4 89.81 709.19 96.45 713.23 113.35 Z" id="SI-166" data-name="Križevci"/>
<path d="M 673.61 131.32 673.77 138.9 667.63 150.7 656.58 153.53 654.34 142.65 655.09 140.21 670.34 126.49 673.61 131.32 Z" id="SI-042" data-name="Juršinci"/>
<path d="M 441.17 433.6 463.46 433.59 472.92 426.95 487.15 446.03 472.14 461.21 459.21 457.89 448.88 465.53 433.78 463.5 424.66 452.85 431.26 436.81 441.17 433.6 Z" id="SI-109" data-name="Semic"/>
<path d="M 429.84 398.49 435.55 411.91 446.56 425.47 441.17 433.6 431.26 436.81 424.66 452.85 420.22 440.63 408.03 423.74 410.58 403.86 418.92 397.15 429.84 398.49 Z" id="SI-157" data-name="Dolenjske Toplice"/>
<path d="M 325.52 425.22 321.32 419.02 307.75 415.12 304.73 395.22 310.5 394 332.84 403.38 325.52 425.22 Z" id="SI-179" data-name="Sodražica"/>
<path d="M 363.42 412.29 370.13 417.83 357.04 449.03 347.18 447.18 347.03 439.8 333.19 434.07 325.52 425.22 332.84 403.38 310.5 394 336.02 385.08 363.42 412.29 Z" id="SI-104" data-name="Ribnica"/>
<path d="M 507.09 342.56 506.58 361.15 492.08 368.16 488.22 355.76 475.57 346.35 495.45 334.4 507.09 342.56 Z" id="SI-121" data-name="Škocjan"/>
</g>
</svg>