<?xml version="1.0"?>
<svg xmlns="http://www.w3.org/2000/svg" version="1.2" baseProfile="tiny" width="800" height="395" viewBox="0 0 800 395" stroke-linecap="round" stroke-linejoin="round">
<g id="MLOC-SK">
<path d="M 365.92 1 373.82 9 381.04 32.64 391.98 35.35 390.89 43.86 398.94 46.61 410.82 45.75 412.83 53.4 412.77 67.93 416.07 71.11 408.37 83.18 409.62 88.51 419.61 90.3 424.69 87.1 429.26 100.54 433.94 100.7 439.78 107.12 446.96 108 444.81 125.52 439.59 128.38 450.42 145.15 442.61 150.05 421.5 149.79 416.26 148.65 407.1 151.27 392.34 143.73 381.71 142.41 358.18 146.44 346.5 160.03 340.79 160.92 338.35 153.46 315.18 156.81 308.53 156.42 303.5 162.59 305.65 174.71 303.18 184.05 291.26 183.35 285.63 180.42 279.63 184.65 272.56 170.27 261.84 161.3 261.82 139.98 251.99 137.34 235.88 143.31 230.84 142.08 237.36 132.06 241.58 130.85 247.36 122.56 247.54 115.03 241.45 110.31 245.73 105.56 241.56 95.88 230.45 89.09 225.71 78.4 213.58 59.29 217.14 49.08 224.45 45.32 235.02 35.51 237.96 26.65 252.98 23.6 265.55 26.95 271.3 21.64 279.66 20.48 293.53 21.76 296.35 27.88 297.74 46.59 304.03 46.83 312.5 42.94 317.92 46.11 327.2 43.78 333.92 24.2 337.87 19.18 351.66 15.56 365.92 1 Z" id="SK-ZI" data-name="Žilinský"/>
<path d="M 442.61 150.05 450.42 145.15 439.59 128.38 444.81 125.52 446.96 108 439.78 107.12 433.94 100.7 429.26 100.54 424.69 87.1 429.96 82.38 438.35 83.91 445.57 90.73 452.96 90.9 455.2 78.03 461.39 64.94 465.62 64.58 472.18 58.43 482.99 57.47 485.7 48.48 489.32 46.04 502.3 47.93 504.46 43.72 516.3 49.79 522.69 49.35 527.96 44.25 539.76 44.15 552.2 59.08 562.15 61.38 569.33 67.38 575.2 66.68 585.68 54.5 593.43 53.48 590.77 41.15 600.77 39.16 607.45 44.63 612.87 41.87 617.24 35.36 621.71 34.07 629.56 38.27 643.22 42.15 655.35 40.55 667.51 38.55 680.19 43.8 689.42 55.26 698.11 49.16 713.36 59.16 722.44 70.48 725.13 84.9 729.1 87.81 751.12 93.28 753.64 100.14 770.95 103.04 778.05 110.2 794.15 112.26 799 114.66 796.32 131.61 786.3 136.21 781.09 154.06 775.34 160.36 768.81 158.65 759.9 160.04 755.4 148.23 749.16 146.88 740.05 157.24 740.22 163.74 722.39 163.78 712.18 157.04 698.63 152.62 693.35 152.47 694.8 173.66 681 181.25 658.47 174.08 647.56 157.28 638.09 155.52 635.14 164.42 626.36 166.16 622.9 169.96 617.29 164.38 620.01 159.21 608.57 156.57 601.9 151.49 586.68 149.94 581.37 139.66 575.87 140.52 566.21 135.03 550.23 130.68 551.02 136.56 542.23 135.07 533.6 140.42 517.25 130.7 509.95 133.04 502.55 129.67 491.12 135.87 485.14 141.87 486.81 148.92 481.36 157.26 467.62 150.44 462.79 152.58 442.61 150.05 Z" id="SK-PV" data-name="Prešov"/>
<path d="M 481.36 157.26 486.81 148.92 485.14 141.87 491.12 135.87 502.55 129.67 509.95 133.04 517.25 130.7 533.6 140.42 542.23 135.07 551.02 136.56 550.23 130.68 566.21 135.03 575.87 140.52 581.37 139.66 586.68 149.94 601.9 151.49 608.57 156.57 620.01 159.21 617.29 164.38 622.9 169.96 626.36 166.16 635.14 164.42 638.09 155.52 647.56 157.28 658.47 174.08 681 181.25 694.8 173.66 693.35 152.47 698.63 152.62 712.18 157.04 722.39 163.78 740.22 163.74 740.05 157.24 749.16 146.88 755.4 148.23 759.9 160.04 768.81 158.65 775.34 160.36 774.63 173.96 769.73 182.04 768.57 193.96 764.62 200.91 759.19 203.21 754.08 210.82 744.93 218.25 742.54 226 744.17 234.57 742.13 241.34 742 256.57 734.3 262.69 725.91 261.86 713.49 263.3 693.88 271.19 685.23 270.06 678.21 263.42 669.21 249.06 666.17 237.92 656.38 236.42 652.04 227.92 642.76 223.47 625.63 227.99 619.95 235.77 614.08 232.48 598.59 238.75 584.18 232.6 575.68 232.42 568.05 227.74 561.62 226.74 553.01 221.82 523.37 228.7 510.64 230.92 510.64 240.94 508.44 244.1 490.23 244.34 485.68 234.43 491.86 215.39 484.05 211.46 479.72 195.78 469.53 188.21 470.98 169.41 478.18 158.24 481.36 157.26 Z" id="SK-KI" data-name="Košický"/>
<path d="M 31.54 318.09 29.44 314.25 20.26 307.88 15.87 283.62 11.11 280.62 9.05 270.37 1 264.85 3.29 248.33 10.73 232.35 15.65 226.95 33.59 222.48 41.94 225.69 55 220.87 63.33 212.61 69.72 203.33 75.86 211.38 65.49 226.86 73.1 234.44 67.22 242.62 77.85 251 89.71 266.04 87.88 275.95 95.46 282.11 91.6 286.74 97.36 299.33 92.97 304.85 84.81 309.98 79.33 307.7 66.6 319.62 72.22 322.1 60.33 334.84 59.55 340.21 48.69 337.49 43.58 340.6 32.56 334.26 31.08 329.07 34.03 321.26 31.54 318.09 Z" id="SK-BL" data-name="Bratislavský"/>
<path d="M 15.65 226.95 15.09 214.37 26.34 184.19 36.63 171.54 38.72 165.54 46.26 160.04 59.26 160.45 75.25 168.59 80.41 166.33 72.86 176.96 81.92 175.19 90.82 184.86 88.73 192.84 97.56 209.25 103.01 205.23 109.56 204.97 122.28 197.5 132.84 205.15 161.24 211.85 154.37 217.56 149.04 217.25 142.06 231.6 149.15 235.12 158.47 244.02 155.41 247.43 143.2 267.73 141.08 279.04 144.72 282.3 142.3 288.99 146.58 295.74 136.67 308.86 136.8 325.63 145.72 329.82 147.43 351.41 146.93 360.22 136.24 369.38 135.17 376.27 126.25 381.44 123.57 389.06 117.61 385.83 107.46 376.42 103.02 377.4 96.58 368.5 88.93 365.01 74.55 345.67 70.14 342 59.55 340.21 60.33 334.84 72.22 322.1 66.6 319.62 79.33 307.7 84.81 309.98 92.97 304.85 97.36 299.33 91.6 286.74 95.46 282.11 87.88 275.95 89.71 266.04 77.85 251 67.22 242.62 73.1 234.44 65.49 226.86 75.86 211.38 69.72 203.33 63.33 212.61 55 220.87 41.94 225.69 33.59 222.48 15.65 226.95 Z" id="SK-TA" data-name="Trnavský"/>
<path d="M 213.58 59.29 225.71 78.4 230.45 89.09 241.56 95.88 245.73 105.56 241.45 110.31 247.54 115.03 247.36 122.56 241.58 130.85 237.36 132.06 230.84 142.08 235.88 143.31 251.99 137.34 261.82 139.98 261.84 161.3 272.56 170.27 279.63 184.65 274.99 194.23 270.32 196.15 262.3 208.89 254.63 206.83 247.8 216.28 246.86 220.86 233.14 222.6 231.56 226.02 214.27 238.18 206.71 236.39 203.79 228.69 194.85 221.31 198.02 212.71 186.81 205.11 179.18 195.75 163.37 192.25 166.63 206.9 161.24 211.85 132.84 205.15 122.28 197.5 109.56 204.97 103.01 205.23 97.56 209.25 88.73 192.84 90.82 184.86 81.92 175.19 72.86 176.96 80.41 166.33 86.31 163.66 92.64 169.2 97.77 170 113.31 163.86 124.69 159.36 134.26 147.06 143.34 146.82 147.06 141.37 150.87 127.86 157.2 125.43 164.72 126.01 173.49 120.01 177.33 110.37 177.13 99.51 179.41 86.72 185.41 74.66 189.54 70.74 208.39 63.37 213.58 59.29 Z" id="SK-TC" data-name="Trenciansky"/>
<path d="M 279.63 184.65 285.63 180.42 291.26 183.35 303.18 184.05 305.65 174.71 303.5 162.59 308.53 156.42 315.18 156.81 338.35 153.46 340.79 160.92 346.5 160.03 358.18 146.44 381.71 142.41 392.34 143.73 407.1 151.27 416.26 148.65 421.5 149.79 442.61 150.05 462.79 152.58 467.62 150.44 481.36 157.26 478.18 158.24 470.98 169.41 469.53 188.21 479.72 195.78 484.05 211.46 491.86 215.39 485.68 234.43 490.23 244.34 508.44 244.1 500.46 254.69 495.01 271.44 488.58 282.91 481.31 288.7 475.25 284.81 467.09 290.47 462 289.92 456.74 300.07 448.52 304.53 439.49 308.49 429.85 315.66 421.61 309.69 410.46 308.36 409.04 299.68 399.29 300.39 390.36 294.06 377.47 297.5 373.51 301.97 370.53 318.38 363.03 323.73 344.12 323.33 334.21 329.03 316.83 326.9 305.69 328 305.5 323.39 311.85 314.95 313.26 302.73 311.11 298.32 295.33 304.77 293.55 307.98 285.09 307.56 276.21 301.95 279.32 297.92 277.5 288.93 282.69 277.32 277.2 264.69 268.67 254.6 262.26 258.52 258.62 265.8 243.58 269.23 242.38 257.17 237.3 246.06 238.32 237.47 232.45 233.54 231.56 226.02 233.14 222.6 246.86 220.86 247.8 216.28 254.63 206.83 262.3 208.89 270.32 196.15 274.99 194.23 279.63 184.65 Z" id="SK-BC" data-name="Banskobystrický"/>
<path d="M 146.59 393.47 138.49 394 123.57 389.06 126.25 381.44 135.17 376.27 136.24 369.38 146.93 360.22 147.43 351.41 145.72 329.82 136.8 325.63 136.67 308.86 146.58 295.74 142.3 288.99 144.72 282.3 141.08 279.04 143.2 267.73 155.41 247.43 158.47 244.02 149.15 235.12 142.06 231.6 149.04 217.25 154.37 217.56 161.24 211.85 166.63 206.9 163.37 192.25 179.18 195.75 186.81 205.11 198.02 212.71 194.85 221.31 203.79 228.69 206.71 236.39 214.27 238.18 231.56 226.02 232.45 233.54 238.32 237.47 237.3 246.06 242.38 257.17 243.58 269.23 258.62 265.8 262.26 258.52 268.67 254.6 277.2 264.69 282.69 277.32 277.5 288.93 279.32 297.92 276.21 301.95 285.09 307.56 293.55 307.98 295.33 304.77 311.11 298.32 313.26 302.73 311.85 314.95 305.5 323.39 305.69 328 293.72 330.34 280.4 333.35 274.2 343.17 267.04 347.8 268.67 351.83 267.83 368.79 277.1 376.85 270.48 378.91 259.99 388.17 240.34 385.06 211.65 388.42 195.97 393.19 178.69 391.4 146.59 393.47 Z" id="SK-NI" data-name="Nitriansky"/>
</g>
</svg>