<?xml version="1.0"?>
<svg xmlns="http://www.w3.org/2000/svg" version="1.2" baseProfile="tiny" width="800" height="1472" viewBox="0 0 800 1472" stroke-linecap="round" stroke-linejoin="round">
<g id="MLOC-TH">
<path d="M 644.19 616.42 639.98 617.61 637.34 615.4 632.12 615.67 630.47 617.87 627.35 617.79 622.88 615.32 618.18 615.43 609.21 613.75 608.18 609.2 603.93 608.38 600.91 611.71 596.49 609.96 591.15 612.14 587.5 614.69 584.18 613.65 580.1 616.01 576.35 617.03 569.83 617.01 566.9 617.92 566.88 611.21 568.2 606.78 565.7 598.82 565.91 592.41 567.26 591.01 569.87 584.37 571.3 578.45 571.21 575.26 573.08 572.55 581.72 565.42 586.27 558.5 585.98 551.66 588.35 548.65 587.05 546.26 586.33 533.75 588.02 528.53 589.75 527.39 591.64 522.37 588.63 519.07 586 518.39 583.22 520.17 578.82 517.09 571.82 521.18 563.9 517.95 561.88 515.23 559.62 515.72 557.9 511.74 553.34 509.46 554.61 504.13 565.75 507.38 576.53 512.19 583.69 509.57 586.94 507.79 594.11 508.84 600.44 505.84 605.16 507.44 619.23 508.51 624.99 506.05 629.68 505.42 630.28 507.47 637.58 509.45 638.5 511.34 644.66 511.6 647.22 515.97 646.66 518.09 643.75 519.44 639.5 525.32 637.16 534.91 638.91 537.78 641.56 548.46 639.39 553.67 637.65 555.16 633.37 562.39 631.83 566.46 633.01 569.01 639.08 571.3 640.59 573.71 640.5 578.69 645.44 585.85 645.85 589.68 644.31 596.98 645.85 606.75 644.25 616.39 644.19 616.42 Z" id="TH-32" data-name="Surin"/>
<path d="M 644.25 616.39 645.85 606.75 644.31 596.98 645.85 589.68 645.44 585.85 640.5 578.69 640.59 573.71 639.08 571.3 633.01 569.01 631.83 566.46 633.37 562.39 637.65 555.16 639.39 553.67 641.56 548.46 638.91 537.78 637.16 534.91 639.5 525.32 643.75 519.44 646.66 518.09 647.22 515.97 644.66 511.6 638.5 511.34 642.5 505.35 644.48 503.82 647.97 498.73 652.33 495.9 654.41 502.29 656.66 504.61 664.34 515.57 668.27 518.11 672.53 518.66 677.62 520.83 680.17 523.88 684.4 526.11 696.13 528.23 697.81 526.86 705.7 527.84 708.79 532.54 710.2 537.57 706.18 539.36 706.9 547.83 706.78 555.17 708.93 558.91 715.91 561.32 719.71 566.12 718.7 571.18 723.17 580.27 726.38 582.68 728.03 586.75 723.32 586.76 721.83 588.95 720.15 596.2 723.01 600.31 723.86 604.75 728.11 612.81 724.12 611.09 719.99 610.97 714.23 608.17 710.02 611.15 707.42 609.14 704.28 611.18 700.25 610.22 697.17 611.14 694.1 615.28 692.18 616.08 687.33 614.73 684.05 616.42 671.21 614.37 663.7 612.03 659.25 614.33 656.55 612.54 654.16 615.16 650.47 614.09 644.25 616.39 Z" id="TH-33" data-name="Si Sa Ket"/>
<path d="M 754.01 617.54 751.19 619.06 746.02 629 740.81 630.64 736.99 627.68 733.93 621.98 733.72 614.07 728.11 612.81 723.86 604.75 723.01 600.31 720.15 596.2 721.83 588.95 723.32 586.76 728.03 586.75 726.38 582.68 723.17 580.27 718.7 571.18 719.71 566.12 715.91 561.32 708.93 558.91 706.78 555.17 706.9 547.83 706.18 539.36 710.2 537.57 708.79 532.54 705.7 527.84 697.81 526.86 696.13 528.23 684.4 526.11 680.17 523.88 682.13 517.37 681.8 515.18 677.57 512.7 676.66 508.96 677.93 506.04 678.76 499.52 687.27 498.88 689.95 496.17 689.21 494.01 697.4 496.56 701.24 495.87 705.85 489.45 709.71 494.61 715.91 496.05 719.22 502.22 722.59 501.52 725.08 504.52 727.44 504.97 730.08 501.28 730.63 498.38 730.41 490.96 734.72 478.41 738.28 471.82 738.09 465.79 741.77 461.84 739.61 457.82 739.6 452.29 745.04 446.78 746.56 442.65 759.11 447.17 764.06 447.51 775.28 450.38 777.04 451.76 771.19 456.8 771.01 460.35 772.16 464.08 775.97 472.34 779.43 475.84 786.89 475.98 791.05 477.39 795.33 480.18 798.03 484.14 799 488.88 798.02 494.02 795.65 500.23 795.08 506.64 793.34 509.61 789.54 512.16 783.12 514.87 782.83 518.91 786.31 520.25 790.04 519.85 790.61 525.1 784.82 529.25 780.05 534.8 779.02 538.97 779.81 542.87 781.92 543.28 786.79 547.74 792.5 554.56 788.68 557.01 787.74 558.91 789.33 562.08 786.56 564.43 786.38 568.95 784.59 569.56 783.4 573.65 784.94 578.63 784.04 586.25 785.42 592.86 784.01 598.48 778.7 604.64 776.34 609.34 771.69 610.69 768.55 613.56 763.98 612.81 762.14 615.69 754.01 617.54 Z" id="TH-34" data-name="Ubon Ratchathani"/>
<path d="M 535.15 635.53 534.89 638.79 531.52 644.84 530.89 649.87 521.55 658.28 518.11 666.87 515.61 670.76 514.39 675.58 512.11 677.56 502.42 682.32 499.33 684.72 499.21 686.82 502.92 691.59 496.52 694.9 490.64 695.39 482.84 694.72 479.07 695.15 477.26 697.49 478.81 703.08 479.21 710.85 478.58 716.88 478.78 724.09 474.08 728.33 473.11 731.06 468.79 731.02 465.28 726.91 463.52 726.96 459.32 732.35 450.79 735.11 449.99 729.34 450.42 725.91 448.44 723.05 446.61 717.8 444.84 710.82 442.52 708.03 441.83 703.37 445.75 702.25 446.69 698.73 445.13 692.75 440.52 693.4 438.83 692.02 439.49 688.93 436.07 684.39 435.12 679.42 437.87 676.22 438.03 670.92 433.86 669.03 434.47 658.56 438.45 655.39 438.61 648.36 446.17 645.28 447.11 642.9 451.39 638.91 452.14 633.47 455.37 636.22 463.01 638.23 463.94 634.39 466.46 633.63 470.15 638.14 476.19 639.17 478.08 637.3 481.89 636.4 485.82 637.44 487.94 636.52 495.31 638.77 495.47 642.15 497.39 643.27 499.07 639.97 504.33 637.14 507.77 636.79 509.96 638.41 515.86 638.79 520.88 637.64 526.04 635.5 531.42 636.52 535.15 635.53 Z" id="TH-27" data-name="Sa Kaeo"/>
<path d="M 566.9 617.92 556.77 620.13 551.64 622.51 545.08 628.17 542.27 630.15 537.09 631.94 535.15 635.53 531.42 636.52 526.04 635.5 520.88 637.64 515.86 638.79 509.96 638.41 507.77 636.79 504.33 637.14 503.5 632.44 506.54 623.51 504.73 621.38 504.26 617.26 502.58 615.11 503.01 611.01 500.98 606.7 495.58 601.14 493.88 594.64 495.98 589.18 496.03 586.46 493.55 580.65 493.62 577.25 491.84 574.93 489.72 567.45 493.32 568.85 495.68 571.47 501.79 570.82 502.53 568.53 499.92 561.97 500.55 558.23 511.88 558.15 515.24 557.03 519.72 553.83 522.58 547.64 522.28 544.84 529.91 536.6 535.59 534.18 537.85 534.82 541.8 532.98 541.14 530.67 540.96 521.74 542.59 515.81 538.97 513.59 541.07 509.45 543.04 510.2 545.22 507.86 543.66 505.38 540.38 505.16 537.84 502.04 533.29 500.99 527.75 501.57 524.1 497.86 523.13 488.39 525.87 490.22 530.78 488.69 532.74 483.9 533.01 477.28 534.14 475.02 538.29 473.4 544.28 479.75 544.58 482.13 541.21 485.19 548.18 492.4 548.74 494.81 551.73 497.14 551.81 502.12 554.61 504.13 553.34 509.46 557.9 511.74 559.62 515.72 561.88 515.23 563.9 517.95 571.82 521.18 578.82 517.09 583.22 520.17 586 518.39 588.63 519.07 591.64 522.37 589.75 527.39 588.02 528.53 586.33 533.75 587.05 546.26 588.35 548.65 585.98 551.66 586.27 558.5 581.72 565.42 573.08 572.55 571.21 575.26 571.3 578.45 569.87 584.37 567.26 591.01 565.91 592.41 565.7 598.82 568.2 606.78 566.88 611.21 566.9 617.92 Z" id="TH-31" data-name="Buri Ram"/>
<path d="M 520.79 845.46 522.93 849.59 523.89 854.49 528.31 863.05 535.14 872.95 536.23 876.87 536.58 882.49 535.12 884.74 534.39 882.74 534.46 875.33 533.16 872.55 526.62 863.83 521.95 859.46 521.95 853.06 520.98 848.69 519.32 845.88 507.96 834.86 508.87 832.55 505.32 829.74 501.21 829.92 500.77 831.73 502.15 840.88 492.71 835.16 479.46 830.37 475.57 831.12 475.04 828.03 472.63 823.08 477.43 821.13 480.97 817.93 481.32 814.51 483.25 810.24 480.75 808.64 479.09 805.58 480.56 801.48 478.83 794.9 480.99 792.08 485.12 793.67 485.09 784.17 486.45 781.58 490.24 777.7 494.78 776.21 493.58 777.28 493.25 783.02 494.85 785.29 500.9 787.55 503.78 789.67 511.14 797.14 513.54 798.57 514.99 802.46 519.41 805.55 520.67 807.9 517.48 812.36 515.98 816.1 513.78 832.25 514.52 836.17 520.79 845.46 Z M 501.43 878.63 503.89 878.42 505.46 880.93 505.44 888.1 503.41 892.32 501.24 889.68 498.14 888.77 499.46 885.46 498.14 881.37 500.05 874.25 502.07 876.18 501.43 878.63 Z M 485.58 845.6 489.76 851.46 488.26 853.66 483.6 849.57 483.31 852.72 480.7 852.92 475.4 850.38 475.41 844.25 471.76 836.85 472.72 834.82 477.02 835.44 482.35 840.21 485.58 845.6 Z" fill-rule="evenodd" id="TH-23" data-name="Trat"/>
<path d="M 446.61 717.8 448.44 723.05 450.42 725.91 449.99 729.34 450.79 735.11 459.32 732.35 463.52 726.96 465.28 726.91 468.79 731.02 473.11 731.06 474.08 728.33 478.78 724.09 483.88 737.56 485.79 740.89 494.29 751.56 492.24 753.72 491.86 758.26 493.64 766.54 495.66 770.9 494.78 776.21 490.24 777.7 486.45 781.58 485.09 784.17 485.12 793.67 480.99 792.08 478.83 794.9 480.56 801.48 479.09 805.58 480.75 808.64 483.25 810.24 481.32 814.51 476.95 818.66 474.38 816.18 474.63 811.8 473.08 811.13 471.96 807.25 469.05 807.66 473.41 817.68 472.58 819.65 469.05 817.93 459.19 808.43 453.98 801.65 455.93 799.27 449.19 793.75 447.94 794.88 451.21 798.2 453.26 798.25 452.54 803.65 447.91 797.15 443.27 796.84 443.08 791.5 440.71 792.25 436.03 790.83 430.68 783.45 426.72 780.97 428.03 776.19 429.64 774.14 430.67 767.14 430.06 761.63 428.16 760.71 425.84 756.09 422.99 756.19 421.95 754.1 423.03 751.06 419.41 747.64 416.88 739.79 417.42 737.83 419.83 734.09 424.87 733.12 433.26 727.56 435.75 729.5 438.15 724.16 442.73 721.54 446.61 717.8 Z" id="TH-22" data-name="Chanthaburi"/>
<path d="M 273.45 1368.02 270.33 1368.44 269.3 1375.68 270.37 1380.96 268.3 1383.54 268.17 1389.36 266.52 1392.98 264.68 1389.36 264.11 1385.72 260.35 1386.74 254.38 1380.83 250.06 1371.46 243.79 1365.54 239.96 1360.55 237.37 1361.21 234.7 1356.15 226.36 1353 223.96 1350.75 224.41 1345.1 226.02 1342.62 223.49 1341.39 223.33 1336.23 224.89 1333.01 229.73 1326.23 233.31 1326.24 236.3 1324.97 239.07 1330.14 243.02 1332.15 246.21 1326.32 248.25 1326.23 253.15 1332.11 255.98 1333.39 258.73 1332.67 260.48 1334.46 261.09 1338.96 265.82 1345.42 273.12 1348.18 274.82 1349.98 273.01 1358.99 274.48 1363.64 273.45 1368.02 Z M 181.74 1380.11 178.8 1383.8 174.86 1382.51 176.7 1380.47 181.74 1380.11 Z M 222.67 1385.77 220.2 1386.44 218.98 1382.33 215.72 1379.28 217.99 1375.47 217.99 1372.1 219.78 1370.75 220.57 1366.24 223.45 1370.6 223.43 1375.34 225.76 1381.72 225.3 1384.15 222.67 1385.77 Z" fill-rule="evenodd" id="TH-91" data-name="Satun"/>
<path d="M 290.66 1384.78 287.87 1383.44 284.89 1379.94 281.32 1369.04 277.64 1367.94 273.45 1368.02 274.48 1363.64 273.01 1358.99 274.82 1349.98 273.12 1348.18 265.82 1345.42 261.09 1338.96 260.48 1334.46 258.73 1332.67 257.2 1329.92 260.16 1326.47 269.15 1321.32 281.21 1318.84 283.44 1316.01 287.35 1314.17 287.85 1311.97 290.76 1308.73 291.36 1312.95 292.99 1316.14 292.38 1318.3 295.17 1322.2 301.1 1325.24 307.83 1324.77 313.16 1320.12 328.01 1340.47 334.01 1343.52 336.18 1342.52 345.65 1350.42 350.41 1352.75 357.21 1352.65 354.63 1358.42 354.39 1364.79 355.7 1366.98 356.7 1372.45 360.4 1374 360.62 1379.25 353.44 1389.61 345.31 1391.97 343.42 1393.81 342.68 1398.91 342.99 1402.94 339.35 1406.64 333.66 1406.92 334.17 1405.21 332.18 1400.26 331.91 1395.65 328.79 1392.49 325.81 1392.22 324.62 1388.04 322.97 1388.05 316.76 1392.51 313.31 1392.31 304.13 1389.14 299.29 1386.1 293.74 1385.9 290.66 1384.78 Z M 287.26 1247.54 289.66 1258.56 296.68 1292.47 302.51 1306.37 308.93 1316.53 307.09 1319.69 299.79 1313.68 295.27 1312.83 296.57 1310.25 294.96 1302.88 293.59 1302.03 293.39 1287.54 291.8 1283.8 288.85 1282.59 285.63 1282.99 282.16 1288.46 280.25 1286.58 280.81 1282.75 285.43 1278.91 285.77 1275.13 283.84 1265.14 280.25 1261.49 273.61 1263.74 269.85 1261.38 266.75 1260.88 269.21 1253.8 281.18 1248.78 287.26 1247.54 Z" fill-rule="evenodd" id="TH-90" data-name="Songkhla"/>
<path d="M 333.66 1406.92 339.35 1406.64 342.99 1402.94 342.68 1398.91 343.42 1393.81 345.31 1391.97 353.44 1389.61 360.62 1379.25 360.4 1374 365.95 1377.67 369.73 1378.15 373.22 1377.43 375.88 1375.21 378.13 1371.2 379.64 1370.81 379.95 1377.62 381.95 1381.48 383.94 1382.48 391.59 1380.42 395.23 1380.59 399.72 1378.07 404.41 1383.01 408.65 1382 409.76 1384.13 402.34 1392.91 397.41 1393.63 392.66 1395.86 389.85 1410.23 389.57 1414.04 387.5 1416.82 389.43 1420.89 393.31 1424.14 393.91 1427 397.72 1431.51 397.36 1437.46 398.59 1441.5 398.87 1446.28 388.5 1450.31 381.4 1454.29 374.65 1456.53 372.34 1465.03 369.63 1468.17 365.11 1470.9 360.81 1471 358.24 1466.14 354.25 1462.57 349.85 1461.33 347.99 1457.9 347.3 1456 352.12 1445.73 357.5 1443.65 359.08 1436.88 359.74 1427.56 355.71 1422.83 355.8 1420.6 359.24 1417.57 358.52 1411.98 352.87 1412.51 348.17 1409.44 341.98 1413.01 333.5 1410.68 333.66 1406.92 Z" id="TH-95" data-name="Yala"/>
<path d="M 398.87 1446.28 398.59 1441.5 397.36 1437.46 397.72 1431.51 393.91 1427 393.31 1424.14 389.43 1420.89 387.5 1416.82 389.57 1414.04 389.85 1410.23 392.66 1395.86 397.41 1393.63 402.34 1392.91 409.76 1384.13 408.65 1382 409.1 1379.24 407.74 1375.57 412.44 1374.87 414.4 1375.91 417.04 1380.24 420.39 1380.16 425.04 1387.31 428.57 1390.82 438.25 1396.9 448.98 1407.21 454.09 1410.91 453.47 1416.02 453.92 1423.6 452.83 1426.69 443.13 1434.75 440.76 1437.65 439.31 1441.67 438.65 1449.52 434.44 1452.95 433.05 1455.49 430.23 1457.22 427.81 1461.09 424.19 1460.16 421.99 1456.98 417.89 1458.45 414.84 1458.6 411.46 1452.51 411.77 1449.88 408.98 1448.86 406.49 1444.96 404.43 1444.47 398.87 1446.28 Z" id="TH-96" data-name="Narathiwat"/>
<path d="M 263.82 13.98 263.63 17.54 265.49 21.16 268.95 22.07 270.42 20.58 270.36 16.57 274.41 14.48 275.52 10.78 280.3 6.37 283.8 5.56 287.44 6.56 289.38 8.72 294.89 20.93 298.69 27.05 305.27 31.26 307.33 35.69 306.63 39.79 301.74 53.64 299.97 60.44 295.84 63.21 293.55 67.72 291.22 70.84 291.85 74.88 287.52 79.81 282.98 81.26 279.68 83.89 276.38 83.76 272.21 86.11 270.29 89.97 270.25 92.86 267 100.85 263.12 102.43 262.07 105.03 258.74 104.21 254.66 105.17 249.02 109.69 245.77 108.2 246.76 102.09 245.5 99.63 229.78 102.37 224.11 105.03 220.96 100.98 219.72 97.72 216.69 97.93 214.7 100.73 212.81 107.8 214.02 110.73 213.73 119 211.77 123.14 210.22 132.51 211.98 136.21 209.3 141.49 204.89 142.63 200.48 147.89 196.4 149.08 195.39 144.57 189.26 136.33 187.67 129.91 190.82 120.87 188.91 113.64 189.9 111.19 188.03 105.38 188.11 101.6 186.28 97.8 188.85 93.1 186.54 88.33 183.99 86.66 183.93 81.43 188.3 77.44 190.91 76.72 194.94 67.03 198.13 65.39 195.45 60.81 195.18 57.47 197.37 54.72 198.32 51 200.48 49.44 205.91 49.36 208.24 50.38 209.35 53.35 211.97 54.59 214.46 49.19 214.75 45.82 207.06 41.09 207.03 37.97 211.46 35.72 212.28 33.88 206.89 30.94 208.54 26.48 204.73 21.42 202.81 13.53 199.27 9.78 201.63 7.89 206.33 11.16 213.73 13.63 216.42 13.43 220.7 15.11 226.14 13.24 232.04 12.89 235.36 10.78 238.61 3.8 242.48 1.91 248.66 1 252.89 6.86 257.73 8.29 259.6 11.27 263.82 13.98 Z" id="TH-57" data-name="Chiang Rai"/>
<path d="M 206.89 30.94 212.28 33.88 211.46 35.72 207.03 37.97 207.06 41.09 214.75 45.82 214.46 49.19 211.97 54.59 209.35 53.35 208.24 50.38 205.91 49.36 200.48 49.44 198.32 51 197.37 54.72 195.18 57.47 195.45 60.81 198.13 65.39 194.94 67.03 190.91 76.72 188.3 77.44 183.93 81.43 183.99 86.66 186.54 88.33 188.85 93.1 186.28 97.8 188.11 101.6 188.03 105.38 189.9 111.19 188.91 113.64 190.82 120.87 187.67 129.91 189.26 136.33 195.39 144.57 196.4 149.08 193.66 151.43 194.39 153.93 193.39 159.38 189.39 162.33 191.34 164.07 193.06 172.87 189.78 181.7 190.59 184.01 189.02 187.13 191.98 189.03 188.2 196.8 179.04 190.5 179.3 184.67 175.77 181.24 174.87 178.85 171.65 179.1 168.15 181.63 162 184.09 158.88 182.77 155.74 188.94 150.77 196.87 141.89 201.36 136.17 205.61 130.46 206.86 128.11 213.4 129.59 216.37 127.09 220.01 136.71 224.94 138.19 228.04 138.75 233.65 140.15 236.05 140.32 242.6 138.94 250.51 140.41 253.86 143.38 253.66 147.9 266.64 149.23 268.98 147.99 276.34 142.34 279.43 133.87 275.26 129.93 275.3 125.45 277.24 123.85 281.45 120.42 284.49 121.87 290.55 120.48 293.77 115.55 295.22 113.09 299.75 112.84 304.35 116.04 309.01 114.45 315.02 116.55 316.97 115.71 322.62 110.18 324.31 106.48 324.57 101.48 326.47 93.96 321.31 94.16 317.23 91.83 312.04 93.72 309.33 91.73 306.29 92.54 298.91 91.09 294.67 86.46 293.1 86.28 287.77 87.32 285.11 90.62 281.4 85.16 279.14 81.89 273.04 84.86 267.46 76.52 257.65 71.33 253.88 69.5 248.09 70.54 244.45 73.66 241.4 71.58 235.12 71.87 229.58 70.31 226.58 72.94 219.26 71.09 216.06 71.79 214.07 75.84 210.65 77.63 206.36 81.51 203.99 76.68 201.34 72.58 195.78 72.78 189.83 71.07 185.4 72 183.96 71.88 177.72 72.92 172 70.67 171.01 69.5 166.2 72.27 160.03 73.38 155.18 72.05 148.73 74.17 144.67 72.88 140.9 75.88 137.41 76.5 134.1 81.11 132.1 85.3 134.45 87.78 138.42 93.9 145.36 101.95 146.2 106.29 147.84 108.06 145.15 112.87 146.27 120.86 144.55 122.83 143.29 124.59 138.61 121.65 131.82 118.22 128.1 120.27 120.72 119.7 112.22 118.61 109.17 120.09 100 117.49 96.97 115.4 91.84 114.59 87.14 107.97 81.06 107.51 76.8 112.8 79.85 114.31 78.13 119.13 76.45 123.28 72.78 133.68 70.88 139.33 66.47 144.79 69.88 146.64 72.72 155.33 68.36 158.7 62.43 157.79 56.09 159.15 53.3 158.42 49.46 159.47 42.42 161.37 38.91 164.93 36.24 169.18 34.54 174.99 34.12 180.64 36.08 186.35 40.21 200.4 36.2 206.89 30.94 Z" id="TH-50" data-name="Chiang Mai"/>
<path d="M 48.84 90.64 56.44 87.37 59.47 84.21 62.25 83.62 62.79 80.51 61.89 74.93 63.18 68.22 65.85 66.35 68.48 69.46 72.19 69.48 78.03 74.15 82.46 76.56 84.35 81 91.08 78.41 103.83 78.64 107.51 76.8 107.97 81.06 114.59 87.14 115.4 91.84 117.49 96.97 120.09 100 118.61 109.17 119.7 112.22 120.27 120.72 118.22 128.1 121.65 131.82 124.59 138.61 122.83 143.29 120.86 144.55 112.87 146.27 108.06 145.15 106.29 147.84 101.95 146.2 93.9 145.36 87.78 138.42 85.3 134.45 81.11 132.1 76.5 134.1 75.88 137.41 72.88 140.9 74.17 144.67 72.05 148.73 73.38 155.18 72.27 160.03 69.5 166.2 70.67 171.01 72.92 172 71.88 177.72 72 183.96 71.07 185.4 72.78 189.83 72.58 195.78 76.68 201.34 81.51 203.99 77.63 206.36 75.84 210.65 71.79 214.07 71.09 216.06 72.94 219.26 70.31 226.58 71.87 229.58 71.58 235.12 73.66 241.4 70.54 244.45 69.5 248.09 71.33 253.88 76.52 257.65 84.86 267.46 81.89 273.04 85.16 279.14 90.62 281.4 85.46 282.51 80.93 286.37 73.83 286.44 71.58 287.2 58.27 294.06 54.12 294.24 52.58 295.67 39.18 283.09 37.32 276.95 34.16 273.92 31.14 262.69 34.47 256.35 37.74 253.74 34.47 245.22 32.44 241.4 31.02 235.78 24.62 226.08 27.06 222.89 26.52 219.51 20.37 216.79 19.09 217.28 15.98 223.68 11.95 220.95 8.68 216.74 7.76 209.66 5.31 205.81 1.6 197.72 1 194.89 2.54 195.54 5.21 200.23 7.29 201.04 14.17 200.72 24.62 194.43 31.6 193.94 37.52 191.44 38.29 187.34 36.51 179.16 35.68 171.29 34.5 167.5 34.38 162.72 28.47 156.49 32.85 152.55 35.21 145.14 41.2 140.49 43.21 137.47 43.63 129.47 42.68 125.72 39.25 122.66 42.77 118.18 40.54 114.51 39 108.33 46.87 98.47 46.01 92.19 48.84 90.64 Z" id="TH-58" data-name="Mae Hong Son"/>
<path d="M 90.62 281.4 87.32 285.11 86.28 287.77 86.46 293.1 91.09 294.67 92.54 298.91 91.73 306.29 93.72 309.33 91.83 312.04 94.16 317.23 93.96 321.31 101.48 326.47 106.48 324.57 110.18 324.31 115.71 322.62 116.55 316.97 114.45 315.02 116.04 309.01 112.84 304.35 113.09 299.75 115.55 295.22 120.48 293.77 121.87 290.55 120.42 284.49 123.85 281.45 125.45 277.24 129.93 275.3 132.88 279.9 132.52 283.66 129.42 284.63 128.92 290.12 130.19 294.79 130.19 301.05 130.99 302.71 135.93 302.84 141.24 300.82 144.79 297.92 147.2 292.9 147.56 289.29 151.34 286.65 154.56 286.9 159.01 290.03 161.03 300.92 159.06 309.06 162.23 313.2 170.38 315.79 174.5 317.92 178.91 311.75 183.87 312.11 184.92 319.63 188.45 325.4 188.12 336.4 188.6 340.75 184.82 345.72 185.15 350.32 183.9 355.45 185.01 358.99 187.81 359.92 191.21 363 189.33 370.48 186.91 372.95 186.46 379.55 181.9 386.63 182.51 394.44 180.93 397.9 174.87 399.51 173.66 401.56 168.84 404.5 158.45 404.06 156.68 405.98 159.13 415.07 157.59 423.95 158.01 429 160.02 432.09 160.21 435.16 158.84 440.02 160.37 449.25 164.49 452.59 164.04 456.88 165.45 459.3 165.45 465.41 166.09 469.2 169.38 472.17 169.56 475.34 169.79 480.53 168.18 485.24 167.76 489.75 164.47 495.47 162.23 496.92 161.99 500.74 164.21 503.94 163.14 506.76 163.35 512.63 161.75 515.82 159.36 525.72 155.96 530.29 147.27 524.42 145.78 521.15 141.84 516.17 139.03 511.46 136.2 509.04 134.87 505.36 131.37 503.07 131.85 500.79 125.43 490.52 120.06 488.31 113.9 484.83 113.8 478.79 116.82 468.71 116.26 460.27 117.73 454.58 114.48 448.83 115.04 446.7 120.41 447.56 123.55 444.27 124.95 440.6 128.66 439.53 134.57 440.31 136.94 441.99 139.27 441.17 141.99 437.76 142.73 431.32 146.64 426.29 148.53 415.77 146.79 411.48 142.76 408.24 139.58 408.12 137.47 414.66 131.66 419.31 127.23 424.81 124.78 421.98 122.01 410.74 122.34 405.75 115.84 396.82 116.18 393.75 114.19 389.96 110.83 387.63 108.33 381.82 105.47 379.59 107.2 374.21 110.18 372.8 112.02 366.77 110.56 362.52 108.15 361.19 107.76 358.02 103.5 350.53 100 347.65 91.65 346.45 87.32 340.83 88.35 337.92 86.15 336.41 82.76 331.45 79.4 329.08 71.15 321.16 70 314.07 64.87 310.82 63.21 306.53 59.79 300.67 52.58 295.67 54.12 294.24 58.27 294.06 71.58 287.2 73.83 286.44 80.93 286.37 85.46 282.51 90.62 281.4 Z" id="TH-63" data-name="Tak"/>
<path d="M 81.47 530.43 83.9 529.68 88.74 523.36 93.85 524.14 98.59 526.73 100.34 516.35 107.2 514.01 112.57 517.59 115.43 516.83 116.3 512.15 116.12 507.1 113.86 492.2 113.9 484.83 120.06 488.31 125.43 490.52 131.85 500.79 131.37 503.07 134.87 505.36 136.2 509.04 139.03 511.46 141.84 516.17 145.78 521.15 147.27 524.42 155.96 530.29 157.95 544.62 163.29 549 164.5 550.94 170.82 550.09 181.83 553.08 184.84 552.35 187.26 557.28 187.57 562.72 185.22 565.43 186.57 569.07 189 568.91 194.76 575.67 200.07 575.73 199.82 579.52 202.1 583.17 205.92 582.52 208.85 579.47 210.33 572.68 216.38 573.61 218.47 572.07 223.23 572.86 228.8 579.59 233.75 584.66 239.78 586.86 241.45 588.39 240.15 592.85 243.47 595.47 242.75 597.42 237.39 600.35 236.75 618.41 237.26 625.95 235.96 630.99 231.76 634.94 232.32 641.68 235.3 643.64 236.08 645.78 235.72 648.42 237.54 651.67 239.67 652.62 242.69 657.44 241.32 658.68 238.69 665.11 236.71 666.43 234.68 670.27 224.29 669.58 213.43 672.95 210.66 675.83 205.98 674.79 204.01 672.11 201.02 673.61 192 676.53 186.52 674.92 181.75 675.2 177.47 678.67 172 679.37 168.34 675.49 166.51 669.14 166.74 665.48 163.74 663.05 162.44 660.37 159.41 658.09 156.38 652.86 153.32 649.14 152.58 645.05 149.92 642.34 145.54 640.74 134.11 632.03 131.93 629.7 129.6 625.08 126.08 625.28 122.85 622.19 118.63 619.94 114.25 614.36 107.55 600.54 105.1 599.39 101.77 591.47 90.13 580.14 84.91 571.77 84.5 567.89 82.87 565.87 82.82 560.19 79.89 553.01 80.64 547.2 77.66 544.07 77.36 539.77 79.84 534.43 78.53 530.3 81.47 530.43 Z" id="TH-71" data-name="Kanchanaburi"/>
<path d="M 171.44 944.38 174.73 939.66 178.38 937.61 181.3 928.83 185.66 922.87 188.29 916.72 192.97 911.22 194.25 905.44 199.13 899.4 200.37 895.81 200.32 889.52 202.78 886.9 209.01 886.21 216.35 876.88 218.58 868.01 213.16 863.87 211.26 860.2 213.18 852.19 211.19 849.31 207.82 847.3 210.46 836.85 208.23 835.63 202.8 837.43 201.12 835.34 203.35 832.73 201.92 824.56 199.51 820.62 198.4 812.03 195.16 803.88 196.81 799.71 196.87 793.91 203.62 792.06 207.62 792.03 212.94 793.27 218.07 796.05 222.83 793 231.29 792.42 237.42 787.93 247.13 787.84 250.47 787.06 252.4 796.53 252.4 805 255.31 812.05 252.49 822.24 255.15 826.07 256.18 830.85 253.06 834.76 252.46 838.3 249.94 842.7 240.3 852.97 237.98 857.27 237.21 861.81 238.53 865.28 236.18 866.4 236.62 875.33 233.09 875.74 230.32 878.44 222.49 891.43 219.73 896.81 218.17 904.95 215.01 912.45 212.74 915.43 212.44 921.1 214.36 929.08 210.5 928.75 207.53 931.26 205.49 937 207.21 942.66 206.38 948.54 201.99 949.46 197.5 952.55 188.88 951.77 183.47 952.34 179.67 951.32 172.71 947.8 171.44 944.38 Z" id="TH-77" data-name="Prachuap Khiri Khan"/>
<path d="M 196.87 793.91 195.81 791.65 191.06 788.98 187.71 785.35 184.54 784.16 182.56 779.82 178.49 777.33 178.16 771.64 174.42 766.59 172.71 758.35 173.98 755.44 172.42 751.6 166.84 747.29 166.37 745.31 167.73 740.75 167.69 734.13 168.85 732.47 174.51 731.34 175.83 730.14 182.41 733.6 183.86 736.59 189.05 734.07 189.14 730.66 191.28 728.57 201.41 733.12 206.45 733.32 208.94 731.46 214.09 732.11 219.18 731.32 221.76 729.95 222.18 724.9 225.68 720.23 230.89 718.25 240.63 718.57 240.6 724.42 243.41 727.39 244.94 723.96 250.48 722.22 251.08 725.44 254.11 729.5 261.38 735.96 264.31 745.41 263.22 748.71 260.04 753.04 258.39 757.64 256.56 766.22 253.06 771.81 250.88 779.75 250.47 787.06 247.13 787.84 237.42 787.93 231.29 792.42 222.83 793 218.07 796.05 212.94 793.27 207.62 792.03 203.62 792.06 196.87 793.91 Z" id="TH-76" data-name="Phetchaburi"/>
<path d="M 172 679.37 177.47 678.67 181.75 675.2 186.52 674.92 192 676.53 201.02 673.61 204.01 672.11 205.98 674.79 210.66 675.83 213.43 672.95 224.29 669.58 234.68 670.27 236.71 666.43 238.69 665.11 241.32 658.68 242.69 657.44 248.67 659.31 250.53 667.4 249.25 677.21 251.03 679.96 253.61 679.88 257.11 677.94 258.61 682.25 261.83 683.34 261.51 688.7 259.49 690.77 257.9 701.11 252.14 702.36 246.39 700.6 244.02 705.54 244.01 708.95 240.63 718.57 230.89 718.25 225.68 720.23 222.18 724.9 221.76 729.95 219.18 731.32 214.09 732.11 208.94 731.46 206.45 733.32 201.41 733.12 191.28 728.57 189.14 730.66 189.05 734.07 183.86 736.59 182.41 733.6 175.83 730.14 176.18 728.37 174.51 721.29 175.87 718.49 175.96 708.78 172.5 693.43 172 679.37 Z" id="TH-70" data-name="Ratchaburi"/>
<path d="M 146.21 969.05 148.73 966.48 151.49 967.13 155.39 965.51 156.86 960.51 156.18 955.23 158 952.41 163.16 953.63 165.26 948.59 171.44 944.38 172.71 947.8 179.67 951.32 183.47 952.34 188.88 951.77 197.5 952.55 201.99 949.46 206.38 948.54 205.67 953.73 207.17 957.84 205.49 960.22 201.39 960.5 200.24 961.9 199.79 967.71 194 976.53 193.94 979.53 190.97 980.12 187 984.47 185.64 991.15 181.43 993.88 181.64 1002.82 185.69 1005.95 184.67 1011.31 180.42 1012.65 177.13 1009.24 172.47 1011.31 173.13 1016.66 181.15 1025.31 177.26 1025.69 173.27 1033.75 172.65 1038.89 174.62 1042.12 174.8 1045 173.13 1047.24 173.79 1051.56 174.08 1061.54 172.47 1063.04 171.82 1066.75 167.29 1067.41 163.08 1070.01 161.26 1072.3 154.17 1073.4 148.4 1072.77 139.3 1077.25 136.88 1077.87 136.29 1081.26 133.73 1085.34 131.58 1082.91 125.7 1080.01 122.86 1070.35 123.25 1067.26 130.94 1060.28 132.15 1056.31 136.02 1052.14 140.76 1051.4 143.86 1047.02 148.53 1044.63 151.1 1039.58 151.9 1034.02 147.86 1027.89 148.16 1023.99 149.86 1021.21 149.5 1018.28 153.08 1012.91 152.6 1009.08 148.54 1004.76 149.4 998.91 154.66 993.75 153.51 991.34 155.36 987.98 152.24 981.01 149.01 978.96 150.52 973.54 146.21 969.05 Z" id="TH-86" data-name="Chumphon"/>
<path d="M 133.5 1011.98 135.33 1006.03 137.73 995.32 136.38 989.16 133.55 985.25 135.36 978.81 141.47 971.47 145.15 970.85 146.21 969.05 150.52 973.54 149.01 978.96 152.24 981.01 155.36 987.98 153.51 991.34 154.66 993.75 149.4 998.91 148.54 1004.76 152.6 1009.08 153.08 1012.91 149.5 1018.28 149.86 1021.21 148.16 1023.99 147.86 1027.89 151.9 1034.02 151.1 1039.58 148.53 1044.63 143.86 1047.02 140.76 1051.4 136.02 1052.14 132.15 1056.31 130.94 1060.28 123.25 1067.26 122.86 1070.35 125.7 1080.01 131.58 1082.91 133.73 1085.34 136.19 1090.67 129.07 1098.14 127.14 1098.74 126.98 1102.72 124.65 1103.34 125.42 1109.62 119.77 1110.24 117.94 1108.64 113.05 1110.58 110.71 1114.15 107.3 1113.21 102.92 1109.21 99.01 1110.39 99.74 1107.08 102.47 1101.83 104.18 1093.2 105.53 1090.49 108.38 1092.49 111.57 1089.98 106.92 1083.39 111.02 1080.1 109.04 1077.07 113.89 1075.04 115.36 1071.06 111.68 1070.33 110.42 1068.38 114.99 1066.08 110.88 1062.29 119.28 1051.39 119.63 1046.94 125.3 1037.97 127.93 1030.45 130.9 1023.99 133.5 1011.98 Z" id="TH-85" data-name="Ranong"/>
<path d="M 224.11 105.03 229.78 102.37 245.5 99.63 246.76 102.09 245.77 108.2 249.02 109.69 254.66 105.17 258.74 104.21 262.07 105.03 263.12 102.43 267 100.85 270.25 92.86 270.29 89.97 272.21 86.11 276.38 83.76 279.68 83.89 282.98 81.26 287.52 79.81 291.85 74.88 293.51 77.39 294.63 84.1 298.16 89.19 298.78 94.06 301.66 96.37 307.2 98.41 309.66 97 311.16 100.29 308.88 101.6 306.88 105.65 303.61 109.22 304.34 112.15 307.27 114.3 309.59 113.4 312.91 116.63 311.65 123.39 314.58 136.35 308.54 139.68 307.43 142.31 304.62 144.17 300.37 143.75 298.79 149.42 302.42 150.38 299.94 154.17 294.7 155.45 289.03 165.16 288.24 167.77 277.55 166.98 273.34 167.3 270.58 166.25 265.91 168.1 261.36 166.72 261.32 163.57 258.68 160.01 250.82 155.08 247.58 150.4 239.12 148.84 237.16 143.73 234.03 142.86 231.22 136.37 228.8 132.5 226.24 125.54 225.56 118.95 226.34 116.45 225.04 112.39 224.11 105.03 Z" id="TH-56" data-name="Phayao"/>
<path d="M 309.66 97 312.77 93.66 315.3 93.54 323.15 96.58 326.12 99.38 332.18 94.11 338.56 86.3 348.17 86.24 352.99 87.33 357.23 89.96 362.67 91.19 370.7 88.69 374.38 90.66 375.42 95.52 373.62 100.68 369.24 102.68 367.79 106.32 367.85 113.53 370.12 114.35 372.81 125.88 372.74 134.27 374.5 137.11 381.29 143.8 382.11 146.82 378.02 150.81 376.41 155.6 373.1 159.85 372.18 163.65 372.69 169.75 370.82 174.77 371.01 178.27 373.79 182.17 372.04 185.38 366.82 189.01 365.62 194.06 358.16 198.77 356.89 202.23 353.57 207.17 357.79 212.88 342.88 225.24 342 229.95 339.58 232.11 338.23 236.41 335.15 242.09 327.57 247.95 320.31 247.78 318.9 246.88 309.41 245.61 303.92 248.78 294.94 248.98 293.34 237.29 297.39 235.34 299.18 231.77 299.94 227.59 302.76 222.59 302.38 215.52 304.22 213.82 306.49 207.25 306.23 203.77 301.39 200.54 293.64 200.15 292.85 194.76 291.63 192.86 291.98 188.31 289.72 183.13 290.05 179.64 292.26 176.76 290.3 174.37 288.24 167.77 289.03 165.16 294.7 155.45 299.94 154.17 302.42 150.38 298.79 149.42 300.37 143.75 304.62 144.17 307.43 142.31 308.54 139.68 314.58 136.35 311.65 123.39 312.91 116.63 309.59 113.4 307.27 114.3 304.34 112.15 303.61 109.22 306.88 105.65 308.88 101.6 311.16 100.29 309.66 97 Z" id="TH-55" data-name="Nan"/>
<path d="M 357.79 212.88 364.68 216.47 363.19 221.05 363.02 225.67 366 229.9 366.12 232.39 364.3 238.02 366.57 245.18 361.48 249.45 357.03 257.29 351.45 261.21 350.15 269.07 347.29 271.1 346.4 280.22 342.02 282.21 340.17 280.39 336.95 281.93 334.69 286.48 329.22 290.71 326.43 295.37 323.66 298.13 319.53 300.05 312.96 305.43 310.84 308.86 302.49 311.06 301.72 309.79 296.53 309.87 282.62 314.68 279.62 317.25 278.1 321.05 279.41 326.33 278.46 328.37 274.06 331.82 268.82 331.69 257.65 335.14 255.2 333.82 252.59 334.99 252.71 330.53 251.47 325.97 255.6 319.83 255.74 313.41 254.28 310.29 257.55 308.01 256.16 303.87 249.39 296.96 247.46 293.21 251.29 289.37 252.1 285.04 251.28 280.5 246.8 275.66 246.34 272.29 244.28 270.49 249.52 272.65 253.98 267.98 261.65 267.02 266.73 265.06 275.73 258.14 277.44 255.57 282.06 254.76 286.7 261.23 289 257.6 289.38 253.35 291.45 250.59 294.94 248.98 303.92 248.78 309.41 245.61 318.9 246.88 320.31 247.78 327.57 247.95 335.15 242.09 338.23 236.41 339.58 232.11 342 229.95 342.88 225.24 357.79 212.88 Z" id="TH-53" data-name="Uttaradit"/>
<path d="M 346.4 280.22 344.18 285.59 339.63 291.52 341.2 294.96 344.65 295.61 341.76 298.92 339.34 304.59 341.14 307.83 341.84 311.99 341.18 316.53 343.21 318.51 349.76 318.87 354 323.88 356.99 324.57 359.61 328.83 357.11 335.12 354.73 345.13 354.36 350.01 353.03 351.69 354.43 354.58 353.28 356.77 356.97 361.16 354.01 361.27 351.17 364.93 343.89 371.53 341.23 372.06 340.58 375.31 343.54 382.82 341.75 384.98 338.49 385.76 336.45 388.25 334.98 392.46 335.02 398.74 330.54 406.73 322.32 410.6 321.05 414.25 318.66 417.43 310.34 409.26 310.27 406.67 307.13 399.37 304.17 398.17 298.23 399.08 294.73 398.24 286.77 400.2 284.53 399.45 281.92 401.02 278.82 393.64 276.84 392.64 269.72 396.06 265.71 400.39 257.35 402.43 256.53 399.25 254.24 396.45 246.28 393.37 243.93 388.78 245.04 383.12 247.84 381.77 247.73 379.53 243.48 377.99 246.45 373.71 249.98 365.3 256.33 366.12 257.44 362.69 265.69 362.19 266.73 360.54 266.31 354.56 255.3 347.45 247.25 339.36 246.52 335.13 252.59 334.99 255.2 333.82 257.65 335.14 268.82 331.69 274.06 331.82 278.46 328.37 279.41 326.33 278.1 321.05 279.62 317.25 282.62 314.68 296.53 309.87 301.72 309.79 302.49 311.06 310.84 308.86 312.96 305.43 319.53 300.05 323.66 298.13 326.43 295.37 329.22 290.71 334.69 286.48 336.95 281.93 340.17 280.39 342.02 282.21 346.4 280.22 Z" id="TH-65" data-name="Phitsanulok"/>
<path d="M 344.65 295.61 348.87 296.4 352.48 298.52 355.4 301.65 363.4 305.09 366.72 300.14 370.14 298.87 374.46 291.9 385.09 283.11 387.64 282.51 389.6 279.41 394.61 275.91 395.79 278.92 399.11 274.37 404.27 271.66 403.23 269.48 405.02 268.8 406.32 263.96 408.53 265.36 411.98 261.26 420.93 259.5 424.47 246.51 426.84 243.14 435.84 247.47 437.82 246.83 452.4 231.08 454.62 228.91 457.4 229.05 457.45 232.34 453.99 236.44 452.68 241.63 450.56 251.84 449.41 252.48 450.68 261.76 451.75 264.35 451.47 272 449.47 277.61 450.51 283.78 454.2 283.28 455.82 288.83 458.74 292.8 460.68 300.33 458.53 303.54 454.34 306.07 446.41 306.3 446.05 310.88 449.19 315.05 449.18 319.54 445.27 324 445.17 326.68 441.88 331.7 444.93 336.91 455.57 341.12 457.57 345.45 461.18 350.15 455.63 353.77 451.44 355.5 450.44 357.19 453.92 363.25 451.47 365.18 445.64 367.48 440.68 368.17 434.59 372.22 426.86 375.23 422.72 375.94 419.93 374.52 419.93 362.91 418.96 358.54 416.46 355.72 411.86 347 409.15 350.79 405.32 352.4 402.85 351.57 401.12 347.42 395.82 344.34 392.2 344.94 389.01 344.01 379.94 343.69 370.86 340 367.02 347.12 363.54 347.96 362.21 359.03 360.16 360.89 356.97 361.16 353.28 356.77 354.43 354.58 353.03 351.69 354.36 350.01 354.73 345.13 357.11 335.12 359.61 328.83 356.99 324.57 354 323.88 349.76 318.87 343.21 318.51 341.18 316.53 341.84 311.99 341.14 307.83 339.34 304.59 341.76 298.92 344.65 295.61 Z" id="TH-42" data-name="Loei"/>
<path d="M 659.45 248.71 656.03 250.73 652.25 250.51 651.21 253.16 652.64 255.46 652.81 259.75 650.54 264.18 646.61 262.73 644.05 257.29 640.39 258.37 638.94 264.68 640.9 267.47 640.84 270.74 636.83 274.07 633.62 271.96 629.94 266.31 625.45 263.27 620.35 264.35 616.78 263.52 618.2 258.95 615.58 257.26 613.42 258.97 607.02 254.64 603.5 253.46 603.16 250.84 600.23 246.53 595.65 244.34 592.63 244.09 589.46 246.23 589.2 249.49 585.45 251.61 578.02 246.3 574.48 242.74 573.84 238.69 575.29 235.64 578.34 233.78 579.3 231.41 578.18 228.36 572.39 226.67 572.01 220.65 566.6 216.5 566 214.49 568.58 209.98 573.03 207.39 581.69 205.79 588.75 207.76 591.43 207.58 601.97 209.96 605.01 212.24 611.8 215.11 617.4 215.41 623.66 218.06 626.14 221.53 628.85 221.48 631.17 218.6 635.15 216.8 639.85 218.28 641.64 220.24 646.44 228.74 650.54 238.98 652.93 242.52 659.45 248.71 Z" id="TH-38" data-name="Bueng Kan"/>
<path d="M 452.68 241.63 453.99 236.44 457.45 232.34 457.4 229.05 463.62 230.28 465.51 235.17 469.52 238 471.78 241.06 476.61 245.38 482.37 246.66 486.79 251.18 493.52 253.52 501.76 253.55 504.85 255.14 506.07 259.18 504.46 265.79 510.75 269.56 511.41 265.79 513.25 263.41 516.67 262.58 521.67 258.43 529.25 253.43 537.53 249.69 540.84 249.81 543.81 251.76 547.1 251.54 550.49 247 549.69 241.06 551.9 236.53 556.81 233.69 557.99 228.13 561.3 224.45 571.05 222.15 572.01 220.65 572.39 226.67 578.18 228.36 579.3 231.41 578.34 233.78 575.29 235.64 573.84 238.69 574.48 242.74 578.02 246.3 585.45 251.61 581.98 252.03 580.25 253.71 581.92 256.29 582.64 261.31 581.96 264.13 577.46 265.36 574.25 267.39 572 266.87 569.01 262.88 564.43 264.55 559.36 270.61 549.1 262.11 546.15 264.16 542.27 268.54 538.6 263.06 532.36 262.22 532.38 264.88 529.01 269.86 530.47 273.97 530.18 278.31 527.75 281.99 523.97 283.97 521.83 288.65 517.99 291.08 510.54 291.38 505.98 289.23 505.83 282.07 499.07 275.87 492.66 275.49 489.41 271.79 489.89 269.74 486.38 266.38 485.56 262.67 478.59 255.71 475.02 253.17 466.79 248.71 462.8 251.12 458.06 244.62 455.6 244.6 452.68 241.63 Z" id="TH-43" data-name="Nong Khai"/>
<path d="M 640.84 270.74 640.9 267.47 638.94 264.68 640.39 258.37 644.05 257.29 646.61 262.73 650.54 264.18 652.81 259.75 652.64 255.46 651.21 253.16 652.25 250.51 656.03 250.73 659.45 248.71 667.03 264.63 673.84 268.9 678.87 276.94 680.55 281.01 686.23 287.01 701.19 294.9 708.72 299.67 712.8 306.28 716.26 308.95 718.55 314.07 718.73 327.46 717.92 334.38 711.69 349.2 711.79 357.39 713.73 364.99 712.91 369.95 710.65 371.4 711.74 376.35 709.73 376.79 705.88 374.74 705.48 369.71 697.32 368.46 691.91 370.41 687.56 366.81 685.61 367.59 682.38 365.62 678.52 366.61 672.76 364.88 669.16 366.51 665.65 365.03 662.89 362.16 669.08 358.27 671.07 354.04 676.76 350.65 677.86 347.92 674.92 346.13 674.72 343.34 678.1 339.52 678.86 333.86 682.67 326.55 681.51 323.62 681.04 317.81 679.96 315.61 679.71 309.21 671.01 309.06 661.98 310.75 655.4 310.19 652.16 313.07 645.52 312.74 640.81 304.36 642.99 299.27 644.54 291.94 642.84 288.03 645.81 286.17 647.18 283.52 646.15 278.25 642.05 275.29 640.84 270.74 Z" id="TH-48" data-name="Nakhon Phanom"/>
<path d="M 662.89 362.16 665.65 365.03 669.16 366.51 672.76 364.88 678.52 366.61 682.38 365.62 685.61 367.59 687.56 366.81 691.91 370.41 697.32 368.46 705.48 369.71 705.88 374.74 709.73 376.79 711.74 376.35 710.65 371.4 712.91 369.95 712.8 372.01 714.88 380.33 712.44 390.5 712.58 399.14 715.3 402.34 720.71 405.29 723.61 408.24 727.38 416.79 735.09 422.76 732.72 425.46 724.46 431.45 718.2 433.13 717.16 432.37 708.63 430.88 704.34 428.48 700.7 430.64 696.42 426.93 693.76 421.37 690.07 420.69 688.48 418.32 678.79 417.61 674.15 419.8 671.91 419.13 669.96 406.74 663.4 408.8 662.75 399.23 657.74 390.79 657.62 385.27 652.19 375.76 646.87 368.57 649.6 368.07 653.52 362.36 658.8 363.11 662.89 362.16 Z" id="TH-49" data-name="Mukdahan"/>
<path d="M 746.56 442.65 745.04 446.78 739.6 452.29 739.61 457.82 741.77 461.84 738.09 465.79 738.28 471.82 734.72 478.41 730.41 490.96 730.63 498.38 730.08 501.28 727.44 504.97 725.08 504.52 722.59 501.52 719.22 502.22 715.91 496.05 709.71 494.61 705.85 489.45 701.24 495.87 697.4 496.56 689.21 494.01 685.3 492.41 682.5 488.53 681.99 482.17 680.78 480.2 682.46 469.99 683.76 468.37 684.77 461.02 688.2 456.76 694.12 444.42 699.25 440.16 704.93 438.68 713.85 437.43 717.68 436.15 718.2 433.13 724.46 431.45 732.72 425.46 735.09 422.76 737.74 424.49 739.11 428.58 739.03 433.05 740.34 438.07 743.89 441.69 746.56 442.65 Z" id="TH-37" data-name="Amnat Charoen"/>
<path d="M 99.01 1110.39 102.92 1109.21 107.3 1113.21 110.71 1114.15 112.79 1116.29 112.79 1120.92 110.92 1123.1 109.85 1129.54 108.61 1132.38 109.32 1135.96 107.97 1138.62 110.28 1146.16 105.94 1148.05 105.21 1149.56 105.67 1155.1 109.8 1156.06 113.4 1158.91 116.65 1163.58 119.96 1165.86 119.66 1171.48 114.45 1178.09 117.5 1180.46 122.68 1180.04 125.27 1178.82 130.21 1180.66 128.65 1186.29 125.34 1187.38 125.54 1195.36 126.7 1197.58 124.04 1205.66 119.63 1202.88 119.18 1205.05 114.67 1206.51 112.16 1208.81 104.41 1209.91 106.08 1220.53 102.42 1227.12 99.17 1228.28 95.86 1223.56 92.68 1221.16 89.73 1220.55 88.21 1218.13 88.21 1213.96 86.75 1211.11 84.78 1201.98 80.68 1189.51 82.66 1186.12 84.63 1178.13 82.93 1172.15 83.06 1169.91 85.82 1166.88 86.67 1158.66 88.78 1155.31 89.67 1151.46 92.77 1146.5 96.54 1146.63 93.25 1139 98.28 1137.06 97.19 1133.97 93.11 1128.03 92.97 1124.19 97.19 1121.97 95.37 1119.53 97.7 1114.96 99.01 1110.39 Z M 49.1 1107.01 46.03 1104.59 48.77 1103.02 49.1 1107.01 Z M 113.56 1231.36 118.03 1233.85 120.29 1238.19 120.43 1248.77 117.11 1249.4 115.71 1243.71 117.65 1240.92 113.21 1234.64 113.56 1231.36 Z M 122.91 1224.89 121.3 1232.81 117.32 1231.24 116.85 1229.4 121.61 1222.9 122.91 1224.89 Z M 89.95 1129.91 92.05 1132.64 92.59 1136.64 89.84 1140.02 85.96 1140.49 84.59 1137.96 85.63 1129.04 89.95 1129.91 Z M 48.92 1102.54 46.96 1100.89 49.1 1097.87 51.31 1101.23 48.92 1102.54 Z M 89.26 1143.65 91.42 1146.21 87.53 1156.07 85.85 1154.05 85.76 1144.37 89.26 1143.65 Z" fill-rule="evenodd" id="TH-82" data-name="Phangnga"/>
<path d="M 124.04 1205.66 126.7 1197.58 125.54 1195.36 125.34 1187.38 128.65 1186.29 130.21 1180.66 131.96 1180.32 133.45 1176.91 135.71 1175.95 138.09 1178.43 143.14 1179.03 149.96 1184.65 150.76 1187.1 148.08 1189.34 146.82 1192.11 148.98 1196.82 147.47 1199.8 148.02 1206.74 149.81 1211.03 152.33 1210.06 157.65 1210.9 160.66 1210.08 163.7 1207.31 169.93 1208.11 174.77 1210.12 177.32 1210.23 183.5 1208.3 188.32 1213.05 188.45 1221.95 186.02 1226.48 185.49 1231.56 187.84 1236.96 189.95 1238.85 191.12 1242.08 189.24 1245.73 190.44 1247.12 191.18 1249.39 189.81 1252.5 186.36 1255.98 188.47 1262.31 190.73 1266.14 187.93 1271.33 182.6 1275.15 178.52 1272.72 176.41 1270.28 171.11 1266.46 166.67 1271.57 163.25 1270.88 161.05 1268.56 160.52 1262.13 159.24 1259.58 163.25 1256.44 164.63 1250.54 160.56 1250.95 157.88 1247.17 154.75 1245.84 154.37 1241.74 149.94 1236.58 147.07 1239.53 141.41 1240.92 139.8 1237.2 135.71 1239.27 133.5 1234.93 133.19 1220.64 129.23 1212.5 126.74 1212.05 123.94 1213.83 121.42 1213.05 121.82 1207.86 124.04 1205.66 Z M 161.22 1276.2 165.16 1279.63 166.15 1286.68 169.17 1292.26 167.49 1293.42 163.36 1289.84 160.56 1283.26 159.84 1276.92 161.22 1276.2 Z M 169.83 1274.92 169.81 1279.84 168.33 1281.07 164.56 1278.31 162.15 1274.34 164.32 1273.19 169.83 1274.92 Z" fill-rule="evenodd" id="TH-81" data-name="Krabi"/>
<path d="M 258.73 1332.67 255.98 1333.39 253.15 1332.11 248.25 1326.23 246.21 1326.32 243.02 1332.15 239.07 1330.14 236.3 1324.97 233.31 1326.24 229.73 1326.23 224.64 1327.55 222.62 1325.68 222.67 1322.24 217.72 1325.52 214.15 1323.63 211.63 1319.65 209.91 1315.11 214.27 1309.03 208.43 1308.58 208.5 1302.87 205.84 1302.8 204.9 1306.26 205.3 1309.69 203.23 1311.63 198.4 1308.96 195.67 1308.49 193.12 1306.14 190.3 1301.55 191.19 1299.95 191.01 1293.25 187.62 1287.48 186.07 1278.49 181.93 1277.81 182.6 1275.15 187.93 1271.33 190.73 1266.14 188.47 1262.31 186.36 1255.98 189.81 1252.5 191.18 1249.39 190.44 1247.12 193.48 1248.5 196.49 1252.28 203.19 1252.47 206.04 1254 209.83 1253.36 210.81 1250.45 215.15 1245.95 216.33 1243.61 227.63 1242.39 229.95 1243.76 228.38 1252.01 229.6 1256.09 233.42 1264.84 234.45 1270.13 236.66 1272.75 234.76 1276.72 234.6 1280.19 237.48 1285.12 237.54 1288.27 240.05 1291.41 243.41 1301.93 245.86 1306.57 248.45 1309.55 248.4 1314.45 250.88 1321.63 257.2 1329.92 258.73 1332.67 Z M 196.94 1312.95 200.83 1314.45 194.31 1319.22 194.27 1314.31 196.94 1312.95 Z" fill-rule="evenodd" id="TH-92" data-name="Trang"/>
<path d="M 360.4 1374 356.7 1372.45 355.7 1366.98 354.39 1364.79 354.63 1358.42 357.21 1352.65 369.1 1352.25 372.97 1350.46 374.2 1348.35 378.76 1350.02 384.52 1350.88 381.57 1343.76 387.78 1348.04 396.07 1350.1 401.06 1352.35 405.24 1355.13 415.07 1371.98 420.39 1380.16 417.04 1380.24 414.4 1375.91 412.44 1374.87 407.74 1375.57 409.1 1379.24 408.65 1382 404.41 1383.01 399.72 1378.07 395.23 1380.59 391.59 1380.42 383.94 1382.48 381.95 1381.48 379.95 1377.62 379.64 1370.81 378.13 1371.2 375.88 1375.21 373.22 1377.43 369.73 1378.15 365.95 1377.67 360.4 1374 Z" id="TH-94" data-name="Pattani"/>
<path d="M 290.76 1308.73 287.85 1311.97 287.35 1314.17 283.44 1316.01 281.21 1318.84 269.15 1321.32 260.16 1326.47 257.2 1329.92 250.88 1321.63 248.4 1314.45 248.45 1309.55 245.86 1306.57 243.41 1301.93 240.05 1291.41 237.54 1288.27 237.48 1285.12 234.6 1280.19 234.76 1276.72 236.66 1272.75 234.45 1270.13 233.42 1264.84 229.6 1256.09 234.62 1254.6 235.99 1252.99 250.34 1250.95 255.08 1253.36 255.86 1256.02 258.55 1258.67 266.75 1260.88 269.85 1261.38 273.61 1263.74 268.21 1268.89 269.16 1278.97 272.12 1288.85 276.21 1292.7 279.36 1300.58 283.46 1305.53 289.93 1306.5 290.76 1308.73 Z" id="TH-93" data-name="Phatthalung"/>
<path d="M 287.26 1247.54 281.18 1248.78 269.21 1253.8 266.75 1260.88 258.55 1258.67 255.86 1256.02 255.08 1253.36 250.34 1250.95 235.99 1252.99 234.62 1254.6 229.6 1256.09 228.38 1252.01 229.95 1243.76 227.63 1242.39 216.33 1243.61 215.15 1245.95 210.81 1250.45 209.83 1253.36 206.04 1254 203.19 1252.47 196.49 1252.28 193.48 1248.5 190.44 1247.12 189.24 1245.73 191.12 1242.08 189.95 1238.85 187.84 1236.96 185.49 1231.56 186.02 1226.48 188.45 1221.95 188.32 1213.05 183.5 1208.3 181.56 1205.74 181.24 1202.87 185.58 1194.18 185 1189.74 189.53 1190.89 197.19 1186.7 200.97 1183 201.38 1179.21 204.96 1176.47 205.74 1173.19 208.2 1170.41 208.72 1159.44 211.74 1157.85 214.27 1152.85 217.65 1153.22 223.99 1151.14 224.8 1147.48 227.84 1146.71 229.84 1138.99 233.69 1138.21 233.24 1132.89 230.05 1131.81 228.36 1129.12 230.63 1121.89 230.27 1116.44 232.25 1113.58 235.3 1112.57 240.13 1115.3 240.08 1117.32 242.47 1121.97 243.79 1130.57 246.18 1134.12 246.48 1140.33 247.8 1144.03 246.48 1146.03 248.39 1160.43 250.32 1179.44 252.72 1185.12 258.18 1188.42 264.31 1200.89 269.44 1204 272.21 1202.88 271.32 1200.05 271.68 1192.74 275.5 1197.86 280.42 1210.69 283.45 1230.03 287.26 1247.54 Z" id="TH-80" data-name="Nakhon Si Thammarat"/>
<path d="M 133.73 1085.34 136.29 1081.26 136.88 1077.87 139.3 1077.25 148.4 1072.77 154.17 1073.4 161.26 1072.3 163.08 1070.01 167.29 1067.41 171.82 1066.75 175.34 1081.23 178.3 1085.68 179.36 1091.07 183.43 1098.56 189.04 1105.84 182.4 1109.23 180.05 1112.85 180.42 1116.91 182.44 1121.38 191.66 1122.68 194.31 1125.24 203.62 1124.45 206.22 1122.57 208.12 1117.72 210.7 1116.43 215.07 1117.24 222.67 1114.57 224.31 1113.23 232.25 1113.58 230.27 1116.44 230.63 1121.89 228.36 1129.12 230.05 1131.81 233.24 1132.89 233.69 1138.21 229.84 1138.99 227.84 1146.71 224.8 1147.48 223.99 1151.14 217.65 1153.22 214.27 1152.85 211.74 1157.85 208.72 1159.44 208.2 1170.41 205.74 1173.19 204.96 1176.47 201.38 1179.21 200.97 1183 197.19 1186.7 189.53 1190.89 185 1189.74 185.58 1194.18 181.24 1202.87 181.56 1205.74 183.5 1208.3 177.32 1210.23 174.77 1210.12 169.93 1208.11 163.7 1207.31 160.66 1210.08 157.65 1210.9 152.33 1210.06 149.81 1211.03 148.02 1206.74 147.47 1199.8 148.98 1196.82 146.82 1192.11 148.08 1189.34 150.76 1187.1 149.96 1184.65 143.14 1179.03 138.09 1178.43 135.71 1175.95 133.45 1176.91 131.96 1180.32 130.21 1180.66 125.27 1178.82 122.68 1180.04 117.5 1180.46 114.45 1178.09 119.66 1171.48 119.96 1165.86 116.65 1163.58 113.4 1158.91 109.8 1156.06 105.67 1155.1 105.21 1149.56 105.94 1148.05 110.28 1146.16 107.97 1138.62 109.32 1135.96 108.61 1132.38 109.85 1129.54 110.92 1123.1 112.79 1120.92 112.79 1116.29 110.71 1114.15 113.05 1110.58 117.94 1108.64 119.77 1110.24 125.42 1109.62 124.65 1103.34 126.98 1102.72 127.14 1098.74 129.07 1098.14 136.19 1090.67 133.73 1085.34 Z M 261.01 1086.79 261.97 1090.35 260.12 1098.77 256.75 1102.16 250.04 1102.9 248.54 1101.35 247.14 1095.83 248.58 1094.07 247.14 1088.78 248.11 1087.64 252.78 1087.51 258.46 1088.96 261.01 1086.79 Z M 257.66 1066.32 260.73 1068.28 261.89 1071.53 262.94 1079.07 254.17 1074.66 251.41 1069.36 253.06 1065.71 257.66 1066.32 Z" fill-rule="evenodd" id="TH-84" data-name="Surat Thani"/>
<path d="M 250.48 722.22 244.94 723.96 243.41 727.39 240.6 724.42 240.63 718.57 244.01 708.95 244.02 705.54 246.39 700.6 252.14 702.36 257.9 701.11 261.67 706.04 262.83 708.9 257.99 711.2 254.85 718.13 250.66 720.4 250.48 722.22 Z" id="TH-75" data-name="Samut Songkhram"/>
<path d="M 257.9 701.11 259.49 690.77 261.51 688.7 261.83 683.34 272.59 684.16 274.84 685.93 279.25 685.56 280.71 681.2 286.23 678.73 287.6 685.99 291.8 690.47 293.93 700.36 292.88 702.49 286.75 703.35 282.19 701.06 277.11 703.8 268.75 707.11 262.83 708.9 261.67 706.04 257.9 701.11 Z" id="TH-74" data-name="Samut Sakhon"/>
<path d="M 292.88 702.49 293.93 700.36 291.8 690.47 287.6 685.99 286.23 678.73 286.61 671.92 301.33 671.98 304.55 667 307.42 657.1 319.67 660.07 334.91 658.22 341.47 656.91 340.71 667.14 343.35 670.05 336.06 681.31 336.71 682.51 330.26 680.89 323 680.57 320.54 685.38 318.26 686.38 312.64 686.07 310.67 685.02 311.69 682 308.37 681.36 307.15 683.54 302.29 685.46 301.85 691.65 298.89 693.27 299.27 701.99 292.88 702.49 Z" id="TH-10" data-name="Bangkok Metropolis"/>
<path d="M 299.27 701.99 298.89 693.27 301.85 691.65 302.29 685.46 307.15 683.54 308.37 681.36 311.69 682 310.67 685.02 312.64 686.07 318.26 686.38 320.54 685.38 323 680.57 330.26 680.89 336.71 682.51 344.9 685.92 345.47 688.7 341.46 692.45 341 695.47 338.68 696.42 337.2 701.55 335.32 703.72 326.53 701.57 319.79 700.64 316.88 699.55 311.09 695.41 309.76 699.61 299.27 701.99 Z" id="TH-11" data-name="Samut Prakan"/>
<path d="M 435.12 679.42 436.07 684.39 439.49 688.93 438.83 692.02 440.52 693.4 445.13 692.75 446.69 698.73 445.75 702.25 441.83 703.37 442.52 708.03 444.84 710.82 446.61 717.8 442.73 721.54 438.15 724.16 435.75 729.5 433.26 727.56 424.87 733.12 419.83 734.09 419.58 732.22 416.21 726.32 412.47 722.39 405.08 718.17 400.86 711.36 397.84 709.82 395.12 710.66 391.5 708.43 389.55 705.67 385.83 705.72 381.19 701.71 377.32 696.48 369.85 694.68 365.43 692.7 362.22 695.14 355.48 697.44 355.73 700.59 352.4 704.07 348.79 705.23 339.94 704.71 335.32 703.72 337.2 701.55 338.68 696.42 341 695.47 341.46 692.45 345.47 688.7 344.9 685.92 336.71 682.51 336.06 681.31 343.35 670.05 340.71 667.14 341.47 656.91 341.52 656.36 345.31 655.06 356.99 654.47 364.23 655.06 365.75 659.65 364.43 664.1 366.25 666.76 370.98 664.35 384.78 665.84 403.58 674.72 405.72 676.07 408.54 673.73 415.67 676.48 417.84 675.6 418.74 672.57 423.51 671.65 426.8 674.8 428 678.05 430.49 680.05 435.12 679.42 Z" id="TH-24" data-name="Chachoengsao"/>
<path d="M 419.83 734.09 417.42 737.83 412.08 736.15 406.55 738.99 406.05 742.09 402.39 744.7 398.68 744.41 395.85 747.69 392.68 747.18 387.73 748.92 383.6 744.9 380.31 744.16 377.75 746.32 368.75 743.52 366.55 744.59 367.61 747.62 366.08 749.34 358.94 748.86 357.18 751.04 359.59 754.44 359.95 759.11 356.85 763.25 355.31 767.83 351.48 770.76 348.1 783.72 348.53 786.73 348.19 790.83 343.53 788.75 344.94 787.04 342.71 784.46 338.18 785.23 334.98 779.98 337.92 773.72 340.25 774.58 342.52 771.5 342.79 768.27 337.99 760.36 337.94 758.11 340.25 756.23 340.97 752.84 344.25 750.81 344.2 748.47 341.16 743.11 338.91 741.35 345.36 731.2 344.25 725.74 342.21 721.99 344.13 717.6 348.85 715.53 348.79 705.23 352.4 704.07 355.73 700.59 355.48 697.44 362.22 695.14 365.43 692.7 369.85 694.68 377.32 696.48 381.19 701.71 385.83 705.72 389.55 705.67 391.5 708.43 395.12 710.66 397.84 709.82 400.86 711.36 405.08 718.17 412.47 722.39 416.21 726.32 419.58 732.22 419.83 734.09 Z" id="TH-20" data-name="Chon Buri"/>
<path d="M 417.42 737.83 416.88 739.79 419.41 747.64 423.03 751.06 421.95 754.1 422.99 756.19 425.84 756.09 428.16 760.71 430.06 761.63 430.67 767.14 429.64 774.14 428.03 776.19 426.72 780.97 424.5 780.18 416.81 780.55 414.26 784.7 412.57 785.56 406.66 785.44 405.7 787.46 399.72 786.79 393.34 788.19 391.99 790.95 381.83 786.47 374.64 784.7 359.11 782.67 348.53 786.73 348.1 783.72 351.48 770.76 355.31 767.83 356.85 763.25 359.95 759.11 359.59 754.44 357.18 751.04 358.94 748.86 366.08 749.34 367.61 747.62 366.55 744.59 368.75 743.52 377.75 746.32 380.31 744.16 383.6 744.9 387.73 748.92 392.68 747.18 395.85 747.69 398.68 744.41 402.39 744.7 406.05 742.09 406.55 738.99 412.08 736.15 417.42 737.83 Z" id="TH-21" data-name="Rayong"/>
<path d="M 101.81 1250.95 103.08 1253.75 99.98 1254.76 99.83 1259.58 94.61 1257.84 93.51 1262.41 91.25 1264.19 89.08 1261.85 88.58 1255.6 87.26 1252.28 88.58 1249.62 87.09 1244.13 88.58 1241.28 87.91 1234.83 89.24 1230.94 88.58 1222.9 93.27 1224.97 94.57 1230.94 96.17 1230 103.72 1235.17 101.81 1238.92 101.81 1242.24 99.77 1245.96 101.81 1250.95 Z" id="TH-83" data-name="Phuket"/>
<path d="M 538.29 473.4 534.14 475.02 533.01 477.28 532.74 483.9 530.78 488.69 525.87 490.22 523.13 488.39 520.41 486.25 517.36 485.62 513.8 480.38 511.23 481.42 506 480.59 504.51 481.84 496.98 480.73 487.59 482.64 483.07 479.17 482.79 476.33 479.02 471.73 479.32 465.91 482.26 461.46 484.31 452.85 480.42 450.29 474.04 447.33 472.78 444.91 478.86 439.23 480.89 435.26 486.2 427.83 490.6 413.79 490.73 411.42 487.35 409.19 486.71 406.78 482.64 408.27 477.86 407.41 472.01 405 467.75 401.83 454.9 401.75 452.83 400.67 449.59 396.55 445.13 393.38 442.8 388.67 438.44 388.49 432.8 386.17 426.25 387.59 423.09 384.91 426.5 379.4 426.86 375.23 434.59 372.22 440.68 368.17 445.64 367.48 451.47 365.18 453.92 363.25 460.86 364.26 466.85 365.86 470.76 362.9 473.61 362.87 477.8 366.43 479.5 369.85 488.57 372.96 492.9 372.03 497.31 372.84 500.56 375.59 506.02 374.87 507.57 368.73 512.2 357.38 513.87 347.87 517.22 347.13 522.95 350.32 527.41 354.51 526.34 355.64 527.37 364.21 533.81 364.36 537.17 367.47 539.15 367.72 554.35 360.49 558.66 365.66 560.84 365.96 562.19 369.63 561.66 373.26 559.72 376.44 559.12 387.62 559.15 390.35 556.2 393.32 552.25 400.73 547.34 402.82 544.55 405.57 538.51 407.22 539.24 410.61 533.71 420.74 529.45 424.35 529.08 430.71 530.43 435.47 530.4 446.57 533.29 448.99 535.1 453.79 534.44 458.63 537.41 465.82 538.29 473.4 Z" id="TH-40" data-name="Khon Kaen"/>
<path d="M 585.45 251.61 589.2 249.49 589.46 246.23 592.63 244.09 595.65 244.34 600.23 246.53 603.16 250.84 603.5 253.46 607.02 254.64 613.42 258.97 615.58 257.26 618.2 258.95 616.78 263.52 620.35 264.35 625.45 263.27 629.94 266.31 633.62 271.96 636.83 274.07 640.84 270.74 642.05 275.29 646.15 278.25 647.18 283.52 645.81 286.17 642.84 288.03 644.54 291.94 642.99 299.27 640.81 304.36 645.52 312.74 652.16 313.07 655.4 310.19 661.98 310.75 671.01 309.06 679.71 309.21 679.96 315.61 681.04 317.81 681.51 323.62 682.67 326.55 678.86 333.86 678.1 339.52 674.72 343.34 674.92 346.13 677.86 347.92 676.76 350.65 671.07 354.04 669.08 358.27 662.89 362.16 658.8 363.11 653.52 362.36 649.6 368.07 646.87 368.57 642.59 366.38 635.81 370.36 633.83 373.86 630.58 370.67 624.94 367.44 623.78 364.95 620.36 362.85 618.91 360.56 619.24 356.56 610.89 349.8 607.51 349.77 606.12 347.28 606.22 340.93 604.01 340.02 600.39 335.45 596.9 334.97 594.38 332.61 589.24 329.81 581.64 329.61 576.09 326.42 569.46 324.77 567.27 319.9 571.61 312.93 569.5 307.85 570.49 303.59 576.4 292.86 581.62 291.46 581.77 276.03 579.44 271.64 579.99 267.52 581.96 264.13 582.64 261.31 581.92 256.29 580.25 253.71 581.98 252.03 585.45 251.61 Z" id="TH-47" data-name="Sakon Nakhon"/>
<path d="M 236.08 645.78 235.3 643.64 232.32 641.68 231.76 634.94 235.96 630.99 237.26 625.95 236.75 618.41 237.39 600.35 242.75 597.42 243.47 595.47 240.15 592.85 241.45 588.39 239.78 586.86 233.75 584.66 228.8 579.59 223.23 572.86 218.47 572.07 216.38 573.61 210.33 572.68 208.85 579.47 205.92 582.52 202.1 583.17 199.82 579.52 200.07 575.73 194.76 575.67 189 568.91 186.57 569.07 185.22 565.43 187.57 562.72 187.26 557.28 184.84 552.35 186.31 547.13 189.66 545.39 192 547.43 197.14 548.92 198.16 552.24 207.67 554.26 210.14 555.88 217.23 557.89 218.37 554.21 221.15 553.04 227.84 556.2 234.7 557.15 241.85 560.13 251.35 561.41 256.87 559.84 259.31 556.05 265.48 557.68 267.78 559.94 274.64 556.81 272.91 560.08 275.73 561.35 275.79 567.53 274.66 569.78 276.65 573.3 274.51 576.92 275.93 586.77 274.07 590.64 275.16 593.07 273.21 595.27 275.18 601 278.74 603.53 279.15 607.74 281.45 611.87 280.71 619.45 278.75 627.06 278.83 629.36 275.55 634.31 268.91 637.99 256.45 637.92 252.92 637.45 247.24 640.98 242.57 645.41 236.08 645.78 Z" id="TH-72" data-name="Suphan Buri"/>
<path d="M 276.65 573.3 274.66 569.78 275.79 567.53 275.73 561.35 272.91 560.08 274.64 556.81 280.01 556.97 283.5 552.88 280.33 549.92 282.89 546.33 280.49 541.1 282.72 539.04 284.07 535.6 287.07 536.33 289.44 542.86 296.94 546.3 298.55 555.37 296.06 559.66 297.35 564.51 300.19 568.72 301.79 577.15 300.24 579.78 295.87 579.27 294.39 577.21 291.76 577.26 287.17 573 282.83 573.61 280.1 572.62 276.65 573.3 Z" id="TH-17" data-name="Sing Buri"/>
<path d="M 274.64 556.81 267.78 559.94 265.48 557.68 259.31 556.05 256.87 559.84 251.35 561.41 241.85 560.13 234.7 557.15 227.84 556.2 228.74 551.01 233.96 547.62 235.66 544.54 228.84 532.3 227.09 525.29 227.67 523.08 231.17 520.64 241 522.21 244.15 523.81 247.85 522.97 259.91 523.63 261.18 520.71 259.97 516.26 257.65 514.16 259.8 510.39 265.59 510.2 270.53 514.99 274.09 516.52 279.56 523.51 284.07 535.6 282.72 539.04 280.49 541.1 282.89 546.33 280.33 549.92 283.5 552.88 280.01 556.97 274.64 556.81 Z" id="TH-18" data-name="Chai Nat"/>
<path d="M 278.74 603.53 275.18 601 273.21 595.27 275.16 593.07 274.07 590.64 275.93 586.77 274.51 576.92 276.65 573.3 280.1 572.62 282.83 573.61 287.17 573 291.76 577.26 294.39 577.21 295.87 579.27 300.24 579.78 303.96 583.66 303.71 588.94 302.46 594.26 302.38 606.62 300.12 608.06 295.14 606.71 294.19 601.28 286.29 603.03 283.24 602.45 278.74 603.53 Z" id="TH-15" data-name="Ang Thong"/>
<path d="M 369.27 576.68 370.63 593.99 368.79 598.42 374.07 604.19 370.42 612.53 370.6 614.4 366.22 617.34 362.73 614 358.49 613.65 355.81 615.17 353.16 620.74 349.51 623.34 345.71 622.55 345.38 627.04 342.21 630.66 340.58 627.45 337.69 626.01 333.56 627.88 333.47 621.41 329.43 618.89 330.6 614.1 328.13 611.59 327.47 607.39 328.22 603.98 327.13 601.18 328.51 596.06 322.37 595.24 314.4 597.55 311.57 596.28 309.62 593.28 311.52 586.65 313.1 583.05 323.65 576.06 330.12 565.15 334.21 564.05 338.35 569.17 338.96 574.47 342.6 577.29 346.26 577.3 349.24 573.96 349.75 570.96 354.43 568.11 358.79 566.97 362.83 568.07 364.69 571.22 368.66 574.13 369.27 576.68 Z" id="TH-19" data-name="Saraburi"/>
<path d="M 504.33 637.14 499.07 639.97 497.39 643.27 495.47 642.15 495.31 638.77 487.94 636.52 485.82 637.44 481.89 636.4 478.08 637.3 476.19 639.17 470.15 638.14 466.46 633.63 463.94 634.39 463.01 638.23 455.37 636.22 452.14 633.47 443.3 626.4 442.01 623.64 445.39 617.91 442.92 614.28 440.79 616.04 437.11 612.84 434.74 615.38 424.41 617.35 422.82 620.4 418.99 616.24 410.4 608.96 403.46 609.44 399.93 608.37 397.18 606.04 392.95 609.56 390.1 609.67 377.93 601.9 374.07 604.19 368.79 598.42 370.63 593.99 369.27 576.68 377.15 579.3 382.85 575.27 384.02 571.83 393.74 566.15 393.98 560.14 387.34 546.23 377.71 543.57 377.51 528.38 379.61 522.16 386.92 526.26 389.84 530.94 391.75 530.81 405.15 527 412.83 521.01 420.56 518.33 426.54 514.85 430.63 513.49 435.95 513.87 437.45 509.3 443.1 505.38 442.34 498.89 443.43 495.87 447.44 493.03 450.93 486.47 455.21 490.38 461.19 484.11 461.19 482.12 464 477.78 470.23 477.05 473.75 473.85 479.02 471.73 482.79 476.33 483.07 479.17 487.59 482.64 496.98 480.73 504.51 481.84 506 480.59 511.23 481.42 513.8 480.38 517.36 485.62 520.41 486.25 523.13 488.39 524.1 497.86 527.75 501.57 533.29 500.99 537.84 502.04 540.38 505.16 543.66 505.38 545.22 507.86 543.04 510.2 541.07 509.45 538.97 513.59 542.59 515.81 540.96 521.74 541.14 530.67 541.8 532.98 537.85 534.82 535.59 534.18 529.91 536.6 522.28 544.84 522.58 547.64 519.72 553.83 515.24 557.03 511.88 558.15 500.55 558.23 499.92 561.97 502.53 568.53 501.79 570.82 495.68 571.47 493.32 568.85 489.72 567.45 491.84 574.93 493.62 577.25 493.55 580.65 496.03 586.46 495.98 589.18 493.88 594.64 495.58 601.14 500.98 606.7 503.01 611.01 502.58 615.11 504.26 617.26 504.73 621.38 506.54 623.51 503.5 632.44 504.33 637.14 Z" id="TH-30" data-name="Nakhon Ratchasima"/>
<path d="M 364.23 655.06 356.99 654.47 345.31 655.06 341.52 656.36 342.41 649.86 342.21 630.66 345.38 627.04 345.71 622.55 349.51 623.34 353.16 620.74 355.81 615.17 358.49 613.65 362.73 614 366.22 617.34 370.6 614.4 370.42 612.53 374.07 604.19 377.93 601.9 390.1 609.67 392.29 613.2 396.96 615.44 400.35 621.46 398.5 625.22 392.19 626.51 388.91 625.3 388.4 629.56 380.85 635.37 379.62 638.65 381.98 645.53 378.72 646.82 376.23 645.97 371.48 647.3 368.15 650.7 363.65 652.8 364.23 655.06 Z" id="TH-26" data-name="Nakhon Nayok"/>
<path d="M 341.47 656.91 334.91 658.22 319.67 660.07 307.42 657.1 303.09 657.25 288.95 651.6 287.04 647.57 286.86 643.74 288.02 640.62 301.6 640.9 304.65 639.72 307.67 640.69 313.91 639.1 317.53 635.5 333.56 627.88 337.69 626.01 340.58 627.45 342.21 630.66 342.41 649.86 341.52 656.36 341.47 656.91 Z" id="TH-13" data-name="Pathum Thani"/>
<path d="M 155.96 530.29 159.36 525.72 161.75 515.82 163.35 512.63 163.14 506.76 164.21 503.94 161.99 500.74 162.23 496.92 164.47 495.47 167.76 489.75 168.18 485.24 169.79 480.53 169.56 475.34 173.46 475.01 177.25 476.83 181.17 480.71 192.25 486.41 194.9 490.4 199.04 492.45 203 495.87 207.11 496.32 211.01 494.29 213.86 490.74 218.53 488.6 221.7 485.83 227.94 484.37 232.57 488.48 236.87 489.96 240.02 488.74 241.79 495.81 245.92 500.72 251.62 501.73 258.73 507.75 259.8 510.39 257.65 514.16 259.97 516.26 261.18 520.71 259.91 523.63 247.85 522.97 244.15 523.81 241 522.21 231.17 520.64 227.67 523.08 227.09 525.29 228.84 532.3 235.66 544.54 233.96 547.62 228.74 551.01 227.84 556.2 221.15 553.04 218.37 554.21 217.23 557.89 210.14 555.88 207.67 554.26 198.16 552.24 197.14 548.92 192 547.43 189.66 545.39 186.31 547.13 184.84 552.35 181.83 553.08 170.82 550.09 164.5 550.94 163.29 549 157.95 544.62 155.96 530.29 Z" id="TH-61" data-name="Uthai Thani"/>
<path d="M 646.87 368.57 652.19 375.76 657.62 385.27 657.74 390.79 662.75 399.23 663.4 408.8 656.52 407.51 645.97 412.44 644.28 411.71 643.67 407.98 633.45 407.89 627.82 405.38 621.11 406.35 611.67 413.62 613.62 419.47 615.66 421.24 615.44 425.47 613.49 430.04 604.61 432.63 603 430.51 600.15 432.11 597.25 429.89 594.11 431.22 586.66 431.26 584.09 427.77 583.64 424.11 579.19 421.23 576.12 415.74 570.09 414.29 564.44 415.81 561.02 414.81 560.63 412.26 562.5 408.54 560.48 402.11 562.08 397.8 560.96 392.22 561.92 388.11 559.12 387.62 559.72 376.44 561.66 373.26 562.19 369.63 560.84 365.96 558.66 365.66 554.35 360.49 557.16 355.95 560.57 356.5 566.32 355.52 573.23 358.44 581.98 361.48 586.87 365.59 589.74 361.76 590.19 355.85 592.45 352.43 592.3 347.21 594.63 344.26 599.67 341.59 603.13 342.97 606.12 347.28 607.51 349.77 610.89 349.8 619.24 356.56 618.91 360.56 620.36 362.85 623.78 364.95 624.94 367.44 630.58 370.67 633.83 373.86 635.81 370.36 642.59 366.38 646.87 368.57 Z" id="TH-46" data-name="Kalasin"/>
<path d="M 638.5 511.34 637.58 509.45 630.28 507.47 629.68 505.42 624.99 506.05 619.23 508.51 605.16 507.44 600.44 505.84 594.11 508.84 586.94 507.79 583.69 509.57 585.97 501.28 585.29 499.63 580.2 499.76 575.09 496.59 572.25 491.55 576.15 483.94 579.81 481.27 584.21 481.72 585.77 480.17 588.62 465.74 591 460.72 589.95 454.35 589.83 448.08 588.53 444.42 589.35 439.18 594.11 431.22 597.25 429.89 600.15 432.11 603 430.51 604.61 432.63 613.49 430.04 615.44 425.47 615.66 421.24 613.62 419.47 611.67 413.62 621.11 406.35 627.82 405.38 633.45 407.89 643.67 407.98 644.28 411.71 645.97 412.44 656.52 407.51 663.4 408.8 669.96 406.74 671.91 419.13 674.15 419.8 671.45 426.09 667.56 427.14 664.77 430.46 662.27 435.45 657.13 438 654.39 440.79 650.36 442.64 649.54 444.74 651.18 448.95 650.25 454.01 644.49 453.86 641.69 454.64 641.13 462.42 643.5 465.57 641.59 466.78 640.81 472.48 646.94 470.27 650.61 469.98 652.55 473.54 653.78 481.5 655.88 483.62 660.21 491.7 653.5 494.58 652.33 495.9 647.97 498.73 644.48 503.82 642.5 505.35 638.5 511.34 Z" id="TH-45" data-name="Roi Et"/>
<path d="M 583.69 509.57 576.53 512.19 565.75 507.38 554.61 504.13 551.81 502.12 551.73 497.14 548.74 494.81 548.18 492.4 541.21 485.19 544.58 482.13 544.28 479.75 538.29 473.4 537.41 465.82 534.44 458.63 535.1 453.79 533.29 448.99 530.4 446.57 530.43 435.47 529.08 430.71 529.45 424.35 533.71 420.74 539.24 410.61 538.51 407.22 544.55 405.57 547.34 402.82 552.25 400.73 556.2 393.32 559.15 390.35 559.12 387.62 561.92 388.11 560.96 392.22 562.08 397.8 560.48 402.11 562.5 408.54 560.63 412.26 561.02 414.81 564.44 415.81 570.09 414.29 576.12 415.74 579.19 421.23 583.64 424.11 584.09 427.77 586.66 431.26 594.11 431.22 589.35 439.18 588.53 444.42 589.83 448.08 589.95 454.35 591 460.72 588.62 465.74 585.77 480.17 584.21 481.72 579.81 481.27 576.15 483.94 572.25 491.55 575.09 496.59 580.2 499.76 585.29 499.63 585.97 501.28 583.69 509.57 Z" id="TH-44" data-name="Maha Sarakham"/>
<path d="M 453.92 363.25 450.44 357.19 451.44 355.5 455.63 353.77 461.18 350.15 457.57 345.45 455.57 341.12 444.93 336.91 441.88 331.7 445.17 326.68 445.27 324 449.18 319.54 449.19 315.05 446.05 310.88 446.41 306.3 454.34 306.07 458.53 303.54 460.68 300.33 458.74 292.8 461.19 289.73 464.94 290.18 468.73 287.14 483.37 290.31 483.22 294.93 484.85 301.66 488.42 308.86 489.36 312.76 488.94 318.87 493.1 320.55 494.05 323.04 492.89 327.61 496.49 331.12 504.3 329.1 502.88 333.24 497.88 335.22 496.51 338.28 500.65 346.07 512.2 357.38 507.57 368.73 506.02 374.87 500.56 375.59 497.31 372.84 492.9 372.03 488.57 372.96 479.5 369.85 477.8 366.43 473.61 362.87 470.76 362.9 466.85 365.86 460.86 364.26 453.92 363.25 Z" id="TH-39" data-name="Nong Bua Lam Phu"/>
<path d="M 300.24 579.78 301.79 577.15 300.19 568.72 297.35 564.51 296.06 559.66 298.55 555.37 296.94 546.3 300.13 541.93 302.13 534.87 304.9 533.15 305.76 529.47 308.1 526.16 324.44 510.63 326.5 505.95 325.55 502.6 339.49 505.73 348.08 504.09 355.09 509.48 358.7 509.65 361.97 512.28 365.45 513.09 369.57 511.85 372.98 512.5 376 519.17 379.61 522.16 377.51 528.38 377.71 543.57 387.34 546.23 393.98 560.14 393.74 566.15 384.02 571.83 382.85 575.27 377.15 579.3 369.27 576.68 368.66 574.13 364.69 571.22 362.83 568.07 358.79 566.97 354.43 568.11 349.75 570.96 349.24 573.96 346.26 577.3 342.6 577.29 338.96 574.47 338.35 569.17 334.21 564.05 330.12 565.15 323.65 576.06 313.1 583.05 311.52 586.65 303.96 583.66 300.24 579.78 Z" id="TH-16" data-name="Lop Buri"/>
<path d="M 458.74 292.8 455.82 288.83 454.2 283.28 450.51 283.78 449.47 277.61 451.47 272 451.75 264.35 450.68 261.76 449.41 252.48 450.56 251.84 452.68 241.63 455.6 244.6 458.06 244.62 462.8 251.12 466.79 248.71 475.02 253.17 478.59 255.71 485.56 262.67 486.38 266.38 489.89 269.74 489.41 271.79 492.66 275.49 499.07 275.87 505.83 282.07 505.98 289.23 510.54 291.38 517.99 291.08 521.83 288.65 523.97 283.97 527.75 281.99 530.18 278.31 530.47 273.97 529.01 269.86 532.38 264.88 532.36 262.22 538.6 263.06 542.27 268.54 546.15 264.16 549.1 262.11 559.36 270.61 564.43 264.55 569.01 262.88 572 266.87 574.25 267.39 577.46 265.36 581.96 264.13 579.99 267.52 579.44 271.64 581.77 276.03 581.62 291.46 576.4 292.86 570.49 303.59 569.5 307.85 571.61 312.93 567.27 319.9 569.46 324.77 576.09 326.42 581.64 329.61 589.24 329.81 594.38 332.61 596.9 334.97 600.39 335.45 604.01 340.02 606.22 340.93 606.12 347.28 603.13 342.97 599.67 341.59 594.63 344.26 592.3 347.21 592.45 352.43 590.19 355.85 589.74 361.76 586.87 365.59 581.98 361.48 573.23 358.44 566.32 355.52 560.57 356.5 557.16 355.95 554.35 360.49 539.15 367.72 537.17 367.47 533.81 364.36 527.37 364.21 526.34 355.64 527.41 354.51 522.95 350.32 517.22 347.13 513.87 347.87 512.2 357.38 500.65 346.07 496.51 338.28 497.88 335.22 502.88 333.24 504.3 329.1 496.49 331.12 492.89 327.61 494.05 323.04 493.1 320.55 488.94 318.87 489.36 312.76 488.42 308.86 484.85 301.66 483.22 294.93 483.37 290.31 468.73 287.14 464.94 290.18 461.19 289.73 458.74 292.8 Z" id="TH-41" data-name="Udon Thani"/>
<path d="M 275.55 634.31 278.83 629.36 278.75 627.06 280.71 619.45 281.45 611.87 279.15 607.74 278.74 603.53 283.24 602.45 286.29 603.03 294.19 601.28 295.14 606.71 300.12 608.06 302.38 606.62 302.46 594.26 303.71 588.94 303.96 583.66 311.52 586.65 309.62 593.28 311.57 596.28 314.4 597.55 322.37 595.24 328.51 596.06 327.13 601.18 328.22 603.98 327.47 607.39 328.13 611.59 330.6 614.1 329.43 618.89 333.47 621.41 333.56 627.88 317.53 635.5 313.91 639.1 307.67 640.69 304.65 639.72 301.6 640.9 288.02 640.62 283.05 638.56 281.55 640.37 280.94 635.3 275.55 634.31 Z" id="TH-14" data-name="Phra Nakhon Si Ayutthaya"/>
<path d="M 307.42 657.1 304.55 667 301.33 671.98 286.61 671.92 282.32 662.68 281.84 658.98 282.68 654.99 279.67 649.01 281.55 640.37 283.05 638.56 288.02 640.62 286.86 643.74 287.04 647.57 288.95 651.6 303.09 657.25 307.42 657.1 Z" id="TH-12" data-name="Nonthaburi"/>
<path d="M 242.69 657.44 239.67 652.62 237.54 651.67 235.72 648.42 236.08 645.78 242.57 645.41 247.24 640.98 252.92 637.45 256.45 637.92 268.91 637.99 275.55 634.31 280.94 635.3 281.55 640.37 279.67 649.01 282.68 654.99 281.84 658.98 282.32 662.68 286.61 671.92 286.23 678.73 280.71 681.2 279.25 685.56 274.84 685.93 272.59 684.16 261.83 683.34 258.61 682.25 257.11 677.94 253.61 679.88 251.03 679.96 249.25 677.21 250.53 667.4 248.67 659.31 242.69 657.44 Z" id="TH-73" data-name="Nakhon Pathom"/>
<path d="M 165.45 465.41 165.45 459.3 164.04 456.88 164.49 452.59 160.37 449.25 158.84 440.02 160.21 435.16 160.02 432.09 158.01 429 157.59 423.95 159.13 415.07 156.68 405.98 158.45 404.06 168.84 404.5 173.66 401.56 174.87 399.51 180.93 397.9 182.51 394.44 181.9 386.63 186.46 379.55 186.91 372.95 189.33 370.48 191.21 363 195.17 365.2 200.22 363.83 205.52 363.41 208.85 364.29 211.43 370.36 224.67 378.7 229.51 378.35 240.76 378.68 245.04 383.12 243.93 388.78 246.28 393.37 254.24 396.45 256.53 399.25 257.35 402.43 252.09 415.9 253.73 418.34 248.79 424.42 248.85 428.6 247.78 432.5 244.29 440.32 243.62 445 237.69 450.05 231.74 459.63 228.21 469.48 221.93 473.85 219.28 470.55 217.02 464.19 209.8 460.62 204.17 460.73 201.9 462.77 198.22 461.42 192.36 460.78 187.4 461.45 185 463.42 178.98 459.16 173.49 459.51 168.26 462.43 165.45 465.41 Z" id="TH-62" data-name="Kamphaeng Phet"/>
<path d="M 196.4 149.08 200.48 147.89 204.89 142.63 209.3 141.49 211.98 136.21 210.22 132.51 211.77 123.14 213.73 119 214.02 110.73 212.81 107.8 214.7 100.73 216.69 97.93 219.72 97.72 220.96 100.98 224.11 105.03 225.04 112.39 226.34 116.45 225.56 118.95 226.24 125.54 228.8 132.5 231.22 136.37 234.03 142.86 237.16 143.73 239.12 148.84 247.58 150.4 250.82 155.08 258.68 160.01 261.32 163.57 261.36 166.72 265.91 168.1 266.87 170.16 264.68 176.42 265.66 182.56 264.87 186.65 266.25 189.31 265.32 193.13 260.58 194.36 259.79 199.38 254.6 209.5 251.07 211.82 245.92 220.8 241.48 222.7 236.27 228.31 231.08 236.49 230.96 238.92 227.63 243.41 220.25 248.22 216.87 246.9 212.1 253.06 207.54 256.51 197.01 268.58 193.97 272.99 188.24 273.95 188.26 277.72 191.65 282.62 194.54 283.3 198.13 280.88 200.36 280.85 203.49 278.06 203.75 283.66 199.19 290.99 198.26 294.64 199.97 298.92 198.49 299.96 197.8 304.97 200.27 308.26 199.51 312.11 203.87 315.62 203.87 319.18 201.71 322.39 201.86 326.07 200.25 328.81 195.54 331.09 191.42 326.1 188.45 325.4 184.92 319.63 183.87 312.11 178.91 311.75 174.5 317.92 170.38 315.79 162.23 313.2 159.06 309.06 161.03 300.92 159.01 290.03 163.03 289.04 163.77 283.15 166.24 277.64 169.61 273.66 169.11 269.52 173.39 269.67 174.84 264.59 170.91 260.08 169.1 259.56 166.75 254.86 166.88 251.14 163.94 244.87 163.38 236.87 159.33 226.01 162.93 223.45 167.95 222.84 169.86 219.34 171.97 218.16 173.61 213.43 180.64 202.27 187.84 199.77 188.2 196.8 191.98 189.03 189.02 187.13 190.59 184.01 189.78 181.7 193.06 172.87 191.34 164.07 189.39 162.33 193.39 159.38 194.39 153.93 193.66 151.43 196.4 149.08 Z" id="TH-52" data-name="Lampang"/>
<path d="M 191.21 363 187.81 359.92 185.01 358.99 183.9 355.45 185.15 350.32 184.82 345.72 188.6 340.75 188.12 336.4 188.45 325.4 191.42 326.1 195.54 331.09 200.25 328.81 201.86 326.07 201.71 322.39 203.87 319.18 203.87 315.62 199.51 312.11 200.27 308.26 197.8 304.97 198.49 299.96 199.97 298.92 198.26 294.64 199.19 290.99 203.75 283.66 203.49 278.06 207.47 272.85 210.86 270.17 215.73 269.15 221.69 271.15 226.33 276.19 229.48 278.43 233.51 272.46 236.87 271.01 244.28 270.49 246.34 272.29 246.8 275.66 251.28 280.5 252.1 285.04 251.29 289.37 247.46 293.21 249.39 296.96 256.16 303.87 257.55 308.01 254.28 310.29 255.74 313.41 255.6 319.83 251.47 325.97 252.71 330.53 252.59 334.99 246.52 335.13 247.25 339.36 255.3 347.45 266.31 354.56 266.73 360.54 265.69 362.19 257.44 362.69 256.33 366.12 249.98 365.3 246.45 373.71 243.48 377.99 247.73 379.53 247.84 381.77 245.04 383.12 240.76 378.68 229.51 378.35 224.67 378.7 211.43 370.36 208.85 364.29 205.52 363.41 200.22 363.83 195.17 365.2 191.21 363 Z" id="TH-64" data-name="Sukhothai"/>
<path d="M 169.56 475.34 169.38 472.17 166.09 469.2 165.45 465.41 168.26 462.43 173.49 459.51 178.98 459.16 185 463.42 187.4 461.45 192.36 460.78 198.22 461.42 201.9 462.77 204.17 460.73 209.8 460.62 217.02 464.19 219.28 470.55 221.93 473.85 228.21 469.48 231.74 459.63 237.69 450.05 243.62 445 244.29 440.32 247.78 432.5 248.85 428.6 248.79 424.42 253.73 418.34 256.57 421.82 257.22 429.14 259.05 435.09 263.05 438.08 262.94 440.21 265.38 444.16 267.61 450.88 270.76 456.84 275.49 459.81 280.1 461.35 282.96 460.97 283.24 458.28 290.11 458.55 293.88 459.87 303.05 459.72 312.35 457.08 327.04 459.22 327.28 462.21 331.23 466.02 330.96 471.95 332.14 478.04 334.31 484.3 333.28 486.09 334.51 489.8 331.93 492.75 330.98 496.8 325.55 502.6 326.5 505.95 324.44 510.63 308.1 526.16 305.76 529.47 304.9 533.15 302.13 534.87 300.13 541.93 296.94 546.3 289.44 542.86 287.07 536.33 284.07 535.6 279.56 523.51 274.09 516.52 270.53 514.99 265.59 510.2 259.8 510.39 258.73 507.75 251.62 501.73 245.92 500.72 241.79 495.81 240.02 488.74 236.87 489.96 232.57 488.48 227.94 484.37 221.7 485.83 218.53 488.6 213.86 490.74 211.01 494.29 207.11 496.32 203 495.87 199.04 492.45 194.9 490.4 192.25 486.41 181.17 480.71 177.25 476.83 173.46 475.01 169.56 475.34 Z" id="TH-60" data-name="Nakhon Sawan"/>
<path d="M 318.66 417.43 321.05 414.25 322.32 410.6 330.54 406.73 335.02 398.74 334.98 392.46 336.45 388.25 338.49 385.76 341.75 384.98 343.54 382.82 340.58 375.31 341.23 372.06 343.89 371.53 351.17 364.93 354.01 361.27 356.97 361.16 360.16 360.89 362.21 359.03 363.54 347.96 367.02 347.12 370.86 340 379.94 343.69 389.01 344.01 392.2 344.94 395.82 344.34 401.12 347.42 402.85 351.57 405.32 352.4 409.15 350.79 411.86 347 416.46 355.72 418.96 358.54 419.93 362.91 419.93 374.52 422.72 375.94 426.86 375.23 426.5 379.4 423.09 384.91 420.55 386.41 417.38 383.56 411.69 383.59 408.39 381.5 403.61 384.78 399.86 384.41 400.47 387.99 398.83 390.5 399.35 397.92 395.44 400.57 395.72 403.89 393.05 408.18 389.46 411.51 387.16 416.36 385.55 423.98 385.77 427.89 383.91 431.72 383.97 434.52 381.88 444.68 382.37 450.75 383.52 454.12 387.67 456.96 385.22 464.03 382.18 467.08 382.45 476.98 385.1 480.33 388.8 482.46 386.98 488.77 385.87 496.61 386.71 502.31 386.34 511.73 383.64 517.62 379.61 522.16 376 519.17 372.98 512.5 369.57 511.85 365.45 513.09 361.97 512.28 358.7 509.65 355.09 509.48 348.08 504.09 339.49 505.73 325.55 502.6 330.98 496.8 331.93 492.75 334.51 489.8 333.28 486.09 334.31 484.3 332.14 478.04 330.96 471.95 331.23 466.02 327.28 462.21 327.04 459.22 328.51 453.67 321.76 448.98 315.21 447.14 315.3 438.37 316.38 435.26 320.45 430.03 321.55 427.01 318.66 417.43 Z" id="TH-67" data-name="Phetchabun"/>
<path d="M 257.35 402.43 265.71 400.39 269.72 396.06 276.84 392.64 278.82 393.64 281.92 401.02 284.53 399.45 286.77 400.2 294.73 398.24 298.23 399.08 304.17 398.17 307.13 399.37 310.27 406.67 310.34 409.26 318.66 417.43 321.55 427.01 320.45 430.03 316.38 435.26 315.3 438.37 315.21 447.14 321.76 448.98 328.51 453.67 327.04 459.22 312.35 457.08 303.05 459.72 293.88 459.87 290.11 458.55 283.24 458.28 282.96 460.97 280.1 461.35 275.49 459.81 270.76 456.84 267.61 450.88 265.38 444.16 262.94 440.21 263.05 438.08 259.05 435.09 257.22 429.14 256.57 421.82 253.73 418.34 252.09 415.9 257.35 402.43 Z" id="TH-66" data-name="Phichit"/>
<path d="M 423.09 384.91 426.25 387.59 432.8 386.17 438.44 388.49 442.8 388.67 445.13 393.38 449.59 396.55 452.83 400.67 454.9 401.75 467.75 401.83 472.01 405 477.86 407.41 482.64 408.27 486.71 406.78 487.35 409.19 490.73 411.42 490.6 413.79 486.2 427.83 480.89 435.26 478.86 439.23 472.78 444.91 474.04 447.33 480.42 450.29 484.31 452.85 482.26 461.46 479.32 465.91 479.02 471.73 473.75 473.85 470.23 477.05 464 477.78 461.19 482.12 461.19 484.11 455.21 490.38 450.93 486.47 447.44 493.03 443.43 495.87 442.34 498.89 443.1 505.38 437.45 509.3 435.95 513.87 430.63 513.49 426.54 514.85 420.56 518.33 412.83 521.01 405.15 527 391.75 530.81 389.84 530.94 386.92 526.26 379.61 522.16 383.64 517.62 386.34 511.73 386.71 502.31 385.87 496.61 386.98 488.77 388.8 482.46 385.1 480.33 382.45 476.98 382.18 467.08 385.22 464.03 387.67 456.96 383.52 454.12 382.37 450.75 381.88 444.68 383.97 434.52 383.91 431.72 385.77 427.89 385.55 423.98 387.16 416.36 389.46 411.51 393.05 408.18 395.72 403.89 395.44 400.57 399.35 397.92 398.83 390.5 400.47 387.99 399.86 384.41 403.61 384.78 408.39 381.5 411.69 383.59 417.38 383.56 420.55 386.41 423.09 384.91 Z" id="TH-36" data-name="Chaiyaphum"/>
<path d="M 265.91 168.1 270.58 166.25 273.34 167.3 277.55 166.98 288.24 167.77 290.3 174.37 292.26 176.76 290.05 179.64 289.72 183.13 291.98 188.31 291.63 192.86 292.85 194.76 293.64 200.15 301.39 200.54 306.23 203.77 306.49 207.25 304.22 213.82 302.38 215.52 302.76 222.59 299.94 227.59 299.18 231.77 297.39 235.34 293.34 237.29 294.94 248.98 291.45 250.59 289.38 253.35 289 257.6 286.7 261.23 282.06 254.76 277.44 255.57 275.73 258.14 266.73 265.06 261.65 267.02 253.98 267.98 249.52 272.65 244.28 270.49 236.87 271.01 233.51 272.46 229.48 278.43 226.33 276.19 221.69 271.15 215.73 269.15 210.86 270.17 207.47 272.85 203.49 278.06 200.36 280.85 198.13 280.88 194.54 283.3 191.65 282.62 188.26 277.72 188.24 273.95 193.97 272.99 197.01 268.58 207.54 256.51 212.1 253.06 216.87 246.9 220.25 248.22 227.63 243.41 230.96 238.92 231.08 236.49 236.27 228.31 241.48 222.7 245.92 220.8 251.07 211.82 254.6 209.5 259.79 199.38 260.58 194.36 265.32 193.13 266.25 189.31 264.87 186.65 265.66 182.56 264.68 176.42 266.87 170.16 265.91 168.1 Z" id="TH-54" data-name="Phrae"/>
<path d="M 129.93 275.3 133.87 275.26 142.34 279.43 147.99 276.34 149.23 268.98 147.9 266.64 143.38 253.66 140.41 253.86 138.94 250.51 140.32 242.6 140.15 236.05 138.75 233.65 138.19 228.04 136.71 224.94 127.09 220.01 129.59 216.37 128.11 213.4 130.46 206.86 136.17 205.61 141.89 201.36 150.77 196.87 155.74 188.94 158.88 182.77 162 184.09 168.15 181.63 171.65 179.1 174.87 178.85 175.77 181.24 179.3 184.67 179.04 190.5 188.2 196.8 187.84 199.77 180.64 202.27 173.61 213.43 171.97 218.16 169.86 219.34 167.95 222.84 162.93 223.45 159.33 226.01 163.38 236.87 163.94 244.87 166.88 251.14 166.75 254.86 169.1 259.56 170.91 260.08 174.84 264.59 173.39 269.67 169.11 269.52 169.61 273.66 166.24 277.64 163.77 283.15 163.03 289.04 159.01 290.03 154.56 286.9 151.34 286.65 147.56 289.29 147.2 292.9 144.79 297.92 141.24 300.82 135.93 302.84 130.99 302.71 130.19 301.05 130.19 294.79 128.92 290.12 129.42 284.63 132.52 283.66 132.88 279.9 129.93 275.3 Z" id="TH-51" data-name="Lamphun"/>
<path d="M 452.14 633.47 451.39 638.91 447.11 642.9 446.17 645.28 438.61 648.36 438.45 655.39 434.47 658.56 433.86 669.03 438.03 670.92 437.87 676.22 435.12 679.42 430.49 680.05 428 678.05 426.8 674.8 423.51 671.65 418.74 672.57 417.84 675.6 415.67 676.48 408.54 673.73 405.72 676.07 403.58 674.72 384.78 665.84 370.98 664.35 366.25 666.76 364.43 664.1 365.75 659.65 364.23 655.06 363.65 652.8 368.15 650.7 371.48 647.3 376.23 645.97 378.72 646.82 381.98 645.53 379.62 638.65 380.85 635.37 388.4 629.56 388.91 625.3 392.19 626.51 398.5 625.22 400.35 621.46 396.96 615.44 392.29 613.2 390.1 609.67 392.95 609.56 397.18 606.04 399.93 608.37 403.46 609.44 410.4 608.96 418.99 616.24 422.82 620.4 424.41 617.35 434.74 615.38 437.11 612.84 440.79 616.04 442.92 614.28 445.39 617.91 442.01 623.64 443.3 626.4 452.14 633.47 Z" id="TH-25" data-name="Prachin Buri"/>
<path d="M 680.17 523.88 677.62 520.83 672.53 518.66 668.27 518.11 664.34 515.57 656.66 504.61 654.41 502.29 652.33 495.9 653.5 494.58 660.21 491.7 655.88 483.62 653.78 481.5 652.55 473.54 650.61 469.98 646.94 470.27 640.81 472.48 641.59 466.78 643.5 465.57 641.13 462.42 641.69 454.64 644.49 453.86 650.25 454.01 651.18 448.95 649.54 444.74 650.36 442.64 654.39 440.79 657.13 438 662.27 435.45 664.77 430.46 667.56 427.14 671.45 426.09 674.15 419.8 678.79 417.61 688.48 418.32 690.07 420.69 693.76 421.37 696.42 426.93 700.7 430.64 704.34 428.48 708.63 430.88 717.16 432.37 718.2 433.13 717.68 436.15 713.85 437.43 704.93 438.68 699.25 440.16 694.12 444.42 688.2 456.76 684.77 461.02 683.76 468.37 682.46 469.99 680.78 480.2 681.99 482.17 682.5 488.53 685.3 492.41 689.21 494.01 689.95 496.17 687.27 498.88 678.76 499.52 677.93 506.04 676.66 508.96 677.57 512.7 681.8 515.18 682.13 517.37 680.17 523.88 Z" id="TH-35" data-name="Yasothon"/>
</g>
</svg>