<?xml version="1.0"?>
<svg xmlns="http://www.w3.org/2000/svg" version="1.2" baseProfile="tiny" width="800" height="484" viewBox="0 0 800 484" stroke-linecap="round" stroke-linejoin="round">
<g id="MLOC-UA">
<path d="M 427.36 20.41 430.09 20.16 432.58 21.43 433.02 25.05 434.57 25.41 438.55 24.07 442.03 24.72 448.12 21.83 450.09 20.26 451.37 17.48 452.33 11.85 454.04 9.82 452.83 6.92 453.45 4.43 455.25 4.06 459.07 5.48 461.19 4.82 469.91 9.47 475.17 8.72 477.23 10.17 478.83 9.84 483.4 5.74 485.18 5.7 490.76 1 495.09 1.85 497.95 1.83 499.8 2.78 497.98 9.74 496.13 12.52 496.69 16.76 498.62 17.42 501.96 21.35 502.65 24.12 498.59 24.27 497.71 28.31 498.28 31.48 494.11 32.77 492.03 34.43 489.18 34.53 487.44 38.36 486 39.45 484.81 42.51 485.83 46.21 488.85 49.65 488.16 52.81 489.06 53.83 488.75 59.2 490.34 62.29 487.01 65.72 487.83 69.15 486.97 72.51 482.08 72.05 485.32 78.67 485.17 81.23 483.54 82.32 482.9 85.22 480.62 85.95 480.75 88.94 479.61 92.12 484.93 94.13 484.41 95.77 488.09 97.04 489.58 94.73 491.22 95.39 488.93 99.54 490.12 100.84 490 105.52 488.59 107.14 487.57 111.18 487.6 114.46 489.32 116.09 486.55 122.63 486.29 126.69 484.79 131.12 482.47 135.19 477.9 138.7 476.9 140.66 473.75 141.58 469.99 143.67 460.07 142.82 459.18 140.63 456.07 141.25 454.44 140.13 450.56 141.5 447.69 144.69 443.96 144.22 441.28 142.57 441.43 140.03 438.29 138.8 436.6 135.19 439.16 133.49 438.79 130.44 436.11 130.31 433.76 127.33 431.04 125.16 428.71 126.04 428.25 128.27 426.66 130.09 424.42 130.04 420.9 132.48 418.38 133.16 415.68 132.55 414.02 133.78 410.55 132.91 408.06 133.21 405.71 132.35 404.97 129.77 403.02 129.37 401.49 127.69 403.31 124.41 402.61 121.88 398.81 118.37 397.23 115.03 394.85 115.94 390.82 116.52 387.85 115.97 386.68 117.19 384.79 115.85 381.91 115.63 383.8 109.79 381.39 107.76 378.26 106.39 378.6 101.26 376.91 98.78 373.86 97.59 371.94 97.62 371.96 90.57 372.76 86.66 372.1 82.94 373.81 81.69 374.93 77.36 377.52 75.08 376.82 69.67 375.28 68.58 375.7 65.25 375.11 60.41 372.91 59.63 373.3 57.54 372.06 56.04 373.9 54.61 374.51 49.17 376.43 48.95 378.95 42.68 378.57 40.61 382.45 34.86 384.15 34.79 384.81 32.03 387.24 30.7 390.9 26.21 389.93 23.39 391.73 22.27 399.5 22.13 402.6 24.49 404.7 24.45 407 20.63 410.49 19.19 414.55 19.17 422.3 20.68 427.36 20.41 Z" id="UA-74" data-name="Chernihiv"/>
<path d="M 152.15 33.44 152.88 35.05 156.91 35.33 155.8 37.69 155.73 41.68 151.11 47.39 150.25 51.96 150.7 55.2 152.62 55.41 154.61 57.59 152.54 60.92 152.98 66.43 152.45 73.54 156.38 72.78 158.45 73.21 161.41 72.33 164.28 72.48 163.67 75.34 169.04 81.89 172.43 83.57 174.69 85.83 174.94 87.57 173.43 89.95 170.09 90.75 169.83 93.5 173.25 93.62 174.78 94.98 176.27 98.47 176.16 100.49 171.69 101.7 171.1 102.97 172.7 106.14 170.68 108.79 169.9 110.96 166.36 114.15 166.34 120.31 164.95 124.29 163.5 124.5 161.39 122.73 159.65 122.42 157.73 119.57 154.61 119.36 147.41 123.04 144.06 122.71 144.15 126.18 140.98 125.73 141.43 129.68 139.91 131.04 134.48 130.12 133.56 132.09 135.31 133.92 133.98 136.02 132.06 136.23 136.56 142.85 134.81 143.68 130.73 148.05 130.75 145.3 124.91 142.82 124 144.35 121.21 143.88 117.87 144.88 114.87 144.25 114.12 142.37 109.82 139.57 105.98 140.01 105.74 137.99 103.87 136.49 106.37 134.72 107.49 133.01 105.82 130.62 102.88 130.38 100.45 126.76 94.63 128.1 93.3 127.58 90.95 124.02 88.44 124.71 86.97 120.53 87.24 118.93 84.84 117.88 84.8 115.15 82.52 114.51 82.32 111.08 89.45 110.1 89.42 108.01 85.73 105.97 82.74 103.19 81.67 99.95 79.75 98.32 79.41 94.38 77.21 90.23 78.11 89.2 75.51 86.19 72.26 83.54 69.81 78.15 67.51 77.28 67.45 74.83 70.27 70.21 68.1 66.69 68.73 64.83 66.22 62.18 67.11 60.51 65.7 55.94 67.23 54.23 72.57 53.12 78.56 54.88 81.06 57.59 82.83 57.3 89.44 51.32 94.46 47.86 95.71 46.09 96.76 41.42 99.06 37.62 100.95 36.27 111.98 35.4 115.61 36.1 128.04 34.08 132.02 31.98 136.04 31.26 143.5 33.29 152.15 33.44 Z" id="UA-07" data-name="Volyn"/>
<path d="M 239.14 54.65 243.93 56.59 246.42 56.67 247.67 58.55 245.95 64.12 242.4 65.39 242.29 70.97 238.69 67.67 238.16 72.86 239.09 73.88 237.62 76.53 234.97 77.78 236.39 80.76 236.34 82.72 234.06 85.25 232.31 88.79 231.94 91.76 229.5 95.72 226.74 96.66 225.23 99.44 227.08 106.5 226.52 113.16 228.49 117.23 227.24 121.12 224.98 125.54 226.89 128.01 224.97 130.93 222.29 129.96 222.04 128.08 217.47 130.62 215.41 132.46 212.43 131.6 207.92 133.73 207.45 136.48 205.19 136.11 202.9 140.27 200.97 141.83 200.41 143.84 192.76 151.26 189.86 151.23 188.19 152.52 185.62 156.31 182.51 157.92 182.39 155.84 181.12 153.99 182.42 151.26 179.53 151.7 174.8 150.11 173.16 150.92 169.85 150.15 163.74 156.06 158.59 156.48 156.07 158.02 154.99 157.3 152.73 158.71 148.85 157.15 147.47 159.3 148.6 161.17 146.49 163.47 146.27 165.89 144.19 167.52 141.02 165.58 136.88 161.88 136.13 159.6 136.46 155.89 135.35 153.23 137.11 151.15 135.7 148.11 132.53 149.12 130.73 148.05 134.81 143.68 136.56 142.85 132.06 136.23 133.98 136.02 135.31 133.92 133.56 132.09 134.48 130.12 139.91 131.04 141.43 129.68 140.98 125.73 144.15 126.18 144.06 122.71 147.41 123.04 154.61 119.36 157.73 119.57 159.65 122.42 161.39 122.73 163.5 124.5 164.95 124.29 166.34 120.31 166.36 114.15 169.9 110.96 170.68 108.79 172.7 106.14 171.1 102.97 171.69 101.7 176.16 100.49 176.27 98.47 174.78 94.98 173.25 93.62 169.83 93.5 170.09 90.75 173.43 89.95 174.94 87.57 174.69 85.83 172.43 83.57 169.04 81.89 163.67 75.34 164.28 72.48 161.41 72.33 158.45 73.21 156.38 72.78 152.45 73.54 152.98 66.43 152.54 60.92 154.61 57.59 152.62 55.41 150.7 55.2 150.25 51.96 151.11 47.39 155.73 41.68 155.8 37.69 156.91 35.33 152.88 35.05 152.15 33.44 158.18 33.54 161.92 32.79 171.35 34.59 175.77 34.79 179.95 37.94 190.24 38.38 191.92 41.6 201.66 41.91 210.03 45.63 212.95 46.12 217.41 44.54 221.33 44.7 224.33 45.79 224.47 50.34 225.47 52.36 228.74 52.65 227.7 56.63 233.65 56.96 237.59 54.61 239.14 54.65 Z" id="UA-56" data-name="Rivne"/>
<path d="M 245.95 64.12 248.08 66 251.31 62.64 251.57 58.79 252.43 56.15 254.27 55.2 257.89 58.65 259.54 59.3 263.86 59.32 265.78 58.04 268.08 53.94 270.02 52.59 271.58 53.4 271.76 55.36 274.49 58.12 276.08 61.63 280 58.71 282.34 58.29 287.46 59.61 288.65 66.01 290.1 68.11 291.89 67.5 293.78 69.53 294.02 64.58 296.13 61.1 298.96 59.22 302.98 58.92 304.99 57.55 306.92 54.43 310.48 54.51 312.09 56.06 315.02 62.06 314.78 65.77 316.72 68.19 318.14 72.39 320.63 72.15 322.26 73 322.22 76.38 320.46 80.03 316.97 82.09 318.49 89.79 320.35 88.59 323.51 90.96 323.99 92.32 326.37 93.7 325.56 97.1 325.45 100.93 323.7 102.66 327.46 108.71 326.62 113.63 330.24 114.99 331.21 119.07 329.07 121.77 326.21 127.26 327.71 129.1 326.12 132.75 326.68 135.73 324.6 136.85 326.87 139.14 328.75 139.07 330.72 141.35 332.14 146.38 333.23 146.45 335.82 150.62 335.76 156.3 337.01 157.31 337.51 160.05 335.07 161.62 334.92 167.84 337.46 172.05 337.2 173.33 334.7 175.28 332.88 177.82 324.36 182.81 324.87 185.02 323.56 188.18 326.31 188.57 324.79 192.39 323.69 192.37 320.65 194.7 317.13 195.31 316.88 196.81 310.85 197.1 305.08 196.52 304.87 194.29 303.05 189.63 305.18 186.91 302.44 183 302.32 180.04 300.99 177.21 297.71 176.59 296.63 178.28 293.97 179.98 292.18 182.62 288.82 182.1 286 183.09 283.7 181.68 279.8 181.65 278.01 183.75 275.48 184.06 272.57 182.99 271.31 183.54 267.05 183.67 261.85 184.9 258.81 184.43 254.88 184.92 245.71 182.25 243.21 178 242.49 175.45 240.4 174.27 242.14 171.97 240.71 167.91 243.65 168.09 245.84 166.18 245.54 164.21 243.96 162.95 245.07 160.16 244.22 158.91 245.05 156.75 243.28 154.16 238.08 152.97 237.35 151.03 234.54 148.19 230.59 145.32 228.82 142.74 226.59 141.11 227.94 137.03 227.98 134.48 224.97 130.93 226.89 128.01 224.98 125.54 227.24 121.12 228.49 117.23 226.52 113.16 227.08 106.5 225.23 99.44 226.74 96.66 229.5 95.72 231.94 91.76 232.31 88.79 234.06 85.25 236.34 82.72 236.39 80.76 234.97 77.78 237.62 76.53 239.09 73.88 238.16 72.86 238.69 67.67 242.29 70.97 242.4 65.39 245.95 64.12 Z" id="UA-18" data-name="Zhytomyr"/>
<path d="M 373.81 81.69 372.1 82.94 372.76 86.66 371.96 90.57 371.94 97.62 373.86 97.59 376.91 98.78 378.6 101.26 378.26 106.39 381.39 107.76 383.8 109.79 381.91 115.63 384.79 115.85 386.68 117.19 387.85 115.97 390.82 116.52 394.85 115.94 397.23 115.03 398.81 118.37 402.61 121.88 403.31 124.41 401.49 127.69 403.02 129.37 404.97 129.77 405.71 132.35 408.06 133.21 410.55 132.91 414.02 133.78 415.68 132.55 418.38 133.16 420.9 132.48 424.42 130.04 426.66 130.09 428.25 128.27 428.71 126.04 431.04 125.16 433.76 127.33 436.11 130.31 438.79 130.44 439.16 133.49 436.6 135.19 438.29 138.8 441.43 140.03 441.28 142.57 443.96 144.22 442.27 149.61 440.87 151.94 437.99 151.23 436.61 153.51 437.58 156.07 436.02 158.1 434 158.26 431.14 161.88 432.21 166.31 429.2 168.55 429.24 171.17 427.49 174.08 427.29 175.76 424.85 178.97 418.8 177.87 414.6 178.43 412.57 174.89 408.4 175.53 404.99 177.94 402.91 178.47 401.44 180.93 402.33 181.88 402.25 185.37 401 189.58 401.18 191.22 399.2 194.89 400.47 196.88 400.43 198.85 398.13 200.81 396.95 203.33 395.06 204.64 391.15 208.8 389.46 213.17 387.69 212.19 381.58 214.84 379.57 212.65 376.5 212.58 375.29 214.3 373.62 213.55 371.14 214.67 369.53 212.99 368.2 213.32 366.52 220.48 364.73 219.16 356.97 217.5 357.36 214.85 355.74 214.36 353.87 216.43 350.97 217.32 349.86 218.57 345.72 219.96 343.17 224.87 339.43 225.08 337.29 223.42 335.86 221.24 333.68 220.17 331.09 215.88 328.52 215.11 327.12 211.85 327.62 210.11 329.82 208.64 330.21 206.53 328.97 203.06 329.87 200.26 326.96 197.73 327.78 193.63 324.79 192.39 326.31 188.57 323.56 188.18 324.87 185.02 324.36 182.81 332.88 177.82 334.7 175.28 337.2 173.33 337.46 172.05 334.92 167.84 335.07 161.62 337.51 160.05 337.01 157.31 335.76 156.3 335.82 150.62 333.23 146.45 332.14 146.38 330.72 141.35 328.75 139.07 326.87 139.14 324.6 136.85 326.68 135.73 326.12 132.75 327.71 129.1 326.21 127.26 329.07 121.77 331.21 119.07 330.24 114.99 326.62 113.63 327.46 108.71 323.7 102.66 325.45 100.93 325.56 97.1 326.37 93.7 323.99 92.32 323.51 90.96 320.35 88.59 318.49 89.79 316.97 82.09 320.46 80.03 322.22 76.38 322.26 73 320.63 72.15 322.82 70.8 325.63 71.59 327.37 67.87 330.15 67 332.35 64.44 335.98 64.58 337.66 67.72 341.68 68.4 344.23 65.92 345.94 66.42 349.65 64.69 355.84 64.53 358.35 65.8 360.63 68.75 363.83 71.33 363.42 74.67 364.98 77.24 368.21 78.2 369.85 80.31 373.81 81.69 Z M 382.62 148.44 384.32 148.21 384.24 145.43 386.71 143.98 382.92 137.98 382.49 133.36 383.6 130.72 386.55 127.94 386.22 124.12 381.96 122.07 381.07 125.18 378.67 126.64 377.91 128.56 373.69 128.17 372.4 129.76 370.32 127.11 368.41 122.47 364.05 122.43 364.02 124.18 361.22 124.5 360.32 126.78 360.71 129.21 358.89 130.84 358.13 135.32 358.27 137.63 357.49 141.64 359.15 142 359.81 139.73 363.37 140.18 363.97 142.92 367.58 147.42 367.44 150.33 368.99 150.22 369.44 153.08 372.32 155.3 373.24 161.71 374.43 162.15 375.18 167.45 377.96 166.1 377.02 161.79 378.23 157.66 376.21 151.68 377.69 149.37 380.14 150.61 380.99 148.21 382.62 148.44 Z" fill-rule="evenodd" id="UA-32" data-name="Kiev"/>
<path d="M 60.88 305.17 55.33 303.92 49.63 298.18 46.55 297.11 44.64 297.4 42.18 302.97 40.29 304.47 36.7 303.09 35.66 306.16 33.97 306.98 32.34 305.66 33.26 301.58 31.91 298.66 28.13 295.76 25.81 296.72 21.68 296.76 19.72 291.72 16.43 287.37 14.34 287.76 10.93 287.33 8.76 283.97 8.34 280.27 6.49 279.73 7.15 276.65 4.06 275.67 2.13 276.74 1 276.56 1.04 271.75 1.69 269.62 1.17 266.91 1.92 264.46 4.82 262.11 6.43 259.71 8.15 258.98 9.4 256.79 9.76 253.03 11.31 250.47 11.53 246.18 13.35 244.19 15 238.55 18.16 237.1 19.01 231.74 20.83 231.12 23.58 233.71 28.08 233.55 32.98 237.03 33.41 235.73 35.02 237.21 34.6 240.98 39.9 246.41 44.04 245.3 45.48 246.58 47.35 250.75 52.85 253.12 55.58 252.49 56.12 254.32 59.12 255.02 62.98 255.22 66.5 256.56 69.25 259.87 73.94 260.97 73.99 263.29 76.88 266.01 79 266.89 79.97 269.17 79.56 271.23 81.12 272.19 83.72 270.2 85.7 269.87 88.69 268.05 89.72 268.37 89.46 274.58 90.05 278.55 91.52 279.91 95.01 280.01 97.18 277.66 98.96 280.87 100.99 281.47 105.56 285.77 107.62 289.35 106.74 292.12 107.49 294.55 110.52 297.59 111.95 300.31 109.69 303.73 108.88 307.61 102.62 306.6 99.02 308.69 96.84 308.77 93.88 310.27 89.46 309.11 87.85 307.57 82.65 305.96 78.19 307.8 73.92 304.29 70.84 304.45 64.32 303.08 62.16 303.53 60.88 305.17 Z" id="UA-21" data-name="Transcarpathia"/>
<path d="M 199.54 286.28 198.19 286.92 191.87 288.36 185.62 289.4 184.89 295.2 183.49 298.67 181.26 300.99 179.85 303.92 176.73 304.9 173.49 304.93 170.67 305.78 168.56 305.57 164.15 306.6 161.23 307.79 139.51 310.17 137.62 311.5 133.32 318.63 131.46 320.43 128.69 321.64 125.37 322.24 124.77 322.34 125 319.49 127.08 314.8 126.28 309.25 125.04 306.94 125.02 302.57 127.02 298.78 127.44 296.83 130.33 294.94 134.18 291.1 133.96 288.36 136.6 286.42 140.88 280.87 144.29 278.2 147.73 276.88 150.64 276.69 153.83 277.36 154.5 274.71 154.68 268.04 152.93 262.11 153.26 260.93 156.09 258.28 159.58 259.2 160.29 261.16 163.05 258.82 168.28 264.31 170.43 263.76 171.55 261.94 174.95 261.62 174.52 265.41 178.64 263.76 178.81 267.56 180.2 268.42 183.55 267.97 186.65 269.43 189.04 269.06 193.02 267.66 195 269.21 197.26 273.06 199.72 273 199.06 270.72 202.63 270.7 201.89 268.42 199.39 267.52 200.2 266.03 204.14 267.85 204.91 266.35 207.06 265.64 206.86 263.95 208.9 263.4 208.84 266.11 211.37 267.29 214.03 264.76 221.48 266.24 222.96 264.73 227.42 265.5 229.5 262.44 230.7 263.46 232.85 261.53 235.86 263.35 237.39 267.05 238.76 272.05 235.06 275.74 231.61 274.47 230 275.31 227.61 278.33 224.24 279.43 217.62 277.08 217.68 279.7 213.95 280.13 209.5 277.3 206.61 279.14 206.97 283.94 204.77 284.09 203.15 281.88 200.35 283.89 199.54 286.28 Z" id="UA-77" data-name="Chernivtsi"/>
<path d="M 108.88 307.61 109.69 303.73 111.95 300.31 110.52 297.59 107.49 294.55 106.74 292.12 107.62 289.35 105.56 285.77 100.99 281.47 98.96 280.87 97.18 277.66 95.01 280.01 91.52 279.91 90.05 278.55 89.46 274.58 89.72 268.37 88.69 268.05 85.7 269.87 83.72 270.2 81.12 272.19 79.56 271.23 79.97 269.17 79 266.89 76.88 266.01 73.99 263.29 73.94 260.97 69.25 259.87 66.5 256.56 62.98 255.22 64.86 247.82 63.69 244.68 64.91 238.74 67.79 235.9 69.56 231.01 72.8 228.85 79.48 229.38 81.16 228.19 83.8 228.75 86.68 226.95 90.66 227.5 95.77 226.14 99.39 224.35 103.19 223.49 102.14 220.71 99.75 220.61 99.9 216.88 97.53 217.03 97.42 215.05 100.01 214.53 102.18 212.1 100.78 210.09 102.6 205.59 102 203.47 103.57 201.56 105.64 201.91 108.99 201.02 112.42 202.9 114.95 203.26 118.56 208.91 120.52 213.62 120.11 215.37 120.72 218.62 122.01 219.68 122.65 222.97 121.33 225.01 122.21 229.07 124.25 228.33 126.45 228.99 127.54 232.76 125.36 234.92 126.96 238.17 130.89 238.48 133.22 239.9 133.61 243.49 136.03 243.12 138.8 241.25 137.76 246.08 140.04 246.13 141.49 248.19 138.99 248.91 140.19 251.35 142.43 249.11 143.47 246.76 146.99 246.77 150.3 249.77 152.95 250.54 155.78 252.78 156.09 258.28 153.26 260.93 152.93 262.11 154.68 268.04 154.5 274.71 153.83 277.36 150.64 276.69 147.73 276.88 144.29 278.2 140.88 280.87 136.6 286.42 133.96 288.36 134.18 291.1 130.33 294.94 127.44 296.83 127.02 298.78 125.02 302.57 125.04 306.94 126.28 309.25 127.08 314.8 125 319.49 124.77 322.34 122.51 322.03 118.79 316.38 115.21 314.96 112.94 313.12 112.4 310.39 108.88 307.61 Z" id="UA-26" data-name="Ivano-Frankivs&apos;k"/>
<path d="M 283.02 460.91 283.88 459.2 283.36 456.55 281.71 455.1 283.04 452.83 285.58 451.38 285.67 450.18 286.25 448.51 290.37 447.53 290.37 445.32 293.41 443.7 293.77 441.6 293 437.27 294.26 435.83 301.98 433.79 303.18 432.02 302.39 429.23 302.62 426.65 304.15 424.93 305.67 421.7 304.29 419.23 302.05 416.81 302.59 413.86 301.42 407.46 302.59 404.24 307.47 401.42 312.2 398.88 313.1 398.89 314.15 401.17 314.1 407.37 313.11 409.2 313.88 410.52 316.47 408.13 317.53 407.93 317.79 404.45 319.19 403.35 321.02 406.74 325.21 402.34 326.52 403.75 326.02 405.69 328.96 406.93 331.49 410.14 332.97 409.94 333.96 406.31 336.11 405.94 337.17 404.18 340.42 407.87 340.77 410.67 342.52 411.52 345.66 409.46 350.91 409.76 352.85 409.42 355.09 406.3 351.92 405.4 349.88 403.78 349.04 401.43 345.55 400.13 344.78 397.92 347.03 396.26 346.22 393.66 347.16 386.85 346.19 381.78 344.16 381.16 342.34 378.48 338.38 378.23 335.81 375.2 332.96 374.57 329.81 371.53 330.34 368.25 331.69 366.05 331.33 364.17 329.4 363.16 327.63 364.73 326.28 361.38 328.47 360.98 329.37 358.6 329.08 353.77 330.17 353.19 330.64 350.55 329.63 347.91 326.28 346.98 325.32 349.91 323.12 350.8 321.41 349.19 320.88 346.04 318.31 344.37 317.45 342.19 315.29 339.91 312.25 340.37 311.07 337.44 310.19 334.21 313.05 328.97 313.71 322.11 315.56 319.57 313.29 317.78 313.26 315.47 315.44 312.01 313.25 311.15 312.28 309.7 311.54 306.41 310.48 305.05 307.7 305.46 305.76 308.02 304.15 308.33 302.16 307.29 298.89 303.43 303.41 301.09 307.03 297.96 306.81 294.96 309.6 293.95 312.52 296.46 315.9 297.86 319.98 297.75 324.23 295.97 327 297.31 330.91 297.69 335.09 297.35 335.87 294.42 334.47 292.26 339.29 289.99 341.31 289.47 344.47 291.19 345.9 288.77 347.21 289.52 349.12 288.8 351.38 293.17 352.96 293.94 362.23 294.47 361.89 297.42 359.08 298.56 358.82 303.54 360.38 304.42 362.45 307.11 363.52 314.22 364.64 315.98 366.73 317.19 366.01 319.86 367.32 321.49 367.13 324.65 367.87 326.66 370.33 328.38 373.6 328.68 375.3 327.45 378.73 328.15 380.5 330.34 381.3 328.19 383.78 327.62 384.25 330.86 385.78 330.92 387.69 333.55 387.71 336.04 386.17 341.01 388.46 348.4 389.78 351 394 351.5 395.28 352.68 400.16 351.29 401.14 353.36 398.76 355.55 398.68 357.16 401.58 358.76 403.42 358.23 405.61 362.04 406.99 362.4 406.57 365.74 405.12 368.9 403.02 370.67 398.24 370.88 395.18 372.06 396.02 375.67 397.89 376.97 400.71 380.34 401.16 389.45 401.8 393.02 393.15 394.82 390.25 395.91 387.64 397.74 384.79 397.46 382.68 400.32 383.88 404.09 383.46 407.99 379.65 412.9 378.19 416.77 373.51 423.92 372.43 424.82 371.14 428.22 365.7 433.49 360.83 440.02 355.39 444.83 351.97 445.23 348.85 443.09 347.87 443.61 347.18 447.87 345.71 449.86 343.68 449.16 340.51 450.05 340.55 452.17 343.28 454.19 338.01 457.34 337.04 454.5 335.33 452.16 335.06 449.16 335.71 447.27 333.85 446.78 332.61 449.16 333.22 451.81 331.7 452.98 331.53 458.49 331.1 461.36 334.28 463.46 331.78 465.91 332.49 467.97 334.89 468.28 338.08 467.4 338.45 469.65 337.83 471.12 338.47 476.37 336.37 482.53 334.17 483 334.75 479.41 333.78 474.8 330.21 471.72 324.06 469.49 319.25 468.64 317.47 470 315.09 469.91 312.71 472.1 308.07 473.88 305.8 475.76 303.51 476.46 301.89 479.02 299.72 477.32 296.86 476.07 295.7 478.21 294.44 478.85 295.2 482.04 292.16 482.3 286.27 480.97 282.6 479.04 278.66 478.02 275.34 476.26 273.17 471.29 272.54 468.85 270.25 468.23 269.56 467.51 270.34 465.51 272.7 463.74 275.86 463.98 279.18 464.85 282.02 464.97 283.15 463.79 283.02 460.91 Z M 345.66 453.03 345.19 454.56 340.74 457.86 341.06 456.17 342.92 455.66 345.66 453.03 Z" fill-rule="evenodd" id="UA-51" data-name="Odessa"/>
<path d="M 254.88 184.92 258.81 184.43 261.85 184.9 267.05 183.67 271.31 183.54 272.57 182.99 275.48 184.06 278.01 183.75 279.8 181.65 283.7 181.68 286 183.09 288.82 182.1 292.18 182.62 293.97 179.98 296.63 178.28 297.71 176.59 300.99 177.21 302.32 180.04 302.44 183 305.18 186.91 303.05 189.63 304.87 194.29 305.08 196.52 310.85 197.1 316.88 196.81 317.13 195.31 320.65 194.7 323.69 192.37 324.79 192.39 327.78 193.63 326.96 197.73 329.87 200.26 328.97 203.06 330.21 206.53 329.82 208.64 327.62 210.11 327.12 211.85 328.52 215.11 331.09 215.88 333.68 220.17 335.86 221.24 334.85 222.44 336.45 224.26 336.16 227.95 334.68 230.87 331.47 233.17 331.42 235.05 334.21 235.91 334.87 237.47 333.12 240 336.56 242.15 336 244.68 337.99 246.83 339.19 252.16 342.18 252.37 344.31 254.37 343.02 256.93 347.45 260.07 347.65 262.86 350.21 267.68 349.8 269.17 347.55 271.8 350.21 272.11 352.63 273.21 350.98 275.04 349.46 275.26 346.61 278.51 345.38 274.76 343 275.74 339.39 280.37 339.32 282.42 337.67 285.54 339.81 286.87 339.29 289.99 334.47 292.26 335.87 294.42 335.09 297.35 330.91 297.69 327 297.31 324.23 295.97 319.98 297.75 315.9 297.86 312.52 296.46 309.6 293.95 306.81 294.96 307.03 297.96 303.41 301.09 298.89 303.43 297.58 301.82 296.11 296.05 294.87 295.21 290.19 294.89 286.12 293.19 283.71 293.58 282.85 296.25 282.42 299.12 280.53 297.98 279.27 295.36 280.07 293.53 277.93 292.29 276.2 294.86 274.99 292.64 276.81 290.8 277.02 288.16 273.76 287.77 271.36 289.43 269.58 289.42 268.63 286.29 266.53 287.57 264.21 287.21 265.08 284.61 263.2 282.12 260.87 281.82 257.47 280.92 255.65 278.32 254.08 276.24 249.74 273.41 244.21 273.46 243.23 271.27 238.76 272.05 237.39 267.05 235.86 263.35 232.85 261.53 233.87 257.9 234 252.72 235.25 251.66 234.31 249.07 234.16 245.46 232.93 241.33 234.09 239.53 233.29 237.51 234.11 235.23 237.29 231.5 238.61 228.1 241.61 228.38 243.08 226.33 244.78 226.05 250.42 228.78 252.34 227.04 255.81 225.63 254.38 219.74 255.3 217.88 253.83 213.93 252.72 213.51 252.26 210.44 253.82 209.78 253.02 207.48 250.3 207.45 250.23 204.97 248.74 203.48 248.87 200.91 250.76 200.85 250.39 198.39 252.28 194.65 252.21 192.65 249.73 190.85 250.74 188.72 252.51 188.75 254.88 184.92 Z" id="UA-05" data-name="Vinnytsya"/>
<path d="M 88.44 124.71 90.95 124.02 93.3 127.58 94.63 128.1 100.45 126.76 102.88 130.38 105.82 130.62 107.49 133.01 106.37 134.72 103.87 136.49 105.74 137.99 105.98 140.01 109.82 139.57 114.12 142.37 114.87 144.25 117.87 144.88 121.21 143.88 124 144.35 124.91 142.82 130.75 145.3 130.73 148.05 132.53 149.12 135.7 148.11 137.11 151.15 135.35 153.23 136.46 155.89 136.13 159.6 136.88 161.88 141.02 165.58 144.19 167.52 146.88 171.53 145.33 173.45 145.18 176.68 138.55 179.77 132.3 180.99 131.39 183.01 132.61 187.02 131.14 188.16 128.64 188.11 125.63 194.02 117.97 198.37 115.93 198.94 114.95 203.26 112.42 202.9 108.99 201.02 105.64 201.91 103.57 201.56 102 203.47 102.6 205.59 100.78 210.09 102.18 212.1 100.01 214.53 97.42 215.05 97.53 217.03 99.9 216.88 99.75 220.61 102.14 220.71 103.19 223.49 99.39 224.35 95.77 226.14 90.66 227.5 86.68 226.95 83.8 228.75 81.16 228.19 79.48 229.38 72.8 228.85 69.56 231.01 67.79 235.9 64.91 238.74 63.69 244.68 64.86 247.82 62.98 255.22 59.12 255.02 56.12 254.32 55.58 252.49 52.85 253.12 47.35 250.75 45.48 246.58 44.04 245.3 39.9 246.41 34.6 240.98 35.02 237.21 33.41 235.73 32.64 234.35 32.9 230.9 29.56 228.49 26.36 225.21 26.24 223.43 27.78 217.98 27.18 211.75 25.2 208.22 24.64 204.17 23.49 200.74 24.59 198.1 27.95 193.57 29.53 190.37 31.71 189.21 34.44 184.25 36.04 183.18 37.23 180.35 39.08 178.44 43.88 171.38 47.26 168.15 48.59 166.09 58.71 155.07 64.41 150.62 68.55 145.82 69.59 142.96 72.48 141.49 80.5 141.39 82.83 140.42 83.8 138.13 84.13 134.3 86.98 132.8 88.37 131.11 87.43 126.52 88.44 124.71 Z" id="UA-46" data-name="L&apos;viv"/>
<path d="M 484.79 131.12 486.29 126.69 486.55 122.63 489.32 116.09 487.6 114.46 487.57 111.18 488.59 107.14 490 105.52 490.12 100.84 488.93 99.54 491.22 95.39 489.58 94.73 488.09 97.04 484.41 95.77 484.93 94.13 479.61 92.12 480.75 88.94 480.62 85.95 482.9 85.22 483.54 82.32 485.17 81.23 485.32 78.67 482.08 72.05 486.97 72.51 487.83 69.15 487.01 65.72 490.34 62.29 488.75 59.2 489.06 53.83 488.16 52.81 488.85 49.65 485.83 46.21 484.81 42.51 486 39.45 487.44 38.36 489.18 34.53 492.03 34.43 494.11 32.77 498.28 31.48 497.71 28.31 498.59 24.27 502.65 24.12 501.96 21.35 498.62 17.42 496.69 16.76 496.13 12.52 497.98 9.74 499.8 2.78 504.17 3.03 503.89 5.77 505.6 6.81 508.63 3.77 512.52 1.95 517.66 2.04 519.21 4.99 521.94 7.02 524.46 11.45 527.3 13.38 528.8 15.37 529.6 18.41 528.84 20.03 529.35 25.42 530.81 28.19 530.59 31.12 532.8 31.13 536.56 35.23 538.58 36.18 542.76 40.09 544.6 43.6 544.67 46.55 542.99 48.54 539.53 48.72 532 50.53 530.28 51.54 530.34 53.93 532.53 54.79 533.43 58 536.23 62.37 535.72 66.62 536.05 68.59 534.56 70.94 536.54 72.82 538.74 73.27 540 75.16 538.89 77.53 534.56 81.23 538.8 82.82 541.25 81.08 544.44 80.94 549.06 82.6 551.93 82.1 553.88 82.94 554.79 86.06 556.21 86.98 559.45 87.18 562.52 86.48 568.91 83.61 570.57 84.54 573.23 83.82 574.99 85.88 576.08 92.36 578.24 95.94 584.26 95.47 586.32 97 585.32 98.8 582.91 99.31 583.09 101.53 583.6 103.18 585.73 104.71 585.71 107.48 587.32 110.48 587.38 113.04 590.01 115.48 590.32 120.72 591.36 122.04 587.93 123.59 587.32 125.3 589.42 133.76 590.36 135.46 593.74 136.61 595.15 138.44 595.84 142.39 598.56 144.57 601.24 144.63 600.3 146.31 596.96 145.89 592.46 147.54 589.46 145.64 587.81 147.95 585.17 147.37 584.27 149.33 581.78 149.85 581.3 152.12 579.22 152.38 576.59 151.5 574.53 154.13 573.58 153.58 571.3 156.55 568.71 156.91 566.54 158.35 562.38 157.41 559.32 158.89 557.54 158.01 556.49 160.03 554.39 160.51 550.07 159.84 547.67 160.98 546.53 158.28 548.64 156.32 548.27 154 546.64 152.84 545.2 149.63 543.19 150.2 542.41 146.48 543.06 144.74 537.78 138.27 537.21 131.39 534.57 131.87 529.83 133.99 528.44 135.82 525.05 134.26 522.48 131.69 518.05 132.96 518.23 135.5 513.97 136.4 510.61 134.81 497.12 132.04 494.67 130.59 492.41 130.99 490.65 132.59 486.41 132.09 484.79 131.12 Z" id="UA-59" data-name="Sumy"/>
<path d="M 566.54 158.35 568.71 156.91 571.3 156.55 573.58 153.58 574.53 154.13 576.59 151.5 579.22 152.38 581.3 152.12 581.78 149.85 584.27 149.33 585.17 147.37 587.81 147.95 589.46 145.64 592.46 147.54 596.96 145.89 600.3 146.31 601.24 144.63 603.26 142.03 604.88 141.66 607.67 139.14 611.85 138.66 619.55 139.28 622.36 141.88 626.78 148.98 629.9 148.98 632.58 147.23 638.61 149.94 638.4 152.62 641.18 154.31 643.01 153.65 645.09 150.42 652.43 146.05 655.33 144.98 661.42 145.24 667.86 143.36 671.76 139.69 677.52 138.54 678.4 139.02 680.38 144.92 684.29 146.82 685.66 148.32 685.19 153.61 691.35 163 696.44 165.73 699.68 168.2 703.2 173.84 704.42 174.68 706.27 179.62 703.64 180.36 705.33 182.82 703.62 185.57 700.84 186.94 703.45 188.45 703.42 192.01 700.94 196.09 701.78 198.16 701.78 201.33 700.11 202.98 699.2 206.12 697.36 208.34 698.4 210.65 698.31 215.42 700.13 217.4 696.64 220.94 696.05 222.58 693.27 222.8 687.6 221.17 683.35 221.25 681.42 224.02 685.03 224.71 685.75 226.84 675.68 233.08 674.34 235.8 672.05 237.98 673.05 241.58 668.91 243.53 667.37 245.58 667.15 247.98 664.84 248.51 663.79 247.37 662.07 249.1 660.22 249.07 659.1 252.32 654.85 250.15 652.98 250.41 651.4 251.9 646.16 250.82 645.41 251.61 646.27 255.84 646.34 260.19 646.98 261.78 644.4 262.11 642.8 263.29 640.37 263.21 637.06 260.64 635.01 260.96 631.07 266.09 630.01 268.11 627.11 267.27 628.32 265.21 626.68 263.44 626.86 260.37 620.97 255.43 622.42 252.94 618.06 248.14 614.88 246.44 615.84 243.36 613.97 239.86 611.8 238.22 605.29 241.04 602.08 239.75 600.67 240.13 595.38 238.54 590.8 238.2 586.59 235.14 583.18 231.42 580.29 229.09 579.4 227.59 577.14 226.25 573.45 226.19 569.89 225.55 569.48 221.94 568.6 220.41 569.4 217.63 571.69 215.14 574.59 216.5 578.94 216.85 582.25 215.52 584.28 213.45 586.56 210.05 586.15 207.7 584.49 204.89 586.66 203.33 589.16 204 591.38 202.66 588.14 199.92 588.23 198.96 591.63 198.58 589.18 193.32 589.45 190.36 587.48 189.85 586.53 191.19 583.49 190.45 581.18 188.72 579.07 183.92 579.06 179.98 577.16 178.38 575.16 178.91 570.98 176.07 568.59 175.99 565.65 174.1 564.58 172.4 563.58 168.42 566.76 164.59 566.93 159.29 566.54 158.35 Z" id="UA-63" data-name="Kharkiv"/>
<path d="M 704.42 174.68 706.35 173.44 708.67 173.99 710.76 172.52 710.67 166.33 711.1 164.28 716.68 164.25 718.64 168.97 725.43 172 728.64 171.41 730.83 171.82 732.81 171 733.83 174.36 736.51 176.31 741.13 177.66 744.9 181.94 749.1 181.67 750.7 180.73 752.85 177.76 755.68 178.09 758.21 184.57 759.22 185.98 762.17 187.23 767.31 185.64 772.92 188.12 774.12 192.59 775.25 194.95 779.95 197.18 783.15 199.82 785.71 199.59 788.16 198.4 790.79 195.7 792.72 195.33 797.18 196.66 796.84 199.6 794.34 201.35 793.48 203.58 793.75 205.73 796.42 210.5 799 214.03 798.21 219.99 795.96 221.92 793.64 225.23 789.82 228.2 788.88 229.83 788.34 233.39 784.48 233.56 780.82 234.85 777.82 235.25 777.51 238.64 779.81 240.87 781.26 243.67 785.82 244.95 787.36 244.72 789.74 246.55 792.33 244.19 794.32 245.44 792.81 249.21 790.84 250.79 789.06 250.99 784.15 249.05 782.17 249.58 780.26 252.68 778.79 253.69 775.63 264.39 778.22 263.94 783.49 264.6 785.52 266.45 786.16 269.54 784.95 270.27 788.58 278.48 783.79 283 786.84 284.95 790.05 283.99 791.64 285.33 790.19 288.73 787.23 291.33 784.99 295.53 784.37 298.38 784.99 301.05 782.15 301.53 781.31 302.47 782.84 305.36 782.33 310.96 781.27 314.5 778.69 315.91 774.26 314.73 770.22 315.17 767.9 314.61 765.01 315.18 761.82 313.64 751.78 314.56 749.27 312.91 750.13 308.93 749.06 306.78 748.87 303.02 744.73 302.06 741.57 302.13 738.83 299.71 739.44 296.08 736.88 294.58 731.31 292.46 728.24 284.95 723.8 285.38 722.16 284.5 721.89 281.66 723.91 281.32 724.68 279.71 722.27 276.56 721.39 274.39 718.12 274.18 716.78 272.94 717.3 268.83 715.21 267.77 714.41 259.25 716.85 254.9 715.2 254.62 716.53 251.23 715.58 247.28 713.56 246.18 712.7 241.75 710.98 241.21 705.96 240.87 703.84 239.71 704.27 238.39 706.84 236.38 705.22 231.9 706.07 230.77 706.52 226.61 704.32 226.33 701.91 227.66 698.77 226.05 698.08 221.68 696.64 220.94 700.13 217.4 698.31 215.42 698.4 210.65 697.36 208.34 699.2 206.12 700.11 202.98 701.78 201.33 701.78 198.16 700.94 196.09 703.42 192.01 703.45 188.45 700.84 186.94 703.62 185.57 705.33 182.82 703.64 180.36 706.27 179.62 704.42 174.68 Z" id="UA-09" data-name="Luhans&apos;k"/>
<path d="M 646.98 261.78 646.34 260.19 646.27 255.84 645.41 251.61 646.16 250.82 651.4 251.9 652.98 250.41 654.85 250.15 659.1 252.32 660.22 249.07 662.07 249.1 663.79 247.37 664.84 248.51 667.15 247.98 667.37 245.58 668.91 243.53 673.05 241.58 672.05 237.98 674.34 235.8 675.68 233.08 685.75 226.84 685.03 224.71 681.42 224.02 683.35 221.25 687.6 221.17 693.27 222.8 696.05 222.58 696.64 220.94 698.08 221.68 698.77 226.05 701.91 227.66 704.32 226.33 706.52 226.61 706.07 230.77 705.22 231.9 706.84 236.38 704.27 238.39 703.84 239.71 705.96 240.87 710.98 241.21 712.7 241.75 713.56 246.18 715.58 247.28 716.53 251.23 715.2 254.62 716.85 254.9 714.41 259.25 715.21 267.77 717.3 268.83 716.78 272.94 718.12 274.18 721.39 274.39 722.27 276.56 724.68 279.71 723.91 281.32 721.89 281.66 722.16 284.5 723.8 285.38 728.24 284.95 731.31 292.46 736.88 294.58 739.44 296.08 738.83 299.71 741.57 302.13 744.73 302.06 748.87 303.02 749.06 306.78 750.13 308.93 749.27 312.91 742.24 312.63 740.19 313.49 737.53 317.94 735.92 324.76 733.41 324.24 728.29 328.08 719.03 329.37 716.39 332.28 714.93 336.86 714.82 343.39 712.41 347.22 712.3 350.09 716.32 350.33 716.01 353.32 713.25 355.01 712.41 356.51 712.32 360.52 712.99 362.31 709.7 366.57 709.16 364.17 706.57 362.53 704.56 363.71 697.25 362.42 692.48 364.13 690.58 364.2 684.84 363.14 683.32 363.71 680.51 366.68 675.86 373.31 673.97 376.64 672.21 374.19 668.35 373.33 666.32 374.92 660.81 377.02 659.56 374.54 661.87 371.55 664.2 370.59 663.28 369.02 664.38 367.19 662.11 365.25 659.62 364.75 657.7 360.21 653.13 357.15 653.38 356.02 656.53 354.97 655.33 350.55 656.32 349.15 660.42 350.29 662.34 349.44 663.57 345.38 665.33 345 666.38 346.48 668.91 339.33 663.56 337.85 658.58 332.95 656.07 331.74 654.41 333.06 646.74 326.04 644.14 319.5 643.62 317.35 640.71 317.24 640.37 313.76 638.63 311.39 638.53 309.74 642.93 308.64 642.14 306.48 640.39 305.4 640.32 299.61 641.57 298.03 644.31 297.63 646.9 298.45 648.09 299.98 652.01 301.18 654.38 298.99 653.47 292.36 655.91 290.1 654.95 283.92 650.83 281.5 650.68 276.01 652.37 274.62 651.85 271.79 652.61 269.33 654.36 267.67 654.07 265.08 650.9 265.15 650.28 267.39 648.31 268.26 647.77 263.44 646.98 261.78 Z" id="UA-14" data-name="Donets&apos;k"/>
<path d="M 570.68 450.59 568.49 451.04 564.87 447.78 562.19 447.04 561.26 445.85 561.05 439.77 560.12 437.69 556.82 435.01 554.75 434.57 549.79 434.57 548.65 436.5 546.9 436.2 544.52 434.12 542.35 429.81 539.67 428.91 536.78 427.12 533.47 427.57 530.99 427.27 527.48 425.93 519.52 420.86 517.56 420.41 515.5 421.01 511.35 419.93 511.79 422.31 509.89 425.38 508.47 423.42 505.64 425.6 506.76 427.79 504.45 428.24 503.56 429.97 500.83 429.96 497.9 426.73 495.05 424.7 491.56 425.17 492.04 423.52 491.45 420.18 489.81 423.58 487.5 424.68 483.1 422.51 482.87 425.21 478.22 426.01 472.76 424.78 463.84 426.7 461.87 428.22 460.08 428.5 451.19 425.91 449.41 425.17 448.39 420.89 446.09 420.79 442.9 419.65 440.02 416.36 438.6 416.9 436.4 415.74 432.74 412.9 432.59 415.52 429.79 415.42 427.72 414.01 428.06 412.14 429.68 411.1 433.04 411.54 436.39 410.91 439.11 408.47 440.53 408.16 438.14 404.62 433.84 404.17 429.66 402.43 431.23 399.92 435.45 400.1 439.28 400.93 442.74 400.54 447.6 401.63 450.02 403.21 453.78 403.47 456.7 401.41 455.87 400.22 457.08 398.56 461.03 395.37 461.87 393.5 455.9 396.9 452.66 397.33 449.72 395.7 447.54 395.49 443.64 396.81 443.02 394.45 438.81 393.02 436.9 389.93 436.24 387.02 438.54 386.75 440.98 385.42 443.24 386.16 445.39 385.43 447.65 381.66 449.27 381.3 451.85 382.23 453.68 381.89 455.03 379.42 457.89 379.07 460.93 379.84 461.55 377.56 465.78 378.04 468.87 380.31 474.19 380.24 478.26 378.7 477.81 377.45 475.42 377.67 473.94 376.23 478.25 375.5 482.12 372.2 480.04 371.87 480.95 369 483.17 370.97 484.69 367.62 480.12 364.15 478.3 362.29 481.01 356.87 484.22 357.14 485.51 355.6 487.6 355.71 488.04 353.99 486.72 351.28 487.4 346.25 486.46 344.1 484.44 343.76 483.22 342.37 484.92 339.75 485.83 341.95 487.56 341.87 487.18 334.45 486.02 333.25 486.02 330.96 489.39 331.9 490.63 332.86 495.04 334.06 496.83 336.68 498.47 335.38 503.17 334.43 504.34 331.99 506.98 331.45 508.11 332.66 507.94 335.43 509.96 335.89 511.03 337.26 515.37 336.99 521.98 335.45 528.91 337.66 533.3 338.11 535.35 337.81 536.53 340.89 539.54 351.3 543.74 351.12 545.3 348.64 548.3 348.33 547.41 351.47 548.5 352.5 548.1 354.55 548.89 361.65 550.26 362.54 551.38 368.68 553.06 371.25 558.11 373.66 559.09 376.45 561.05 377.63 561.6 379.93 559.42 381.22 559.27 383.16 556.73 386.88 554.95 387.16 554.19 388.91 558.77 390.88 559.21 393.2 558.29 394.73 559.93 398.11 564.3 398.65 564.1 401.19 567.26 401.34 572.16 404.14 573.26 408.76 573.24 413.79 575.25 414.5 571.96 417.27 567.77 418.32 563.47 420.09 562.25 422.74 562.82 428.39 565.04 438.07 566.4 440.45 568.75 446.75 570.68 450.59 Z M 582.97 417.05 579.87 422.51 577.76 425.17 570.6 428.66 569.95 427.78 572.9 425.17 572.57 424.3 577.19 422.88 579.47 421.67 582.32 416.71 582.97 417.05 Z M 481.59 430.64 484.06 430.94 483.84 432.58 472.47 430.4 476.83 429.82 478.24 430.88 480.06 430.06 481.59 430.64 Z M 435.15 420.29 440.93 421.71 442.3 422.72 426.16 419.26 420.89 416.79 435.15 420.29 Z" fill-rule="evenodd" id="UA-65" data-name="Kherson"/>
<path d="M 640.37 313.76 640.71 317.24 643.62 317.35 644.14 319.5 646.74 326.04 654.41 333.06 656.07 331.74 658.58 332.95 663.56 337.85 668.91 339.33 666.38 346.48 665.33 345 663.57 345.38 662.34 349.44 660.42 350.29 656.32 349.15 655.33 350.55 656.53 354.97 653.38 356.02 653.13 357.15 657.7 360.21 659.62 364.75 662.11 365.25 664.38 367.19 663.28 369.02 664.2 370.59 661.87 371.55 659.56 374.54 660.81 377.02 656.43 379.42 654.1 381.72 651.59 386.39 650.39 386.85 648.42 384.64 645.68 383.28 642.93 383.28 640.99 384.64 638.07 384.64 634.01 386.19 631.29 387.9 627.45 392.55 625.68 392.62 623.25 390.45 620.82 390.85 617.61 390.37 610.51 391.5 604.74 394.82 598.43 401.43 593.2 404.09 590.32 407.38 587.43 409.79 582.97 417.05 582.32 416.71 585.74 411.89 583.51 411.85 582.04 409.47 583.19 405.36 580.1 403.74 580.06 407.01 575.25 414.5 573.24 413.79 573.26 408.76 572.16 404.14 567.26 401.34 564.1 401.19 564.3 398.65 559.93 398.11 558.29 394.73 559.21 393.2 558.77 390.88 554.19 388.91 554.95 387.16 556.73 386.88 559.27 383.16 559.42 381.22 561.6 379.93 561.05 377.63 559.09 376.45 558.11 373.66 553.06 371.25 551.38 368.68 550.26 362.54 548.89 361.65 548.1 354.55 548.5 352.5 547.41 351.47 548.3 348.33 545.3 348.64 543.74 351.12 539.54 351.3 536.53 340.89 535.35 337.81 540.47 336.06 546.07 334.9 552.17 331.99 554.87 332.22 558.64 333.83 563.19 334.7 566.89 334.37 567.49 331.75 566.17 330.37 568.18 320.7 565.57 319.3 565.99 314.38 562.56 312.28 562.62 309.63 566.84 307.24 566.33 305.55 564.27 304.89 562.46 301.75 563.53 300.73 563.54 295.68 565.13 297.89 568.08 298.1 571.87 295.55 575.09 294.93 577.88 295.57 581.45 294.83 585.65 296.57 592.6 297.82 594.8 297.86 597.35 295.75 600.44 295.05 603.02 297.11 605.17 297.54 606.41 299.04 612.31 297.38 613.27 297.56 613.93 301.72 617.11 303.74 617.48 306.69 619.94 307.44 620.02 309.69 618.35 313.69 621.61 314.17 623.87 312.53 624.3 314.48 628.5 315.76 630.86 314.04 632.22 314.98 640.37 313.76 Z" id="UA-23" data-name="Zaporizhzhya"/>
<path d="M 431.23 399.92 429.66 402.43 425.68 401.28 424.09 402.71 421.92 402.49 419.27 398.42 427.01 397.84 431.23 399.92 Z M 401.8 393.02 401.16 389.45 400.71 380.34 397.89 376.97 396.02 375.67 395.18 372.06 398.24 370.88 403.02 370.67 405.12 368.9 406.57 365.74 406.99 362.4 405.61 362.04 403.42 358.23 401.58 358.76 398.68 357.16 398.76 355.55 401.14 353.36 400.16 351.29 395.28 352.68 394 351.5 389.78 351 388.46 348.4 386.17 341.01 387.71 336.04 387.69 333.55 385.78 330.92 384.25 330.86 383.78 327.62 381.3 328.19 380.5 330.34 378.73 328.15 375.3 327.45 373.6 328.68 370.33 328.38 367.87 326.66 367.13 324.65 367.32 321.49 366.01 319.86 366.73 317.19 364.64 315.98 363.52 314.22 362.45 307.11 360.38 304.42 358.82 303.54 359.08 298.56 361.89 297.42 362.23 294.47 364.65 292.62 371.47 292.62 376.98 293.75 377.45 292.67 380.46 291.42 383.6 291.59 385.88 292.73 386.49 291.45 389.66 293.01 392.47 291.42 393.84 289.45 396.3 288.8 401.65 289.67 401.9 291.85 403.71 293.23 404.61 295.45 408.75 296.05 410.54 295.18 411.88 296.33 415.64 295.57 417.15 297.71 419.56 297.62 419.7 296.2 424.73 297.28 427.18 297.34 427.58 300.35 424.94 302.35 428.05 307.11 429.88 307.09 431.87 311.37 430.67 313.64 431.96 317 435.82 316.95 437.17 315.82 440.63 317.19 442.22 319.41 443.94 320.13 445.78 318.71 448.17 315.33 451.02 315.36 452.98 316.93 454.38 316.56 458.47 317.92 466.13 316.7 467.73 313.91 467.05 310.27 469.42 309.29 468.02 306.45 469.52 304.86 472.22 304.17 474 305.71 477 303.42 476.93 301.54 481.15 300.63 483.63 305.68 483.45 308.38 485.12 309.35 484.73 318.28 485.76 321.37 481.34 322.6 482.7 325.72 482.29 330.38 486.02 330.96 486.02 333.25 487.18 334.45 487.56 341.87 485.83 341.95 484.92 339.75 483.22 342.37 484.44 343.76 486.46 344.1 487.4 346.25 486.72 351.28 488.04 353.99 487.6 355.71 485.51 355.6 484.22 357.14 481.01 356.87 478.3 362.29 480.12 364.15 484.69 367.62 483.17 370.97 480.95 369 480.04 371.87 482.12 372.2 478.25 375.5 473.94 376.23 475.42 377.67 477.81 377.45 478.26 378.7 474.19 380.24 468.87 380.31 465.78 378.04 461.55 377.56 460.93 379.84 457.89 379.07 455.03 379.42 453.68 381.89 451.85 382.23 449.27 381.3 447.65 381.66 445.39 385.43 443.24 386.16 440.98 385.42 438.54 386.75 436.24 387.02 435.15 384.64 434.97 381.96 437.9 375.8 436.59 374.51 435.36 378.13 433.31 379.2 431.81 381.56 431.83 383.28 433.67 385.98 433.75 390.85 431.53 393.02 427.68 393.12 423.37 391.46 420.73 391.7 419.15 393.78 415.35 393.04 414.82 391.9 418.85 384.16 417.59 383.61 414.7 389.49 412.5 392.47 408.48 394.82 405.73 394.42 401.8 393.02 Z" fill-rule="evenodd" id="UA-48" data-name="Mykolayiv"/>
<path d="M 443.96 144.22 447.69 144.69 450.56 141.5 454.44 140.13 456.07 141.25 459.18 140.63 460.07 142.82 469.99 143.67 473.75 141.58 476.9 140.66 477.9 138.7 482.47 135.19 484.79 131.12 486.41 132.09 490.65 132.59 492.41 130.99 494.67 130.59 497.12 132.04 510.61 134.81 513.97 136.4 518.23 135.5 518.05 132.96 522.48 131.69 525.05 134.26 528.44 135.82 529.83 133.99 534.57 131.87 537.21 131.39 537.78 138.27 543.06 144.74 542.41 146.48 543.19 150.2 545.2 149.63 546.64 152.84 548.27 154 548.64 156.32 546.53 158.28 547.67 160.98 550.07 159.84 554.39 160.51 556.49 160.03 557.54 158.01 559.32 158.89 562.38 157.41 566.54 158.35 566.93 159.29 566.76 164.59 563.58 168.42 564.58 172.4 565.65 174.1 568.59 175.99 570.98 176.07 575.16 178.91 577.16 178.38 579.06 179.98 579.07 183.92 581.18 188.72 583.49 190.45 586.53 191.19 587.48 189.85 589.45 190.36 589.18 193.32 591.63 198.58 588.23 198.96 588.14 199.92 591.38 202.66 589.16 204 586.66 203.33 584.49 204.89 586.15 207.7 586.56 210.05 584.28 213.45 582.25 215.52 578.94 216.85 574.59 216.5 571.69 215.14 569.4 217.63 568.6 220.41 569.48 221.94 569.89 225.55 567.33 224.24 565.78 226.6 563.37 224.4 560.09 225.3 558.49 226.75 553.33 228.07 545.39 231.58 541.85 235.65 542.12 237.56 539.66 239.06 538.48 242.4 538.58 244.15 540.32 247.43 538.65 249.21 539.07 251.93 536.84 253.71 533.5 251.15 528.11 249.57 522.77 245.67 520.84 243.54 517.81 243.13 516.53 241.85 510.91 243.41 508.49 241.86 506.09 243.17 502.27 240.55 499.82 239.76 498.7 240.58 495.32 236.93 496.11 233.34 495.21 232.24 491.1 231.83 488.35 227.82 483.76 224.32 472.71 218.9 472.74 214.01 470.89 209.09 467.72 203.93 469.47 200.98 471.19 199.48 470.79 195.82 468.95 193.68 468.47 190.97 463.66 189.12 462.96 185.11 458.72 181.86 456.7 181.68 453.9 176.61 455.9 175.4 455.9 170.11 454.37 168.84 452.38 164.86 449.09 164.09 448.04 160.69 449.64 159.6 444.02 155.84 441.98 152.06 440.87 151.94 442.27 149.61 443.96 144.22 Z" id="UA-53" data-name="Poltava"/>
<path d="M 182.51 157.92 185.62 156.31 188.19 152.52 189.86 151.23 192.76 151.26 200.41 143.84 200.97 141.83 202.9 140.27 205.19 136.11 207.45 136.48 207.92 133.73 212.43 131.6 215.41 132.46 217.47 130.62 222.04 128.08 222.29 129.96 224.97 130.93 227.98 134.48 227.94 137.03 226.59 141.11 228.82 142.74 230.59 145.32 234.54 148.19 237.35 151.03 238.08 152.97 243.28 154.16 245.05 156.75 244.22 158.91 245.07 160.16 243.96 162.95 245.54 164.21 245.84 166.18 243.65 168.09 240.71 167.91 242.14 171.97 240.4 174.27 242.49 175.45 243.21 178 245.71 182.25 254.88 184.92 252.51 188.75 250.74 188.72 249.73 190.85 252.21 192.65 252.28 194.65 250.39 198.39 250.76 200.85 248.87 200.91 248.74 203.48 250.23 204.97 250.3 207.45 253.02 207.48 253.82 209.78 252.26 210.44 252.72 213.51 253.83 213.93 255.3 217.88 254.38 219.74 255.81 225.63 252.34 227.04 250.42 228.78 244.78 226.05 243.08 226.33 241.61 228.38 238.61 228.1 237.29 231.5 234.11 235.23 233.29 237.51 234.09 239.53 232.93 241.33 234.16 245.46 234.31 249.07 235.25 251.66 234 252.72 233.87 257.9 232.85 261.53 230.7 263.46 229.5 262.44 227.42 265.5 222.96 264.73 221.48 266.24 214.03 264.76 211.37 267.29 208.84 266.11 208.9 263.4 206.86 263.95 207.06 265.64 204.91 266.35 204.14 267.85 200.2 266.03 199.39 267.52 201.89 268.42 202.63 270.7 199.06 270.72 199.72 273 197.26 273.06 195 269.21 193.02 267.66 189.04 269.06 187.86 266.09 188.52 265.12 185.77 263.14 186.19 260.65 182.61 257.82 183.31 253.3 182.31 251.49 182.76 248.83 181.68 246.93 182.06 243.55 180.73 243.2 180.56 239.79 181.98 236.58 181.02 233.83 182.44 231.25 181.53 228.57 182.01 226.61 181.01 224.82 181.39 221.24 182.89 220.3 183.53 216.74 182.57 214.99 182.33 209.71 180.98 208.47 178.76 201.57 179.46 199.7 181.43 198.13 182.15 194.27 183.37 191.63 181.29 188.34 182.28 187.09 182.57 184.08 180.46 180.68 180.72 177.64 179.14 175.74 178.88 171.38 179.73 169.9 182.23 169.05 181.14 167.16 182.46 164.35 181.58 162.17 183.69 161.93 184.22 160.32 182.51 157.92 Z" id="UA-68" data-name="Khmel&apos;nyts&apos;kyy"/>
<path d="M 144.19 167.52 146.27 165.89 146.49 163.47 148.6 161.17 147.47 159.3 148.85 157.15 152.73 158.71 154.99 157.3 156.07 158.02 158.59 156.48 163.74 156.06 169.85 150.15 173.16 150.92 174.8 150.11 179.53 151.7 182.42 151.26 181.12 153.99 182.39 155.84 182.51 157.92 184.22 160.32 183.69 161.93 181.58 162.17 182.46 164.35 181.14 167.16 182.23 169.05 179.73 169.9 178.88 171.38 179.14 175.74 180.72 177.64 180.46 180.68 182.57 184.08 182.28 187.09 181.29 188.34 183.37 191.63 182.15 194.27 181.43 198.13 179.46 199.7 178.76 201.57 180.98 208.47 182.33 209.71 182.57 214.99 183.53 216.74 182.89 220.3 181.39 221.24 181.01 224.82 182.01 226.61 181.53 228.57 182.44 231.25 181.02 233.83 181.98 236.58 180.56 239.79 180.73 243.2 182.06 243.55 181.68 246.93 182.76 248.83 182.31 251.49 183.31 253.3 182.61 257.82 186.19 260.65 185.77 263.14 188.52 265.12 187.86 266.09 189.04 269.06 186.65 269.43 183.55 267.97 180.2 268.42 178.81 267.56 178.64 263.76 174.52 265.41 174.95 261.62 171.55 261.94 170.43 263.76 168.28 264.31 163.05 258.82 160.29 261.16 159.58 259.2 156.09 258.28 155.78 252.78 152.95 250.54 150.3 249.77 146.99 246.77 143.47 246.76 142.43 249.11 140.19 251.35 138.99 248.91 141.49 248.19 140.04 246.13 137.76 246.08 138.8 241.25 136.03 243.12 133.61 243.49 133.22 239.9 130.89 238.48 126.96 238.17 125.36 234.92 127.54 232.76 126.45 228.99 124.25 228.33 122.21 229.07 121.33 225.01 122.65 222.97 122.01 219.68 120.72 218.62 120.11 215.37 120.52 213.62 118.56 208.91 114.95 203.26 115.93 198.94 117.97 198.37 125.63 194.02 128.64 188.11 131.14 188.16 132.61 187.02 131.39 183.01 132.3 180.99 138.55 179.77 145.18 176.68 145.33 173.45 146.88 171.53 144.19 167.52 Z" id="UA-61" data-name="Ternopil&apos;"/>
<path d="M 569.89 225.55 573.45 226.19 577.14 226.25 579.4 227.59 580.29 229.09 583.18 231.42 586.59 235.14 590.8 238.2 595.38 238.54 600.67 240.13 602.08 239.75 605.29 241.04 611.8 238.22 613.97 239.86 615.84 243.36 614.88 246.44 618.06 248.14 622.42 252.94 620.97 255.43 626.86 260.37 626.68 263.44 628.32 265.21 627.11 267.27 630.01 268.11 631.07 266.09 635.01 260.96 637.06 260.64 640.37 263.21 642.8 263.29 644.4 262.11 646.98 261.78 647.77 263.44 648.31 268.26 650.28 267.39 650.9 265.15 654.07 265.08 654.36 267.67 652.61 269.33 651.85 271.79 652.37 274.62 650.68 276.01 650.83 281.5 654.95 283.92 655.91 290.1 653.47 292.36 654.38 298.99 652.01 301.18 648.09 299.98 646.9 298.45 644.31 297.63 641.57 298.03 640.32 299.61 640.39 305.4 642.14 306.48 642.93 308.64 638.53 309.74 638.63 311.39 640.37 313.76 632.22 314.98 630.86 314.04 628.5 315.76 624.3 314.48 623.87 312.53 621.61 314.17 618.35 313.69 620.02 309.69 619.94 307.44 617.48 306.69 617.11 303.74 613.93 301.72 613.27 297.56 612.31 297.38 606.41 299.04 605.17 297.54 603.02 297.11 600.44 295.05 597.35 295.75 594.8 297.86 592.6 297.82 585.65 296.57 581.45 294.83 577.88 295.57 575.09 294.93 571.87 295.55 568.08 298.1 565.13 297.89 563.54 295.68 563.53 300.73 562.46 301.75 564.27 304.89 566.33 305.55 566.84 307.24 562.62 309.63 562.56 312.28 565.99 314.38 565.57 319.3 568.18 320.7 566.17 330.37 567.49 331.75 566.89 334.37 563.19 334.7 558.64 333.83 554.87 332.22 552.17 331.99 546.07 334.9 540.47 336.06 535.35 337.81 533.3 338.11 528.91 337.66 521.98 335.45 515.37 336.99 511.03 337.26 509.96 335.89 507.94 335.43 508.11 332.66 506.98 331.45 504.34 331.99 503.17 334.43 498.47 335.38 496.83 336.68 495.04 334.06 490.63 332.86 489.39 331.9 486.02 330.96 482.29 330.38 482.7 325.72 481.34 322.6 485.76 321.37 484.73 318.28 485.12 309.35 483.45 308.38 483.63 305.68 484.61 301.75 488.68 298.05 491.9 297.47 492.06 294.66 495.11 294.13 497.87 291.24 499.61 291.98 503.13 288.18 504.91 287.36 505.35 283.72 504.34 283.11 503.51 273.95 501.6 269.33 503.21 267.46 507.02 265.95 514.05 262.41 517.47 259.95 515.55 256.97 512.94 256.82 508.78 255.45 506.75 251.98 509.48 251.16 511.2 249.68 512.81 250.96 514.86 249.88 519.7 250.52 521.24 248.78 522.77 245.67 528.11 249.57 533.5 251.15 536.84 253.71 539.07 251.93 538.65 249.21 540.32 247.43 538.58 244.15 538.48 242.4 539.66 239.06 542.12 237.56 541.85 235.65 545.39 231.58 553.33 228.07 558.49 226.75 560.09 225.3 563.37 224.4 565.78 226.6 567.33 224.24 569.89 225.55 Z" id="UA-12" data-name="Dnipropetrovs&apos;k"/>
<path d="M 335.86 221.24 337.29 223.42 339.43 225.08 343.17 224.87 345.72 219.96 349.86 218.57 350.97 217.32 353.87 216.43 355.74 214.36 357.36 214.85 356.97 217.5 364.73 219.16 366.52 220.48 368.2 213.32 369.53 212.99 371.14 214.67 373.62 213.55 375.29 214.3 376.5 212.58 379.57 212.65 381.58 214.84 387.69 212.19 389.46 213.17 391.15 208.8 395.06 204.64 396.95 203.33 398.13 200.81 400.43 198.85 400.47 196.88 399.2 194.89 401.18 191.22 401 189.58 402.25 185.37 402.33 181.88 401.44 180.93 402.91 178.47 404.99 177.94 408.4 175.53 412.57 174.89 414.6 178.43 418.8 177.87 424.85 178.97 427.29 175.76 427.49 174.08 429.24 171.17 429.2 168.55 432.21 166.31 431.14 161.88 434 158.26 436.02 158.1 437.58 156.07 436.61 153.51 437.99 151.23 440.87 151.94 441.98 152.06 444.02 155.84 449.64 159.6 448.04 160.69 449.09 164.09 452.38 164.86 454.37 168.84 455.9 170.11 455.9 175.4 453.9 176.61 456.7 181.68 458.72 181.86 462.96 185.11 463.66 189.12 468.47 190.97 468.95 193.68 470.79 195.82 471.19 199.48 469.47 200.98 467.72 203.93 470.89 209.09 472.74 214.01 472.71 218.9 471.12 223.9 472.75 226.7 473.27 231.63 475.2 236.54 472.43 239.07 468.03 237.55 465.88 240.26 462.39 239.83 460.6 241.26 460 238.28 458.29 235.96 457.94 233.3 454.64 233.7 452.49 230.56 450.17 233.44 448.48 233.11 446.32 236.64 444.41 237.96 443.85 242.05 442.41 242.71 439.2 241.49 435.71 243.22 433.15 245.94 429.39 241.76 424.05 240.36 422.35 242.19 417.61 241.74 416.97 243.09 416.87 247.73 414.83 249.86 413.99 252.71 408.27 255.21 407.21 253.94 403.43 253.2 401.49 253.39 398.66 254.91 395.96 254.92 394.44 253.89 390.79 253.04 386.09 253.42 382.62 252.44 380.35 252.44 376.5 255.32 375.88 259.24 373.21 262.23 374.83 263.44 374.67 265.85 370.71 266.63 367.62 265.4 366.3 268.17 360.56 271.19 356.98 270.93 354.61 273.12 352.63 273.21 350.21 272.11 347.55 271.8 349.8 269.17 350.21 267.68 347.65 262.86 347.45 260.07 343.02 256.93 344.31 254.37 342.18 252.37 339.19 252.16 337.99 246.83 336 244.68 336.56 242.15 333.12 240 334.87 237.47 334.21 235.91 331.42 235.05 331.47 233.17 334.68 230.87 336.16 227.95 336.45 224.26 334.85 222.44 335.86 221.24 Z" id="UA-71" data-name="Cherkasy"/>
<path d="M 362.23 294.47 352.96 293.94 351.38 293.17 349.12 288.8 347.21 289.52 345.9 288.77 344.47 291.19 341.31 289.47 339.29 289.99 339.81 286.87 337.67 285.54 339.32 282.42 339.39 280.37 343 275.74 345.38 274.76 346.61 278.51 349.46 275.26 350.98 275.04 352.63 273.21 354.61 273.12 356.98 270.93 360.56 271.19 366.3 268.17 367.62 265.4 370.71 266.63 374.67 265.85 374.83 263.44 373.21 262.23 375.88 259.24 376.5 255.32 380.35 252.44 382.62 252.44 386.09 253.42 390.79 253.04 394.44 253.89 395.96 254.92 398.66 254.91 401.49 253.39 403.43 253.2 407.21 253.94 408.27 255.21 413.99 252.71 414.83 249.86 416.87 247.73 416.97 243.09 417.61 241.74 422.35 242.19 424.05 240.36 429.39 241.76 433.15 245.94 435.71 243.22 439.2 241.49 442.41 242.71 443.85 242.05 444.41 237.96 446.32 236.64 448.48 233.11 450.17 233.44 452.49 230.56 454.64 233.7 457.94 233.3 458.29 235.96 460 238.28 460.6 241.26 462.39 239.83 465.88 240.26 468.03 237.55 472.43 239.07 475.2 236.54 473.27 231.63 472.75 226.7 471.12 223.9 472.71 218.9 483.76 224.32 488.35 227.82 491.1 231.83 495.21 232.24 496.11 233.34 495.32 236.93 498.7 240.58 499.82 239.76 502.27 240.55 506.09 243.17 508.49 241.86 510.91 243.41 516.53 241.85 517.81 243.13 520.84 243.54 522.77 245.67 521.24 248.78 519.7 250.52 514.86 249.88 512.81 250.96 511.2 249.68 509.48 251.16 506.75 251.98 508.78 255.45 512.94 256.82 515.55 256.97 517.47 259.95 514.05 262.41 507.02 265.95 503.21 267.46 501.6 269.33 503.51 273.95 504.34 283.11 505.35 283.72 504.91 287.36 503.13 288.18 499.61 291.98 497.87 291.24 495.11 294.13 492.06 294.66 491.9 297.47 488.68 298.05 484.61 301.75 483.63 305.68 481.15 300.63 476.93 301.54 477 303.42 474 305.71 472.22 304.17 469.52 304.86 468.02 306.45 469.42 309.29 467.05 310.27 467.73 313.91 466.13 316.7 458.47 317.92 454.38 316.56 452.98 316.93 451.02 315.36 448.17 315.33 445.78 318.71 443.94 320.13 442.22 319.41 440.63 317.19 437.17 315.82 435.82 316.95 431.96 317 430.67 313.64 431.87 311.37 429.88 307.09 428.05 307.11 424.94 302.35 427.58 300.35 427.18 297.34 424.73 297.28 419.7 296.2 419.56 297.62 417.15 297.71 415.64 295.57 411.88 296.33 410.54 295.18 408.75 296.05 404.61 295.45 403.71 293.23 401.9 291.85 401.65 289.67 396.3 288.8 393.84 289.45 392.47 291.42 389.66 293.01 386.49 291.45 385.88 292.73 383.6 291.59 380.46 291.42 377.45 292.67 376.98 293.75 371.47 292.62 364.65 292.62 362.23 294.47 Z" id="UA-35" data-name="Kirovohrad"/>
<path d="M 382.62 148.44 380.99 148.21 380.14 150.61 377.69 149.37 376.21 151.68 378.23 157.66 377.02 161.79 377.96 166.1 375.18 167.45 374.43 162.15 373.24 161.71 372.32 155.3 369.44 153.08 368.99 150.22 367.44 150.33 367.58 147.42 363.97 142.92 363.37 140.18 359.81 139.73 359.15 142 357.49 141.64 358.27 137.63 358.13 135.32 358.89 130.84 360.71 129.21 360.32 126.78 361.22 124.5 364.02 124.18 364.05 122.43 368.41 122.47 370.32 127.11 372.4 129.76 373.69 128.17 377.91 128.56 378.67 126.64 381.07 125.18 381.96 122.07 386.22 124.12 386.55 127.94 383.6 130.72 382.49 133.36 382.92 137.98 386.71 143.98 384.24 145.43 384.32 148.21 382.62 148.44 Z" id="UA-30" data-name="Kiev City"/>
</g>
</svg>