<?xml version="1.0" encoding="utf-8"?>
<svg version="1.1" xmlns="http://www.w3.org/2000/svg" xmlns:xlink="http://www.w3.org/1999/xlink" x="0px" y="0px"
	 width="174px" height="32px" viewBox="0 0 174 32" enable-background="new 0 0 174 32" xml:space="preserve">
<path d="M67.25,7.91c-2.39,0-4.02,0.66-5.72,2.16c-1.2-1.4-2.92-2.16-4.95-2.16c-1.79,0-2.92,0.53-4.02,1.46V8.41h-5.38v16.12h5.39
	v-10.3c0.8-1.03,1.6-1.43,2.43-1.43c1.76,0,2.89,1.1,2.89,3.39v8.34h5.38v-9.2c0-0.4-0.03-0.8-0.07-1.2
	c0.8-0.96,1.63-1.33,2.46-1.33c1.79,0,2.89,1.1,2.89,3.39v8.34h5.42v-9.2C73.97,10.73,71.11,7.91,67.25,7.91"/>
<path d="M128.6,8.04c-1.76,0-3.22,0.47-4.42,1.23V8.41h-5.39V32h5.39v-8.38c1.2,0.76,2.66,1.23,4.42,1.23
	c4.35,0,8.01-3.62,8.01-8.41C136.61,11.63,132.96,8.04,128.6,8.04 M127.54,20.44c-1.2,0-2.36-0.33-3.36-1.5v-4.99
	c1-1.16,2.16-1.53,3.36-1.53c2.19,0,3.79,1.79,3.79,4.02C131.33,18.68,129.73,20.44,127.54,20.44z"/>
<path d="M107.87,8.04c-1.76,0-3.22,0.47-4.42,1.23V8.41h-5.39V32h5.39v-8.38c1.2,0.76,2.66,1.23,4.42,1.23
	c4.35,0,8.01-3.62,8.01-8.41C115.87,11.63,112.22,8.04,107.87,8.04 M106.8,20.44c-1.2,0-2.36-0.33-3.36-1.5v-4.99
	c1-1.16,2.16-1.53,3.36-1.53c2.19,0,3.79,1.79,3.79,4.02C110.59,18.68,109,20.44,106.8,20.44z"/>
<path d="M94.41,8.41h-5.39v0.86c-1.2-0.76-2.66-1.23-4.42-1.23c-4.35,0-8.01,3.59-8.01,8.41c0,4.79,3.66,8.41,8.01,8.41
	c1.76,0,3.22-0.47,4.42-1.23v0.9h5.39V8.41L94.41,8.41z M85.67,20.44c-2.19,0-3.79-1.76-3.79-3.99s1.6-4.02,3.79-4.02
	c1.2,0,2.36,0.37,3.36,1.53v4.99C88.02,20.11,86.86,20.44,85.67,20.44z"/>
<path d="M144.82,0.93h-2.02c-1.85,0-3.36,1.51-3.36,3.36v20.24h5.38L144.82,0.93L144.82,0.93z"/>
<rect x="148.64" y="8.41" width="5.38" height="16.12"/>
<path d="M151.55,6.01c1.71,0,3.12-1.28,3.12-2.99c0-1.74-1.41-3.02-3.12-3.02c-1.74,0-3.12,1.28-3.12,3.02
	C148.43,4.73,149.81,6.01,151.55,6.01"/>
<path d="M165.76,20.34c-2.29,0-3.69-1.69-3.69-3.89c0-2.19,1.4-3.85,3.69-3.85c1.66,0,2.89,0.96,3.16,2.43H174
	c-0.37-4.15-3.79-6.98-8.24-6.98c-5.09,0-8.81,3.52-8.81,8.41c0,4.92,3.72,8.44,8.81,8.44c4.45,0,7.88-2.82,8.24-6.98h-5.09
	C168.65,19.37,167.42,20.34,165.76,20.34"/>
<path fill="#1476FF" d="M16,9.35c-0.96-0.02-1.91-0.12-2.79-0.29c-2.04-0.39-3.66-1.14-4.38-2.11C8.15,6.03,8.42,5.09,9.32,4.33
	c0.86-0.73,2.35-1.32,4.19-1.63c0.82-0.14,1.66-0.21,2.48-0.23c0.83,0.02,1.66,0.09,2.48,0.23c1.84,0.31,3.33,0.9,4.19,1.63
	c0.91,0.76,1.17,1.7,0.5,2.62c-0.72,0.97-2.34,1.72-4.38,2.11C17.91,9.23,16.96,9.33,16,9.35 M16,19.64
	c2.56-1.61,4.95-3.11,7.16-4.51L29,11.45c2.89-1.82,3.55-3.97,2.58-5.86c-0.87-1.68-3.05-3.19-6.23-4.23C22.54,0.44,19.21,0,16,0
	c-3.22,0-6.55,0.44-9.35,1.36C3.47,2.39,1.29,3.9,0.42,5.58c-0.98,1.89-0.31,4.04,2.58,5.86l5.84,3.69
	C11.05,16.53,13.44,18.04,16,19.64z"/>
<path fill="#5498F7" d="M16,25.82c2.56-1.61,4.95-3.11,7.16-4.51L29,17.63c2.7-1.7,3.46-3.69,2.74-5.49c-0.48,0.43-1,0.83-1.56,1.18
	L24.34,17c-2.39,1.51-4.78,3.01-7.17,4.51L16,22.25l-1.17-0.74c-2.39-1.5-4.78-3.01-7.17-4.51l-5.84-3.69
	c-0.56-0.35-1.09-0.75-1.56-1.18c-0.72,1.8,0.04,3.79,2.74,5.49l5.84,3.69C11.05,22.71,13.44,24.22,16,25.82"/>
<path fill="#A3C7FA" d="M16,32c2.56-1.61,4.95-3.11,7.16-4.51L29,23.8c2.7-1.7,3.46-3.69,2.74-5.49c-0.48,0.43-1,0.83-1.56,1.18
	l-5.84,3.69c-2.39,1.51-4.78,3.01-7.17,4.51L16,28.43l-1.17-0.74c-2.39-1.5-4.78-3.01-7.17-4.51l-5.84-3.69
	c-0.56-0.35-1.09-0.75-1.56-1.18c-0.72,1.8,0.04,3.79,2.74,5.49l5.84,3.69C11.05,28.89,13.44,30.4,16,32"/>
</svg>