<?xml version="1.0" encoding="utf-8"?>
<!-- Generator: Adobe Illustrator 22.0.1, SVG Export Plug-In . SVG Version: 6.00 Build 0)  -->
<svg version="1.1" id="Layer_1" xmlns="http://www.w3.org/2000/svg" xmlns:xlink="http://www.w3.org/1999/xlink" x="0px" y="0px"
	 width="32px" height="32px" viewBox="0 0 32 32" enable-background="new 0 0 32 32" xml:space="preserve">
<path fill="#1476FF" d="M16,9.35c-0.96-0.02-1.91-0.12-2.79-0.29c-2.04-0.39-3.66-1.14-4.38-2.11C8.15,6.03,8.42,5.09,9.32,4.33
	c0.86-0.73,2.35-1.32,4.19-1.63c0.82-0.14,1.66-0.21,2.48-0.23c0.83,0.02,1.66,0.09,2.48,0.23c1.84,0.31,3.33,0.9,4.19,1.63
	c0.91,0.76,1.17,1.7,0.5,2.62c-0.72,0.97-2.34,1.72-4.38,2.11C17.91,9.23,16.96,9.33,16,9.35 M16,19.64
	c2.56-1.61,4.95-3.11,7.16-4.51L29,11.45c2.89-1.82,3.55-3.97,2.58-5.86c-0.87-1.68-3.05-3.19-6.23-4.23C22.54,0.44,19.21,0,16,0
	c-3.22,0-6.55,0.44-9.35,1.36C3.47,2.39,1.29,3.9,0.42,5.58C-0.56,7.47,0.11,9.62,3,11.44l5.84,3.69
	C11.05,16.53,13.44,18.04,16,19.64z"/>
<path fill="#5498F7" d="M16,25.82c2.56-1.61,4.95-3.11,7.16-4.51L29,17.63c2.7-1.7,3.46-3.69,2.74-5.49c-0.48,0.43-1,0.83-1.56,1.18
	L24.34,17c-2.39,1.51-4.78,3.01-7.17,4.51L16,22.25l-1.17-0.74c-2.39-1.5-4.78-3.01-7.17-4.51l-5.84-3.69
	c-0.56-0.35-1.09-0.75-1.56-1.18c-0.72,1.8,0.04,3.79,2.74,5.49l5.84,3.69C11.05,22.71,13.44,24.22,16,25.82"/>
<path fill="#A3C7FA" d="M16,32c2.56-1.61,4.95-3.11,7.16-4.51L29,23.8c2.7-1.7,3.46-3.69,2.74-5.49c-0.48,0.43-1,0.83-1.56,1.18
	l-5.84,3.69c-2.39,1.51-4.78,3.01-7.17,4.51L16,28.43l-1.17-0.74c-2.39-1.5-4.78-3.01-7.17-4.51l-5.84-3.69
	c-0.56-0.35-1.09-0.75-1.56-1.18C-0.46,20.11,0.3,22.1,3,23.8l5.84,3.69C11.05,28.89,13.44,30.4,16,32"/>
</svg>
